<svg width="1101" height="572" viewBox="0 0 1101 572" fill="none" xmlns="http://www.w3.org/2000/svg">
<path d="M1075.51 513.238V519.024C1075.51 519.667 1076.08 520.294 1076.75 520.261C1077.42 520.228 1077.99 519.717 1077.99 519.024V513.238C1077.99 512.595 1077.42 511.968 1076.75 512.001C1076.08 512.034 1075.51 512.545 1075.51 513.238Z" fill="#CED3D8"/>
<path d="M1065.78 527.332L1070.55 527.241C1071.19 527.233 1071.82 526.681 1071.79 526.005C1071.75 525.329 1071.24 524.752 1070.55 524.768L1065.78 524.859C1065.14 524.867 1064.51 525.42 1064.54 526.096C1064.58 526.771 1065.09 527.348 1065.78 527.332Z" fill="#CED3D8"/>
<path d="M1084.74 527.332L1089.51 527.241C1090.15 527.233 1090.78 526.681 1090.75 526.005C1090.71 525.329 1090.2 524.752 1089.51 524.768L1084.74 524.859C1084.09 524.867 1083.47 525.42 1083.5 526.096C1083.53 526.771 1084.05 527.348 1084.74 527.332Z" fill="#CED3D8"/>
<path d="M1075.92 532.197C1075.92 533.878 1076.11 535.552 1076.06 537.233C1076.04 537.884 1076.64 538.503 1077.29 538.47C1077.94 538.437 1078.51 537.926 1078.53 537.233C1078.58 535.552 1078.39 533.878 1078.39 532.197C1078.39 531.554 1077.82 530.927 1077.15 530.96C1076.48 530.993 1075.92 531.504 1075.92 532.197Z" fill="#CED3D8"/>
<path d="M17.5125 1.2377V7.02428C17.5125 7.66723 18.0813 8.2937 18.749 8.26073C19.4166 8.22776 19.9854 7.71669 19.9854 7.02428V1.2377C19.9854 0.594742 19.4166 -0.0317253 18.749 0.00124668C18.0813 0.0342187 17.5125 0.545284 17.5125 1.2377Z" fill="#CED3D8"/>
<path d="M7.77871 15.332L12.5514 15.2413C13.1944 15.2331 13.8208 14.6808 13.7879 14.0049C13.7549 13.3289 13.2438 12.7519 12.5514 12.7684L7.77871 12.8591C7.13576 12.8673 6.50929 13.4196 6.54226 14.0955C6.57523 14.7715 7.0863 15.3485 7.77871 15.332Z" fill="#CED3D8"/>
<path d="M26.7376 15.332L31.5103 15.2413C32.1532 15.2331 32.7797 14.6808 32.7467 14.0049C32.7137 13.3289 32.2027 12.7519 31.5103 12.7684L26.7376 12.8591C26.0946 12.8673 25.4682 13.4196 25.5011 14.0955C25.5341 14.7715 26.0452 15.3485 26.7376 15.332Z" fill="#CED3D8"/>
<path d="M17.9162 20.1967C17.9162 21.8783 18.1058 23.5516 18.0563 25.2332C18.0398 25.8843 18.6416 26.5026 19.2928 26.4696C19.944 26.4366 20.5127 25.9256 20.5292 25.2332C20.5787 23.5516 20.3891 21.8783 20.3891 20.1967C20.3891 19.5537 19.8203 18.9273 19.1526 18.9602C18.485 18.9932 17.9162 19.5043 17.9162 20.1967Z" fill="#CED3D8"/>
<path d="M87.2815 126.296H80.2515L74.1095 111.126H48.9495L42.6595 126.296H35.6295L57.9035 72.276H65.3775L87.2815 126.296ZM71.8155 105.428L61.6035 80.416L51.2435 105.428H71.8155ZM110.887 126.74C108.766 126.74 106.57 126.173 104.301 125.038C102.032 123.903 100.083 122.029 98.4549 119.414V126.296H91.9429V72.276H98.4549V95.364C100.083 92.7493 102.032 90.8747 104.301 89.74C106.57 88.6053 108.79 88.038 110.961 88.038C114.513 88.038 117.67 88.8767 120.433 90.554C123.196 92.182 125.342 94.4513 126.871 97.362C128.45 100.273 129.239 103.603 129.239 107.352C129.239 111.101 128.45 114.456 126.871 117.416C125.342 120.327 123.171 122.621 120.359 124.298C117.596 125.926 114.439 126.74 110.887 126.74ZM98.4549 107.426C98.4549 109.942 98.9976 112.261 100.083 114.382C101.218 116.503 102.722 118.181 104.597 119.414C106.472 120.647 108.494 121.264 110.665 121.264C112.984 121.264 115.056 120.672 116.881 119.488C118.756 118.304 120.186 116.676 121.173 114.604C122.209 112.483 122.727 110.09 122.727 107.426C122.727 104.762 122.209 102.394 121.173 100.322C120.186 98.2007 118.756 96.5727 116.881 95.438C115.056 94.254 112.984 93.662 110.665 93.662C108.494 93.662 106.472 94.2787 104.597 95.512C102.722 96.7453 101.218 98.4227 100.083 100.544C98.9976 102.665 98.4549 104.959 98.4549 107.426ZM151.525 120.968C153.844 120.968 155.891 120.401 157.667 119.266C159.443 118.082 160.824 116.454 161.811 114.382C162.847 112.261 163.365 109.868 163.365 107.204C163.365 104.54 162.847 102.172 161.811 100.1C160.824 98.028 159.418 96.4247 157.593 95.29C155.817 94.106 153.794 93.514 151.525 93.514C149.256 93.514 147.208 94.106 145.383 95.29C143.607 96.4247 142.226 98.028 141.239 100.1C140.252 102.172 139.759 104.54 139.759 107.204C139.759 109.868 140.252 112.261 141.239 114.382C142.226 116.454 143.607 118.082 145.383 119.266C147.208 120.401 149.256 120.968 151.525 120.968ZM133.247 107.204C133.247 103.455 134.012 100.125 135.541 97.214C137.12 94.3033 139.29 92.034 142.053 90.406C144.816 88.7287 147.973 87.89 151.525 87.89C155.077 87.89 158.234 88.7287 160.997 90.406C163.809 92.034 165.98 94.3033 167.509 97.214C169.088 100.125 169.877 103.455 169.877 107.204C169.877 110.953 169.088 114.283 167.509 117.194C165.98 120.105 163.809 122.399 160.997 124.076C158.234 125.704 155.077 126.518 151.525 126.518C147.973 126.518 144.816 125.704 142.053 124.076C139.29 122.399 137.12 120.105 135.541 117.194C134.012 114.283 133.247 110.953 133.247 107.204ZM182.432 110.238C182.432 113.395 183.32 116.01 185.096 118.082C186.872 120.105 189.166 121.116 191.978 121.116C195.135 121.116 197.7 120.179 199.674 118.304C201.647 116.38 202.634 113.864 202.634 110.756V88.038H209.146V126.296H202.634V120.598C201.4 122.423 199.748 123.903 197.676 125.038C195.653 126.173 193.581 126.74 191.46 126.74C188.5 126.74 185.836 126.049 183.468 124.668C181.1 123.287 179.25 121.387 177.918 118.97C176.586 116.553 175.92 113.815 175.92 110.756V88.038H182.432V110.238ZM231.114 126.444C227.956 126.444 225.366 125.408 223.344 123.336C221.321 121.264 220.26 118.6 220.162 115.344V93.958H213.798V88.26H220.162V78.122H226.674V88.26H234.888V93.958H226.674V114.9C226.674 116.38 227.093 117.663 227.932 118.748C228.77 119.833 229.831 120.376 231.114 120.376C231.854 120.376 232.52 120.327 233.112 120.228C233.704 120.129 234.296 120.006 234.888 119.858L236.072 125.852C234.197 126.247 232.544 126.444 231.114 126.444Z" fill="#1B1E24"/>
<g filter="url(#filter0_b_5252_64)">
<path d="M55.7885 343.004L53.1778 348.242C53.1263 352.018 58.3496 355.735 68.8476 359.394C79.4776 362.925 91.107 364.776 103.736 364.948C116.495 365.122 130.517 363.425 145.802 359.857C161.086 356.289 174.364 351.847 185.635 346.531C197.037 341.217 206.424 335.615 213.797 329.726C221.299 323.838 225.081 318.681 225.141 314.254C225.218 308.655 218.779 303.359 205.825 298.364C192.871 293.37 173.999 287.838 149.21 281.771C124.552 275.575 106.49 267.971 95.0232 258.96C83.6866 249.951 78.1044 239.131 78.2765 226.502C78.4503 213.743 83.1731 201.632 92.4447 190.169C101.716 178.705 113.704 168.581 128.409 159.796C143.243 151.013 159.367 143.225 176.779 136.43C212.779 122.466 246.078 115.693 276.674 116.11C288.392 116.269 298.728 117.452 307.683 119.657C324.814 123.928 333.334 129.383 333.244 136.023C333.153 142.663 332.506 147.212 331.3 149.67C330.096 151.997 329.099 153.546 328.307 154.317C327.645 155.089 326.723 155.858 325.541 156.623C324.488 157.39 323.699 157.965 323.173 158.349C317.379 163.088 301.649 165.869 275.985 166.691C267.126 166.961 262.303 167.351 261.514 167.861C260.726 168.371 260.007 168.622 259.356 168.613C258.835 168.606 258.191 168.076 257.424 167.024C256.657 165.972 256.289 164.274 256.321 161.93C256.353 159.587 258.951 155.325 264.113 149.145C248.217 149.84 231.177 153.253 212.993 159.386C194.939 165.521 179.217 172.534 165.827 180.425C152.438 188.186 141.264 195.912 132.304 203.604C123.346 211.165 118.845 216.572 118.801 219.827C118.758 222.952 119.699 225.569 121.624 227.679C127.012 233.612 142.097 239.938 166.877 246.657C192.566 253.648 209.679 259.22 218.217 263.374C226.755 267.527 233.798 271.464 239.347 275.186C245.026 278.91 249.532 282.682 252.866 286.504C260.683 295.726 264.528 305.024 264.401 314.398C264.273 323.772 261.614 332.526 256.425 340.659C251.366 348.794 243.706 356.633 233.446 364.176C223.316 371.721 211.375 378.395 197.623 384.198C167.495 397.2 131.73 403.419 90.3277 402.855C60.1222 402.443 40.9622 394.174 32.8479 378.046C30.6896 373.98 29.6397 369.798 29.6982 365.502C29.7586 361.075 30.7891 357.117 32.79 353.629C34.921 350.142 37.4311 347.506 40.3203 345.723C45.9666 342.284 49.9616 340.58 52.3051 340.612C54.6486 340.644 55.8098 341.441 55.7885 343.004ZM393.758 255.218C393.641 263.811 390.023 271.314 382.904 277.728C375.915 284.144 367.993 287.292 359.14 287.171C356.276 287.132 354.397 286.455 353.503 285.141C352.611 283.696 352.18 281.867 352.21 279.654C352.241 277.441 352.53 275.296 353.079 273.22C348.371 274.718 343.13 277.056 337.357 280.233C331.584 283.41 324.488 288.131 316.069 294.397C307.649 300.663 303.418 305.359 303.376 308.483C303.361 309.525 304.852 310.066 307.846 310.107C310.971 310.15 315.737 309.173 322.145 307.177C328.555 305.05 332.997 304.004 335.47 304.038C338.074 304.073 339.765 304.226 340.543 304.497C342.223 305.432 344.018 307.475 345.928 310.626C347.841 313.647 348.784 316.069 348.759 317.892C348.736 319.584 347.013 321.84 343.589 324.658C340.164 327.476 336.294 329.637 331.976 331.141C327.66 332.515 324.78 333.582 323.338 334.344C295.657 349.333 281.777 359.691 281.699 365.42C281.561 375.575 290.15 380.771 307.466 381.007C318.533 381.158 329.712 377.794 341.005 370.916C350.591 365.057 359.201 359.119 366.836 353.102C374.603 346.958 379.472 343.182 381.445 341.777C383.547 340.373 385.12 339.678 386.161 339.693C389.546 339.739 391.187 343.537 391.084 351.089C390.982 358.64 390.458 363.647 389.512 366.108C388.569 368.439 385.925 371.333 381.581 374.79C353.41 397.064 326.891 408.032 302.024 407.693C288.744 407.512 278.157 405.545 270.265 401.791C255.774 394.952 248.621 384.698 248.807 371.027C249.052 353.06 261.671 339.624 286.665 330.719C281.748 328.438 278.596 325.595 277.21 322.191C275.826 318.656 275.185 313.113 275.288 305.561C275.392 297.88 279.018 289.856 286.164 281.489C293.442 272.993 302.261 266.082 312.621 260.753C335.704 248.697 356.229 242.791 374.196 243.036C378.492 243.095 382.84 244.196 387.238 246.339C391.636 248.483 393.81 251.442 393.758 255.218ZM520.7 256.948C520.582 265.541 516.964 273.044 509.845 279.458C502.856 285.874 494.935 289.022 486.081 288.901C483.217 288.862 481.338 288.185 480.444 286.871C479.552 285.426 479.122 283.597 479.152 281.384C479.182 279.171 479.472 277.026 480.021 274.95C475.312 276.448 470.072 278.786 464.299 281.963C458.526 285.14 451.43 289.861 443.01 296.127C434.591 302.393 430.36 307.089 430.317 310.213C430.303 311.255 431.793 311.796 434.787 311.837C437.912 311.88 442.678 310.903 449.086 308.906C455.496 306.78 459.938 305.734 462.412 305.767C465.016 305.803 466.706 305.956 467.484 306.227C469.164 307.162 470.959 309.205 472.87 312.356C474.782 315.377 475.726 317.799 475.701 319.622C475.678 321.314 473.954 323.57 470.53 326.388C467.106 329.206 463.235 331.367 458.917 332.871C454.601 334.244 451.722 335.312 450.279 336.074C422.598 351.062 408.719 361.421 408.641 367.15C408.502 377.305 417.091 382.501 434.407 382.737C445.474 382.888 456.654 379.524 467.946 372.646C477.532 366.786 486.143 360.849 493.777 354.832C501.544 348.687 506.414 344.912 508.386 343.507C510.489 342.103 512.061 341.408 513.102 341.422C516.488 341.469 518.129 345.267 518.026 352.819C517.923 360.37 517.399 365.376 516.454 367.838C515.51 370.169 512.867 373.063 508.522 376.52C480.352 398.794 453.832 409.762 428.965 409.423C415.685 409.242 405.099 407.275 397.206 403.521C382.715 396.682 375.562 386.427 375.749 372.757C375.994 354.79 388.613 341.354 413.606 332.449C408.689 330.168 405.537 327.325 404.151 323.921C402.767 320.386 402.126 314.843 402.229 307.291C402.334 299.61 405.959 291.585 413.105 283.219C420.383 274.723 429.202 267.811 439.562 262.483C462.645 250.427 483.17 244.521 501.137 244.766C505.434 244.825 509.781 245.926 514.179 248.069C518.578 250.213 520.751 253.172 520.7 256.948ZM760.567 113.523C763.041 113.557 764.983 114.365 766.394 115.947C767.805 117.529 768.498 119.166 768.475 120.858C768.454 122.421 767.111 125.397 764.447 129.789C761.915 134.051 755.992 143.477 746.677 158.065C737.365 172.522 730.113 183.883 724.922 192.146C694.713 239.786 670.984 280.092 653.736 313.063C636.489 346.034 627.818 365.97 627.724 372.87L627.702 374.432C627.63 379.77 629.546 382.466 633.452 382.519C637.358 382.573 642.07 380.814 647.588 377.243C653.236 373.673 658.172 369.834 662.395 365.725C666.618 361.615 670.842 357.375 675.069 353.006C679.428 348.507 682.068 345.874 682.99 345.105C683.912 344.336 685.089 343.962 686.521 343.981C688.735 344.011 690.147 345.463 690.759 348.336C691.373 351.079 691.645 354.989 691.576 360.067C691.509 365.014 691.074 368.264 690.271 369.816C686.396 377.055 677.942 385.86 664.909 396.23C652.008 406.472 639.828 411.515 628.371 411.359C608.842 411.093 599.19 402.692 599.415 386.157C599.555 375.872 603.645 362.45 611.684 345.891C600.951 359.418 590.051 370.924 578.984 380.41C558.432 397.84 540.669 406.453 525.697 406.249C517.364 406.135 511.22 403.121 507.264 397.207C503.438 391.295 501.599 382.871 501.748 371.935C501.899 360.868 506.376 347.712 515.178 332.466C523.98 317.219 534.844 303.564 547.77 291.5C560.828 279.307 575.225 269.215 590.96 261.226C606.697 253.106 621.141 249.136 634.291 249.315C638.457 249.372 643.305 251.977 648.834 257.131C652.691 251.194 659.82 239.311 670.22 221.482C702.851 168.146 724.39 135.624 734.837 123.916C740.403 116.83 748.979 113.365 760.567 113.523ZM636.671 275.327C617.866 279.237 600.301 287.723 583.975 300.783C567.65 313.843 555.352 327.609 547.081 342.081C538.812 356.423 534.648 365.742 534.59 370.038C534.531 374.335 535.413 376.495 537.236 376.52C545.048 376.627 564.62 359.444 595.952 324.972C611.549 307.995 625.122 291.447 636.671 275.327ZM806.175 192.472C806.074 199.894 802.522 207.333 795.518 214.79C788.517 222.117 781.24 225.729 773.689 225.627C766.268 225.525 762.61 221.569 762.717 213.757C762.823 205.945 766.179 198.569 772.785 191.627C779.523 184.556 786.862 181.075 794.804 181.184C798.32 181.231 801.106 182.246 803.162 184.227C805.219 186.209 806.223 188.957 806.175 192.472ZM772.214 362.533C772.161 366.439 771.732 369.233 770.928 370.915C764.371 383.848 754.072 394.255 740.031 402.137C725.991 409.89 713.829 413.696 703.544 413.555C693.258 413.415 684.452 409.844 677.125 402.843C669.797 395.841 666.183 388.76 666.28 381.599C666.378 374.439 670.1 364.072 677.447 350.499C684.794 336.926 692.127 324.394 699.446 312.904C706.765 301.414 710.43 295.214 710.443 294.302C710.457 293.261 709.116 291.289 706.421 288.388C703.856 285.488 702.583 283.387 702.601 282.085C702.62 280.653 705.338 277.109 710.754 271.453C716.302 265.669 722.955 260.03 730.713 254.536C738.603 248.914 744.566 246.13 748.602 246.185C752.768 246.242 756.454 248.115 759.659 251.805C762.864 255.495 764.446 258.837 764.406 261.832C764.365 264.826 748.487 292.802 716.773 345.761C716.372 346.536 715.241 348.279 713.381 350.988C711.653 353.569 710.256 355.764 709.19 357.572C708.255 359.253 707.12 361.321 705.785 363.777C703.11 368.949 701.748 373.293 701.7 376.808C701.64 381.235 704.604 383.489 710.593 383.571C716.582 383.652 722.794 381.718 729.229 377.769C735.795 373.692 741.456 369.211 746.21 364.328C758.628 351.344 765.683 344.864 767.376 344.888C770.761 344.934 772.374 350.816 772.214 362.533ZM859.712 377.594C859.634 383.323 863.501 386.24 871.313 386.347C875.479 386.404 880.715 384.391 887.021 380.31C893.458 376.231 899.249 371.752 904.394 366.874C918.117 353.648 925.89 347.048 927.712 347.073C931.098 347.119 932.724 352.024 932.59 361.789C932.457 371.554 929.306 378.217 923.138 381.779C904.291 398.321 889.765 408.345 879.56 411.852C873.804 413.727 867.477 414.552 860.579 414.328C853.68 414.104 846.886 411.016 840.195 405.065C833.505 399.114 830.217 391.972 830.33 383.64C830.445 375.177 832.789 365.638 837.361 355.022C841.934 344.406 846.549 335.354 851.209 327.864C856.001 320.247 861.85 311.471 868.757 301.538C875.666 291.475 879.332 285.21 879.756 282.741L879.371 282.345C875.069 282.677 864.278 290.995 846.997 307.297C829.846 323.601 815.654 337.797 804.42 349.885C793.187 361.973 779.749 378.132 764.108 398.364C759.735 403.903 756.182 406.655 753.447 406.618C750.713 406.58 747.079 405.684 742.545 403.93C737.883 402.043 735.037 400.702 734.006 399.907C732.975 399.111 732.47 397.932 732.491 396.37C732.513 394.808 732.994 392.926 733.936 390.725C734.879 388.394 735.816 386.519 736.747 385.099C737.549 383.547 738.948 381.222 740.944 378.124C742.939 375.026 746.87 368.504 752.735 358.557C758.732 348.481 767.856 333.5 780.108 313.613C792.359 293.726 799.685 281.715 802.085 277.581C807.15 269.055 811.271 262.861 814.449 258.998C820.409 251.656 830.354 248.08 844.285 248.27C847.41 248.313 848.946 250.287 848.893 254.193C848.809 260.312 842.989 271.757 831.431 288.529L823.061 300.72C845.925 276.03 865.15 260.47 880.734 254.041C888.329 250.889 895.122 249.354 901.111 249.435C907.23 249.519 912.025 251.212 915.496 254.515C919.097 257.819 920.87 261.49 920.815 265.526C920.762 269.432 919.33 274.165 916.52 279.726C913.711 285.157 910.844 290.067 907.92 294.454C905.127 298.713 901.407 304.132 896.76 310.71C892.112 317.288 889.589 320.9 889.19 321.545C888.792 322.061 887.729 323.609 886.001 326.19C884.405 328.642 883.208 330.449 882.411 331.61C881.614 332.771 880.284 334.837 878.42 337.806C876.558 340.646 875.028 343.034 873.83 344.971C872.762 346.91 871.362 349.3 869.63 352.141C868.029 354.984 866.693 357.44 865.623 359.509C864.683 361.58 863.676 363.845 862.601 366.304C860.716 370.836 859.753 374.6 859.712 377.594ZM976.098 279.562C988.846 271.01 1001.31 264.474 1013.48 259.952C1025.65 255.43 1036.16 253.229 1045.02 253.35C1053.87 253.47 1059.5 256.086 1061.9 261.198C1067.06 255.408 1073.42 252.369 1080.97 252.082C1083.19 251.982 1085.92 251.954 1089.18 251.998C1092.43 252.043 1094.45 252.526 1095.21 253.448C1095.99 254.24 1096.68 255.812 1097.3 258.164C1097.92 260.517 1098.29 261.824 1098.42 262.086C1098.54 262.348 1098.6 262.805 1098.59 263.456C1098.59 263.977 1098.25 264.688 1097.59 265.591C1096.93 266.363 1096.14 267.134 1095.21 267.902C1094.42 268.673 1093.96 269.122 1093.83 269.251C1064.49 310.131 1034.43 356.796 1003.63 409.246C1034.99 382.196 1062.99 362.85 1087.63 351.205C1089.2 350.445 1090.71 350.075 1092.14 350.095C1094.22 350.123 1095.57 351.509 1096.18 354.252C1096.8 356.864 1097.07 360.645 1097.01 365.592C1096.94 370.539 1096.57 373.595 1095.91 374.758C1095.37 375.922 1092.34 378.225 1086.83 381.666C1081.31 385.107 1074.15 389.567 1065.35 395.046C1056.55 400.526 1047.23 406.584 1037.37 413.221C1013.71 429.176 994.209 446.035 978.861 463.796C959.01 487.095 944.755 505.913 936.096 520.25C932.895 525.806 927.584 528.533 920.162 528.432C905.45 528.231 898.189 521.166 898.379 507.235C898.572 493.043 905.736 478.621 919.869 463.969C930.435 453.044 940.128 444.126 948.947 437.214C957.766 430.302 962.572 426.396 963.366 425.495C973.197 411.175 986.562 390.847 1003.46 364.513C989.197 379.033 975.366 390.564 961.968 399.107C948.699 407.651 938.81 411.878 932.3 411.789C912.38 411.518 902.536 402.854 902.768 385.799C902.953 372.258 906.589 358.635 913.678 344.928C920.766 331.221 929.787 319.038 940.741 308.379C951.696 297.59 963.482 287.984 976.098 279.562ZM1050.57 275.498C1035.43 278.547 1021.16 283.757 1007.78 291.127C994.398 298.367 983.352 306.225 974.642 314.701C965.934 323.047 958.394 331.669 952.022 340.567C940.076 357.203 934.039 370.143 933.913 379.387C933.883 381.6 934.389 382.714 935.43 382.728C936.602 382.744 939.092 381.606 942.9 379.314C946.837 377.023 952.36 373.127 959.467 367.624C966.575 361.991 974.479 355.328 983.179 347.633C1003.35 329.547 1025.81 305.502 1050.57 275.498Z" fill="url(#paint0_linear_5252_64)" fill-opacity="0.75"/>
</g>
<path d="M563.582 490.84C569.835 490.84 574.922 488.787 578.842 484.68C582.762 480.573 584.722 475.3 584.722 468.86C584.722 462.42 582.715 457.147 578.702 453.04C574.782 448.933 569.695 446.88 563.442 446.88H534.882L535.022 490.84H563.582ZM524.942 437.92H563.862C569.835 437.92 575.108 439.227 579.682 441.84C584.348 444.453 587.988 448.14 590.602 452.9C593.215 457.567 594.522 462.887 594.522 468.86C594.522 474.833 593.215 480.2 590.602 484.96C587.988 489.627 584.348 493.267 579.682 495.88C575.108 498.493 569.835 499.8 563.862 499.8H535.022V539H524.942V437.92ZM614.818 482.72C616.778 478.147 620.092 474.413 624.758 471.52C629.518 468.533 634.652 467.04 640.158 467.04V476.84C635.772 476.84 631.618 478.007 627.698 480.34C623.778 482.673 620.652 485.8 618.318 489.72C615.985 493.64 614.818 497.84 614.818 502.32V539H604.738V467.74H614.818V482.72ZM676.996 530.6C681.569 530.6 685.676 529.48 689.316 527.24C692.956 524.907 695.803 521.687 697.856 517.58C699.909 513.38 700.936 508.667 700.936 503.44C700.936 498.213 699.909 493.547 697.856 489.44C695.803 485.24 692.956 482.02 689.316 479.78C685.676 477.447 681.569 476.28 676.996 476.28C672.423 476.28 668.316 477.447 664.676 479.78C661.036 482.02 658.189 485.24 656.136 489.44C654.176 493.547 653.196 498.213 653.196 503.44C653.196 508.667 654.176 513.38 656.136 517.58C658.189 521.687 661.036 524.907 664.676 527.24C668.316 529.48 672.423 530.6 676.996 530.6ZM643.116 503.44C643.116 496.44 644.563 490.233 647.456 484.82C650.349 479.313 654.363 475.02 659.496 471.94C664.629 468.86 670.463 467.32 676.996 467.32C683.623 467.32 689.503 468.86 694.636 471.94C699.769 475.02 703.783 479.313 706.676 484.82C709.569 490.233 711.016 496.44 711.016 503.44C711.016 510.44 709.569 516.693 706.676 522.2C703.783 527.613 699.769 531.86 694.636 534.94C689.503 538.02 683.623 539.56 676.996 539.56C670.463 539.56 664.629 538.02 659.496 534.94C654.363 531.86 650.349 527.613 647.456 522.2C644.563 516.693 643.116 510.44 643.116 503.44ZM752.884 531.02C757.177 531.02 761.144 529.807 764.784 527.38C768.517 524.86 771.41 521.547 773.464 517.44C775.61 513.24 776.684 508.76 776.684 504C776.684 499.333 775.61 494.947 773.464 490.84C771.317 486.733 768.424 483.467 764.784 481.04C761.144 478.52 757.177 477.26 752.884 477.26C748.31 477.26 744.204 478.427 740.564 480.76C736.924 483 734.077 486.173 732.024 490.28C729.97 494.293 728.944 498.867 728.944 504C728.944 509.227 729.97 513.893 732.024 518C734.077 522.107 736.924 525.327 740.564 527.66C744.204 529.9 748.31 531.02 752.884 531.02ZM718.864 504C718.864 497.093 720.31 490.933 723.204 485.52C726.097 480.107 730.11 475.907 735.244 472.92C740.377 469.84 746.21 468.3 752.744 468.3C758.064 468.3 762.824 469.607 767.024 472.22C771.317 474.833 774.537 478.427 776.684 483V467.74H786.764V535.5C786.67 542.407 785.177 548.567 782.284 553.98C779.39 559.393 775.33 563.593 770.104 566.58C764.97 569.567 758.95 571.06 752.044 571.06C746.257 571.06 740.89 569.707 735.944 567C731.09 564.387 726.89 560.42 723.344 555.1L731.604 550.06C734.124 554.073 737.11 557.06 740.564 559.02C744.11 561.073 747.937 562.1 752.044 562.1C759.51 562.1 765.437 559.627 769.824 554.68C774.304 549.733 776.59 543.293 776.684 535.36V524.72C774.257 529.107 770.804 532.747 766.324 535.64C761.844 538.533 757.317 539.98 752.744 539.98C746.21 539.98 740.377 538.487 735.244 535.5C730.11 532.42 726.097 528.173 723.204 522.76C720.31 517.253 718.864 511 718.864 504ZM810.89 482.72C812.85 478.147 816.163 474.413 820.83 471.52C825.59 468.533 830.723 467.04 836.23 467.04V476.84C831.843 476.84 827.69 478.007 823.77 480.34C819.85 482.673 816.723 485.8 814.39 489.72C812.056 493.64 810.89 497.84 810.89 502.32V539H800.81V467.74H810.89V482.72ZM873.207 531.02C877.407 531.02 881.327 529.853 884.967 527.52C888.7 525.187 891.687 521.967 893.927 517.86C896.167 513.66 897.287 509.04 897.287 504C897.287 498.96 896.167 494.387 893.927 490.28C891.687 486.173 888.7 482.953 884.967 480.62C881.327 478.287 877.407 477.12 873.207 477.12C868.634 477.12 864.527 478.287 860.887 480.62C857.247 482.86 854.4 486.033 852.347 490.14C850.294 494.153 849.267 498.773 849.267 504C849.267 509.227 850.294 513.893 852.347 518C854.4 522.107 857.247 525.327 860.887 527.66C864.527 529.9 868.634 531.02 873.207 531.02ZM839.187 504C839.187 497.093 840.634 490.933 843.527 485.52C846.42 480.013 850.434 475.767 855.567 472.78C860.7 469.7 866.534 468.16 873.067 468.16C877.454 468.16 881.747 469.373 885.947 471.8C890.24 474.227 893.927 477.913 897.007 482.86V467.74H907.087V539H897.007V525C893.834 530.227 890.147 534.053 885.947 536.48C881.84 538.813 877.547 539.98 873.067 539.98C866.534 539.98 860.7 538.487 855.567 535.5C850.434 532.42 846.42 528.173 843.527 522.76C840.634 517.253 839.187 511 839.187 504ZM1011.92 495.32C1011.92 489.813 1010.34 485.333 1007.16 481.88C1004.08 478.427 1000.12 476.7 995.262 476.7C989.569 476.7 984.902 478.333 981.262 481.6C977.715 484.773 975.942 488.88 975.942 493.92V539H965.862V495.32C965.862 489.813 964.322 485.333 961.242 481.88C958.255 478.427 954.335 476.7 949.482 476.7C945.749 476.7 942.389 477.68 939.402 479.64C936.509 481.507 934.222 483.98 932.542 487.06C930.862 490.14 930.022 493.453 930.022 497V539H919.942V467.74H930.022V479.92C932.075 476.373 934.922 473.48 938.562 471.24C942.202 468.907 945.842 467.74 949.482 467.74C954.149 467.74 958.582 469.093 962.782 471.8C966.982 474.413 970.015 477.82 971.882 482.02C974.029 477.82 977.295 474.413 981.682 471.8C986.069 469.093 990.595 467.74 995.262 467.74C1000.4 467.74 1004.97 468.86 1008.98 471.1C1013.09 473.34 1016.26 476.467 1018.5 480.48C1020.84 484.493 1022 489.067 1022 494.2V539H1011.92V495.32Z" fill="#1B1E24"/>
<defs>
<filter id="filter0_b_5252_64" x="17.6436" y="93.6121" width="1092.93" height="447.202" filterUnits="userSpaceOnUse" color-interpolation-filters="sRGB">
<feFlood flood-opacity="0" result="BackgroundImageFix"/>
<feGaussianBlur in="BackgroundImageFix" stdDeviation="5"/>
<feComposite in2="SourceAlpha" operator="in" result="effect1_backgroundBlur_5252_64"/>
<feBlend mode="normal" in="SourceGraphic" in2="effect1_backgroundBlur_5252_64" result="shape"/>
</filter>
<linearGradient id="paint0_linear_5252_64" x1="540.491" y1="29.2901" x2="533.95" y2="509.246" gradientUnits="userSpaceOnUse">
<stop offset="0.078307" stop-color="#00B5B0"/>
<stop offset="0.947855" stop-color="#1CBEB9"/>
</linearGradient>
</defs>
</svg>
