<svg width="274" height="490" viewBox="0 0 274 490" fill="none" xmlns="http://www.w3.org/2000/svg">
<path d="M106.1 315.42L96.9801 315.3V280.62L87.9801 284.28L85.0401 276.24L97.0401 271.26H106.1V315.42ZM123.534 319.08H114.354L127.554 267.96H136.674L123.534 319.08ZM167.656 299.52C167.656 293.76 165.276 290.88 160.516 290.88C158.636 290.92 157.036 291.72 155.716 293.28C154.396 294.8 153.776 296.88 153.856 299.52V316.08H144.736V283.38H153.856V288.78C154.616 287.3 155.836 286.08 157.516 285.12C159.196 284.12 160.916 283.62 162.676 283.62C164.596 283.62 166.616 284.06 168.736 284.94C170.896 285.78 172.776 287.4 174.376 289.8C175.976 292.16 176.776 295.4 176.776 299.52V316.08H167.656V299.52Z" fill="#E6E9EC"/>
<path d="M195.364 120.96C190.75 125.722 183.031 127.878 177.761 128.847C144.033 135.111 109.544 135.789 75.6498 130.846C74.5978 129.126 74.2645 126.558 75.004 124.547C76.254 121.179 79.2434 119.216 82.0663 117.58C100.159 107.101 119.846 100.377 139.908 97.5903C151.616 95.9669 198.635 91.8478 198.999 114.212C199.041 116.975 197.145 119.131 195.364 120.96Z" fill="#1B1E24"/>
<path fill-rule="evenodd" clip-rule="evenodd" d="M178.727 43.9326C178.004 43.5223 175.835 43.3928 171.369 43.436C163.287 43.5224 157.699 44.2024 155.034 45.3791C153.189 46.1887 153.005 46.3722 153.588 46.9551C154.624 47.9914 159.231 48.2181 168.121 47.6784C174.217 47.3221 176.601 46.9983 177.821 46.4153C179.806 45.4222 180.076 44.699 178.727 43.9326Z" fill="#00B5B0"/>
<path fill-rule="evenodd" clip-rule="evenodd" d="M161.756 9.2594C160.45 9.2594 157.829 11.4292 151.873 17.4311C146.37 23.0336 144.331 25.9698 145.378 27.0061C145.734 27.3623 146.284 27.276 147.18 26.8226C149.165 25.8726 158.368 17.118 160.623 14.0415C162.695 11.2457 163.148 9.2594 161.756 9.2594Z" fill="#00B5B0"/>
<path fill-rule="evenodd" clip-rule="evenodd" d="M127.499 2.70714C127.359 2.25376 126.96 1.35778 126.593 0.807241C125.913 -0.185882 125.827 -0.229054 125.061 0.494199C123.799 1.62765 123.572 4.6502 124.155 12.1418C124.964 22.9366 125.104 23.7462 125.87 24.0161C127.542 24.653 127.812 23.023 127.769 13.1349C127.726 7.89945 127.586 3.2037 127.499 2.70714Z" fill="#00B5B0"/>
<path fill-rule="evenodd" clip-rule="evenodd" d="M103.806 23.3469C102.587 21.1771 94.5055 12.0555 92.121 10.1125C91.2147 9.3892 89.9092 8.80627 89.2727 8.80627C87.5572 8.80627 87.7406 10.6522 89.6287 13.2753C91.9268 16.395 100.731 24.7934 102.446 25.4627C104.572 26.3695 105.014 25.6462 103.795 23.3361L103.806 23.3469Z" fill="#00B5B0"/>
<path fill-rule="evenodd" clip-rule="evenodd" d="M90.0388 45.3358C88.6901 44.116 88.3233 44.0296 83.0905 43.3495C73.2937 42.0434 66.8849 42.6695 66.8849 44.8824C66.8849 46.642 68.2875 46.8686 82.2705 47.4084C88.183 47.6351 88.9491 47.5919 89.8554 46.8686C90.848 46.059 90.848 46.0158 90.0388 45.3358Z" fill="#00B5B0"/>
<path d="M158.186 116.776C153.784 123.329 145.1 125.308 137.246 125.99C125.859 126.953 113.71 126.712 102.578 123.957C100.036 123.329 97.4534 122.5 95.4597 120.801C87.8197 114.276 90.0675 100.917 92.7837 92.7598C96.6773 81.0991 102.685 70.174 110.459 60.6395C110.646 60.3988 110.847 60.1715 111.034 59.9308C111.998 60.3587 113.135 60.6128 114.179 60.7465C120.374 61.5622 126.769 61.5756 132.764 59.7703C133.566 59.5296 134.396 59.2488 135.038 58.7139C135.038 58.7406 135.065 58.754 135.092 58.7808C139.253 64.8785 145.368 71.3507 149.221 77.395C153.904 84.7364 158.681 92.2917 160.42 100.837C161.531 106.239 161.25 112.216 158.186 116.803V116.776Z" fill="white"/>
<path d="M156.46 115.773C152.005 122.192 143.254 123.529 136.029 124.091C126.288 124.84 116.347 124.733 106.726 122.834C102.578 122.018 97.9355 121.189 95.1926 117.645C93.2391 115.118 92.463 111.855 92.289 108.726C91.8876 101.505 94.0954 94.431 96.7313 87.8118C100.545 78.2506 105.923 69.2911 112.453 61.348L110.499 61.8695C112.453 62.6585 114.58 62.8457 116.668 63.0329C118.956 63.2469 121.257 63.3271 123.545 63.2469C125.833 63.1666 128.054 62.8992 130.275 62.4579C132.229 62.0701 134.41 61.6288 136.055 60.4521L133.62 60.1445C135.239 62.0835 136.631 64.2632 138.196 66.2423C139.949 68.4353 141.742 70.6016 143.468 72.8214C146.773 77.0605 149.663 81.6337 152.339 86.2873C157.169 94.7118 162.334 106.627 156.447 115.8C155.042 117.98 158.521 119.999 159.912 117.819C166.268 107.91 161.826 95.1933 156.688 85.8193C153.878 80.7111 150.733 75.7098 147.174 71.083C145.355 68.7295 143.468 66.4295 141.608 64.1027C139.748 61.7759 138.277 59.4759 136.457 57.2962C135.935 56.6677 134.691 56.5073 134.022 56.9887C132.577 58.0183 130.61 58.3259 128.897 58.6468C126.93 59.0212 124.923 59.2085 122.916 59.2486C119.263 59.3422 114.982 59.3823 111.556 57.9916C110.954 57.7509 110.004 58.0183 109.603 58.5131C103.207 66.2824 97.8953 74.8406 93.9482 84.0943C90.7503 91.5694 88.0208 99.6061 88.2215 107.843C88.3151 111.574 89.051 115.426 91.0179 118.648C93.3996 122.553 97.146 124.639 101.481 125.762C111.878 128.477 122.863 128.905 133.54 128.276C143.093 127.701 153.998 126.297 159.899 117.806C161.371 115.68 157.892 113.674 156.433 115.787L156.46 115.773Z" fill="#1B1E24"/>
<path d="M137.406 42.4528C136.63 47.561 135.868 52.6559 135.105 57.7641C135.078 57.7374 135.065 57.7106 135.051 57.6839C134.409 58.4193 133.593 58.8205 132.777 59.1548C126.783 61.6688 120.387 61.6554 114.192 60.5188C113.135 60.3316 112.011 59.9839 111.047 59.3821C110.847 59.7164 110.659 60.0508 110.472 60.3717C108.733 55.5309 107.368 50.289 106.458 44.8732C106.311 43.9773 106.204 42.9075 106.578 42.2389C106.913 41.6772 107.462 41.704 107.93 41.8377C111.623 42.8406 114.58 47.3337 117.309 51.6262C118.835 45.8494 120.935 39.5912 124.588 37.9597C124.883 37.826 125.23 37.7324 125.511 37.9731C125.779 38.1871 125.94 38.6819 126.06 39.1365C126.662 41.3697 126.89 43.8703 126.716 46.2907C128.201 41.8511 130.395 38.0667 133.004 35.4324C134.061 34.3626 135.426 33.48 136.51 34.4829C138.049 35.8737 137.835 39.6045 137.406 42.4395V42.4528Z" fill="white"/>
<path d="M135.466 41.9313C134.69 47.0395 133.928 52.1478 133.165 57.2426L136.831 56.7612L136.778 56.6809C136.122 55.5844 134.543 55.3437 133.62 56.2798C132.402 57.51 130.382 57.9781 128.763 58.406C126.876 58.9008 124.949 59.1682 123.009 59.2351C121.163 59.3019 119.316 59.2217 117.483 59.0077C115.65 58.7938 113.683 58.5932 112.051 57.6571C111.114 57.1222 109.857 57.4298 109.308 58.3792C109.107 58.7135 108.92 59.0345 108.733 59.3688L112.399 59.8502C111.449 57.1891 110.619 54.5012 109.937 51.7599C109.308 49.2593 108.479 46.5314 108.345 43.9372C108.318 43.6697 108.318 43.4023 108.358 43.1348C107.288 43.4825 107.033 43.7098 107.582 43.8302C107.729 44.0174 108.532 44.2447 108.759 44.3784C109.643 44.9133 110.378 45.6221 111.074 46.3709C112.827 48.2564 114.192 50.4762 115.57 52.6291C116.48 54.06 118.781 53.8728 119.236 52.1477C120.146 48.7244 121.096 45.1407 123.023 42.1185C123.384 41.5435 123.785 41.0086 124.294 40.5406C124.495 40.3534 124.829 40.1795 124.99 39.9923L125.284 39.8319C124.307 39.3237 123.933 39.3505 124.173 39.9255C124.12 40.2865 124.387 40.8615 124.468 41.2493C124.561 41.7976 124.642 42.3592 124.682 42.9208C124.775 44.0441 124.762 45.1674 124.695 46.2907C124.561 48.6576 127.933 48.8715 128.642 46.8256C129.793 43.4691 131.412 40.1662 133.807 37.5051C134.182 37.0772 134.878 36.1277 135.493 36.0475C135.038 36.1144 135.332 35.8469 135.399 36.3551C135.426 36.6359 135.573 36.9167 135.627 37.1975C135.894 38.7219 135.707 40.3935 135.493 41.9046C135.332 42.9877 135.761 44.0441 136.898 44.3784C137.835 44.6459 139.213 44.0441 139.373 42.9743C139.721 40.554 140.069 37.9464 139.373 35.5661C138.677 33.1858 136.59 31.3672 134.035 32.33C131.72 33.1992 129.967 35.7132 128.642 37.6923C126.983 40.1795 125.766 42.9342 124.789 45.7558L128.736 46.2907C128.883 43.5627 128.897 39.9388 127.572 37.465C126.247 34.9911 123.491 35.9405 121.752 37.465C118.019 40.7412 116.627 46.4779 115.396 51.078L119.062 50.5965C117.309 47.8419 115.516 44.9534 113.121 42.6935C111.382 41.0487 107.796 38.4144 105.468 40.4871C104.291 41.5435 104.25 43.215 104.438 44.6592C104.665 46.4511 105.04 48.2297 105.428 49.9814C106.244 53.6856 107.288 57.3228 108.559 60.8798C109.121 62.4444 111.315 62.9392 112.225 61.3612C112.412 61.0269 112.6 60.6926 112.8 60.3717L110.057 61.0938C112.024 62.2304 114.192 62.5647 116.413 62.8589C118.795 63.1665 121.19 63.327 123.585 63.1932C125.98 63.0595 128.375 62.6985 130.663 62.0165C132.737 61.4014 134.944 60.6525 136.483 59.0746L133.325 58.6734L133.379 58.7536C134.182 60.1042 136.778 60.0641 137.045 58.2722C137.808 53.164 138.57 48.0558 139.347 42.961C139.507 41.8778 139.079 40.8214 137.942 40.4871C136.992 40.2197 135.64 40.8214 135.466 41.8912V41.9313Z" fill="#1B1E24"/>
<path d="M82.7415 86.0019C75.9115 86.531 69.4388 90.5526 65.9444 96.4526C61.7617 103.517 62.0926 112.869 66.3018 119.934C67.7843 122.407 69.7168 124.643 72.0993 126.27C73.8863 127.487 75.9114 128.347 77.9763 129.008C82.94 130.609 88.4464 131.085 93.3307 129.233C95.5411 128.387 97.5531 127.09 99.4856 125.701C101.537 124.22 103.536 122.619 105.151 120.661C108.87 116.163 110.326 109.959 109.254 104.231C108.182 98.503 104.648 93.3174 99.8562 89.997C95.0646 86.6633 88.367 85.5918 82.5429 86.0019H82.7547H82.7415Z" fill="white"/>
<path d="M82.7421 84.0176C72.9868 84.8907 64.3831 91.6373 61.8284 101.202C59.2738 110.766 62.702 122.275 71.094 127.977C75.5282 130.993 81.4978 132.501 86.8321 132.408C92.6032 132.316 97.3948 129.802 101.882 126.363C106.091 123.135 109.347 119.127 110.764 113.941C112.087 109.099 111.73 103.914 109.797 99.2835C107.733 94.336 104 89.9441 99.3009 87.3116C94.2578 84.4938 88.222 83.6472 82.5303 84.0044C80.0021 84.1631 79.9492 87.9201 82.5303 87.973H82.7421C85.2967 88.0259 85.2967 84.0573 82.7421 84.0044H82.5303V87.973C91.134 87.4306 99.698 90.0499 104.503 97.6299C109.03 104.773 108.606 114.377 102.557 120.542C99.3803 123.796 95.0652 126.918 90.5913 127.977C86.1173 129.035 81.1272 128.162 76.8254 126.482C68.6055 123.28 64.3698 114.311 65.0317 105.819C65.7597 96.4526 73.3839 88.8064 82.7421 87.9598C85.2702 87.7349 85.2967 83.7663 82.7421 83.9911V84.0176Z" fill="#1B1E24"/>
<path d="M76.6248 121.386C77.0016 114.325 78.1187 107.142 80.6085 100.5L76.9209 100.987C80.0163 106.966 83.1522 112.932 86.2476 118.924C87.4454 121.237 90.9312 119.195 89.7334 116.881C86.6379 110.902 83.5021 104.937 80.4066 98.9445C79.5318 97.2671 77.2842 97.9164 76.719 99.4314C74.108 106.384 72.9775 113.987 72.5872 121.386C72.4526 123.997 76.4902 123.983 76.6248 121.386Z" fill="#1B1E24"/>
<path d="M88.7778 119.736C90.3659 119.113 91.9406 118.424 93.5152 117.761C94.7669 117.233 95.8166 116.273 95.8032 114.798C95.8032 113.54 94.888 112.296 94.3496 111.2C91.954 106.317 89.8814 101.271 87.903 96.1985L86.4899 98.701C88.9797 97.7135 91.3753 96.5502 93.9997 95.9144C96.6241 95.2786 95.4532 91.3828 92.923 92.0051C90.3928 92.6273 87.903 93.8042 85.4132 94.7916C84.4845 95.1569 83.5694 96.1849 84 97.2942C85.2113 100.405 86.4629 103.503 87.7819 106.56C88.4144 108.035 89.0604 109.496 89.7468 110.943C90.1102 111.728 90.4736 112.499 90.8504 113.27C91.0388 113.648 91.2273 114.027 91.4157 114.406L91.6041 114.785C91.8194 115.299 91.8598 115.285 91.7387 114.717L92.2636 113.824C91.8464 114.352 90.6351 114.622 90.0025 114.879C89.2354 115.204 88.4683 115.542 87.6877 115.84C86.6783 116.232 85.965 117.206 86.2745 118.342C86.5437 119.316 87.7415 120.155 88.7644 119.763L88.7778 119.736Z" fill="#1B1E24"/>
<path d="M95.7628 100.054C93.5825 100.906 91.4022 101.772 89.222 102.624C88.7105 102.827 88.2933 103.07 88.0107 103.557C87.755 103.99 87.6473 104.64 87.8088 105.127C87.9703 105.613 88.2664 106.087 88.7375 106.344C89.2085 106.601 89.8007 106.75 90.2986 106.547C92.4789 105.695 94.6592 104.829 96.8395 103.977C97.3509 103.774 97.7681 103.53 98.0508 103.043C98.3065 102.61 98.4141 101.961 98.2526 101.474C98.0911 100.987 97.795 100.514 97.324 100.257C96.8529 99.9997 96.2608 99.8509 95.7628 100.054Z" fill="#1B1E24"/>
<path d="M83.3945 108.17C80.7162 109.09 78.1456 110.334 75.4539 111.254C74.458 111.592 73.6909 112.661 74.0408 113.757C74.3638 114.744 75.4539 115.542 76.5306 115.177C79.2089 114.257 81.7794 113.013 84.4712 112.093C85.4671 111.755 86.2342 110.686 85.8843 109.59C85.5613 108.603 84.4712 107.805 83.3945 108.17Z" fill="#1B1E24"/>
<path d="M110.98 113.662C110.899 116.733 111.033 119.817 111.41 122.874C111.531 123.808 111.693 124.795 112.339 125.458C113.039 126.175 114.142 126.188 115.111 126.405C120.266 127.555 123.873 127.487 128.61 127.311C131.934 127.189 136.08 126.364 139.041 124.849C139.498 124.619 139.956 124.335 140.211 123.889C140.481 123.415 140.467 122.847 140.467 122.306C140.4 119.032 140.319 115.745 140.252 112.472" fill="white"/>
<path d="M108.96 113.662C108.893 116.543 109.001 119.425 109.324 122.292C109.566 124.416 109.929 126.58 112.016 127.663C113.119 128.244 114.505 128.353 115.703 128.582C116.901 128.812 118.139 129.002 119.364 129.151C121.679 129.421 124.007 129.462 126.335 129.394C130.965 129.286 135.676 128.785 139.875 126.675C142.27 125.471 142.526 123.564 142.472 121.116C142.405 118.221 142.338 115.326 142.27 112.445C142.217 109.834 138.179 109.834 138.233 112.445C138.287 114.758 138.34 117.071 138.394 119.384C138.421 120.331 138.65 121.548 138.462 122.482C138.367 122.969 138.488 122.739 138.206 122.982C137.95 123.199 137.546 123.32 137.237 123.456C133.778 124.93 130.037 125.241 126.335 125.336C122.634 125.431 118.826 125.025 115.017 124.308C114.277 124.173 113.873 124.213 113.577 123.51C113.213 122.671 113.281 121.454 113.2 120.561C112.998 118.261 112.944 115.948 112.998 113.649C113.065 111.038 109.028 111.038 108.96 113.649V113.662Z" fill="#1B1E24"/>
<path d="M110.548 104.004C110.467 107.074 110.602 110.159 110.979 113.216C111.1 114.149 111.261 115.137 111.907 115.799C112.607 116.516 113.711 116.53 114.68 116.746C119.834 117.896 123.441 117.828 128.179 117.653C131.503 117.531 135.648 116.706 138.609 115.191C139.066 114.961 139.524 114.677 139.78 114.23C140.049 113.757 140.036 113.189 140.036 112.648C139.968 109.374 139.887 106.087 139.82 102.813" fill="white"/>
<path d="M108.529 104.004C108.462 106.885 108.569 109.766 108.892 112.634C109.134 114.758 109.498 116.922 111.584 118.004C112.688 118.586 114.074 118.694 115.272 118.924C116.469 119.154 117.708 119.344 118.932 119.492C121.247 119.763 123.575 119.804 125.904 119.736C130.534 119.628 135.244 119.127 139.443 117.017C141.839 115.813 142.094 113.906 142.041 111.457C141.973 108.563 141.906 105.668 141.839 102.786C141.785 100.176 137.747 100.176 137.801 102.786C137.855 105.1 137.909 107.413 137.963 109.726C137.99 110.673 138.218 111.89 138.03 112.824C137.936 113.311 138.057 113.081 137.774 113.324C137.519 113.541 137.115 113.662 136.805 113.798C133.346 115.272 129.605 115.583 125.904 115.678C122.203 115.773 118.394 115.367 114.585 114.65C113.845 114.514 113.441 114.555 113.145 113.852C112.782 113.013 112.849 111.796 112.768 110.903C112.566 108.603 112.513 106.29 112.566 103.99C112.634 101.38 108.596 101.38 108.529 103.99V104.004Z" fill="#1B1E24"/>
<path d="M109.497 91.5452C109.39 95.2787 109.632 99.0257 110.224 102.719C110.318 103.287 110.426 103.896 110.816 104.328C111.234 104.802 111.88 104.964 112.485 105.099C120.681 106.953 129.322 106.736 137.41 104.477C138.083 104.288 138.77 104.071 139.241 103.557C139.833 102.908 139.914 101.948 139.954 101.055C140.102 97.6324 140.089 94.1966 139.9 90.7877" fill="white"/>
<path d="M107.479 91.5453C107.412 94.3048 107.506 97.0508 107.816 99.7968C108.058 102.015 108.018 105.045 110.144 106.385C112.163 107.643 115.259 107.737 117.56 108.021C120.117 108.332 122.701 108.441 125.272 108.373C127.842 108.305 130.399 108.021 132.916 107.588C135.164 107.21 138.003 106.899 139.955 105.613C142.068 104.22 141.987 101.528 142.041 99.2693C142.108 96.4421 142.068 93.6284 141.92 90.8148C141.785 88.2176 137.748 88.2041 137.882 90.8148C137.99 93.0332 138.057 95.2517 138.03 97.4566C138.03 98.5658 137.99 99.6751 137.95 100.784C137.909 101.623 137.977 102.029 137.277 102.435C136.577 102.84 135.433 102.935 134.652 103.111C133.629 103.341 132.593 103.544 131.57 103.72C129.484 104.071 127.385 104.247 125.272 104.315C121.1 104.437 117.102 103.923 113.024 103.165C112.109 102.989 112.217 102.529 112.082 101.609C111.907 100.433 111.786 99.2422 111.692 98.0383C111.517 95.8739 111.477 93.7096 111.531 91.5453C111.598 88.9345 107.56 88.9345 107.493 91.5453H107.479Z" fill="#1B1E24"/>
<path d="M129.445 85.5124C129.445 85.5124 129.539 85.5259 129.579 85.5259C129.539 85.5259 129.485 85.5124 129.445 85.5124C123.873 84.8766 118.153 85.7829 113.066 88.1096C111.666 88.7453 110.159 89.6922 109.903 91.2208C109.715 92.3571 110.334 93.5204 111.222 94.2509C112.11 94.9814 113.241 95.3466 114.358 95.6171C119.782 96.9428 125.461 96.3205 131.033 96.1041C133.065 96.0229 135.178 95.9688 137.008 95.0625C138.825 94.1427 140.265 92.073 139.727 90.0981C139.216 88.2043 137.224 87.1627 135.353 86.581C133.482 85.9993 131.531 85.6476 129.579 85.5259" fill="white"/>
<path d="M129.444 87.5412H129.579C132.163 87.8118 132.149 83.7536 129.579 83.4966C124.115 82.942 118.583 83.6319 113.496 85.7286C111.316 86.6214 108.799 87.7982 108.059 90.2737C107.318 92.7492 108.839 95.3193 111.019 96.5368C113.442 97.8895 116.578 98.1871 119.296 98.3629C122.271 98.5658 125.259 98.4035 128.233 98.2547C133.038 98.0112 140.184 98.3088 141.678 92.3163C143.36 85.5798 134.208 83.8213 129.565 83.4831C126.968 83.2937 126.981 87.3518 129.565 87.5412C131.853 87.7035 134.706 88.0417 136.671 89.3538C138.461 90.5442 137.735 92.4516 135.985 93.3038C133.724 94.3995 130.669 94.0748 128.233 94.1966C125.622 94.3318 123.011 94.4671 120.4 94.3724C118.045 94.2777 115.165 94.183 113.052 93.0332C110.252 91.5182 113.536 90.0437 115.044 89.435C119.7 87.5683 124.613 87.0407 129.579 87.5412C132.163 87.7982 132.149 83.7401 129.579 83.4831H129.444C126.86 83.2125 126.874 87.2707 129.444 87.5277V87.5412Z" fill="#1B1E24"/>
<path d="M140.252 123.618C139.727 124.66 138.542 125.187 137.425 125.512C135.743 125.972 133.993 126.161 132.257 126.053C133.832 124.876 134.639 122.766 134.249 120.831C133.872 118.911 132.298 117.26 130.4 116.8C132.567 115.826 134.034 113.486 133.966 111.105C133.886 108.725 132.284 106.479 130.077 105.641C132.244 104.41 133.428 101.677 132.863 99.2422C132.405 97.3619 131.194 96.5909 129.498 96.2797C131.611 95.9416 133.576 93.3849 133.913 91.1124C134.262 88.7181 132.54 86.175 130.279 85.6204C132.944 85.7827 135.743 86.2967 137.493 88.2582C138.542 89.435 139.04 91.0177 139.336 92.5733C139.807 94.9541 139.902 97.4025 139.982 99.8374C140.238 107.007 140.44 114.19 140.561 121.373C140.575 122.13 140.588 122.928 140.252 123.618Z" fill="#1B1E24"/>
<path d="M138.516 122.603C137.493 124.254 133.9 124.105 132.271 124.037L133.698 127.5C138.274 123.713 136.484 116.489 130.952 114.852L131.437 118.559C137.439 115.542 137.385 106.587 131.114 103.895V107.399C136.093 104.274 136.686 95.7384 130.05 94.3316V98.241C133.281 97.497 135.743 94.1422 135.972 90.8957C136.201 87.6492 133.913 84.6056 130.831 83.6722L130.293 87.6627C133.025 87.8521 135.918 88.4338 136.941 91.3286C138.045 94.4263 137.91 97.9569 138.018 101.203C138.139 104.788 138.247 108.373 138.341 111.971C138.395 113.878 138.435 115.786 138.476 117.693C138.516 119.384 138.879 121.494 138.314 123.104C137.426 125.566 141.329 126.621 142.204 124.186C142.89 122.279 142.567 120.033 142.527 118.031C142.486 115.786 142.432 113.54 142.365 111.295C142.244 106.871 142.136 102.448 141.934 98.038C141.773 94.5345 141.598 90.3817 139.404 87.4598C137.21 84.538 133.657 83.8481 130.279 83.6181C127.951 83.4558 127.628 86.9593 129.741 87.6086C133.2 88.6638 132.029 93.6553 128.96 94.3587C127.049 94.7915 127.009 97.8622 128.96 98.268C130.239 98.5386 130.939 99.012 130.979 100.432C131.02 101.853 130.252 103.178 129.055 103.922C127.857 104.666 127.588 106.79 129.055 107.426C132.554 108.927 132.877 113.324 129.378 115.082C127.776 115.894 128.274 118.329 129.862 118.789C132.715 119.627 132.971 122.874 130.831 124.646C129.391 125.836 130.656 128.041 132.258 128.109C135.609 128.258 140.05 127.811 142.002 124.673C143.374 122.441 139.889 120.412 138.516 122.63V122.603Z" fill="#1B1E24"/>
<path d="M101.2 154.862C101.872 154.862 102.406 154.64 102.802 154.196C103.21 153.74 103.414 153.128 103.414 152.36C103.414 151.592 103.21 150.98 102.802 150.524C102.406 150.068 101.872 149.84 101.2 149.84H97.78V154.862H101.2ZM95.332 147.752H101.668C102.484 147.752 103.21 147.944 103.846 148.328C104.482 148.712 104.974 149.246 105.322 149.93C105.682 150.614 105.862 151.394 105.862 152.27C105.862 154.19 104.926 155.624 103.054 156.572L106.492 161.252H103.468L100.3 156.968H97.78V161.252H95.332V147.752ZM114.593 155.546C114.485 155.006 114.233 154.544 113.837 154.16C113.453 153.764 112.943 153.566 112.307 153.566C111.695 153.566 111.161 153.764 110.705 154.16C110.261 154.544 109.985 155.006 109.877 155.546H114.593ZM107.627 156.464C107.627 155.516 107.825 154.676 108.221 153.944C108.617 153.2 109.169 152.624 109.877 152.216C110.585 151.796 111.395 151.586 112.307 151.586C113.207 151.586 113.957 151.772 114.557 152.144C115.157 152.516 115.589 152.906 115.853 153.314C116.129 153.71 116.297 154.004 116.357 154.196C116.645 154.784 116.789 155.546 116.789 156.482L116.771 157.274H109.877C109.973 157.862 110.261 158.348 110.741 158.732C111.221 159.116 111.749 159.308 112.325 159.308C112.793 159.308 113.177 159.242 113.477 159.11C113.777 158.978 114.305 158.522 115.061 157.742C115.829 156.962 115.613 157.172 114.413 158.372L116.393 159.146C116.093 159.746 115.595 160.256 114.899 160.676C114.215 161.096 113.351 161.306 112.307 161.306C111.395 161.306 110.585 161.102 109.877 160.694C109.169 160.286 108.617 159.716 108.221 158.984C107.825 158.24 107.627 157.4 107.627 156.464ZM128.751 161.252H126.429L124.611 155.024L122.793 161.252H120.471L117.609 151.586H120.147L121.677 157.796L123.351 151.586H125.835L127.527 157.796L129.057 151.586H131.595L128.751 161.252ZM137.025 159.362C137.469 159.362 137.883 159.236 138.267 158.984C138.651 158.72 138.957 158.372 139.185 157.94C139.413 157.496 139.527 157.004 139.527 156.464C139.527 155.924 139.413 155.438 139.185 155.006C138.957 154.562 138.651 154.214 138.267 153.962C137.883 153.698 137.469 153.566 137.025 153.566C136.317 153.566 135.747 153.83 135.315 154.358C134.883 154.886 134.667 155.588 134.667 156.464C134.667 157.34 134.883 158.042 135.315 158.57C135.747 159.098 136.317 159.362 137.025 159.362ZM132.219 156.464C132.219 155.528 132.411 154.694 132.795 153.962C133.191 153.218 133.731 152.642 134.415 152.234C135.111 151.814 135.903 151.604 136.791 151.604C137.307 151.604 137.805 151.718 138.285 151.946C138.765 152.174 139.179 152.51 139.527 152.954V151.586H141.975V161.252L139.527 161.27V159.956C139.179 160.4 138.765 160.736 138.285 160.964C137.805 161.192 137.307 161.306 136.791 161.306C135.903 161.306 135.111 161.102 134.415 160.694C133.731 160.274 133.191 159.698 132.795 158.966C132.411 158.234 132.219 157.4 132.219 156.464ZM146.713 153.224C146.989 152.732 147.379 152.336 147.883 152.036C148.399 151.724 148.927 151.568 149.467 151.568V153.728C148.915 153.728 148.429 153.878 148.009 154.178C147.589 154.466 147.265 154.832 147.037 155.276C146.821 155.72 146.713 156.158 146.713 156.59V161.252H144.301V151.586H146.713V153.224ZM154.932 161.306C154.044 161.306 153.252 161.102 152.556 160.694C151.86 160.274 151.314 159.698 150.918 158.966C150.534 158.222 150.342 157.382 150.342 156.446C150.342 155.498 150.534 154.658 150.918 153.926C151.314 153.182 151.86 152.606 152.556 152.198C153.252 151.778 154.044 151.568 154.932 151.568C155.34 151.568 155.808 151.664 156.336 151.856C156.864 152.048 157.314 152.408 157.686 152.936V147.752H160.134V161.27H157.686V159.956C157.314 160.436 156.852 160.784 156.3 161C155.748 161.204 155.292 161.306 154.932 161.306ZM152.79 156.5C152.79 157.388 153 158.096 153.42 158.624C153.852 159.14 154.428 159.398 155.148 159.398C155.604 159.398 156.024 159.272 156.408 159.02C156.804 158.756 157.116 158.402 157.344 157.958C157.572 157.514 157.686 157.028 157.686 156.5C157.686 155.972 157.572 155.486 157.344 155.042C157.116 154.586 156.804 154.232 156.408 153.98C156.024 153.716 155.604 153.584 155.148 153.584C154.428 153.584 153.852 153.848 153.42 154.376C153 154.904 152.79 155.612 152.79 156.5Z" fill="#1B1E24"/>
<path d="M121.778 267.81C127.093 265.261 132.563 262.456 136.084 257.724C139.114 253.652 140.396 248.322 139.565 243.317C136.674 225.958 108.793 218.692 100.246 235.547C97.122 241.717 95.257 250.171 98.746 256.217C103.004 263.591 104.737 263.295 111.668 266.396L111.521 271.12L121.778 267.818V267.81Z" fill="white"/>
<path d="M122.718 269.418C127.614 267.072 132.649 264.5 136.309 260.381C139.969 256.263 142.059 250.52 141.624 244.887C141.018 237.202 136.006 230.783 129.277 227.286C123.006 224.023 115.126 222.935 108.459 225.654C104.978 227.069 102.056 229.369 99.9116 232.461C97.0909 236.525 95.4824 241.802 95.0783 246.697C94.8607 249.324 95.0783 252.09 95.9719 254.584C96.7801 256.846 98.101 258.959 99.5464 260.878C100.65 262.332 101.87 263.614 103.408 264.616C104.815 265.533 106.4 266.155 107.939 266.807C108.871 267.204 109.804 267.592 110.736 268.012L109.811 266.403C109.765 267.981 109.71 269.55 109.664 271.128C109.625 272.301 110.891 273.288 112.026 272.923C115.445 271.819 118.864 270.716 122.283 269.62C124.56 268.89 123.588 265.284 121.288 266.023C117.869 267.126 114.45 268.229 111.031 269.325L113.394 271.12C113.44 269.543 113.495 267.973 113.541 266.396C113.557 265.797 113.184 265.036 112.616 264.787C110.845 263.994 109.197 263.365 107.519 262.596C106.882 262.3 106.245 261.99 105.646 261.624C104.924 261.189 104.76 261.057 104.248 260.599C102.934 259.41 102.072 258.104 101.139 256.597C99.9427 254.646 99.0413 252.665 98.8159 250.357C98.373 245.703 99.6629 240.916 101.73 236.766C103.191 233.821 105.219 231.56 107.977 230.006C110.472 228.6 113.355 227.939 116.23 227.877C119.439 227.815 122.33 228.382 125.43 229.61C130.939 231.793 135.882 236.37 137.428 242.214C138.741 247.179 137.575 252.712 134.483 256.791C131.087 261.267 125.788 263.839 120.845 266.209C119.936 266.644 119.695 267.942 120.177 268.758C120.721 269.682 121.817 269.861 122.726 269.426L122.718 269.418Z" fill="#1B1E24"/>
<path d="M109.935 236.417C109.935 236.417 109.912 236.432 109.896 236.44C109.749 236.549 109.585 236.665 109.438 236.797C109.43 236.805 109.414 236.813 109.407 236.829C109.275 236.968 109.158 237.124 109.049 237.287C109.049 237.295 109.034 237.31 109.034 237.326C109.111 237.155 108.878 237.668 108.816 237.831C108.816 237.831 108.816 237.831 108.816 237.839C108.816 237.839 108.816 237.854 108.816 237.862C108.886 237.435 108.754 238.243 108.738 238.429C108.738 238.429 108.738 238.429 108.738 238.437C108.738 238.437 108.738 238.445 108.738 238.453C108.793 238.965 108.785 239.09 109.034 239.54C109.119 239.704 109.236 239.851 109.376 239.983C109.725 240.31 109.873 240.372 110.316 240.535C110.316 240.535 110.316 240.535 110.324 240.535C110.331 240.535 110.868 240.613 110.883 240.613C110.883 240.613 110.883 240.613 110.891 240.613C111.077 240.597 111.955 240.457 111.458 240.535C111.458 240.535 111.474 240.535 111.481 240.535C111.66 240.473 111.839 240.403 112.002 240.318C112.002 240.318 112.018 240.318 112.018 240.302C112.165 240.193 112.313 240.092 112.445 239.968C112.445 239.968 112.445 239.968 112.453 239.96C112.748 239.626 112.872 239.447 113.004 239.02C113.121 238.647 113.098 238.266 113.004 237.893C112.919 237.543 112.709 237.209 112.461 236.953C112.328 236.821 112.181 236.696 112.018 236.611C111.777 236.456 111.52 236.378 111.241 236.362C110.961 236.3 110.681 236.316 110.401 236.401C110.129 236.463 109.888 236.588 109.686 236.774C109.461 236.922 109.275 237.116 109.142 237.365L108.933 237.862C108.832 238.235 108.832 238.608 108.933 238.981L109.142 239.478C109.329 239.797 109.578 240.046 109.896 240.232C109.896 240.232 109.904 240.232 109.912 240.232L109.484 239.906L109.158 239.478L108.948 238.981L108.871 238.422L108.948 237.862C108.948 237.862 108.948 237.862 108.948 237.87L109.158 237.372C109.158 237.372 109.158 237.38 109.158 237.388L109.484 236.961C109.484 236.961 109.477 236.968 109.469 236.976L109.896 236.65C109.896 236.65 109.881 236.665 109.865 236.665L110.362 236.456C110.362 236.456 110.339 236.456 110.331 236.463L110.891 236.386C110.891 236.386 110.875 236.386 110.868 236.386L111.427 236.463H111.411L111.909 236.673C111.909 236.673 111.909 236.673 111.901 236.673L112.328 237C112.328 237 112.328 237 112.321 236.992L112.647 237.419C112.647 237.419 112.647 237.411 112.639 237.404L112.849 237.901C112.849 237.901 112.849 237.885 112.849 237.87L112.927 238.429C112.927 238.429 112.927 238.406 112.927 238.398L112.849 238.958C112.849 238.958 112.849 238.934 112.857 238.919L112.647 239.416C112.647 239.416 112.663 239.385 112.678 239.37L112.352 239.797C112.352 239.797 112.398 239.743 112.429 239.727L112.002 240.053C112.002 240.053 112.025 240.038 112.041 240.022C112.282 239.89 112.484 239.711 112.631 239.478C112.818 239.276 112.942 239.035 113.004 238.763C113.09 238.484 113.105 238.204 113.043 237.924C113.028 237.644 112.95 237.388 112.795 237.147L112.468 236.72C112.204 236.463 111.901 236.277 111.544 236.184L110.984 236.106C110.603 236.106 110.254 236.199 109.927 236.393L109.935 236.417Z" fill="#1B1E24"/>
<path d="M122.175 237.07C122.027 237.178 121.872 237.287 121.732 237.412C121.732 237.412 121.732 237.412 121.724 237.419C121.709 237.435 121.406 237.831 121.39 237.847C121.282 238.01 121.219 238.196 121.165 238.383C121.111 238.569 121.079 238.764 121.087 238.95C121.087 239.043 121.126 239.269 121.126 239.238L121.165 239.517C121.219 239.704 121.282 239.89 121.39 240.054C121.499 240.217 121.6 240.372 121.74 240.504C121.74 240.504 121.748 240.512 121.756 240.52C121.81 240.566 122.121 240.807 122.183 240.854C122.183 240.854 122.191 240.854 122.198 240.862C122.284 240.916 122.439 240.97 122.486 240.986C122.533 241.002 122.68 241.087 122.781 241.103C122.975 241.149 123.178 241.172 123.38 241.18C123.38 241.18 123.395 241.18 123.403 241.18C123.403 241.18 123.411 241.18 123.418 241.18L123.978 241.103C123.978 241.103 123.978 241.103 123.986 241.103C124.172 241.064 124.359 240.97 124.522 240.877C124.522 240.877 124.537 240.877 124.537 240.869C124.561 240.854 124.941 240.559 124.965 240.535C124.965 240.535 124.973 240.535 124.98 240.528C125.112 240.388 125.244 240.24 125.33 240.069C125.415 239.898 125.493 239.719 125.555 239.541C125.555 239.525 125.555 239.51 125.563 239.502C125.602 239.308 125.633 239.113 125.641 238.911C125.641 238.896 125.641 238.888 125.641 238.872C125.625 238.678 125.602 238.476 125.563 238.282C125.563 238.266 125.563 238.251 125.548 238.235C125.478 238.033 125.4 237.839 125.299 237.652C125.283 237.621 125.268 237.598 125.244 237.575C125.12 237.404 124.996 237.233 124.856 237.077C124.833 237.054 124.809 237.031 124.786 237.007C124.6 236.805 124.374 236.658 124.11 236.572C123.861 236.44 123.589 236.378 123.302 236.394C123.014 236.386 122.742 236.44 122.494 236.572C122.237 236.658 122.012 236.798 121.818 237.007L121.491 237.435C121.305 237.761 121.204 238.119 121.204 238.492L121.282 239.051C121.383 239.409 121.561 239.712 121.818 239.976C121.857 240.015 121.903 240.061 121.934 240.108L121.608 239.681C121.639 239.727 121.67 239.774 121.693 239.828L121.484 239.331C121.484 239.331 121.507 239.393 121.515 239.432L121.437 238.872C121.437 238.872 121.437 238.919 121.437 238.942L121.515 238.383C121.515 238.383 121.507 238.429 121.499 238.453L121.709 237.955C121.709 237.955 121.701 237.979 121.693 237.987L122.02 237.559C122.02 237.559 122.004 237.575 121.996 237.582L122.424 237.256C122.424 237.256 122.408 237.272 122.393 237.272L122.89 237.062C122.89 237.062 122.867 237.062 122.851 237.07L123.411 236.992C123.411 236.992 123.372 236.992 123.356 236.992L123.916 237.07C123.916 237.07 123.869 237.062 123.846 237.054L124.343 237.264C124.343 237.264 124.304 237.248 124.289 237.233L124.716 237.559C124.716 237.559 124.693 237.544 124.685 237.528L125.011 237.955C125.011 237.955 125.004 237.94 124.996 237.932L125.206 238.429C125.206 238.429 125.206 238.414 125.206 238.406L125.283 238.966C125.283 238.966 125.283 238.958 125.283 238.95L125.206 239.51C125.206 239.51 125.206 239.502 125.206 239.494L124.996 239.991C124.996 239.991 124.996 239.976 125.004 239.976L124.677 240.403C124.677 240.403 124.693 240.388 124.701 240.38L124.273 240.706C124.514 240.574 124.716 240.388 124.864 240.162C125.05 239.96 125.175 239.719 125.237 239.447C125.322 239.168 125.338 238.888 125.276 238.608C125.26 238.328 125.182 238.072 125.027 237.831L124.701 237.404C124.436 237.147 124.133 236.961 123.776 236.868L123.216 236.79C122.836 236.79 122.486 236.883 122.16 237.077L122.175 237.07Z" fill="#1B1E24"/>
<path d="M130.933 231.996C132.992 233.511 134.437 235.547 136.419 237.132C137.732 238.181 139.294 238.973 140.972 239.106C143.785 239.331 147.251 237.101 146.295 233.938C145.611 231.669 143.638 229.812 141.609 228.289C140.389 227.372 140.141 225.624 141.011 224.373C141.19 224.108 141.322 223.914 141.345 223.86C141.866 222.717 141.749 221.311 140.731 220.487C139.224 219.275 137.204 220.083 135.712 220.837C132.129 222.648 128.469 221.653 124.786 220.798C120.435 219.788 117.202 218.723 112.719 218.863C110.411 218.933 107.038 219.019 105.624 221.062C104.319 222.958 104.653 225.569 106.712 226.44C110.753 228.165 115.718 226.797 119.968 227.574C124.001 228.312 127.708 229.618 130.933 231.988V231.996Z" fill="#CED3D8"/>
<path d="M129.992 233.604C133.216 236.044 135.322 239.813 139.55 240.761C142.868 241.507 146.963 240.015 148.082 236.549C148.68 234.684 148.043 232.695 147.009 231.11C145.875 229.361 144.336 228.227 142.805 226.867C142.479 226.572 142.285 226.245 142.378 225.818C142.456 225.46 142.728 225.212 142.899 224.901C143.124 224.505 143.295 224.038 143.388 223.596C143.823 221.56 142.961 219.43 141.049 218.506C139.138 217.581 137.086 218.141 135.252 218.995C133.419 219.85 131.577 220.153 129.502 219.881C125.314 219.337 121.304 217.814 117.116 217.247C115.173 216.991 113.231 216.944 111.28 217.06C109.555 217.161 107.783 217.379 106.229 218.179C103.028 219.819 101.769 224.497 104.481 227.17C106.058 228.716 108.685 229.05 110.783 229.19C113.099 229.346 115.422 229.105 117.738 229.214C122.058 229.408 126.503 231.086 129.992 233.604C130.808 234.195 132.066 233.744 132.54 232.936C133.092 231.995 132.688 230.978 131.872 230.387C129.005 228.312 125.671 226.952 122.237 226.152C120.426 225.732 118.608 225.476 116.751 225.453C114.894 225.429 113.207 225.554 111.436 225.492C110.192 225.445 108.226 225.406 107.201 224.613C106.517 224.085 106.587 222.989 107.092 222.236C107.698 221.327 108.941 221.062 109.983 220.907C111.405 220.697 112.912 220.689 114.342 220.736C117.963 220.852 121.467 221.94 124.972 222.764C128.779 223.65 132.61 224.31 136.309 222.616C137.047 222.282 138.905 221.124 139.627 222.01C139.868 222.306 139.79 222.78 139.643 223.114C139.752 222.873 139.573 223.168 139.557 223.199C139.456 223.355 139.34 223.502 139.254 223.665C139.029 224.07 138.85 224.512 138.749 224.963C138.361 226.657 138.943 228.499 140.28 229.618C141.531 230.651 142.883 231.622 143.777 233.006C144.484 234.101 144.919 235.181 144.142 236.083C143.365 236.984 142.09 237.365 140.972 237.248C139.161 237.062 137.646 235.842 136.395 234.622C134.903 233.169 133.543 231.654 131.872 230.395C131.064 229.789 129.79 230.27 129.323 231.063C128.764 232.019 129.184 233.006 129.992 233.612V233.604Z" fill="#1B1E24"/>
<path d="M106.478 242.051C106.19 247.055 110.184 251.927 115.15 252.634C120.115 253.341 125.306 249.774 126.432 244.895" fill="white"/>
<path d="M104.613 242.051C104.364 248.104 109.135 253.761 115.15 254.499C121.164 255.237 126.837 251.057 128.235 245.392C128.81 243.061 125.213 242.066 124.638 244.397C123.658 248.36 119.54 251.391 115.414 250.8C111.288 250.21 108.172 246.138 108.343 242.043C108.444 239.642 104.714 239.649 104.613 242.043V242.051Z" fill="#1B1E24"/>
<path d="M133.89 258.328C133.823 260.991 133.934 263.667 134.243 266.319C134.343 267.129 134.476 267.985 135.006 268.56C135.581 269.182 136.487 269.194 137.283 269.382C141.517 270.379 144.48 270.321 148.371 270.168C151.101 270.062 154.506 269.347 156.938 268.032C157.313 267.833 157.689 267.586 157.899 267.199C158.12 266.788 158.109 266.296 158.109 265.826C158.054 262.986 157.988 260.135 157.933 257.295" fill="white"/>
<path d="M132.233 258.328C132.177 260.827 132.266 263.327 132.531 265.814C132.73 267.657 133.029 269.534 134.742 270.473C135.648 270.978 136.787 271.072 137.771 271.271C138.755 271.471 139.772 271.635 140.778 271.764C142.679 271.999 144.591 272.034 146.504 271.975C150.306 271.881 154.175 271.447 157.624 269.616C159.592 268.572 159.802 266.918 159.758 264.794C159.702 262.282 159.647 259.771 159.592 257.272C159.547 255.007 156.231 255.007 156.275 257.272C156.32 259.278 156.364 261.285 156.408 263.291C156.43 264.113 156.618 265.169 156.463 265.979C156.386 266.401 156.485 266.202 156.253 266.413C156.043 266.601 155.712 266.706 155.457 266.824C152.617 268.103 149.543 268.373 146.504 268.455C143.464 268.537 140.335 268.185 137.207 267.563C136.599 267.446 136.267 267.481 136.024 266.871C135.726 266.143 135.781 265.087 135.715 264.312C135.549 262.318 135.505 260.311 135.549 258.316C135.604 256.051 132.288 256.051 132.233 258.316V258.328Z" fill="#1B1E24"/>
<path d="M133.538 249.949C133.472 252.613 133.583 255.288 133.892 257.94C133.992 258.75 134.124 259.607 134.655 260.182C135.23 260.804 136.136 260.815 136.932 261.003C141.166 262.001 144.128 261.942 148.019 261.789C150.75 261.684 154.154 260.968 156.586 259.654C156.962 259.454 157.338 259.208 157.548 258.821C157.769 258.41 157.758 257.917 157.758 257.448C157.703 254.608 157.636 251.756 157.581 248.917" fill="white"/>
<path d="M131.879 249.949C131.824 252.449 131.912 254.948 132.178 257.436C132.377 259.278 132.675 261.156 134.389 262.095C135.295 262.599 136.434 262.693 137.417 262.893C138.401 263.092 139.418 263.256 140.424 263.386C142.325 263.62 144.238 263.655 146.15 263.597C149.953 263.503 153.822 263.069 157.271 261.238C159.238 260.194 159.448 258.539 159.404 256.415C159.349 253.904 159.294 251.393 159.238 248.893C159.194 246.628 155.878 246.628 155.922 248.893C155.966 250.9 156.01 252.906 156.055 254.913C156.077 255.735 156.265 256.791 156.11 257.6C156.033 258.023 156.132 257.823 155.9 258.035C155.69 258.222 155.358 258.328 155.104 258.445C152.263 259.724 149.19 259.994 146.15 260.076C143.11 260.158 139.982 259.806 136.854 259.185C136.246 259.067 135.914 259.102 135.671 258.492C135.372 257.765 135.428 256.708 135.361 255.934C135.195 253.939 135.151 251.932 135.195 249.938C135.251 247.673 131.935 247.673 131.879 249.938V249.949Z" fill="#1B1E24"/>
<path d="M132.675 239.142C132.586 242.38 132.785 245.631 133.272 248.834C133.349 249.327 133.438 249.855 133.758 250.231C134.101 250.642 134.631 250.782 135.129 250.9C141.861 252.507 148.958 252.32 155.601 250.36C156.154 250.196 156.718 250.008 157.105 249.562C157.591 248.999 157.657 248.166 157.69 247.391C157.812 244.422 157.801 241.442 157.646 238.484" fill="white"/>
<path d="M131.017 239.141C130.962 241.535 131.039 243.917 131.293 246.3C131.492 248.224 131.459 250.853 133.206 252.014C134.864 253.106 137.406 253.188 139.297 253.434C141.397 253.704 143.519 253.798 145.631 253.739C147.742 253.681 149.842 253.434 151.909 253.059C153.755 252.73 156.088 252.46 157.691 251.346C159.426 250.137 159.36 247.802 159.404 245.842C159.459 243.389 159.426 240.949 159.305 238.508C159.194 236.255 155.878 236.243 155.988 238.508C156.077 240.432 156.132 242.357 156.11 244.27C156.11 245.232 156.077 246.194 156.044 247.156C156.01 247.884 156.066 248.236 155.491 248.588C154.916 248.94 153.977 249.022 153.335 249.175C152.495 249.374 151.644 249.55 150.804 249.703C149.091 250.008 147.366 250.16 145.631 250.219C142.204 250.325 138.921 249.879 135.571 249.222C134.82 249.069 134.908 248.67 134.798 247.872C134.654 246.851 134.554 245.819 134.477 244.774C134.333 242.897 134.3 241.019 134.344 239.141C134.4 236.877 131.083 236.877 131.028 239.141H131.017Z" fill="#1B1E24"/>
<path d="M149.057 233.908C149.057 233.908 149.134 233.919 149.168 233.919C149.134 233.919 149.09 233.908 149.057 233.908C144.481 233.356 139.783 234.142 135.604 236.161C134.455 236.712 133.216 237.534 133.006 238.86C132.852 239.845 133.36 240.855 134.09 241.488C134.819 242.122 135.748 242.439 136.665 242.673C141.12 243.823 145.785 243.284 150.362 243.096C152.031 243.026 153.766 242.979 155.27 242.192C156.762 241.394 157.945 239.599 157.502 237.886C157.082 236.243 155.446 235.339 153.91 234.835C152.373 234.33 150.771 234.025 149.168 233.919" fill="white"/>
<path d="M149.057 235.668H149.167C151.29 235.903 151.279 232.382 149.167 232.159C144.679 231.678 140.136 232.277 135.958 234.096C134.167 234.87 132.1 235.891 131.492 238.038C130.884 240.186 132.133 242.416 133.924 243.472C135.913 244.645 138.489 244.903 140.722 245.056C143.165 245.232 145.619 245.091 148.062 244.962C152.008 244.751 157.878 245.009 159.105 239.81C160.487 233.967 152.97 232.441 149.156 232.148C147.023 231.983 147.034 235.504 149.156 235.668C151.035 235.809 153.379 236.102 154.993 237.241C156.463 238.273 155.866 239.928 154.429 240.667C152.572 241.618 150.063 241.336 148.062 241.442C145.917 241.559 143.773 241.676 141.628 241.594C139.694 241.512 137.328 241.43 135.593 240.432C133.294 239.118 135.991 237.839 137.229 237.311C141.054 235.692 145.088 235.234 149.167 235.668C151.29 235.891 151.279 232.371 149.167 232.148H149.057C146.934 231.913 146.945 235.433 149.057 235.656V235.668Z" fill="#1B1E24"/>
<path d="M159.402 267.004C158.971 267.894 157.998 268.344 157.081 268.622C155.699 269.014 154.483 269.393 153.057 269.301C154.351 268.296 155.014 266.493 154.693 264.841C154.384 263.201 153.09 261.791 151.532 261.398C153.311 260.566 154.516 258.568 154.461 256.534C154.395 254.501 153.079 252.583 151.266 251.866C153.046 250.815 154.019 248.481 153.555 246.402C153.179 244.796 152.184 244.137 150.791 243.871C152.527 243.583 154.14 241.399 154.417 239.458C154.704 237.413 153.289 235.241 151.432 234.767C153.621 234.906 155.92 235.345 157.357 237.02C158.219 238.025 158.628 239.377 158.872 240.706C159.259 242.739 159.336 244.83 159.402 246.91C159.612 253.033 159.557 258.951 159.657 265.086C159.668 265.733 159.679 266.415 159.402 267.004Z" fill="#1B1E24"/>
<path d="M158.197 266.355C157.357 267.764 154.405 267.637 153.068 267.579L154.239 270.537C157.998 267.302 156.527 261.132 151.984 259.734L152.382 262.9C157.312 260.324 157.268 252.675 152.117 250.376V253.368C156.207 250.7 156.693 243.409 151.244 242.208V245.547C153.897 244.911 155.92 242.046 156.107 239.273C156.295 236.5 154.416 233.901 151.885 233.103L151.244 235.975C153.488 236.137 156.063 237.17 156.903 239.643C157.81 242.289 157.699 245.304 157.788 248.077C157.887 251.139 157.976 254.2 158.053 257.274C158.097 258.903 158.13 260.532 158.163 262.161C158.197 263.605 158.495 265.407 158.031 266.782C157.301 268.885 160.507 269.786 161.226 267.707C161.789 266.077 161.524 264.16 161.491 262.45C161.458 260.532 161.413 258.614 161.358 256.696C161.259 252.918 161.17 249.14 161.004 245.373C160.872 242.381 160.728 238.834 158.926 236.338C157.124 233.843 154.206 233.254 151.432 233.057C149.519 232.919 149.055 235.374 150.79 235.929C153.631 236.83 152.584 241.053 150.064 241.654C148.494 242.023 148.745 244.638 150.348 244.985C151.398 245.216 151.973 246.205 152.006 247.418C152.039 248.631 151.409 249.764 150.426 250.399C149.442 251.035 149.221 252.849 150.426 253.392C153.3 254.674 153.565 258.429 150.691 259.931C149.375 260.624 149.784 262.704 151.089 263.097C153.432 263.813 153.642 266.586 151.885 268.099C150.702 269.116 151.741 270.999 153.056 271.057C155.809 271.184 159.457 270.803 161.06 268.122C162.187 266.216 159.324 264.483 158.197 266.378V266.355Z" fill="#1B1E24"/>
<path d="M127.916 334C127.916 337.427 128.106 340.3 127.916 343.642C127.811 345.486 128.743 347.344 125.157 347.478C110.562 348.027 95.6649 347.478 81.0491 347.478C62.4878 347.478 33.0148 347.478 22.9856 347.478C21.8811 347.478 21.0001 348.374 21.0001 349.478V358.7" stroke="#E6E9EC" stroke-width="3" stroke-linecap="round"/>
<path d="M128.085 334C128.085 337.427 127.895 340.3 128.085 343.642C128.189 345.486 127.257 347.344 130.844 347.478C145.439 348.027 160.335 347.478 174.951 347.478C193.512 347.478 222.985 347.478 233.015 347.478C234.119 347.478 235 348.374 235 349.478V358.7" stroke="#E6E9EC" stroke-width="3" stroke-linecap="round"/>
<path d="M128 334C128 342.437 128 351.453 128 360" stroke="#E6E9EC" stroke-width="3" stroke-linecap="round"/>
<circle cx="19.4737" cy="396.474" r="18.4211" fill="#FCFEFF"/>
<path d="M19.0697 416.976C23.4478 417 27.9326 416.312 31.6581 413.856C35.3836 411.4 37.804 407.876 38.9311 403.64C40.8651 396.391 39.8447 387.208 33.8768 382.07C28.6326 377.55 21.1223 376.079 14.4425 377.55C11.1679 378.274 8.01187 379.816 5.59148 382.154C2.13887 385.487 0.501547 390.305 0.0862849 395.003C-0.376436 400.33 0.999863 406.322 4.74909 410.296C8.10678 413.856 13.0543 416.122 17.8476 416.822C20.0901 417.154 21.0511 413.713 18.7968 413.393C15.1544 412.859 11.5001 411.435 8.65255 409.074C5.49655 406.464 3.93042 402.561 3.62194 398.515C3.08803 391.266 6.25589 383.874 13.4933 381.501C18.7731 379.769 24.9308 380.409 29.6648 383.364C35.2056 386.816 36.6887 393.235 36.1073 399.417C35.7277 403.534 34.1259 407.401 30.875 410.059C27.6241 412.717 23.2579 413.452 19.0816 413.441C16.7917 413.441 16.7917 416.988 19.0816 417L19.0697 416.976Z" fill="#00B5B0"/>
<path d="M13.3749 389.734H13.6597C13.9089 389.734 14.1343 389.687 14.3478 389.58C14.5733 389.509 14.7631 389.39 14.9174 389.212C15.0953 389.046 15.214 388.856 15.2852 388.643C15.3919 388.429 15.4513 388.204 15.4394 387.954L15.3801 387.48C15.297 387.183 15.1428 386.922 14.9174 386.697L14.5614 386.424C14.2885 386.258 13.98 386.187 13.6597 386.187H13.3749C13.1258 386.187 12.9004 386.234 12.6868 386.341C12.4614 386.412 12.2715 386.531 12.1173 386.709C11.9393 386.875 11.8207 387.065 11.7495 387.278C11.6427 387.492 11.5834 387.717 11.5952 387.966L11.6546 388.441C11.7376 388.737 11.8919 388.998 12.1173 389.224L12.4732 389.497C12.7461 389.663 13.0546 389.734 13.3749 389.734Z" fill="#00B5B0"/>
<path d="M23.1165 385.581C23.1165 385.581 23.0927 385.581 23.0809 385.581C23.0809 385.581 23.0809 385.581 23.069 385.581C22.9859 385.581 22.8198 385.617 22.8317 385.617C22.8436 385.617 22.6656 385.629 22.5826 385.652H22.5588C22.4876 385.676 22.3809 385.724 22.3334 385.747C22.2859 385.771 22.1792 385.807 22.108 385.842C22.108 385.842 22.0961 385.842 22.0842 385.854C22.0842 385.854 22.0842 385.854 22.0724 385.854C22.0249 385.89 21.7639 386.091 21.7046 386.139C21.7046 386.139 21.6927 386.151 21.6808 386.163C21.6808 386.163 21.6808 386.163 21.6808 386.174C21.5978 386.269 21.4791 386.435 21.3961 386.542C21.3842 386.554 21.3724 386.578 21.3605 386.602C21.3605 386.602 21.3605 386.602 21.3605 386.613C21.3249 386.685 21.2893 386.791 21.2656 386.827C21.2418 386.863 21.2062 386.969 21.1707 387.041C21.1707 387.041 21.1707 387.064 21.1707 387.076C21.1707 387.076 21.1707 387.1 21.1707 387.112C21.1588 387.183 21.1113 387.503 21.1113 387.586C21.1113 387.586 21.1113 387.598 21.1113 387.61C21.1113 387.61 21.1113 387.634 21.1113 387.646C21.1113 387.646 21.1113 387.646 21.1113 387.657C21.1113 387.741 21.1351 387.824 21.1469 387.895C21.1469 387.978 21.1707 388.049 21.1825 388.132V388.156C21.1825 388.156 21.1825 388.156 21.1825 388.168C21.2418 388.31 21.3012 388.452 21.3605 388.595C21.3605 388.595 21.3605 388.607 21.3724 388.619C21.4198 388.678 21.5147 388.808 21.5147 388.808C21.5266 388.832 21.6097 388.939 21.6571 388.998C21.6571 388.998 21.669 389.01 21.6808 389.022C21.7402 389.069 21.8351 389.141 21.8707 389.176C21.9063 389.2 22.0012 389.283 22.0605 389.319C22.0605 389.319 22.0842 389.319 22.0842 389.33C22.1317 389.354 22.4639 389.497 22.5114 389.508C22.5114 389.508 22.5114 389.508 22.5232 389.508C22.5351 389.508 22.5232 389.508 22.5351 389.508C22.5825 389.508 22.9622 389.568 23.0097 389.568C23.0097 389.568 23.0334 389.568 23.0453 389.568C23.0453 389.568 23.0453 389.568 23.0571 389.568C23.1283 389.568 23.4724 389.52 23.5317 389.508C23.5317 389.508 23.5554 389.508 23.5673 389.508C23.5673 389.508 23.591 389.508 23.6029 389.508C23.7097 389.461 23.9233 389.378 24.03 389.33C24.03 389.33 24.03 389.33 24.0419 389.33C24.0419 389.33 24.0656 389.319 24.0775 389.307C24.0775 389.307 24.0775 389.307 24.0894 389.307C24.1487 389.259 24.2436 389.188 24.2792 389.164C24.3267 389.129 24.4097 389.069 24.469 389.022C24.469 389.022 24.4928 389.01 24.4928 388.998C24.4928 388.998 24.4928 388.998 24.5046 388.986L24.7775 388.63C24.7775 388.63 24.7894 388.607 24.8012 388.595C24.8012 388.595 24.8012 388.595 24.8012 388.571L24.9792 388.144C24.9792 388.144 24.9792 388.12 24.9792 388.096C24.9911 388.013 25.0029 387.895 25.0148 387.847C25.0148 387.824 25.0504 387.681 25.0504 387.598C25.0504 387.598 25.0504 387.598 25.0504 387.586C25.0267 387.42 25.0029 387.266 24.9911 387.112C24.9911 387.1 24.9911 387.088 24.9911 387.076C24.9317 386.839 24.825 386.637 24.6707 386.471C24.5402 386.281 24.3741 386.127 24.1724 386.008C23.9707 385.878 23.7453 385.807 23.508 385.795C23.2707 385.747 23.0334 385.747 22.7961 385.83L22.369 386.008C22.0961 386.163 21.8944 386.376 21.7283 386.649L21.5503 387.076C21.4673 387.396 21.4673 387.705 21.5503 388.025C21.5503 388.037 21.5503 388.049 21.5503 388.061L21.491 387.586C21.491 387.586 21.491 387.622 21.491 387.634L21.5503 387.159C21.5503 387.159 21.5503 387.195 21.5385 387.218L21.7164 386.791C21.7164 386.791 21.6927 386.839 21.6808 386.851L21.9537 386.495C21.9537 386.495 21.9181 386.53 21.8944 386.554L22.2503 386.281C22.2503 386.281 22.2029 386.317 22.1791 386.329L22.6063 386.151C22.6063 386.151 22.5588 386.163 22.5351 386.174L23.0097 386.115C23.0097 386.115 22.9741 386.115 22.9504 386.115L23.4249 386.174C23.4249 386.174 23.3893 386.174 23.3775 386.163L23.8046 386.341C23.8046 386.341 23.769 386.329 23.7571 386.317L24.1131 386.59C24.1131 386.59 24.0894 386.566 24.0775 386.554L24.3504 386.91C24.3504 386.91 24.3267 386.886 24.3267 386.863L24.5046 387.29C24.5046 387.29 24.4928 387.254 24.4928 387.23L24.5521 387.705C24.5521 387.705 24.5521 387.657 24.5521 387.634L24.4928 388.108C24.4928 388.108 24.4928 388.061 24.5165 388.025L24.3385 388.452C24.3385 388.452 24.3622 388.405 24.386 388.381L24.1131 388.737C24.1131 388.737 24.1487 388.702 24.1605 388.69L23.8046 388.963C23.8046 388.963 23.8402 388.939 23.8521 388.939L23.4249 389.117C23.4249 389.117 23.4605 389.117 23.4724 389.105L22.9978 389.164C22.9978 389.164 23.0334 389.164 23.0453 389.164C23.2944 389.164 23.5199 389.117 23.7334 389.01C23.9589 388.939 24.1487 388.82 24.3029 388.642C24.4809 388.476 24.5995 388.286 24.6707 388.073C24.7775 387.859 24.8368 387.634 24.825 387.385L24.7656 386.91C24.6826 386.613 24.5283 386.352 24.3029 386.127L23.947 385.854C23.6741 385.688 23.3656 385.617 23.0453 385.617L23.1165 385.581Z" fill="#00B5B0"/>
<path d="M18.3516 391.473C14.4007 392.517 12.9651 396.694 13.0006 400.383C13.0362 403.706 13.76 407.514 17.1651 408.938C20.1669 410.196 24.1178 409.401 25.8738 406.506C26.7518 405.034 27.0009 403.29 27.1433 401.617C27.2857 399.944 27.3569 398.272 26.9772 396.622C26.5263 394.677 25.3755 392.956 23.6432 391.924C21.911 390.892 19.8228 390.619 18.0787 391.651C16.1092 392.814 17.9007 395.899 19.8703 394.724C20.333 394.451 19.7042 394.748 19.9889 394.641C20.0957 394.605 20.2143 394.57 20.3211 394.546C20.5821 394.499 19.9771 394.499 20.4516 394.546C20.5703 394.558 20.6889 394.546 20.8076 394.57C20.5228 394.534 21.1279 394.665 21.2228 394.7C21.5551 394.807 21.4008 394.76 21.3178 394.724C21.4957 394.795 21.6618 394.89 21.8161 394.985C22.5754 395.448 23.1449 396.195 23.4297 397.239C23.7381 398.378 23.6788 399.553 23.6076 400.799C23.5365 402.045 23.489 402.887 23.0619 404.085C22.9907 404.287 22.6466 404.892 22.5398 405.023C22.4568 405.117 22.3737 405.201 22.2788 405.284C22.0652 405.485 22.611 405.106 22.172 405.367C22.0771 405.426 21.9822 405.485 21.8754 405.545C21.8161 405.58 21.3771 405.758 21.6618 405.651C21.4364 405.734 21.1991 405.806 20.9618 405.853C20.8432 405.877 20.7245 405.901 20.594 405.924C20.8669 405.889 20.5584 405.924 20.511 405.924C20.2262 405.924 19.9533 405.948 19.6686 405.924C19.5974 405.924 19.2058 405.877 19.5025 405.924C19.3482 405.901 19.2059 405.865 19.0516 405.829C18.933 405.806 18.3279 405.592 18.5533 405.687C18.3397 405.592 18.1499 405.485 17.9601 405.355C18.1618 405.497 17.9126 405.319 17.8889 405.295C17.7702 405.189 17.6634 405.082 17.5567 404.951C17.3431 404.702 17.7465 405.272 17.438 404.785C17.355 404.655 17.2719 404.512 17.2007 404.37C16.8092 403.599 16.6312 402.389 16.5719 401.451C16.4889 399.968 16.4888 398.26 17.0465 396.966C17.4855 395.934 18.3041 395.139 19.2652 394.89C21.4839 394.309 20.5347 390.868 18.316 391.461L18.3516 391.473Z" fill="#00B5B0"/>
<ellipse cx="127.474" cy="396.474" rx="18.4211" ry="18.4211" fill="#FCFEFF"/>
<path d="M117.784 394.033H118.068C118.317 394.033 118.542 393.986 118.755 393.879C118.98 393.808 119.17 393.689 119.324 393.512C119.501 393.346 119.62 393.156 119.691 392.943C119.797 392.73 119.857 392.505 119.845 392.256L119.786 391.783C119.703 391.486 119.549 391.226 119.324 391.001L118.968 390.728C118.696 390.563 118.388 390.492 118.068 390.492H117.784C117.535 390.492 117.31 390.539 117.097 390.646C116.872 390.717 116.682 390.835 116.528 391.013C116.351 391.179 116.232 391.368 116.161 391.581C116.055 391.794 115.996 392.019 116.007 392.268L116.067 392.742C116.149 393.038 116.303 393.299 116.528 393.524L116.884 393.796C117.156 393.962 117.464 394.033 117.784 394.033Z" fill="#00B5B0"/>
<path d="M136.783 389.911C136.783 389.911 136.759 389.911 136.747 389.911C136.747 389.911 136.747 389.911 136.735 389.911C136.653 389.911 136.487 389.946 136.499 389.946C136.51 389.946 136.333 389.958 136.25 389.982H136.226C136.155 390.005 136.048 390.053 136.001 390.076C135.954 390.1 135.847 390.136 135.776 390.171C135.776 390.171 135.764 390.171 135.752 390.183C135.752 390.183 135.752 390.183 135.741 390.183C135.693 390.219 135.433 390.42 135.373 390.467C135.373 390.467 135.362 390.479 135.35 390.491C135.35 390.491 135.35 390.491 135.35 390.503C135.267 390.598 135.148 390.763 135.065 390.87C135.054 390.882 135.042 390.906 135.03 390.929C135.03 390.929 135.03 390.929 135.03 390.941C134.994 391.012 134.959 391.119 134.935 391.154C134.911 391.19 134.876 391.296 134.84 391.367C134.84 391.367 134.84 391.391 134.84 391.403C134.84 391.403 134.84 391.427 134.84 391.439C134.829 391.51 134.781 391.829 134.781 391.912C134.781 391.912 134.781 391.924 134.781 391.936C134.781 391.936 134.781 391.96 134.781 391.972C134.781 391.972 134.781 391.972 134.781 391.983C134.781 392.066 134.805 392.149 134.817 392.22C134.817 392.303 134.84 392.374 134.852 392.457V392.481C134.852 392.481 134.852 392.481 134.852 392.493C134.911 392.635 134.971 392.777 135.03 392.919C135.03 392.919 135.03 392.931 135.042 392.943C135.089 393.002 135.184 393.132 135.184 393.132C135.196 393.156 135.279 393.263 135.326 393.322C135.326 393.322 135.338 393.334 135.35 393.345C135.409 393.393 135.504 393.464 135.539 393.499C135.575 393.523 135.669 393.606 135.729 393.642C135.729 393.642 135.752 393.642 135.752 393.653C135.8 393.677 136.131 393.819 136.179 393.831C136.179 393.831 136.179 393.831 136.191 393.831C136.202 393.831 136.191 393.831 136.202 393.831C136.25 393.831 136.629 393.89 136.676 393.89C136.676 393.89 136.7 393.89 136.712 393.89C136.712 393.89 136.712 393.89 136.724 393.89C136.795 393.89 137.138 393.843 137.197 393.831C137.197 393.831 137.221 393.831 137.233 393.831C137.233 393.831 137.257 393.831 137.268 393.831C137.375 393.784 137.588 393.701 137.695 393.653C137.695 393.653 137.695 393.653 137.707 393.653C137.707 393.653 137.73 393.642 137.742 393.63C137.742 393.63 137.742 393.63 137.754 393.63C137.813 393.582 137.908 393.511 137.944 393.488C137.991 393.452 138.074 393.393 138.133 393.345C138.133 393.345 138.157 393.334 138.157 393.322C138.157 393.322 138.157 393.322 138.169 393.31L138.441 392.955C138.441 392.955 138.453 392.931 138.465 392.919C138.465 392.919 138.465 392.919 138.465 392.895L138.642 392.469C138.642 392.469 138.642 392.445 138.642 392.422C138.654 392.339 138.666 392.22 138.678 392.173C138.678 392.149 138.713 392.007 138.713 391.924C138.713 391.924 138.713 391.924 138.713 391.912C138.69 391.746 138.666 391.593 138.654 391.439C138.654 391.427 138.654 391.415 138.654 391.403C138.595 391.166 138.488 390.965 138.334 390.799C138.204 390.609 138.038 390.455 137.837 390.337C137.636 390.207 137.411 390.136 137.174 390.124C136.937 390.076 136.7 390.076 136.463 390.159L136.037 390.337C135.764 390.491 135.563 390.704 135.397 390.977L135.219 391.403C135.136 391.723 135.136 392.031 135.219 392.351C135.219 392.362 135.219 392.374 135.219 392.386L135.16 391.912C135.16 391.912 135.16 391.948 135.16 391.96L135.219 391.486C135.219 391.486 135.219 391.521 135.208 391.545L135.385 391.119C135.385 391.119 135.362 391.166 135.35 391.178L135.622 390.823C135.622 390.823 135.587 390.858 135.563 390.882L135.918 390.609C135.918 390.609 135.871 390.645 135.847 390.657L136.274 390.479C136.274 390.479 136.226 390.491 136.202 390.503L136.676 390.444C136.676 390.444 136.641 390.444 136.617 390.444L137.091 390.503C137.091 390.503 137.055 390.503 137.043 390.491L137.47 390.669C137.47 390.669 137.434 390.657 137.422 390.645L137.778 390.917C137.778 390.917 137.754 390.894 137.742 390.882L138.015 391.237C138.015 391.237 137.991 391.213 137.991 391.19L138.169 391.616C138.169 391.616 138.157 391.581 138.157 391.557L138.216 392.031C138.216 392.031 138.216 391.983 138.216 391.96L138.157 392.433C138.157 392.433 138.157 392.386 138.18 392.351L138.003 392.777C138.003 392.777 138.026 392.73 138.05 392.706L137.778 393.061C137.778 393.061 137.813 393.026 137.825 393.014L137.47 393.286C137.47 393.286 137.505 393.263 137.517 393.263L137.091 393.44C137.091 393.44 137.126 393.44 137.138 393.428L136.664 393.488C136.664 393.488 136.7 393.488 136.712 393.488C136.96 393.488 137.186 393.44 137.399 393.334C137.624 393.263 137.813 393.144 137.967 392.966C138.145 392.801 138.263 392.611 138.334 392.398C138.441 392.185 138.5 391.96 138.488 391.711L138.429 391.237C138.346 390.941 138.192 390.681 137.967 390.455L137.612 390.183C137.339 390.017 137.032 389.946 136.712 389.946L136.783 389.911Z" fill="#00B5B0"/>
<path d="M130.115 387.39C127.213 387.497 123.873 387.959 122.488 390.908C121.884 392.211 121.741 393.822 122.488 395.113C123.293 396.522 124.809 397.067 126.278 397.505C128.706 398.216 132.2 398.559 133.384 401.201C134.474 403.64 131.288 404.659 129.476 404.718C126.609 404.813 123.352 404.375 121.315 402.16C119.763 400.478 117.252 402.989 118.804 404.671C120.9 406.957 123.921 407.869 126.917 408.177C129.914 408.485 133.514 408.271 135.646 405.843C137.778 403.415 137.376 399.91 135.125 397.588C132.756 395.148 129.393 394.899 126.361 393.822C126.147 393.751 125.804 393.632 125.662 393.502C125.579 393.419 125.531 393.218 125.531 393.218C125.484 392.862 125.662 392.365 125.946 392.021C126.858 390.955 128.812 390.991 130.115 390.944C132.389 390.861 132.401 387.307 130.115 387.39Z" fill="#00B5B0"/>
<path d="M125.424 416.999C130.055 417.023 134.864 416.289 138.962 414.027C142.823 411.895 145.417 408.389 146.684 404.196C148.864 396.959 147.94 387.543 142.053 382.273C136.877 377.618 129.297 376.09 122.582 377.511C119.301 378.198 116.15 379.726 113.699 382.036C110.169 385.352 108.499 390.232 108.084 394.969C107.634 400.216 108.961 406.127 112.597 410.083C115.937 413.719 120.971 416.04 125.815 416.751C128.054 417.082 129.013 413.648 126.763 413.328C123.126 412.795 119.478 411.374 116.636 409.017C113.414 406.352 111.863 402.348 111.602 398.227C111.342 394.105 112.254 389.545 114.765 386.146C116.482 383.824 119.04 382.237 121.776 381.384C127.118 379.726 133.324 380.496 138.014 383.599C143.439 387.2 144.801 394.022 143.948 400.157C143.392 404.125 141.722 407.986 138.299 410.272C134.532 412.783 129.866 413.47 125.424 413.446C123.138 413.446 123.138 416.988 125.424 416.999Z" fill="#00B5B0"/>
<ellipse cx="230.474" cy="396.474" rx="18.4211" ry="18.4211" fill="#FCFEFF"/>
<path d="M220.509 394.143H220.794C221.045 394.143 221.271 394.096 221.485 393.988C221.712 393.917 221.902 393.798 222.057 393.619C222.236 393.452 222.355 393.262 222.426 393.047C222.533 392.833 222.593 392.607 222.581 392.357L222.522 391.88C222.438 391.582 222.283 391.32 222.057 391.094L221.7 390.82C221.426 390.653 221.116 390.582 220.794 390.582H220.509C220.259 390.582 220.032 390.63 219.818 390.737C219.591 390.808 219.401 390.927 219.246 391.106C219.067 391.273 218.948 391.463 218.877 391.678C218.77 391.892 218.71 392.118 218.722 392.369L218.782 392.845C218.865 393.143 219.02 393.405 219.246 393.631L219.603 393.905C219.877 394.072 220.187 394.143 220.509 394.143Z" fill="#00B5B0"/>
<path d="M239.624 389.984C239.624 389.984 239.6 389.984 239.589 389.984C239.589 389.984 239.589 389.984 239.577 389.984C239.493 389.984 239.327 390.019 239.338 390.019C239.35 390.019 239.172 390.031 239.088 390.055H239.064C238.993 390.079 238.886 390.126 238.838 390.15C238.791 390.174 238.683 390.21 238.612 390.246C238.612 390.246 238.6 390.246 238.588 390.257C238.588 390.257 238.588 390.257 238.576 390.257C238.528 390.293 238.266 390.496 238.207 390.543C238.207 390.543 238.195 390.555 238.183 390.567C238.183 390.567 238.183 390.567 238.183 390.579C238.1 390.674 237.981 390.841 237.897 390.948C237.885 390.96 237.873 390.984 237.861 391.008C237.861 391.008 237.861 391.008 237.861 391.02C237.826 391.091 237.79 391.198 237.766 391.234C237.742 391.27 237.707 391.377 237.671 391.449C237.671 391.449 237.671 391.472 237.671 391.484C237.671 391.484 237.671 391.508 237.671 391.52C237.659 391.591 237.611 391.913 237.611 391.996C237.611 391.996 237.611 392.008 237.611 392.02C237.611 392.02 237.611 392.044 237.611 392.056C237.611 392.056 237.611 392.056 237.611 392.068C237.611 392.151 237.635 392.235 237.647 392.306C237.647 392.39 237.671 392.461 237.683 392.544V392.568C237.683 392.568 237.683 392.568 237.683 392.58C237.742 392.723 237.802 392.866 237.861 393.009C237.861 393.009 237.861 393.021 237.873 393.033C237.921 393.092 238.016 393.223 238.016 393.223C238.028 393.247 238.112 393.354 238.159 393.414C238.159 393.414 238.171 393.426 238.183 393.438C238.243 393.485 238.338 393.557 238.374 393.593C238.409 393.616 238.505 393.7 238.564 393.735C238.564 393.735 238.588 393.735 238.588 393.747C238.636 393.771 238.969 393.914 239.017 393.926C239.017 393.926 239.017 393.926 239.029 393.926C239.041 393.926 239.029 393.926 239.041 393.926C239.088 393.926 239.469 393.986 239.517 393.986C239.517 393.986 239.541 393.986 239.553 393.986C239.553 393.986 239.553 393.986 239.565 393.986C239.636 393.986 239.982 393.938 240.041 393.926C240.041 393.926 240.065 393.926 240.077 393.926C240.077 393.926 240.101 393.926 240.113 393.926C240.22 393.878 240.434 393.795 240.541 393.747C240.541 393.747 240.541 393.747 240.553 393.747C240.553 393.747 240.577 393.735 240.589 393.724C240.589 393.724 240.589 393.724 240.601 393.724C240.661 393.676 240.756 393.604 240.792 393.581C240.839 393.545 240.923 393.485 240.982 393.438C240.982 393.438 241.006 393.426 241.006 393.414C241.006 393.414 241.006 393.414 241.018 393.402L241.292 393.045C241.292 393.045 241.304 393.021 241.316 393.009C241.316 393.009 241.316 393.009 241.316 392.985L241.494 392.556C241.494 392.556 241.494 392.532 241.494 392.509C241.506 392.425 241.518 392.306 241.53 392.259C241.53 392.235 241.566 392.092 241.566 392.008C241.566 392.008 241.566 392.008 241.566 391.996C241.542 391.83 241.518 391.675 241.506 391.52C241.506 391.508 241.506 391.496 241.506 391.484C241.447 391.246 241.339 391.044 241.185 390.877C241.054 390.686 240.887 390.531 240.684 390.412C240.482 390.281 240.256 390.21 240.017 390.198C239.779 390.15 239.541 390.15 239.303 390.234L238.874 390.412C238.6 390.567 238.397 390.782 238.231 391.056L238.052 391.484C237.969 391.806 237.969 392.116 238.052 392.437C238.052 392.449 238.052 392.461 238.052 392.473L237.992 391.996C237.992 391.996 237.992 392.032 237.992 392.044L238.052 391.568C238.052 391.568 238.052 391.603 238.04 391.627L238.219 391.198C238.219 391.198 238.195 391.246 238.183 391.258L238.457 390.901C238.457 390.901 238.421 390.936 238.397 390.96L238.755 390.686C238.755 390.686 238.707 390.722 238.683 390.734L239.112 390.555C239.112 390.555 239.064 390.567 239.041 390.579L239.517 390.52C239.517 390.52 239.481 390.52 239.458 390.52L239.934 390.579C239.934 390.579 239.898 390.579 239.886 390.567L240.315 390.746C240.315 390.746 240.279 390.734 240.267 390.722L240.625 390.996C240.625 390.996 240.601 390.972 240.589 390.96L240.863 391.318C240.863 391.318 240.839 391.294 240.839 391.27L241.018 391.699C241.018 391.699 241.006 391.663 241.006 391.639L241.065 392.116C241.065 392.116 241.065 392.068 241.065 392.044L241.006 392.521C241.006 392.521 241.006 392.473 241.03 392.437L240.851 392.866C240.851 392.866 240.875 392.818 240.899 392.794L240.625 393.152C240.625 393.152 240.661 393.116 240.672 393.104L240.315 393.378C240.315 393.378 240.351 393.354 240.363 393.354L239.934 393.533C239.934 393.533 239.97 393.533 239.982 393.521L239.505 393.581C239.505 393.581 239.541 393.581 239.553 393.581C239.803 393.581 240.029 393.533 240.244 393.426C240.47 393.354 240.661 393.235 240.815 393.057C240.994 392.89 241.113 392.699 241.185 392.485C241.292 392.27 241.351 392.044 241.339 391.794L241.28 391.318C241.197 391.02 241.042 390.758 240.815 390.531L240.458 390.257C240.184 390.091 239.874 390.019 239.553 390.019L239.624 389.984Z" fill="#00B5B0"/>
<path d="M233.206 388.654C231.348 388.451 229.454 388.499 227.751 389.368C226.179 390.166 225.011 391.786 224.833 393.549C224.654 395.312 225.631 396.848 227.036 397.837C228.573 398.909 230.526 399.028 232.337 399.064V395.49C229.931 395.61 227.417 395.812 225.428 397.301C223.439 398.79 222.51 401.005 223.118 403.364C223.701 405.591 225.476 407.318 227.584 408.14C229.919 409.057 232.491 408.819 234.897 408.414C235.85 408.259 236.386 407.08 236.148 406.21C235.874 405.198 234.909 404.805 233.945 404.96C231.491 405.377 227.608 405.567 226.619 402.625C226.298 401.672 226.679 400.743 227.608 400.1C228.966 399.159 230.741 399.135 232.325 399.052C234.612 398.945 234.635 395.526 232.325 395.479C231.324 395.455 230.216 395.479 229.311 395.038C228.775 394.776 228.287 394.311 228.37 393.787C228.656 391.75 231.813 392.06 233.194 392.215C234.159 392.322 234.981 391.322 234.981 390.428C234.981 389.38 234.159 388.749 233.194 388.642L233.206 388.654Z" fill="#00B5B0"/>
<path d="M229.048 416.894C233.682 416.918 238.529 416.346 242.603 413.964C246.438 411.713 248.94 408.008 250.083 403.744C252.024 396.467 251 387.248 245.009 382.09C239.744 377.552 232.205 376.075 225.499 377.552C222.211 378.279 219.043 379.827 216.613 382.174C213.147 385.521 211.504 390.356 211.087 395.073C210.622 400.421 212.004 406.436 215.768 410.426C219.138 414 224.105 416.275 228.917 416.977C231.168 417.311 232.133 413.857 229.87 413.535C226.213 412.999 222.545 411.57 219.686 409.2C216.518 406.579 214.946 402.66 214.636 398.599C214.1 391.321 217.28 383.901 224.546 381.519C229.846 379.78 236.028 380.423 240.781 383.389C246.343 386.855 247.832 393.298 247.248 399.504C246.867 403.554 245.307 407.699 241.936 410.164C238.255 412.856 233.491 413.356 229.06 413.333C226.761 413.321 226.761 416.894 229.06 416.906L229.048 416.894Z" fill="#00B5B0"/>
<path d="M47.4402 406.978C47.2928 407.883 46.647 408.648 45.8678 409.119C45.0886 409.589 44.1761 409.807 43.2775 409.982C39.6695 410.656 35.8999 410.6 32.362 409.61C31.5126 409.371 30.6703 409.069 29.9613 408.529C29.3155 408.045 28.8101 407.322 28.6908 406.528C28.6908 406.458 28.6767 406.395 28.6767 406.318C28.6276 405.321 29.2383 404.38 30.0455 403.805C30.8598 403.222 31.8426 402.948 32.8183 402.766C34.0959 402.534 35.7525 402.471 37.4372 402.506H37.4864C38.9324 402.576 41.0874 402.724 41.9789 402.815C43.2074 402.941 44.7306 403.25 45.7765 403.903C46.8295 404.549 47.6227 405.763 47.4332 406.978H47.4402Z" fill="white"/>
<path d="M45.9667 406.978C45.9667 406.711 45.9035 407.034 45.8263 407.16C45.714 407.357 45.5595 407.525 45.377 407.665C44.9137 408.031 44.3451 408.213 43.7836 408.36C42.4148 408.718 40.9898 408.873 39.5788 408.929C36.9956 409.041 33.9772 408.88 31.5905 407.778C30.7762 407.399 29.7864 406.62 30.327 405.644C30.9096 404.584 32.3977 404.303 33.4858 404.135C35.8303 403.784 38.2451 403.994 40.5967 404.163C42.3305 404.289 46.2264 404.443 45.9737 406.971C45.8965 407.764 46.7108 408.445 47.4478 408.445C48.3112 408.445 48.8377 407.764 48.9219 406.971C49.315 403.047 44.9278 401.615 41.8391 401.32C38.7505 401.025 35.4092 400.758 32.2924 401.369C30.5656 401.706 28.8037 402.478 27.849 404.036C26.8944 405.595 27.112 407.588 28.3334 409.006C29.5548 410.424 31.4852 410.958 33.2331 411.337C35.1003 411.744 37.0237 411.926 38.933 411.898C41.0178 411.863 43.3203 411.695 45.2998 410.979C46.9565 410.382 48.9149 408.95 48.9149 406.971C48.9149 404.991 45.9667 405.068 45.9667 406.971V406.978Z" fill="#1B1E24"/>
<path d="M47.6649 410.375C47.6369 411.302 47.5947 412.214 47.5245 413.134C47.4965 413.534 47.4684 413.934 47.4333 414.334C47.4192 414.482 47.4052 414.629 47.342 414.748C47.2648 414.903 47.1244 415.001 46.984 415.099C45.1028 416.44 42.8705 417.261 40.5821 417.451C38.2727 417.648 35.893 417.465 33.6327 416.953C32.0743 416.602 30.5792 415.963 29.1822 415.198C29.0278 415.113 28.8804 415.022 28.7962 414.875C28.7119 414.734 28.7049 414.573 28.7049 414.419C28.6979 414.089 28.6839 413.759 28.6768 413.429C28.6277 411.59 28.5786 409.772 28.5294 407.953C28.5294 407.567 28.5294 407.188 28.5294 406.809C28.5505 406.704 28.5996 406.606 28.6768 406.535C28.6768 406.535 28.6839 406.528 28.6909 406.528C28.8032 407.329 29.3086 408.045 29.9614 408.529C30.6634 409.07 31.5128 409.371 32.3621 409.61C35.9 410.6 39.6696 410.656 43.2777 409.982C44.1762 409.807 45.0817 409.589 45.8679 409.119C46.6471 408.648 47.2929 407.89 47.4403 406.992C47.4894 407.104 47.5105 407.244 47.5316 407.364C47.693 408.354 47.686 409.371 47.6579 410.375H47.6649Z" fill="white"/>
<path d="M46.1904 410.375C46.1693 411.126 46.1342 411.87 46.0851 412.614C46.05 413.169 46.0851 413.829 45.9166 414.355L46.2957 413.702C45.5727 414.608 43.916 415.191 42.835 415.521C41.396 415.956 39.9289 416.075 38.4267 416.054C36.9245 416.033 35.3661 415.857 33.878 415.499C33.162 415.331 32.46 415.106 31.7791 414.826C31.2035 414.594 30.2699 414.306 29.8487 413.843L30.2278 414.496C30.0874 414.089 30.1716 413.527 30.1576 413.085C30.1365 412.341 30.1154 411.604 30.0944 410.86C30.0733 410.179 30.0593 409.491 30.0382 408.81C30.0312 408.48 30.0172 408.143 30.0172 407.813C30.0172 407.673 30.0172 407.525 30.0172 407.385C30.0452 407.041 30.0312 407.006 29.968 407.279L29.4416 407.806H29.4556C28.7326 407.504 28.0095 407.209 27.2935 406.914C27.7217 409.062 29.61 410.284 31.5685 410.902C33.6744 411.568 35.9347 411.863 38.1389 411.898C40.343 411.934 42.5191 411.744 44.5899 411.203C46.5484 410.691 48.4296 409.477 48.8789 407.378H46.036C46.3308 408.311 46.2255 409.413 46.2044 410.375C46.1623 412.27 49.1106 412.27 49.1527 410.375C49.1807 409.154 49.258 407.771 48.8789 406.592C48.4647 405.286 46.3589 405.096 46.036 406.592C45.7341 408.003 44.1336 408.318 42.9052 408.557C41.3398 408.859 39.7323 408.971 38.1319 408.95C36.5314 408.929 34.952 408.733 33.3936 408.346C32.095 408.024 30.4313 407.63 30.1295 406.128C29.947 405.223 28.7185 404.745 27.9674 405.244C26.6056 406.149 27.0689 408.276 27.104 409.659C27.1461 411.239 27.1251 412.839 27.2304 414.418C27.3567 416.237 28.9642 416.812 30.4524 417.444C31.9405 418.076 33.5551 418.497 35.1976 418.729C38.3775 419.178 41.7189 419.164 44.7373 417.956C45.9938 417.451 47.8821 416.721 48.5981 415.485C48.9912 414.812 48.9351 413.878 48.9842 413.127C49.0474 412.207 49.0965 411.288 49.1246 410.368C49.1807 408.473 46.2325 408.473 46.1763 410.368L46.1904 410.375Z" fill="#1B1E24"/>
<path d="M159.44 406.978C159.293 407.883 158.647 408.648 157.868 409.119C157.089 409.589 156.176 409.807 155.278 409.982C151.669 410.656 147.9 410.6 144.362 409.61C143.513 409.371 142.67 409.069 141.961 408.529C141.316 408.045 140.81 407.322 140.691 406.528C140.691 406.458 140.677 406.395 140.677 406.318C140.628 405.321 141.238 404.38 142.046 403.805C142.86 403.222 143.843 402.948 144.818 402.766C146.096 402.534 147.753 402.471 149.437 402.506H149.486C150.932 402.576 153.087 402.724 153.979 402.815C155.207 402.941 156.731 403.25 157.777 403.903C158.829 404.549 159.623 405.763 159.433 406.978H159.44Z" fill="white"/>
<path d="M157.967 406.978C157.967 406.711 157.904 407.034 157.826 407.16C157.714 407.357 157.56 407.525 157.377 407.665C156.914 408.031 156.345 408.213 155.784 408.36C154.415 408.718 152.99 408.873 151.579 408.929C148.996 409.041 145.977 408.88 143.59 407.778C142.776 407.399 141.786 406.62 142.327 405.644C142.91 404.584 144.398 404.303 145.486 404.135C147.83 403.784 150.245 403.994 152.597 404.163C154.331 404.289 158.226 404.443 157.974 406.971C157.896 407.764 158.711 408.445 159.448 408.445C160.311 408.445 160.838 407.764 160.922 406.971C161.315 403.047 156.928 401.615 153.839 401.32C150.751 401.025 147.409 400.758 144.292 401.369C142.566 401.706 140.804 402.478 139.849 404.036C138.894 405.595 139.112 407.588 140.333 409.006C141.555 410.424 143.485 410.958 145.233 411.337C147.1 411.744 149.024 411.926 150.933 411.898C153.018 411.863 155.32 411.695 157.3 410.979C158.956 410.382 160.915 408.95 160.915 406.971C160.915 404.991 157.967 405.068 157.967 406.971V406.978Z" fill="#1B1E24"/>
<path d="M159.665 410.375C159.637 411.302 159.595 412.214 159.525 413.134C159.496 413.534 159.468 413.934 159.433 414.334C159.419 414.482 159.405 414.629 159.342 414.748C159.265 414.903 159.124 415.001 158.984 415.099C157.103 416.44 154.871 417.261 152.582 417.451C150.273 417.648 147.893 417.465 145.633 416.953C144.074 416.602 142.579 415.963 141.182 415.198C141.028 415.113 140.88 415.022 140.796 414.875C140.712 414.734 140.705 414.573 140.705 414.419C140.698 414.089 140.684 413.759 140.677 413.429C140.628 411.59 140.579 409.772 140.529 407.953C140.529 407.567 140.529 407.188 140.529 406.809C140.55 406.704 140.6 406.606 140.677 406.535C140.677 406.535 140.684 406.528 140.691 406.528C140.803 407.329 141.309 408.045 141.961 408.529C142.663 409.07 143.513 409.371 144.362 409.61C147.9 410.6 151.67 410.656 155.278 409.982C156.176 409.807 157.082 409.589 157.868 409.119C158.647 408.648 159.293 407.89 159.44 406.992C159.489 407.104 159.51 407.244 159.532 407.364C159.693 408.354 159.686 409.371 159.658 410.375H159.665Z" fill="white"/>
<path d="M158.19 410.375C158.169 411.126 158.134 411.87 158.085 412.614C158.05 413.169 158.085 413.829 157.917 414.355L158.296 413.702C157.573 414.608 155.916 415.191 154.835 415.521C153.396 415.956 151.929 416.075 150.427 416.054C148.924 416.033 147.366 415.857 145.878 415.499C145.162 415.331 144.46 415.106 143.779 414.826C143.203 414.594 142.27 414.306 141.849 413.843L142.228 414.496C142.087 414.089 142.172 413.527 142.158 413.085C142.136 412.341 142.115 411.604 142.094 410.86C142.073 410.179 142.059 409.491 142.038 408.81C142.031 408.48 142.017 408.143 142.017 407.813C142.017 407.673 142.017 407.525 142.017 407.385C142.045 407.041 142.031 407.006 141.968 407.279L141.442 407.806H141.456C140.733 407.504 140.01 407.209 139.294 406.914C139.722 409.062 141.61 410.284 143.569 410.902C145.674 411.568 147.935 411.863 150.139 411.898C152.343 411.934 154.519 411.744 156.59 411.203C158.548 410.691 160.43 409.477 160.879 407.378H158.036C158.331 408.311 158.225 409.413 158.204 410.375C158.162 412.27 161.111 412.27 161.153 410.375C161.181 409.154 161.258 407.771 160.879 406.592C160.465 405.286 158.359 405.096 158.036 406.592C157.734 408.003 156.134 408.318 154.905 408.557C153.34 408.859 151.732 408.971 150.132 408.95C148.531 408.929 146.952 408.733 145.394 408.346C144.095 408.024 142.431 407.63 142.129 406.128C141.947 405.223 140.719 404.745 139.967 405.244C138.606 406.149 139.069 408.276 139.104 409.659C139.146 411.239 139.125 412.839 139.23 414.418C139.357 416.237 140.964 416.812 142.452 417.444C143.941 418.076 145.555 418.497 147.198 418.729C150.378 419.178 153.719 419.164 156.737 417.956C157.994 417.451 159.882 416.721 160.598 415.485C160.991 414.812 160.935 413.878 160.984 413.127C161.047 412.207 161.097 411.288 161.125 410.368C161.181 408.473 158.233 408.473 158.176 410.368L158.19 410.375Z" fill="#1B1E24"/>
<path d="M260.44 406.978C260.293 407.883 259.647 408.648 258.868 409.119C258.089 409.589 257.176 409.807 256.278 409.982C252.669 410.656 248.9 410.6 245.362 409.61C244.513 409.371 243.67 409.069 242.961 408.529C242.316 408.045 241.81 407.322 241.691 406.528C241.691 406.458 241.677 406.395 241.677 406.318C241.628 405.321 242.238 404.38 243.046 403.805C243.86 403.222 244.843 402.948 245.818 402.766C247.096 402.534 248.753 402.471 250.437 402.506H250.486C251.932 402.576 254.087 402.724 254.979 402.815C256.207 402.941 257.731 403.25 258.777 403.903C259.829 404.549 260.623 405.763 260.433 406.978H260.44Z" fill="white"/>
<path d="M258.967 406.978C258.967 406.711 258.904 407.034 258.826 407.16C258.714 407.357 258.56 407.525 258.377 407.665C257.914 408.031 257.345 408.213 256.784 408.36C255.415 408.718 253.99 408.873 252.579 408.929C249.996 409.041 246.977 408.88 244.59 407.778C243.776 407.399 242.786 406.62 243.327 405.644C243.91 404.584 245.398 404.303 246.486 404.135C248.83 403.784 251.245 403.994 253.597 404.163C255.331 404.289 259.226 404.443 258.974 406.971C258.896 407.764 259.711 408.445 260.448 408.445C261.311 408.445 261.838 407.764 261.922 406.971C262.315 403.047 257.928 401.615 254.839 401.32C251.751 401.025 248.409 400.758 245.292 401.369C243.566 401.706 241.804 402.478 240.849 404.036C239.894 405.595 240.112 407.588 241.333 409.006C242.555 410.424 244.485 410.958 246.233 411.337C248.1 411.744 250.024 411.926 251.933 411.898C254.018 411.863 256.32 411.695 258.3 410.979C259.956 410.382 261.915 408.95 261.915 406.971C261.915 404.991 258.967 405.068 258.967 406.971V406.978Z" fill="#1B1E24"/>
<path d="M260.665 410.375C260.637 411.302 260.595 412.214 260.525 413.134C260.496 413.534 260.468 413.934 260.433 414.334C260.419 414.482 260.405 414.629 260.342 414.748C260.265 414.903 260.124 415.001 259.984 415.099C258.103 416.44 255.871 417.261 253.582 417.451C251.273 417.648 248.893 417.465 246.633 416.953C245.074 416.602 243.579 415.963 242.182 415.198C242.028 415.113 241.88 415.022 241.796 414.875C241.712 414.734 241.705 414.573 241.705 414.419C241.698 414.089 241.684 413.759 241.677 413.429C241.628 411.59 241.579 409.772 241.529 407.953C241.529 407.567 241.529 407.188 241.529 406.809C241.55 406.704 241.6 406.606 241.677 406.535C241.677 406.535 241.684 406.528 241.691 406.528C241.803 407.329 242.309 408.045 242.961 408.529C243.663 409.07 244.513 409.371 245.362 409.61C248.9 410.6 252.67 410.656 256.278 409.982C257.176 409.807 258.082 409.589 258.868 409.119C259.647 408.648 260.293 407.89 260.44 406.992C260.489 407.104 260.51 407.244 260.532 407.364C260.693 408.354 260.686 409.371 260.658 410.375H260.665Z" fill="white"/>
<path d="M259.19 410.375C259.169 411.126 259.134 411.87 259.085 412.614C259.05 413.169 259.085 413.829 258.917 414.355L259.296 413.702C258.573 414.608 256.916 415.191 255.835 415.521C254.396 415.956 252.929 416.075 251.427 416.054C249.924 416.033 248.366 415.857 246.878 415.499C246.162 415.331 245.46 415.106 244.779 414.826C244.203 414.594 243.27 414.306 242.849 413.843L243.228 414.496C243.087 414.089 243.172 413.527 243.158 413.085C243.136 412.341 243.115 411.604 243.094 410.86C243.073 410.179 243.059 409.491 243.038 408.81C243.031 408.48 243.017 408.143 243.017 407.813C243.017 407.673 243.017 407.525 243.017 407.385C243.045 407.041 243.031 407.006 242.968 407.279L242.442 407.806H242.456C241.733 407.504 241.01 407.209 240.294 406.914C240.722 409.062 242.61 410.284 244.569 410.902C246.674 411.568 248.935 411.863 251.139 411.898C253.343 411.934 255.519 411.744 257.59 411.203C259.548 410.691 261.43 409.477 261.879 407.378H259.036C259.331 408.311 259.225 409.413 259.204 410.375C259.162 412.27 262.111 412.27 262.153 410.375C262.181 409.154 262.258 407.771 261.879 406.592C261.465 405.286 259.359 405.096 259.036 406.592C258.734 408.003 257.134 408.318 255.905 408.557C254.34 408.859 252.732 408.971 251.132 408.95C249.531 408.929 247.952 408.733 246.394 408.346C245.095 408.024 243.431 407.63 243.129 406.128C242.947 405.223 241.719 404.745 240.967 405.244C239.606 406.149 240.069 408.276 240.104 409.659C240.146 411.239 240.125 412.839 240.23 414.418C240.357 416.237 241.964 416.812 243.452 417.444C244.941 418.076 246.555 418.497 248.198 418.729C251.378 419.178 254.719 419.164 257.737 417.956C258.994 417.451 260.882 416.721 261.598 415.485C261.991 414.812 261.935 413.878 261.984 413.127C262.047 412.207 262.097 411.288 262.125 410.368C262.181 408.473 259.233 408.473 259.176 410.368L259.19 410.375Z" fill="#1B1E24"/>
<path d="M50.1323 395.975L47.6202 399.928C47.2959 400.438 47.4407 401.214 47.9848 401.527C48.5289 401.84 49.2399 401.725 49.5878 401.178L52.0998 397.225C52.4241 396.715 52.2793 395.939 51.7352 395.626C51.1911 395.313 50.4802 395.428 50.1323 395.975Z" fill="#00B5B0"/>
<path d="M58.7747 398.097C56.3264 399.437 53.9118 400.843 51.4596 402.179C50.8962 402.488 50.6496 403.319 50.9631 403.822C51.3031 404.368 51.9591 404.504 52.5632 404.17C55.0115 402.83 57.4261 401.424 59.8782 400.087C60.4417 399.779 60.6882 398.947 60.3747 398.444C60.0348 397.898 59.3788 397.762 58.7747 398.097Z" fill="#00B5B0"/>
<path d="M162.132 395.975L159.62 399.928C159.296 400.438 159.441 401.214 159.985 401.527C160.529 401.84 161.24 401.725 161.588 401.178L164.1 397.225C164.424 396.715 164.279 395.939 163.735 395.626C163.191 395.313 162.48 395.428 162.132 395.975Z" fill="#00B5B0"/>
<path d="M170.775 398.097C168.326 399.437 165.912 400.843 163.46 402.179C162.896 402.488 162.65 403.319 162.963 403.822C163.303 404.368 163.959 404.504 164.563 404.17C167.011 402.83 169.426 401.424 171.878 400.087C172.442 399.779 172.688 398.947 172.375 398.444C172.035 397.898 171.379 397.762 170.775 398.097Z" fill="#00B5B0"/>
<path d="M263.132 395.975L260.62 399.928C260.296 400.438 260.441 401.214 260.985 401.527C261.529 401.84 262.24 401.725 262.588 401.178L265.1 397.225C265.424 396.715 265.279 395.939 264.735 395.626C264.191 395.313 263.48 395.428 263.132 395.975Z" fill="#00B5B0"/>
<path d="M271.775 398.097C269.326 399.437 266.912 400.843 264.46 402.179C263.896 402.488 263.65 403.319 263.963 403.822C264.303 404.368 264.959 404.504 265.563 404.17C268.011 402.83 270.426 401.424 272.878 400.087C273.442 399.779 273.688 398.947 273.375 398.444C273.035 397.898 272.379 397.762 271.775 398.097Z" fill="#00B5B0"/>
<path fill-rule="evenodd" clip-rule="evenodd" d="M64.8503 459.586C73.8619 449.859 84.6459 441.741 96.4813 435.853C99.8757 434.154 103.631 435.003 105.733 438.311C107.626 441.271 106.499 446.081 103.315 447.659C102.481 448.075 101.652 448.501 100.829 448.938C107.114 447.245 113.399 445.554 119.686 443.865C119.817 443.83 119.948 443.799 120.079 443.772C123.438 441.608 126.912 439.629 130.481 437.853C133.876 436.154 137.631 437.003 139.733 440.311C141.626 443.271 140.499 448.081 137.315 449.659C136.481 450.075 135.652 450.501 134.829 450.938C140.964 449.285 147.099 447.635 153.236 445.986C157.162 443.343 161.255 440.956 165.481 438.853C168.876 437.154 172.631 438.003 174.733 441.311C176.626 444.271 175.499 449.081 172.315 450.659C171.481 451.075 170.652 451.501 169.829 451.938C176.114 450.245 182.399 448.554 188.686 446.865C191.675 446.061 194.679 447.442 196.316 450.006C197.833 452.374 197.458 456.425 195.265 458.277C193.948 459.393 192.599 460.452 191.222 461.464L191.405 461.418C195.085 460.492 198.614 462.723 199.726 466.183C200.837 469.642 198.434 473.724 195.01 474.589C177.962 478.884 161.126 483.906 144.514 489.658C138.853 491.618 134.273 484.727 136.644 479.971C127.536 482.654 118.492 485.549 109.514 488.658C103.501 490.74 98.7079 482.836 102.168 478.111C93.2212 480.755 84.3359 483.603 75.5141 486.658C69.1158 488.873 64.0993 479.784 68.9356 475.246C70.9853 473.322 73.1461 471.564 75.3899 469.93C74.0696 470.286 72.7493 470.642 71.4288 470.997C64.7752 472.803 60.2994 464.503 64.8503 459.586Z" fill="#E5F8F7"/>
<path d="M113.539 463.544C114.158 463.544 114.659 463.331 115.043 462.904C115.427 462.477 115.619 461.917 115.619 461.224C115.619 460.776 115.534 460.381 115.363 460.04C115.193 459.688 114.947 459.416 114.627 459.224C114.318 459.032 113.955 458.936 113.539 458.936H110.403V463.544H113.539ZM115.715 469.176L112.787 465.192H110.403V469.176H108.483V457.272H113.843C114.558 457.272 115.193 457.443 115.747 457.784C116.313 458.115 116.75 458.579 117.059 459.176C117.379 459.763 117.539 460.429 117.539 461.176C117.539 461.72 117.449 462.227 117.267 462.696C117.086 463.155 116.803 463.576 116.419 463.96C116.046 464.333 115.561 464.648 114.963 464.904L118.099 469.176H115.715ZM125.12 464.232C125.067 463.891 124.955 463.571 124.784 463.272C124.613 462.973 124.379 462.728 124.08 462.536C123.781 462.344 123.419 462.248 122.992 462.248C122.608 462.248 122.251 462.339 121.92 462.52C121.589 462.691 121.317 462.931 121.104 463.24C120.891 463.539 120.752 463.869 120.688 464.232H125.12ZM126.512 462.968C126.715 463.416 126.827 463.864 126.848 464.312C126.88 464.76 126.885 465.16 126.864 465.512V465.64H120.688C120.752 466.024 120.896 466.371 121.12 466.68C121.355 466.979 121.632 467.213 121.952 467.384C122.283 467.544 122.629 467.624 122.992 467.624C123.579 467.624 124.021 467.523 124.32 467.32C124.629 467.117 124.853 466.915 124.992 466.712L125.008 466.68L126.56 467.336C126.304 467.859 125.872 468.301 125.264 468.664C124.656 469.027 123.893 469.208 122.976 469.208C122.187 469.208 121.483 469.032 120.864 468.68C120.245 468.317 119.76 467.816 119.408 467.176C119.067 466.525 118.896 465.784 118.896 464.952C118.896 464.12 119.067 463.384 119.408 462.744C119.76 462.093 120.245 461.587 120.864 461.224C121.483 460.861 122.187 460.68 122.976 460.68C123.755 460.68 124.4 460.84 124.912 461.16C125.435 461.469 125.813 461.8 126.048 462.152C126.283 462.493 126.437 462.765 126.512 462.968ZM136.946 469.176H135.138L133.426 463.464L131.746 469.176H129.922L127.394 460.68H129.394L130.866 466.376L132.434 460.68H134.402L136.002 466.376L137.458 460.68H139.458L136.946 469.176ZM143.978 467.672C144.394 467.672 144.783 467.555 145.146 467.32C145.509 467.085 145.797 466.76 146.01 466.344C146.223 465.928 146.33 465.469 146.33 464.968C146.33 464.467 146.223 464.013 146.01 463.608C145.797 463.192 145.509 462.867 145.146 462.632C144.783 462.397 144.394 462.28 143.978 462.28C143.53 462.28 143.135 462.392 142.794 462.616C142.453 462.829 142.186 463.144 141.994 463.56C141.813 463.965 141.722 464.435 141.722 464.968C141.722 465.512 141.813 465.987 141.994 466.392C142.186 466.797 142.453 467.112 142.794 467.336C143.135 467.56 143.53 467.672 143.978 467.672ZM148.25 469.176H146.33V467.912C146.106 468.211 145.855 468.456 145.578 468.648C145.311 468.84 145.029 468.984 144.73 469.08C144.431 469.187 144.127 469.24 143.818 469.24C143.039 469.24 142.346 469.059 141.738 468.696C141.13 468.333 140.655 467.832 140.314 467.192C139.973 466.541 139.802 465.8 139.802 464.968C139.802 464.147 139.973 463.416 140.314 462.776C140.655 462.125 141.13 461.619 141.738 461.256C142.346 460.893 143.039 460.712 143.818 460.712C144.287 460.712 144.741 460.824 145.178 461.048C145.626 461.272 146.01 461.603 146.33 462.04V460.68H148.25V469.176ZM151.946 462.216C152.18 461.757 152.532 461.384 153.002 461.096C153.482 460.808 153.983 460.664 154.506 460.664V462.376C154.015 462.376 153.572 462.509 153.178 462.776C152.783 463.032 152.479 463.368 152.266 463.784C152.052 464.189 151.946 464.6 151.946 465.016V469.176H150.042V460.68H151.946V462.216ZM159.115 469.24C158.337 469.24 157.638 469.059 157.019 468.696C156.411 468.323 155.937 467.816 155.595 467.176C155.254 466.525 155.083 465.784 155.083 464.952C155.083 464.131 155.254 463.395 155.595 462.744C155.937 462.093 156.411 461.587 157.019 461.224C157.638 460.851 158.337 460.664 159.115 460.664C159.371 460.664 159.643 460.701 159.931 460.776C160.219 460.851 160.518 460.989 160.827 461.192C161.147 461.395 161.425 461.672 161.659 462.024V457.272H163.579V469.176H161.659V467.896C161.318 468.376 160.902 468.723 160.411 468.936C159.931 469.139 159.499 469.24 159.115 469.24ZM159.275 467.704C159.702 467.704 160.097 467.587 160.459 467.352C160.822 467.107 161.11 466.776 161.323 466.36C161.547 465.944 161.659 465.491 161.659 465C161.659 464.509 161.547 464.056 161.323 463.64C161.11 463.213 160.822 462.877 160.459 462.632C160.097 462.387 159.702 462.264 159.275 462.264C158.817 462.264 158.417 462.376 158.075 462.6C157.734 462.824 157.467 463.144 157.275 463.56C157.094 463.976 157.003 464.456 157.003 465C157.003 465.533 157.094 466.008 157.275 466.424C157.467 466.829 157.734 467.144 158.075 467.368C158.417 467.592 158.817 467.704 159.275 467.704ZM166.677 466.696C166.923 467.005 167.216 467.251 167.557 467.432C167.899 467.613 168.229 467.709 168.549 467.72C168.976 467.72 169.323 467.624 169.589 467.432C169.856 467.24 169.995 466.984 170.005 466.664C170.005 466.515 169.941 466.387 169.813 466.28C169.685 466.163 169.515 466.067 169.301 465.992C169.099 465.907 168.843 465.811 168.533 465.704C167.936 465.512 167.44 465.325 167.045 465.144C166.661 464.952 166.331 464.685 166.053 464.344C165.776 464.003 165.643 463.576 165.653 463.064C165.653 462.573 165.787 462.141 166.053 461.768C166.331 461.395 166.709 461.107 167.189 460.904C167.68 460.701 168.224 460.605 168.821 460.616C169.333 460.627 169.845 460.755 170.357 461C170.869 461.245 171.28 461.571 171.589 461.976L170.309 463.048C170.117 462.781 169.877 462.573 169.589 462.424C169.312 462.275 169.04 462.2 168.773 462.2C168.421 462.189 168.133 462.264 167.909 462.424C167.685 462.584 167.573 462.797 167.573 463.064C167.573 463.224 167.637 463.363 167.765 463.48C167.893 463.597 168.064 463.704 168.277 463.8C168.501 463.885 168.773 463.976 169.093 464.072C169.68 464.264 170.16 464.456 170.533 464.648C170.917 464.829 171.248 465.091 171.525 465.432C171.803 465.763 171.936 466.184 171.925 466.696C171.915 467.208 171.76 467.667 171.461 468.072C171.173 468.467 170.773 468.776 170.261 469C169.749 469.213 169.163 469.309 168.501 469.288C167.947 469.277 167.376 469.139 166.789 468.872C166.213 468.595 165.744 468.221 165.381 467.752L166.677 466.696Z" fill="#00B5B0"/>
<path d="M99.6432 460.985C99.6432 460.807 99.6011 461.022 99.5496 461.107C99.4747 461.238 99.3718 461.35 99.2501 461.444C98.9412 461.687 98.5622 461.809 98.1878 461.907C97.2752 462.146 96.3253 462.249 95.3846 462.286C93.6625 462.361 91.6502 462.253 90.0591 461.519C89.5162 461.266 88.8564 460.746 89.2167 460.096C89.6051 459.389 90.5972 459.202 91.3226 459.09C92.8856 458.856 94.4955 458.996 96.0632 459.108C97.2191 459.193 99.8164 459.296 99.6479 460.98C99.5964 461.509 100.139 461.963 100.631 461.963C101.206 461.963 101.557 461.509 101.613 460.98C101.875 458.364 98.9506 457.41 96.8915 457.213C94.8324 457.017 92.6049 456.839 90.527 457.246C89.3758 457.471 88.2012 457.985 87.5648 459.024C86.9283 460.063 87.0734 461.392 87.8877 462.337C88.7019 463.283 89.9889 463.638 91.1541 463.891C92.3989 464.163 93.6812 464.284 94.9541 464.266C96.344 464.242 97.8789 464.13 99.1986 463.653C100.303 463.255 101.609 462.3 101.609 460.98C101.609 459.661 99.6432 459.712 99.6432 460.98V460.985Z" fill="#00B5B0"/>
<path d="M99.7936 463.25C99.7796 463.751 99.7562 464.247 99.7234 464.743C99.7 465.113 99.7234 465.553 99.6111 465.904L99.8638 465.468C99.3818 466.072 98.2774 466.46 97.5567 466.68C96.5974 466.971 95.6193 467.05 94.6178 467.036C93.6164 467.022 92.5775 466.905 91.5853 466.666C91.108 466.554 90.64 466.404 90.1861 466.217C89.8024 466.063 89.18 465.871 88.8992 465.562L89.1519 465.997C89.0583 465.726 89.1144 465.351 89.1051 465.056C89.091 464.56 89.077 464.069 89.063 463.573C89.0489 463.119 89.0396 462.66 89.0255 462.207C89.0208 461.987 89.0115 461.762 89.0115 461.542C89.0115 461.448 89.0115 461.35 89.0115 461.257C89.0302 461.027 89.0208 461.004 88.9787 461.186L88.6277 461.537H88.6371C88.1551 461.336 87.6731 461.14 87.1957 460.943C87.4812 462.375 88.7401 463.189 90.0457 463.601C91.4496 464.046 92.9565 464.242 94.426 464.266C95.8954 464.289 97.3461 464.163 98.7267 463.802C100.032 463.461 101.286 462.651 101.586 461.252H99.6907C99.8872 461.874 99.817 462.609 99.803 463.25C99.7749 464.514 101.74 464.514 101.768 463.25C101.787 462.436 101.839 461.514 101.586 460.728C101.31 459.857 99.906 459.731 99.6907 460.728C99.4895 461.668 98.4225 461.879 97.6035 462.038C96.5599 462.239 95.4883 462.314 94.4213 462.3C93.3543 462.286 92.3014 462.155 91.2624 461.898C90.3967 461.682 89.2876 461.42 89.0864 460.419C88.9647 459.815 88.1457 459.497 87.645 459.829C86.7371 460.433 87.046 461.851 87.0694 462.773C87.0975 463.826 87.0834 464.893 87.1536 465.946C87.2379 467.158 88.3095 467.541 89.3016 467.963C90.2937 468.384 91.3701 468.665 92.4651 468.819C94.5851 469.119 96.8126 469.109 98.8249 468.304C99.6626 467.967 100.921 467.481 101.399 466.657C101.661 466.208 101.623 465.585 101.656 465.085C101.698 464.472 101.731 463.858 101.75 463.245C101.787 461.982 99.8217 461.982 99.7843 463.245L99.7936 463.25Z" fill="#00B5B0"/>
</svg>
