<?xml version="1.0" standalone="no"?>
<!DOCTYPE svg PUBLIC "-//W3C//DTD SVG 20010904//EN"
 "http://www.w3.org/TR/2001/REC-SVG-20010904/DTD/svg10.dtd">
<svg version="1.0" xmlns="http://www.w3.org/2000/svg"
 width="192.000000pt" height="192.000000pt" viewBox="0 0 192.000000 192.000000"
 preserveAspectRatio="xMidYMid meet">
<metadata>
Created by potrace 1.14, written by Peter Selinger 2001-2017
</metadata>
<g transform="translate(0.000000,192.000000) scale(0.100000,-0.100000)"
fill="#000000" stroke="none">
<path d="M640 1889 c-109 -10 -171 -25 -245 -59 -130 -59 -246 -174 -306 -305
-47 -105 -60 -196 -66 -465 -11 -502 30 -684 192 -845 151 -152 316 -195 740
-195 247 0 407 15 504 45 178 56 330 203 391 377 32 93 41 173 47 433 9 411
-17 584 -107 723 -116 180 -277 270 -526 291 -136 12 -499 12 -624 0z m445
-373 c83 -22 157 -66 220 -130 68 -70 107 -143 136 -253 60 -238 -40 -499
-226 -587 -162 -77 -373 -73 -536 10 -162 82 -289 321 -277 523 10 188 195
384 413 437 68 17 209 17 270 0z"/>
<path d="M911 1344 c-68 -18 -101 -42 -139 -101 -39 -61 -49 -117 -29 -165 24
-56 69 -83 192 -111 90 -21 114 -31 133 -53 19 -22 23 -35 18 -63 -9 -54 -28
-63 -126 -59 -75 4 -94 9 -158 42 -80 42 -111 43 -138 2 -8 -14 -14 -39 -12
-58 4 -48 85 -102 187 -124 129 -29 249 2 324 85 49 54 67 92 67 140 0 55 -13
84 -62 137 -56 61 -84 73 -196 89 -58 8 -101 20 -111 29 -14 15 -13 18 6 38
17 17 38 23 100 27 117 9 167 54 128 114 -30 46 -90 56 -184 31z"/>
<path d="M567 1239 c-26 -15 -59 -86 -55 -122 2 -22 11 -36 31 -47 24 -13 30
-13 54 0 31 18 73 84 73 117 0 24 -43 63 -69 63 -9 0 -24 -5 -34 -11z"/>
<path d="M1252 1214 c-47 -33 -65 -101 -36 -142 24 -34 66 -29 103 13 37 43
42 94 11 125 -24 24 -48 25 -78 4z"/>
</g>
</svg>
