<svg width="108" height="32" viewBox="0 0 108 32" fill="none" xmlns="http://www.w3.org/2000/svg">
  <path
    d="M30.7352 2.8726C30.814 2.49978 31.0182 2.06694 30.5722 1.42133C30.3124 1.04487 29.1747 -0.0626877 28.6409 0.00278351C27.5874 0.135544 24.7657 2.11787 24.7657 2.11787C23.6424 2.82532 22.5747 3.61643 21.5356 4.44573C20.2868 5.44962 19.0847 6.50989 17.9112 7.60653C14.6309 10.6691 11.4831 13.9936 8.4805 17.58C7.57934 17.6091 6.70686 17.6418 5.85408 17.6836C5.60326 17.6982 5.43127 17.7018 5.33453 17.7018C4.09477 17.7018 3.10762 17.9473 2.3695 18.4275C1.63138 18.913 1.26053 19.4677 1.26053 20.1097C1.26053 20.7517 1.44685 21.0609 1.8177 21.0609C1.94311 21.0609 2.23155 21.019 2.67586 20.939C3.12554 20.8535 4.18435 20.8117 5.85408 20.8117C2.29605 25.4001 0.296675 28.8628 0.0136097 30.2341C-0.161963 31.067 1.40744 31.92 2.05598 31.9909C3.11121 32.1055 3.50356 31.1143 3.92636 30.385C5.84333 27.0969 7.86241 23.9452 10.2183 20.939C12.6727 21.0099 15.5177 21.1045 18.7622 21.2318C17.7787 23.3378 16.7951 25.4383 15.8151 27.5498C15.3601 28.5246 14.9713 29.3593 14.5252 30.3432C14.1723 31.1161 15.12 31.4453 16.2003 31.4599C17.3881 31.478 17.9954 31.2471 18.3358 30.7633C19.074 29.6994 19.4359 28.9865 20.0342 27.8808C20.5502 26.9205 22.5729 22.4867 26.104 14.5774C29.6316 6.66811 30.6241 3.41274 30.7352 2.87624V2.8726ZM12.9289 17.58C17.0925 12.6533 21.6914 8.24851 26.7257 4.37116C24.9718 8.02664 22.8416 12.5296 20.3316 17.891C17.8396 17.74 15.3708 17.6327 12.9289 17.58Z"
    fill="#333333" />
  <path
    d="M39.1212 17.2139C39.1212 16.7138 38.9546 16.31 38.6196 15.9936C38.29 15.6826 37.8636 15.5226 37.3476 15.5226C35.2551 15.5226 32.7254 17.2375 29.7514 20.6621L30.5451 19.4563C31.6397 17.7941 32.1879 16.6629 32.1879 16.0591C32.1879 15.6772 32.0392 15.4844 31.7382 15.4844C30.3874 15.4844 29.4325 15.8517 28.8664 16.5774C28.5654 16.9629 28.1748 17.5758 27.6965 18.4197C27.469 18.8289 26.7738 20.0164 25.6183 21.986C24.4574 23.9556 23.6046 25.4251 23.0564 26.3962C22.5081 27.371 22.0997 28.073 21.8309 28.5059C21.5568 28.9387 21.2935 29.4479 21.1627 29.6698C20.9764 29.9808 20.8187 30.4191 21.0462 30.7537C21.2738 31.092 21.7055 31.1447 22.0764 31.1683C22.5028 31.192 22.9345 31.1865 23.3484 31.0738C23.5526 31.0174 23.7103 30.9465 23.8536 30.7919C23.9844 30.6464 24.0865 30.4809 24.2012 30.3263C25.552 28.484 26.7398 26.9255 27.89 25.6433C29.0455 24.3575 30.4429 22.9008 32.0858 21.2804C33.7287 19.6545 34.7588 18.8216 35.1762 18.7834L35.2139 18.8216C34.2805 19.9382 33.8164 20.9312 33.8164 21.8169C33.8164 22.2134 33.9239 22.5571 34.1461 22.8481C34.3647 23.1445 34.6746 23.29 35.0687 23.29C35.4629 23.29 35.8212 23.0881 36.1365 22.6771C36.7313 21.8714 37.3763 20.8821 38.0714 19.7145C38.7719 18.5415 39.1195 17.7086 39.1195 17.2139H39.1212Z"
    fill="#333333" />
  <path
    d="M106.721 24.8996C104.851 26.2472 103.143 28.1732 100.827 28.6969C99.6768 28.9552 97.0952 29.1498 97.0952 27.3548C97.0952 26.4309 98.6682 25.6216 99.3221 25.2397C100.478 24.5613 101.434 24.0612 102.511 23.4683C102.891 23.2556 103.518 23.021 103.518 22.5918C103.518 22.4172 103.425 22.1826 103.235 21.8807C102.966 21.4515 102.674 21.2114 102.149 21.2441C101.726 21.2732 101.323 21.4369 100.929 21.5733C100.78 21.6242 99.1143 22.1771 99.1143 21.7334C99.1143 21.4278 99.5174 20.9604 100.325 20.3348C101.133 19.7074 101.811 19.2364 102.368 18.9163C102.92 18.5962 103.427 18.3598 103.876 18.2052C103.826 18.4125 103.803 18.6253 103.803 18.8417C103.803 19.0581 103.849 19.2327 103.934 19.3691C104.021 19.5019 104.208 19.5674 104.485 19.5674C105.34 19.5674 106.105 19.2509 106.779 18.6107C107.336 18.0833 107.905 17.1595 107.762 16.392C107.712 16.1101 107.567 15.85 107.289 15.6391C106.495 15.0262 105.358 15.1862 104.444 15.3463C102.862 15.6191 101.354 16.2702 99.9527 17.0376C98.9548 17.5741 98.1146 18.2616 97.4284 19.1018C96.4162 20.3366 95.61 23.0737 97.5359 23.9448C97.045 24.1467 96.5918 24.3849 96.1887 24.6559C96.1869 24.6559 96.1851 24.6559 96.1833 24.6595C96.1689 24.6686 96.1582 24.6777 96.1439 24.6868C96.1063 24.7123 96.0668 24.7378 96.0292 24.765C95.7587 24.9542 95.5455 25.1342 95.3377 25.3215C94.9973 25.6289 94.6676 25.9508 94.338 26.2709C93.7539 26.8365 93.1699 27.4021 92.5213 27.8913C92.0287 28.2641 91.4536 28.5933 90.823 28.5933C89.6298 28.5933 90.479 26.1963 90.6922 25.678C91.244 24.3395 91.88 23.0391 92.5249 21.7497C94.1499 18.4889 96.3911 14.4988 99.2486 9.77941C99.7413 8.96466 100.427 7.83346 101.309 6.39674C102.19 4.96001 102.753 4.02704 102.998 3.59784C103.244 3.16864 103.366 2.87221 103.366 2.71217C103.366 2.55212 103.296 2.39572 103.161 2.24659C103.022 2.09201 102.832 2.01562 102.59 2.01562C101.472 2.01562 100.646 2.3648 100.116 3.07044C99.1232 4.23437 97.0809 7.45701 93.994 12.7329C93.014 14.4988 92.3565 15.499 91.9893 16.0865C91.4464 15.5863 90.9591 15.5172 90.556 15.5172C89.284 15.5172 87.892 15.9228 86.3835 16.7321C84.8714 17.5432 83.4973 18.5544 82.2539 19.7619C81.0142 20.9732 79.9805 22.3299 79.1492 23.8375C79.1277 23.8739 79.1116 23.9103 79.0936 23.9448C77.9757 25.778 76.8632 28.5224 74.3335 28.5224C73.753 28.5224 73.461 28.3059 73.461 27.8676C73.461 27.5239 73.5918 27.0947 73.8408 26.5855C73.9662 26.34 74.0773 26.1327 74.1704 25.9581C74.2636 25.7889 74.398 25.5725 74.5646 25.3088C74.7366 25.0451 74.8387 24.876 74.8799 24.7996C77.8736 19.5564 79.3767 16.7903 79.3767 16.4938C79.3767 16.1501 79.1223 15.7682 78.9037 15.5191C78.5884 15.1608 78.2301 14.9826 77.836 14.9826C77.4418 14.9826 76.8667 15.2608 76.1143 15.8155C75.3672 16.372 74.7312 16.9321 74.2063 17.5014C73.9734 17.756 73.6688 18.0342 73.5147 18.3452C73.3427 18.6889 73.5792 18.929 73.8121 19.1782C74.0665 19.4601 74.1973 19.6492 74.1973 19.7474C74.1973 19.9965 73.8963 20.3639 73.7799 20.5712C73.581 20.915 73.366 21.2551 73.1582 21.5933C72.4667 22.7336 71.7751 23.9721 71.08 25.3143C71.0388 25.3997 70.9922 25.4889 70.9492 25.5725C70.3508 26.7783 69.6826 28.1732 70.3508 29.4826C70.9779 30.7029 72.3466 31.4704 73.6867 31.4704C75.1182 31.4704 76.8685 30.8157 78.1477 29.5099C78.1531 29.5281 78.1584 29.5481 78.1656 29.5644C78.2498 29.8045 78.3519 30.0173 78.4773 30.201C78.8625 30.7756 79.4573 31.063 80.2635 31.063C81.7111 31.063 83.4185 30.1919 85.382 28.4532C86.4408 27.5112 87.4799 26.3654 88.5011 25.0233C87.7451 26.6582 87.3635 27.9586 87.3635 28.9661C87.3635 30.592 88.3094 31.4249 90.1995 31.4249C91.3085 31.4249 92.4819 30.912 93.7217 29.8845C93.908 29.7263 94.0854 29.5753 94.2538 29.4262C94.2842 29.4899 94.3165 29.5517 94.3541 29.6117C94.6748 30.1537 95.2266 30.5683 96.0382 30.9393C96.8032 31.2976 97.8333 31.4758 99.1143 31.4758C101.522 31.4758 104.07 30.3646 106.766 28.1404C107.452 27.5712 107.995 26.651 107.995 25.7289C107.995 25.0978 107.475 24.354 106.719 24.8996H106.721ZM86.9514 22.9882C83.9667 26.4182 82.0981 28.1277 81.3402 28.1277C81.1647 28.1277 81.0751 27.9149 81.0751 27.4966C81.0751 27.0783 81.4657 26.149 82.245 24.7268C83.0297 23.2992 84.1996 21.9334 85.7582 20.6276C87.3223 19.3273 89.0117 18.4707 90.8212 18.0597C89.7265 19.6565 88.4366 21.3005 86.9514 22.9864V22.9882Z"
    fill="#333333" />
  <path
    d="M55.8893 13.7637C57.0717 14.1311 58.4441 13.2799 59.0102 11.8032C59.5763 10.3283 59.0765 8.83336 57.8941 8.46599C56.7116 8.09862 55.2927 8.99703 54.7266 10.4738C54.1605 11.9487 54.7069 13.3963 55.8893 13.7637Z"
    fill="#333333" />
  <path
    d="M68.5083 22.0044C68.2306 21.7971 67.9601 21.637 67.6967 21.5243C67.4316 21.4115 67.0751 21.2842 66.62 21.1515C66.165 21.0151 65.4358 20.8314 64.4397 20.5949C63.4364 20.3549 62.727 20.1567 62.3042 19.9966C61.8813 19.8366 61.6682 19.6474 61.6682 19.431C61.6682 18.9745 62.2522 18.5126 63.4185 18.0507C64.3788 17.6742 65.4 17.4705 66.4265 17.396C66.8852 17.3632 67.4155 17.2741 67.8365 17.5051C68.1249 17.6651 68.365 17.9525 68.4349 18.2871C68.4671 18.4526 68.4205 18.6599 68.4402 18.8381C68.4814 19.2146 68.8899 19.2437 69.1873 19.2437C69.6925 19.2437 70.1064 18.9709 70.4271 18.4289C70.7478 17.8833 70.909 17.2941 70.909 16.6521C70.909 16.0101 70.6206 15.4609 70.0508 14.9935C69.4758 14.528 68.4367 14.2915 66.9317 14.2915C65.4268 14.2915 63.6604 14.8007 61.6323 15.8083C60.69 16.2702 59.8963 16.8631 59.2513 17.5942C58.6118 18.3198 58.2911 19.0927 58.2911 19.9111C58.2911 20.3076 58.4487 20.7495 58.7605 21.2351C59.0758 21.7207 59.6419 22.1535 60.4642 22.5409C61.2812 22.9228 62.9939 23.3793 65.6024 23.9031C65.8765 23.954 66.5304 24.0449 66.4516 24.4596C66.3907 24.776 66.0521 25.0197 65.8299 25.227C65.4035 25.6235 64.8643 26.0381 64.2157 26.471C63.5654 26.9038 62.7915 27.3003 61.8813 27.6531C60.6613 28.1241 59.3606 28.3933 58.0582 28.3496C57.8539 28.3406 57.6228 28.326 57.3953 28.2878H57.3863C57.3774 28.2824 57.3577 28.2787 57.3362 28.2733C57.2126 28.2496 57.0925 28.2169 56.9779 28.1751C56.7736 28.0841 56.2254 27.6549 57.338 25.849C57.5655 25.4871 57.5816 25.1106 56.9958 24.8724C56.2917 24.5869 55.7041 24.6978 55.3063 24.8633C55.2884 24.8706 55.2705 24.8779 55.2526 24.8851C55.2347 24.8924 55.2186 24.9015 55.2024 24.9088C55.1863 24.916 55.1684 24.9251 55.1541 24.9324C55.1487 24.9361 55.1415 24.9397 55.1361 24.9415C55.1164 24.9524 55.0985 24.9615 55.0806 24.9706C54.9265 25.0543 54.7814 25.1561 54.6865 25.247C54.1257 25.7744 53.8659 26.1418 53.3786 26.6219C52.9289 27.1075 52.3897 27.5494 51.7644 27.955C51.1428 28.3551 50.539 28.5588 49.9639 28.5588C49.3888 28.5588 49.0914 28.3424 49.0914 27.9041C49.0914 27.5604 49.2168 27.1312 49.4712 26.6219C49.5967 26.3764 49.7077 26.1691 49.8009 25.9945C49.894 25.8254 50.0284 25.6089 50.195 25.3452C50.367 25.0815 50.4691 24.9124 50.5103 24.836C53.504 19.5929 55.0018 16.8267 55.0018 16.5303C55.0018 16.2338 54.8495 15.9138 54.5324 15.5555C54.2171 15.1972 53.8588 15.019 53.4646 15.019C53.0705 15.019 52.4954 15.2972 51.7429 15.8519C50.9959 16.4084 50.3599 16.9722 49.8349 17.5378C49.31 18.107 49.0502 18.4617 49.0502 18.5926C49.0502 18.7236 49.181 18.9363 49.4408 19.2146C49.6952 19.4965 49.826 19.6856 49.826 19.7838C49.826 19.882 49.4784 20.4949 48.7869 21.6298C47.9986 22.8501 47.1028 24.0267 46.0727 25.0506C45.2324 25.8799 44.4065 26.5819 43.4462 27.2548C42.5881 27.8586 41.7801 28.3624 40.689 28.3624C39.4403 28.3624 39.8542 26.5765 40.1139 25.8708C40.8109 23.9813 41.7389 22.2899 42.6992 20.5295C44.5283 17.1759 45.9562 14.7025 46.9774 13.1185C47.2784 13.104 48.889 12.953 51.8128 12.6566C52.4022 12.6002 53.5739 12.3128 53.2837 11.4417C53.2353 11.298 53.1726 11.1598 53.0884 11.0325C52.9576 10.8343 52.791 10.6597 52.6333 10.4869C52.4757 10.3178 52.2947 10.1705 52.0959 10.0541C51.7985 9.8795 51.5154 9.8795 51.1768 9.8795C50.7683 9.8795 50.0714 9.91769 49.0932 9.99225C49.1165 9.94497 49.3064 9.63398 49.6683 9.06474C50.0248 8.49551 50.3366 7.98629 50.6017 7.5389C50.8669 7.09152 51.0012 6.81872 51.0012 6.71506C51.0012 6.16401 50.1431 6.08399 49.7489 6.0658C49.4193 6.04761 49.095 6.01852 48.769 6.11309C48.5647 6.16946 48.416 6.31132 48.2727 6.4659C48.124 6.6314 47.9807 6.80053 47.8373 6.96603C47.4378 7.42796 46.714 8.46459 45.657 10.0759L43.9532 10.1505C43.7777 10.165 43.5215 10.1741 43.1883 10.1887C42.8586 10.2032 42.5523 10.2178 42.2835 10.2269C42.0148 10.2414 41.7317 10.256 41.4433 10.2741C40.956 10.3069 40.5385 10.5324 40.1623 10.8397C39.8094 11.1271 39.5084 11.4708 39.2056 11.8145C38.9602 12.0964 38.5929 12.4638 38.6072 12.8784C38.6162 13.2167 38.8814 13.4622 39.202 13.4531C41.3877 13.4022 41.4899 13.3786 42.8407 13.3258C42.8407 13.3204 43.5609 13.2967 43.5609 13.2967C42.2011 15.4682 40.8413 17.7961 39.4815 20.273C38.6502 21.7953 37.9587 23.232 37.4123 24.5796C36.7351 26.2473 35.9504 28.7116 37.2779 30.2756C37.7419 30.8212 38.3779 31.1795 39.0695 31.3359C41.635 31.896 44.2112 30.0446 45.6821 28.2969C45.6767 28.3387 45.6767 28.3824 45.6767 28.4242C45.6767 29.1317 46.0332 29.8191 46.7481 30.4975C47.4683 31.1758 48.3264 31.5159 49.319 31.5159C50.3115 31.5159 51.5656 31.2431 52.8322 30.3338C53.3894 29.9337 53.9931 29.4863 54.5216 28.9716C54.6757 28.8207 54.8244 28.6643 54.9624 28.5024C54.837 28.8243 54.7617 29.1662 54.7545 29.5118C54.7545 29.5536 54.7545 29.5918 54.7599 29.63C54.8441 33.1872 61.8455 30.6484 63.2286 30.0592C64.2874 29.6118 65.2746 29.0989 66.1936 28.5097C67.1127 27.9204 67.8777 27.2148 68.4904 26.3891C69.1031 25.5653 69.4041 24.736 69.4041 23.8976C69.4041 23.0592 69.1121 22.4281 68.5173 22.008L68.5083 22.0044Z"
    fill="#333333" />
  <path
    d="M75.7434 13.2823C76.5388 13.1605 77.4561 13.0023 78.3178 12.9768C78.9807 12.9568 79.7529 13.0314 80.3477 13.0896C81.6501 13.2169 82.2772 10.4198 80.6056 10.5507C80.2061 10.5816 78.9664 10.6871 78.454 10.949C78.8625 10.7435 79.5504 10.2561 79.7403 10.0833C80.1613 9.69597 80.3154 9.21221 80.1936 8.64843C79.6704 6.23873 76.7126 9.43954 76.1733 10.2397C75.7774 10.8272 75.3671 11.5473 75.1611 12.2384C74.9999 12.7749 75.0912 13.3824 75.7434 13.2823Z"
    fill="#333333" />
</svg>