<svg width="92" height="25" viewBox="0 0 92 25" fill="none" xmlns="http://www.w3.org/2000/svg">
  <path
    d="M45.8519 24.7198V20.3856H31.2623V14.7237H45.0922V10.3895H31.2623V4.72762H45.8519V0.393433H31.2623H26.9287V4.72762V10.3895V14.7237V20.3856V24.7198H31.2623H45.8519Z"
    fill="#333333" />
  <path d="M91.9922 0.337158H87.6587V24.6629H91.9922V0.337158Z" fill="#333333" />
  <path d="M61.5021 10.3328H49.647V14.6663H61.5021V10.3328Z" fill="#333333" />
  <path d="M83.2603 10.3804V14.7133H69.6322V24.6626H65.2974V4.6698H69.6322V10.3804H83.2603Z"
    fill="#333333" />
  <path d="M84.2693 0.337158H69.6348V4.67071H84.2693V0.337158Z" fill="#333333" />
  <path
    d="M22.755 7.71892C21.0237 2.81355 16.47 0 10.261 0H4.3252V4.14189H11.1257C14.6565 4.14189 17.4207 5.99777 18.5195 9.10989C18.9034 10.1188 19.0976 11.2536 19.0976 12.482C19.0976 13.7104 18.9192 14.7623 18.5524 15.8275C17.4429 18.9649 14.666 20.8385 11.1257 20.8385H4.3252V25H10.261C16.477 25 21.0313 22.1991 22.755 17.3146C23.2756 15.8231 23.5393 14.2031 23.5393 12.4984C23.5393 10.7937 23.2825 9.2288 22.755 7.71892Z"
    fill="#333333" />
  <path d="M4.3247 4.14197H0V20.8379H4.3247V4.14197Z" fill="#333333" />
</svg>