<svg width="143" height="24" viewBox="0 0 143 24" fill="none" xmlns="http://www.w3.org/2000/svg">
  <g clipPath="url(#clip0_293_38711)">
    <path d="M8.8427 13.3583H3.07637V1.41088H0V0H11.9339V1.41088H8.85756V13.3583H8.8427Z"
      fill="#333333" />
    <path
      d="M21.4752 0H27.2415V13.3583H21.4752V7.06942H18.696V13.3583H12.9297V0H18.696V5.65854H21.4752V0Z"
      fill="#333333" />
    <path
      d="M39.8739 5.92871V7.33959H34.2116V11.9625H40.082V13.3734H31.3285C31.2096 13.3734 31.0015 13.3734 30.6894 13.3433C30.3773 13.3283 30.0652 13.2833 29.7086 13.2383C29.3519 13.1932 29.0695 13.1182 28.8169 13.0281C28.5642 12.9381 28.4453 12.818 28.4453 12.6679V0.705441C28.4453 0.555347 28.5642 0.435272 28.8169 0.345216C29.0695 0.255159 29.3667 0.180113 29.7086 0.135084C30.0504 0.0900563 30.3773 0.0600375 30.6894 0.0300188C31.0015 0.0150094 31.2096 0 31.3285 0H40.082V1.41088H34.2116V5.92871H39.8739Z"
      fill="#333333" />
    <path
      d="M51.0647 0.195175C50.5148 0.225193 49.9352 0.285231 49.3259 0.375287C48.7165 0.465344 48.1815 0.585419 47.7357 0.750522C47.2898 0.915625 47.0669 1.14077 47.0669 1.39593V23.985H57.366V13.5535H66.0304V11.047H57.366V2.65671H66.4168V0.150146H52.209C52.001 0.150146 51.6146 0.165156 51.0795 0.210184L51.0647 0.195175Z"
      fill="#333333" />
    <path
      d="M78.4696 0.150146H68.1704V22.7393C68.1704 23.0094 68.3933 23.2196 68.8392 23.3847C69.285 23.5498 69.8201 23.6849 70.4294 23.7599C71.0387 23.85 71.6183 23.91 72.1682 23.94C72.7181 23.97 73.0896 24.0001 73.2977 24.0001H87.5055V21.4935H78.4547V0.150146H78.4696Z"
      fill="#333333" />
    <path
      d="M131.986 0.150146V9.98129L120.231 12.3077C120.082 12.3378 119.829 12.3828 119.443 12.4578C119.057 12.5329 118.655 12.6229 118.239 12.728C117.808 12.8331 117.452 12.9682 117.154 13.1032C116.857 13.2383 116.708 13.4184 116.708 13.5986V24.0001H127.008V14.1689L138.763 11.8425C138.912 11.8124 139.164 11.7674 139.551 11.6924C139.922 11.6173 140.339 11.5273 140.755 11.4222C141.186 11.3171 141.542 11.182 141.84 11.047C142.137 10.9119 142.285 10.7318 142.285 10.5516V0.150146H131.986Z"
      fill="#333333" />
    <path
      d="M141.245 14.1989C140.799 14.0338 140.264 13.9137 139.655 13.8236C139.046 13.7336 138.466 13.6736 137.916 13.6435C137.366 13.6135 136.995 13.5835 136.787 13.5835H131.645V23.985H141.944V14.8443C141.944 14.5891 141.721 14.364 141.275 14.1989H141.245Z"
      fill="#333333" />
    <path
      d="M117.749 9.93626C118.195 10.1014 118.73 10.2365 119.339 10.3115C119.949 10.4016 120.528 10.4616 121.078 10.4916C121.628 10.5216 122 10.5516 122.208 10.5516H127.35V0.150146H117.051V9.29086C117.051 9.56103 117.274 9.77116 117.72 9.93626H117.749Z"
      fill="#333333" />
    <path
      d="M119.325 11.2571C119.325 11.2571 117.452 11.2721 115.862 10.6867C115.044 10.3865 114.524 9.57603 114.524 8.69047V3.96252L114.539 0.120117H104.24C104.225 3.04695 104.21 5.97378 104.21 8.91561C104.21 9.93625 104.894 10.8518 105.875 11.062C106.707 11.2421 107.391 11.2421 107.391 11.2421C106.633 11.3171 105.994 11.4972 105.473 11.7374C104.701 12.0976 104.21 12.8781 104.21 13.7336V21.4635H99.5882V0.150136H89.2891V22.7393C89.2891 23.0094 89.512 23.2196 89.9578 23.3847C90.4037 23.5498 90.9387 23.6848 91.548 23.7599C92.1574 23.8499 92.737 23.91 93.2869 23.94C93.8367 23.97 94.2083 24 94.4163 24H109.323C109.516 24 109.872 23.985 110.422 23.94C110.972 23.91 111.552 23.8499 112.176 23.7599C112.8 23.6698 113.335 23.5498 113.796 23.3847C114.257 23.2196 114.465 23.0094 114.465 22.7393C114.509 21.5385 114.524 20.3378 114.494 19.122C114.465 17.9062 114.465 16.6905 114.465 15.5047V14.2439C114.465 13.5985 114.747 12.9681 115.252 12.5779C116.085 11.9475 117.348 11.4222 119.265 11.2721L119.325 11.2571Z"
      fill="#333333" />
  </g>
  <defs>
    <clipPath id="clip0_293_38711">
      <rect width="142.286" height="24" fill="white" />
    </clipPath>
  </defs>
</svg>