<svg width="20" height="20" viewBox="0 0 20 20" fill="none" xmlns="http://www.w3.org/2000/svg">
  <path fill-rule="evenodd" clip-rule="evenodd"
    d="M19.6 10.2273C19.6 9.51825 19.5364 8.83643 19.4182 8.18188H10V12.0501H15.3818C15.15 13.3001 14.4455 14.3592 13.3864 15.0682V17.5773H16.6182C18.5091 15.8364 19.6 13.2728 19.6 10.2273Z"
    fill="#4285F4" />
  <path fill-rule="evenodd" clip-rule="evenodd"
    d="M9.99984 20.0004C12.6998 20.0004 14.9635 19.1049 16.618 17.5777L13.3862 15.0686C12.4907 15.6686 11.3453 16.0231 9.99984 16.0231C7.39529 16.0231 5.19075 14.264 4.40439 11.9004H1.06348V14.4913C2.70893 17.7595 6.09075 20.0004 9.99984 20.0004Z"
    fill="#34A853" />
  <path fill-rule="evenodd" clip-rule="evenodd"
    d="M4.40455 11.8997C4.20455 11.2997 4.09091 10.6588 4.09091 9.9997C4.09091 9.34061 4.20455 8.6997 4.40455 8.0997V5.50879H1.06364C0.386364 6.85879 0 8.38606 0 9.9997C0 11.6133 0.386364 13.1406 1.06364 14.4906L4.40455 11.8997Z"
    fill="#FBBC05" />
  <path fill-rule="evenodd" clip-rule="evenodd"
    d="M9.99984 3.97727C11.468 3.97727 12.7862 4.48182 13.8226 5.47273L16.6907 2.60455C14.9589 0.990909 12.6953 0 9.99984 0C6.09075 0 2.70893 2.24091 1.06348 5.50909L4.40439 8.1C5.19075 5.73636 7.39529 3.97727 9.99984 3.97727Z"
    fill="#EA4335" />
</svg>