<svg width="117" height="24" viewBox="0 0 117 24" fill="none" xmlns="http://www.w3.org/2000/svg">
  <path
    d="M63.7995 1.61169H62.3804V23.9965H63.7995H68.7984H79.2813V18.4698H68.7984V15.1503H77.2953V10.1584H68.7984V7.13837H79.2813V1.61169H68.7984H63.7995Z"
    fill="#1A1B1E" />
  <path
    d="M24.6205 0C22.7379 0 21.0728 1.63661 21.0728 3.60125C21.0728 5.56589 22.7379 7.13119 24.6205 7.13119C26.5032 7.13119 28.2039 5.60155 28.2039 3.60125C28.2039 1.60095 26.5745 0 24.6205 0Z"
    fill="#F00046" />
  <path d="M59.171 1.61169H52.7529V23.9965H59.171V1.61169Z" fill="#1A1B1E" />
  <path d="M27.8546 9.14209H21.4365V23.9964H27.8546V9.14209Z" fill="#1A1B1E" />
  <path d="M6.41807 1.31567H0V23.9964H2.44956V24H18.2273V18.295H6.41807V1.31567Z" fill="#1A1B1E" />
  <path
    d="M37.5172 17.2219V1.61169H31.0991V23.9965H34.3082H37.5172H40.6086L51.2091 1.61169H44.9122L37.5172 17.2219Z"
    fill="#1A1B1E" />
  <path
    d="M110.12 1.61169L102.728 17.2219V1.61169H102.6H96.31H96.2993L88.9078 17.2219V1.61169H82.4897V23.9965H85.6988H88.9078H91.9992L96.31 14.8935V23.9965H99.519H102.728H105.816L116.42 1.61169H110.12Z"
    fill="#1A1B1E" />
</svg>