<svg width="126" height="46" viewBox="0 0 126 46" fill="none" xmlns="http://www.w3.org/2000/svg">
  <path
    d="M82.3641 39.7181L72.457 25.2977H72.2833H68.5093V25.5501V45.4641H72.2833V31.0433L82.1904 45.4641H82.3641H86.1381V45.2113V25.2977H82.3641V39.7181Z"
    fill="#222222" />
  <path
    d="M40.1283 39.7181L30.2212 25.2977H30.0474H26.2734V25.5501V45.4641H30.0474V31.0433L39.9545 45.4641H40.1283H43.9023V45.2113V25.2977H40.1283V39.7181Z"
    fill="#222222" />
  <path d="M79.3438 3.5741H75.5698V17.0864H79.3438V3.5741Z" fill="#222222" />
  <path
    d="M92.0436 10.0205V10.6395C92.0436 14.1999 89.1632 17.0863 85.6096 17.0863H79.3438V20.638H85.6829C91.16 20.638 95.5996 16.1898 95.5996 10.7022V9.93583C95.5996 4.44858 91.16 0 85.6829 0H79.3438V3.57404H85.6096C89.1632 3.57404 92.0436 6.46003 92.0436 10.0205Z"
    fill="#222222" />
  <path d="M23.1955 25.2977H19.4155V45.4964H23.1955V25.2977Z" fill="#222222" />
  <path
    d="M56.1925 25.2977L59.3431 35.3977H53.0383L56.1889 25.2977H52.4073L46.1064 45.4964H49.888L51.8569 39.1846H60.5245L62.4934 45.4964H66.2745L59.9737 25.2977H56.1925Z"
    fill="#222222" />
  <path d="M3.77998 29.0967H0V45.4941H3.77998V37.9511H15.1032V34.1638H3.77998V29.0967Z"
    fill="#222222" />
  <path d="M16.3421 25.2993H3.77979V29.0866H16.3421V25.2993Z" fill="#222222" />
  <path
    d="M125.978 29.085V25.2977H113.416H109.636V45.4964H113.416H125.978V41.7092H113.416V37.2909H124.739V33.5036H113.416V29.085H125.978Z"
    fill="#222222" />
  <path
    d="M28.3073 14.09L30.2766 20.4018H34.0578L27.7569 0.203125H23.9753L27.1259 10.3027H20.8211L23.9717 0.203125H20.1905L13.8896 20.4018H17.6708L19.6397 14.09H28.3073Z"
    fill="#222222" />
  <path
    d="M114.133 20.4018V16.6146H101.571V12.1959H112.895V8.40904H101.571V3.99041H114.133V0.203125H101.571H97.791V20.4018H101.571H114.133Z"
    fill="#222222" />
  <path
    d="M40.0291 13.7702H50.0829V20.4019H53.8628V10.3028H51.9087C52.9398 9.23056 53.5739 7.77259 53.5739 6.16647C53.5739 2.87316 50.9095 0.203613 47.6225 0.203613H36.2495V20.4023H40.0295V13.7706L40.0291 13.7702ZM44.7146 3.67103V3.67183H46.7951C48.6277 3.67183 50.1131 5.14657 50.1131 6.98271C50.1131 7.90078 49.7417 8.73179 49.1414 9.33359C48.5759 9.90024 47.8075 10.2628 46.9545 10.3032H40.0291V3.67063H44.7146V3.67103Z"
    fill="#222222" />
  <path
    d="M103.802 38.3194C103.726 38.5794 103.638 38.8322 103.535 39.0774C103.443 39.2954 103.341 39.5059 103.232 39.7055C103.232 39.7055 102.538 41.1859 101.33 41.9218C100.472 42.4665 99.403 42.7437 98.1527 42.7437C96.8124 42.7437 95.6828 42.4262 94.7952 41.8004C93.9033 41.1723 93.2221 40.1516 92.7709 39.0778C92.3118 37.9868 92.1384 36.7481 92.1384 35.3983C92.1384 34.0486 92.3114 32.8098 92.7709 31.7184C93.2221 30.645 93.9037 29.6239 94.7952 28.9954C95.6828 28.37 96.8128 28.053 98.1527 28.053C99.4927 28.053 100.623 28.37 101.511 28.9954C102.363 29.5964 103.023 30.5556 103.474 31.5771C103.488 31.6094 103.502 31.6418 103.515 31.6741L106.994 30.4054C106.903 30.201 106.806 30.0013 106.702 29.806C105.862 28.2203 104.687 26.9748 103.211 26.105C101.737 25.2369 100.035 24.7964 98.1531 24.7964C96.2711 24.7964 94.5685 25.2369 93.0946 26.105C91.6183 26.9744 90.4437 28.2199 89.6028 29.806C88.7654 31.3846 88.3413 33.2663 88.3413 35.3983C88.3413 37.5303 88.7658 39.4116 89.6028 40.9906C90.4433 42.5767 91.6183 43.8223 93.0946 44.6912C94.5681 45.5598 96.2695 46.0002 98.1531 46.0002C100.037 46.0002 101.737 45.5598 103.211 44.6912C103.431 44.5618 103.646 44.4225 103.851 44.2767C104.959 43.595 105.898 42.2684 105.898 42.2684C106.193 41.8719 106.462 41.4422 106.702 40.9898C106.981 40.4639 107.214 39.904 107.401 39.313L103.88 38.0291C103.856 38.1266 103.83 38.2236 103.802 38.3194Z"
    fill="#222222" />
  <path d="M62.6871 20.4015H66.467V3.9905H73.3777V0.203613H55.7764V3.9905H62.6871V20.4015Z"
    fill="#222222" />
</svg>