<svg width="340" height="176" viewBox="0 0 340 176" fill="none" xmlns="http://www.w3.org/2000/svg">
<path d="M37.35 31.128H34.31L31.654 24.568H20.774L18.054 31.128H15.014L24.646 7.768H27.878L37.35 31.128ZM30.662 22.104L26.246 11.288L21.766 22.104H30.662ZM47.5578 31.32C46.6404 31.32 45.6911 31.0747 44.7098 30.584C43.7284 30.0933 42.8858 29.2827 42.1818 28.152V31.128H39.3658V7.768H42.1818V17.752C42.8858 16.6213 43.7284 15.8107 44.7098 15.32C45.6911 14.8293 46.6511 14.584 47.5898 14.584C49.1258 14.584 50.4911 14.9467 51.6858 15.672C52.8804 16.376 53.8084 17.3573 54.4698 18.616C55.1524 19.8747 55.4938 21.3147 55.4938 22.936C55.4938 24.5573 55.1524 26.008 54.4698 27.288C53.8084 28.5467 52.8698 29.5387 51.6538 30.264C50.4591 30.968 49.0938 31.32 47.5578 31.32ZM42.1818 22.968C42.1818 24.056 42.4164 25.0587 42.8858 25.976C43.3764 26.8933 44.0271 27.6187 44.8378 28.152C45.6484 28.6853 46.5231 28.952 47.4618 28.952C48.4644 28.952 49.3604 28.696 50.1498 28.184C50.9604 27.672 51.5791 26.968 52.0058 26.072C52.4538 25.1547 52.6778 24.12 52.6778 22.968C52.6778 21.816 52.4538 20.792 52.0058 19.896C51.5791 18.9787 50.9604 18.2747 50.1498 17.784C49.3604 17.272 48.4644 17.016 47.4618 17.016C46.5231 17.016 45.6484 17.2827 44.8378 17.816C44.0271 18.3493 43.3764 19.0747 42.8858 19.992C42.4164 20.9093 42.1818 21.9013 42.1818 22.968ZM65.131 28.824C66.1337 28.824 67.019 28.5787 67.787 28.088C68.555 27.576 69.1523 26.872 69.579 25.976C70.027 25.0587 70.251 24.024 70.251 22.872C70.251 21.72 70.027 20.696 69.579 19.8C69.1523 18.904 68.5443 18.2107 67.755 17.72C66.987 17.208 66.1123 16.952 65.131 16.952C64.1497 16.952 63.2643 17.208 62.475 17.72C61.707 18.2107 61.1097 18.904 60.683 19.8C60.2563 20.696 60.043 21.72 60.043 22.872C60.043 24.024 60.2563 25.0587 60.683 25.976C61.1097 26.872 61.707 27.576 62.475 28.088C63.2643 28.5787 64.1497 28.824 65.131 28.824ZM57.227 22.872C57.227 21.2507 57.5577 19.8107 58.219 18.552C58.9017 17.2933 59.8403 16.312 61.035 15.608C62.2297 14.8827 63.595 14.52 65.131 14.52C66.667 14.52 68.0323 14.8827 69.227 15.608C70.443 16.312 71.3817 17.2933 72.043 18.552C72.7257 19.8107 73.067 21.2507 73.067 22.872C73.067 24.4933 72.7257 25.9333 72.043 27.192C71.3817 28.4507 70.443 29.4427 69.227 30.168C68.0323 30.872 66.667 31.224 65.131 31.224C63.595 31.224 62.2297 30.872 61.035 30.168C59.8403 29.4427 58.9017 28.4507 58.219 27.192C57.5577 25.9333 57.227 24.4933 57.227 22.872ZM78.496 24.184C78.496 25.5493 78.88 26.68 79.648 27.576C80.416 28.4507 81.408 28.888 82.624 28.888C83.9893 28.888 85.0987 28.4827 85.952 27.672C86.8053 26.84 87.232 25.752 87.232 24.408V14.584H90.048V31.128H87.232V28.664C86.6987 29.4533 85.984 30.0933 85.088 30.584C84.2133 31.0747 83.3173 31.32 82.4 31.32C81.12 31.32 79.968 31.0213 78.944 30.424C77.92 29.8267 77.12 29.0053 76.544 27.96C75.968 26.9147 75.68 25.7307 75.68 24.408V14.584H78.496V24.184ZM99.5478 31.192C98.1824 31.192 97.0624 30.744 96.1878 29.848C95.3131 28.952 94.8544 27.8 94.8118 26.392V17.144H92.0598V14.68H94.8118V10.296H97.6278V14.68H101.18V17.144H97.6278V26.2C97.6278 26.84 97.8091 27.3947 98.1718 27.864C98.5344 28.3333 98.9931 28.568 99.5478 28.568C99.8678 28.568 100.156 28.5467 100.412 28.504C100.668 28.4613 100.924 28.408 101.18 28.344L101.692 30.936C100.881 31.1067 100.166 31.192 99.5478 31.192Z" fill="#1B1E24"/>
<g filter="url(#filter0_b_6276_69885)">
<path d="M17.2975 102.812L16.485 104.5C16.485 105.708 18.1725 106.875 21.5475 108C24.9642 109.083 28.6933 109.625 32.735 109.625C36.8183 109.625 41.2975 109.021 46.1725 107.812C51.0475 106.604 55.2767 105.125 58.86 103.375C62.485 101.625 65.4642 99.7917 67.7975 97.875C70.1725 95.9583 71.36 94.2917 71.36 92.875C71.36 91.0833 69.2767 89.4167 65.11 87.875C60.9433 86.3333 54.8808 84.6458 46.9225 82.8125C39.0058 80.9375 33.1933 78.5833 29.485 75.75C25.8183 72.9167 23.985 69.4792 23.985 65.4375C23.985 61.3542 25.4433 57.4583 28.36 53.75C31.2767 50.0417 35.0683 46.75 39.735 43.875C44.4433 41 49.5683 38.4375 55.11 36.1875C66.5683 31.5625 77.1933 29.25 86.985 29.25C90.735 29.25 94.0475 29.5833 96.9225 30.25C102.423 31.5417 105.173 33.25 105.173 35.375C105.173 37.5 104.985 38.9583 104.61 39.75C104.235 40.5 103.923 41 103.673 41.25C103.464 41.5 103.173 41.75 102.798 42C102.464 42.25 102.214 42.4375 102.048 42.5625C100.214 44.1042 95.1933 45.0625 86.985 45.4375C84.1517 45.5625 82.61 45.7083 82.36 45.875C82.11 46.0417 81.8808 46.125 81.6725 46.125C81.5058 46.125 81.2975 45.9583 81.0475 45.625C80.7975 45.2917 80.6725 44.75 80.6725 44C80.6725 43.25 81.485 41.875 83.11 39.875C78.0267 40.1667 72.5892 41.3333 66.7975 43.375C61.0475 45.4167 56.0475 47.7292 51.7975 50.3125C47.5475 52.8542 44.0058 55.375 41.1725 57.875C38.3392 60.3333 36.9225 62.0833 36.9225 63.125C36.9225 64.125 37.235 64.9583 37.86 65.625C39.61 67.5 44.4642 69.4583 52.4225 71.5C60.6725 73.625 66.1725 75.3333 68.9225 76.625C71.6725 77.9167 73.9433 79.1458 75.735 80.3125C77.5683 81.4792 79.0267 82.6667 80.11 83.875C82.6517 86.7917 83.9225 89.75 83.9225 92.75C83.9225 95.75 83.11 98.5625 81.485 101.188C79.9017 103.812 77.485 106.354 74.235 108.812C71.0267 111.271 67.235 113.458 62.86 115.375C53.2767 119.667 41.86 121.812 28.61 121.812C18.9433 121.812 12.7767 119.25 10.11 114.125C9.40167 112.833 9.0475 111.5 9.0475 110.125C9.0475 108.708 9.36 107.438 9.985 106.312C10.6517 105.188 11.4433 104.333 12.36 103.75C14.1517 102.625 15.4225 102.062 16.1725 102.062C16.9225 102.062 17.2975 102.312 17.2975 102.812ZM127.615 73.25C127.615 76 126.49 78.4167 124.24 80.5C122.032 82.5833 119.511 83.625 116.677 83.625C115.761 83.625 115.157 83.4167 114.865 83C114.573 82.5417 114.427 81.9583 114.427 81.25C114.427 80.5417 114.511 79.8542 114.677 79.1875C113.177 79.6875 111.511 80.4583 109.677 81.5C107.844 82.5417 105.594 84.0833 102.927 86.125C100.261 88.1667 98.9275 89.6875 98.9275 90.6875C98.9275 91.0208 99.4067 91.1875 100.365 91.1875C101.365 91.1875 102.886 90.8542 104.927 90.1875C106.969 89.4792 108.386 89.125 109.177 89.125C110.011 89.125 110.552 89.1667 110.802 89.25C111.344 89.5417 111.927 90.1875 112.552 91.1875C113.177 92.1458 113.49 92.9167 113.49 93.5C113.49 94.0417 112.948 94.7708 111.865 95.6875C110.782 96.6042 109.552 97.3125 108.177 97.8125C106.802 98.2708 105.886 98.625 105.427 98.875C96.6358 103.792 92.24 107.167 92.24 109C92.24 112.25 95.0108 113.875 100.552 113.875C104.094 113.875 107.657 112.75 111.24 110.5C114.282 108.583 117.011 106.646 119.427 104.688C121.886 102.688 123.427 101.458 124.052 101C124.719 100.542 125.219 100.312 125.552 100.312C126.636 100.312 127.177 101.521 127.177 103.938C127.177 106.354 127.032 107.958 126.74 108.75C126.448 109.5 125.615 110.438 124.24 111.562C115.323 118.812 106.886 122.438 98.9275 122.438C94.6775 122.438 91.2817 121.854 88.74 120.688C84.0733 118.562 81.74 115.312 81.74 110.938C81.74 105.188 85.7192 100.833 93.6775 97.875C92.0942 97.1667 91.0733 96.2708 90.615 95.1875C90.1567 94.0625 89.9275 92.2917 89.9275 89.875C89.9275 87.4167 91.0525 84.8333 93.3025 82.125C95.5942 79.375 98.3858 77.125 101.677 75.375C109.011 71.4167 115.552 69.4375 121.302 69.4375C122.677 69.4375 124.073 69.7708 125.49 70.4375C126.907 71.1042 127.615 72.0417 127.615 73.25ZM163.12 73.25C163.12 76 161.995 78.4167 159.745 80.5C157.537 82.5833 155.016 83.625 152.183 83.625C151.266 83.625 150.662 83.4167 150.37 83C150.078 82.5417 149.933 81.9583 149.933 81.25C149.933 80.5417 150.016 79.8542 150.183 79.1875C148.683 79.6875 147.016 80.4583 145.183 81.5C143.349 82.5417 141.099 84.0833 138.433 86.125C135.766 88.1667 134.433 89.6875 134.433 90.6875C134.433 91.0208 134.912 91.1875 135.87 91.1875C136.87 91.1875 138.391 90.8542 140.433 90.1875C142.474 89.4792 143.891 89.125 144.683 89.125C145.516 89.125 146.058 89.1667 146.308 89.25C146.849 89.5417 147.433 90.1875 148.058 91.1875C148.683 92.1458 148.995 92.9167 148.995 93.5C148.995 94.0417 148.453 94.7708 147.37 95.6875C146.287 96.6042 145.058 97.3125 143.683 97.8125C142.308 98.2708 141.391 98.625 140.933 98.875C132.141 103.792 127.745 107.167 127.745 109C127.745 112.25 130.516 113.875 136.058 113.875C139.599 113.875 143.162 112.75 146.745 110.5C149.787 108.583 152.516 106.646 154.933 104.688C157.391 102.688 158.933 101.458 159.558 101C160.224 100.542 160.724 100.312 161.058 100.312C162.141 100.312 162.683 101.521 162.683 103.938C162.683 106.354 162.537 107.958 162.245 108.75C161.953 109.5 161.12 110.438 159.745 111.562C150.828 118.812 142.391 122.438 134.433 122.438C130.183 122.438 126.787 121.854 124.245 120.688C119.578 118.562 117.245 115.312 117.245 110.938C117.245 105.188 121.224 100.833 129.183 97.875C127.599 97.1667 126.578 96.2708 126.12 95.1875C125.662 94.0625 125.433 92.2917 125.433 89.875C125.433 87.4167 126.558 84.8333 128.808 82.125C131.099 79.375 133.891 77.125 137.183 75.375C144.516 71.4167 151.058 69.4375 156.808 69.4375C158.183 69.4375 159.578 69.7708 160.995 70.4375C162.412 71.1042 163.12 72.0417 163.12 73.25ZM234.125 26.3125C234.917 26.3125 235.542 26.5625 236 27.0625C236.458 27.5625 236.688 28.0833 236.688 28.625C236.688 29.125 236.271 30.0833 235.438 31.5C234.646 32.875 232.792 35.9167 229.875 40.625C226.958 45.2917 224.688 48.9583 223.062 51.625C213.604 67 206.188 80 200.812 90.625C195.438 101.25 192.75 107.667 192.75 109.875V110.375C192.75 112.083 193.375 112.938 194.625 112.938C195.875 112.938 197.375 112.354 199.125 111.188C200.917 110.021 202.479 108.771 203.812 107.438C205.146 106.104 206.479 104.729 207.812 103.312C209.188 101.854 210.021 101 210.312 100.75C210.604 100.5 210.979 100.375 211.438 100.375C212.146 100.375 212.604 100.833 212.812 101.75C213.021 102.625 213.125 103.875 213.125 105.5C213.125 107.083 213 108.125 212.75 108.625C211.542 110.958 208.875 113.812 204.75 117.188C200.667 120.521 196.792 122.188 193.125 122.188C186.875 122.188 183.75 119.542 183.75 114.25C183.75 110.958 185 106.646 187.5 101.312C184.125 105.688 180.688 109.417 177.188 112.5C170.688 118.167 165.042 121 160.25 121C157.583 121 155.604 120.062 154.312 118.188C153.062 116.312 152.438 113.625 152.438 110.125C152.438 106.583 153.812 102.354 156.562 97.4375C159.312 92.5208 162.729 88.1042 166.812 84.1875C170.938 80.2292 175.5 76.9375 180.5 74.3125C185.5 71.6458 190.104 70.3125 194.312 70.3125C195.646 70.3125 197.208 71.125 199 72.75C200.208 70.8333 202.438 67 205.688 61.25C215.896 44.0417 222.646 33.5417 225.938 29.75C227.688 27.4583 230.417 26.3125 234.125 26.3125ZM195.188 78.625C189.188 79.9583 183.604 82.75 178.438 87C173.271 91.25 169.396 95.7083 166.812 100.375C164.229 105 162.938 108 162.938 109.375C162.938 110.75 163.229 111.438 163.812 111.438C166.312 111.438 172.5 105.854 182.375 94.6875C187.292 89.1875 191.562 83.8333 195.188 78.625ZM243.943 51.375C243.943 53.75 242.838 56.1458 240.63 58.5625C238.422 60.9375 236.109 62.125 233.693 62.125C231.318 62.125 230.13 60.875 230.13 58.375C230.13 55.875 231.172 53.5 233.255 51.25C235.38 48.9583 237.713 47.8125 240.255 47.8125C241.38 47.8125 242.276 48.125 242.943 48.75C243.609 49.375 243.943 50.25 243.943 51.375ZM233.818 105.938C233.818 107.188 233.693 108.083 233.443 108.625C231.401 112.792 228.151 116.167 223.693 118.75C219.234 121.292 215.359 122.562 212.068 122.562C208.776 122.562 205.943 121.458 203.568 119.25C201.193 117.042 200.005 114.792 200.005 112.5C200.005 110.208 201.151 106.875 203.443 102.5C205.734 98.125 208.026 94.0833 210.318 90.375C212.609 86.6667 213.755 84.6667 213.755 84.375C213.755 84.0417 213.318 83.4167 212.443 82.5C211.609 81.5833 211.193 80.9167 211.193 80.5C211.193 80.0417 212.047 78.8958 213.755 77.0625C215.505 75.1875 217.609 73.3542 220.068 71.5625C222.568 69.7292 224.463 68.8125 225.755 68.8125C227.088 68.8125 228.276 69.3958 229.318 70.5625C230.359 71.7292 230.88 72.7917 230.88 73.75C230.88 74.7083 225.922 83.7292 216.005 100.812C215.88 101.062 215.526 101.625 214.943 102.5C214.401 103.333 213.963 104.042 213.63 104.625C213.338 105.167 212.984 105.833 212.568 106.625C211.734 108.292 211.318 109.688 211.318 110.812C211.318 112.229 212.276 112.938 214.193 112.938C216.109 112.938 218.088 112.292 220.13 111C222.213 109.667 224.005 108.208 225.505 106.625C229.422 102.417 231.651 100.312 232.193 100.312C233.276 100.312 233.818 102.188 233.818 105.938ZM256.76 110.375C256.76 112.208 258.01 113.125 260.51 113.125C261.843 113.125 263.51 112.458 265.51 111.125C267.552 109.792 269.385 108.333 271.01 106.75C275.343 102.458 277.802 100.312 278.385 100.312C279.468 100.312 280.01 101.875 280.01 105C280.01 108.125 279.031 110.271 277.072 111.438C271.114 116.812 266.51 120.083 263.26 121.25C261.427 121.875 259.406 122.167 257.197 122.125C254.989 122.083 252.802 121.125 250.635 119.25C248.468 117.375 247.385 115.104 247.385 112.438C247.385 109.729 248.093 106.667 249.51 103.25C250.927 99.8333 252.364 96.9167 253.822 94.5C255.322 92.0417 257.156 89.2083 259.322 86C261.489 82.75 262.635 80.7292 262.76 79.9375L262.635 79.8125C261.26 79.9375 257.843 82.6458 252.385 87.9375C246.968 93.2292 242.489 97.8333 238.947 101.75C235.406 105.667 231.177 110.896 226.26 117.438C224.885 119.229 223.76 120.125 222.885 120.125C222.01 120.125 220.843 119.854 219.385 119.312C217.885 118.729 216.968 118.312 216.635 118.062C216.302 117.812 216.135 117.438 216.135 116.938C216.135 116.438 216.281 115.833 216.572 115.125C216.864 114.375 217.156 113.771 217.447 113.312C217.697 112.812 218.135 112.062 218.76 111.062C219.385 110.062 220.614 107.958 222.447 104.75C224.322 101.5 227.177 96.6667 231.01 90.25C234.843 83.8333 237.135 79.9583 237.885 78.625C239.468 75.875 240.76 73.875 241.76 72.625C243.635 70.25 246.802 69.0625 251.26 69.0625C252.26 69.0625 252.76 69.6875 252.76 70.9375C252.76 72.8958 250.947 76.5833 247.322 82L244.697 85.9375C251.906 77.9375 257.989 72.875 262.947 70.75C265.364 69.7083 267.531 69.1875 269.447 69.1875C271.406 69.1875 272.947 69.7083 274.072 70.75C275.239 71.7917 275.822 72.9583 275.822 74.25C275.822 75.5 275.385 77.0208 274.51 78.8125C273.635 80.5625 272.739 82.1458 271.822 83.5625C270.947 84.9375 269.781 86.6875 268.322 88.8125C266.864 90.9375 266.072 92.1042 265.947 92.3125C265.822 92.4792 265.489 92.9792 264.947 93.8125C264.447 94.6042 264.072 95.1875 263.822 95.5625C263.572 95.9375 263.156 96.6042 262.572 97.5625C261.989 98.4792 261.51 99.25 261.135 99.875C260.802 100.5 260.364 101.271 259.822 102.188C259.322 103.104 258.906 103.896 258.572 104.562C258.281 105.229 257.968 105.958 257.635 106.75C257.052 108.208 256.76 109.417 256.76 110.375ZM288.453 78.5C292.494 75.7083 296.453 73.5625 300.328 72.0625C304.203 70.5625 307.557 69.8125 310.39 69.8125C313.223 69.8125 315.036 70.625 315.828 72.25C317.453 70.375 319.473 69.375 321.89 69.25C322.598 69.2083 323.473 69.1875 324.515 69.1875C325.557 69.1875 326.203 69.3333 326.453 69.625C326.703 69.875 326.932 70.375 327.14 71.125C327.348 71.875 327.473 72.2917 327.515 72.375C327.557 72.4583 327.578 72.6042 327.578 72.8125C327.578 72.9792 327.473 73.2083 327.265 73.5C327.057 73.75 326.807 74 326.515 74.25C326.265 74.5 326.119 74.6458 326.078 74.6875C316.869 87.8958 307.453 102.958 297.828 119.875C307.744 111.083 316.619 104.771 324.453 100.938C324.953 100.688 325.432 100.562 325.89 100.562C326.557 100.562 326.994 101 327.203 101.875C327.411 102.708 327.515 103.917 327.515 105.5C327.515 107.083 327.411 108.062 327.203 108.438C327.036 108.812 326.078 109.562 324.328 110.688C322.578 111.812 320.307 113.271 317.515 115.062C314.723 116.854 311.765 118.833 308.64 121C301.14 126.208 294.973 131.688 290.14 137.438C283.89 144.979 279.411 151.062 276.703 155.688C275.703 157.479 274.015 158.375 271.64 158.375C266.932 158.375 264.578 156.146 264.578 151.688C264.578 147.146 266.807 142.5 271.265 137.75C274.598 134.208 277.661 131.312 280.453 129.062C283.244 126.812 284.765 125.542 285.015 125.25C288.098 120.625 292.286 114.062 297.578 105.562C293.078 110.271 288.703 114.021 284.453 116.812C280.244 119.604 277.098 121 275.015 121C268.64 121 265.453 118.271 265.453 112.812C265.453 108.479 266.557 104.104 268.765 99.6875C270.973 95.2708 273.807 91.3333 277.265 87.875C280.723 84.375 284.453 81.25 288.453 78.5ZM312.265 76.875C307.432 77.9167 302.89 79.6458 298.64 82.0625C294.39 84.4375 290.89 87 288.14 89.75C285.39 92.4583 283.015 95.25 281.015 98.125C277.265 103.5 275.39 107.667 275.39 110.625C275.39 111.333 275.557 111.688 275.89 111.688C276.265 111.688 277.057 111.312 278.265 110.562C279.515 109.812 281.265 108.542 283.515 106.75C285.765 104.917 288.265 102.75 291.015 100.25C297.39 94.375 304.473 86.5833 312.265 76.875Z" fill="url(#paint0_linear_6276_69885)" fill-opacity="0.75"/>
</g>
<path d="M150.845 146.112C153.168 146.112 155.057 145.349 156.513 143.824C157.969 142.299 158.697 140.34 158.697 137.948C158.697 135.556 157.952 133.597 156.461 132.072C155.005 130.547 153.116 129.784 150.793 129.784H140.185L140.237 146.112H150.845ZM136.493 126.456H150.949C153.168 126.456 155.127 126.941 156.825 127.912C158.559 128.883 159.911 130.252 160.881 132.02C161.852 133.753 162.337 135.729 162.337 137.948C162.337 140.167 161.852 142.16 160.881 143.928C159.911 145.661 158.559 147.013 156.825 147.984C155.127 148.955 153.168 149.44 150.949 149.44H140.237V164H136.493V126.456ZM169.876 143.096C170.604 141.397 171.835 140.011 173.568 138.936C175.336 137.827 177.243 137.272 179.288 137.272V140.912C177.659 140.912 176.116 141.345 174.66 142.212C173.204 143.079 172.043 144.24 171.176 145.696C170.31 147.152 169.876 148.712 169.876 150.376V164H166.132V137.532H169.876V143.096ZM192.971 160.88C194.669 160.88 196.195 160.464 197.547 159.632C198.899 158.765 199.956 157.569 200.719 156.044C201.481 154.484 201.863 152.733 201.863 150.792C201.863 148.851 201.481 147.117 200.719 145.592C199.956 144.032 198.899 142.836 197.547 142.004C196.195 141.137 194.669 140.704 192.971 140.704C191.272 140.704 189.747 141.137 188.395 142.004C187.043 142.836 185.985 144.032 185.223 145.592C184.495 147.117 184.131 148.851 184.131 150.792C184.131 152.733 184.495 154.484 185.223 156.044C185.985 157.569 187.043 158.765 188.395 159.632C189.747 160.464 191.272 160.88 192.971 160.88ZM180.387 150.792C180.387 148.192 180.924 145.887 181.999 143.876C183.073 141.831 184.564 140.236 186.471 139.092C188.377 137.948 190.544 137.376 192.971 137.376C195.432 137.376 197.616 137.948 199.523 139.092C201.429 140.236 202.92 141.831 203.995 143.876C205.069 145.887 205.607 148.192 205.607 150.792C205.607 153.392 205.069 155.715 203.995 157.76C202.92 159.771 201.429 161.348 199.523 162.492C197.616 163.636 195.432 164.208 192.971 164.208C190.544 164.208 188.377 163.636 186.471 162.492C184.564 161.348 183.073 159.771 181.999 157.76C180.924 155.715 180.387 153.392 180.387 150.792ZM221.158 161.036C222.752 161.036 224.226 160.585 225.578 159.684C226.964 158.748 228.039 157.517 228.802 155.992C229.599 154.432 229.998 152.768 229.998 151C229.998 149.267 229.599 147.637 228.802 146.112C228.004 144.587 226.93 143.373 225.578 142.472C224.226 141.536 222.752 141.068 221.158 141.068C219.459 141.068 217.934 141.501 216.582 142.368C215.23 143.2 214.172 144.379 213.41 145.904C212.647 147.395 212.266 149.093 212.266 151C212.266 152.941 212.647 154.675 213.41 156.2C214.172 157.725 215.23 158.921 216.582 159.788C217.934 160.62 219.459 161.036 221.158 161.036ZM208.522 151C208.522 148.435 209.059 146.147 210.134 144.136C211.208 142.125 212.699 140.565 214.606 139.456C216.512 138.312 218.679 137.74 221.106 137.74C223.082 137.74 224.85 138.225 226.41 139.196C228.004 140.167 229.2 141.501 229.998 143.2V137.532H233.742V162.7C233.707 165.265 233.152 167.553 232.078 169.564C231.003 171.575 229.495 173.135 227.554 174.244C225.647 175.353 223.411 175.908 220.846 175.908C218.696 175.908 216.703 175.405 214.866 174.4C213.063 173.429 211.503 171.956 210.186 169.98L213.254 168.108C214.19 169.599 215.299 170.708 216.582 171.436C217.899 172.199 219.32 172.58 220.846 172.58C223.619 172.58 225.82 171.661 227.45 169.824C229.114 167.987 229.963 165.595 229.998 162.648V158.696C229.096 160.325 227.814 161.677 226.15 162.752C224.486 163.827 222.804 164.364 221.106 164.364C218.679 164.364 216.512 163.809 214.606 162.7C212.699 161.556 211.208 159.979 210.134 157.968C209.059 155.923 208.522 153.6 208.522 151ZM242.703 143.096C243.431 141.397 244.661 140.011 246.395 138.936C248.163 137.827 250.069 137.272 252.115 137.272V140.912C250.485 140.912 248.943 141.345 247.487 142.212C246.031 143.079 244.869 144.24 244.003 145.696C243.136 147.152 242.703 148.712 242.703 150.376V164H238.959V137.532H242.703V143.096ZM265.849 161.036C267.409 161.036 268.865 160.603 270.217 159.736C271.604 158.869 272.713 157.673 273.545 156.148C274.377 154.588 274.793 152.872 274.793 151C274.793 149.128 274.377 147.429 273.545 145.904C272.713 144.379 271.604 143.183 270.217 142.316C268.865 141.449 267.409 141.016 265.849 141.016C264.151 141.016 262.625 141.449 261.273 142.316C259.921 143.148 258.864 144.327 258.101 145.852C257.339 147.343 256.957 149.059 256.957 151C256.957 152.941 257.339 154.675 258.101 156.2C258.864 157.725 259.921 158.921 261.273 159.788C262.625 160.62 264.151 161.036 265.849 161.036ZM253.213 151C253.213 148.435 253.751 146.147 254.825 144.136C255.9 142.091 257.391 140.513 259.297 139.404C261.204 138.26 263.371 137.688 265.797 137.688C267.427 137.688 269.021 138.139 270.581 139.04C272.176 139.941 273.545 141.311 274.689 143.148V137.532H278.433V164H274.689V158.8C273.511 160.741 272.141 162.163 270.581 163.064C269.056 163.931 267.461 164.364 265.797 164.364C263.371 164.364 261.204 163.809 259.297 162.7C257.391 161.556 255.9 159.979 254.825 157.968C253.751 155.923 253.213 153.6 253.213 151ZM317.372 147.776C317.372 145.731 316.783 144.067 315.604 142.784C314.46 141.501 312.987 140.86 311.184 140.86C309.069 140.86 307.336 141.467 305.984 142.68C304.667 143.859 304.008 145.384 304.008 147.256V164H300.264V147.776C300.264 145.731 299.692 144.067 298.548 142.784C297.439 141.501 295.983 140.86 294.18 140.86C292.793 140.86 291.545 141.224 290.436 141.952C289.361 142.645 288.512 143.564 287.888 144.708C287.264 145.852 286.952 147.083 286.952 148.4V164H283.208V137.532H286.952V142.056C287.715 140.739 288.772 139.664 290.124 138.832C291.476 137.965 292.828 137.532 294.18 137.532C295.913 137.532 297.56 138.035 299.12 139.04C300.68 140.011 301.807 141.276 302.5 142.836C303.297 141.276 304.511 140.011 306.14 139.04C307.769 138.035 309.451 137.532 311.184 137.532C313.091 137.532 314.789 137.948 316.28 138.78C317.805 139.612 318.984 140.773 319.816 142.264C320.683 143.755 321.116 145.453 321.116 147.36V164H317.372V147.776Z" fill="#1B1E24"/>
<defs>
<filter id="filter0_b_6276_69885" x="-0.952515" y="16.3125" width="338.53" height="152.062" filterUnits="userSpaceOnUse" color-interpolation-filters="sRGB">
<feFlood flood-opacity="0" result="BackgroundImageFix"/>
<feGaussianBlur in="BackgroundImageFix" stdDeviation="5"/>
<feComposite in2="SourceAlpha" operator="in" result="effect1_backgroundBlur_6276_69885"/>
<feBlend mode="normal" in="SourceGraphic" in2="effect1_backgroundBlur_6276_69885" result="shape"/>
</filter>
<linearGradient id="paint0_linear_6276_69885" x1="159.5" y1="0" x2="159.5" y2="154" gradientUnits="userSpaceOnUse">
<stop offset="0.078307" stop-color="#00B5B0"/>
<stop offset="0.947855" stop-color="#1CBEB9"/>
</linearGradient>
</defs>
</svg>
