<svg width="17" height="17" viewBox="0 0 17 17" fill="none" xmlns="http://www.w3.org/2000/svg">
<path d="M9.47974 0.770125V4.37068C9.47974 4.77074 9.12584 5.16055 8.71039 5.14003C8.29494 5.11951 7.94104 4.80152 7.94104 4.37068V0.770125C7.94104 0.370063 8.29494 -0.0197403 8.71039 0.000775717C9.12584 0.0212917 9.47974 0.339289 9.47974 0.770125Z" fill="#CED3D8"/>
<path d="M15.5365 9.53991L12.5668 9.48349C12.1668 9.47836 11.777 9.13472 11.7975 8.71414C11.818 8.29357 12.136 7.93454 12.5668 7.94479L15.5365 8.00121C15.9366 8.00634 16.3264 8.34999 16.3059 8.77056C16.2853 9.19114 15.9674 9.55017 15.5365 9.53991Z" fill="#CED3D8"/>
<path d="M3.73976 9.53991L0.770074 9.48349C0.370012 9.47836 -0.0197911 9.13472 0.000724792 8.71414C0.0212407 8.29357 0.339238 7.93454 0.770074 7.94479L3.73976 8.00121C4.13982 8.00634 4.52963 8.34999 4.50911 8.77056C4.4886 9.19114 4.1706 9.55017 3.73976 9.53991Z" fill="#CED3D8"/>
<path d="M9.22888 12.5668C9.22888 13.6131 9.11091 14.6543 9.14169 15.7006C9.15195 16.1058 8.77753 16.4904 8.37234 16.4699C7.96715 16.4494 7.61325 16.1314 7.60299 15.7006C7.57222 14.6543 7.69018 13.6131 7.69018 12.5668C7.69018 12.1667 8.04408 11.7769 8.45953 11.7974C8.87498 11.8179 9.22888 12.1359 9.22888 12.5668Z" fill="#CED3D8"/>
</svg>
