<svg width="228" height="386" viewBox="0 0 228 386" fill="none" xmlns="http://www.w3.org/2000/svg">
<path d="M82.7895 240.478L74.8855 240.374V210.318L67.0855 213.49L64.5375 206.522L74.9375 202.206H82.7895V240.478ZM97.8988 243.65H89.9428L101.383 199.346H109.287L97.8988 243.65ZM136.138 226.698C136.138 221.706 134.076 219.21 129.95 219.21C128.321 219.245 126.934 219.938 125.79 221.29C124.646 222.608 124.109 224.41 124.178 226.698V241.05H116.274V212.71H124.178V217.39C124.837 216.108 125.894 215.05 127.35 214.218C128.806 213.352 130.297 212.918 131.822 212.918C133.486 212.918 135.237 213.3 137.074 214.062C138.946 214.79 140.576 216.194 141.962 218.274C143.349 220.32 144.042 223.128 144.042 226.698V241.05H136.138V226.698Z" fill="#E6E9EC"/>
<path d="M166.33 100.224C162.507 104.169 156.112 105.956 151.745 106.759C123.799 111.949 95.2226 112.511 67.1385 108.415C66.2668 106.99 65.9906 104.862 66.6034 103.195C67.6391 100.405 70.1161 98.7786 72.455 97.4235C87.4464 88.7404 103.758 83.1691 120.381 80.8603C130.082 79.5152 169.04 76.1022 169.342 94.6328C169.377 96.9215 167.806 98.7083 166.33 100.224Z" fill="#1B1E24"/>
<path fill-rule="evenodd" clip-rule="evenodd" d="M152.546 36.4014C151.947 36.0615 150.15 35.9542 146.449 35.9899C139.754 36.0615 135.123 36.625 132.915 37.5999C131.386 38.2707 131.234 38.4228 131.717 38.9058C132.575 39.7644 136.392 39.9523 143.759 39.505C148.81 39.2099 150.785 38.9415 151.795 38.4585C153.44 37.6357 153.664 37.0364 152.546 36.4014Z" fill="#00B5B0"/>
<path fill-rule="evenodd" clip-rule="evenodd" d="M138.483 7.67188C137.401 7.67188 135.229 9.46968 130.294 14.4427C125.735 19.0848 124.045 21.5176 124.912 22.3763C125.207 22.6714 125.663 22.5999 126.405 22.2242C128.05 21.4371 135.676 14.1833 137.544 11.6342C139.261 9.31763 139.636 7.67188 138.483 7.67188Z" fill="#00B5B0"/>
<path fill-rule="evenodd" clip-rule="evenodd" d="M110.1 2.24296C109.984 1.8673 109.653 1.12491 109.349 0.668756C108.786 -0.154118 108.714 -0.189889 108.08 0.409378C107.034 1.34853 106.846 3.85292 107.329 10.0603C107.999 19.0045 108.115 19.6754 108.75 19.899C110.136 20.4267 110.359 19.0761 110.324 10.8831C110.288 6.54516 110.172 2.65439 110.1 2.24296Z" fill="#00B5B0"/>
<path fill-rule="evenodd" clip-rule="evenodd" d="M90.4695 19.3443C89.4593 17.5465 82.7634 9.98862 80.7878 8.37865C80.0368 7.77938 78.9551 7.29639 78.4277 7.29639C77.0063 7.29639 77.1582 8.82586 78.7227 10.9993C80.6269 13.5842 87.9217 20.5429 89.3431 21.0974C91.1042 21.8487 91.4707 21.2495 90.4605 19.3354L90.4695 19.3443Z" fill="#00B5B0"/>
<path fill-rule="evenodd" clip-rule="evenodd" d="M79.0616 37.5639C77.9441 36.5532 77.6402 36.4817 73.3044 35.9182C65.1872 34.8359 59.877 35.3547 59.877 37.1883C59.877 38.6462 61.0391 38.834 72.625 39.2812C77.524 39.4691 78.1587 39.4333 78.9096 38.834C79.7321 38.1632 79.7321 38.1274 79.0616 37.5639Z" fill="#00B5B0"/>
<path d="M135.527 96.7574C131.88 102.187 124.685 103.826 118.177 104.391C108.743 105.189 98.6763 104.99 89.4524 102.707C87.346 102.187 85.2063 101.5 83.5544 100.092C77.2241 94.6854 79.0866 83.6166 81.3371 76.8579C84.5633 67.1962 89.5411 58.1439 95.9823 50.2439C96.1375 50.0445 96.3038 49.8562 96.459 49.6567C97.2572 50.0113 98.1996 50.2218 99.0643 50.3326C104.197 51.0085 109.497 51.0195 114.463 49.5238C115.128 49.3243 115.816 49.0916 116.348 48.6484C116.348 48.6706 116.37 48.6817 116.392 48.7039C119.84 53.7563 124.907 59.1189 128.1 64.1271C131.98 70.2099 135.938 76.4701 137.379 83.5501C138.299 88.0264 138.066 92.9791 135.527 96.7795V96.7574Z" fill="white"/>
<path d="M134.096 95.9262C130.404 101.244 123.154 102.352 117.167 102.818C109.096 103.438 100.859 103.35 92.888 101.776C89.4512 101.1 85.6043 100.414 83.3315 97.4773C81.7129 95.3832 81.0699 92.6798 80.9258 90.0871C80.5932 84.1039 82.4224 78.2426 84.6065 72.7581C87.7661 64.836 92.2228 57.4124 97.633 50.831L96.0144 51.2631C97.633 51.9168 99.3957 52.0719 101.125 52.227C103.021 52.4043 104.928 52.4708 106.824 52.4043C108.719 52.3378 110.56 52.1163 112.4 51.7506C114.019 51.4293 115.826 51.0637 117.189 50.0886L115.172 49.8338C116.513 51.4404 117.666 53.2464 118.963 54.8862C120.416 56.7033 121.901 58.4983 123.331 60.3375C126.07 63.8499 128.464 67.6392 130.682 71.495C134.684 78.4753 138.963 88.3475 134.085 95.9483C132.921 97.7543 135.803 99.4274 136.956 97.6214C142.222 89.4112 138.542 78.8742 134.285 71.1072C131.956 66.8747 129.351 62.7308 126.402 58.8971C124.894 56.9471 123.331 55.0413 121.79 53.1134C120.249 51.1855 119.03 49.2798 117.522 47.4738C117.09 46.953 116.059 46.8201 115.504 47.2189C114.307 48.0721 112.677 48.3269 111.258 48.5928C109.628 48.9031 107.966 49.0582 106.303 49.0914C103.276 49.169 99.7283 49.2022 96.8902 48.0499C96.3913 47.8505 95.6042 48.0721 95.2716 48.482C89.9723 54.9195 85.571 62.0106 82.3005 69.6779C79.6508 75.8715 77.3892 82.5306 77.5555 89.3558C77.6331 92.4471 78.2429 95.6381 79.8726 98.3083C81.8459 101.544 84.9501 103.272 88.5421 104.203C97.1563 106.452 106.258 106.807 115.105 106.286C123.021 105.809 132.056 104.646 136.945 97.6103C138.165 95.8486 135.282 94.1866 134.074 95.9372L134.096 95.9262Z" fill="#1B1E24"/>
<path d="M118.31 35.175C117.667 39.4075 117.035 43.629 116.403 47.8615C116.381 47.8393 116.37 47.8172 116.359 47.795C115.826 48.4044 115.15 48.7368 114.474 49.0138C109.507 51.0968 104.208 51.0857 99.0749 50.1439C98.1991 49.9888 97.2678 49.7007 96.4696 49.2021C96.3033 49.4791 96.1481 49.7562 95.9929 50.0221C94.5517 46.0111 93.4208 41.6678 92.667 37.1805C92.545 36.4381 92.4563 35.5517 92.7667 34.9977C93.0439 34.5324 93.4985 34.5545 93.8865 34.6653C96.9463 35.4963 99.3964 39.2192 101.658 42.7758C102.922 37.9893 104.662 32.8039 107.689 31.4522C107.933 31.3414 108.221 31.2638 108.454 31.4632C108.676 31.6405 108.809 32.0505 108.909 32.4272C109.407 34.2775 109.596 36.3495 109.452 38.3549C110.682 34.6764 112.501 31.5408 114.662 29.3581C115.538 28.4717 116.669 27.7404 117.567 28.5714C118.842 29.7237 118.665 32.815 118.31 35.1639V35.175Z" fill="white"/>
<path d="M116.703 34.743C116.06 38.9755 115.428 43.208 114.796 47.4295L117.834 47.0306L117.789 46.9641C117.246 46.0556 115.938 45.8561 115.173 46.6317C114.164 47.6511 112.49 48.0389 111.149 48.3934C109.585 48.8034 107.989 49.025 106.381 49.0804C104.851 49.1358 103.322 49.0693 101.803 48.892C100.284 48.7147 98.6542 48.5486 97.3016 47.773C96.5256 47.3298 95.4835 47.5846 95.0289 48.3713C94.8626 48.6483 94.7074 48.9142 94.5522 49.1912L97.5899 49.59C96.8028 47.3852 96.1154 45.1581 95.55 42.8867C95.0289 40.8148 94.3416 38.5545 94.2307 36.405C94.2085 36.1834 94.2085 35.9618 94.2418 35.7402C93.3549 36.0283 93.1442 36.2166 93.5988 36.3163C93.7207 36.4715 94.3859 36.6598 94.5744 36.7706C95.3061 37.2138 95.9159 37.801 96.4923 38.4215C97.9447 39.9838 99.0755 41.823 100.217 43.6069C100.971 44.7925 102.878 44.6373 103.255 43.208C104.009 40.3716 104.796 37.4022 106.392 34.8981C106.692 34.4217 107.024 33.9785 107.446 33.5907C107.612 33.4356 107.889 33.2915 108.022 33.1364L108.266 33.0034C107.457 32.5824 107.146 32.6046 107.346 33.081C107.302 33.3802 107.523 33.8566 107.59 34.1779C107.667 34.6322 107.734 35.0975 107.767 35.5629C107.845 36.4936 107.834 37.4243 107.778 38.355C107.667 40.3162 110.461 40.4935 111.049 38.7982C112.002 36.0172 113.344 33.2805 115.328 31.0756C115.639 30.721 116.215 29.9343 116.725 29.8678C116.348 29.9232 116.592 29.7016 116.647 30.1227C116.67 30.3554 116.792 30.588 116.836 30.8207C117.058 32.0838 116.902 33.4688 116.725 34.7208C116.592 35.6183 116.947 36.4936 117.889 36.7706C118.665 36.9922 119.807 36.4936 119.94 35.6072C120.228 33.6018 120.517 31.4412 119.94 29.469C119.364 27.4967 117.634 25.9899 115.517 26.7876C113.599 27.5078 112.146 29.5908 111.049 31.2307C109.674 33.2915 108.665 35.574 107.856 37.9118L111.126 38.355C111.248 36.0947 111.259 33.0921 110.162 31.0423C109.064 28.9925 106.781 29.7792 105.339 31.0423C102.246 33.7569 101.093 38.5102 100.073 42.3216L103.111 41.9228C101.659 39.6403 100.173 37.247 98.1886 35.3745C96.7473 34.0117 93.7762 31.829 91.8471 33.5464C90.8715 34.4217 90.8383 35.8067 90.9935 37.0033C91.182 38.488 91.4924 39.9616 91.8139 41.4131C92.4902 44.4822 93.3549 47.4959 94.4081 50.4432C94.8737 51.7395 96.6919 52.1495 97.4458 50.8421C97.601 50.5651 97.7562 50.2881 97.9225 50.0222L95.6498 50.6205C97.2795 51.5623 99.0755 51.8393 100.916 52.083C102.889 52.3379 104.874 52.4708 106.858 52.36C108.843 52.2492 110.827 51.9501 112.723 51.385C114.441 50.8753 116.27 50.2549 117.545 48.9474L114.929 48.615L114.973 48.6815C115.639 49.8006 117.789 49.7673 118.011 48.2826C118.643 44.0501 119.275 39.8176 119.918 35.5962C120.051 34.6987 119.696 33.8234 118.754 33.5464C117.967 33.3248 116.847 33.8234 116.703 34.7098V34.743Z" fill="#1B1E24"/>
<path d="M73.0142 71.2584C67.355 71.6968 61.992 75.0289 59.0966 79.9175C55.6309 85.7707 55.9051 93.52 59.3927 99.3732C60.6211 101.423 62.2223 103.275 64.1964 104.623C65.677 105.632 67.355 106.344 69.066 106.892C73.1787 108.219 77.7411 108.613 81.7881 107.079C83.6196 106.377 85.2867 105.303 86.8879 104.152C88.5879 102.924 90.2439 101.598 91.5819 99.976C94.6638 96.2493 95.8702 91.1086 94.9818 86.3625C94.0935 81.6164 91.1652 77.3198 87.195 74.5686C83.2248 71.8064 77.6753 70.9186 72.8497 71.2584H73.0252H73.0142Z" fill="white"/>
<path d="M73.0147 69.6144C64.9318 70.3378 57.803 75.9279 55.6863 83.8527C53.5696 91.7774 56.4102 101.313 63.3635 106.038C67.0375 108.537 71.9838 109.786 76.4037 109.709C81.1854 109.633 85.1556 107.55 88.8735 104.7C92.3612 102.026 95.0591 98.7047 96.2327 94.408C97.3294 90.3963 97.0333 86.0996 95.432 82.2633C93.7211 78.1639 90.6283 74.5249 86.7349 72.3437C82.5563 70.009 77.5552 69.3075 72.8393 69.6035C70.7445 69.735 70.7006 72.8479 72.8393 72.8917H73.0147C75.1314 72.9356 75.1314 69.6473 73.0147 69.6035H72.8393V72.8917C79.9681 72.4423 87.0639 74.6126 91.0451 80.8932C94.7959 86.8121 94.445 94.7697 89.4329 99.8775C86.8007 102.574 83.2254 105.161 79.5184 106.038C75.8114 106.914 71.6767 106.191 68.1123 104.799C61.3016 102.146 57.792 94.7149 58.3404 87.678C58.9436 79.9177 65.2608 73.5823 73.0147 72.8808C75.1095 72.6944 75.1314 69.4062 73.0147 69.5925V69.6144Z" fill="#1B1E24"/>
<path d="M67.9477 100.577C68.26 94.7261 69.1855 88.7746 71.2485 83.2714L68.1931 83.6748C70.7579 88.6289 73.3561 93.5717 75.921 98.5369C76.9134 100.454 79.8016 98.7611 78.8092 96.8445C76.2443 91.8904 73.6461 86.9476 71.0813 81.9824C70.3564 80.5926 68.4942 81.1306 68.0258 82.3859C65.8624 88.1469 64.9257 94.4459 64.6023 100.577C64.4908 102.74 67.8362 102.729 67.9477 100.577Z" fill="#1B1E24"/>
<path d="M78.0183 99.2096C79.3341 98.694 80.6389 98.1224 81.9436 97.5732C82.9806 97.1361 83.8504 96.3403 83.8393 95.1186C83.8393 94.0763 83.081 93.0451 82.6349 92.1372C80.65 88.0911 78.9327 83.9104 77.2934 79.7074L76.1226 81.7809C78.1856 80.9627 80.1705 79.9988 82.345 79.472C84.5195 78.9452 83.5494 75.7172 81.4529 76.2328C79.3564 76.7484 77.2934 77.7235 75.2304 78.5417C74.461 78.8443 73.7027 79.6961 74.0596 80.6152C75.0632 83.1931 76.1003 85.7598 77.1931 88.2928C77.7172 89.5145 78.2525 90.725 78.8212 91.9243C79.1223 92.5744 79.4234 93.2132 79.7356 93.8521C79.8917 94.1659 80.0478 94.4797 80.204 94.7936L80.3601 95.1074C80.5385 95.5333 80.5719 95.5221 80.4716 95.0514L80.9065 94.3116C80.5608 94.7487 79.5572 94.9729 79.0331 95.1859C78.3974 95.4549 77.7618 95.7351 77.115 95.9816C76.2787 96.3067 75.6877 97.1137 75.9441 98.0552C76.1672 98.8622 77.1596 99.5571 78.0071 99.232L78.0183 99.2096Z" fill="#1B1E24"/>
<path d="M83.8041 82.9017C81.9976 83.6079 80.191 84.3252 78.3845 85.0313C77.9608 85.1994 77.6151 85.4012 77.3809 85.8047C77.169 86.1633 77.0798 86.7013 77.2136 87.1048C77.3475 87.5083 77.5928 87.9006 77.9831 88.1136C78.3734 88.3265 78.864 88.4498 79.2766 88.2817C81.0832 87.5756 82.8897 86.8582 84.6962 86.1521C85.1199 85.984 85.4656 85.7823 85.6998 85.3788C85.9117 85.0201 86.0009 84.4821 85.8671 84.0786C85.7333 83.6751 85.4879 83.2828 85.0976 83.0699C84.7073 82.8569 84.2167 82.7336 83.8041 82.9017Z" fill="#1B1E24"/>
<path d="M73.5578 89.6265C71.3386 90.3886 69.2087 91.4198 66.9785 92.182C66.1533 92.4622 65.5176 93.3476 65.8076 94.2555C66.0752 95.0737 66.9785 95.735 67.8706 95.4323C70.0897 94.6702 72.2196 93.639 74.4499 92.8769C75.2751 92.5967 75.9107 91.7112 75.6208 90.8034C75.3531 89.9852 74.4499 89.3239 73.5578 89.6265Z" fill="#1B1E24"/>
<path d="M96.4113 94.1772C96.3443 96.7215 96.4559 99.277 96.7681 101.81C96.8685 102.583 97.0023 103.402 97.5375 103.951C98.1174 104.545 99.0318 104.556 99.8347 104.735C104.106 105.688 107.094 105.632 111.02 105.486C113.774 105.385 117.209 104.702 119.662 103.446C120.041 103.256 120.42 103.021 120.632 102.651C120.855 102.258 120.844 101.788 120.844 101.339C120.788 98.6269 120.721 95.9033 120.665 93.1909" fill="white"/>
<path d="M94.7385 94.177C94.6828 96.5644 94.772 98.9517 95.0396 101.328C95.2403 103.088 95.5414 104.881 97.2699 105.777C98.1843 106.259 99.3329 106.349 100.325 106.54C101.318 106.73 102.344 106.887 103.359 107.01C105.277 107.235 107.206 107.268 109.135 107.212C112.971 107.122 116.874 106.708 120.353 104.959C122.338 103.962 122.55 102.381 122.505 100.353C122.45 97.9542 122.394 95.5556 122.338 93.1683C122.294 91.0051 118.948 91.0051 118.993 93.1683C119.037 95.0849 119.082 97.0015 119.127 98.9181C119.149 99.7027 119.338 100.711 119.182 101.485C119.104 101.888 119.205 101.698 118.97 101.899C118.759 102.079 118.424 102.18 118.168 102.292C115.302 103.513 112.202 103.771 109.135 103.85C106.068 103.928 102.912 103.592 99.7566 102.998C99.1433 102.886 98.8088 102.919 98.5634 102.337C98.2623 101.642 98.3181 100.633 98.2512 99.8932C98.0839 97.9878 98.0393 96.0712 98.0839 94.1658C98.1397 92.0026 94.7943 92.0026 94.7385 94.1658V94.177Z" fill="#1B1E24"/>
<path d="M96.0558 86.1743C95.9889 88.7186 96.1004 91.274 96.4126 93.8071C96.513 94.5805 96.6468 95.3986 97.1821 95.9478C97.7619 96.5419 98.6764 96.5531 99.4793 96.7324C103.75 97.6851 106.739 97.6291 110.664 97.4834C113.418 97.3825 116.853 96.6988 119.306 95.4435C119.686 95.2529 120.065 95.0176 120.277 94.6477C120.5 94.2554 120.488 93.7847 120.488 93.3363C120.433 90.624 120.366 87.9004 120.31 85.188" fill="white"/>
<path d="M94.383 86.1746C94.3273 88.5619 94.4165 90.9493 94.6841 93.3254C94.8849 95.0851 95.1859 96.8784 96.9144 97.7751C97.8288 98.257 98.9774 98.3467 99.9699 98.5372C100.962 98.7278 101.988 98.8847 103.003 99.008C104.921 99.2321 106.85 99.2657 108.779 99.2097C112.616 99.12 116.518 98.7053 119.998 96.9569C121.983 95.9593 122.195 94.379 122.15 92.3503C122.094 89.9517 122.038 87.5532 121.983 85.1658C121.938 83.0027 118.593 83.0027 118.637 85.1658C118.682 87.0824 118.726 88.999 118.771 90.9156C118.793 91.7002 118.983 92.709 118.827 93.4823C118.749 93.8858 118.849 93.6953 118.615 93.897C118.403 94.0764 118.069 94.1772 117.812 94.2893C114.946 95.511 111.846 95.7688 108.779 95.8472C105.713 95.9257 102.557 95.5895 99.4011 94.9954C98.7878 94.8833 98.4533 94.917 98.208 94.3341C97.9069 93.6392 97.9626 92.6305 97.8957 91.8908C97.7284 89.9854 97.6838 88.0688 97.7284 86.1634C97.7842 84.0002 94.4388 84.0002 94.383 86.1634V86.1746Z" fill="#1B1E24"/>
<path d="M95.1846 75.8518C95.0954 78.9452 95.2962 82.0499 95.7868 85.1097C95.8649 85.5805 95.9541 86.0849 96.2775 86.4435C96.6232 86.8358 97.1584 86.9703 97.6603 87.0824C104.451 88.6179 111.611 88.4386 118.313 86.5668C118.87 86.4099 119.439 86.2306 119.829 85.8047C120.32 85.2667 120.387 84.4709 120.42 83.7311C120.543 80.8955 120.532 78.0486 120.376 75.2241" fill="white"/>
<path d="M93.5131 75.8518C93.4574 78.1383 93.5354 80.4136 93.7919 82.6888C93.9926 84.527 93.9592 87.0376 95.7211 88.1472C97.3938 89.1896 99.9586 89.268 101.865 89.5034C103.984 89.7612 106.125 89.8509 108.255 89.7948C110.385 89.7388 112.504 89.5034 114.589 89.1448C116.451 88.8309 118.804 88.5731 120.421 87.5084C122.172 86.3539 122.105 84.1235 122.15 82.2517C122.206 79.9092 122.172 77.5779 122.049 75.2466C121.938 73.0946 118.593 73.0834 118.704 75.2466C118.793 77.0847 118.849 78.9229 118.827 80.7498C118.827 81.6689 118.793 82.588 118.76 83.507C118.726 84.2019 118.782 84.5382 118.202 84.8744C117.622 85.2107 116.674 85.2891 116.028 85.4348C115.18 85.6254 114.322 85.7935 113.474 85.9392C111.746 86.2306 110.006 86.3763 108.255 86.4324C104.798 86.5332 101.486 86.1073 98.1075 85.4797C97.3492 85.334 97.4384 84.9529 97.3269 84.1907C97.1819 83.2156 97.0816 82.2293 97.0035 81.2318C96.8585 79.4385 96.8251 77.6452 96.8697 75.8518C96.9255 73.6887 93.58 73.6887 93.5243 75.8518H93.5131Z" fill="#1B1E24"/>
<path d="M111.712 70.8532C111.712 70.8532 111.79 70.8644 111.824 70.8644C111.79 70.8644 111.745 70.8532 111.712 70.8532C107.095 70.3265 102.356 71.0774 98.1408 73.0052C96.9811 73.532 95.7321 74.3166 95.5203 75.5831C95.3641 76.5246 95.8771 77.4885 96.6131 78.0937C97.3491 78.699 98.2858 79.0016 99.2114 79.2258C103.705 80.3242 108.411 79.8086 113.028 79.6292C114.712 79.562 116.462 79.5172 117.979 78.7662C119.485 78.0041 120.678 76.2892 120.232 74.6528C119.808 73.0837 118.158 72.2206 116.607 71.7387C115.057 71.2567 113.44 70.9653 111.824 70.8644" fill="white"/>
<path d="M111.712 72.5341H111.824C113.965 72.7583 113.954 69.3959 111.824 69.1829C107.296 68.7234 102.713 69.295 98.4981 71.0323C96.6916 71.772 94.6062 72.7471 93.9929 74.7982C93.3796 76.8493 94.6397 78.9789 96.4462 79.9876C98.4535 81.1084 101.052 81.355 103.304 81.5007C105.769 81.6688 108.244 81.5343 110.709 81.411C114.69 81.2093 120.611 81.4559 121.849 76.4906C123.243 70.909 115.66 69.4519 111.813 69.1717C109.661 69.0148 109.672 72.3772 111.813 72.5341C113.709 72.6686 116.073 72.9489 117.701 74.036C119.184 75.0224 118.582 76.6027 117.132 77.3088C115.259 78.2167 112.727 77.9477 110.709 78.0486C108.545 78.1607 106.382 78.2727 104.219 78.1943C102.267 78.1158 99.8808 78.0374 98.1301 77.0847C95.8106 75.8294 98.5315 74.6077 99.7805 74.1033C103.639 72.5566 107.709 72.1194 111.824 72.5341C113.965 72.7471 113.954 69.3846 111.824 69.1717H111.712C109.571 68.9475 109.583 72.31 111.712 72.5229V72.5341Z" fill="#1B1E24"/>
<path d="M120.666 102.427C120.231 103.29 119.25 103.727 118.324 103.996C116.93 104.377 115.48 104.534 114.042 104.444C115.347 103.469 116.016 101.721 115.692 100.118C115.38 98.5262 114.075 97.1588 112.503 96.7777C114.298 95.9708 115.514 94.0317 115.458 92.0591C115.391 90.0865 114.064 88.2259 112.235 87.531C114.031 86.511 115.012 84.247 114.544 82.2295C114.165 80.6716 113.161 80.0327 111.756 79.7749C113.507 79.4947 115.135 77.3764 115.414 75.4934C115.703 73.5095 114.276 71.4024 112.403 70.9429C114.611 71.0774 116.93 71.5033 118.38 73.1285C119.25 74.1036 119.662 75.4149 119.907 76.7039C120.298 78.6765 120.376 80.7052 120.443 82.7227C120.655 88.663 120.822 94.6146 120.922 100.566C120.933 101.194 120.945 101.855 120.666 102.427Z" fill="#1B1E24"/>
<path d="M119.227 101.586C118.38 102.953 115.402 102.83 114.053 102.774L115.235 105.643C119.026 102.505 117.543 96.5197 112.96 95.1635L113.361 98.2346C118.335 95.7351 118.29 88.3153 113.094 86.0849V88.9878C117.22 86.3987 117.71 79.3264 112.213 78.1607V81.3999C114.889 80.7834 116.93 78.0038 117.119 75.3138C117.309 72.6239 115.413 70.102 112.86 69.3287L112.414 72.6351C114.677 72.792 117.075 73.2739 117.922 75.6725C118.837 78.2392 118.725 81.1645 118.814 83.8545C118.915 86.8246 119.004 89.7948 119.082 92.7762C119.127 94.3565 119.16 95.9369 119.194 97.5173C119.227 98.9183 119.528 100.667 119.06 102.001C118.324 104.04 121.558 104.915 122.283 102.897C122.851 101.317 122.584 99.4563 122.55 97.7975C122.517 95.9369 122.472 94.0763 122.416 92.2158C122.316 88.5507 122.227 84.8856 122.059 81.2318C121.926 78.3288 121.781 74.8879 119.963 72.4669C118.145 70.046 115.201 69.4744 112.402 69.2838C110.473 69.1493 110.206 72.0522 111.956 72.5902C114.822 73.4645 113.852 77.6003 111.31 78.1831C109.726 78.5418 109.693 81.086 111.31 81.4223C112.369 81.6465 112.949 82.0387 112.982 83.2156C113.016 84.3925 112.38 85.4909 111.388 86.1073C110.395 86.7238 110.172 88.4834 111.388 89.0102C114.287 90.2543 114.555 93.897 111.655 95.3541C110.328 96.0266 110.741 98.044 112.057 98.4251C114.421 99.12 114.633 101.81 112.86 103.278C111.666 104.265 112.715 106.092 114.042 106.148C116.818 106.271 120.498 105.901 122.115 103.301C123.253 101.451 120.364 99.7701 119.227 101.608V101.586Z" fill="#1B1E24"/>
<path d="M86.7438 126.03C87.3411 126.03 87.8158 125.833 88.1678 125.438C88.5304 125.033 88.7118 124.489 88.7118 123.806C88.7118 123.123 88.5304 122.579 88.1678 122.174C87.8158 121.769 87.3411 121.566 86.7438 121.566H83.7038V126.03H86.7438ZM81.5278 119.71H87.1598C87.8851 119.71 88.5304 119.881 89.0958 120.222C89.6611 120.563 90.0984 121.038 90.4078 121.646C90.7278 122.254 90.8878 122.947 90.8878 123.726C90.8878 125.433 90.0558 126.707 88.3918 127.55L91.4478 131.71H88.7598L85.9438 127.902H83.7038V131.71H81.5278V119.71ZM98.0086 126.638C97.9126 126.158 97.6886 125.747 97.3366 125.406C96.9953 125.054 96.542 124.878 95.9766 124.878C95.4326 124.878 94.958 125.054 94.5526 125.406C94.158 125.747 93.9126 126.158 93.8166 126.638H98.0086ZM91.8166 127.454C91.8166 126.611 91.9926 125.865 92.3446 125.214C92.6966 124.553 93.1873 124.041 93.8166 123.678C94.446 123.305 95.166 123.118 95.9766 123.118C96.7766 123.118 97.4433 123.283 97.9766 123.614C98.51 123.945 98.894 124.291 99.1286 124.654C99.374 125.006 99.5233 125.267 99.5766 125.438C99.8326 125.961 99.9606 126.638 99.9606 127.47L99.9446 128.174H93.8166C93.902 128.697 94.158 129.129 94.5846 129.47C95.0113 129.811 95.4806 129.982 95.9926 129.982C96.4086 129.982 96.75 129.923 97.0166 129.806C97.2833 129.689 97.7526 129.283 98.4246 128.59C99.1073 127.897 98.9153 128.083 97.8486 129.15L99.6086 129.838C99.342 130.371 98.8993 130.825 98.2806 131.198C97.6726 131.571 96.9046 131.758 95.9766 131.758C95.166 131.758 94.446 131.577 93.8166 131.214C93.1873 130.851 92.6966 130.345 92.3446 129.694C91.9926 129.033 91.8166 128.286 91.8166 127.454ZM109.954 131.71H107.89L106.274 126.174L104.658 131.71H102.594L100.05 123.118H102.306L103.666 128.638L105.154 123.118H107.362L108.866 128.638L110.226 123.118H112.482L109.954 131.71ZM116.668 130.03C117.063 130.03 117.431 129.918 117.772 129.694C118.113 129.459 118.385 129.15 118.588 128.766C118.791 128.371 118.892 127.934 118.892 127.454C118.892 126.974 118.791 126.542 118.588 126.158C118.385 125.763 118.113 125.454 117.772 125.23C117.431 124.995 117.063 124.878 116.668 124.878C116.039 124.878 115.532 125.113 115.148 125.582C114.764 126.051 114.572 126.675 114.572 127.454C114.572 128.233 114.764 128.857 115.148 129.326C115.532 129.795 116.039 130.03 116.668 130.03ZM112.396 127.454C112.396 126.622 112.567 125.881 112.908 125.23C113.26 124.569 113.74 124.057 114.348 123.694C114.967 123.321 115.671 123.134 116.46 123.134C116.919 123.134 117.361 123.235 117.788 123.438C118.215 123.641 118.583 123.939 118.892 124.334V123.118H121.068V131.71L118.892 131.726V130.558C118.583 130.953 118.215 131.251 117.788 131.454C117.361 131.657 116.919 131.758 116.46 131.758C115.671 131.758 114.967 131.577 114.348 131.214C113.74 130.841 113.26 130.329 112.908 129.678C112.567 129.027 112.396 128.286 112.396 127.454ZM124.64 124.574C124.885 124.137 125.232 123.785 125.68 123.518C126.138 123.241 126.608 123.102 127.088 123.102V125.022C126.597 125.022 126.165 125.155 125.792 125.422C125.418 125.678 125.13 126.003 124.928 126.398C124.736 126.793 124.64 127.182 124.64 127.566V131.71H122.496V123.118H124.64V124.574ZM131.305 131.758C130.516 131.758 129.812 131.577 129.193 131.214C128.575 130.841 128.089 130.329 127.737 129.678C127.396 129.017 127.225 128.27 127.225 127.438C127.225 126.595 127.396 125.849 127.737 125.198C128.089 124.537 128.575 124.025 129.193 123.662C129.812 123.289 130.516 123.102 131.305 123.102C131.668 123.102 132.084 123.187 132.553 123.358C133.023 123.529 133.423 123.849 133.753 124.318V119.71H135.929V131.726H133.753V130.558C133.423 130.985 133.012 131.294 132.521 131.486C132.031 131.667 131.625 131.758 131.305 131.758ZM129.401 127.486C129.401 128.275 129.588 128.905 129.961 129.374C130.345 129.833 130.857 130.062 131.497 130.062C131.903 130.062 132.276 129.95 132.617 129.726C132.969 129.491 133.247 129.177 133.449 128.782C133.652 128.387 133.753 127.955 133.753 127.486C133.753 127.017 133.652 126.585 133.449 126.19C133.247 125.785 132.969 125.47 132.617 125.246C132.276 125.011 131.903 124.894 131.497 124.894C130.857 124.894 130.345 125.129 129.961 125.598C129.588 126.067 129.401 126.697 129.401 127.486Z" fill="#1B1E24"/>
<path d="M100.668 205.351C105.224 203.166 109.913 200.762 112.93 196.706C115.528 193.216 116.627 188.647 115.914 184.357C113.436 169.478 89.5384 163.25 82.2119 177.697C79.5343 182.985 77.9358 190.232 80.9264 195.414C84.5763 201.734 86.0616 201.481 92.0028 204.139L91.8762 208.188L100.668 205.358V205.351Z" fill="white"/>
<path d="M101.473 206.73C105.669 204.718 109.985 202.513 113.122 198.983C116.259 195.453 118.051 190.531 117.678 185.702C117.159 179.115 112.863 173.614 107.095 170.616C101.72 167.819 94.9659 166.887 89.2512 169.218C86.2673 170.43 83.763 172.401 81.9247 175.052C79.5069 178.536 78.1282 183.058 77.7818 187.254C77.5954 189.506 77.7819 191.877 78.5478 194.015C79.2405 195.953 80.3728 197.765 81.6116 199.41C82.5574 200.655 83.6031 201.754 84.9219 202.613C86.1274 203.399 87.4862 203.932 88.8049 204.492C89.6042 204.831 90.4035 205.164 91.2027 205.524L90.4101 204.145C90.3702 205.497 90.3235 206.843 90.2836 208.195C90.2503 209.201 91.3359 210.046 92.3084 209.733C95.239 208.788 98.1696 207.842 101.1 206.903C103.052 206.277 102.219 203.186 100.248 203.819C97.3171 204.765 94.3864 205.711 91.4558 206.65L93.4806 208.188C93.5206 206.836 93.5672 205.491 93.6072 204.139C93.6205 203.626 93.3008 202.973 92.8146 202.76C91.296 202.081 89.884 201.541 88.4453 200.882C87.8991 200.629 87.353 200.362 86.8401 200.049C86.2207 199.676 86.0808 199.563 85.6412 199.17C84.5156 198.151 83.7763 197.032 82.977 195.74C81.9513 194.068 81.1787 192.37 80.9855 190.391C80.6059 186.402 81.7115 182.299 83.4832 178.742C84.7354 176.218 86.4738 174.28 88.8383 172.948C90.9763 171.742 93.4473 171.176 95.9117 171.123C98.6625 171.069 101.14 171.556 103.798 172.608C108.52 174.48 112.756 178.403 114.081 183.411C115.207 187.667 114.208 192.41 111.557 195.906C108.647 199.743 104.104 201.947 99.868 203.979C99.0887 204.352 98.8823 205.464 99.2952 206.163C99.7614 206.956 100.701 207.109 101.48 206.736L101.473 206.73Z" fill="#1B1E24"/>
<path d="M90.516 178.443C90.516 178.443 90.496 178.456 90.4827 178.463C90.3561 178.556 90.2162 178.656 90.0897 178.769C90.083 178.776 90.0697 178.782 90.063 178.796C89.9498 178.916 89.8499 179.049 89.7567 179.189C89.7567 179.195 89.7433 179.209 89.7433 179.222C89.8099 179.075 89.6101 179.515 89.5568 179.655C89.5568 179.655 89.5568 179.655 89.5568 179.662C89.5568 179.662 89.5568 179.675 89.5568 179.682C89.6168 179.315 89.5036 180.008 89.4902 180.168C89.4902 180.168 89.4902 180.168 89.4902 180.174C89.4902 180.174 89.4902 180.181 89.4902 180.188C89.5369 180.627 89.5302 180.734 89.7433 181.12C89.8166 181.26 89.9165 181.387 90.0364 181.5C90.3361 181.78 90.4627 181.833 90.8423 181.973C90.8423 181.973 90.8423 181.973 90.849 181.973C90.8556 181.973 91.3152 182.039 91.3285 182.039C91.3285 182.039 91.3285 182.039 91.3352 182.039C91.495 182.026 92.2477 181.906 91.8214 181.973C91.8214 181.973 91.8347 181.973 91.8414 181.973C91.9946 181.919 92.1478 181.86 92.2876 181.786C92.2876 181.786 92.301 181.786 92.301 181.773C92.4275 181.68 92.5541 181.593 92.6673 181.487C92.6673 181.487 92.6673 181.487 92.6739 181.48C92.927 181.193 93.0336 181.04 93.1468 180.674C93.2468 180.354 93.2268 180.028 93.1468 179.708C93.0736 179.408 92.8937 179.122 92.6806 178.902C92.5674 178.789 92.4408 178.682 92.301 178.609C92.0945 178.476 91.8747 178.409 91.6349 178.396C91.3951 178.343 91.1554 178.356 90.9156 178.429C90.6825 178.483 90.476 178.589 90.3028 178.749C90.1097 178.876 89.9498 179.042 89.8366 179.255L89.6567 179.682C89.5702 180.001 89.5702 180.321 89.6567 180.641L89.8366 181.067C89.9964 181.34 90.2096 181.553 90.4827 181.713C90.4827 181.713 90.4893 181.713 90.496 181.713L90.1296 181.433L89.8499 181.067L89.6701 180.641L89.6035 180.161L89.6701 179.682C89.6701 179.682 89.6701 179.682 89.6701 179.688L89.8499 179.262C89.8499 179.262 89.8499 179.269 89.8499 179.275L90.1296 178.909C90.1296 178.909 90.123 178.916 90.1163 178.922L90.4827 178.643C90.4827 178.643 90.4693 178.656 90.456 178.656L90.8823 178.476C90.8823 178.476 90.8623 178.476 90.8556 178.483L91.3352 178.416C91.3352 178.416 91.3219 178.416 91.3152 178.416L91.7948 178.483H91.7814L92.2077 178.662C92.2077 178.662 92.2077 178.662 92.2011 178.662L92.5674 178.942C92.5674 178.942 92.5674 178.942 92.5607 178.936L92.8405 179.302C92.8405 179.302 92.8405 179.295 92.8338 179.289L93.0136 179.715C93.0136 179.715 93.0136 179.702 93.0136 179.688L93.0802 180.168C93.0802 180.168 93.0802 180.148 93.0802 180.141L93.0136 180.621C93.0136 180.621 93.0136 180.601 93.0203 180.587L92.8405 181.014C92.8405 181.014 92.8538 180.987 92.8671 180.974L92.5874 181.34C92.5874 181.34 92.6273 181.293 92.654 181.28L92.2876 181.56C92.2876 181.56 92.3076 181.546 92.3209 181.533C92.5274 181.42 92.7006 181.267 92.8271 181.067C92.987 180.894 93.0936 180.687 93.1468 180.454C93.2201 180.214 93.2334 179.975 93.1801 179.735C93.1668 179.495 93.1002 179.275 92.967 179.069L92.6873 178.702C92.4608 178.483 92.2011 178.323 91.8947 178.243L91.4151 178.176C91.0888 178.176 90.789 178.256 90.5093 178.423L90.516 178.443Z" fill="#1B1E24"/>
<path d="M101.006 179.002C100.879 179.096 100.746 179.189 100.626 179.295C100.626 179.295 100.626 179.295 100.619 179.302C100.606 179.315 100.346 179.655 100.333 179.668C100.24 179.808 100.187 179.968 100.14 180.128C100.093 180.288 100.067 180.454 100.073 180.614C100.073 180.694 100.107 180.887 100.107 180.861L100.14 181.1C100.187 181.26 100.24 181.42 100.333 181.56C100.426 181.7 100.513 181.833 100.633 181.946C100.633 181.946 100.639 181.953 100.646 181.96C100.693 182 100.959 182.206 101.012 182.246C101.012 182.246 101.019 182.246 101.026 182.253C101.099 182.299 101.232 182.346 101.272 182.359C101.312 182.373 101.439 182.446 101.525 182.459C101.692 182.499 101.865 182.519 102.038 182.526C102.038 182.526 102.051 182.526 102.058 182.526C102.058 182.526 102.065 182.526 102.071 182.526L102.551 182.459C102.551 182.459 102.551 182.459 102.558 182.459C102.717 182.426 102.877 182.346 103.017 182.266C103.017 182.266 103.031 182.266 103.031 182.259C103.051 182.246 103.377 181.993 103.397 181.973C103.397 181.973 103.404 181.973 103.41 181.966C103.523 181.846 103.637 181.72 103.71 181.573C103.783 181.427 103.85 181.274 103.903 181.12C103.903 181.107 103.903 181.094 103.91 181.087C103.943 180.921 103.97 180.754 103.976 180.581C103.976 180.568 103.976 180.561 103.976 180.548C103.963 180.381 103.943 180.208 103.91 180.041C103.91 180.028 103.91 180.015 103.896 180.001C103.836 179.828 103.77 179.662 103.683 179.502C103.67 179.475 103.657 179.455 103.637 179.435C103.53 179.289 103.424 179.142 103.304 179.009C103.284 178.989 103.264 178.969 103.244 178.949C103.084 178.776 102.891 178.649 102.664 178.576C102.451 178.463 102.218 178.41 101.972 178.423C101.725 178.416 101.492 178.463 101.279 178.576C101.059 178.649 100.866 178.769 100.699 178.949L100.42 179.315C100.26 179.595 100.173 179.902 100.173 180.221L100.24 180.701C100.326 181.007 100.48 181.267 100.699 181.493C100.733 181.527 100.773 181.567 100.799 181.607L100.52 181.24C100.546 181.28 100.573 181.32 100.593 181.367L100.413 180.941C100.413 180.941 100.433 180.994 100.44 181.027L100.373 180.548C100.373 180.548 100.373 180.588 100.373 180.608L100.44 180.128C100.44 180.128 100.433 180.168 100.426 180.188L100.606 179.762C100.606 179.762 100.599 179.782 100.593 179.788L100.873 179.422C100.873 179.422 100.859 179.435 100.853 179.442L101.219 179.162C101.219 179.162 101.206 179.176 101.192 179.176L101.619 178.996C101.619 178.996 101.599 178.996 101.585 179.002L102.065 178.936C102.065 178.936 102.031 178.936 102.018 178.936L102.498 179.002C102.498 179.002 102.458 178.996 102.438 178.989L102.864 179.169C102.864 179.169 102.831 179.156 102.817 179.142L103.184 179.422C103.184 179.422 103.164 179.409 103.157 179.395L103.437 179.762C103.437 179.762 103.43 179.748 103.424 179.742L103.603 180.168C103.603 180.168 103.603 180.155 103.603 180.148L103.67 180.628C103.67 180.628 103.67 180.621 103.67 180.614L103.603 181.094C103.603 181.094 103.603 181.087 103.603 181.08L103.424 181.507C103.424 181.507 103.424 181.493 103.43 181.493L103.15 181.86C103.15 181.86 103.164 181.846 103.17 181.84L102.804 182.119C103.011 182.006 103.184 181.846 103.31 181.653C103.47 181.48 103.577 181.274 103.63 181.04C103.703 180.801 103.717 180.561 103.663 180.321C103.65 180.081 103.583 179.862 103.45 179.655L103.17 179.289C102.944 179.069 102.684 178.909 102.378 178.829L101.898 178.763C101.572 178.763 101.272 178.843 100.992 179.009L101.006 179.002Z" fill="#1B1E24"/>
<path d="M108.511 174.653C110.276 175.952 111.515 177.697 113.213 179.056C114.339 179.955 115.678 180.634 117.116 180.747C119.528 180.941 122.498 179.029 121.679 176.318C121.093 174.373 119.401 172.782 117.663 171.476C116.617 170.69 116.404 169.192 117.15 168.119C117.303 167.893 117.416 167.726 117.436 167.68C117.882 166.7 117.783 165.495 116.91 164.789C115.618 163.75 113.886 164.443 112.607 165.089C109.537 166.641 106.4 165.788 103.243 165.055C99.5128 164.189 96.7421 163.277 92.899 163.397C90.9208 163.457 88.0301 163.53 86.8179 165.282C85.699 166.907 85.9854 169.145 87.7504 169.891C91.2139 171.369 95.4699 170.197 99.1132 170.863C102.57 171.496 105.747 172.615 108.511 174.646V174.653Z" fill="#CED3D8"/>
<path d="M107.706 176.032C110.47 178.123 112.275 181.354 115.898 182.166C118.742 182.806 122.252 181.527 123.211 178.556C123.724 176.958 123.178 175.253 122.292 173.894C121.32 172.395 120.001 171.423 118.689 170.257C118.409 170.004 118.243 169.724 118.323 169.358C118.389 169.052 118.622 168.838 118.769 168.572C118.962 168.232 119.108 167.833 119.188 167.453C119.561 165.708 118.822 163.883 117.184 163.09C115.545 162.298 113.787 162.777 112.215 163.51C110.643 164.243 109.064 164.503 107.286 164.269C103.696 163.803 100.259 162.498 96.6693 162.011C95.0041 161.792 93.339 161.752 91.6672 161.852C90.1886 161.938 88.67 162.125 87.3379 162.811C84.5938 164.216 83.5148 168.226 85.8393 170.517C87.1914 171.842 89.4426 172.129 91.241 172.249C93.2258 172.382 95.2173 172.175 97.2021 172.269C100.905 172.435 104.715 173.874 107.706 176.032C108.405 176.538 109.484 176.152 109.89 175.459C110.363 174.653 110.017 173.781 109.318 173.274C106.86 171.496 104.002 170.33 101.059 169.644C99.5066 169.285 97.9481 169.065 96.3562 169.045C94.7644 169.025 93.319 169.132 91.8005 169.078C90.7348 169.038 89.0497 169.005 88.1705 168.326C87.5844 167.873 87.6443 166.934 88.0772 166.288C88.5968 165.508 89.6624 165.282 90.5549 165.149C91.7738 164.969 93.0659 164.962 94.2915 165.002C97.3953 165.102 100.399 166.034 103.403 166.74C106.667 167.5 109.95 168.066 113.121 166.614C113.753 166.327 115.345 165.335 115.965 166.094C116.171 166.347 116.105 166.754 115.978 167.04C116.071 166.834 115.918 167.087 115.905 167.113C115.818 167.247 115.718 167.373 115.645 167.513C115.452 167.859 115.299 168.239 115.212 168.625C114.879 170.077 115.379 171.656 116.524 172.615C117.597 173.501 118.755 174.333 119.521 175.519C120.127 176.458 120.5 177.384 119.834 178.156C119.168 178.929 118.076 179.255 117.117 179.156C115.565 178.996 114.266 177.95 113.194 176.904C111.915 175.659 110.75 174.36 109.318 173.281C108.625 172.762 107.533 173.174 107.133 173.854C106.653 174.673 107.013 175.519 107.706 176.038V176.032Z" fill="#1B1E24"/>
<path d="M87.5516 183.272C87.3051 187.561 90.7286 191.737 94.9847 192.344C99.2407 192.95 103.69 189.892 104.656 185.71" fill="white"/>
<path d="M85.9533 183.272C85.7401 188.46 89.8297 193.309 94.9849 193.942C100.14 194.575 105.002 190.991 106.201 186.136C106.694 184.138 103.61 183.285 103.117 185.283C102.278 188.68 98.7481 191.278 95.2113 190.772C91.6746 190.265 89.0038 186.775 89.1503 183.265C89.2369 181.207 86.0399 181.214 85.9533 183.265V183.272Z" fill="#1B1E24"/>
<path d="M111.051 197.224C110.994 199.507 111.089 201.8 111.354 204.073C111.439 204.767 111.553 205.501 112.008 205.994C112.501 206.527 113.278 206.538 113.96 206.698C117.589 207.553 120.128 207.503 123.463 207.372C125.804 207.282 128.722 206.668 130.806 205.542C131.129 205.371 131.451 205.16 131.631 204.828C131.82 204.476 131.811 204.053 131.811 203.651C131.763 201.217 131.707 198.772 131.659 196.338" fill="white"/>
<path d="M109.631 197.223C109.583 199.366 109.659 201.508 109.886 203.641C110.057 205.22 110.313 206.829 111.781 207.634C112.558 208.066 113.534 208.147 114.378 208.318C115.221 208.489 116.093 208.63 116.955 208.74C118.585 208.941 120.224 208.972 121.863 208.921C125.122 208.841 128.439 208.469 131.395 206.9C133.081 206.004 133.261 204.586 133.223 202.766C133.176 200.613 133.129 198.461 133.081 196.318C133.043 194.377 130.201 194.377 130.239 196.318C130.277 198.038 130.315 199.758 130.352 201.478C130.371 202.182 130.533 203.087 130.4 203.782C130.334 204.144 130.419 203.973 130.22 204.154C130.04 204.315 129.756 204.405 129.538 204.506C127.103 205.602 124.469 205.833 121.863 205.904C119.257 205.974 116.576 205.672 113.894 205.139C113.373 205.039 113.089 205.069 112.881 204.546C112.625 203.922 112.672 203.017 112.615 202.353C112.473 200.643 112.435 198.923 112.473 197.213C112.521 195.272 109.678 195.272 109.631 197.213V197.223Z" fill="#1B1E24"/>
<path d="M110.746 190.042C110.689 192.326 110.784 194.619 111.05 196.892C111.135 197.586 111.249 198.32 111.703 198.813C112.196 199.346 112.973 199.356 113.655 199.517C117.284 200.372 119.823 200.322 123.159 200.191C125.499 200.101 128.417 199.487 130.502 198.361C130.824 198.19 131.146 197.978 131.326 197.646C131.516 197.294 131.506 196.872 131.506 196.47C131.459 194.036 131.402 191.591 131.354 189.157" fill="white"/>
<path d="M109.326 190.042C109.279 192.185 109.354 194.327 109.582 196.46C109.752 198.039 110.008 199.648 111.477 200.453C112.254 200.885 113.23 200.966 114.073 201.137C114.916 201.308 115.788 201.448 116.65 201.559C118.28 201.76 119.919 201.79 121.558 201.74C124.818 201.66 128.134 201.288 131.09 199.718C132.777 198.823 132.957 197.405 132.919 195.584C132.871 193.432 132.824 191.28 132.777 189.137C132.739 187.196 129.896 187.196 129.934 189.137C129.972 190.857 130.01 192.577 130.048 194.297C130.067 195.001 130.228 195.906 130.095 196.6C130.029 196.962 130.114 196.791 129.915 196.973C129.735 197.133 129.451 197.224 129.233 197.325C126.798 198.421 124.164 198.652 121.558 198.723C118.953 198.793 116.271 198.491 113.59 197.958C113.069 197.858 112.784 197.888 112.576 197.365C112.32 196.741 112.367 195.836 112.311 195.172C112.168 193.462 112.131 191.742 112.168 190.032C112.216 188.091 109.373 188.091 109.326 190.032V190.042Z" fill="#1B1E24"/>
<path d="M110.01 180.779C109.934 183.555 110.104 186.341 110.521 189.087C110.588 189.509 110.663 189.962 110.938 190.284C111.232 190.636 111.687 190.756 112.113 190.857C117.883 192.235 123.966 192.074 129.661 190.394C130.135 190.254 130.618 190.093 130.949 189.71C131.366 189.228 131.423 188.513 131.452 187.85C131.556 185.305 131.546 182.75 131.414 180.215" fill="white"/>
<path d="M108.589 180.779C108.541 182.83 108.608 184.872 108.826 186.914C108.996 188.564 108.968 190.817 110.465 191.812C111.886 192.748 114.065 192.818 115.685 193.03C117.486 193.261 119.305 193.341 121.115 193.291C122.924 193.241 124.725 193.03 126.496 192.708C128.079 192.426 130.078 192.195 131.452 191.239C132.939 190.203 132.883 188.202 132.92 186.522C132.968 184.42 132.939 182.328 132.835 180.235C132.74 178.304 129.898 178.294 129.993 180.235C130.069 181.885 130.116 183.534 130.097 185.174C130.097 185.999 130.069 186.824 130.04 187.648C130.012 188.272 130.059 188.574 129.566 188.875C129.074 189.177 128.268 189.248 127.719 189.378C126.999 189.549 126.269 189.7 125.549 189.831C124.08 190.093 122.602 190.223 121.115 190.274C118.177 190.364 115.363 189.982 112.492 189.419C111.848 189.288 111.924 188.946 111.829 188.262C111.706 187.387 111.621 186.502 111.554 185.607C111.431 183.997 111.403 182.388 111.441 180.779C111.488 178.837 108.646 178.837 108.598 180.779H108.589Z" fill="#1B1E24"/>
<path d="M124.053 176.292C124.053 176.292 124.119 176.303 124.148 176.303C124.119 176.303 124.081 176.292 124.053 176.292C120.13 175.82 116.104 176.494 112.522 178.224C111.537 178.696 110.475 179.401 110.295 180.537C110.163 181.382 110.599 182.247 111.224 182.79C111.849 183.333 112.645 183.605 113.432 183.806C117.25 184.792 121.248 184.329 125.171 184.168C126.602 184.108 128.089 184.068 129.378 183.394C130.657 182.71 131.671 181.171 131.292 179.702C130.932 178.294 129.53 177.52 128.213 177.087C126.896 176.655 125.522 176.393 124.148 176.303" fill="white"/>
<path d="M124.052 177.801H124.147C125.966 178.002 125.957 174.985 124.147 174.794C120.3 174.381 116.406 174.894 112.825 176.453C111.29 177.117 109.518 177.992 108.997 179.833C108.476 181.674 109.546 183.585 111.081 184.49C112.787 185.496 114.994 185.717 116.908 185.848C119.002 185.999 121.106 185.878 123.2 185.767C126.582 185.586 131.613 185.808 132.665 181.352C133.85 176.343 127.407 175.035 124.138 174.784C122.309 174.643 122.319 177.66 124.138 177.801C125.748 177.922 127.757 178.173 129.141 179.149C130.401 180.034 129.889 181.452 128.657 182.086C127.065 182.901 124.915 182.659 123.2 182.75C121.362 182.85 119.523 182.951 117.685 182.881C116.027 182.81 113.999 182.74 112.512 181.885C110.541 180.758 112.853 179.662 113.914 179.209C117.193 177.821 120.651 177.429 124.147 177.801C125.966 177.992 125.957 174.975 124.147 174.784H124.052C122.233 174.583 122.243 177.6 124.052 177.791V177.801Z" fill="#1B1E24"/>
<path d="M132.916 204.661C132.547 205.424 131.713 205.81 130.926 206.047C129.742 206.384 128.7 206.709 127.478 206.63C128.586 205.768 129.155 204.223 128.88 202.807C128.615 201.401 127.506 200.193 126.17 199.856C127.695 199.143 128.728 197.43 128.681 195.687C128.624 193.944 127.496 192.3 125.943 191.686C127.468 190.785 128.302 188.784 127.904 187.002C127.582 185.625 126.729 185.061 125.535 184.833C127.023 184.585 128.406 182.714 128.643 181.05C128.889 179.297 127.677 177.435 126.085 177.029C127.961 177.148 129.932 177.524 131.163 178.96C131.902 179.822 132.253 180.981 132.461 182.12C132.793 183.862 132.859 185.655 132.916 187.437C133.096 192.686 133.049 197.759 133.134 203.017C133.144 203.572 133.153 204.156 132.916 204.661Z" fill="#1B1E24"/>
<path d="M131.884 204.104C131.164 205.312 128.634 205.203 127.488 205.154L128.492 207.689C131.713 204.916 130.453 199.628 126.559 198.43L126.9 201.143C131.126 198.935 131.088 192.379 126.673 190.408V192.973C130.178 190.685 130.595 184.437 125.924 183.407V186.269C128.198 185.724 129.932 183.268 130.093 180.891C130.254 178.515 128.643 176.286 126.474 175.603L125.924 178.065C127.848 178.203 130.055 179.089 130.775 181.208C131.552 183.476 131.458 186.061 131.533 188.437C131.619 191.062 131.694 193.686 131.761 196.32C131.799 197.717 131.827 199.113 131.855 200.509C131.884 201.747 132.14 203.292 131.742 204.471C131.116 206.273 133.864 207.045 134.48 205.263C134.963 203.867 134.736 202.223 134.707 200.757C134.679 199.113 134.641 197.469 134.594 195.825C134.508 192.587 134.433 189.349 134.291 186.12C134.177 183.555 134.054 180.515 132.509 178.376C130.965 176.237 128.463 175.732 126.085 175.563C124.446 175.445 124.048 177.55 125.536 178.025C127.971 178.798 127.073 182.417 124.913 182.932C123.567 183.249 123.783 185.49 125.157 185.787C126.057 185.985 126.549 186.833 126.578 187.873C126.606 188.913 126.066 189.883 125.223 190.428C124.38 190.973 124.19 192.527 125.223 192.993C127.686 194.092 127.914 197.311 125.45 198.598C124.323 199.192 124.673 200.975 125.791 201.312C127.8 201.926 127.98 204.302 126.474 205.6C125.46 206.471 126.351 208.085 127.478 208.135C129.837 208.244 132.964 207.917 134.338 205.619C135.304 203.985 132.85 202.5 131.884 204.124V204.104Z" fill="#1B1E24"/>
<path d="M105.986 257.743C105.986 260.582 106.143 262.963 105.986 265.731C105.899 267.259 106.671 268.799 103.7 268.911C91.6065 269.365 79.2635 268.911 67.1533 268.911C51.9809 268.911 28.0089 268.911 19.3876 268.911C18.2831 268.911 17.3984 269.806 17.3984 270.911V278.208" stroke="#E6E9EC" stroke-width="3" stroke-linecap="round"/>
<path d="M106.126 257.743C106.126 260.582 105.968 262.963 106.126 265.731C106.213 267.259 105.44 268.799 108.412 268.911C120.505 269.365 132.848 268.911 144.958 268.911C160.13 268.911 184.102 268.911 192.724 268.911C193.828 268.911 194.713 269.806 194.713 270.911V278.208" stroke="#E6E9EC" stroke-width="3" stroke-linecap="round"/>
<path d="M106.055 257.743C106.055 264.733 106.055 272.203 106.055 279.286" stroke="#E6E9EC" stroke-width="3" stroke-linecap="round"/>
<circle cx="16.1362" cy="307.506" r="15.2632" fill="#FCFEFF"/>
<path d="M15.8006 324.494C19.4282 324.514 23.1442 323.944 26.231 321.909C29.3178 319.874 31.3233 316.954 32.2572 313.445C33.8596 307.438 33.0142 299.829 28.0693 295.572C23.7242 291.827 17.5013 290.608 11.9666 291.827C9.25337 292.427 6.6384 293.705 4.63294 295.641C1.7722 298.404 0.415568 302.395 0.0714932 306.288C-0.311904 310.702 0.828458 315.666 3.93496 318.96C6.71705 321.909 10.8164 323.786 14.7881 324.366C16.6461 324.642 17.4423 321.791 15.5745 321.525C12.5565 321.083 9.52862 319.903 7.16926 317.947C4.55429 315.784 3.25664 312.55 3.00104 309.198C2.55866 303.191 5.18345 297.067 11.1802 295.1C15.5548 293.665 20.657 294.196 24.5794 296.644C29.1704 299.505 30.3992 304.823 29.9175 309.945C29.6029 313.356 28.2758 316.561 25.5822 318.763C22.8886 320.965 19.2709 321.575 15.8104 321.565C13.9131 321.565 13.9131 324.504 15.8104 324.514L15.8006 324.494Z" fill="#00B5B0"/>
<path d="M11.0813 301.922H11.3173C11.5237 301.922 11.7105 301.883 11.8874 301.794C12.0742 301.736 12.2315 301.637 12.3593 301.49C12.5068 301.352 12.6051 301.195 12.6641 301.018C12.7525 300.841 12.8017 300.654 12.7919 300.448L12.7427 300.054C12.6739 299.809 12.5461 299.592 12.3593 299.406L12.0644 299.18C11.8383 299.042 11.5827 298.983 11.3173 298.983H11.0813C10.8749 298.983 10.6881 299.022 10.5111 299.111C10.3243 299.17 10.1671 299.268 10.0393 299.415C9.8918 299.553 9.79349 299.71 9.73451 299.887C9.64603 300.064 9.59688 300.251 9.60671 300.458L9.65587 300.851C9.72468 301.097 9.85248 301.313 10.0393 301.5L10.3342 301.726C10.5603 301.863 10.8159 301.922 11.0813 301.922Z" fill="#00B5B0"/>
<path d="M19.1536 298.481C19.1536 298.481 19.1339 298.481 19.1241 298.481C19.1241 298.481 19.1241 298.481 19.1143 298.481C19.0454 298.481 18.9078 298.511 18.9176 298.511C18.9275 298.511 18.78 298.521 18.7112 298.54H18.6915C18.6326 298.56 18.5441 298.599 18.5048 298.619C18.4654 298.639 18.377 298.668 18.318 298.698C18.318 298.698 18.3081 298.698 18.2983 298.708C18.2983 298.708 18.2983 298.708 18.2885 298.708C18.2492 298.737 18.0329 298.904 17.9837 298.943C17.9837 298.943 17.9739 298.953 17.9641 298.963C17.9641 298.963 17.9641 298.963 17.9641 298.973C17.8952 299.052 17.7969 299.189 17.7281 299.278C17.7183 299.288 17.7085 299.307 17.6986 299.327C17.6986 299.327 17.6986 299.327 17.6986 299.337C17.6691 299.396 17.6397 299.484 17.62 299.514C17.6003 299.543 17.5708 299.632 17.5413 299.691C17.5413 299.691 17.5413 299.71 17.5413 299.72C17.5413 299.72 17.5413 299.74 17.5413 299.75C17.5315 299.809 17.4922 300.074 17.4922 300.143C17.4922 300.143 17.4922 300.153 17.4922 300.162C17.4922 300.162 17.4922 300.182 17.4922 300.192C17.4922 300.192 17.4922 300.192 17.4922 300.202C17.4922 300.271 17.5119 300.339 17.5217 300.398C17.5217 300.467 17.5413 300.526 17.5512 300.595V300.615C17.5512 300.615 17.5512 300.615 17.5512 300.625C17.6003 300.743 17.6495 300.86 17.6986 300.978C17.6986 300.978 17.6986 300.988 17.7085 300.998C17.7478 301.047 17.8264 301.155 17.8264 301.155C17.8363 301.175 17.9051 301.264 17.9444 301.313C17.9444 301.313 17.9542 301.323 17.9641 301.332C18.0132 301.372 18.0919 301.431 18.1214 301.46C18.1509 301.48 18.2295 301.549 18.2786 301.578C18.2786 301.578 18.2983 301.578 18.2983 301.588C18.3376 301.608 18.6129 301.726 18.6522 301.735C18.6522 301.735 18.6522 301.735 18.662 301.735C18.6719 301.735 18.662 301.735 18.6719 301.735C18.7112 301.735 19.0258 301.785 19.0651 301.785C19.0651 301.785 19.0848 301.785 19.0946 301.785C19.0946 301.785 19.0946 301.785 19.1044 301.785C19.1634 301.785 19.4485 301.745 19.4977 301.735C19.4977 301.735 19.5173 301.735 19.5271 301.735C19.5271 301.735 19.5468 301.735 19.5566 301.735C19.6451 301.696 19.8221 301.627 19.9105 301.588C19.9105 301.588 19.9105 301.588 19.9204 301.588C19.9204 301.588 19.94 301.578 19.9499 301.568C19.9499 301.568 19.9499 301.568 19.9597 301.568C20.0089 301.529 20.0875 301.47 20.117 301.45C20.1563 301.421 20.2251 301.372 20.2743 301.332C20.2743 301.332 20.2939 301.323 20.2939 301.313C20.2939 301.313 20.2939 301.313 20.3038 301.303L20.5299 301.008C20.5299 301.008 20.5397 300.988 20.5495 300.978C20.5495 300.978 20.5495 300.978 20.5495 300.959L20.697 300.605C20.697 300.605 20.697 300.585 20.697 300.566C20.7068 300.497 20.7167 300.398 20.7265 300.359C20.7265 300.339 20.756 300.221 20.756 300.153C20.756 300.153 20.756 300.153 20.756 300.143C20.7363 300.005 20.7167 299.877 20.7068 299.75C20.7068 299.74 20.7068 299.73 20.7068 299.72C20.6577 299.524 20.5692 299.356 20.4414 299.219C20.3333 299.061 20.1956 298.934 20.0285 298.835C19.8614 298.727 19.6746 298.668 19.478 298.658C19.2814 298.619 19.0848 298.619 18.8882 298.688L18.5342 298.835C18.3081 298.963 18.141 299.14 18.0034 299.366L17.8559 299.72C17.7871 299.986 17.7871 300.241 17.8559 300.507C17.8559 300.516 17.8559 300.526 17.8559 300.536L17.8068 300.143C17.8068 300.143 17.8068 300.172 17.8068 300.182L17.8559 299.789C17.8559 299.789 17.8559 299.818 17.8461 299.838L17.9936 299.484C17.9936 299.484 17.9739 299.523 17.9641 299.533L18.1902 299.238C18.1902 299.238 18.1607 299.268 18.141 299.288L18.4359 299.061C18.4359 299.061 18.3966 299.091 18.377 299.101L18.7309 298.953C18.7309 298.953 18.6915 298.963 18.6719 298.973L19.0651 298.924C19.0651 298.924 19.0356 298.924 19.0159 298.924L19.4092 298.973C19.4092 298.973 19.3797 298.973 19.3699 298.963L19.7238 299.111C19.7238 299.111 19.6943 299.101 19.6844 299.091L19.9794 299.317C19.9794 299.317 19.9597 299.297 19.9499 299.288L20.176 299.582C20.176 299.582 20.1563 299.563 20.1563 299.543L20.3038 299.897C20.3038 299.897 20.2939 299.868 20.2939 299.848L20.3431 300.241C20.3431 300.241 20.3431 300.202 20.3431 300.182L20.2939 300.575C20.2939 300.575 20.2939 300.536 20.3136 300.507L20.1661 300.86C20.1661 300.86 20.1858 300.821 20.2055 300.801L19.9794 301.096C19.9794 301.096 20.0088 301.067 20.0187 301.057L19.7238 301.283C19.7238 301.283 19.7533 301.264 19.7631 301.264L19.4092 301.411C19.4092 301.411 19.4387 301.411 19.4485 301.401L19.0553 301.45C19.0553 301.45 19.0848 301.45 19.0946 301.45C19.301 301.45 19.4878 301.411 19.6648 301.323C19.8516 301.264 20.0089 301.165 20.1366 301.018C20.2841 300.88 20.3824 300.723 20.4414 300.546C20.5299 300.369 20.579 300.182 20.5692 299.976L20.52 299.582C20.4512 299.337 20.3234 299.12 20.1366 298.934L19.8417 298.708C19.6156 298.57 19.36 298.511 19.0946 298.511L19.1536 298.481Z" fill="#00B5B0"/>
<path d="M15.2057 303.363C11.932 304.228 10.7425 307.689 10.772 310.746C10.8015 313.499 11.4012 316.654 14.2226 317.834C16.7098 318.876 19.9834 318.217 21.4383 315.819C22.1658 314.6 22.3722 313.155 22.4902 311.768C22.6082 310.382 22.6672 308.996 22.3526 307.63C21.979 306.018 21.0254 304.592 19.5902 303.737C18.1549 302.882 16.4247 302.655 14.9796 303.511C13.3477 304.474 14.8321 307.03 16.464 306.057C16.8474 305.831 16.3264 306.076 16.5623 305.988C16.6508 305.959 16.7491 305.929 16.8376 305.909C17.0538 305.87 16.5525 305.87 16.9457 305.909C17.044 305.919 17.1423 305.909 17.2406 305.929C17.0047 305.9 17.5061 306.008 17.5847 306.037C17.86 306.126 17.7322 306.086 17.6633 306.057C17.8108 306.116 17.9484 306.194 18.0762 306.273C18.7054 306.656 19.1773 307.276 19.4132 308.141C19.6688 309.085 19.6197 310.058 19.5607 311.09C19.5017 312.122 19.4624 312.82 19.1085 313.813C19.0495 313.98 18.7644 314.482 18.6759 314.59C18.6071 314.669 18.5383 314.737 18.4596 314.806C18.2827 314.973 18.7349 314.659 18.3711 314.875C18.2925 314.924 18.2139 314.973 18.1254 315.022C18.0762 315.052 17.7125 315.199 17.9484 315.111C17.7617 315.18 17.565 315.239 17.3684 315.278C17.2701 315.298 17.1718 315.317 17.0637 315.337C17.2898 315.308 17.0342 315.337 16.9949 315.337C16.7589 315.337 16.5328 315.357 16.2969 315.337C16.2379 315.337 15.9135 315.298 16.1592 315.337C16.0314 315.317 15.9135 315.288 15.7857 315.258C15.6874 315.239 15.186 315.062 15.3728 315.14C15.1958 315.062 15.0385 314.973 14.8813 314.865C15.0484 314.983 14.8419 314.836 14.8223 314.816C14.724 314.728 14.6355 314.639 14.547 314.531C14.3701 314.324 14.7043 314.796 14.4487 314.393C14.3799 314.285 14.3111 314.167 14.2521 314.049C13.9277 313.41 13.7802 312.407 13.7311 311.631C13.6622 310.402 13.6622 308.986 14.1243 307.915C14.488 307.06 15.1663 306.401 15.9626 306.194C17.801 305.713 17.0145 302.862 15.1762 303.353L15.2057 303.363Z" fill="#00B5B0"/>
<ellipse cx="105.621" cy="307.506" rx="15.2632" ry="15.2632" fill="#FCFEFF"/>
<path d="M97.5905 305.484H97.826C98.0321 305.484 98.2186 305.445 98.3952 305.357C98.5817 305.298 98.7387 305.199 98.8663 305.052C99.0135 304.915 99.1116 304.758 99.1705 304.581C99.2588 304.405 99.3079 304.218 99.2981 304.012L99.249 303.619C99.1803 303.374 99.0527 303.158 98.8663 302.972L98.5718 302.746C98.3461 302.609 98.091 302.55 97.826 302.55H97.5905C97.3844 302.55 97.1979 302.589 97.0213 302.677C96.8348 302.736 96.6778 302.834 96.5502 302.982C96.403 303.119 96.3049 303.276 96.246 303.453C96.1577 303.629 96.1086 303.816 96.1184 304.022L96.1675 304.414C96.2362 304.66 96.3638 304.876 96.5502 305.062L96.8446 305.288C97.0704 305.425 97.3255 305.484 97.5905 305.484Z" fill="#00B5B0"/>
<path d="M113.332 302.068C113.332 302.068 113.313 302.068 113.303 302.068C113.303 302.068 113.303 302.068 113.293 302.068C113.224 302.068 113.087 302.098 113.097 302.098C113.107 302.098 112.959 302.108 112.891 302.127H112.871C112.812 302.147 112.724 302.186 112.685 302.206C112.645 302.225 112.557 302.255 112.498 302.284C112.498 302.284 112.488 302.284 112.479 302.294C112.479 302.294 112.479 302.294 112.469 302.294C112.429 302.324 112.214 302.49 112.165 302.53C112.165 302.53 112.155 302.539 112.145 302.549C112.145 302.549 112.145 302.549 112.145 302.559C112.076 302.638 111.978 302.775 111.909 302.863C111.9 302.873 111.89 302.893 111.88 302.912C111.88 302.912 111.88 302.912 111.88 302.922C111.85 302.981 111.821 303.069 111.801 303.099C111.782 303.128 111.752 303.217 111.723 303.275C111.723 303.275 111.723 303.295 111.723 303.305C111.723 303.305 111.723 303.325 111.723 303.334C111.713 303.393 111.674 303.658 111.674 303.727C111.674 303.727 111.674 303.737 111.674 303.746C111.674 303.746 111.674 303.766 111.674 303.776C111.674 303.776 111.674 303.776 111.674 303.786C111.674 303.854 111.693 303.923 111.703 303.982C111.703 304.051 111.723 304.11 111.733 304.178V304.198C111.733 304.198 111.733 304.198 111.733 304.208C111.782 304.326 111.831 304.443 111.88 304.561C111.88 304.561 111.88 304.571 111.89 304.581C111.929 304.63 112.007 304.738 112.007 304.738C112.017 304.757 112.086 304.846 112.125 304.895C112.125 304.895 112.135 304.905 112.145 304.914C112.194 304.954 112.272 305.012 112.302 305.042C112.331 305.062 112.41 305.13 112.459 305.16C112.459 305.16 112.479 305.16 112.479 305.169C112.518 305.189 112.793 305.307 112.832 305.317C112.832 305.317 112.832 305.317 112.842 305.317C112.851 305.317 112.842 305.317 112.851 305.317C112.891 305.317 113.205 305.366 113.244 305.366C113.244 305.366 113.264 305.366 113.273 305.366C113.273 305.366 113.273 305.366 113.283 305.366C113.342 305.366 113.627 305.326 113.676 305.317C113.676 305.317 113.695 305.317 113.705 305.317C113.705 305.317 113.725 305.317 113.735 305.317C113.823 305.277 114 305.209 114.088 305.169C114.088 305.169 114.088 305.169 114.098 305.169C114.098 305.169 114.117 305.16 114.127 305.15C114.127 305.15 114.127 305.15 114.137 305.15C114.186 305.111 114.265 305.052 114.294 305.032C114.333 305.003 114.402 304.954 114.451 304.914C114.451 304.914 114.471 304.905 114.471 304.895C114.471 304.895 114.471 304.895 114.481 304.885L114.706 304.59C114.706 304.59 114.716 304.571 114.726 304.561C114.726 304.561 114.726 304.561 114.726 304.541L114.873 304.188C114.873 304.188 114.873 304.168 114.873 304.149C114.883 304.08 114.893 303.982 114.903 303.943C114.903 303.923 114.932 303.805 114.932 303.737C114.932 303.737 114.932 303.737 114.932 303.727C114.912 303.589 114.893 303.462 114.883 303.334C114.883 303.325 114.883 303.315 114.883 303.305C114.834 303.109 114.746 302.942 114.618 302.804C114.51 302.647 114.373 302.52 114.206 302.422C114.039 302.314 113.852 302.255 113.656 302.245C113.46 302.206 113.264 302.206 113.067 302.274L112.714 302.422C112.488 302.549 112.322 302.726 112.184 302.952L112.037 303.305C111.968 303.57 111.968 303.825 112.037 304.09C112.037 304.1 112.037 304.11 112.037 304.119L111.988 303.727C111.988 303.727 111.988 303.756 111.988 303.766L112.037 303.374C112.037 303.374 112.037 303.403 112.027 303.423L112.174 303.069C112.174 303.069 112.155 303.109 112.145 303.118L112.371 302.824C112.371 302.824 112.341 302.853 112.322 302.873L112.616 302.647C112.616 302.647 112.577 302.677 112.557 302.687L112.91 302.539C112.91 302.539 112.871 302.549 112.851 302.559L113.244 302.51C113.244 302.51 113.215 302.51 113.195 302.51L113.587 302.559C113.587 302.559 113.558 302.559 113.548 302.549L113.902 302.696C113.902 302.696 113.872 302.687 113.862 302.677L114.157 302.903C114.157 302.903 114.137 302.883 114.127 302.873L114.353 303.167C114.353 303.167 114.333 303.148 114.333 303.128L114.481 303.482C114.481 303.482 114.471 303.452 114.471 303.432L114.52 303.825C114.52 303.825 114.52 303.786 114.52 303.766L114.471 304.159C114.471 304.159 114.471 304.119 114.49 304.09L114.343 304.443C114.343 304.443 114.363 304.404 114.382 304.384L114.157 304.679C114.157 304.679 114.186 304.649 114.196 304.64L113.902 304.865C113.902 304.865 113.931 304.846 113.941 304.846L113.587 304.993C113.587 304.993 113.617 304.993 113.627 304.983L113.234 305.032C113.234 305.032 113.264 305.032 113.273 305.032C113.48 305.032 113.666 304.993 113.843 304.905C114.029 304.846 114.186 304.747 114.314 304.6C114.461 304.463 114.559 304.306 114.618 304.129C114.706 303.953 114.755 303.766 114.746 303.56L114.696 303.167C114.628 302.922 114.5 302.706 114.314 302.52L114.019 302.294C113.794 302.157 113.538 302.098 113.273 302.098L113.332 302.068Z" fill="#00B5B0"/>
<path d="M107.807 299.98C105.403 300.069 102.636 300.451 101.487 302.895C100.987 303.974 100.869 305.309 101.487 306.379C102.155 307.547 103.411 307.998 104.628 308.361C106.64 308.95 109.535 309.234 110.516 311.423C111.419 313.445 108.779 314.289 107.277 314.338C104.903 314.416 102.204 314.053 100.516 312.218C99.2302 310.824 97.1497 312.905 98.4353 314.298C100.172 316.192 102.675 316.948 105.158 317.203C107.641 317.458 110.624 317.282 112.39 315.27C114.157 313.258 113.823 310.353 111.959 308.43C109.996 306.408 107.209 306.202 104.696 305.309C104.52 305.25 104.235 305.152 104.117 305.044C104.049 304.975 104.009 304.809 104.009 304.809C103.97 304.514 104.117 304.102 104.353 303.817C105.109 302.934 106.728 302.964 107.807 302.924C109.692 302.856 109.701 299.911 107.807 299.98Z" fill="#00B5B0"/>
<path d="M103.922 324.513C107.759 324.533 111.743 323.925 115.139 322.05C118.338 320.284 120.487 317.379 121.537 313.905C123.343 307.909 122.577 300.107 117.7 295.74C113.411 291.883 107.131 290.617 101.566 291.795C98.8479 292.364 96.2375 293.63 94.206 295.544C91.2816 298.291 89.8978 302.335 89.5544 306.26C89.1814 310.608 90.2806 315.505 93.2934 318.782C96.0608 321.795 100.232 323.719 104.245 324.307C106.1 324.582 106.895 321.736 105.031 321.471C102.018 321.03 98.9951 319.852 96.6398 317.899C93.9705 315.691 92.6849 312.374 92.469 308.959C92.2531 305.544 93.0088 301.765 95.0893 298.949C96.5122 297.025 98.632 295.71 100.899 295.004C105.325 293.63 110.467 294.268 114.354 296.839C118.848 299.822 119.977 305.475 119.27 310.558C118.809 313.846 117.425 317.045 114.589 318.939C111.468 321.02 107.602 321.589 103.922 321.569C102.028 321.569 102.028 324.504 103.922 324.513Z" fill="#00B5B0"/>
<ellipse cx="190.964" cy="307.506" rx="15.2632" ry="15.2632" fill="#FCFEFF"/>
<path d="M182.706 305.575H182.943C183.15 305.575 183.338 305.536 183.515 305.447C183.703 305.388 183.861 305.289 183.989 305.141C184.137 305.003 184.236 304.845 184.295 304.667C184.384 304.49 184.433 304.302 184.423 304.095L184.374 303.7C184.305 303.454 184.177 303.236 183.989 303.049L183.693 302.822C183.466 302.684 183.21 302.625 182.943 302.625H182.706C182.499 302.625 182.311 302.664 182.134 302.753C181.946 302.812 181.788 302.911 181.66 303.059C181.512 303.197 181.413 303.355 181.354 303.532C181.265 303.71 181.216 303.898 181.226 304.105L181.275 304.5C181.344 304.746 181.473 304.963 181.66 305.151L181.956 305.378C182.183 305.516 182.44 305.575 182.706 305.575Z" fill="#00B5B0"/>
<path d="M198.545 302.129C198.545 302.129 198.525 302.129 198.515 302.129C198.515 302.129 198.515 302.129 198.505 302.129C198.436 302.129 198.298 302.159 198.308 302.159C198.318 302.159 198.17 302.168 198.101 302.188H198.081C198.022 302.208 197.933 302.247 197.893 302.267C197.854 302.287 197.765 302.316 197.706 302.346C197.706 302.346 197.696 302.346 197.686 302.356C197.686 302.356 197.686 302.356 197.676 302.356C197.637 302.386 197.42 302.553 197.37 302.593C197.37 302.593 197.361 302.603 197.351 302.612C197.351 302.612 197.351 302.612 197.351 302.622C197.282 302.701 197.183 302.839 197.114 302.928C197.104 302.938 197.094 302.958 197.084 302.978C197.084 302.978 197.084 302.978 197.084 302.988C197.055 303.047 197.025 303.136 197.005 303.165C196.986 303.195 196.956 303.284 196.926 303.343C196.926 303.343 196.926 303.363 196.926 303.372C196.926 303.372 196.926 303.392 196.926 303.402C196.916 303.461 196.877 303.728 196.877 303.797C196.877 303.797 196.877 303.807 196.877 303.817C196.877 303.817 196.877 303.836 196.877 303.846C196.877 303.846 196.877 303.846 196.877 303.856C196.877 303.925 196.897 303.994 196.907 304.053C196.907 304.122 196.926 304.182 196.936 304.251V304.27C196.936 304.27 196.936 304.27 196.936 304.28C196.986 304.399 197.035 304.517 197.084 304.636C197.084 304.636 197.084 304.646 197.094 304.655C197.134 304.705 197.213 304.813 197.213 304.813C197.222 304.833 197.291 304.922 197.331 304.971C197.331 304.971 197.341 304.981 197.351 304.991C197.4 305.03 197.479 305.09 197.509 305.119C197.538 305.139 197.617 305.208 197.666 305.238C197.666 305.238 197.686 305.238 197.686 305.248C197.726 305.267 198.002 305.386 198.042 305.396C198.042 305.396 198.042 305.396 198.051 305.396C198.061 305.396 198.051 305.396 198.061 305.396C198.101 305.396 198.417 305.445 198.456 305.445C198.456 305.445 198.476 305.445 198.486 305.445C198.486 305.445 198.486 305.445 198.495 305.445C198.555 305.445 198.841 305.405 198.89 305.396C198.89 305.396 198.91 305.396 198.92 305.396C198.92 305.396 198.94 305.396 198.949 305.396C199.038 305.356 199.216 305.287 199.305 305.248C199.305 305.248 199.305 305.248 199.315 305.248C199.315 305.248 199.334 305.238 199.344 305.228C199.344 305.228 199.344 305.228 199.354 305.228C199.403 305.188 199.482 305.129 199.512 305.109C199.551 305.08 199.621 305.03 199.67 304.991C199.67 304.991 199.69 304.981 199.69 304.971C199.69 304.971 199.69 304.971 199.7 304.961L199.926 304.665C199.926 304.665 199.936 304.646 199.946 304.636C199.946 304.636 199.946 304.636 199.946 304.616L200.094 304.261C200.094 304.261 200.094 304.241 200.094 304.221C200.104 304.152 200.114 304.053 200.124 304.014C200.124 303.994 200.153 303.876 200.153 303.807C200.153 303.807 200.153 303.807 200.153 303.797C200.134 303.659 200.114 303.53 200.104 303.402C200.104 303.392 200.104 303.382 200.104 303.372C200.055 303.175 199.966 303.007 199.838 302.869C199.729 302.711 199.591 302.583 199.423 302.484C199.255 302.376 199.068 302.316 198.871 302.307C198.673 302.267 198.476 302.267 198.278 302.336L197.923 302.484C197.696 302.612 197.528 302.79 197.39 303.017L197.242 303.372C197.173 303.639 197.173 303.895 197.242 304.162C197.242 304.172 197.242 304.182 197.242 304.192L197.193 303.797C197.193 303.797 197.193 303.826 197.193 303.836L197.242 303.441C197.242 303.441 197.242 303.471 197.232 303.491L197.38 303.136C197.38 303.136 197.361 303.175 197.351 303.185L197.578 302.889C197.578 302.889 197.548 302.918 197.528 302.938L197.824 302.711C197.824 302.711 197.785 302.741 197.765 302.751L198.12 302.603C198.12 302.603 198.081 302.612 198.061 302.622L198.456 302.573C198.456 302.573 198.426 302.573 198.407 302.573L198.801 302.622C198.801 302.622 198.772 302.622 198.762 302.612L199.117 302.761C199.117 302.761 199.088 302.751 199.078 302.741L199.374 302.968C199.374 302.968 199.354 302.948 199.344 302.938L199.571 303.234C199.571 303.234 199.551 303.215 199.551 303.195L199.7 303.55C199.7 303.55 199.69 303.52 199.69 303.501L199.739 303.895C199.739 303.895 199.739 303.856 199.739 303.836L199.69 304.231C199.69 304.231 199.69 304.192 199.709 304.162L199.561 304.517C199.561 304.517 199.581 304.478 199.601 304.458L199.374 304.754C199.374 304.754 199.403 304.724 199.413 304.715L199.117 304.942C199.117 304.942 199.147 304.922 199.157 304.922L198.801 305.07C198.801 305.07 198.831 305.07 198.841 305.06L198.446 305.109C198.446 305.109 198.476 305.109 198.486 305.109C198.693 305.109 198.88 305.07 199.058 304.981C199.246 304.922 199.403 304.823 199.532 304.675C199.68 304.537 199.778 304.379 199.838 304.201C199.926 304.024 199.976 303.836 199.966 303.629L199.917 303.234C199.848 302.988 199.719 302.77 199.532 302.583L199.236 302.356C199.009 302.218 198.752 302.159 198.486 302.159L198.545 302.129Z" fill="#00B5B0"/>
<path d="M193.226 301.027C191.687 300.859 190.118 300.899 188.706 301.619C187.404 302.28 186.436 303.623 186.288 305.083C186.14 306.544 186.95 307.817 188.114 308.636C189.387 309.524 191.006 309.623 192.506 309.653V306.692C190.512 306.791 188.43 306.958 186.782 308.192C185.134 309.426 184.364 311.261 184.867 313.215C185.351 315.061 186.821 316.492 188.568 317.173C190.503 317.933 192.634 317.735 194.628 317.4C195.417 317.272 195.861 316.294 195.664 315.574C195.437 314.735 194.638 314.41 193.838 314.538C191.805 314.883 188.588 315.041 187.769 312.603C187.502 311.814 187.818 311.044 188.588 310.511C189.713 309.732 191.183 309.712 192.496 309.643C194.391 309.554 194.411 306.722 192.496 306.682C191.667 306.662 190.749 306.682 189.999 306.317C189.555 306.1 189.15 305.715 189.22 305.281C189.456 303.593 192.072 303.85 193.216 303.978C194.016 304.067 194.697 303.238 194.697 302.498C194.697 301.629 194.016 301.106 193.216 301.017L193.226 301.027Z" fill="#00B5B0"/>
<path d="M189.782 324.426C193.621 324.446 197.638 323.972 201.013 321.998C204.191 320.133 206.264 317.064 207.211 313.531C208.82 307.501 207.971 299.862 203.007 295.589C198.645 291.829 192.398 290.605 186.841 291.829C184.118 292.431 181.492 293.714 179.479 295.658C176.607 298.431 175.245 302.438 174.9 306.346C174.515 310.777 175.66 315.761 178.778 319.067C181.571 322.028 185.687 323.913 189.674 324.495C191.539 324.772 192.339 321.909 190.463 321.643C187.434 321.199 184.394 320.015 182.025 318.051C179.4 315.88 178.097 312.633 177.841 309.267C177.397 303.237 180.032 297.089 186.052 295.115C190.444 293.674 195.566 294.207 199.503 296.664C204.112 299.536 205.346 304.876 204.862 310.017C204.547 313.373 203.254 316.807 200.461 318.85C197.411 321.08 193.464 321.495 189.792 321.475C187.888 321.465 187.888 324.426 189.792 324.436L189.782 324.426Z" fill="#00B5B0"/>
<path d="M39.3089 316.21C39.1868 316.96 38.6517 317.594 38.0061 317.983C37.3605 318.373 36.6044 318.553 35.8599 318.699C32.8703 319.257 29.747 319.211 26.8156 318.391C26.1118 318.193 25.4139 317.943 24.8264 317.495C24.2913 317.094 23.8726 316.495 23.7737 315.837C23.7737 315.779 23.7621 315.727 23.7621 315.663C23.7213 314.837 24.2274 314.057 24.8962 313.581C25.5709 313.098 26.3852 312.871 27.1937 312.72C28.2522 312.528 29.6249 312.475 31.0208 312.505H31.0615C32.2596 312.563 34.0452 312.685 34.7839 312.76C35.8017 312.865 37.0639 313.121 37.9305 313.662C38.8029 314.197 39.4602 315.203 39.3031 316.21H39.3089Z" fill="white"/>
<path d="M38.0868 316.21C38.0868 315.989 38.0345 316.256 37.9705 316.361C37.8774 316.524 37.7495 316.663 37.5982 316.78C37.2144 317.082 36.7432 317.233 36.2779 317.355C35.1438 317.652 33.9631 317.78 32.794 317.827C30.6536 317.92 28.1526 317.786 26.1751 316.873C25.5004 316.559 24.6803 315.913 25.1282 315.105C25.6109 314.226 26.844 313.994 27.7455 313.854C29.6881 313.563 31.6889 313.738 33.6374 313.877C35.074 313.982 38.302 314.11 38.0926 316.204C38.0286 316.861 38.7033 317.425 39.314 317.425C40.0294 317.425 40.4657 316.861 40.5354 316.204C40.8612 312.953 37.226 311.766 34.6668 311.522C32.1077 311.277 29.3391 311.056 26.7567 311.562C25.3259 311.842 23.866 312.481 23.075 313.773C22.284 315.064 22.4643 316.716 23.4763 317.891C24.4884 319.065 26.0879 319.507 27.5361 319.822C29.0832 320.159 30.6769 320.31 32.2589 320.287C33.9863 320.258 35.8941 320.118 37.5343 319.525C38.9069 319.031 40.5296 317.844 40.5296 316.204C40.5296 314.564 38.0868 314.628 38.0868 316.204V316.21Z" fill="#1B1E24"/>
<path d="M39.4938 319.025C39.4705 319.792 39.4356 320.549 39.3775 321.311C39.3542 321.642 39.331 321.974 39.3019 322.305C39.2902 322.427 39.2786 322.549 39.2263 322.648C39.1623 322.776 39.046 322.858 38.9296 322.939C37.3709 324.05 35.5213 324.73 33.6252 324.888C31.7116 325.05 29.7399 324.899 27.8671 324.475C26.5759 324.184 25.337 323.654 24.1796 323.02C24.0516 322.951 23.9295 322.875 23.8597 322.753C23.7899 322.637 23.7841 322.503 23.7841 322.375C23.7783 322.102 23.7666 321.828 23.7608 321.555C23.7201 320.031 23.6794 318.525 23.6387 317.018C23.6387 316.698 23.6387 316.384 23.6387 316.07C23.6561 315.983 23.6968 315.901 23.7608 315.843C23.7608 315.843 23.7666 315.837 23.7724 315.837C23.8655 316.5 24.2843 317.094 24.8252 317.495C25.4068 317.943 26.1106 318.193 26.8144 318.391C29.7457 319.211 32.8691 319.257 35.8586 318.699C36.6031 318.554 37.3534 318.373 38.0048 317.984C38.6505 317.594 39.1855 316.966 39.3077 316.221C39.3484 316.314 39.3659 316.431 39.3833 316.53C39.5171 317.35 39.5113 318.193 39.488 319.025H39.4938Z" fill="white"/>
<path d="M38.2716 319.025C38.2542 319.647 38.2251 320.264 38.1844 320.88C38.1553 321.34 38.1844 321.886 38.0448 322.323L38.3588 321.782C37.7598 322.532 36.3871 323.015 35.4914 323.288C34.2991 323.649 33.0835 323.748 31.8388 323.73C30.5941 323.713 29.3029 323.567 28.0699 323.271C27.4766 323.131 26.895 322.945 26.3308 322.712C25.8539 322.52 25.0803 322.282 24.7313 321.898L25.0454 322.439C24.9291 322.102 24.9989 321.636 24.9873 321.27C24.9698 320.653 24.9524 320.043 24.9349 319.426C24.9175 318.862 24.9058 318.292 24.8884 317.728C24.8826 317.454 24.8709 317.175 24.8709 316.902C24.8709 316.786 24.8709 316.663 24.8709 316.547C24.8942 316.262 24.8826 316.233 24.8302 316.46L24.394 316.896H24.4056C23.8066 316.646 23.2075 316.402 22.6142 316.157C22.969 317.937 24.5336 318.949 26.1563 319.461C27.9012 320.014 29.774 320.258 31.6003 320.287C33.4267 320.316 35.2297 320.159 36.9455 319.711C38.5682 319.287 40.127 318.28 40.4992 316.541H38.1436C38.3879 317.315 38.3007 318.228 38.2832 319.025C38.2483 320.595 40.6912 320.595 40.7261 319.025C40.7493 318.013 40.8133 316.867 40.4992 315.89C40.1561 314.808 38.4112 314.651 38.1436 315.89C37.8935 317.059 36.5674 317.321 35.5496 317.518C34.2526 317.769 32.9206 317.862 31.5945 317.844C30.2684 317.827 28.9598 317.664 27.6686 317.344C26.5925 317.076 25.2141 316.751 24.964 315.506C24.8128 314.756 23.7949 314.36 23.1726 314.773C22.0442 315.523 22.4281 317.286 22.4572 318.432C22.4921 319.74 22.4746 321.066 22.5619 322.375C22.6666 323.881 23.9985 324.358 25.2315 324.882C26.4646 325.405 27.8023 325.754 29.1633 325.946C31.7981 326.318 34.5666 326.307 37.0676 325.306C38.1087 324.888 39.6733 324.283 40.2666 323.259C40.5923 322.701 40.5458 321.927 40.5865 321.305C40.6388 320.543 40.6795 319.781 40.7028 319.019C40.7493 317.449 38.3065 317.449 38.26 319.019L38.2716 319.025Z" fill="#1B1E24"/>
<path d="M132.108 316.21C131.986 316.96 131.451 317.594 130.805 317.983C130.159 318.373 129.403 318.553 128.659 318.699C125.669 319.257 122.546 319.211 119.614 318.391C118.911 318.193 118.213 317.943 117.625 317.495C117.09 317.094 116.671 316.495 116.573 315.837C116.573 315.779 116.561 315.727 116.561 315.663C116.52 314.837 117.026 314.057 117.695 313.581C118.37 313.098 119.184 312.871 119.992 312.72C121.051 312.528 122.424 312.475 123.82 312.505H123.86C125.058 312.563 126.844 312.685 127.583 312.76C128.601 312.865 129.863 313.121 130.729 313.662C131.602 314.197 132.259 315.203 132.102 316.21H132.108Z" fill="white"/>
<path d="M130.886 316.21C130.886 315.989 130.833 316.256 130.769 316.361C130.676 316.524 130.548 316.663 130.397 316.78C130.013 317.082 129.542 317.233 129.077 317.355C127.943 317.652 126.762 317.78 125.593 317.827C123.452 317.92 120.951 317.786 118.974 316.873C118.299 316.559 117.479 315.913 117.927 315.105C118.41 314.226 119.643 313.994 120.544 313.854C122.487 313.563 124.488 313.738 126.436 313.877C127.873 313.982 131.101 314.11 130.891 316.204C130.827 316.861 131.502 317.425 132.113 317.425C132.828 317.425 133.264 316.861 133.334 316.204C133.66 312.953 130.025 311.766 127.466 311.522C124.907 311.277 122.138 311.056 119.556 311.562C118.125 311.842 116.665 312.481 115.874 313.773C115.083 315.064 115.263 316.716 116.275 317.891C117.287 319.065 118.887 319.507 120.335 319.822C121.882 320.159 123.476 320.31 125.058 320.287C126.785 320.258 128.693 320.118 130.333 319.525C131.706 319.031 133.328 317.844 133.328 316.204C133.328 314.564 130.886 314.628 130.886 316.204V316.21Z" fill="#1B1E24"/>
<path d="M132.295 319.025C132.271 319.792 132.236 320.549 132.178 321.311C132.155 321.642 132.132 321.974 132.103 322.305C132.091 322.427 132.079 322.549 132.027 322.648C131.963 322.776 131.847 322.858 131.73 322.939C130.172 324.05 128.322 324.73 126.426 324.888C124.512 325.05 122.541 324.899 120.668 324.475C119.377 324.184 118.138 323.654 116.98 323.02C116.852 322.951 116.73 322.875 116.66 322.753C116.591 322.637 116.585 322.503 116.585 322.375C116.579 322.102 116.567 321.828 116.562 321.555C116.521 320.031 116.48 318.525 116.439 317.018C116.439 316.698 116.439 316.384 116.439 316.07C116.457 315.983 116.498 315.901 116.562 315.843C116.562 315.843 116.567 315.837 116.573 315.837C116.666 316.5 117.085 317.094 117.626 317.495C118.208 317.943 118.911 318.193 119.615 318.391C122.547 319.211 125.67 319.257 128.659 318.699C129.404 318.554 130.154 318.373 130.806 317.984C131.451 317.594 131.986 316.966 132.108 316.221C132.149 316.314 132.167 316.431 132.184 316.53C132.318 317.35 132.312 318.193 132.289 319.025H132.295Z" fill="white"/>
<path d="M131.072 319.025C131.055 319.647 131.026 320.264 130.985 320.88C130.956 321.34 130.985 321.886 130.846 322.323L131.16 321.782C130.561 322.532 129.188 323.015 128.292 323.288C127.1 323.649 125.884 323.748 124.64 323.73C123.395 323.713 122.104 323.567 120.871 323.271C120.277 323.131 119.696 322.945 119.132 322.712C118.655 322.52 117.881 322.282 117.532 321.898L117.846 322.439C117.73 322.102 117.8 321.636 117.788 321.27C117.771 320.653 117.753 320.043 117.736 319.426C117.718 318.862 117.707 318.292 117.689 317.728C117.683 317.454 117.672 317.175 117.672 316.902C117.672 316.786 117.672 316.663 117.672 316.547C117.695 316.262 117.683 316.233 117.631 316.46L117.195 316.896H117.206C116.607 316.646 116.008 316.402 115.415 316.157C115.77 317.937 117.334 318.949 118.957 319.461C120.702 320.014 122.575 320.258 124.401 320.287C126.227 320.316 128.03 320.159 129.746 319.711C131.369 319.287 132.928 318.28 133.3 316.541H130.944C131.189 317.315 131.101 318.228 131.084 319.025C131.049 320.595 133.492 320.595 133.527 319.025C133.55 318.013 133.614 316.867 133.3 315.89C132.957 314.808 131.212 314.651 130.944 315.89C130.694 317.059 129.368 317.321 128.35 317.518C127.053 317.769 125.721 317.862 124.395 317.844C123.069 317.827 121.761 317.664 120.469 317.344C119.393 317.076 118.015 316.751 117.765 315.506C117.614 314.756 116.596 314.36 115.973 314.773C114.845 315.523 115.229 317.286 115.258 318.432C115.293 319.74 115.275 321.066 115.363 322.375C115.467 323.881 116.799 324.358 118.032 324.882C119.265 325.405 120.603 325.754 121.964 325.946C124.599 326.318 127.367 326.307 129.868 325.306C130.91 324.888 132.474 324.283 133.067 323.259C133.393 322.701 133.347 321.927 133.387 321.305C133.44 320.543 133.48 319.781 133.504 319.019C133.55 317.449 131.107 317.449 131.061 319.019L131.072 319.025Z" fill="#1B1E24"/>
<path d="M215.793 316.21C215.671 316.96 215.136 317.594 214.49 317.983C213.845 318.373 213.089 318.553 212.344 318.699C209.355 319.257 206.231 319.211 203.3 318.391C202.596 318.193 201.898 317.943 201.311 317.495C200.776 317.094 200.357 316.495 200.258 315.837C200.258 315.779 200.246 315.727 200.246 315.663C200.206 314.837 200.712 314.057 201.381 313.581C202.055 313.098 202.87 312.871 203.678 312.72C204.737 312.528 206.109 312.475 207.505 312.505H207.546C208.744 312.563 210.53 312.685 211.268 312.76C212.286 312.865 213.548 313.121 214.415 313.662C215.287 314.197 215.945 315.203 215.787 316.21H215.793Z" fill="white"/>
<path d="M214.571 316.21C214.571 315.989 214.519 316.256 214.455 316.361C214.362 316.524 214.234 316.663 214.083 316.78C213.699 317.082 213.228 317.233 212.762 317.355C211.628 317.652 210.447 317.78 209.278 317.827C207.138 317.92 204.637 317.786 202.659 316.873C201.985 316.559 201.165 315.913 201.613 315.105C202.095 314.226 203.328 313.994 204.23 313.854C206.172 313.563 208.173 313.738 210.122 313.877C211.558 313.982 214.786 314.11 214.577 316.204C214.513 316.861 215.188 317.425 215.798 317.425C216.514 317.425 216.95 316.861 217.02 316.204C217.346 312.953 213.71 311.766 211.151 311.522C208.592 311.277 205.824 311.056 203.241 311.562C201.81 311.842 200.35 312.481 199.559 313.773C198.768 315.064 198.949 316.716 199.961 317.891C200.973 319.065 202.572 319.507 204.02 319.822C205.568 320.159 207.161 320.31 208.743 320.287C210.471 320.258 212.378 320.118 214.019 319.525C215.391 319.031 217.014 317.844 217.014 316.204C217.014 314.564 214.571 314.628 214.571 316.204V316.21Z" fill="#1B1E24"/>
<path d="M215.978 319.025C215.955 319.792 215.92 320.549 215.862 321.311C215.839 321.642 215.815 321.974 215.786 322.305C215.775 322.427 215.763 322.549 215.711 322.648C215.647 322.776 215.53 322.858 215.414 322.939C213.855 324.05 212.006 324.73 210.11 324.888C208.196 325.05 206.224 324.899 204.351 324.475C203.06 324.184 201.821 323.654 200.664 323.02C200.536 322.951 200.414 322.875 200.344 322.753C200.274 322.637 200.268 322.503 200.268 322.375C200.263 322.102 200.251 321.828 200.245 321.555C200.204 320.031 200.164 318.525 200.123 317.018C200.123 316.698 200.123 316.384 200.123 316.07C200.14 315.983 200.181 315.901 200.245 315.843C200.245 315.843 200.251 315.837 200.257 315.837C200.35 316.5 200.769 317.094 201.31 317.495C201.891 317.943 202.595 318.193 203.299 318.391C206.23 319.211 209.353 319.257 212.343 318.699C213.088 318.554 213.838 318.373 214.489 317.984C215.135 317.594 215.67 316.966 215.792 316.221C215.833 316.314 215.85 316.431 215.868 316.53C216.001 317.35 215.996 318.193 215.972 319.025H215.978Z" fill="white"/>
<path d="M214.756 319.025C214.739 319.647 214.709 320.264 214.669 320.88C214.64 321.34 214.669 321.886 214.529 322.323L214.843 321.782C214.244 322.532 212.872 323.015 211.976 323.288C210.783 323.649 209.568 323.748 208.323 323.73C207.079 323.713 205.787 323.567 204.554 323.271C203.961 323.131 203.379 322.945 202.815 322.712C202.338 322.52 201.565 322.282 201.216 321.898L201.53 322.439C201.413 322.102 201.483 321.636 201.472 321.27C201.454 320.653 201.437 320.043 201.419 319.426C201.402 318.862 201.39 318.292 201.373 317.728C201.367 317.454 201.355 317.175 201.355 316.902C201.355 316.786 201.355 316.663 201.355 316.547C201.379 316.262 201.367 316.233 201.315 316.46L200.878 316.896H200.89C200.291 316.646 199.692 316.402 199.099 316.157C199.453 317.937 201.018 318.949 202.641 319.461C204.386 320.014 206.258 320.258 208.085 320.287C209.911 320.316 211.714 320.159 213.43 319.711C215.053 319.287 216.611 318.28 216.984 316.541H214.628C214.872 317.315 214.785 318.228 214.768 319.025C214.733 320.595 217.176 320.595 217.21 319.025C217.234 318.013 217.298 316.867 216.984 315.89C216.64 314.808 214.896 314.651 214.628 315.89C214.378 317.059 213.052 317.321 212.034 317.518C210.737 317.769 209.405 317.862 208.079 317.844C206.753 317.827 205.444 317.664 204.153 317.344C203.077 317.076 201.698 316.751 201.448 315.506C201.297 314.756 200.279 314.36 199.657 314.773C198.529 315.523 198.912 317.286 198.942 318.432C198.976 319.74 198.959 321.066 199.046 322.375C199.151 323.881 200.483 324.358 201.716 324.882C202.949 325.405 204.287 325.754 205.648 325.946C208.282 326.318 211.051 326.307 213.552 325.306C214.593 324.888 216.158 324.283 216.751 323.259C217.077 322.701 217.03 321.927 217.071 321.305C217.123 320.543 217.164 319.781 217.187 319.019C217.234 317.449 214.791 317.449 214.744 319.019L214.756 319.025Z" fill="#1B1E24"/>
<path d="M41.5354 307.093L39.454 310.368C39.1853 310.791 39.3053 311.434 39.7561 311.693C40.2069 311.953 40.7959 311.858 41.0842 311.404L43.1656 308.129C43.4343 307.706 43.3143 307.063 42.8635 306.804C42.4127 306.544 41.8237 306.639 41.5354 307.093Z" fill="#00B5B0"/>
<path d="M48.6988 308.851C46.6703 309.961 44.6696 311.126 42.6378 312.234C42.171 312.489 41.9667 313.178 42.2264 313.595C42.5081 314.047 43.0517 314.16 43.5522 313.883C45.5808 312.773 47.5815 311.608 49.6132 310.5C50.0801 310.245 50.2844 309.556 50.0246 309.139C49.7429 308.687 49.1994 308.574 48.6988 308.851Z" fill="#00B5B0"/>
<path d="M134.338 307.093L132.257 310.368C131.988 310.791 132.108 311.434 132.559 311.693C133.01 311.953 133.599 311.858 133.887 311.404L135.968 308.129C136.237 307.706 136.117 307.063 135.666 306.804C135.215 306.544 134.626 306.639 134.338 307.093Z" fill="#00B5B0"/>
<path d="M141.498 308.851C139.469 309.961 137.468 311.126 135.437 312.234C134.97 312.489 134.765 313.178 135.025 313.595C135.307 314.047 135.85 314.16 136.351 313.883C138.38 312.773 140.38 311.608 142.412 310.5C142.879 310.245 143.083 309.556 142.823 309.139C142.542 308.687 141.998 308.574 141.498 308.851Z" fill="#00B5B0"/>
<path d="M218.022 307.093L215.94 310.368C215.672 310.791 215.792 311.434 216.242 311.693C216.693 311.953 217.282 311.858 217.571 311.404L219.652 308.129C219.921 307.706 219.801 307.063 219.35 306.804C218.899 306.544 218.31 306.639 218.022 307.093Z" fill="#00B5B0"/>
<path d="M225.185 308.851C223.157 309.961 221.156 311.126 219.124 312.234C218.657 312.489 218.453 313.178 218.713 313.595C218.994 314.047 219.538 314.16 220.039 313.883C222.067 312.773 224.068 311.608 226.1 310.5C226.566 310.245 226.771 309.556 226.511 309.139C226.229 308.687 225.686 308.574 225.185 308.851Z" fill="#00B5B0"/>
<path fill-rule="evenodd" clip-rule="evenodd" d="M53.7322 360.8C61.199 352.741 70.1343 346.014 79.9408 341.136C82.7533 339.727 85.8644 340.432 87.6067 343.172C89.1747 345.624 88.2414 349.61 85.6031 350.918C84.912 351.262 84.2254 351.615 83.5435 351.977C88.7508 350.574 93.9585 349.174 99.1678 347.774C99.2765 347.745 99.3851 347.719 99.4937 347.697C102.276 345.904 105.155 344.264 108.112 342.793C110.925 341.385 114.036 342.089 115.778 344.83C117.346 347.281 116.413 351.267 113.775 352.575C113.084 352.919 112.397 353.272 111.715 353.634C116.797 352.265 121.88 350.898 126.964 349.532C130.217 347.342 133.608 345.364 137.111 343.621C139.923 342.213 143.034 342.917 144.777 345.658C146.345 348.11 145.411 352.096 142.773 353.403C142.082 353.748 141.395 354.101 140.713 354.463C145.921 353.06 151.128 351.659 156.338 350.26C158.814 349.594 161.303 350.738 162.66 352.863C163.917 354.824 163.605 358.181 161.789 359.715C160.697 360.64 159.579 361.518 158.439 362.356L158.59 362.318C161.639 361.551 164.564 363.399 165.485 366.266C166.406 369.132 164.414 372.515 161.577 373.231C147.452 376.789 133.502 380.951 119.738 385.716C115.047 387.341 111.253 381.632 113.216 377.691C105.671 379.914 98.178 382.313 90.7396 384.888C85.7571 386.613 81.7859 380.064 84.6528 376.149C77.2398 378.34 69.8775 380.7 62.5679 383.231C57.2665 385.066 53.11 377.535 57.1172 373.776C58.8155 372.182 60.6059 370.724 62.4651 369.37C61.3711 369.665 60.2771 369.96 59.183 370.255C53.67 371.751 49.9614 364.874 53.7322 360.8Z" fill="#E5F8F7"/>
<path d="M94.557 363.569C95.0797 363.569 95.495 363.396 95.803 363.051C96.1204 362.696 96.279 362.22 96.279 361.623C96.279 361.025 96.1204 360.549 95.803 360.195C95.495 359.84 95.0797 359.663 94.557 359.663H91.897V363.569H94.557ZM89.993 358.039H94.921C95.5557 358.039 96.1204 358.188 96.615 358.487C97.1097 358.785 97.4924 359.201 97.763 359.733C98.043 360.265 98.183 360.871 98.183 361.553C98.183 363.046 97.455 364.161 95.999 364.899L98.673 368.539H96.321L93.857 365.207H91.897V368.539H89.993V358.039ZM104.694 364.101C104.61 363.681 104.414 363.321 104.106 363.023C103.807 362.715 103.41 362.561 102.916 362.561C102.44 362.561 102.024 362.715 101.67 363.023C101.324 363.321 101.11 363.681 101.026 364.101H104.694ZM99.2758 364.815C99.2758 364.077 99.4298 363.424 99.7378 362.855C100.046 362.276 100.475 361.828 101.026 361.511C101.576 361.184 102.206 361.021 102.916 361.021C103.616 361.021 104.199 361.165 104.666 361.455C105.132 361.744 105.468 362.047 105.674 362.365C105.888 362.673 106.019 362.901 106.066 363.051C106.29 363.508 106.402 364.101 106.402 364.829L106.388 365.445H101.026C101.1 365.902 101.324 366.28 101.698 366.579C102.071 366.877 102.482 367.027 102.93 367.027C103.294 367.027 103.592 366.975 103.826 366.873C104.059 366.77 104.47 366.415 105.058 365.809C105.655 365.202 105.487 365.365 104.554 366.299L106.094 366.901C105.86 367.367 105.473 367.764 104.932 368.091C104.4 368.417 103.728 368.581 102.916 368.581C102.206 368.581 101.576 368.422 101.026 368.105C100.475 367.787 100.046 367.344 99.7378 366.775C99.4298 366.196 99.2758 365.543 99.2758 364.815ZM115.426 368.539H113.62L112.206 363.695L110.792 368.539H108.986L106.76 361.021H108.734L109.924 365.851L111.226 361.021H113.158L114.474 365.851L115.664 361.021H117.638L115.426 368.539ZM121.581 367.069C121.926 367.069 122.248 366.971 122.547 366.775C122.845 366.569 123.083 366.299 123.261 365.963C123.438 365.617 123.527 365.235 123.527 364.815C123.527 364.395 123.438 364.017 123.261 363.681C123.083 363.335 122.845 363.065 122.547 362.869C122.248 362.663 121.926 362.561 121.581 362.561C121.03 362.561 120.587 362.766 120.251 363.177C119.915 363.587 119.747 364.133 119.747 364.815C119.747 365.496 119.915 366.042 120.251 366.453C120.587 366.863 121.03 367.069 121.581 367.069ZM117.843 364.815C117.843 364.087 117.992 363.438 118.291 362.869C118.599 362.29 119.019 361.842 119.551 361.525C120.092 361.198 120.708 361.035 121.399 361.035C121.8 361.035 122.187 361.123 122.561 361.301C122.934 361.478 123.256 361.739 123.527 362.085V361.021H125.431V368.539L123.527 368.553V367.531C123.256 367.876 122.934 368.137 122.561 368.315C122.187 368.492 121.8 368.581 121.399 368.581C120.708 368.581 120.092 368.422 119.551 368.105C119.019 367.778 118.599 367.33 118.291 366.761C117.992 366.191 117.843 365.543 117.843 364.815ZM128.836 362.295C129.051 361.912 129.354 361.604 129.746 361.371C130.147 361.128 130.558 361.007 130.978 361.007V362.687C130.549 362.687 130.171 362.803 129.844 363.037C129.517 363.261 129.265 363.545 129.088 363.891C128.92 364.236 128.836 364.577 128.836 364.913V368.539H126.96V361.021H128.836V362.295ZM134.948 368.581C134.258 368.581 133.642 368.422 133.1 368.105C132.559 367.778 132.134 367.33 131.826 366.761C131.528 366.182 131.378 365.529 131.378 364.801C131.378 364.063 131.528 363.41 131.826 362.841C132.134 362.262 132.559 361.814 133.1 361.497C133.642 361.17 134.258 361.007 134.948 361.007C135.266 361.007 135.63 361.081 136.04 361.231C136.451 361.38 136.801 361.66 137.09 362.071V358.039H138.994V368.553H137.09V367.531C136.801 367.904 136.442 368.175 136.012 368.343C135.583 368.501 135.228 368.581 134.948 368.581ZM133.282 364.843C133.282 365.533 133.446 366.084 133.772 366.495C134.108 366.896 134.556 367.097 135.116 367.097C135.471 367.097 135.798 366.999 136.096 366.803C136.404 366.597 136.647 366.322 136.824 365.977C137.002 365.631 137.09 365.253 137.09 364.843C137.09 364.432 137.002 364.054 136.824 363.709C136.647 363.354 136.404 363.079 136.096 362.883C135.798 362.677 135.471 362.575 135.116 362.575C134.556 362.575 134.108 362.78 133.772 363.191C133.446 363.601 133.282 364.152 133.282 364.843ZM141.893 366.033C142.042 366.359 142.266 366.621 142.565 366.817C142.863 367.013 143.139 367.111 143.391 367.111C143.727 367.111 143.993 367.045 144.189 366.915C144.394 366.784 144.497 366.607 144.497 366.383C144.497 366.196 144.389 366.042 144.175 365.921C143.96 365.799 143.633 365.659 143.195 365.501C142.691 365.314 142.275 365.137 141.949 364.969C141.622 364.801 141.337 364.572 141.095 364.283C140.861 363.984 140.745 363.615 140.745 363.177C140.745 362.505 141.006 361.977 141.529 361.595C142.061 361.203 142.737 361.007 143.559 361.007C144.081 361.007 144.599 361.161 145.113 361.469C145.626 361.767 145.99 362.206 146.205 362.785L144.679 363.373C144.548 363.046 144.375 362.827 144.161 362.715C143.955 362.603 143.755 362.547 143.559 362.547C143.269 362.547 143.045 362.607 142.887 362.729C142.728 362.841 142.649 362.99 142.649 363.177C142.649 363.354 142.751 363.503 142.957 363.625C143.162 363.737 143.489 363.872 143.937 364.031C144.441 364.217 144.856 364.395 145.183 364.563C145.509 364.731 145.789 364.964 146.023 365.263C146.265 365.552 146.387 365.911 146.387 366.341C146.387 367.041 146.116 367.601 145.575 368.021C145.033 368.431 144.305 368.637 143.391 368.637C142.812 368.637 142.243 368.469 141.683 368.133C141.132 367.787 140.731 367.353 140.479 366.831L141.893 366.033Z" fill="#00B5B0"/>
<path d="M82.5611 360.959C82.5611 360.812 82.5262 360.99 82.4836 361.06C82.4215 361.169 82.3362 361.262 82.2354 361.339C81.9795 361.541 81.6654 361.642 81.3552 361.723C80.5991 361.921 79.812 362.006 79.0326 362.037C77.6057 362.099 75.9383 362.01 74.62 361.401C74.1702 361.192 73.6235 360.761 73.922 360.222C74.2439 359.637 75.0659 359.482 75.6669 359.389C76.962 359.195 78.2959 359.311 79.5948 359.404C80.5526 359.474 82.7046 359.559 82.565 360.955C82.5224 361.393 82.9721 361.77 83.3793 361.77C83.8562 361.77 84.147 361.393 84.1936 360.955C84.4107 358.788 81.9873 357.997 80.2812 357.834C78.575 357.671 76.7294 357.524 75.0077 357.861C74.0539 358.047 73.0806 358.474 72.5533 359.334C72.0259 360.195 72.1461 361.296 72.8208 362.08C73.4955 362.863 74.5618 363.158 75.5273 363.367C76.5587 363.592 77.6212 363.693 78.6759 363.677C79.8275 363.658 81.0993 363.565 82.1928 363.169C83.1079 362.84 84.1897 362.049 84.1897 360.955C84.1897 359.862 82.5611 359.904 82.5611 360.955V360.959Z" fill="#00B5B0"/>
<path d="M82.6863 362.836C82.6746 363.251 82.6553 363.662 82.6281 364.073C82.6087 364.379 82.6281 364.743 82.5351 365.034L82.7444 364.674C82.3451 365.174 81.43 365.496 80.8328 365.678C80.0379 365.918 79.2275 365.984 78.3978 365.973C77.568 365.961 76.7072 365.864 75.8851 365.666C75.4896 365.573 75.1019 365.449 74.7257 365.294C74.4078 365.166 73.8921 365.007 73.6594 364.751L73.8688 365.112C73.7913 364.887 73.8378 364.577 73.83 364.332C73.8184 363.921 73.8068 363.514 73.7951 363.103C73.7835 362.727 73.7758 362.347 73.7641 361.971C73.7602 361.789 73.7525 361.603 73.7525 361.42C73.7525 361.343 73.7525 361.261 73.7525 361.184C73.768 360.994 73.7602 360.975 73.7254 361.126L73.4345 361.417H73.4423C73.0429 361.25 72.6435 361.087 72.248 360.924C72.4845 362.111 73.5276 362.785 74.6094 363.127C75.7727 363.495 77.0212 363.658 78.2388 363.677C79.4563 363.697 80.6583 363.592 81.8022 363.293C82.884 363.01 83.9232 362.339 84.1714 361.18H82.601C82.7638 361.696 82.7057 362.305 82.694 362.836C82.6708 363.883 84.2993 363.883 84.3226 362.836C84.3381 362.161 84.3808 361.397 84.1714 360.746C83.9426 360.025 82.7793 359.92 82.601 360.746C82.4342 361.525 81.5502 361.7 80.8716 361.831C80.0069 361.998 79.119 362.06 78.2349 362.049C77.3508 362.037 76.4784 361.928 75.6176 361.715C74.9002 361.537 73.9813 361.32 73.8145 360.49C73.7137 359.99 73.0352 359.726 72.6203 360.001C71.868 360.501 72.1239 361.676 72.1433 362.44C72.1666 363.313 72.155 364.197 72.2131 365.069C72.2829 366.073 73.1709 366.391 73.9929 366.74C74.8149 367.089 75.7068 367.322 76.6141 367.45C78.3706 367.698 80.2163 367.69 81.8836 367.023C82.5777 366.744 83.6208 366.341 84.0163 365.659C84.2334 365.286 84.2024 364.771 84.2295 364.356C84.2644 363.848 84.2916 363.34 84.3071 362.832C84.3381 361.785 82.7095 361.785 82.6785 362.832L82.6863 362.836Z" fill="#00B5B0"/>
</svg>
