<svg width="650" height="431" viewBox="0 0 650 431" fill="none" xmlns="http://www.w3.org/2000/svg">
<path d="M346.8 141.904C342.345 146.906 335.68 149.565 329.212 150.496C322.327 151.481 315.936 150.145 309.73 147.048C305.188 144.771 300.602 141.543 298.085 136.957C293.937 129.394 293.138 120.222 295.173 111.849C296.29 107.253 298.282 102.798 301.478 99.2848C314.83 84.6844 345.388 89.0842 351.681 108.675C354.943 118.832 354.144 133.662 346.8 141.904Z" fill="white"/>
<path d="M344.951 140.043C340.475 144.958 333.809 147.563 327.264 148.088C320.161 148.657 313.244 146.479 307.301 142.648C304.499 140.842 301.982 138.566 300.351 135.622C298.72 132.678 297.626 129.241 297.089 125.826C296.039 119.216 297.035 111.839 300.132 105.863C304.827 96.7896 314.481 92.9918 324.167 93.2654C332.857 93.5171 342.259 97.315 346.998 104.79C350.073 109.65 351.004 115.943 350.894 121.809C350.774 128.179 349.263 135.118 344.962 140.033C342.74 142.572 346.44 146.293 348.672 143.743C353.236 138.522 355.327 131.802 355.962 124.994C356.564 118.57 355.885 111.609 353.346 105.633C348.957 95.3011 338.297 89.577 327.56 88.2636C316.823 86.9502 304.718 90.4963 297.91 99.5258C293.16 105.852 291.212 114.389 291.508 122.171C291.803 129.952 294.353 138.446 300.307 143.863C311.996 154.502 331.04 156.877 344.24 147.617C345.849 146.49 347.348 145.209 348.672 143.765C350.949 141.269 347.239 137.548 344.962 140.054L344.951 140.043Z" fill="#1B1E24"/>
<path d="M307.652 116.074H308.122C308.527 116.085 308.91 116.009 309.26 115.823C309.622 115.702 309.939 115.505 310.213 115.21C310.497 114.947 310.705 114.63 310.826 114.257C311.012 113.907 311.099 113.524 311.077 113.119L310.968 112.331C310.826 111.828 310.574 111.401 310.213 111.029L309.611 110.569C309.151 110.306 308.647 110.164 308.122 110.164H307.652C307.247 110.153 306.863 110.23 306.513 110.416C306.152 110.536 305.835 110.733 305.561 111.029C305.276 111.291 305.069 111.609 304.948 111.981C304.762 112.331 304.675 112.714 304.696 113.119L304.806 113.907C304.948 114.411 305.2 114.838 305.561 115.21L306.163 115.669C306.623 115.932 307.126 116.074 307.652 116.074Z" fill="#1B1E24"/>
<path d="M338.121 109.212C338.121 109.212 338.088 109.212 338.066 109.212C338.066 109.212 338.055 109.212 338.045 109.212C337.913 109.223 337.651 109.267 337.64 109.267C337.64 109.267 337.366 109.299 337.235 109.321C337.224 109.321 337.202 109.321 337.191 109.332C337.191 109.332 337.18 109.332 337.169 109.332C337.114 109.354 336.512 109.606 336.458 109.628C336.458 109.628 336.447 109.628 336.436 109.628C336.425 109.628 336.403 109.639 336.392 109.65C336.392 109.65 336.381 109.65 336.37 109.661C336.282 109.726 335.845 110.055 335.768 110.12C335.768 110.12 335.768 110.12 335.757 110.12C335.648 110.219 335.516 110.416 335.462 110.492C335.385 110.591 335.243 110.744 335.177 110.875C335.177 110.875 335.177 110.886 335.177 110.897C335.089 111.083 334.958 111.423 334.871 111.609C334.871 111.609 334.871 111.609 334.871 111.62C334.871 111.642 334.86 111.652 334.849 111.674C334.849 111.696 334.849 111.707 334.838 111.729C334.838 111.729 334.838 111.74 334.838 111.751C334.816 111.882 334.75 112.408 334.728 112.539C334.728 112.539 334.728 112.55 334.728 112.561C334.728 112.583 334.728 112.594 334.728 112.616C334.728 112.616 334.728 112.627 334.728 112.638C334.728 112.638 334.728 112.638 334.728 112.648C334.761 112.922 334.794 113.185 334.838 113.436C334.86 113.59 334.958 113.765 335.013 113.885C335.035 113.94 335.111 114.159 335.177 114.279C335.177 114.279 335.177 114.29 335.188 114.301C335.341 114.509 335.494 114.706 335.648 114.903C335.648 114.914 335.67 114.925 335.68 114.936C335.877 115.122 336.096 115.275 336.315 115.428C336.326 115.428 336.348 115.45 336.359 115.45C336.479 115.505 336.742 115.614 336.72 115.604C336.666 115.582 336.961 115.713 337.081 115.757C337.081 115.757 337.103 115.757 337.114 115.757C337.388 115.833 337.694 115.844 337.946 115.866C337.968 115.866 337.979 115.866 338.001 115.866C338.001 115.866 338.023 115.866 338.034 115.866C338.034 115.866 338.034 115.866 338.045 115.866C338.154 115.855 338.734 115.779 338.833 115.757C338.854 115.757 338.876 115.757 338.887 115.746C338.909 115.746 338.92 115.735 338.942 115.724C339.062 115.68 339.238 115.604 339.303 115.571C339.369 115.538 339.555 115.472 339.664 115.417C339.664 115.417 339.686 115.417 339.686 115.407C339.708 115.407 339.719 115.385 339.73 115.374C339.949 115.22 340.168 115.056 340.365 114.881C340.387 114.87 340.398 114.848 340.409 114.837C340.409 114.837 340.42 114.826 340.431 114.816C340.431 114.816 340.431 114.816 340.431 114.805C340.529 114.684 340.803 114.323 340.901 114.203C340.912 114.181 340.923 114.17 340.934 114.148C340.934 114.148 340.934 114.126 340.945 114.126C341 114.006 341.087 113.798 341.098 113.765C341.12 113.71 341.208 113.524 341.251 113.404C341.251 113.382 341.262 113.36 341.273 113.349C341.328 113.075 341.372 112.791 341.383 112.506C341.383 112.506 341.383 112.484 341.383 112.473C341.383 112.473 341.383 112.462 341.383 112.451C341.35 112.178 341.317 111.915 341.273 111.652C341.273 111.631 341.273 111.609 341.262 111.587C341.175 111.204 341 110.864 340.737 110.58C340.529 110.262 340.255 110 339.905 109.814C339.566 109.595 339.205 109.485 338.811 109.464C338.417 109.376 338.023 109.398 337.629 109.518L336.928 109.814C336.479 110.076 336.129 110.427 335.867 110.875L335.571 111.576C335.429 112.101 335.429 112.627 335.571 113.152C335.571 113.174 335.582 113.196 335.582 113.218L335.473 112.43C335.473 112.43 335.473 112.484 335.473 112.517L335.582 111.729C335.582 111.729 335.571 111.795 335.56 111.828L335.856 111.127C335.856 111.127 335.823 111.193 335.801 111.226L336.261 110.624C336.261 110.624 336.195 110.689 336.162 110.722L336.764 110.262C336.764 110.262 336.687 110.306 336.655 110.328L337.355 110.033C337.355 110.033 337.278 110.065 337.235 110.065L338.023 109.956C338.023 109.956 337.957 109.956 337.924 109.956L338.712 110.065C338.712 110.065 338.657 110.055 338.636 110.044L339.336 110.339C339.336 110.339 339.281 110.317 339.259 110.295L339.861 110.755C339.861 110.755 339.818 110.722 339.807 110.7L340.266 111.302C340.266 111.302 340.234 111.248 340.223 111.226L340.518 111.926C340.518 111.926 340.496 111.86 340.496 111.828L340.606 112.616C340.606 112.616 340.606 112.539 340.606 112.495L340.496 113.283C340.496 113.283 340.518 113.185 340.529 113.141L340.234 113.841C340.234 113.841 340.277 113.765 340.299 113.721L339.839 114.323C339.839 114.323 339.894 114.268 339.916 114.235L339.314 114.695C339.314 114.695 339.369 114.662 339.402 114.64L338.701 114.936C338.701 114.936 338.756 114.914 338.778 114.914L337.99 115.023C337.99 115.023 338.045 115.023 338.077 115.023C338.482 115.034 338.865 114.958 339.216 114.772C339.577 114.651 339.894 114.454 340.168 114.159C340.452 113.896 340.66 113.579 340.781 113.207C340.967 112.856 341.054 112.473 341.032 112.068L340.923 111.28C340.781 110.777 340.529 110.35 340.168 109.978L339.566 109.518C339.106 109.256 338.603 109.113 338.077 109.113L338.121 109.212Z" fill="#1B1E24"/>
<path d="M327.526 105.326C322.732 105.502 317.26 106.311 315.148 111.269C314.272 113.327 314.141 115.779 315.29 117.771C316.548 119.971 318.956 120.824 321.255 121.514C325.381 122.74 331.149 123.342 333.163 127.807C333.918 129.482 333.513 131.145 332.167 132.371C330.602 133.794 328.402 134.155 326.355 134.21C321.583 134.341 316.231 133.553 312.871 129.843C310.594 127.326 306.895 131.058 309.161 133.553C312.565 137.318 317.512 138.818 322.415 139.299C327.318 139.781 333.13 139.398 336.556 135.359C339.981 131.32 339.029 125.432 335.187 121.809C333.206 119.938 330.755 118.8 328.183 117.979C325.775 117.202 323.115 116.873 320.806 115.823C319.35 115.155 319.416 113.831 320.434 112.517C321.955 110.558 325.326 110.646 327.537 110.569C330.908 110.449 330.919 105.195 327.537 105.316L327.526 105.326Z" fill="#1B1E24"/>
<path d="M321.655 203.259C313.591 203.625 304.139 202.981 296.086 202.303C289.843 201.769 283.234 200.769 278.502 196.657C277.336 195.646 276.358 194.379 275.636 192.979C274.581 188.633 275.303 183.888 278.136 180.443C280.546 177.531 284.089 175.809 287.61 174.442C307.849 166.529 330.619 167.574 351.746 172.586C356.422 173.697 361.165 175.042 365.042 177.887C368.919 180.721 371.795 185.333 371.351 190.123C370.862 195.335 366.519 199.536 361.643 201.436C356.767 203.325 351.391 203.359 346.159 203.37C342.493 203.381 338.839 203.392 335.173 203.392C332.719 203.403 327.465 204.125 320.8 203.259" fill="#EFF2F3"/>
<path d="M321.655 201.591C314.235 201.914 306.804 201.48 299.406 200.902C292.986 200.402 285.7 200.091 280.357 196.024C279.179 195.124 277.891 193.923 277.291 192.545C276.636 191.023 276.725 188.856 276.958 187.244C277.435 183.91 279.235 181.11 281.967 179.165C284.9 177.075 288.399 175.82 291.787 174.697C295.174 173.575 298.74 172.641 302.306 171.963C316.857 169.163 331.985 170.152 346.436 173.119C353.168 174.497 361.121 175.853 366.108 181.021C368.23 183.221 369.774 186.155 369.729 189.267C369.685 192.379 368.03 194.979 365.819 196.968C359.643 202.514 350.268 201.68 342.582 201.703C339.083 201.703 335.595 201.669 332.107 201.869C328.331 202.08 324.565 202.058 320.8 201.591C318.678 201.325 318.7 204.659 320.8 204.925C324.51 205.392 328.22 205.426 331.941 205.214C335.395 205.025 338.85 205.059 342.304 205.048C350.091 205.026 358.899 205.637 365.73 201.203C371.54 197.424 374.772 190.656 371.984 183.966C368.918 176.598 361.321 173.297 354.067 171.441C338.417 167.429 321.866 165.751 305.816 168.018C297.951 169.129 289.665 171.108 282.612 174.875C279.468 176.553 276.613 178.942 275.058 182.21C273.503 185.477 273.037 189.456 273.925 192.99C274.914 196.902 279.335 199.747 282.8 201.214C286.466 202.769 290.398 203.403 294.33 203.803C303.361 204.725 312.569 205.314 321.644 204.925C323.777 204.837 323.788 201.503 321.644 201.591L321.655 201.591Z" fill="#EFF2F3"/>
<path d="M297.772 188.865C298.204 189.393 298.708 189.819 299.284 190.143C299.86 190.467 300.418 190.629 300.958 190.629C301.498 190.629 301.978 190.545 302.398 190.377C302.83 190.209 303.166 189.963 303.406 189.639C303.646 189.315 303.766 188.949 303.766 188.541C303.766 188.193 303.646 187.899 303.406 187.659C303.166 187.407 302.86 187.209 302.488 187.065C302.116 186.921 301.612 186.747 300.976 186.543C300.064 186.267 299.32 186.003 298.744 185.751C298.168 185.487 297.676 185.097 297.268 184.581C296.86 184.065 296.662 183.393 296.674 182.565C296.674 181.845 296.872 181.209 297.268 180.657C297.664 180.093 298.204 179.661 298.888 179.361C299.584 179.049 300.376 178.899 301.264 178.911C302.032 178.923 302.794 179.121 303.55 179.505C304.318 179.877 304.948 180.375 305.44 180.999L303.856 182.241C303.52 181.797 303.112 181.443 302.632 181.179C302.152 180.903 301.684 180.765 301.228 180.765C300.532 180.753 299.956 180.921 299.5 181.269C299.056 181.617 298.834 182.061 298.834 182.601C298.834 182.973 298.954 183.285 299.194 183.537C299.446 183.789 299.764 183.999 300.148 184.167C300.532 184.323 301.054 184.509 301.714 184.725C302.614 185.013 303.34 185.289 303.892 185.553C304.456 185.817 304.936 186.195 305.332 186.687C305.74 187.179 305.938 187.809 305.926 188.577C305.926 189.345 305.71 190.029 305.278 190.629C304.846 191.229 304.252 191.691 303.496 192.015C302.74 192.339 301.888 192.495 300.94 192.483C300.064 192.471 299.188 192.249 298.312 191.817C297.436 191.385 296.716 190.821 296.152 190.125L297.772 188.865ZM313.711 186.831C313.651 186.447 313.525 186.087 313.333 185.751C313.141 185.415 312.877 185.139 312.541 184.923C312.205 184.707 311.797 184.599 311.317 184.599C310.885 184.599 310.483 184.701 310.111 184.905C309.739 185.097 309.433 185.367 309.193 185.715C308.953 186.051 308.797 186.423 308.725 186.831H313.711ZM315.277 185.409C315.505 185.913 315.631 186.417 315.655 186.921C315.691 187.425 315.697 187.875 315.673 188.271V188.415H308.725C308.797 188.847 308.959 189.237 309.211 189.585C309.475 189.921 309.787 190.185 310.147 190.377C310.519 190.557 310.909 190.647 311.317 190.647C311.977 190.647 312.475 190.533 312.811 190.305C313.159 190.077 313.411 189.849 313.567 189.621L313.585 189.585L315.331 190.323C315.043 190.911 314.557 191.409 313.873 191.817C313.189 192.225 312.331 192.429 311.299 192.429C310.411 192.429 309.619 192.231 308.923 191.835C308.227 191.427 307.681 190.863 307.285 190.143C306.901 189.411 306.709 188.577 306.709 187.641C306.709 186.705 306.901 185.877 307.285 185.157C307.681 184.425 308.227 183.855 308.923 183.447C309.619 183.039 310.411 182.835 311.299 182.835C312.175 182.835 312.901 183.015 313.477 183.375C314.065 183.723 314.491 184.095 314.755 184.491C315.019 184.875 315.193 185.181 315.277 185.409ZM323.467 186.831C323.407 186.447 323.281 186.087 323.089 185.751C322.897 185.415 322.633 185.139 322.297 184.923C321.961 184.707 321.553 184.599 321.073 184.599C320.641 184.599 320.239 184.701 319.867 184.905C319.495 185.097 319.189 185.367 318.949 185.715C318.709 186.051 318.553 186.423 318.481 186.831H323.467ZM325.033 185.409C325.261 185.913 325.387 186.417 325.411 186.921C325.447 187.425 325.453 187.875 325.429 188.271V188.415H318.481C318.553 188.847 318.715 189.237 318.967 189.585C319.231 189.921 319.543 190.185 319.903 190.377C320.275 190.557 320.665 190.647 321.073 190.647C321.733 190.647 322.231 190.533 322.567 190.305C322.915 190.077 323.167 189.849 323.323 189.621L323.341 189.585L325.087 190.323C324.799 190.911 324.313 191.409 323.629 191.817C322.945 192.225 322.087 192.429 321.055 192.429C320.167 192.429 319.375 192.231 318.679 191.835C317.983 191.427 317.437 190.863 317.041 190.143C316.657 189.411 316.465 188.577 316.465 187.641C316.465 186.705 316.657 185.877 317.041 185.157C317.437 184.425 317.983 183.855 318.679 183.447C319.375 183.039 320.167 182.835 321.055 182.835C321.931 182.835 322.657 183.015 323.233 183.375C323.821 183.723 324.247 184.095 324.511 184.491C324.775 184.875 324.949 185.181 325.033 185.409ZM330.758 192.465C329.882 192.465 329.096 192.261 328.4 191.853C327.716 191.433 327.182 190.863 326.798 190.143C326.414 189.411 326.222 188.577 326.222 187.641C326.222 186.717 326.414 185.889 326.798 185.157C327.182 184.425 327.716 183.855 328.4 183.447C329.096 183.027 329.882 182.817 330.758 182.817C331.046 182.817 331.352 182.859 331.676 182.943C332 183.027 332.336 183.183 332.684 183.411C333.044 183.639 333.356 183.951 333.62 184.347V179.001H335.78V192.393H333.62V190.953C333.236 191.493 332.768 191.883 332.216 192.123C331.676 192.351 331.19 192.465 330.758 192.465ZM330.938 190.737C331.418 190.737 331.862 190.605 332.27 190.341C332.678 190.065 333.002 189.693 333.242 189.225C333.494 188.757 333.62 188.247 333.62 187.695C333.62 187.143 333.494 186.633 333.242 186.165C333.002 185.685 332.678 185.307 332.27 185.031C331.862 184.755 331.418 184.617 330.938 184.617C330.422 184.617 329.972 184.743 329.588 184.995C329.204 185.247 328.904 185.607 328.688 186.075C328.484 186.543 328.382 187.083 328.382 187.695C328.382 188.295 328.484 188.829 328.688 189.297C328.904 189.753 329.204 190.107 329.588 190.359C329.972 190.611 330.422 190.737 330.938 190.737ZM343.684 186.831C343.624 186.447 343.498 186.087 343.306 185.751C343.114 185.415 342.85 185.139 342.514 184.923C342.178 184.707 341.77 184.599 341.29 184.599C340.858 184.599 340.456 184.701 340.084 184.905C339.712 185.097 339.406 185.367 339.166 185.715C338.926 186.051 338.77 186.423 338.698 186.831H343.684ZM345.25 185.409C345.478 185.913 345.604 186.417 345.628 186.921C345.664 187.425 345.67 187.875 345.646 188.271V188.415H338.698C338.77 188.847 338.932 189.237 339.184 189.585C339.448 189.921 339.76 190.185 340.12 190.377C340.492 190.557 340.882 190.647 341.29 190.647C341.95 190.647 342.448 190.533 342.784 190.305C343.132 190.077 343.384 189.849 343.54 189.621L343.558 189.585L345.304 190.323C345.016 190.911 344.53 191.409 343.846 191.817C343.162 192.225 342.304 192.429 341.272 192.429C340.384 192.429 339.592 192.231 338.896 191.835C338.2 191.427 337.654 190.863 337.258 190.143C336.874 189.411 336.682 188.577 336.682 187.641C336.682 186.705 336.874 185.877 337.258 185.157C337.654 184.425 338.2 183.855 338.896 183.447C339.592 183.039 340.384 182.835 341.272 182.835C342.148 182.835 342.874 183.015 343.45 183.375C344.038 183.723 344.464 184.095 344.728 184.491C344.992 184.875 345.166 185.181 345.25 185.409ZM348.727 184.563C348.991 184.047 349.387 183.627 349.915 183.303C350.455 182.979 351.019 182.817 351.607 182.817V184.743C351.055 184.743 350.557 184.893 350.113 185.193C349.669 185.481 349.327 185.859 349.087 186.327C348.847 186.783 348.727 187.245 348.727 187.713V192.393H346.585V182.835H348.727V184.563Z" fill="#9BA1A8"/>
<path d="M281.31 34.0868C281.334 34.2548 281.346 34.4168 281.346 34.5728C281.346 34.8608 281.328 35.1788 281.292 35.5268C281.088 37.3988 280.428 38.8448 279.312 39.8648C278.208 40.8848 276.72 41.3948 274.848 41.3948C273.54 41.3948 272.37 41.1008 271.338 40.5128C270.306 39.9248 269.496 39.1088 268.908 38.0648C268.332 37.0208 268.044 35.8328 268.044 34.5008C268.044 33.1688 268.332 31.9808 268.908 30.9368C269.496 29.8928 270.306 29.0828 271.338 28.5068C272.37 27.9188 273.54 27.6248 274.848 27.6248C276.24 27.6248 277.428 27.9428 278.412 28.5788C279.408 29.2028 280.152 29.9648 280.644 30.8648L278.592 31.9988C278.256 31.3748 277.764 30.8468 277.116 30.4148C276.48 29.9708 275.718 29.7488 274.83 29.7488C273.966 29.7488 273.204 29.9468 272.544 30.3428C271.896 30.7268 271.392 31.2788 271.032 31.9988C270.672 32.7188 270.492 33.5528 270.492 34.5008C270.492 35.4608 270.672 36.3008 271.032 37.0208C271.392 37.7408 271.896 38.2988 272.544 38.6948C273.204 39.0788 273.966 39.2708 274.83 39.2708C275.898 39.2588 276.822 38.9888 277.602 38.4608C278.382 37.9208 278.796 37.1168 278.844 36.0488H275.172V34.0868H281.31ZM289.145 35.5448C289.037 35.0168 288.791 34.5548 288.407 34.1588C288.023 33.7628 287.513 33.5648 286.877 33.5648C286.253 33.5648 285.713 33.7628 285.257 34.1588C284.813 34.5428 284.537 35.0048 284.429 35.5448H289.145ZM282.179 36.4628C282.179 35.5148 282.377 34.6748 282.773 33.9428C283.169 33.1988 283.721 32.6228 284.429 32.2148C285.137 31.7948 285.947 31.5848 286.859 31.5848C287.759 31.5848 288.509 31.7708 289.109 32.1428C289.709 32.5148 290.117 32.8688 290.333 33.2048C290.561 33.5288 290.759 33.8588 290.927 34.1948C291.203 34.7708 291.341 35.5268 291.341 36.4628L291.323 37.2728H284.429C284.537 37.8728 284.831 38.3648 285.311 38.7488C285.791 39.1208 286.313 39.3068 286.877 39.3068C287.537 39.3068 288.029 39.1928 288.353 38.9648C288.677 38.7248 288.881 38.5268 288.965 38.3708L290.945 39.1448C290.645 39.7448 290.147 40.2548 289.451 40.6748C288.767 41.0948 287.903 41.3048 286.859 41.3048C285.947 41.3048 285.137 41.1008 284.429 40.6928C283.721 40.2848 283.169 39.7148 282.773 38.9828C282.377 38.2388 282.179 37.3988 282.179 36.4628ZM296.589 41.3048C295.977 41.3048 295.425 41.1668 294.933 40.8908C294.453 40.6148 294.075 40.2308 293.799 39.7388C293.523 39.2468 293.385 38.6828 293.385 38.0468V33.8348H291.657V31.7288H293.385V28.9388H295.833V31.7288H298.263V33.8348H295.833V37.9748C295.833 38.2388 295.905 38.4668 296.049 38.6588C296.193 38.8508 296.373 38.9528 296.589 38.9648C296.745 38.9768 296.907 38.9648 297.075 38.9288C297.255 38.8928 297.435 38.8448 297.615 38.7848L298.173 41.1068C297.585 41.2388 297.057 41.3048 296.589 41.3048ZM318.742 41.2508H316.582L313.27 31.5308L310.264 41.2508H308.104L303.622 27.7508H306.196L309.184 37.1828L311.92 27.7508H314.584L317.446 37.1828L319.948 27.7508H322.522L318.742 41.2508ZM330.229 36.3728C330.229 35.5688 330.061 34.9328 329.725 34.4648C329.389 33.9848 328.939 33.7448 328.375 33.7448C327.703 33.7448 327.151 34.0088 326.719 34.5368C326.287 35.0528 326.071 35.6888 326.071 36.4448V41.2508H323.623V27.7508H326.071V32.8628C326.383 32.4788 326.755 32.2028 327.187 32.0348C327.631 31.8548 328.033 31.7648 328.393 31.7648C329.221 31.7648 329.959 31.9448 330.607 32.3048C331.255 32.6648 331.759 33.1688 332.119 33.8168C332.491 34.4528 332.677 35.1848 332.677 36.0128V41.2508H330.229V36.3728ZM336.857 31.6928V41.2508H334.409V31.6928H336.857ZM334.337 28.7228C334.337 28.3388 334.457 28.0268 334.697 27.7868C334.949 27.5348 335.261 27.4088 335.633 27.4088C336.005 27.4088 336.311 27.5348 336.551 27.7868C336.803 28.0268 336.929 28.3388 336.929 28.7228C336.929 29.0948 336.809 29.4068 336.569 29.6588C336.329 29.8988 336.017 30.0188 335.633 30.0188C335.261 30.0188 334.949 29.8988 334.697 29.6588C334.457 29.4068 334.337 29.0948 334.337 28.7228ZM343.128 41.3048C342.516 41.3048 341.964 41.1668 341.472 40.8908C340.992 40.6148 340.614 40.2308 340.338 39.7388C340.062 39.2468 339.924 38.6828 339.924 38.0468V33.8348H338.196V31.7288H339.924V28.9388H342.372V31.7288H344.802V33.8348H342.372V37.9748C342.372 38.2388 342.444 38.4668 342.588 38.6588C342.732 38.8508 342.912 38.9528 343.128 38.9648C343.284 38.9768 343.446 38.9648 343.614 38.9288C343.794 38.8928 343.974 38.8448 344.154 38.7848L344.712 41.1068C344.124 41.2388 343.596 41.3048 343.128 41.3048ZM352.649 35.5448C352.541 35.0168 352.295 34.5548 351.911 34.1588C351.527 33.7628 351.017 33.5648 350.381 33.5648C349.757 33.5648 349.217 33.7628 348.761 34.1588C348.317 34.5428 348.041 35.0048 347.933 35.5448H352.649ZM345.683 36.4628C345.683 35.5148 345.881 34.6748 346.277 33.9428C346.673 33.1988 347.225 32.6228 347.933 32.2148C348.641 31.7948 349.451 31.5848 350.363 31.5848C351.263 31.5848 352.013 31.7708 352.613 32.1428C353.213 32.5148 353.621 32.8688 353.837 33.2048C354.065 33.5288 354.263 33.8588 354.431 34.1948C354.707 34.7708 354.845 35.5268 354.845 36.4628L354.827 37.2728H347.933C348.041 37.8728 348.335 38.3648 348.815 38.7488C349.295 39.1208 349.817 39.3068 350.381 39.3068C351.041 39.3068 351.533 39.1928 351.857 38.9648C352.181 38.7248 352.385 38.5268 352.469 38.3708L354.449 39.1448C354.149 39.7448 353.651 40.2548 352.955 40.6748C352.271 41.0948 351.407 41.3048 350.363 41.3048C349.451 41.3048 348.641 41.1008 347.933 40.6928C347.225 40.2848 346.673 39.7148 346.277 38.9828C345.881 38.2388 345.683 37.3988 345.683 36.4628ZM358.427 27.7508V41.2508H355.979V27.7508H358.427ZM362.751 31.6928V41.2508H360.303V31.6928H362.751ZM360.231 28.7228C360.231 28.3388 360.351 28.0268 360.591 27.7868C360.843 27.5348 361.155 27.4088 361.527 27.4088C361.899 27.4088 362.205 27.5348 362.445 27.7868C362.697 28.0268 362.823 28.3388 362.823 28.7228C362.823 29.0948 362.703 29.4068 362.463 29.6588C362.223 29.8988 361.911 30.0188 361.527 30.0188C361.155 30.0188 360.843 29.8988 360.591 29.6588C360.351 29.4068 360.231 29.0948 360.231 28.7228ZM366.052 38.2988C366.328 38.6348 366.658 38.9048 367.042 39.1088C367.438 39.3128 367.804 39.4148 368.14 39.4148C368.56 39.4148 368.902 39.3188 369.166 39.1268C369.442 38.9228 369.586 38.6708 369.598 38.3708C369.61 38.1908 369.496 38.0408 369.256 37.9208C369.016 37.7888 368.614 37.6208 368.05 37.4168C367.378 37.1888 366.82 36.9668 366.376 36.7508C365.932 36.5348 365.542 36.2408 365.206 35.8688C364.882 35.4848 364.72 35.0048 364.72 34.4288C364.72 33.8648 364.87 33.3668 365.17 32.9348C365.482 32.4908 365.908 32.1488 366.448 31.9088C366.988 31.6568 367.606 31.5308 368.302 31.5308C368.902 31.5308 369.514 31.6748 370.138 31.9628C370.774 32.2508 371.278 32.6288 371.65 33.0968L370.066 34.4468C369.85 34.1708 369.586 33.9488 369.274 33.7808C368.962 33.6128 368.668 33.5228 368.392 33.5108C368.044 33.5108 367.756 33.5888 367.528 33.7448C367.3 33.9008 367.18 34.1108 367.168 34.3748C367.168 34.5788 367.294 34.7528 367.546 34.8968C367.798 35.0288 368.212 35.1908 368.788 35.3828C369.436 35.5988 369.982 35.8148 370.426 36.0308C370.87 36.2348 371.248 36.5288 371.56 36.9128C371.884 37.2848 372.046 37.7528 372.046 38.3168C372.046 38.9288 371.878 39.4688 371.542 39.9368C371.218 40.3928 370.762 40.7468 370.174 40.9988C369.598 41.2628 368.932 41.3948 368.176 41.3948C367.516 41.3948 366.832 41.2328 366.124 40.9088C365.428 40.5848 364.864 40.1588 364.432 39.6308L366.052 38.2988ZM377.416 41.3048C376.804 41.3048 376.252 41.1668 375.76 40.8908C375.28 40.6148 374.902 40.2308 374.626 39.7388C374.35 39.2468 374.212 38.6828 374.212 38.0468V33.8348H372.484V31.7288H374.212V28.9388H376.66V31.7288H379.09V33.8348H376.66V37.9748C376.66 38.2388 376.732 38.4668 376.876 38.6588C377.02 38.8508 377.2 38.9528 377.416 38.9648C377.572 38.9768 377.734 38.9648 377.902 38.9288C378.082 38.8928 378.262 38.8448 378.442 38.7848L379 41.1068C378.412 41.2388 377.884 41.3048 377.416 41.3048ZM384.225 37.1468H381.849L381.417 26.8868H384.603L384.225 37.1468ZM381.723 40.2788C381.723 39.8948 381.843 39.5828 382.083 39.3428C382.335 39.0908 382.653 38.9648 383.037 38.9648C383.421 38.9648 383.733 39.0908 383.973 39.3428C384.225 39.5828 384.351 39.8948 384.351 40.2788C384.351 40.6628 384.225 40.9748 383.973 41.2148C383.733 41.4668 383.421 41.5928 383.037 41.5928C382.653 41.5928 382.335 41.4668 382.083 41.2148C381.843 40.9748 381.723 40.6628 381.723 40.2788Z" fill="#5A4BF5"/>
<path d="M404.861 38.3896C404.869 38.387 404.877 38.3935 404.877 38.4018C404.305 43.8248 400.854 48.5387 396.589 51.78C391.505 55.6557 385.208 57.4583 378.935 58.1907C371.97 59.0131 364.915 58.7991 357.917 58.8216C354.067 58.8216 350.205 58.8441 346.355 58.8441C343.059 58.8441 339.73 58.8329 336.491 59.4863C330.669 60.6757 324.846 65.4665 325.288 71.6682C325.356 72.6286 326.427 73.0739 327.26 72.5917C328.125 72.0914 328.246 70.8895 327.56 70.1635C324.688 67.1264 322.757 63.4167 321.928 59.2723C321.758 58.4385 320.807 57.7513 319.958 57.7851C309.823 58.2357 299.665 58.2245 289.53 57.7175C280.629 57.2781 271.445 56.8725 262.827 54.4389C258.988 53.346 255.296 51.78 252.024 49.4816C250.302 48.276 248.717 46.8339 247.437 45.1552C246.86 44.3891 246.158 43.499 245.795 42.6089C245.433 41.7189 245.331 40.6035 245.218 39.6458C244.289 31.2522 247.652 23.5233 254.719 18.7801C258.263 16.4028 262.204 14.7241 266.19 13.2256C270.46 11.6258 274.819 10.24 279.224 9.0795C288.182 6.71351 297.366 5.23759 306.607 4.55032C325.122 3.16453 343.784 4.76439 361.982 8.2683C370.826 9.98083 380.158 11.6821 388.379 15.4902C395.728 18.8815 402.455 24.6049 404.448 32.7281C404.901 34.5984 405.014 36.4686 404.856 38.384C404.641 40.9865 408.717 40.9753 408.933 38.384C409.646 29.6861 404.618 21.5742 397.869 16.4253C390.214 10.578 380.554 8.17817 371.302 6.09385C352.073 1.74494 332.222 -0.654853 312.461 0.156343C302.586 0.561941 292.712 1.77874 283.075 3.96446C273.438 6.15018 264.378 8.83163 256.032 13.2819C252.103 15.3775 248.445 18.1041 245.761 21.6868C243.077 25.2696 241.662 29.4495 241.164 33.7984C240.915 35.9729 240.96 38.1586 241.232 40.3218C241.368 41.3921 241.492 42.5075 241.798 43.5441C242.115 44.6595 242.862 45.7185 243.519 46.6649C246.067 50.3153 249.612 53.1207 253.564 55.1712C261.536 59.3061 270.663 60.4214 279.496 61.1312C290.254 61.9988 301.069 62.3255 311.861 62.1114C314.133 62.064 316.405 61.9925 318.677 61.9037C319.104 61.887 319.273 61.3443 318.932 61.0868C318.598 60.8345 318.138 61.1274 318.24 61.5336C319.488 66.5077 322.261 71.0414 326.107 74.4596C327.59 75.7778 330.059 74.516 329.516 72.488C328.825 69.9079 330.218 67.4068 332.165 65.7506C334.464 63.8014 337.669 63.2381 340.602 63.0353C347.793 62.5621 355.097 62.9001 362.299 62.8776C375.175 62.8325 389.126 62.9001 399.692 54.4727C404.731 50.4505 408.253 44.8397 408.921 38.3952C409.034 37.3024 407.902 36.3785 406.883 36.3672C405.689 36.356 404.966 37.3031 404.846 38.3774C404.845 38.3857 404.854 38.3922 404.861 38.3896Z" fill="#5A4BF5" fill-opacity="0.2"/>
<rect x="1" y="263" width="648" height="167" rx="15" stroke="#5F44FF" stroke-width="2" stroke-dasharray="4 4"/>
<rect x="263" y="239" width="125" height="47" rx="10" fill="#5F44FF"/>
<path d="M282.384 267.326H288.864V269.198H280.224V255.806H282.384V267.326ZM293.834 267.506C294.302 267.506 294.74 267.374 295.148 267.11C295.556 266.846 295.88 266.48 296.12 266.012C296.36 265.544 296.48 265.028 296.48 264.464C296.48 263.9 296.36 263.39 296.12 262.934C295.88 262.466 295.556 262.1 295.148 261.836C294.74 261.572 294.302 261.44 293.834 261.44C293.33 261.44 292.886 261.566 292.502 261.818C292.118 262.058 291.818 262.412 291.602 262.88C291.398 263.336 291.296 263.864 291.296 264.464C291.296 265.076 291.398 265.61 291.602 266.066C291.818 266.522 292.118 266.876 292.502 267.128C292.886 267.38 293.33 267.506 293.834 267.506ZM298.64 269.198H296.48V267.776C296.228 268.112 295.946 268.388 295.634 268.604C295.334 268.82 295.016 268.982 294.68 269.09C294.344 269.21 294.002 269.27 293.654 269.27C292.778 269.27 291.998 269.066 291.314 268.658C290.63 268.25 290.096 267.686 289.712 266.966C289.328 266.234 289.136 265.4 289.136 264.464C289.136 263.54 289.328 262.718 289.712 261.998C290.096 261.266 290.63 260.696 291.314 260.288C291.998 259.88 292.778 259.676 293.654 259.676C294.182 259.676 294.692 259.802 295.184 260.054C295.688 260.306 296.12 260.678 296.48 261.17V259.64H298.64V269.198ZM302.423 264.932C302.423 265.688 302.627 266.294 303.035 266.75C303.443 267.194 303.977 267.416 304.637 267.416C305.093 267.416 305.495 267.302 305.843 267.074C306.203 266.846 306.473 266.54 306.653 266.156C306.845 265.76 306.941 265.316 306.941 264.824V259.64H309.101V269.198H306.941V267.632C306.665 268.088 306.281 268.46 305.789 268.748C305.297 269.036 304.787 269.18 304.259 269.18C303.491 269.18 302.801 269.006 302.189 268.658C301.589 268.31 301.115 267.818 300.767 267.182C300.431 266.546 300.263 265.814 300.263 264.986V259.64H302.423V264.932ZM317.531 264.05C317.531 263.234 317.339 262.598 316.955 262.142C316.571 261.686 316.025 261.458 315.317 261.458C314.885 261.458 314.489 261.572 314.129 261.8C313.781 262.016 313.505 262.322 313.301 262.718C313.097 263.102 313.001 263.546 313.013 264.05V269.198H310.853V259.64H313.013V261.242C313.277 260.798 313.661 260.432 314.165 260.144C314.681 259.844 315.191 259.694 315.695 259.694C316.331 259.694 316.949 259.832 317.549 260.108C318.161 260.384 318.671 260.846 319.079 261.494C319.487 262.142 319.691 262.976 319.691 263.996V269.198H317.531V264.05ZM325.336 267.236C325.672 267.236 326.026 267.152 326.398 266.984C326.782 266.816 327.112 266.588 327.388 266.3L328.828 267.794C328.408 268.226 327.874 268.58 327.226 268.856C326.59 269.12 325.984 269.252 325.408 269.252C324.46 269.252 323.62 269.048 322.888 268.64C322.156 268.232 321.586 267.662 321.178 266.93C320.77 266.198 320.566 265.37 320.566 264.446C320.566 263.522 320.77 262.694 321.178 261.962C321.598 261.23 322.168 260.66 322.888 260.252C323.62 259.844 324.46 259.64 325.408 259.64C326.032 259.64 326.644 259.772 327.244 260.036C327.856 260.3 328.384 260.654 328.828 261.098L327.388 262.574C327.1 262.298 326.77 262.076 326.398 261.908C326.026 261.74 325.672 261.656 325.336 261.656C324.82 261.656 324.364 261.776 323.968 262.016C323.572 262.244 323.266 262.568 323.05 262.988C322.834 263.408 322.726 263.894 322.726 264.446C322.726 264.998 322.834 265.484 323.05 265.904C323.266 266.324 323.572 266.654 323.968 266.894C324.364 267.122 324.82 267.236 325.336 267.236ZM336.428 264.248C336.428 263.432 336.248 262.784 335.888 262.304C335.528 261.812 335.048 261.566 334.448 261.566C334.004 261.566 333.596 261.692 333.224 261.944C332.864 262.196 332.576 262.538 332.36 262.97C332.156 263.402 332.054 263.876 332.054 264.392V269.198H329.894V255.806H332.054V261.044C332.342 260.636 332.708 260.33 333.152 260.126C333.608 259.91 334.046 259.802 334.466 259.802C335.27 259.802 335.978 259.976 336.59 260.324C337.214 260.672 337.7 261.164 338.048 261.8C338.408 262.424 338.588 263.144 338.588 263.96V269.198H336.428V264.248ZM345.204 267.488C345.708 267.488 346.152 267.362 346.536 267.11C346.92 266.858 347.214 266.504 347.418 266.048C347.634 265.58 347.742 265.04 347.742 264.428C347.742 263.816 347.634 263.282 347.418 262.826C347.214 262.37 346.92 262.016 346.536 261.764C346.152 261.512 345.708 261.386 345.204 261.386C344.724 261.386 344.28 261.524 343.872 261.8C343.464 262.076 343.134 262.448 342.882 262.916C342.642 263.372 342.522 263.876 342.522 264.428C342.522 264.98 342.642 265.496 342.882 265.976C343.134 266.444 343.464 266.816 343.872 267.092C344.28 267.356 344.724 267.488 345.204 267.488ZM345.366 259.622C346.242 259.622 347.022 259.832 347.706 260.252C348.402 260.66 348.942 261.23 349.326 261.962C349.71 262.682 349.902 263.504 349.902 264.428C349.902 265.352 349.71 266.186 349.326 266.93C348.942 267.662 348.402 268.232 347.706 268.64C347.022 269.048 346.242 269.252 345.366 269.252C344.91 269.252 344.406 269.132 343.854 268.892C343.314 268.652 342.87 268.268 342.522 267.74V273.158H340.362V259.64H342.522V261.116C342.858 260.6 343.308 260.222 343.872 259.982C344.436 259.742 344.934 259.622 345.366 259.622ZM355.605 267.506C356.073 267.506 356.511 267.374 356.919 267.11C357.327 266.846 357.651 266.48 357.891 266.012C358.131 265.544 358.251 265.028 358.251 264.464C358.251 263.9 358.131 263.39 357.891 262.934C357.651 262.466 357.327 262.1 356.919 261.836C356.511 261.572 356.073 261.44 355.605 261.44C355.101 261.44 354.657 261.566 354.273 261.818C353.889 262.058 353.589 262.412 353.373 262.88C353.169 263.336 353.067 263.864 353.067 264.464C353.067 265.076 353.169 265.61 353.373 266.066C353.589 266.522 353.889 266.876 354.273 267.128C354.657 267.38 355.101 267.506 355.605 267.506ZM360.411 269.198H358.251V267.776C357.999 268.112 357.717 268.388 357.405 268.604C357.105 268.82 356.787 268.982 356.451 269.09C356.115 269.21 355.773 269.27 355.425 269.27C354.549 269.27 353.769 269.066 353.085 268.658C352.401 268.25 351.867 267.686 351.483 266.966C351.099 266.234 350.907 265.4 350.907 264.464C350.907 263.54 351.099 262.718 351.483 261.998C351.867 261.266 352.401 260.696 353.085 260.288C353.769 259.88 354.549 259.676 355.425 259.676C355.953 259.676 356.463 259.802 356.955 260.054C357.459 260.306 357.891 260.678 358.251 261.17V259.64H360.411V269.198ZM366.386 269.27C365.51 269.27 364.724 269.066 364.028 268.658C363.344 268.238 362.81 267.668 362.426 266.948C362.042 266.216 361.85 265.382 361.85 264.446C361.85 263.522 362.042 262.694 362.426 261.962C362.81 261.23 363.344 260.66 364.028 260.252C364.724 259.832 365.51 259.622 366.386 259.622C366.674 259.622 366.98 259.664 367.304 259.748C367.628 259.832 367.964 259.988 368.312 260.216C368.672 260.444 368.984 260.756 369.248 261.152V255.806H371.408V269.198H369.248V267.758C368.864 268.298 368.396 268.688 367.844 268.928C367.304 269.156 366.818 269.27 366.386 269.27ZM366.566 267.542C367.046 267.542 367.49 267.41 367.898 267.146C368.306 266.87 368.63 266.498 368.87 266.03C369.122 265.562 369.248 265.052 369.248 264.5C369.248 263.948 369.122 263.438 368.87 262.97C368.63 262.49 368.306 262.112 367.898 261.836C367.49 261.56 367.046 261.422 366.566 261.422C366.05 261.422 365.6 261.548 365.216 261.8C364.832 262.052 364.532 262.412 364.316 262.88C364.112 263.348 364.01 263.888 364.01 264.5C364.01 265.1 364.112 265.634 364.316 266.102C364.532 266.558 364.832 266.912 365.216 267.164C365.6 267.416 366.05 267.542 366.566 267.542Z" fill="white"/>
<path d="M90.8545 349.878V363.823C90.8545 364.878 90.437 365.889 89.6897 366.636C88.9425 367.383 87.9315 367.801 86.8766 367.801H58.976C57.9211 367.801 56.9101 367.383 56.1629 366.636C55.4156 365.889 54.998 364.878 54.998 363.823V335.933C54.998 334.878 55.4156 333.867 56.1629 333.12C56.9101 332.373 57.9211 331.955 58.976 331.955H86.5799C88.8436 331.955 90.6897 333.779 90.7117 336.043L90.8545 349.889V349.878Z" fill="white"/>
<path d="M88.931 349.878V362.768C88.931 364.405 88.5574 365.834 86.5904 365.889C85.0739 365.933 83.5575 365.889 82.041 365.889H59.9315C58.448 365.889 57.0085 365.581 56.9096 363.735C56.7118 359.867 56.9096 355.933 56.9096 352.054V337.296C56.9096 335.747 56.9096 334.01 58.9755 333.868C60.3161 333.769 61.6897 333.868 63.0303 333.868H85.7772C86.8871 333.868 87.9859 333.955 88.5464 335.098C88.8431 335.703 88.7771 336.384 88.7881 337.043L88.8211 340.428L88.898 348.307L88.92 349.889C88.942 352.362 92.7881 352.373 92.7661 349.889C92.7221 345.406 92.7221 340.911 92.6232 336.428C92.5463 332.835 90.0738 330.131 86.4255 330.032C84.5574 329.967 82.6674 330.021 80.7773 330.021H59.6348C56.1074 330.021 53.2063 332.219 53.0635 335.933C52.9206 339.648 53.0635 343.703 53.0635 347.56V362.922C53.0635 365.834 54.2613 368.592 57.3052 369.493C58.6898 369.911 60.3381 369.735 61.7776 369.735H85.5135C87.9969 369.735 90.3925 369.317 91.854 367.01C93.1287 365.01 92.7881 362.395 92.7881 360.131V349.878C92.7881 347.406 88.942 347.395 88.942 349.878H88.931Z" fill="#9AA1A8"/>
<path d="M64.7207 351.66C65.8746 352.692 67.0943 353.649 68.2811 354.627C68.8196 355.066 69.347 355.517 69.8745 355.967C70.9514 356.901 72.1712 356.967 73.2151 355.934C74.7865 354.374 76.237 352.681 77.7425 351.055C79.248 349.429 80.8303 347.737 82.3688 346.066C84.0501 344.253 81.3358 341.528 79.6545 343.352C78.0831 345.044 76.5008 346.748 74.9294 348.44C73.358 350.132 71.9514 351.89 70.3031 353.407L71.1492 352.912L71.0283 352.956H72.0503L71.9404 352.923L72.7865 353.418C70.9734 351.978 69.1602 350.484 67.435 348.934C66.6658 348.242 65.479 348.176 64.7207 348.934C64.0175 349.638 63.9405 350.956 64.7207 351.649V351.66Z" fill="#9AA1A8"/>
<path d="M148.34 382.566C155.827 378.976 163.532 375.025 168.49 368.36C172.758 362.625 174.564 355.116 173.393 348.068C169.322 323.617 130.052 313.384 118.012 337.123C113.613 345.813 110.986 357.721 115.9 366.236C121.898 376.623 124.338 376.207 134.101 380.574L133.893 387.228L148.34 382.577V382.566Z" fill="white"/>
<path d="M149.664 384.831C156.559 381.526 163.651 377.903 168.806 372.102C173.961 366.302 176.905 358.213 176.293 350.278C175.439 339.454 168.379 330.413 158.901 325.488C150.069 320.892 138.971 319.359 129.58 323.19C124.677 325.182 120.562 328.422 117.541 332.778C113.568 338.502 111.302 345.933 110.733 352.828C110.427 356.528 110.733 360.424 111.992 363.937C113.13 367.122 114.991 370.099 117.026 372.803C118.581 374.849 120.299 376.655 122.466 378.067C124.447 379.359 126.68 380.234 128.847 381.154C130.16 381.712 131.474 382.259 132.787 382.85L131.485 380.585C131.419 382.806 131.342 385.017 131.277 387.239C131.222 388.892 133.006 390.282 134.604 389.767C139.419 388.213 144.235 386.659 149.051 385.116C152.258 384.087 150.89 379.008 147.65 380.048C142.834 381.602 138.019 383.157 133.203 384.7L136.53 387.228C136.596 385.006 136.672 382.795 136.738 380.574C136.76 379.731 136.235 378.658 135.436 378.308C132.94 377.192 130.62 376.305 128.256 375.222C127.358 374.806 126.461 374.368 125.618 373.853C124.6 373.241 124.37 373.054 123.648 372.409C121.798 370.734 120.583 368.895 119.27 366.772C117.585 364.025 116.315 361.234 115.998 357.983C115.374 351.428 117.191 344.686 120.102 338.841C122.16 334.693 125.016 331.508 128.902 329.319C132.415 327.338 136.475 326.408 140.525 326.32C145.045 326.233 149.117 327.032 153.484 328.761C161.243 331.836 168.204 338.283 170.382 346.513C172.232 353.507 170.59 361.3 166.234 367.046C161.451 373.35 153.987 376.973 147.026 380.311C145.746 380.924 145.406 382.752 146.085 383.901C146.851 385.203 148.394 385.455 149.675 384.842L149.664 384.831Z" fill="#1B1E24"/>
<path d="M131.66 338.348C131.66 338.348 131.627 338.37 131.605 338.381C131.397 338.534 131.168 338.699 130.96 338.885C130.949 338.896 130.927 338.907 130.916 338.929C130.73 339.126 130.566 339.344 130.412 339.574C130.412 339.585 130.391 339.607 130.391 339.629C130.5 339.388 130.172 340.111 130.084 340.34C130.084 340.34 130.084 340.34 130.084 340.351C130.084 340.351 130.084 340.373 130.084 340.384C130.183 339.782 129.996 340.92 129.975 341.183C129.975 341.183 129.975 341.183 129.975 341.194C129.975 341.194 129.975 341.205 129.975 341.216C130.051 341.938 130.04 342.113 130.391 342.748C130.511 342.978 130.675 343.186 130.872 343.372C131.365 343.832 131.573 343.919 132.196 344.149C132.196 344.149 132.196 344.149 132.207 344.149C132.218 344.149 132.973 344.259 132.995 344.259C132.995 344.259 132.995 344.259 133.006 344.259C133.269 344.237 134.506 344.04 133.805 344.149C133.805 344.149 133.827 344.149 133.838 344.149C134.09 344.062 134.342 343.963 134.571 343.843C134.571 343.843 134.593 343.843 134.593 343.821C134.801 343.668 135.009 343.525 135.195 343.35C135.195 343.35 135.195 343.35 135.206 343.339C135.622 342.869 135.797 342.617 135.983 342.015C136.147 341.49 136.115 340.953 135.983 340.428C135.863 339.935 135.567 339.465 135.217 339.104C135.031 338.918 134.823 338.742 134.593 338.622C134.254 338.403 133.893 338.294 133.499 338.272C133.105 338.184 132.711 338.206 132.317 338.327C131.934 338.414 131.594 338.589 131.31 338.852C130.992 339.06 130.73 339.333 130.544 339.684L130.248 340.384C130.106 340.91 130.106 341.435 130.248 341.96L130.544 342.661C130.806 343.109 131.157 343.46 131.605 343.722C131.605 343.722 131.616 343.722 131.627 343.722L131.025 343.263L130.566 342.661L130.27 341.96L130.161 341.172L130.27 340.384C130.27 340.384 130.27 340.384 130.27 340.395L130.566 339.695C130.566 339.695 130.566 339.706 130.566 339.717L131.025 339.115C131.025 339.115 131.014 339.126 131.003 339.136L131.605 338.677C131.605 338.677 131.583 338.699 131.562 338.699L132.262 338.403C132.262 338.403 132.229 338.403 132.218 338.414L133.006 338.305C133.006 338.305 132.984 338.305 132.973 338.305L133.762 338.414H133.74L134.44 338.71C134.44 338.71 134.44 338.71 134.429 338.71L135.031 339.169C135.031 339.169 135.031 339.169 135.02 339.158L135.48 339.76C135.48 339.76 135.48 339.749 135.469 339.738L135.764 340.439C135.764 340.439 135.764 340.417 135.764 340.395L135.874 341.183C135.874 341.183 135.874 341.15 135.874 341.139L135.764 341.927C135.764 341.927 135.764 341.895 135.775 341.873L135.48 342.573C135.48 342.573 135.502 342.529 135.524 342.507L135.064 343.109C135.064 343.109 135.13 343.033 135.173 343.011L134.571 343.471C134.571 343.471 134.604 343.449 134.626 343.427C134.965 343.241 135.25 342.989 135.458 342.661C135.721 342.376 135.896 342.037 135.983 341.654C136.104 341.26 136.126 340.866 136.038 340.472C136.016 340.078 135.907 339.717 135.688 339.377L135.228 338.775C134.856 338.414 134.429 338.151 133.926 338.02L133.138 337.911C132.601 337.911 132.109 338.042 131.649 338.316L131.66 338.348Z" fill="#1B1E24"/>
<path d="M148.897 339.268C148.689 339.421 148.47 339.574 148.273 339.75C148.273 339.75 148.273 339.75 148.262 339.761C148.241 339.782 147.814 340.341 147.792 340.362C147.639 340.592 147.551 340.855 147.474 341.118C147.398 341.38 147.354 341.654 147.365 341.917C147.365 342.048 147.42 342.365 147.42 342.322L147.474 342.716C147.551 342.978 147.639 343.241 147.792 343.471C147.945 343.701 148.087 343.92 148.284 344.106C148.284 344.106 148.295 344.117 148.306 344.127C148.383 344.193 148.821 344.532 148.908 344.598C148.908 344.598 148.919 344.598 148.93 344.609C149.05 344.686 149.269 344.762 149.335 344.784C149.401 344.806 149.609 344.926 149.751 344.948C150.025 345.014 150.309 345.047 150.594 345.058C150.594 345.058 150.616 345.058 150.627 345.058C150.627 345.058 150.637 345.058 150.648 345.058L151.436 344.948C151.436 344.948 151.436 344.948 151.447 344.948C151.71 344.894 151.973 344.762 152.203 344.631C152.203 344.631 152.224 344.631 152.224 344.62C152.257 344.598 152.794 344.182 152.826 344.149C152.826 344.149 152.837 344.149 152.848 344.138C153.034 343.941 153.22 343.733 153.341 343.493C153.461 343.252 153.571 343 153.658 342.748C153.658 342.727 153.658 342.705 153.669 342.694C153.724 342.42 153.768 342.146 153.779 341.862C153.779 341.84 153.779 341.829 153.779 341.807C153.757 341.534 153.724 341.249 153.669 340.975C153.669 340.953 153.669 340.932 153.647 340.91C153.549 340.625 153.439 340.352 153.297 340.089C153.275 340.045 153.253 340.012 153.22 339.979C153.045 339.739 152.87 339.498 152.673 339.279C152.64 339.246 152.608 339.213 152.575 339.18C152.312 338.896 151.995 338.688 151.622 338.568C151.272 338.381 150.889 338.294 150.484 338.316C150.079 338.305 149.696 338.381 149.346 338.568C148.985 338.688 148.667 338.885 148.394 339.18L147.934 339.782C147.671 340.242 147.529 340.746 147.529 341.271L147.639 342.059C147.781 342.562 148.033 342.989 148.394 343.361C148.448 343.416 148.514 343.482 148.558 343.547L148.098 342.945C148.142 343.011 148.186 343.077 148.219 343.153L147.923 342.453C147.923 342.453 147.956 342.54 147.967 342.595L147.857 341.807C147.857 341.807 147.857 341.873 147.857 341.906L147.967 341.118C147.967 341.118 147.956 341.183 147.945 341.216L148.241 340.516C148.241 340.516 148.23 340.549 148.219 340.559L148.678 339.958C148.678 339.958 148.656 339.979 148.645 339.99L149.247 339.531C149.247 339.531 149.226 339.553 149.204 339.553L149.904 339.257C149.904 339.257 149.871 339.257 149.849 339.268L150.637 339.159C150.637 339.159 150.583 339.159 150.561 339.159L151.349 339.268C151.349 339.268 151.283 339.257 151.25 339.246L151.951 339.542C151.951 339.542 151.896 339.52 151.874 339.498L152.476 339.958C152.476 339.958 152.443 339.936 152.432 339.914L152.892 340.516C152.892 340.516 152.881 340.494 152.87 340.483L153.166 341.183C153.166 341.183 153.166 341.161 153.166 341.151L153.275 341.939C153.275 341.939 153.275 341.928 153.275 341.917L153.166 342.705C153.166 342.705 153.166 342.694 153.166 342.683L152.87 343.383C152.87 343.383 152.87 343.361 152.881 343.361L152.421 343.963C152.421 343.963 152.443 343.941 152.454 343.93L151.852 344.39C152.192 344.204 152.476 343.941 152.684 343.624C152.947 343.339 153.122 343 153.209 342.617C153.33 342.223 153.352 341.829 153.264 341.435C153.242 341.041 153.133 340.68 152.914 340.341L152.454 339.739C152.082 339.377 151.655 339.115 151.152 338.983L150.364 338.874C149.828 338.874 149.335 339.005 148.875 339.279L148.897 339.268Z" fill="#1B1E24"/>
<path d="M161.234 332.121C164.134 334.255 166.17 337.123 168.961 339.356C170.811 340.833 173.01 341.95 175.375 342.136C179.337 342.453 184.218 339.312 182.872 334.857C181.909 331.661 179.129 329.046 176.272 326.9C174.554 325.609 174.203 323.146 175.429 321.384C175.681 321.012 175.867 320.738 175.9 320.662C176.633 319.053 176.469 317.072 175.035 315.912C172.912 314.204 170.066 315.343 167.965 316.404C162.919 318.954 157.764 317.554 152.577 316.35C146.447 314.927 141.894 313.427 135.579 313.624C132.329 313.723 127.579 313.843 125.587 316.722C123.748 319.392 124.219 323.07 127.119 324.296C132.81 326.725 139.804 324.799 145.791 325.893C151.471 326.933 156.692 328.772 161.234 332.11V332.121Z" fill="#00B5B0"/>
<path d="M159.909 334.387C164.451 337.823 167.417 343.132 173.371 344.467C178.045 345.518 183.812 343.416 185.389 338.535C186.231 335.908 185.334 333.106 183.878 330.873C182.28 328.411 180.113 326.813 177.957 324.898C177.497 324.482 177.224 324.022 177.355 323.42C177.464 322.917 177.848 322.566 178.088 322.128C178.406 321.57 178.646 320.914 178.778 320.29C179.391 317.422 178.176 314.423 175.483 313.121C172.791 311.818 169.902 312.606 167.319 313.81C164.736 315.014 162.142 315.441 159.219 315.058C153.32 314.292 147.673 312.147 141.773 311.348C139.037 310.987 136.301 310.921 133.554 311.085C131.124 311.227 128.629 311.534 126.44 312.661C121.93 314.971 120.157 321.559 123.977 325.324C126.199 327.502 129.898 327.973 132.853 328.17C136.115 328.389 139.387 328.05 142.649 328.203C148.734 328.476 154.995 330.841 159.909 334.387C161.058 335.218 162.831 334.584 163.499 333.445C164.276 332.121 163.707 330.687 162.558 329.856C158.519 326.933 153.824 325.018 148.986 323.891C146.436 323.3 143.875 322.938 141.259 322.906C138.643 322.873 136.268 323.048 133.773 322.96C132.022 322.895 129.253 322.84 127.808 321.724C126.845 320.979 126.943 319.436 127.655 318.374C128.508 317.094 130.26 316.722 131.726 316.503C133.729 316.207 135.852 316.196 137.866 316.262C142.966 316.426 147.903 317.959 152.839 319.119C158.202 320.366 163.597 321.297 168.807 318.911C169.847 318.44 172.463 316.809 173.481 318.057C173.82 318.473 173.71 319.141 173.502 319.611C173.656 319.272 173.404 319.688 173.382 319.732C173.24 319.95 173.076 320.158 172.955 320.388C172.638 320.957 172.386 321.581 172.244 322.216C171.697 324.602 172.517 327.196 174.4 328.772C176.162 330.228 178.066 331.596 179.325 333.544C180.321 335.087 180.934 336.608 179.839 337.878C178.745 339.148 176.95 339.684 175.374 339.52C172.824 339.257 170.69 337.539 168.928 335.82C166.826 333.774 164.911 331.64 162.558 329.866C161.419 329.013 159.624 329.691 158.968 330.808C158.18 332.154 158.771 333.544 159.909 334.398V334.387Z" fill="#1B1E24"/>
<path d="M157.94 344C157.272 345.096 156.036 346.343 155.623 347.581" stroke="#F6CCD7" stroke-width="3" stroke-linecap="round"/>
<path d="M162.673 345.264C162.543 345.739 160.613 348.026 160.988 348.213" stroke="#F6CCD7" stroke-width="3" stroke-linecap="round"/>
<path d="M167.149 346.107C166.675 347 165.988 347.902 165.674 348.845" stroke="#F6CCD7" stroke-width="3" stroke-linecap="round"/>
<path d="M121.94 340C121.272 341.096 120.036 342.343 119.623 343.581" stroke="#F6CCD7" stroke-width="3" stroke-linecap="round"/>
<path d="M126.673 341.264C126.543 341.739 124.613 344.026 124.988 344.213" stroke="#F6CCD7" stroke-width="3" stroke-linecap="round"/>
<path d="M126.788 346.284C126.383 353.332 132.009 360.195 139.003 361.191C145.996 362.187 153.307 357.163 154.894 350.289" fill="white"/>
<path d="M124.162 346.284C123.811 354.81 130.531 362.778 139.003 363.817C147.474 364.857 155.464 358.969 157.434 350.99C158.244 347.707 153.176 346.306 152.366 349.589C150.987 355.171 145.187 359.439 139.375 358.608C133.563 357.776 129.174 352.041 129.415 346.273C129.557 342.891 124.304 342.902 124.162 346.273V346.284Z" fill="#1B1E24"/>
<path d="M502.855 349.878V363.823C502.855 364.878 502.437 365.889 501.69 366.636C500.943 367.383 499.932 367.801 498.877 367.801H470.976C469.921 367.801 468.91 367.383 468.163 366.636C467.416 365.889 466.998 364.878 466.998 363.823V335.933C466.998 334.878 467.416 333.867 468.163 333.12C468.91 332.373 469.921 331.955 470.976 331.955H498.58C500.844 331.955 502.69 333.779 502.712 336.043L502.855 349.889V349.878Z" fill="white"/>
<path d="M500.931 349.878V362.768C500.931 364.405 500.557 365.834 498.59 365.889C497.074 365.933 495.557 365.889 494.041 365.889H471.932C470.448 365.889 469.008 365.581 468.91 363.735C468.712 359.867 468.91 355.933 468.91 352.054V337.296C468.91 335.747 468.91 334.01 470.975 333.868C472.316 333.769 473.69 333.868 475.03 333.868H497.777C498.887 333.868 499.986 333.955 500.546 335.098C500.843 335.703 500.777 336.384 500.788 337.043L500.821 340.428L500.898 348.307L500.92 349.889C500.942 352.362 504.788 352.373 504.766 349.889C504.722 345.406 504.722 340.911 504.623 336.428C504.546 332.835 502.074 330.131 498.426 330.032C496.557 329.967 494.667 330.021 492.777 330.021H471.635C468.107 330.021 465.206 332.219 465.063 335.933C464.921 339.648 465.063 343.703 465.063 347.56V362.922C465.063 365.834 466.261 368.592 469.305 369.493C470.69 369.911 472.338 369.735 473.778 369.735H497.513C499.997 369.735 502.392 369.317 503.854 367.01C505.129 365.01 504.788 362.395 504.788 360.131V349.878C504.788 347.406 500.942 347.395 500.942 349.878H500.931Z" fill="#9AA1A8"/>
<path d="M476.721 351.66C477.875 352.692 479.095 353.649 480.281 354.627C480.82 355.066 481.347 355.517 481.875 355.967C482.952 356.901 484.171 356.967 485.215 355.934C486.787 354.374 488.237 352.681 489.743 351.055C491.248 349.429 492.831 347.737 494.369 346.066C496.05 344.253 493.336 341.528 491.655 343.352C490.083 345.044 488.501 346.748 486.93 348.44C485.358 350.132 483.952 351.89 482.303 353.407L483.149 352.912L483.029 352.956H484.05L483.941 352.923L484.787 353.418C482.974 351.978 481.16 350.484 479.435 348.934C478.666 348.242 477.479 348.176 476.721 348.934C476.018 349.638 475.941 350.956 476.721 351.649V351.66Z" fill="#9AA1A8"/>
<path d="M560.34 382.566C567.827 378.976 575.532 375.025 580.49 368.36C584.758 362.625 586.564 355.116 585.393 348.068C581.322 323.617 542.052 313.384 530.012 337.123C525.613 345.813 522.986 357.721 527.9 366.236C533.898 376.623 536.338 376.207 546.101 380.574L545.893 387.228L560.34 382.577V382.566Z" fill="white"/>
<path d="M561.664 384.831C568.559 381.526 575.651 377.903 580.806 372.102C585.961 366.302 588.905 358.213 588.293 350.278C587.439 339.454 580.379 330.413 570.901 325.488C562.069 320.892 550.971 319.359 541.58 323.19C536.677 325.182 532.562 328.422 529.541 332.778C525.568 338.502 523.302 345.933 522.733 352.828C522.427 356.528 522.733 360.424 523.992 363.937C525.13 367.122 526.991 370.099 529.026 372.803C530.581 374.849 532.299 376.655 534.466 378.067C536.447 379.359 538.68 380.234 540.847 381.154C542.16 381.712 543.474 382.259 544.787 382.85L543.485 380.585C543.419 382.806 543.342 385.017 543.277 387.239C543.222 388.892 545.006 390.282 546.604 389.767C551.419 388.213 556.235 386.659 561.051 385.116C564.258 384.087 562.89 379.008 559.65 380.048C554.834 381.602 550.019 383.157 545.203 384.7L548.53 387.228C548.596 385.006 548.672 382.795 548.738 380.574C548.76 379.731 548.235 378.658 547.436 378.308C544.94 377.192 542.62 376.305 540.256 375.222C539.358 374.806 538.461 374.368 537.618 373.853C536.6 373.241 536.37 373.054 535.648 372.409C533.798 370.734 532.583 368.895 531.27 366.772C529.585 364.025 528.315 361.234 527.998 357.983C527.374 351.428 529.191 344.686 532.102 338.841C534.16 334.693 537.016 331.508 540.902 329.319C544.415 327.338 548.475 326.408 552.525 326.32C557.045 326.233 561.117 327.032 565.484 328.761C573.243 331.836 580.204 338.283 582.382 346.513C584.232 353.507 582.59 361.3 578.234 367.046C573.451 373.35 565.987 376.973 559.026 380.311C557.746 380.924 557.406 382.752 558.085 383.901C558.851 385.203 560.394 385.455 561.675 384.842L561.664 384.831Z" fill="#1B1E24"/>
<path d="M543.66 338.348C543.66 338.348 543.627 338.37 543.605 338.381C543.397 338.534 543.168 338.699 542.96 338.885C542.949 338.896 542.927 338.907 542.916 338.929C542.73 339.126 542.566 339.344 542.412 339.574C542.412 339.585 542.391 339.607 542.391 339.629C542.5 339.388 542.172 340.111 542.084 340.34C542.084 340.34 542.084 340.34 542.084 340.351C542.084 340.351 542.084 340.373 542.084 340.384C542.183 339.782 541.996 340.92 541.975 341.183C541.975 341.183 541.975 341.183 541.975 341.194C541.975 341.194 541.975 341.205 541.975 341.216C542.051 341.938 542.04 342.113 542.391 342.748C542.511 342.978 542.675 343.186 542.872 343.372C543.365 343.832 543.573 343.919 544.196 344.149C544.196 344.149 544.196 344.149 544.207 344.149C544.218 344.149 544.973 344.259 544.995 344.259C544.995 344.259 544.995 344.259 545.006 344.259C545.269 344.237 546.506 344.04 545.805 344.149C545.805 344.149 545.827 344.149 545.838 344.149C546.09 344.062 546.342 343.963 546.571 343.843C546.571 343.843 546.593 343.843 546.593 343.821C546.801 343.668 547.009 343.525 547.195 343.35C547.195 343.35 547.195 343.35 547.206 343.339C547.622 342.869 547.797 342.617 547.983 342.015C548.147 341.49 548.115 340.953 547.983 340.428C547.863 339.935 547.567 339.465 547.217 339.104C547.031 338.918 546.823 338.742 546.593 338.622C546.254 338.403 545.893 338.294 545.499 338.272C545.105 338.184 544.711 338.206 544.317 338.327C543.934 338.414 543.594 338.589 543.31 338.852C542.992 339.06 542.73 339.333 542.544 339.684L542.248 340.384C542.106 340.91 542.106 341.435 542.248 341.96L542.544 342.661C542.806 343.109 543.157 343.46 543.605 343.722C543.605 343.722 543.616 343.722 543.627 343.722L543.025 343.263L542.566 342.661L542.27 341.96L542.161 341.172L542.27 340.384C542.27 340.384 542.27 340.384 542.27 340.395L542.566 339.695C542.566 339.695 542.566 339.706 542.566 339.717L543.025 339.115C543.025 339.115 543.014 339.126 543.003 339.136L543.605 338.677C543.605 338.677 543.583 338.699 543.562 338.699L544.262 338.403C544.262 338.403 544.229 338.403 544.218 338.414L545.006 338.305C545.006 338.305 544.984 338.305 544.973 338.305L545.762 338.414H545.74L546.44 338.71C546.44 338.71 546.44 338.71 546.429 338.71L547.031 339.169C547.031 339.169 547.031 339.169 547.02 339.158L547.48 339.76C547.48 339.76 547.48 339.749 547.469 339.738L547.764 340.439C547.764 340.439 547.764 340.417 547.764 340.395L547.874 341.183C547.874 341.183 547.874 341.15 547.874 341.139L547.764 341.927C547.764 341.927 547.764 341.895 547.775 341.873L547.48 342.573C547.48 342.573 547.502 342.529 547.524 342.507L547.064 343.109C547.064 343.109 547.13 343.033 547.173 343.011L546.571 343.471C546.571 343.471 546.604 343.449 546.626 343.427C546.965 343.241 547.25 342.989 547.458 342.661C547.721 342.376 547.896 342.037 547.983 341.654C548.104 341.26 548.126 340.866 548.038 340.472C548.016 340.078 547.907 339.717 547.688 339.377L547.228 338.775C546.856 338.414 546.429 338.151 545.926 338.02L545.138 337.911C544.601 337.911 544.109 338.042 543.649 338.316L543.66 338.348Z" fill="#1B1E24"/>
<path d="M560.897 339.268C560.689 339.421 560.47 339.574 560.273 339.75C560.273 339.75 560.273 339.75 560.262 339.761C560.241 339.782 559.814 340.341 559.792 340.362C559.639 340.592 559.551 340.855 559.474 341.118C559.398 341.38 559.354 341.654 559.365 341.917C559.365 342.048 559.42 342.365 559.42 342.322L559.474 342.716C559.551 342.978 559.639 343.241 559.792 343.471C559.945 343.701 560.087 343.92 560.284 344.106C560.284 344.106 560.295 344.117 560.306 344.127C560.383 344.193 560.821 344.532 560.908 344.598C560.908 344.598 560.919 344.598 560.93 344.609C561.05 344.686 561.269 344.762 561.335 344.784C561.401 344.806 561.609 344.926 561.751 344.948C562.025 345.014 562.309 345.047 562.594 345.058C562.594 345.058 562.616 345.058 562.627 345.058C562.627 345.058 562.637 345.058 562.648 345.058L563.436 344.948C563.436 344.948 563.436 344.948 563.447 344.948C563.71 344.894 563.973 344.762 564.203 344.631C564.203 344.631 564.224 344.631 564.224 344.62C564.257 344.598 564.794 344.182 564.826 344.149C564.826 344.149 564.837 344.149 564.848 344.138C565.034 343.941 565.22 343.733 565.341 343.493C565.461 343.252 565.571 343 565.658 342.748C565.658 342.727 565.658 342.705 565.669 342.694C565.724 342.42 565.768 342.146 565.779 341.862C565.779 341.84 565.779 341.829 565.779 341.807C565.757 341.534 565.724 341.249 565.669 340.975C565.669 340.953 565.669 340.932 565.647 340.91C565.549 340.625 565.439 340.352 565.297 340.089C565.275 340.045 565.253 340.012 565.22 339.979C565.045 339.739 564.87 339.498 564.673 339.279C564.64 339.246 564.608 339.213 564.575 339.18C564.312 338.896 563.995 338.688 563.622 338.568C563.272 338.381 562.889 338.294 562.484 338.316C562.079 338.305 561.696 338.381 561.346 338.568C560.985 338.688 560.667 338.885 560.394 339.18L559.934 339.782C559.671 340.242 559.529 340.746 559.529 341.271L559.639 342.059C559.781 342.562 560.033 342.989 560.394 343.361C560.448 343.416 560.514 343.482 560.558 343.547L560.098 342.945C560.142 343.011 560.186 343.077 560.219 343.153L559.923 342.453C559.923 342.453 559.956 342.54 559.967 342.595L559.857 341.807C559.857 341.807 559.857 341.873 559.857 341.906L559.967 341.118C559.967 341.118 559.956 341.183 559.945 341.216L560.241 340.516C560.241 340.516 560.23 340.549 560.219 340.559L560.678 339.958C560.678 339.958 560.656 339.979 560.645 339.99L561.247 339.531C561.247 339.531 561.226 339.553 561.204 339.553L561.904 339.257C561.904 339.257 561.871 339.257 561.849 339.268L562.637 339.159C562.637 339.159 562.583 339.159 562.561 339.159L563.349 339.268C563.349 339.268 563.283 339.257 563.25 339.246L563.951 339.542C563.951 339.542 563.896 339.52 563.874 339.498L564.476 339.958C564.476 339.958 564.443 339.936 564.432 339.914L564.892 340.516C564.892 340.516 564.881 340.494 564.87 340.483L565.166 341.183C565.166 341.183 565.166 341.161 565.166 341.151L565.275 341.939C565.275 341.939 565.275 341.928 565.275 341.917L565.166 342.705C565.166 342.705 565.166 342.694 565.166 342.683L564.87 343.383C564.87 343.383 564.87 343.361 564.881 343.361L564.421 343.963C564.421 343.963 564.443 343.941 564.454 343.93L563.852 344.39C564.192 344.204 564.476 343.941 564.684 343.624C564.947 343.339 565.122 343 565.209 342.617C565.33 342.223 565.352 341.829 565.264 341.435C565.242 341.041 565.133 340.68 564.914 340.341L564.454 339.739C564.082 339.377 563.655 339.115 563.152 338.983L562.364 338.874C561.828 338.874 561.335 339.005 560.875 339.279L560.897 339.268Z" fill="#1B1E24"/>
<path d="M573.234 332.121C576.134 334.255 578.17 337.123 580.961 339.356C582.811 340.833 585.01 341.95 587.375 342.136C591.337 342.453 596.218 339.312 594.872 334.857C593.909 331.661 591.129 329.046 588.272 326.9C586.554 325.609 586.203 323.146 587.429 321.384C587.681 321.012 587.867 320.738 587.9 320.662C588.633 319.053 588.469 317.072 587.035 315.912C584.912 314.204 582.066 315.343 579.965 316.404C574.919 318.954 569.764 317.554 564.577 316.35C558.447 314.927 553.894 313.427 547.579 313.624C544.329 313.723 539.579 313.843 537.587 316.722C535.748 319.392 536.219 323.07 539.119 324.296C544.81 326.725 551.804 324.799 557.791 325.893C563.471 326.933 568.692 328.772 573.234 332.11V332.121Z" fill="#8247E5"/>
<path d="M571.909 334.387C576.451 337.823 579.417 343.132 585.371 344.467C590.045 345.518 595.812 343.416 597.389 338.535C598.231 335.908 597.334 333.106 595.878 330.873C594.28 328.411 592.113 326.813 589.957 324.898C589.497 324.482 589.224 324.022 589.355 323.42C589.464 322.917 589.848 322.566 590.088 322.128C590.406 321.57 590.646 320.914 590.778 320.29C591.391 317.422 590.176 314.423 587.483 313.121C584.791 311.818 581.902 312.606 579.319 313.81C576.736 315.014 574.142 315.441 571.219 315.058C565.32 314.292 559.673 312.147 553.773 311.348C551.037 310.987 548.301 310.921 545.554 311.085C543.124 311.227 540.629 311.534 538.44 312.661C533.93 314.971 532.157 321.559 535.977 325.324C538.199 327.502 541.898 327.973 544.853 328.17C548.115 328.389 551.387 328.05 554.649 328.203C560.734 328.476 566.995 330.841 571.909 334.387C573.058 335.218 574.831 334.584 575.499 333.445C576.276 332.121 575.707 330.687 574.558 329.856C570.519 326.933 565.824 325.018 560.986 323.891C558.436 323.3 555.875 322.938 553.259 322.906C550.643 322.873 548.268 323.048 545.773 322.96C544.022 322.895 541.253 322.84 539.808 321.724C538.845 320.979 538.943 319.436 539.655 318.374C540.508 317.094 542.26 316.722 543.726 316.503C545.729 316.207 547.852 316.196 549.866 316.262C554.966 316.426 559.903 317.959 564.839 319.119C570.202 320.366 575.597 321.297 580.807 318.911C581.847 318.44 584.463 316.809 585.481 318.057C585.82 318.473 585.71 319.141 585.502 319.611C585.656 319.272 585.404 319.688 585.382 319.732C585.24 319.95 585.076 320.158 584.955 320.388C584.638 320.957 584.386 321.581 584.244 322.216C583.697 324.602 584.517 327.196 586.4 328.772C588.162 330.228 590.066 331.596 591.325 333.544C592.321 335.087 592.934 336.608 591.839 337.878C590.745 339.148 588.95 339.684 587.374 339.52C584.824 339.257 582.69 337.539 580.928 335.82C578.826 333.774 576.911 331.64 574.558 329.866C573.419 329.013 571.624 329.691 570.968 330.808C570.18 332.154 570.771 333.544 571.909 334.398V334.387Z" fill="#1B1E24"/>
<path d="M569.94 344C569.272 345.096 568.036 346.343 567.623 347.581" stroke="#F6CCD7" stroke-width="3" stroke-linecap="round"/>
<path d="M574.673 345.264C574.543 345.739 572.613 348.026 572.988 348.213" stroke="#F6CCD7" stroke-width="3" stroke-linecap="round"/>
<path d="M579.149 346.107C578.675 347 577.988 347.902 577.674 348.845" stroke="#F6CCD7" stroke-width="3" stroke-linecap="round"/>
<path d="M533.94 340C533.272 341.096 532.036 342.343 531.623 343.581" stroke="#F6CCD7" stroke-width="3" stroke-linecap="round"/>
<path d="M538.673 341.264C538.543 341.739 536.613 344.026 536.988 344.213" stroke="#F6CCD7" stroke-width="3" stroke-linecap="round"/>
<path d="M538.788 346.284C538.383 353.332 544.009 360.194 551.003 361.19C557.996 362.186 565.307 357.163 566.894 350.289" fill="white"/>
<path d="M536.162 346.284C535.811 354.81 542.531 362.777 551.003 363.817C559.474 364.857 567.464 358.969 569.434 350.99C570.244 347.706 565.176 346.306 564.366 349.589C562.987 355.171 557.187 359.439 551.375 358.608C545.563 357.776 541.174 352.041 541.415 346.273C541.557 342.891 536.304 342.902 536.162 346.273V346.284Z" fill="#1B1E24"/>
<path d="M299.064 352.088V366.033C299.064 367.088 298.646 368.099 297.899 368.846C297.151 369.593 296.141 370.011 295.086 370.011H267.185C266.13 370.011 265.119 369.593 264.372 368.846C263.625 368.099 263.207 367.088 263.207 366.033V338.143C263.207 337.088 263.625 336.077 264.372 335.33C265.119 334.583 266.13 334.165 267.185 334.165H294.789C297.053 334.165 298.899 335.989 298.921 338.253L299.064 352.099V352.088Z" fill="white"/>
<path d="M297.14 352.087V364.976C297.14 366.614 296.766 368.042 294.799 368.097C293.283 368.141 291.766 368.097 290.25 368.097H268.14C266.657 368.097 265.217 367.79 265.119 365.943C264.921 362.075 265.119 358.141 265.119 354.262V339.504C265.119 337.955 265.119 336.219 267.184 336.076C268.525 335.977 269.899 336.076 271.239 336.076H293.986C295.096 336.076 296.195 336.164 296.755 337.307C297.052 337.911 296.986 338.592 296.997 339.252L297.03 342.636L297.107 350.515L297.129 352.098C297.151 354.57 300.997 354.581 300.975 352.098C300.931 347.614 300.931 343.12 300.832 338.636C300.755 335.043 298.283 332.34 294.635 332.241C292.755 332.186 290.865 332.241 288.975 332.241H267.844C264.316 332.241 261.415 334.438 261.272 338.153C261.13 341.867 261.272 345.922 261.272 349.79V365.152C261.272 368.064 262.47 370.822 265.514 371.724C266.899 372.141 268.547 371.965 269.987 371.965H293.722C296.206 371.965 298.601 371.548 300.063 369.24C301.338 367.24 300.997 364.625 300.997 362.361V352.109C300.997 349.636 297.151 349.625 297.151 352.109L297.14 352.087Z" fill="#19191A"/>
<path d="M296.855 349.878V363.823C296.855 364.878 296.437 365.889 295.69 366.636C294.942 367.383 293.932 367.801 292.877 367.801H264.976C263.921 367.801 262.91 367.383 262.163 366.636C261.416 365.889 260.998 364.878 260.998 363.823V335.933C260.998 334.878 261.416 333.867 262.163 333.12C262.91 332.373 263.921 331.955 264.976 331.955H292.58C294.844 331.955 296.69 333.779 296.712 336.043L296.855 349.889V349.878Z" fill="#D5D1FF"/>
<path d="M294.931 349.878V362.768C294.931 364.405 294.557 365.834 292.59 365.889C291.074 365.933 289.557 365.889 288.041 365.889H265.932C264.448 365.889 263.008 365.581 262.91 363.735C262.712 359.867 262.91 355.933 262.91 352.054V337.296C262.91 335.747 262.91 334.01 264.975 333.868C266.316 333.769 267.69 333.868 269.03 333.868H291.777C292.887 333.868 293.986 333.955 294.546 335.098C294.843 335.703 294.777 336.384 294.788 337.043L294.821 340.428L294.898 348.307L294.92 349.889C294.942 352.362 298.788 352.373 298.766 349.889C298.722 345.406 298.722 340.911 298.623 336.428C298.546 332.835 296.074 330.131 292.426 330.032C290.557 329.967 288.667 330.021 286.777 330.021H265.635C262.107 330.021 259.206 332.219 259.063 335.933C258.921 339.648 259.063 343.703 259.063 347.56V362.922C259.063 365.834 260.261 368.592 263.305 369.493C264.69 369.911 266.338 369.735 267.778 369.735H291.513C293.997 369.735 296.392 369.317 297.854 367.01C299.129 365.01 298.788 362.395 298.788 360.131V349.878C298.788 347.406 294.942 347.395 294.942 349.878H294.931Z" fill="#19191A"/>
<path d="M270.724 351.66C271.877 352.692 273.097 353.649 274.284 354.627C274.822 355.066 275.35 355.517 275.877 355.967C276.954 356.901 278.174 356.967 279.218 355.934C280.789 354.374 282.24 352.681 283.745 351.055C285.251 349.429 286.833 347.737 288.372 346.066C290.053 344.253 287.339 341.528 285.657 343.352C284.086 345.044 282.504 346.748 280.932 348.44C279.361 350.132 277.954 351.89 276.306 353.407L277.152 352.912L277.031 352.956H278.053L277.943 352.923L278.789 353.418C276.976 351.978 275.163 350.484 273.438 348.934C272.669 348.242 271.482 348.176 270.724 348.934C270.02 349.638 269.943 350.956 270.724 351.649V351.66Z" fill="#5A4BF5"/>
<path d="M354.34 382.566C361.827 378.976 369.532 375.025 374.49 368.36C378.758 362.625 380.564 355.116 379.393 348.068C375.322 323.617 336.052 313.384 324.012 337.123C319.613 345.813 316.986 357.721 321.9 366.236C327.898 376.623 330.338 376.207 340.101 380.574L339.893 387.228L354.34 382.577V382.566Z" fill="white"/>
<path d="M355.664 384.831C362.559 381.526 369.651 377.903 374.806 372.102C379.961 366.302 382.905 358.213 382.293 350.278C381.439 339.454 374.379 330.413 364.901 325.488C356.069 320.892 344.971 319.359 335.58 323.19C330.677 325.182 326.562 328.422 323.541 332.778C319.568 338.502 317.302 345.933 316.733 352.828C316.427 356.528 316.733 360.424 317.992 363.937C319.13 367.122 320.991 370.099 323.026 372.803C324.581 374.849 326.299 376.655 328.466 378.067C330.447 379.359 332.68 380.234 334.847 381.154C336.16 381.712 337.474 382.259 338.787 382.85L337.485 380.585C337.419 382.806 337.342 385.017 337.277 387.239C337.222 388.892 339.006 390.282 340.604 389.767C345.419 388.213 350.235 386.659 355.051 385.116C358.258 384.087 356.89 379.008 353.65 380.048C348.834 381.602 344.019 383.157 339.203 384.7L342.53 387.228C342.596 385.006 342.672 382.795 342.738 380.574C342.76 379.731 342.235 378.658 341.436 378.308C338.94 377.192 336.62 376.305 334.256 375.222C333.358 374.806 332.461 374.368 331.618 373.853C330.6 373.241 330.37 373.054 329.648 372.409C327.798 370.734 326.583 368.895 325.27 366.772C323.585 364.025 322.315 361.234 321.998 357.983C321.374 351.428 323.191 344.686 326.102 338.841C328.16 334.693 331.016 331.508 334.902 329.319C338.415 327.338 342.475 326.408 346.525 326.32C351.045 326.233 355.117 327.032 359.484 328.761C367.243 331.836 374.204 338.283 376.382 346.513C378.232 353.507 376.59 361.3 372.234 367.046C367.451 373.35 359.987 376.973 353.026 380.311C351.746 380.924 351.406 382.752 352.085 383.901C352.851 385.203 354.394 385.455 355.675 384.842L355.664 384.831Z" fill="#1B1E24"/>
<path d="M337.661 338.348C337.661 338.348 337.628 338.37 337.606 338.381C337.398 338.534 337.169 338.699 336.961 338.885C336.95 338.896 336.928 338.907 336.917 338.929C336.731 339.126 336.567 339.344 336.413 339.574C336.413 339.585 336.391 339.607 336.391 339.629C336.501 339.388 336.173 340.111 336.085 340.34C336.085 340.34 336.085 340.34 336.085 340.351C336.085 340.351 336.085 340.373 336.085 340.384C336.184 339.782 335.997 340.92 335.976 341.183C335.976 341.183 335.976 341.183 335.976 341.194C335.976 341.194 335.976 341.205 335.976 341.216C336.052 341.938 336.041 342.113 336.391 342.748C336.512 342.978 336.676 343.186 336.873 343.372C337.366 343.832 337.574 343.919 338.197 344.149C338.197 344.149 338.197 344.149 338.208 344.149C338.219 344.149 338.974 344.259 338.996 344.259C338.996 344.259 338.996 344.259 339.007 344.259C339.27 344.237 340.507 344.04 339.806 344.149C339.806 344.149 339.828 344.149 339.839 344.149C340.091 344.062 340.343 343.963 340.572 343.843C340.572 343.843 340.594 343.843 340.594 343.821C340.802 343.668 341.01 343.525 341.196 343.35C341.196 343.35 341.196 343.35 341.207 343.339C341.623 342.869 341.798 342.617 341.984 342.015C342.148 341.49 342.116 340.953 341.984 340.428C341.864 339.935 341.568 339.465 341.218 339.104C341.032 338.918 340.824 338.742 340.594 338.622C340.255 338.403 339.894 338.294 339.5 338.272C339.106 338.184 338.712 338.206 338.318 338.327C337.935 338.414 337.595 338.589 337.311 338.852C336.993 339.06 336.731 339.333 336.545 339.684L336.249 340.384C336.107 340.91 336.107 341.435 336.249 341.96L336.545 342.661C336.807 343.109 337.158 343.46 337.606 343.722C337.606 343.722 337.617 343.722 337.628 343.722L337.026 343.263L336.567 342.661L336.271 341.96L336.162 341.172L336.271 340.384C336.271 340.384 336.271 340.384 336.271 340.395L336.567 339.695C336.567 339.695 336.567 339.706 336.567 339.717L337.026 339.115C337.026 339.115 337.015 339.126 337.004 339.136L337.606 338.677C337.606 338.677 337.584 338.699 337.563 338.699L338.263 338.403C338.263 338.403 338.23 338.403 338.219 338.414L339.007 338.305C339.007 338.305 338.985 338.305 338.974 338.305L339.762 338.414H339.741L340.441 338.71C340.441 338.71 340.441 338.71 340.43 338.71L341.032 339.169C341.032 339.169 341.032 339.169 341.021 339.158L341.481 339.76C341.481 339.76 341.481 339.749 341.47 339.738L341.765 340.439C341.765 340.439 341.765 340.417 341.765 340.395L341.875 341.183C341.875 341.183 341.875 341.15 341.875 341.139L341.765 341.927C341.765 341.927 341.765 341.895 341.776 341.873L341.481 342.573C341.481 342.573 341.503 342.529 341.525 342.507L341.065 343.109C341.065 343.109 341.131 343.033 341.174 343.011L340.572 343.471C340.572 343.471 340.605 343.449 340.627 343.427C340.966 343.241 341.251 342.989 341.459 342.661C341.722 342.376 341.897 342.037 341.984 341.654C342.105 341.26 342.127 340.866 342.039 340.472C342.017 340.078 341.908 339.717 341.689 339.377L341.229 338.775C340.857 338.414 340.43 338.151 339.927 338.02L339.139 337.911C338.602 337.911 338.11 338.042 337.65 338.316L337.661 338.348Z" fill="#1B1E24"/>
<path d="M354.898 339.268C354.69 339.421 354.471 339.574 354.274 339.75C354.274 339.75 354.274 339.75 354.263 339.761C354.241 339.782 353.815 340.341 353.793 340.362C353.64 340.592 353.552 340.855 353.475 341.118C353.399 341.38 353.355 341.654 353.366 341.917C353.366 342.048 353.421 342.365 353.421 342.322L353.475 342.716C353.552 342.978 353.64 343.241 353.793 343.471C353.946 343.701 354.088 343.92 354.285 344.106C354.285 344.106 354.296 344.117 354.307 344.127C354.384 344.193 354.822 344.532 354.909 344.598C354.909 344.598 354.92 344.598 354.931 344.609C355.051 344.686 355.27 344.762 355.336 344.784C355.402 344.806 355.61 344.926 355.752 344.948C356.026 345.014 356.31 345.047 356.595 345.058C356.595 345.058 356.617 345.058 356.627 345.058C356.627 345.058 356.638 345.058 356.649 345.058L357.437 344.948C357.437 344.948 357.437 344.948 357.448 344.948C357.711 344.894 357.974 344.762 358.204 344.631C358.204 344.631 358.225 344.631 358.225 344.62C358.258 344.598 358.795 344.182 358.827 344.149C358.827 344.149 358.838 344.149 358.849 344.138C359.035 343.941 359.221 343.733 359.342 343.493C359.462 343.252 359.572 343 359.659 342.748C359.659 342.727 359.659 342.705 359.67 342.694C359.725 342.42 359.769 342.146 359.78 341.862C359.78 341.84 359.78 341.829 359.78 341.807C359.758 341.534 359.725 341.249 359.67 340.975C359.67 340.953 359.67 340.932 359.648 340.91C359.55 340.625 359.44 340.352 359.298 340.089C359.276 340.045 359.254 340.012 359.221 339.979C359.046 339.739 358.871 339.498 358.674 339.279C358.641 339.246 358.608 339.213 358.576 339.18C358.313 338.896 357.996 338.688 357.623 338.568C357.273 338.381 356.89 338.294 356.485 338.316C356.08 338.305 355.697 338.381 355.347 338.568C354.986 338.688 354.668 338.885 354.395 339.18L353.935 339.782C353.672 340.242 353.53 340.746 353.53 341.271L353.64 342.059C353.782 342.562 354.034 342.989 354.395 343.361C354.449 343.416 354.515 343.482 354.559 343.547L354.099 342.945C354.143 343.011 354.187 343.077 354.22 343.153L353.924 342.453C353.924 342.453 353.957 342.54 353.968 342.595L353.858 341.807C353.858 341.807 353.858 341.873 353.858 341.906L353.968 341.118C353.968 341.118 353.957 341.183 353.946 341.216L354.241 340.516C354.241 340.516 354.231 340.549 354.22 340.559L354.679 339.958C354.679 339.958 354.657 339.979 354.646 339.99L355.248 339.531C355.248 339.531 355.227 339.553 355.205 339.553L355.905 339.257C355.905 339.257 355.872 339.257 355.85 339.268L356.638 339.159C356.638 339.159 356.584 339.159 356.562 339.159L357.35 339.268C357.35 339.268 357.284 339.257 357.251 339.246L357.952 339.542C357.952 339.542 357.897 339.52 357.875 339.498L358.477 339.958C358.477 339.958 358.444 339.936 358.433 339.914L358.893 340.516C358.893 340.516 358.882 340.494 358.871 340.483L359.167 341.183C359.167 341.183 359.167 341.161 359.167 341.151L359.276 341.939C359.276 341.939 359.276 341.928 359.276 341.917L359.167 342.705C359.167 342.705 359.167 342.694 359.167 342.683L358.871 343.383C358.871 343.383 358.871 343.361 358.882 343.361L358.422 343.963C358.422 343.963 358.444 343.941 358.455 343.93L357.853 344.39C358.193 344.204 358.477 343.941 358.685 343.624C358.948 343.339 359.123 343 359.21 342.617C359.331 342.223 359.353 341.829 359.265 341.435C359.243 341.041 359.134 340.68 358.915 340.341L358.455 339.739C358.083 339.377 357.656 339.115 357.153 338.983L356.365 338.874C355.828 338.874 355.336 339.005 354.876 339.279L354.898 339.268Z" fill="#1B1E24"/>
<path d="M367.234 332.121C370.134 334.255 372.17 337.123 374.961 339.356C376.811 340.833 379.01 341.95 381.375 342.136C385.337 342.453 390.218 339.312 388.872 334.857C387.909 331.661 385.129 329.046 382.272 326.9C380.554 325.609 380.203 323.146 381.429 321.384C381.681 321.012 381.867 320.738 381.9 320.662C382.633 319.053 382.469 317.072 381.035 315.912C378.912 314.204 376.066 315.343 373.965 316.404C368.919 318.954 363.764 317.554 358.577 316.35C352.447 314.927 347.894 313.427 341.579 313.624C338.329 313.723 333.579 313.843 331.587 316.722C329.748 319.392 330.219 323.07 333.119 324.296C338.81 326.725 345.804 324.799 351.791 325.893C357.471 326.933 362.692 328.772 367.234 332.11V332.121Z" fill="#D00037"/>
<path d="M365.909 334.387C370.451 337.823 373.417 343.132 379.371 344.467C384.045 345.518 389.812 343.416 391.389 338.535C392.231 335.908 391.334 333.106 389.878 330.873C388.28 328.411 386.113 326.813 383.957 324.898C383.497 324.482 383.224 324.022 383.355 323.42C383.464 322.917 383.848 322.566 384.088 322.128C384.406 321.57 384.646 320.914 384.778 320.29C385.391 317.422 384.176 314.423 381.483 313.121C378.791 311.818 375.902 312.606 373.319 313.81C370.736 315.014 368.142 315.441 365.219 315.058C359.32 314.292 353.673 312.147 347.773 311.348C345.037 310.987 342.301 310.921 339.554 311.085C337.124 311.227 334.629 311.534 332.44 312.661C327.93 314.971 326.157 321.559 329.977 325.324C332.199 327.502 335.898 327.973 338.853 328.17C342.115 328.389 345.387 328.05 348.649 328.203C354.734 328.476 360.995 330.841 365.909 334.387C367.058 335.218 368.831 334.584 369.499 333.445C370.276 332.121 369.707 330.687 368.558 329.856C364.519 326.933 359.824 325.018 354.986 323.891C352.436 323.3 349.875 322.938 347.259 322.906C344.643 322.873 342.268 323.048 339.773 322.96C338.022 322.895 335.253 322.84 333.808 321.724C332.845 320.979 332.943 319.436 333.655 318.374C334.508 317.094 336.26 316.722 337.726 316.503C339.729 316.207 341.852 316.196 343.866 316.262C348.966 316.426 353.903 317.959 358.839 319.119C364.202 320.366 369.597 321.297 374.807 318.911C375.847 318.44 378.463 316.809 379.481 318.057C379.82 318.473 379.71 319.141 379.502 319.611C379.656 319.272 379.404 319.688 379.382 319.732C379.24 319.95 379.076 320.158 378.955 320.388C378.638 320.957 378.386 321.581 378.244 322.216C377.697 324.602 378.517 327.196 380.4 328.772C382.162 330.228 384.066 331.596 385.325 333.544C386.321 335.087 386.934 336.608 385.839 337.878C384.745 339.148 382.95 339.684 381.374 339.52C378.824 339.257 376.69 337.539 374.928 335.82C372.826 333.774 370.911 331.64 368.558 329.866C367.419 329.013 365.624 329.691 364.968 330.808C364.18 332.154 364.771 333.544 365.909 334.398V334.387Z" fill="#1B1E24"/>
<path d="M363.94 344C363.272 345.096 362.036 346.343 361.623 347.581" stroke="#F6CCD7" stroke-width="3" stroke-linecap="round"/>
<path d="M368.673 345.264C368.543 345.739 366.613 348.026 366.988 348.213" stroke="#F6CCD7" stroke-width="3" stroke-linecap="round"/>
<path d="M373.149 346.107C372.675 347 371.988 347.902 371.674 348.845" stroke="#F6CCD7" stroke-width="3" stroke-linecap="round"/>
<path d="M327.94 340C327.272 341.096 326.036 342.343 325.623 343.581" stroke="#F6CCD7" stroke-width="3" stroke-linecap="round"/>
<path d="M332.673 341.264C332.543 341.739 330.613 344.026 330.988 344.213" stroke="#F6CCD7" stroke-width="3" stroke-linecap="round"/>
<path d="M332.788 346.284C332.383 353.332 338.009 360.195 345.003 361.191C351.996 362.187 359.307 357.163 360.894 350.289" fill="white"/>
<path d="M330.162 346.284C329.811 354.81 336.531 362.778 345.003 363.817C353.474 364.857 361.464 358.969 363.434 350.99C364.244 347.707 359.176 346.306 358.366 349.589C356.987 355.171 351.187 359.439 345.375 358.608C339.563 357.776 335.174 352.041 335.415 346.273C335.557 342.891 330.304 342.902 330.162 346.273V346.284Z" fill="#1B1E24"/>
<path d="M269.416 396.252H266.536L260.848 382.752H263.512L267.94 393.624L272.08 382.752H274.726L269.416 396.252ZM278.518 394.326C278.974 394.326 279.37 394.212 279.706 393.984C280.054 393.744 280.318 393.408 280.498 392.976C280.69 392.544 280.786 392.04 280.786 391.464C280.786 390.888 280.69 390.384 280.498 389.952C280.318 389.508 280.054 389.166 279.706 388.926C279.37 388.686 278.974 388.566 278.518 388.566C278.062 388.566 277.66 388.686 277.312 388.926C276.976 389.166 276.712 389.508 276.52 389.952C276.34 390.384 276.25 390.888 276.25 391.464C276.25 392.04 276.34 392.544 276.52 392.976C276.712 393.408 276.976 393.744 277.312 393.984C277.66 394.212 278.062 394.326 278.518 394.326ZM278.518 386.586C279.442 386.586 280.258 386.796 280.966 387.216C281.674 387.624 282.226 388.2 282.622 388.944C283.03 389.676 283.234 390.516 283.234 391.464C283.234 392.4 283.03 393.234 282.622 393.966C282.226 394.698 281.674 395.274 280.966 395.694C280.258 396.114 279.442 396.324 278.518 396.324C277.606 396.324 276.79 396.114 276.07 395.694C275.362 395.274 274.804 394.698 274.396 393.966C274 393.234 273.802 392.4 273.802 391.464C273.802 390.516 274 389.676 274.396 388.944C274.804 388.2 275.362 387.624 276.07 387.216C276.79 386.796 277.606 386.586 278.518 386.586ZM287.974 396.306C287.362 396.306 286.81 396.168 286.318 395.892C285.838 395.616 285.46 395.232 285.184 394.74C284.908 394.248 284.77 393.684 284.77 393.048V383.94H287.218V392.976C287.218 393.24 287.29 393.468 287.434 393.66C287.578 393.852 287.758 393.954 287.974 393.966C288.178 393.978 288.436 393.942 288.748 393.858C288.832 393.834 288.916 393.81 289 393.786L289.558 396.108C288.958 396.24 288.43 396.306 287.974 396.306ZM283.042 386.73H289.648V388.836H283.042V386.73ZM297.134 390.546C297.074 390.21 296.948 389.892 296.756 389.592C296.564 389.292 296.306 389.046 295.982 388.854C295.67 388.662 295.298 388.566 294.866 388.566C294.446 388.566 294.062 388.656 293.714 388.836C293.378 389.016 293.096 389.262 292.868 389.574C292.64 389.874 292.49 390.198 292.418 390.546H297.134ZM298.916 389.196C299.132 389.664 299.258 390.156 299.294 390.672C299.342 391.176 299.348 391.65 299.312 392.094V392.274H292.418C292.478 392.67 292.634 393.024 292.886 393.336C293.138 393.636 293.438 393.876 293.786 394.056C294.134 394.224 294.494 394.308 294.866 394.308C295.478 394.308 295.94 394.206 296.252 394.002C296.576 393.798 296.804 393.594 296.936 393.39L296.954 393.372L298.934 394.146C298.646 394.758 298.154 395.274 297.458 395.694C296.762 396.102 295.892 396.306 294.848 396.306C293.936 396.306 293.126 396.102 292.418 395.694C291.71 395.274 291.158 394.698 290.762 393.966C290.366 393.234 290.168 392.4 290.168 391.464C290.168 390.516 290.366 389.676 290.762 388.944C291.158 388.2 291.71 387.624 292.418 387.216C293.126 386.796 293.936 386.586 294.848 386.586C295.748 386.586 296.492 386.772 297.08 387.144C297.68 387.504 298.118 387.882 298.394 388.278C298.67 388.674 298.838 388.98 298.898 389.196H298.916Z" fill="#5F44FF"/>
</svg>
