<svg width="586" height="248" viewBox="0 0 586 248" fill="none" xmlns="http://www.w3.org/2000/svg">
<path d="M501.175 93.7256C513.802 93.7256 524.038 83.4896 524.038 70.8628C524.038 58.236 513.802 48 501.175 48C488.549 48 478.312 58.236 478.312 70.8628C478.312 83.4896 488.549 93.7256 501.175 93.7256Z" fill="#1B1E24"/>
<path d="M488.315 80.0224C488.382 77.6845 489.465 75.3807 490.085 73.1601C490.964 70.016 492.094 66.753 493.565 63.8399C493.958 63.0623 494.849 61.6145 495.61 61.0871C496.375 60.5578 496.666 61.0465 497.174 61.618C498.158 62.725 498.499 63.9932 498.57 65.4818C498.687 67.938 498.693 70.3864 498.845 72.8455C499.002 75.384 499.287 78.0302 499.287 80.5533" stroke="white" stroke-width="2.5" stroke-linecap="round"/>
<path d="M492.388 70.8199C497.644 70.8199 508.982 70.8199 514.232 70.8199" stroke="white" stroke-width="2.5" stroke-linecap="round"/>
<path d="M499.227 80.8685C499.829 80.8685 506.687 81.1788 506.72 80.5532C506.81 78.8524 506.612 77.1567 506.553 75.4606C506.455 72.6209 506.543 69.7683 506.543 66.9269C506.543 65.8062 506.543 64.6854 506.543 63.5646C506.543 62.7135 506.42 62.5028 507.369 62.5028C509.866 62.5028 512.364 62.5028 514.861 62.5028" stroke="white" stroke-width="2.5" stroke-linecap="round"/>
<path d="M538.273 70.8673L538.273 70.8666C538.265 58.7894 548.056 49 560.127 49C572.208 49 581.999 58.7897 581.999 70.8673C581.999 82.9446 572.208 92.7256 560.136 92.7256C548.056 92.7256 538.273 82.9362 538.273 70.8673Z" fill="#8247E5" stroke="#512897" stroke-width="2"/>
<path d="M558.983 66.037C558.983 64.8282 558.984 63.6634 558.368 62.5853C558.208 62.3058 557.659 62.2127 557.437 61.953C557.03 61.4792 555.859 60.8162 555.292 60.6543C554.848 60.5276 554.572 60.0675 554.062 60.0392C553.329 59.9985 552.526 60.1687 551.823 60.3468C550.848 60.594 549.601 60.8886 548.679 61.3037C548.31 61.4699 547.843 61.6669 547.637 62.0385C546.905 63.3545 547.141 65.198 547.141 66.6522C547.141 67.6157 547.027 68.611 547.132 69.5572C547.204 70.2012 547.485 70.4167 547.833 70.9584C548.847 72.5348 550.545 73.3186 551.909 74.4871C552.249 74.7792 552.982 74.6748 553.378 74.564C554.724 74.187 555.964 73.4872 557.214 72.8893C559.256 71.913 561.183 70.683 563.255 69.7622C564.83 69.0622 567.268 67.8697 569.014 68.8395C569.745 69.246 570.427 69.7334 571.158 70.1296C571.932 70.5486 573.038 71.0188 573.67 71.6505C574.134 72.1144 574.002 72.8999 574.132 73.496C574.322 74.3709 574.362 75.5159 574.362 76.4095C574.362 77.5943 574.178 78.5563 573.32 79.3828C572.568 80.107 570.927 80.3484 569.936 80.6473C569.092 80.9019 568.295 81.1814 567.442 81.3821C564.954 81.9673 563.261 79.5101 561.136 78.8018" stroke="white" stroke-width="2.5" stroke-linecap="round"/>
<path d="M57.8258 129.082C62.6758 129.512 67.4658 131.152 71.7758 134.202C81.2958 140.932 84.9258 153.902 83.0158 165.022C81.4058 174.392 75.6958 182.612 66.6958 186.442C55.0058 191.412 40.3858 188.802 31.5658 180.082C27.0058 175.572 24.4558 169.512 23.6258 163.182C23.1758 159.712 23.4258 156.172 24.2458 152.782C27.9458 137.562 43.1258 127.782 57.8158 129.092L57.8258 129.082Z" fill="white"/>
<path d="M57.8269 131.582C64.0669 132.182 70.0769 135.062 74.2469 139.772C77.8269 143.812 79.8769 149.072 80.6869 154.362C82.3269 165.072 78.2969 176.852 68.7369 182.602C59.1769 188.352 45.9269 187.452 36.7269 181.132C26.3069 173.972 23.1069 159.192 28.6069 148.002C34.1069 136.812 45.8369 130.582 57.8369 131.582C59.1869 131.692 60.3369 130.352 60.3369 129.082C60.3369 127.632 59.1869 126.692 57.8369 126.582C45.3969 125.542 32.9069 131.872 26.1069 142.282C18.1169 154.512 19.4869 172.192 30.3269 182.342C39.8869 191.302 54.9169 193.912 67.0269 188.992C79.1369 184.072 86.5069 171.052 85.9969 157.792C85.7469 151.382 83.9469 144.882 80.3469 139.532C76.3669 133.622 70.3369 129.392 63.4569 127.542C61.6169 127.042 59.7369 126.762 57.8469 126.572C56.4969 126.442 55.3469 127.812 55.3469 129.072C55.3469 130.532 56.4969 131.442 57.8469 131.572L57.8269 131.582Z" fill="#1B1E24"/>
<path d="M58.8559 143.322C53.6559 142.432 46.9059 143.872 44.8459 149.372C44.0759 151.432 44.2159 153.852 45.3459 155.762C46.6659 158.002 48.9759 158.922 51.4059 159.472C54.1259 160.092 56.9459 160.252 59.5959 161.162C60.9659 161.632 61.9259 162.742 62.3059 164.032C62.7359 165.462 62.6259 166.892 61.8959 168.132C61.1659 169.372 59.5059 170.302 57.8359 170.792C53.5359 172.052 48.0059 171.242 44.6159 168.252C43.6059 167.362 42.0759 167.252 41.0759 168.252C40.1659 169.162 40.0559 170.892 41.0759 171.792C44.7259 175.012 49.7259 176.512 54.5559 176.332C59.0659 176.162 64.4259 174.442 66.5159 170.062C68.3959 166.122 67.6059 161.002 64.1759 158.142C62.0559 156.372 59.3259 155.822 56.6659 155.372C55.3459 155.142 54.0259 154.962 52.7159 154.662C52.0359 154.512 51.3159 154.362 50.6759 154.092C50.5759 154.052 50.0059 153.682 49.9859 153.662C49.4959 153.222 49.3659 152.742 49.3459 152.032C49.3359 151.542 49.6459 150.642 50.0759 150.132C51.7559 148.162 55.0959 147.742 57.5159 148.162C58.8459 148.392 60.2059 147.812 60.5959 146.412C60.9259 145.212 60.1859 143.562 58.8459 143.332L58.8559 143.322Z" fill="#1B1E24"/>
<path d="M38.8568 153.062C38.1268 154.922 36.4768 155.902 34.9568 155.432C33.4368 154.962 32.6468 153.242 33.3668 151.382C34.0968 149.522 35.9068 148.382 37.4268 148.852C38.9368 149.312 39.5768 151.202 38.8568 153.062Z" fill="#1B1E24" stroke="#1B1E24" stroke-miterlimit="10"/>
<path d="M73.6654 153.062C72.9354 154.922 71.2854 155.902 69.7654 155.432C68.2454 154.962 67.4554 153.242 68.1754 151.382C68.9054 149.522 70.7154 148.382 72.2354 148.852C73.7554 149.322 74.3854 151.202 73.6654 153.062Z" fill="#1B1E24" stroke="#1B1E24" stroke-miterlimit="10"/>
<path d="M51.7569 107.502C51.8469 111.082 51.7169 114.672 51.8569 118.252C51.9069 119.562 52.9669 120.812 54.3569 120.752C55.6669 120.692 56.9069 119.652 56.8569 118.252C56.7169 114.672 56.8569 111.082 56.7569 107.502C56.7269 106.192 55.6269 104.942 54.2569 105.002C52.8869 105.062 51.7169 106.102 51.7569 107.502Z" fill="#1B1E24"/>
<path d="M37.6951 116.592C39.0151 118.362 40.4151 120.062 41.9051 121.692C42.3251 122.152 43.0551 122.422 43.6751 122.422C44.2951 122.422 45.0251 122.152 45.4451 121.692C45.8651 121.232 46.2051 120.592 46.1751 119.922C46.1451 119.252 45.9051 118.662 45.4451 118.152C44.3651 116.982 43.3251 115.772 42.3551 114.512L42.7451 115.022C42.4951 114.702 42.2551 114.382 42.0151 114.062C41.8551 113.772 41.6451 113.532 41.3751 113.362C41.1351 113.142 40.8551 112.992 40.5251 112.912C39.9251 112.752 39.1251 112.822 38.5951 113.162C38.0651 113.502 37.5951 114.022 37.4451 114.652C37.2951 115.282 37.3051 116.052 37.6951 116.582V116.592Z" fill="#1B1E24"/>
<path d="M66.4256 114.062C66.1956 114.372 65.9556 114.682 65.7156 114.992L66.1056 114.482C65.1256 115.752 64.0756 116.962 62.9956 118.142C62.5456 118.622 62.2656 119.242 62.2656 119.912C62.2656 120.522 62.5356 121.262 62.9956 121.682C63.4556 122.102 64.0956 122.442 64.7656 122.412C65.4356 122.382 66.0856 122.172 66.5356 121.682C68.0356 120.052 69.4256 118.352 70.7456 116.582C71.1056 116.092 71.1556 115.212 70.9956 114.652C70.8356 114.092 70.3856 113.442 69.8456 113.162C69.2656 112.852 68.5656 112.702 67.9156 112.912L67.3156 113.162C66.9356 113.382 66.6456 113.682 66.4156 114.062H66.4256Z" fill="#1B1E24"/>
<path d="M226.97 165.226C232.492 160.617 233.696 158.888 239.193 154.253C242.314 151.623 245.451 148.967 248.944 146.836C252.437 144.705 256.074 143.377 260.032 142.7C267.829 141.373 275.948 142.853 283.433 145.085C287.061 146.168 291.273 147.225 294.292 149.627C296.821 151.64 298.174 154.913 296.128 157.695C293.709 160.985 289.108 161.315 285.37 161.34C280.262 161.374 275.213 160.715 270.282 159.404C267.364 158.634 266.121 163.15 269.039 163.92C273.961 165.222 279.061 165.95 284.152 166.017C288.567 166.076 293.497 165.797 297.193 163.083C300.889 160.368 302.851 156.19 301.413 151.843C299.899 147.267 295.874 144.646 291.611 142.92C283.399 139.614 274.198 137.389 265.309 137.558C260.886 137.643 256.404 138.362 252.277 139.986C247.862 141.719 244.022 144.35 240.335 147.293C233.205 152.968 230.674 156.075 223.68 161.911C222.707 162.723 222.842 164.389 223.68 165.226C224.644 166.19 226.014 166.038 226.995 165.226H226.97Z" fill="#1B1E24"/>
<path d="M300.634 157.687C305.294 154.109 310.182 150.828 315.273 147.885C317.819 146.413 320.407 145.035 323.046 143.732C325.49 142.531 327.968 141.305 330.573 140.485C334.548 139.233 340.442 139.233 341.779 144.104C343.03 148.663 339.85 152.858 336.527 155.733C334.488 157.492 332.256 159.023 330.074 160.588C327.528 162.414 324.957 164.216 322.378 166C317.303 169.502 312.187 172.952 306.977 176.259C302.156 179.321 297.141 181.79 291.382 182.323C285.732 182.847 280.083 182.002 274.645 180.454C268.336 178.652 262.043 175.65 255.311 176.394C248.579 177.139 245.129 179.346 239.75 182.83C237.23 184.463 239.573 188.522 242.118 186.873C246.753 183.871 249.856 181.663 255.497 181.054C261.654 180.395 267.456 183.253 273.224 184.911C278.992 186.568 285.292 187.566 291.382 187C294.452 186.712 297.488 186.112 300.372 184.995C303.256 183.879 306.148 182.306 308.854 180.606C314.36 177.155 319.739 173.493 325.084 169.798C327.773 167.937 330.446 166.051 333.11 164.14C335.537 162.398 338.015 160.681 340.239 158.685C344.223 155.124 347.293 150.177 346.625 144.637C346.295 141.889 345.085 139.351 342.895 137.609C340.705 135.867 337.837 135.013 335.004 135.004C331.435 135.004 328.069 136.29 324.856 137.719C321.642 139.148 318.614 140.671 315.595 142.32C309.539 145.627 303.755 149.416 298.283 153.627C297.285 154.397 296.744 155.64 297.446 156.833C298.021 157.822 299.644 158.448 300.651 157.67L300.634 157.687Z" fill="#1B1E24"/>
<path d="M280.597 107.144C283.177 109.743 285.75 112.335 288.33 114.934C289.205 115.815 290.682 115.815 291.557 114.934C295.614 110.847 299.671 106.761 303.727 102.674C304.306 102.091 304.884 101.509 305.47 100.918C307.548 98.8252 304.321 95.5667 302.243 97.6674C298.186 101.754 294.13 105.841 290.073 109.927C289.494 110.51 288.916 111.092 288.33 111.683H291.557C288.977 109.084 286.404 106.492 283.824 103.893C281.746 101.8 278.511 105.051 280.597 107.144Z" fill="#5A4BF5"/>
<path d="M303.753 81.8298C302.74 80.4371 301.78 78.8879 300.454 77.7707C298.368 76.0129 295.777 75 293.036 75C290.295 75 287.762 75.9757 285.707 77.6962C284.336 78.8432 283.361 80.3998 282.311 81.8298L284.835 80.802C283.093 80.5264 281.283 80.1019 279.51 80.2658C276.829 80.519 274.311 81.6287 272.397 83.5429C270.483 85.457 269.366 87.9819 269.12 90.6557C268.964 92.4284 269.381 94.2308 269.656 95.9811L270.684 93.4562C269.291 94.4691 267.742 95.4299 266.625 96.7557C264.867 98.8411 263.854 101.433 263.854 104.174C263.854 106.915 264.83 109.447 266.55 111.503C267.697 112.873 269.254 113.849 270.684 114.899L269.656 112.374C269.381 114.117 268.956 115.927 269.12 117.7C269.373 120.381 270.483 122.898 272.397 124.812C274.311 126.727 276.836 127.844 279.51 128.089C281.283 128.246 283.085 127.829 284.835 127.553L282.311 126.525C283.323 127.918 284.284 129.467 285.61 130.585C287.695 132.342 290.287 133.355 293.028 133.355C295.769 133.355 298.301 132.38 300.357 130.659C301.727 129.512 302.703 127.955 303.753 126.525L301.228 127.553C302.971 127.829 304.781 128.253 306.554 128.089C309.235 127.836 311.753 126.727 313.667 124.812C315.581 122.898 316.698 120.373 316.944 117.7C317.1 115.927 316.683 114.124 316.408 112.374L315.38 114.899C316.773 113.886 318.322 112.925 319.439 111.6C321.197 109.514 322.21 106.922 322.21 104.181C322.21 101.44 321.234 98.9081 319.513 96.8525C318.366 95.4821 316.81 94.5064 315.38 93.4562L316.408 95.9811C316.683 94.2382 317.108 92.4284 316.944 90.6557C316.691 87.9745 315.581 85.457 313.667 83.5429C311.753 81.6287 309.228 80.5115 306.554 80.2658C304.781 80.1093 302.979 80.5264 301.228 80.802C300.037 80.9882 299.374 82.4778 299.664 83.5503C300.014 84.8239 301.214 85.3006 302.413 85.1144C303.686 84.9133 304.804 84.675 305.921 84.7048C307.567 84.7495 309.287 85.4943 310.501 86.7083C311.715 87.9223 312.438 89.5907 312.505 91.1622C312.549 92.3464 312.304 93.4785 312.095 94.7968C311.924 95.8843 312.237 96.6737 313.123 97.3217C314.188 98.0963 315.149 98.7071 315.961 99.5636C316.408 100.033 316.415 100.048 316.758 100.621C316.877 100.822 316.988 101.023 317.093 101.232C317.108 101.262 317.361 101.872 317.234 101.545C317.428 102.044 317.562 102.558 317.666 103.079C317.8 103.772 317.651 102.684 317.711 103.384C317.733 103.645 317.748 103.913 317.748 104.181C317.748 104.449 317.733 104.71 317.711 104.978C317.674 105.448 317.771 104.777 317.666 105.284C317.562 105.79 317.443 106.244 317.272 106.714C317.212 106.855 317.219 106.855 317.286 106.714C317.227 106.855 317.16 106.997 317.093 107.131C316.988 107.339 316.877 107.54 316.758 107.742C316.452 108.255 316.422 108.293 316.043 108.71C315.208 109.626 314.233 110.237 313.123 111.041C312.229 111.689 311.924 112.486 312.095 113.566C312.296 114.839 312.535 115.957 312.505 117.074C312.46 118.72 311.715 120.44 310.501 121.654C309.287 122.868 307.619 123.591 306.047 123.658C304.863 123.703 303.731 123.457 302.413 123.248C301.325 123.077 300.536 123.39 299.888 124.276C299.113 125.341 298.503 126.302 297.646 127.114C297.177 127.561 297.162 127.568 296.588 127.911C296.387 128.03 296.186 128.142 295.978 128.246C295.948 128.261 295.337 128.514 295.665 128.387C295.166 128.581 294.652 128.715 294.131 128.819C293.438 128.953 294.525 128.805 293.825 128.864C293.564 128.886 293.296 128.901 293.028 128.901C292.76 128.901 292.499 128.886 292.231 128.864C291.762 128.827 292.432 128.924 291.926 128.819C291.419 128.715 290.965 128.596 290.496 128.425C290.354 128.365 290.354 128.373 290.496 128.44C290.354 128.38 290.213 128.313 290.079 128.246C289.87 128.142 289.669 128.03 289.468 127.911C288.954 127.605 288.917 127.576 288.5 127.196C287.584 126.362 286.973 125.386 286.169 124.276C285.521 123.382 284.724 123.077 283.644 123.248C282.37 123.449 281.253 123.688 280.136 123.658C278.49 123.613 276.769 122.868 275.555 121.654C274.341 120.44 273.619 118.772 273.552 117.2C273.507 116.016 273.753 114.884 273.961 113.566C274.133 112.478 273.82 111.689 272.933 111.041C271.868 110.266 270.908 109.656 270.096 108.799C269.649 108.33 269.641 108.315 269.299 107.742C269.18 107.54 269.068 107.339 268.964 107.131C268.949 107.101 268.696 106.49 268.822 106.818C268.628 106.319 268.494 105.805 268.39 105.284C268.256 104.591 268.405 105.678 268.345 104.978C268.323 104.718 268.308 104.449 268.308 104.181C268.308 103.913 268.323 103.653 268.345 103.384C268.383 102.915 268.286 103.586 268.39 103.079C268.494 102.573 268.614 102.118 268.785 101.649C268.844 101.508 268.837 101.508 268.77 101.649C268.83 101.508 268.897 101.366 268.964 101.232C269.068 101.023 269.18 100.822 269.299 100.621C269.604 100.107 269.634 100.07 270.014 99.653C270.848 98.7368 271.824 98.1261 272.933 97.3217C273.827 96.6737 274.133 95.8768 273.961 94.7968C273.76 93.5232 273.522 92.406 273.552 91.2888C273.596 89.6428 274.341 87.9223 275.555 86.7083C276.769 85.4943 278.438 84.7718 280.009 84.7048C281.193 84.6601 282.325 84.9059 283.644 85.1144C284.731 85.2857 285.521 84.9729 286.169 84.0866C286.943 83.0215 287.554 82.0607 288.41 81.2489C288.88 80.802 288.895 80.7946 289.468 80.452C289.669 80.3328 289.87 80.2211 290.079 80.1168C290.109 80.1019 290.719 79.8487 290.392 79.9753C290.891 79.7816 291.405 79.6476 291.926 79.5433C292.619 79.4092 291.531 79.5582 292.231 79.4986C292.492 79.4763 292.76 79.4614 293.028 79.4614C293.296 79.4614 293.557 79.4763 293.825 79.4986C294.294 79.5358 293.624 79.439 294.131 79.5433C294.637 79.6476 295.091 79.7667 295.561 79.938C295.702 79.9976 295.702 79.9902 295.561 79.9231C295.702 79.9827 295.844 80.0498 295.978 80.1168C296.186 80.2211 296.387 80.3328 296.588 80.452C297.102 80.7573 297.14 80.7871 297.557 81.167C298.473 82.0011 299.083 82.9768 299.888 84.0866C300.595 85.0623 301.832 85.539 302.942 84.891C303.902 84.3249 304.461 82.813 303.746 81.8373L303.753 81.8298Z" fill="#5A4BF5"/>
<path d="M220.31 34.0868C220.382 34.5548 220.292 35.5268 220.292 35.5268C219.878 39.2528 217.61 41.3948 213.848 41.3948C209.87 41.3948 207.044 38.5508 207.044 34.5008C207.044 30.4508 209.87 27.6248 213.848 27.6248C218.114 27.6248 219.644 30.8648 219.644 30.8648L217.592 31.9988C217.592 31.9988 216.53 29.7488 213.83 29.7488C211.202 29.7488 209.492 31.6208 209.492 34.5008C209.492 37.3988 211.202 39.2708 213.83 39.2708C215.738 39.2528 217.736 38.3528 217.844 36.0488H214.172V34.0868H220.31ZM228.145 35.5448C227.965 34.6088 227.245 33.5648 225.877 33.5648C224.581 33.5648 223.627 34.5008 223.429 35.5448H228.145ZM221.179 36.4628C221.179 33.6008 223.105 31.5848 225.859 31.5848C228.901 31.5848 229.873 34.0868 229.927 34.1948C230.503 35.4368 230.323 36.9668 230.323 37.2728H223.429C223.645 38.4968 224.779 39.3068 225.877 39.3068C227.443 39.3068 227.947 38.4068 227.965 38.3708L229.945 39.1448C229.945 39.1448 229.045 41.3048 225.859 41.3048C223.105 41.3048 221.179 39.3068 221.179 36.4628ZM237.497 40.7648C236.993 40.9988 236.579 41.2868 235.373 41.2868C233.609 41.2868 232.385 39.9548 232.385 38.0468V33.8348H230.657V31.7288H232.385V28.9388H234.833V31.7288H237.263V33.8348H234.833V38.0468C234.833 38.6588 235.157 39.1268 235.625 39.1808C236.129 39.2168 236.651 38.8748 236.669 38.8748L237.497 40.7648ZM261.522 27.7508L257.742 41.2508H255.582L252.27 31.5308L249.264 41.2508H247.104L242.622 27.7508H245.196L248.184 37.1828L250.92 27.7508H253.584L256.446 37.1828L258.948 27.7508H261.522ZM269.229 36.3728C269.229 34.7708 268.509 33.7448 267.375 33.7448C266.025 33.7448 265.071 34.9508 265.071 36.4448V41.2508H262.623V27.7508H265.071V32.8628C265.773 32.0168 266.799 31.7648 267.393 31.7648C269.913 31.7648 271.677 33.5108 271.677 36.0128V41.2508H269.229V36.3728ZM273.409 31.6928H275.857V41.2508H273.409V31.6928ZM273.337 28.7228C273.337 27.9668 273.877 27.4088 274.633 27.4088C275.389 27.4088 275.929 27.9668 275.929 28.7228C275.929 29.4788 275.389 30.0188 274.633 30.0188C273.877 30.0188 273.337 29.4788 273.337 28.7228ZM284.036 40.7648C283.532 40.9988 283.118 41.2868 281.912 41.2868C280.148 41.2868 278.924 39.9548 278.924 38.0468V33.8348H277.196V31.7288H278.924V28.9388H281.372V31.7288H283.802V33.8348H281.372V38.0468C281.372 38.6588 281.696 39.1268 282.164 39.1808C282.668 39.2168 283.19 38.8748 283.208 38.8748L284.036 40.7648ZM291.649 35.5448C291.469 34.6088 290.749 33.5648 289.381 33.5648C288.085 33.5648 287.131 34.5008 286.933 35.5448H291.649ZM284.683 36.4628C284.683 33.6008 286.609 31.5848 289.363 31.5848C292.405 31.5848 293.377 34.0868 293.431 34.1948C294.007 35.4368 293.827 36.9668 293.827 37.2728H286.933C287.149 38.4968 288.283 39.3068 289.381 39.3068C290.947 39.3068 291.451 38.4068 291.469 38.3708L293.449 39.1448C293.449 39.1448 292.549 41.3048 289.363 41.3048C286.609 41.3048 284.683 39.3068 284.683 36.4628ZM294.979 27.7508H297.427V41.2508H294.979V27.7508ZM299.303 31.6928H301.751V41.2508H299.303V31.6928ZM299.231 28.7228C299.231 27.9668 299.771 27.4088 300.527 27.4088C301.283 27.4088 301.823 27.9668 301.823 28.7228C301.823 29.4788 301.283 30.0188 300.527 30.0188C299.771 30.0188 299.231 29.4788 299.231 28.7228ZM305.052 38.2988C305.592 38.9648 306.438 39.3968 307.086 39.4148C307.95 39.4328 308.58 39.0008 308.598 38.3708C308.634 37.2728 303.648 37.4168 303.72 34.3568C303.774 32.6288 305.304 31.4768 307.446 31.5308C308.598 31.5668 309.93 32.1788 310.65 33.0968L309.066 34.4468C308.634 33.8888 307.932 33.5288 307.392 33.5108C306.69 33.5108 306.186 33.8528 306.168 34.3748C306.15 35.5808 311.136 35.3108 311.046 38.4068C310.992 40.2428 309.336 41.4488 307.032 41.3948C305.772 41.3588 304.278 40.6748 303.432 39.6308L305.052 38.2988ZM318.324 40.7648C317.82 40.9988 317.406 41.2868 316.2 41.2868C314.436 41.2868 313.212 39.9548 313.212 38.0468V33.8348H311.484V31.7288H313.212V28.9388H315.66V31.7288H318.09V33.8348H315.66V38.0468C315.66 38.6588 315.984 39.1268 316.452 39.1808C316.956 39.2168 317.478 38.8748 317.496 38.8748L318.324 40.7648ZM323.603 26.8868L323.225 37.1468H320.849L320.417 26.8868H323.603ZM320.723 40.2788C320.723 39.5048 321.263 38.9648 322.037 38.9648C322.811 38.9648 323.351 39.5048 323.351 40.2788C323.351 41.0348 322.811 41.5928 322.037 41.5928C321.263 41.5928 320.723 41.0348 320.723 40.2788Z" fill="#5A4BF5"/>
<path d="M343.861 38.3896C343.869 38.387 343.877 38.3935 343.877 38.4018C343.305 43.8248 339.854 48.5387 335.589 51.78C330.505 55.6557 324.208 57.4583 317.935 58.1907C310.97 59.0131 303.915 58.7991 296.917 58.8216C293.067 58.8216 289.205 58.8441 285.355 58.8441C282.059 58.8441 278.73 58.8329 275.491 59.4863C269.669 60.6757 263.846 65.4665 264.288 71.6682C264.356 72.6286 265.427 73.0739 266.26 72.5917C267.125 72.0914 267.246 70.8895 266.56 70.1635C263.688 67.1264 261.757 63.4167 260.928 59.2723C260.758 58.4385 259.807 57.7513 258.958 57.7851C248.823 58.2357 238.665 58.2245 228.53 57.7175C219.629 57.2781 210.445 56.8725 201.827 54.4389C197.988 53.346 194.296 51.78 191.024 49.4816C189.302 48.276 187.717 46.8339 186.437 45.1552C185.86 44.3891 185.158 43.499 184.795 42.6089C184.433 41.7189 184.331 40.6035 184.218 39.6458C183.289 31.2522 186.652 23.5233 193.719 18.7801C197.263 16.4028 201.204 14.7241 205.19 13.2256C209.46 11.6258 213.819 10.24 218.224 9.0795C227.182 6.71351 236.366 5.23759 245.607 4.55032C264.122 3.16453 282.784 4.76439 300.982 8.2683C309.826 9.98083 319.158 11.6821 327.379 15.4902C334.728 18.8815 341.455 24.6049 343.448 32.7281C343.901 34.5984 344.014 36.4686 343.856 38.384C343.641 40.9865 347.717 40.9753 347.933 38.384C348.646 29.6861 343.618 21.5742 336.869 16.4253C329.214 10.578 319.554 8.17817 310.302 6.09385C291.073 1.74494 271.222 -0.654853 251.461 0.156343C241.586 0.561941 231.712 1.77874 222.075 3.96446C212.438 6.15018 203.378 8.83163 195.032 13.2819C191.103 15.3775 187.445 18.1041 184.761 21.6868C182.077 25.2696 180.662 29.4495 180.164 33.7984C179.915 35.9729 179.96 38.1586 180.232 40.3218C180.368 41.3921 180.492 42.5075 180.798 43.5441C181.115 44.6595 181.862 45.7185 182.519 46.6649C185.067 50.3153 188.612 53.1207 192.564 55.1712C200.536 59.3061 209.663 60.4214 218.496 61.1312C229.254 61.9988 240.069 62.3255 250.861 62.1114C253.133 62.064 255.405 61.9925 257.677 61.9037C258.104 61.887 258.273 61.3443 257.932 61.0868C257.598 60.8345 257.138 61.1274 257.24 61.5336C258.488 66.5077 261.261 71.0414 265.107 74.4596C266.59 75.7778 269.059 74.516 268.516 72.488C267.825 69.9079 269.218 67.4068 271.165 65.7506C273.464 63.8014 276.669 63.2381 279.602 63.0353C286.793 62.5621 294.097 62.9001 301.299 62.8776C314.175 62.8325 328.126 62.9001 338.692 54.4727C343.731 50.4505 347.253 44.8397 347.921 38.3952C348.034 37.3024 346.902 36.3785 345.883 36.3672C344.689 36.356 343.966 37.3031 343.846 38.3774C343.845 38.3857 343.854 38.3922 343.861 38.3896Z" fill="#5A4BF5" fill-opacity="0.2"/>
<path d="M531.313 245.064C522.724 245.439 512.656 244.78 504.079 244.087C497.43 243.542 490.391 242.519 485.351 238.316C484.109 237.282 483.068 235.987 482.299 234.556C481.175 230.114 481.944 225.264 484.961 221.742C487.528 218.766 491.302 217.005 495.052 215.608C516.608 207.52 540.861 208.587 563.363 213.711C568.344 214.847 573.395 216.221 577.524 219.129C581.653 222.026 584.717 226.74 584.244 231.636C583.724 236.964 579.098 241.258 573.904 243.201C568.71 245.132 562.984 245.166 557.412 245.177C553.508 245.189 549.616 245.2 545.711 245.2C543.097 245.211 537.501 245.95 530.403 245.064" fill="#E5F8F7"/>
<path d="M531.313 243.36C523.41 243.689 515.495 243.246 507.616 242.655C500.778 242.144 493.017 241.826 487.326 237.668C486.072 236.748 484.7 235.521 484.061 234.113C483.363 232.557 483.457 230.341 483.706 228.694C484.215 225.286 486.131 222.424 489.041 220.436C492.165 218.3 495.891 217.016 499.5 215.869C503.108 214.722 506.906 213.767 510.704 213.074C526.202 210.212 542.315 211.223 557.707 214.256C564.876 215.665 573.347 217.05 578.659 222.333C580.919 224.582 582.563 227.581 582.516 230.762C582.469 233.942 580.706 236.601 578.352 238.634C571.774 244.303 561.789 243.451 553.602 243.473C549.875 243.473 546.16 243.439 542.445 243.644C538.423 243.86 534.412 243.837 530.402 243.36C528.142 243.087 528.166 246.495 530.402 246.768C534.353 247.245 538.305 247.279 542.268 247.063C545.947 246.87 549.627 246.904 553.306 246.893C561.599 246.87 570.981 247.495 578.257 242.962C584.444 239.1 587.887 232.182 584.918 225.343C581.652 217.812 573.56 214.438 565.835 212.541C549.165 208.44 531.537 206.724 514.442 209.042C506.066 210.178 497.24 212.2 489.728 216.051C486.38 217.766 483.339 220.208 481.683 223.548C480.026 226.888 479.53 230.955 480.476 234.567C481.529 238.566 486.238 241.474 489.929 242.973C493.833 244.564 498.021 245.211 502.209 245.62C511.827 246.563 521.635 247.165 531.301 246.768C533.572 246.677 533.584 243.269 531.301 243.36L531.313 243.36Z" fill="#E5F8F7"/>
<path d="M503.77 230.86C504.202 231.388 504.706 231.814 505.282 232.138C505.858 232.462 506.416 232.624 506.956 232.624C507.496 232.624 507.976 232.54 508.396 232.372C508.828 232.204 509.164 231.958 509.404 231.634C509.644 231.31 509.764 230.944 509.764 230.536C509.764 230.188 509.644 229.894 509.404 229.654C509.164 229.402 508.858 229.204 508.486 229.06C508.114 228.916 507.61 228.742 506.974 228.538C506.062 228.262 505.318 227.998 504.742 227.746C504.166 227.482 503.674 227.092 503.266 226.576C502.858 226.06 502.66 225.388 502.672 224.56C502.672 223.84 502.87 223.204 503.266 222.652C503.662 222.088 504.202 221.656 504.886 221.356C505.582 221.044 506.374 220.894 507.262 220.906C508.03 220.918 508.792 221.116 509.548 221.5C510.316 221.872 510.946 222.37 511.438 222.994L509.854 224.236C509.518 223.792 509.11 223.438 508.63 223.174C508.15 222.898 507.682 222.76 507.226 222.76C506.53 222.748 505.954 222.916 505.498 223.264C505.054 223.612 504.832 224.056 504.832 224.596C504.832 224.968 504.952 225.28 505.192 225.532C505.444 225.784 505.762 225.994 506.146 226.162C506.53 226.318 507.052 226.504 507.712 226.72C508.612 227.008 509.338 227.284 509.89 227.548C510.454 227.812 510.934 228.19 511.33 228.682C511.738 229.174 511.936 229.804 511.924 230.572C511.924 231.34 511.708 232.024 511.276 232.624C510.844 233.224 510.25 233.686 509.494 234.01C508.738 234.334 507.886 234.49 506.938 234.478C506.062 234.466 505.186 234.244 504.31 233.812C503.434 233.38 502.714 232.816 502.15 232.12L503.77 230.86ZM518.683 234.028C518.419 234.148 518.161 234.238 517.909 234.298C517.669 234.358 517.345 234.388 516.937 234.388C516.385 234.388 515.893 234.262 515.461 234.01C515.029 233.746 514.693 233.386 514.453 232.93C514.213 232.462 514.093 231.94 514.093 231.364V222.274H516.253V231.364C516.253 231.688 516.331 231.958 516.487 232.174C516.655 232.39 516.871 232.504 517.135 232.516C517.399 232.54 517.723 232.456 518.107 232.264L518.125 232.246L518.827 233.956L518.683 234.028ZM512.419 224.956H518.647V226.81H512.419V224.956ZM523.874 232.696C524.342 232.696 524.78 232.564 525.188 232.3C525.596 232.036 525.92 231.67 526.16 231.202C526.4 230.734 526.52 230.218 526.52 229.654C526.52 229.09 526.4 228.58 526.16 228.124C525.92 227.656 525.596 227.29 525.188 227.026C524.78 226.762 524.342 226.63 523.874 226.63C523.37 226.63 522.926 226.756 522.542 227.008C522.158 227.248 521.858 227.602 521.642 228.07C521.438 228.526 521.336 229.054 521.336 229.654C521.336 230.266 521.438 230.8 521.642 231.256C521.858 231.712 522.158 232.066 522.542 232.318C522.926 232.57 523.37 232.696 523.874 232.696ZM528.68 234.388H526.52V232.966C526.268 233.302 525.986 233.578 525.674 233.794C525.374 234.01 525.056 234.172 524.72 234.28C524.384 234.4 524.042 234.46 523.694 234.46C522.818 234.46 522.038 234.256 521.354 233.848C520.67 233.44 520.136 232.876 519.752 232.156C519.368 231.424 519.176 230.59 519.176 229.654C519.176 228.73 519.368 227.908 519.752 227.188C520.136 226.456 520.67 225.886 521.354 225.478C522.038 225.07 522.818 224.866 523.694 224.866C524.222 224.866 524.732 224.992 525.224 225.244C525.728 225.496 526.16 225.868 526.52 226.36V224.83H528.68V234.388ZM532.351 228.79L535.771 224.83H538.669L534.943 229.096L538.543 234.388H535.951L533.377 230.662L532.351 231.922V234.388H530.191V220.996H532.351V228.79ZM541.934 224.92V234.388H539.774V224.92H541.934ZM540.854 220.726C541.202 220.726 541.484 220.834 541.7 221.05C541.928 221.266 542.042 221.548 542.042 221.896C542.042 222.244 541.928 222.532 541.7 222.76C541.484 222.976 541.202 223.084 540.854 223.084C540.518 223.084 540.236 222.976 540.008 222.76C539.792 222.532 539.684 222.244 539.684 221.896C539.684 221.548 539.792 221.266 540.008 221.05C540.236 220.834 540.518 220.726 540.854 220.726ZM550.263 229.24C550.263 228.424 550.071 227.788 549.687 227.332C549.303 226.876 548.757 226.648 548.049 226.648C547.617 226.648 547.221 226.762 546.861 226.99C546.513 227.206 546.237 227.512 546.033 227.908C545.829 228.292 545.733 228.736 545.745 229.24V234.388H543.585V224.83H545.745V226.432C546.009 225.976 546.375 225.604 546.843 225.316C547.323 225.028 547.815 224.884 548.319 224.884C549.015 224.884 549.669 225.022 550.281 225.298C550.905 225.574 551.415 226.036 551.811 226.684C552.219 227.32 552.423 228.154 552.423 229.186V234.388H550.263V229.24ZM557.996 232.66C558.5 232.66 558.956 232.528 559.364 232.264C559.772 231.988 560.09 231.616 560.318 231.148C560.546 230.68 560.66 230.17 560.66 229.618C560.66 229.09 560.546 228.598 560.318 228.142C560.09 227.674 559.772 227.302 559.364 227.026C558.956 226.75 558.5 226.612 557.996 226.612C557.504 226.612 557.066 226.738 556.682 226.99C556.298 227.242 555.998 227.596 555.782 228.052C555.578 228.508 555.476 229.03 555.476 229.618C555.476 230.23 555.578 230.77 555.782 231.238C555.998 231.694 556.298 232.048 556.682 232.3C557.066 232.54 557.504 232.66 557.996 232.66ZM562.82 233.83C562.82 234.73 562.622 235.528 562.226 236.224C561.842 236.92 561.284 237.46 560.552 237.844C559.832 238.24 558.986 238.438 558.014 238.438C557.138 238.438 556.346 238.276 555.638 237.952C554.942 237.64 554.372 237.136 553.928 236.44L555.602 235.27C555.95 235.75 556.304 236.086 556.664 236.278C557.036 236.47 557.486 236.566 558.014 236.566C558.566 236.566 559.04 236.464 559.436 236.26C559.844 236.056 560.15 235.762 560.354 235.378C560.558 235.006 560.66 234.58 560.66 234.1V232.912C560.288 233.428 559.85 233.812 559.346 234.064C558.842 234.316 558.338 234.442 557.834 234.442C556.958 234.442 556.178 234.238 555.494 233.83C554.81 233.422 554.276 232.852 553.892 232.12C553.508 231.388 553.316 230.56 553.316 229.636C553.316 228.712 553.508 227.89 553.892 227.17C554.276 226.438 554.81 225.874 555.494 225.478C556.178 225.07 556.958 224.866 557.834 224.866C558.17 224.866 558.512 224.914 558.86 225.01C559.208 225.106 559.538 225.268 559.85 225.496C560.174 225.724 560.444 226 560.66 226.324V224.83H562.82V233.83Z" fill="#5F44FF"/>
<path d="M420.572 150.568C456.338 149.978 472.188 149.781 512.681 149.781L420.572 150.568Z" fill="white"/>
<path d="M276.875 244.259C267.275 244.626 256.022 243.982 246.435 243.304C239.003 242.77 231.135 241.77 225.502 237.658C224.114 236.647 222.95 235.38 222.09 233.98C220.834 229.634 221.694 224.889 225.066 221.444C227.935 218.532 232.153 216.81 236.345 215.443C260.439 207.53 287.547 208.575 312.698 213.587C318.265 214.698 323.911 216.043 328.526 218.888C333.141 221.722 336.566 226.334 336.037 231.124C335.455 236.336 330.285 240.537 324.48 242.437C318.675 244.326 312.275 244.36 306.046 244.371C301.683 244.382 297.332 244.393 292.968 244.393C290.046 244.404 283.791 245.126 275.857 244.259" fill="#EFF2F3"/>
<path d="M276.875 242.592C268.042 242.915 259.195 242.481 250.388 241.903C242.745 241.403 234.07 241.092 227.71 237.025C226.308 236.124 224.774 234.924 224.06 233.546C223.28 232.024 223.386 229.857 223.664 228.245C224.232 224.911 226.374 222.111 229.627 220.166C233.118 218.076 237.284 216.821 241.317 215.698C245.35 214.576 249.595 213.642 253.84 212.964C271.162 210.164 289.173 211.153 306.376 214.12C314.39 215.498 323.858 216.854 329.795 222.022C332.321 224.222 334.159 227.156 334.106 230.268C334.053 233.38 332.083 235.98 329.451 237.969C322.099 243.515 310.939 242.681 301.788 242.704C297.623 242.704 293.47 242.67 289.318 242.87C284.822 243.081 280.339 243.059 275.857 242.592C273.331 242.326 273.357 245.66 275.857 245.926C280.273 246.393 284.69 246.427 289.12 246.215C293.232 246.026 297.345 246.06 301.457 246.049C310.727 246.026 321.213 246.638 329.346 242.203C336.262 238.425 340.11 231.657 336.79 224.967C333.141 217.599 324.096 214.298 315.461 212.442C296.829 208.43 277.126 206.752 258.018 209.019C248.656 210.13 238.791 212.109 230.394 215.876C226.652 217.554 223.254 219.943 221.402 223.211C219.551 226.478 218.996 230.457 220.054 233.991C221.23 237.903 226.493 240.748 230.619 242.215C234.983 243.77 239.664 244.404 244.345 244.804C255.096 245.726 266.058 246.315 276.862 245.926C279.401 245.838 279.414 242.504 276.862 242.592L276.875 242.592Z" fill="#EFF2F3"/>
<path d="M257.217 234.538H255.273L251.961 224.548L248.901 234.538H246.939L242.583 221.146H244.851L247.911 230.974L250.791 221.164H253.113L256.083 230.974L258.783 221.146H261.051L257.217 234.538ZM268.459 229.588C268.459 228.772 268.279 228.124 267.919 227.644C267.559 227.152 267.079 226.906 266.479 226.906C266.035 226.906 265.627 227.032 265.255 227.284C264.895 227.536 264.607 227.878 264.391 228.31C264.187 228.742 264.085 229.216 264.085 229.732V234.538H261.925V221.146H264.085V226.384C264.373 225.976 264.739 225.67 265.183 225.466C265.639 225.25 266.077 225.142 266.497 225.142C267.301 225.142 268.009 225.316 268.621 225.664C269.245 226.012 269.731 226.504 270.079 227.14C270.439 227.764 270.619 228.484 270.619 229.3V234.538H268.459V229.588ZM274.282 225.07V234.538H272.122V225.07H274.282ZM273.202 220.876C273.55 220.876 273.832 220.984 274.048 221.2C274.276 221.416 274.39 221.698 274.39 222.046C274.39 222.394 274.276 222.682 274.048 222.91C273.832 223.126 273.55 223.234 273.202 223.234C272.866 223.234 272.584 223.126 272.356 222.91C272.14 222.682 272.032 222.394 272.032 222.046C272.032 221.698 272.14 221.416 272.356 221.2C272.584 220.984 272.866 220.876 273.202 220.876ZM281.567 234.178C281.303 234.298 281.045 234.388 280.793 234.448C280.553 234.508 280.229 234.538 279.821 234.538C279.269 234.538 278.777 234.412 278.345 234.16C277.913 233.896 277.577 233.536 277.337 233.08C277.097 232.612 276.977 232.09 276.977 231.514V222.424H279.137V231.514C279.137 231.838 279.215 232.108 279.371 232.324C279.539 232.54 279.755 232.654 280.019 232.666C280.283 232.69 280.607 232.606 280.991 232.414L281.009 232.396L281.711 234.106L281.567 234.178ZM275.303 225.106H281.531V226.96H275.303V225.106ZM289.063 228.976C289.003 228.592 288.877 228.232 288.685 227.896C288.493 227.56 288.229 227.284 287.893 227.068C287.557 226.852 287.149 226.744 286.669 226.744C286.237 226.744 285.835 226.846 285.463 227.05C285.091 227.242 284.785 227.512 284.545 227.86C284.305 228.196 284.149 228.568 284.077 228.976H289.063ZM290.629 227.554C290.857 228.058 290.983 228.562 291.007 229.066C291.043 229.57 291.049 230.02 291.025 230.416V230.56H284.077C284.149 230.992 284.311 231.382 284.563 231.73C284.827 232.066 285.139 232.33 285.499 232.522C285.871 232.702 286.261 232.792 286.669 232.792C287.329 232.792 287.827 232.678 288.163 232.45C288.511 232.222 288.763 231.994 288.919 231.766L288.937 231.73L290.683 232.468C290.395 233.056 289.909 233.554 289.225 233.962C288.541 234.37 287.683 234.574 286.651 234.574C285.763 234.574 284.971 234.376 284.275 233.98C283.579 233.572 283.033 233.008 282.637 232.288C282.253 231.556 282.061 230.722 282.061 229.786C282.061 228.85 282.253 228.022 282.637 227.302C283.033 226.57 283.579 226 284.275 225.592C284.971 225.184 285.763 224.98 286.651 224.98C287.527 224.98 288.253 225.16 288.829 225.52C289.417 225.868 289.843 226.24 290.107 226.636C290.371 227.02 290.545 227.326 290.629 227.554ZM294.052 221.146V234.538H291.892V221.146H294.052ZM297.804 225.07V234.538H295.644V225.07H297.804ZM296.724 220.876C297.072 220.876 297.354 220.984 297.57 221.2C297.798 221.416 297.912 221.698 297.912 222.046C297.912 222.394 297.798 222.682 297.57 222.91C297.354 223.126 297.072 223.234 296.724 223.234C296.388 223.234 296.106 223.126 295.878 222.91C295.662 222.682 295.554 222.394 295.554 222.046C295.554 221.698 295.662 221.416 295.878 221.2C296.106 220.984 296.388 220.876 296.724 220.876ZM300.626 231.748C300.902 232.096 301.232 232.372 301.616 232.576C302 232.78 302.372 232.888 302.732 232.9C303.212 232.9 303.602 232.792 303.902 232.576C304.202 232.36 304.358 232.072 304.37 231.712C304.37 231.544 304.298 231.4 304.154 231.28C304.01 231.148 303.818 231.04 303.578 230.956C303.35 230.86 303.062 230.752 302.714 230.632C302.042 230.416 301.484 230.206 301.04 230.002C300.608 229.786 300.236 229.486 299.924 229.102C299.612 228.718 299.462 228.238 299.474 227.662C299.474 227.11 299.624 226.624 299.924 226.204C300.236 225.784 300.662 225.46 301.202 225.232C301.754 225.004 302.366 224.896 303.038 224.908C303.614 224.92 304.19 225.064 304.766 225.34C305.342 225.616 305.804 225.982 306.152 226.438L304.712 227.644C304.496 227.344 304.226 227.11 303.902 226.942C303.59 226.774 303.284 226.69 302.984 226.69C302.588 226.678 302.264 226.762 302.012 226.942C301.76 227.122 301.634 227.362 301.634 227.662C301.634 227.842 301.706 227.998 301.85 228.13C301.994 228.262 302.186 228.382 302.426 228.49C302.678 228.586 302.984 228.688 303.344 228.796C304.004 229.012 304.544 229.228 304.964 229.444C305.396 229.648 305.768 229.942 306.08 230.326C306.392 230.698 306.542 231.172 306.53 231.748C306.518 232.324 306.344 232.84 306.008 233.296C305.684 233.74 305.234 234.088 304.658 234.34C304.082 234.58 303.422 234.688 302.678 234.664C302.054 234.652 301.412 234.496 300.752 234.196C300.104 233.884 299.576 233.464 299.168 232.936L300.626 231.748ZM313.001 234.178C312.737 234.298 312.479 234.388 312.227 234.448C311.987 234.508 311.663 234.538 311.255 234.538C310.703 234.538 310.211 234.412 309.779 234.16C309.347 233.896 309.011 233.536 308.771 233.08C308.531 232.612 308.411 232.09 308.411 231.514V222.424H310.571V231.514C310.571 231.838 310.649 232.108 310.805 232.324C310.973 232.54 311.189 232.654 311.453 232.666C311.717 232.69 312.041 232.606 312.425 232.414L312.443 232.396L313.145 234.106L313.001 234.178ZM306.737 225.106H312.965V226.96H306.737V225.106Z" fill="#1B1E24"/>
<path d="M51.5454 244.259C42.9175 244.626 32.8041 243.982 24.1881 243.304C17.5092 242.77 10.4382 241.77 5.37551 237.658C4.12767 236.647 3.08186 235.38 2.3094 233.98C1.18041 229.634 1.95288 224.889 4.98333 221.444C7.56219 218.532 11.3532 216.81 15.1205 215.443C36.7734 207.53 61.1359 208.575 83.7396 213.587C88.7428 214.698 93.8174 216.043 97.9649 218.888C102.112 221.722 105.19 226.334 104.715 231.124C104.192 236.336 99.5455 240.537 94.3284 242.437C89.1112 244.326 83.3593 244.36 77.7619 244.371C73.8401 244.382 69.9302 244.393 66.0084 244.393C63.382 244.404 57.7608 245.126 50.6304 244.259" fill="#EFF2F3"/>
<path d="M51.5444 242.592C43.6058 242.915 35.6553 242.481 27.7404 241.903C20.8714 241.403 13.0754 241.092 7.35912 237.025C6.0994 236.124 4.72085 234.924 4.0791 233.546C3.37794 232.024 3.47301 229.857 3.72257 228.245C4.2336 224.911 6.15883 222.111 9.08233 220.166C12.2197 218.076 15.9633 216.821 19.5879 215.698C23.2126 214.576 27.0274 213.642 30.8422 212.964C46.4104 210.164 62.5967 211.153 78.0579 214.12C85.2597 215.498 93.7688 216.854 99.1048 222.022C101.375 224.222 103.027 227.156 102.979 230.268C102.931 233.38 101.161 235.98 98.7958 237.969C92.1882 243.515 82.158 242.681 73.9341 242.704C70.1906 242.704 66.459 242.67 62.7274 242.87C58.6868 243.081 54.658 243.059 50.6293 242.592C48.3594 242.326 48.3832 245.66 50.6293 245.926C54.5986 246.393 58.5679 246.427 62.5491 246.215C66.2451 246.026 69.9411 246.06 73.637 246.049C81.9678 246.026 91.392 246.638 98.7007 242.203C104.916 238.425 108.374 231.657 105.391 224.967C102.111 217.599 93.9827 214.298 86.2223 212.442C69.4776 208.43 51.7702 206.752 34.5976 209.019C26.1836 210.13 17.3181 212.109 9.77162 215.876C6.4084 217.554 3.35417 219.943 1.69039 223.211C0.0266058 226.478 -0.472525 230.457 0.478212 233.991C1.5359 237.903 6.26579 240.748 9.97364 242.215C13.8954 243.77 18.1024 244.404 22.3094 244.804C31.9712 245.726 41.8232 246.315 51.5325 245.926C53.8143 245.838 53.8261 242.504 51.5325 242.592L51.5444 242.592Z" fill="#EFF2F3"/>
<path d="M23.25 231.011C23.682 231.539 24.186 231.965 24.762 232.289C25.338 232.613 25.896 232.775 26.436 232.775C26.976 232.775 27.456 232.691 27.876 232.523C28.308 232.355 28.644 232.109 28.884 231.785C29.124 231.461 29.244 231.095 29.244 230.687C29.244 230.339 29.124 230.045 28.884 229.805C28.644 229.553 28.338 229.355 27.966 229.211C27.594 229.067 27.09 228.893 26.454 228.689C25.542 228.413 24.798 228.149 24.222 227.897C23.646 227.633 23.154 227.243 22.746 226.727C22.338 226.211 22.14 225.539 22.152 224.711C22.152 223.991 22.35 223.355 22.746 222.803C23.142 222.239 23.682 221.807 24.366 221.507C25.062 221.195 25.854 221.045 26.742 221.057C27.51 221.069 28.272 221.267 29.028 221.651C29.796 222.023 30.426 222.521 30.918 223.145L29.334 224.387C28.998 223.943 28.59 223.589 28.11 223.325C27.63 223.049 27.162 222.911 26.706 222.911C26.01 222.899 25.434 223.067 24.978 223.415C24.534 223.763 24.312 224.207 24.312 224.747C24.312 225.119 24.432 225.431 24.672 225.683C24.924 225.935 25.242 226.145 25.626 226.313C26.01 226.469 26.532 226.655 27.192 226.871C28.092 227.159 28.818 227.435 29.37 227.699C29.934 227.963 30.414 228.341 30.81 228.833C31.218 229.325 31.416 229.955 31.404 230.723C31.404 231.491 31.188 232.175 30.756 232.775C30.324 233.375 29.73 233.837 28.974 234.161C28.218 234.485 27.366 234.641 26.418 234.629C25.542 234.617 24.666 234.395 23.79 233.963C22.914 233.531 22.194 232.967 21.63 232.271L23.25 231.011ZM39.1891 228.977C39.1291 228.593 39.0031 228.233 38.8111 227.897C38.6191 227.561 38.3551 227.285 38.0191 227.069C37.6831 226.853 37.2751 226.745 36.7951 226.745C36.3631 226.745 35.9611 226.847 35.5891 227.051C35.2171 227.243 34.9111 227.513 34.6711 227.861C34.4311 228.197 34.2751 228.569 34.2031 228.977H39.1891ZM40.7551 227.555C40.9831 228.059 41.1091 228.563 41.1331 229.067C41.1691 229.571 41.1751 230.021 41.1511 230.417V230.561H34.2031C34.2751 230.993 34.4371 231.383 34.6891 231.731C34.9531 232.067 35.2651 232.331 35.6251 232.523C35.9971 232.703 36.3871 232.793 36.7951 232.793C37.4551 232.793 37.9531 232.679 38.2891 232.451C38.6371 232.223 38.8891 231.995 39.0451 231.767L39.0631 231.731L40.8091 232.469C40.5211 233.057 40.0351 233.555 39.3511 233.963C38.6671 234.371 37.8091 234.575 36.7771 234.575C35.8891 234.575 35.0971 234.377 34.4011 233.981C33.7051 233.573 33.1591 233.009 32.7631 232.289C32.3791 231.557 32.1871 230.723 32.1871 229.787C32.1871 228.851 32.3791 228.023 32.7631 227.303C33.1591 226.571 33.7051 226.001 34.4011 225.593C35.0971 225.185 35.8891 224.981 36.7771 224.981C37.6531 224.981 38.3791 225.161 38.9551 225.521C39.5431 225.869 39.9691 226.241 40.2331 226.637C40.4971 227.021 40.6711 227.327 40.7551 227.555ZM48.9457 228.977C48.8857 228.593 48.7597 228.233 48.5677 227.897C48.3757 227.561 48.1117 227.285 47.7757 227.069C47.4397 226.853 47.0317 226.745 46.5517 226.745C46.1197 226.745 45.7177 226.847 45.3457 227.051C44.9737 227.243 44.6677 227.513 44.4277 227.861C44.1877 228.197 44.0317 228.569 43.9597 228.977H48.9457ZM50.5117 227.555C50.7397 228.059 50.8657 228.563 50.8897 229.067C50.9257 229.571 50.9317 230.021 50.9077 230.417V230.561H43.9597C44.0317 230.993 44.1937 231.383 44.4457 231.731C44.7097 232.067 45.0217 232.331 45.3817 232.523C45.7537 232.703 46.1437 232.793 46.5517 232.793C47.2117 232.793 47.7097 232.679 48.0457 232.451C48.3937 232.223 48.6457 231.995 48.8017 231.767L48.8197 231.731L50.5657 232.469C50.2777 233.057 49.7917 233.555 49.1077 233.963C48.4237 234.371 47.5657 234.575 46.5337 234.575C45.6457 234.575 44.8537 234.377 44.1577 233.981C43.4617 233.573 42.9157 233.009 42.5197 232.289C42.1357 231.557 41.9437 230.723 41.9437 229.787C41.9437 228.851 42.1357 228.023 42.5197 227.303C42.9157 226.571 43.4617 226.001 44.1577 225.593C44.8537 225.185 45.6457 224.981 46.5337 224.981C47.4097 224.981 48.1357 225.161 48.7117 225.521C49.2997 225.869 49.7257 226.241 49.9897 226.637C50.2537 227.021 50.4277 227.327 50.5117 227.555ZM56.2362 234.611C55.3602 234.611 54.5742 234.407 53.8782 233.999C53.1942 233.579 52.6602 233.009 52.2762 232.289C51.8922 231.557 51.7002 230.723 51.7002 229.787C51.7002 228.863 51.8922 228.035 52.2762 227.303C52.6602 226.571 53.1942 226.001 53.8782 225.593C54.5742 225.173 55.3602 224.963 56.2362 224.963C56.5242 224.963 56.8302 225.005 57.1542 225.089C57.4782 225.173 57.8142 225.329 58.1622 225.557C58.5222 225.785 58.8342 226.097 59.0982 226.493V221.147H61.2582V234.539H59.0982V233.099C58.7142 233.639 58.2462 234.029 57.6942 234.269C57.1542 234.497 56.6682 234.611 56.2362 234.611ZM56.4162 232.883C56.8962 232.883 57.3402 232.751 57.7482 232.487C58.1562 232.211 58.4802 231.839 58.7202 231.371C58.9722 230.903 59.0982 230.393 59.0982 229.841C59.0982 229.289 58.9722 228.779 58.7202 228.311C58.4802 227.831 58.1562 227.453 57.7482 227.177C57.3402 226.901 56.8962 226.763 56.4162 226.763C55.9002 226.763 55.4502 226.889 55.0662 227.141C54.6822 227.393 54.3822 227.753 54.1662 228.221C53.9622 228.689 53.8602 229.229 53.8602 229.841C53.8602 230.441 53.9622 230.975 54.1662 231.443C54.3822 231.899 54.6822 232.253 55.0662 232.505C55.4502 232.757 55.9002 232.883 56.4162 232.883ZM65.1755 225.071V234.539H63.0155V225.071H65.1755ZM64.0955 220.877C64.4435 220.877 64.7255 220.985 64.9415 221.201C65.1695 221.417 65.2835 221.699 65.2835 222.047C65.2835 222.395 65.1695 222.683 64.9415 222.911C64.7255 223.127 64.4435 223.235 64.0955 223.235C63.7595 223.235 63.4775 223.127 63.2495 222.911C63.0335 222.683 62.9255 222.395 62.9255 222.047C62.9255 221.699 63.0335 221.417 63.2495 221.201C63.4775 220.985 63.7595 220.877 64.0955 220.877ZM73.5048 229.391C73.5048 228.575 73.3128 227.939 72.9288 227.483C72.5448 227.027 71.9988 226.799 71.2908 226.799C70.8588 226.799 70.4628 226.913 70.1028 227.141C69.7548 227.357 69.4788 227.663 69.2748 228.059C69.0708 228.443 68.9748 228.887 68.9868 229.391V234.539H66.8268V224.981H68.9868V226.583C69.2508 226.127 69.6168 225.755 70.0848 225.467C70.5648 225.179 71.0568 225.035 71.5608 225.035C72.2568 225.035 72.9108 225.173 73.5228 225.449C74.1468 225.725 74.6568 226.187 75.0528 226.835C75.4608 227.471 75.6648 228.305 75.6648 229.337V234.539H73.5048V229.391ZM81.2378 232.811C81.7418 232.811 82.1978 232.679 82.6058 232.415C83.0138 232.139 83.3318 231.767 83.5598 231.299C83.7878 230.831 83.9018 230.321 83.9018 229.769C83.9018 229.241 83.7878 228.749 83.5598 228.293C83.3318 227.825 83.0138 227.453 82.6058 227.177C82.1978 226.901 81.7418 226.763 81.2378 226.763C80.7458 226.763 80.3078 226.889 79.9238 227.141C79.5398 227.393 79.2398 227.747 79.0238 228.203C78.8198 228.659 78.7178 229.181 78.7178 229.769C78.7178 230.381 78.8198 230.921 79.0238 231.389C79.2398 231.845 79.5398 232.199 79.9238 232.451C80.3078 232.691 80.7458 232.811 81.2378 232.811ZM86.0618 233.981C86.0618 234.881 85.8638 235.679 85.4678 236.375C85.0838 237.071 84.5258 237.611 83.7938 237.995C83.0738 238.391 82.2278 238.589 81.2558 238.589C80.3798 238.589 79.5878 238.427 78.8798 238.103C78.1838 237.791 77.6138 237.287 77.1698 236.591L78.8438 235.421C79.1918 235.901 79.5458 236.237 79.9058 236.429C80.2778 236.621 80.7278 236.717 81.2558 236.717C81.8078 236.717 82.2818 236.615 82.6778 236.411C83.0858 236.207 83.3918 235.913 83.5958 235.529C83.7998 235.157 83.9018 234.731 83.9018 234.251V233.063C83.5298 233.579 83.0918 233.963 82.5878 234.215C82.0838 234.467 81.5798 234.593 81.0758 234.593C80.1998 234.593 79.4198 234.389 78.7358 233.981C78.0518 233.573 77.5178 233.003 77.1338 232.271C76.7498 231.539 76.5578 230.711 76.5578 229.787C76.5578 228.863 76.7498 228.041 77.1338 227.321C77.5178 226.589 78.0518 226.025 78.7358 225.629C79.4198 225.221 80.1998 225.017 81.0758 225.017C81.4118 225.017 81.7538 225.065 82.1018 225.161C82.4498 225.257 82.7798 225.419 83.0918 225.647C83.4158 225.875 83.6858 226.151 83.9018 226.475V224.981H86.0618V233.981Z" fill="#1B1E24"/>
<path d="M382.12 162.828C395.543 163.062 428.975 162.905 442.397 163.14C444.888 163.18 444.81 159.298 442.319 159.258C428.896 159.023 395.465 159.18 382.042 158.946C379.551 158.906 379.63 162.788 382.12 162.828Z" fill="#CED3D8"/>
<path d="M431.492 152.618L435.739 157.206L437.863 159.506C438.364 160.052 439.505 160.987 439.697 161.527C439.628 161.321 439.861 161.343 439.631 161.464C439.593 161.49 439.379 161.78 439.342 161.832C439.027 162.201 438.672 162.532 438.331 162.888C437.623 163.627 436.903 164.354 436.195 165.093C434.729 166.611 433.263 168.117 431.784 169.635C430.04 171.431 432.842 174.119 434.573 172.323C436.305 170.528 437.961 168.837 439.641 167.095C441.145 165.537 443.701 163.686 443.523 161.256C443.433 159.989 442.666 159.047 441.861 158.157C441.056 157.267 440.173 156.34 439.342 155.437L434.171 149.82C432.47 147.99 429.804 150.788 431.492 152.618Z" fill="#CED3D8"/>
<path d="M125.12 162.828C138.543 163.062 171.975 162.905 185.397 163.14C187.888 163.18 187.81 159.298 185.319 159.258C171.896 159.023 138.465 159.18 125.042 158.946C122.551 158.906 122.63 162.788 125.12 162.828Z" fill="#CED3D8"/>
<path d="M174.492 152.618L178.739 157.206L180.863 159.506C181.364 160.052 182.505 160.987 182.697 161.527C182.628 161.321 182.861 161.343 182.631 161.464C182.593 161.49 182.379 161.78 182.342 161.832C182.027 162.201 181.672 162.532 181.331 162.888C180.623 163.627 179.903 164.354 179.195 165.093C177.729 166.611 176.263 168.117 174.784 169.635C173.04 171.431 175.842 174.119 177.573 172.323C179.305 170.528 180.961 168.837 182.641 167.095C184.145 165.537 186.701 163.686 186.523 161.256C186.433 159.989 185.666 159.047 184.861 158.157C184.056 157.267 183.173 156.34 182.342 155.437L177.171 149.82C175.47 147.99 172.804 150.788 174.492 152.618Z" fill="#CED3D8"/>
<path d="M490.021 130.738C487.521 130.799 485.036 130.844 482.536 130.905C481.703 130.92 480.778 130.965 480.157 131.525C479.43 132.207 479.399 133.327 479.415 134.311C479.809 151.917 479.46 167.479 480.399 186.781C480.475 187.886 480.596 189.112 481.445 189.824C482.187 190.444 483.248 190.46 484.233 190.429C501.384 190.399 515.309 190.672 530.854 190.399C546.384 190.672 560.581 190.656 577.46 190.429C578.445 190.46 579.506 190.429 580.248 189.824C581.096 189.112 581.218 187.886 581.293 186.781C581.99 165.981 581.233 155.157 581.339 135.552C581.354 134.568 581.324 133.448 580.596 132.767C579.975 132.207 579.051 132.161 578.218 132.146C575.718 132.086 573.233 132.04 570.733 131.98" fill="white"/>
<path d="M490.022 128.316C487.779 128.377 485.537 128.407 483.279 128.467C481.37 128.513 479.446 128.619 478.128 130.193C477.007 131.556 476.976 133.312 477.007 134.992C477.052 137.127 477.082 139.276 477.113 141.411C477.219 149.692 477.219 157.972 477.355 166.253C477.416 170.522 477.507 174.806 477.658 179.075C477.734 181.27 477.825 183.466 477.916 185.645C478.007 187.538 478.052 189.612 479.355 191.126C480.658 192.639 482.385 192.821 484.219 192.836C486.673 192.867 489.128 192.836 491.582 192.836C495.87 192.836 500.143 192.867 504.431 192.897C512.779 192.942 521.128 192.957 529.461 192.836C537.794 192.715 546.264 193.018 554.643 193.018C559.052 193.018 563.461 192.988 567.885 192.957C570.067 192.942 572.249 192.912 574.446 192.897C576.431 192.867 578.825 193.2 580.673 192.352C584.507 190.581 583.749 185.191 583.84 181.74C583.946 177.698 583.991 173.656 583.991 169.614C583.991 161.56 583.81 153.506 583.749 145.453C583.734 143.303 583.719 141.169 583.719 139.019C583.719 136.869 584.067 134.599 583.294 132.661C582.522 130.723 580.703 129.906 578.688 129.769C576.037 129.588 573.355 129.648 570.688 129.588C567.582 129.512 567.582 134.341 570.688 134.417C572.688 134.462 574.673 134.508 576.673 134.553C577.067 134.553 578.764 134.326 579.037 134.659C578.961 134.568 578.87 136.521 578.87 136.627C578.87 140.185 578.87 143.727 578.916 147.285C578.976 153.461 579.097 159.653 579.128 165.829C579.158 172.763 579.416 179.878 578.84 186.796C578.764 187.644 578.84 187.901 578.022 188.037C577.158 188.189 576.052 188.037 575.173 188.052C573.097 188.083 571.022 188.098 568.946 188.113C565.082 188.143 561.234 188.174 557.37 188.189C542.719 188.219 528.067 188.128 513.416 188.113C505.885 188.113 498.37 188.037 490.84 188.022C489.007 188.022 487.158 188.022 485.325 188.022C484.885 188.022 483.34 188.249 482.991 187.901C482.522 187.447 482.734 185.873 482.703 185.297C482.522 181.346 482.385 177.41 482.294 173.459C482.097 165.33 482.067 157.2 481.991 149.056C481.961 145.059 481.916 141.063 481.84 137.051C481.825 136.006 481.658 134.856 481.779 133.826C481.779 133.826 481.825 133.191 481.613 133.418C481.81 133.206 482.597 133.342 482.855 133.327C485.219 133.266 487.597 133.221 489.961 133.175C493.067 133.1 493.082 128.271 489.961 128.346L490.022 128.316Z" fill="#1B1E24"/>
<path d="M539.415 102.833C534.491 101.304 528.825 101.258 523.719 101.955C508.294 104.044 497.628 117.896 497.279 133.14C497.249 134.548 497.309 135.956 497.446 137.349C497.885 141.436 499.052 145.478 501.173 149.005C502.764 151.654 504.87 153.971 507.143 156.06C512.612 161.086 519.476 165.007 526.9 165.506C530.279 165.733 533.658 165.249 536.976 164.613C540.522 163.917 544.067 163.023 547.325 161.464C554.825 157.861 560.431 150.686 562.446 142.617C566.749 125.465 555.809 107.934 539.415 102.833Z" fill="#1DCBC7"/>
<path d="M540.051 100.501C526.309 96.4292 510.854 100.744 502.127 112.188C493.4 123.633 491.885 140.755 500.566 152.411C505.172 158.573 511.794 163.644 519.051 166.278C526.93 169.124 535.703 167.913 543.551 165.491C557.566 161.161 566.672 147.612 565.748 133.004C564.824 118.395 554.248 105.043 540.051 100.501C537.082 99.5478 535.809 104.21 538.763 105.164C549.491 108.601 557.839 117.729 560.278 128.72C562.869 140.361 557.809 153.138 547.097 158.845C543.945 160.526 540.46 161.419 536.975 162.13C533.172 162.902 529.233 163.493 525.354 162.917C518.657 161.933 512.642 158.073 507.869 153.426C502.612 148.309 499.824 141.875 499.672 134.533C499.566 128.932 500.96 123.33 503.733 118.441C506.778 113.097 511.4 108.707 517.082 106.239C523.672 103.378 531.915 103.105 538.748 105.134C541.733 106.027 543.006 101.364 540.036 100.471L540.051 100.501Z" fill="#1B1E24"/>
<path d="M510.325 146.038C514.946 137.273 520.537 128.75 527.628 121.771L523.507 120.06C523.961 129.461 524.476 138.847 524.916 148.248C525.067 151.337 529.901 151.367 529.749 148.248C529.295 138.847 528.779 129.461 528.34 120.06C528.249 118.002 525.749 116.836 524.219 118.35C516.855 125.601 510.961 134.487 506.158 143.586C504.704 146.341 508.886 148.778 510.325 146.023V146.038Z" fill="#1B1E24"/>
<path d="M527.718 150.655C530.067 150.792 532.476 150.943 534.824 150.928C536.567 150.928 538.294 150.141 538.84 148.369C539.355 146.704 538.946 144.63 538.915 142.904C538.764 135.35 539.067 127.796 539.506 120.257L537.082 122.679C540.612 122.876 544.143 122.785 547.627 123.467C550.673 124.072 551.961 119.409 548.915 118.804C544.991 118.032 541.052 118.062 537.082 117.835C535.718 117.759 534.734 119.001 534.658 120.257C534.385 124.844 534.173 129.416 534.082 134.018C534.037 136.289 534.021 138.56 534.037 140.846C534.037 141.966 534.067 143.086 534.097 144.191C534.127 145.084 534.415 146.477 534.097 147.279L534.718 146.22C534.931 145.978 534.809 146.159 534.446 146.099C534.203 146.053 533.931 146.068 533.688 146.053C533.006 146.023 532.324 146.008 531.643 145.978C530.34 145.932 529.021 145.917 527.718 145.826C524.612 145.644 524.627 150.474 527.718 150.655Z" fill="#1B1E24"/>
<path d="M547.189 131.611C540.325 131.46 533.461 131.308 526.613 131.157C523.507 131.096 523.507 135.926 526.613 135.986C533.476 136.137 540.34 136.289 547.189 136.44C550.295 136.501 550.295 131.672 547.189 131.611Z" fill="#1B1E24"/>
<path d="M526.704 132.822C522.749 132.413 518.749 132.474 514.795 132.065C513.537 131.929 512.325 133.261 512.37 134.487C512.431 135.91 513.431 136.758 514.795 136.91C518.749 137.318 522.749 137.258 526.704 137.667C527.961 137.803 529.173 136.471 529.128 135.244C529.067 133.821 528.067 132.974 526.704 132.822Z" fill="#1B1E24"/>
<path d="M569.899 157.412H490.293V178.561H569.899V157.412Z" fill="white"/>
<path d="M491.793 156.247C522.051 155.747 535.46 155.58 569.717 155.58L491.793 156.247Z" fill="white"/>
<path d="M491.794 158.654C511.097 158.336 530.385 158.063 549.688 158.003C556.37 157.988 563.037 157.972 569.718 157.972C572.825 157.972 572.84 153.143 569.718 153.143C549.734 153.143 529.749 153.234 509.764 153.537C503.779 153.628 497.779 153.718 491.794 153.824C488.688 153.87 488.673 158.699 491.794 158.654Z" fill="#1B1E24"/>
</svg>
