<svg width="601" height="491" viewBox="0 0 601 491" fill="none" xmlns="http://www.w3.org/2000/svg">
<path d="M66.061 252.954C66.8399 242.534 68.6788 231.673 74.0443 222.523C78.0035 215.791 83.899 210.683 91.0709 207.565C98.6756 204.253 107.113 203.049 115.324 202.414C123.534 201.78 132.512 201.726 141.102 201.651C155.175 201.533 169.248 201.468 183.322 201.414C202.317 201.339 221.313 201.285 240.308 201.253C261.792 201.221 283.275 201.199 304.748 201.221C326.015 201.231 317.293 201.264 338.56 201.35C356.928 201.414 385.296 201.511 403.664 201.672C411.019 201.737 418.375 201.823 425.731 201.93C430.707 202.006 435.716 202.296 440.692 202.189C449.432 201.995 458.075 202.694 466.524 205.07C481.062 209.157 493.589 218.447 497.883 233.362C499.214 237.986 499.722 242.749 499.744 247.545C499.766 249.61 503 249.62 503 247.534C502.957 238.394 501.053 229.157 496.023 221.394C491.955 215.114 486.125 210.157 479.505 206.683C468.936 201.156 456.647 198.952 444.77 198.866C435.499 198.801 426.229 198.694 416.958 198.586C399.445 198.382 371.931 198.274 354.429 198.188C333.259 198.092 342.1 198.038 320.93 198.016C299.761 197.995 276.633 197.995 254.479 198.016C234.315 198.038 214.141 198.081 193.977 198.156C178.454 198.21 162.931 198.274 147.408 198.382C131.117 198.5 114.166 197.726 98.2645 201.758C90.6382 203.694 83.3148 207.092 77.6573 212.63C71.2534 218.888 67.5106 227.265 65.3795 235.813C63.9841 241.427 63.2485 247.19 62.8158 252.954C62.6643 255.029 65.9096 255.018 66.061 252.954Z" fill="#CED3D8"/>
<path d="M53.283 242.828C56.3443 247.29 59.9249 251.366 64.0139 254.936C64.6197 255.463 65.7339 255.656 66.3072 254.936C69.6173 250.817 73.1438 246.892 76.8758 243.15C78.347 241.677 76.0537 239.397 74.5825 240.871C70.8505 244.613 67.324 248.538 64.0139 252.656L66.3072 252.656C62.4346 249.269 58.9946 245.441 56.0847 241.204C54.9164 239.494 52.1039 241.107 53.283 242.828Z" fill="#CED3D8"/>
<path d="M285.896 308.574C284.316 316.12 278.583 322.683 271.292 324.993C268.05 326.021 261.93 327.128 261.801 327.201C260.541 327.924 258.687 331.144 257.483 334.324C256.212 331.94 254.432 329.314 253.362 327.071C247.477 325.321 242.242 323.474 237.913 319.079C232.896 313.99 231.16 306.603 231.838 299.616C232.482 293.042 235.74 288.721 240.954 284.372C250.915 276.058 267.77 277.459 276.796 284.801C278.594 286.264 280.234 287.93 281.612 289.8C285.476 295.069 287.239 302.118 285.89 308.574H285.896Z" fill="white"/>
<path d="M284.272 308.122C283.085 313.68 279.635 318.616 274.797 321.542C272.485 322.943 270.049 323.649 267.4 324.27C266.14 324.564 264.875 324.835 263.609 325.095C262.893 325.241 262.137 325.337 261.431 325.541C260.138 325.914 259.197 327.354 258.508 328.421C257.411 330.116 256.576 331.985 255.854 333.872L258.923 333.465C257.769 331.313 256.408 329.28 255.261 327.122C254.925 326.484 254.701 325.84 253.995 325.518C253.446 325.27 252.819 325.14 252.242 324.965C251.201 324.643 250.165 324.304 249.135 323.931C245.204 322.519 241.486 320.508 238.624 317.391C235.763 314.273 234.24 310.37 233.618 306.286C233.03 302.429 233.249 298.153 234.783 294.51C235.388 293.075 236.502 291.302 237.527 290.065C238.854 288.467 240.371 287.043 241.956 285.71C244.689 283.412 248.048 281.904 251.61 281.085C258.531 279.497 266.443 280.531 272.653 284.027C274.377 284.999 275.615 285.925 277.009 287.207C278.717 288.783 280.223 290.545 281.416 292.55C283.645 296.295 284.809 300.655 284.636 305.027C284.596 306.072 284.473 307.088 284.266 308.111C284.081 309.009 284.524 309.941 285.442 310.195C286.271 310.426 287.323 309.912 287.508 309.009C289.434 299.526 285.504 289.805 278.174 283.745C272.3 278.899 264.405 276.747 256.879 277.024C252.948 277.17 249.084 278.001 245.478 279.593C241.872 281.186 238.58 283.863 235.892 286.84C233.204 289.817 231.233 293.307 230.488 297.261C229.676 301.57 229.883 306.19 231.093 310.404C232.302 314.617 234.688 318.611 238.064 321.536C241.441 324.462 245.517 326.315 249.739 327.715C250.792 328.065 251.85 328.387 252.914 328.704L251.912 327.924C253.127 330.426 254.717 332.725 256.033 335.176C256.347 335.764 257.069 336.08 257.708 335.984C258.413 335.877 258.855 335.425 259.102 334.77C259.718 333.16 260.479 331.579 261.42 330.133C261.767 329.596 261.93 329.336 262.389 328.879L262.495 328.777C262.624 328.67 262.635 328.653 262.529 328.732L262.462 328.783C262.652 328.664 262.585 328.675 262.266 328.822C262.277 328.834 262.467 328.771 262.484 328.771C264.589 328.382 266.695 327.919 268.778 327.422C271.522 326.761 274.17 325.891 276.595 324.411C279.238 322.796 281.506 320.649 283.365 318.164C285.375 315.47 286.82 312.319 287.525 309.02C287.715 308.128 287.262 307.19 286.349 306.936C285.509 306.704 284.473 307.218 284.283 308.122H284.272Z" fill="#5F44FF" stroke="#5F44FF"/>
<path d="M247.478 309.539L247.478 309.539C253.528 303.057 260.044 297.028 266.975 291.513C267.363 291.202 267.83 290.999 268.309 290.978C268.795 290.958 269.279 291.126 269.682 291.533C270.027 291.881 270.225 292.402 270.242 292.908C270.259 293.416 270.095 293.954 269.66 294.299M247.478 309.539L269.505 294.104M247.478 309.539C246.625 310.454 246.897 311.605 247.559 312.275C247.892 312.611 248.336 312.844 248.814 312.875C249.301 312.905 249.799 312.725 250.218 312.275M247.478 309.539L250.035 312.104M269.66 294.299L269.505 294.104M269.66 294.299C269.66 294.299 269.66 294.299 269.66 294.299L269.505 294.104M269.66 294.299C262.749 299.799 256.251 305.805 250.218 312.275M269.505 294.104C262.584 299.61 256.077 305.626 250.035 312.104M250.218 312.275C250.218 312.275 250.218 312.275 250.218 312.274L250.035 312.104M250.218 312.275L250.035 312.104" fill="#5F44FF" stroke="#5F44FF" stroke-width="0.5"/>
<path d="M248.173 293.607L248.173 293.607C251.155 297.032 254.135 300.458 257.115 303.883C260.096 307.309 263.076 310.735 266.058 314.16C266.415 314.571 266.933 314.746 267.434 314.735C267.934 314.725 268.442 314.531 268.798 314.172C269.585 313.378 269.477 312.205 268.809 311.437L268.809 311.437C265.827 308.011 262.847 304.586 259.867 301.16L259.864 301.157C256.884 297.733 253.905 294.308 250.924 290.884C250.567 290.473 250.049 290.298 249.548 290.309C249.048 290.319 248.54 290.513 248.184 290.872C247.397 291.666 247.505 292.838 248.173 293.607Z" fill="#5F44FF" stroke="#5F44FF" stroke-width="0.5"/>
<path d="M319.351 385.178C319.351 385.178 359.152 384.554 353.696 399.542C348.241 414.529 290.256 412.887 290.256 412.887C290.256 412.887 220.551 412.474 216.717 409.603L213.686 407.344L319.971 407.776L319.351 385.178Z" fill="#CED3D8" stroke="#CED3D8" stroke-width="2" stroke-miterlimit="10"/>
<path d="M319.382 392.679C284.004 392.509 246.383 392.388 210.943 392.225C211.139 391.244 211.59 390.329 212.041 389.421C214.358 384.728 216.674 380.029 218.991 375.335C219.296 374.718 219.637 374.058 220.259 373.749C220.704 373.531 221.228 373.531 221.728 373.537C229.763 373.64 237.793 373.737 245.822 373.834C244.743 376.868 243.731 379.859 242.792 382.766C256.436 382.966 270.08 383.165 283.724 383.365C284.687 379.95 285.65 376.528 286.613 373.113C294.271 373.071 301.922 373.034 309.585 372.992C310.304 372.986 311.054 372.992 311.701 373.307C312.493 373.694 312.987 374.488 313.42 375.245C316.48 380.616 318.498 386.569 319.382 392.679Z" fill="white"/>
<path d="M319.431 406.468C316.7 406.546 313.975 406.625 311.243 406.692C279.548 407.503 247.827 407.497 216.126 406.661C214.656 406.625 213.193 406.589 211.724 406.546C211.45 402.755 211.169 398.965 210.889 395.168C210.822 394.229 210.755 393.278 210.919 392.352C210.925 392.309 210.937 392.267 210.944 392.225C246.383 392.388 284.004 392.509 319.382 392.679C320.041 397.245 320.065 401.896 319.431 406.468Z" fill="white"/>
<path d="M319.431 404.651C305.409 405.057 291.387 405.329 277.365 405.432C263.337 405.535 249.303 405.474 235.275 405.25C227.423 405.123 219.577 404.954 211.73 404.73L213.559 406.546C213.389 404.154 213.212 401.756 213.035 399.364C212.95 398.165 212.858 396.966 212.767 395.767C212.694 394.78 212.523 393.69 212.712 392.709L210.95 394.041C225.045 394.108 239.14 394.162 253.241 394.217C267.343 394.271 281.615 394.326 295.801 394.386C303.666 394.417 311.53 394.453 319.395 394.489L317.633 393.157C318.23 397.378 318.255 401.75 317.682 405.977C317.547 406.946 317.913 407.927 318.962 408.212C319.815 408.442 321.077 407.921 321.211 406.94C321.882 402.011 321.858 397.112 321.163 392.182C321.053 391.407 320.126 390.85 319.401 390.85C305.318 390.783 291.235 390.723 277.158 390.668C262.965 390.614 248.779 390.559 234.586 390.499C226.709 390.468 218.839 390.432 210.962 390.396C210.212 390.396 209.347 390.959 209.2 391.728C208.743 394.114 209.188 396.651 209.365 399.049C209.542 401.447 209.731 404.039 209.914 406.534C209.987 407.533 210.694 408.321 211.742 408.351C225.716 408.751 239.695 408.987 253.674 409.065C267.654 409.144 281.737 409.065 295.765 408.823C303.66 408.69 311.555 408.496 319.45 408.266C321.797 408.199 321.809 404.566 319.45 404.633L319.431 404.651Z" fill="#CED3D8"/>
<path d="M319.384 390.862C305.301 390.795 291.218 390.735 277.142 390.68C262.949 390.626 248.762 390.571 234.57 390.511C226.693 390.48 218.822 390.444 210.946 390.408L212.707 392.709C213.006 391.383 213.689 390.196 214.286 388.985C214.957 387.628 215.622 386.278 216.292 384.921C217.609 382.257 218.92 379.592 220.237 376.928C220.481 376.431 220.743 375.892 221.017 375.444C221.054 375.384 221.334 375.214 221.078 375.347C220.822 375.48 221.115 375.347 221.218 375.347C221.535 375.347 221.858 375.347 222.181 375.353C223.687 375.371 225.193 375.39 226.699 375.408C229.662 375.444 232.625 375.48 235.582 375.517C238.996 375.559 245.593 375.602 249.007 375.638L247.245 373.337C246.19 376.298 245.184 379.277 244.215 382.269C243.843 383.413 244.837 384.552 245.977 384.57C256.591 384.727 264.01 384.879 274.624 385.036C277.654 385.079 278.564 385.127 281.594 385.17C282.398 385.182 283.142 384.594 283.355 383.837C284.319 380.422 285.282 377 286.245 373.585L284.483 374.917C290.781 374.881 299.205 374.851 305.496 374.82C307.014 374.814 308.545 374.76 310.063 374.802C311.117 374.832 311.367 375.329 311.904 376.274C313.263 378.672 314.403 381.179 315.318 383.777C316.385 386.823 317.147 389.966 317.616 393.157C317.763 394.126 319 394.665 319.866 394.429C320.914 394.144 321.286 393.169 321.146 392.194C320.262 386.199 318.317 380.361 315.397 375.038C314.708 373.779 313.952 372.422 312.623 371.732C311.191 370.987 309.477 371.169 307.923 371.181C304.6 371.199 301.272 371.217 297.949 371.235C294.169 371.254 288.269 371.272 284.489 371.296C283.685 371.296 282.941 371.859 282.728 372.628C281.764 376.044 280.801 379.465 279.838 382.881L281.6 381.548C270.986 381.391 262.504 381.239 251.89 381.082C248.86 381.04 249.013 380.991 245.983 380.949L247.745 383.25C248.714 380.258 247.594 377.279 247.586 374.318C247.988 373.179 250.129 372.029 249.013 372.017C242.636 371.938 233.076 371.865 226.699 371.78C225.089 371.762 223.486 371.738 221.877 371.72C220.267 371.702 218.822 372.156 217.859 373.603C217.03 374.851 216.469 376.328 215.805 377.667C215.091 379.114 214.378 380.555 213.665 382.002C212.86 383.625 212.061 385.254 211.257 386.877C210.452 388.5 209.556 390.026 209.172 391.74C208.915 392.885 209.702 394.035 210.933 394.041C225.029 394.108 239.124 394.162 253.225 394.217C267.326 394.271 281.598 394.326 295.785 394.386C303.649 394.417 311.514 394.453 319.378 394.489C321.731 394.501 321.738 390.868 319.378 390.856L319.384 390.862Z" fill="#CED3D8"/>
<path d="M294.472 381.73L282.054 381.548C281.066 381.536 280.225 382.396 280.225 383.365C280.225 384.334 281.06 385.17 282.054 385.182L294.472 385.364C295.46 385.376 296.301 384.516 296.301 383.547C296.301 382.578 295.466 381.742 294.472 381.73Z" fill="#CED3D8"/>
<path d="M245.382 380.949C241.407 380.888 237.426 380.834 233.451 380.773C232.494 380.761 231.58 381.621 231.623 382.59C231.665 383.559 232.427 384.388 233.451 384.406C237.426 384.467 241.407 384.522 245.382 384.582C246.34 384.594 247.254 383.734 247.211 382.765C247.169 381.796 246.407 380.967 245.382 380.949Z" fill="#CED3D8"/>
<path d="M284.323 363.267V378.091C284.323 379.212 283.879 380.287 283.084 381.081C282.29 381.876 281.215 382.319 280.094 382.319H250.434C249.313 382.319 248.238 381.876 247.444 381.081C246.649 380.287 246.205 379.212 246.205 378.091V348.443C246.205 347.321 246.649 346.246 247.444 345.452C248.238 344.658 249.313 344.214 250.434 344.214H279.778C282.185 344.214 284.147 346.153 284.171 348.559L284.323 363.278V363.267Z" fill="#E8E6FF"/>
<path d="M282.279 363.267V376.97C282.279 378.71 281.881 380.229 279.79 380.287C278.178 380.334 276.566 380.287 274.954 380.287H251.451C249.874 380.287 248.343 379.96 248.238 377.998C248.028 373.886 248.238 369.704 248.238 365.58V349.892C248.238 348.245 248.238 346.399 250.434 346.247C251.86 346.142 253.32 346.247 254.745 346.247H278.926C280.106 346.247 281.274 346.341 281.87 347.555C282.185 348.198 282.115 348.922 282.127 349.623L282.162 353.221L282.244 361.597L282.267 363.279C282.29 365.907 286.379 365.919 286.355 363.279C286.309 358.513 286.309 353.735 286.204 348.969C286.122 345.149 283.493 342.275 279.615 342.17C277.629 342.1 275.62 342.159 273.611 342.159H251.135C247.385 342.159 244.302 344.495 244.15 348.443C243.998 352.392 244.15 356.702 244.15 360.802V377.133C244.15 380.229 245.423 383.161 248.659 384.119C250.131 384.563 251.883 384.376 253.413 384.376H278.646C281.286 384.376 283.832 383.932 285.386 381.479C286.741 379.353 286.379 376.573 286.379 374.166V363.267C286.379 360.639 282.29 360.627 282.29 363.267H282.279Z" fill="#CED3D8"/>
<path d="M256.543 365.161C257.77 366.259 259.066 367.275 260.328 368.315C260.9 368.782 261.461 369.261 262.022 369.74C263.167 370.733 264.463 370.803 265.573 369.705C267.244 368.046 268.786 366.247 270.386 364.519C271.986 362.79 273.668 360.991 275.304 359.215C277.091 357.288 274.206 354.391 272.419 356.33C270.748 358.129 269.066 359.939 267.395 361.738C265.725 363.537 264.23 365.406 262.477 367.018L263.377 366.493L263.248 366.539H264.335L264.218 366.504L265.118 367.03C263.19 365.5 261.263 363.911 259.429 362.264C258.611 361.528 257.349 361.458 256.543 362.264C255.796 363.012 255.714 364.413 256.543 365.149V365.161Z" fill="#CED3D8"/>
<path d="M317.986 358.964C318.266 359.836 318.546 360.714 318.827 361.586C319.138 362.542 320.083 363.087 321.077 362.857C326.289 361.622 331.416 360.235 336.476 358.485C337.409 358.164 338.025 357.244 337.757 356.251C337.507 355.348 336.446 354.658 335.507 354.979C330.447 356.729 325.32 358.116 320.107 359.351L322.357 360.623C322.076 359.751 321.796 358.873 321.515 358.001C321.217 357.068 320.247 356.463 319.266 356.729C318.339 356.983 317.687 358.025 317.986 358.964Z" fill="#CED3D8"/>
<path d="M314.425 333.705C313.779 331.289 313.157 328.872 312.547 326.45L310.785 328.751C316.62 328.049 322.46 327.346 328.294 326.644C329.276 326.529 330.123 325.893 330.123 324.827C330.123 323.937 329.282 322.889 328.294 323.011C322.46 323.713 316.62 324.416 310.785 325.118C309.603 325.257 308.706 326.166 309.023 327.419C309.633 329.841 310.255 332.258 310.901 334.674C311.505 336.933 315.035 335.976 314.431 333.705H314.425Z" fill="#CED3D8"/>
<path d="M319.747 358.485C314.973 361.773 310.005 364.777 304.463 366.424C299.415 367.92 294.075 368.21 288.813 367.986C287.228 367.92 285.649 367.804 284.076 367.641C279.784 367.211 275.535 366.436 271.377 365.334C270.536 365.11 269.67 364.855 268.993 364.31C267.225 362.869 267.573 359.902 269.115 358.224C270.658 356.553 272.981 355.857 275.2 355.306C279.492 354.234 283.845 353.422 288.234 352.865C288.338 352.49 288.447 352.114 288.551 351.739C288.636 351.43 288.722 351.103 288.6 350.806C288.435 350.4 287.954 350.231 287.527 350.116C279.729 347.93 271.865 345.974 263.946 344.254C268.615 340.009 276.078 333.281 281.564 331.888C283.43 331.416 285.375 331.446 287.295 331.525C295.8 331.858 304.244 332.996 312.663 334.189C314.827 342.34 317.192 350.443 319.747 358.485Z" fill="white"/>
<path d="M318.827 356.91C314.785 359.69 310.554 362.36 305.902 364.032C300.97 365.812 295.758 366.321 290.539 366.218C285.321 366.115 279.712 365.43 274.426 364.213C273.237 363.941 271.975 363.711 270.835 363.269C270.457 363.123 270.152 362.948 269.945 362.687C269.835 362.554 269.768 362.415 269.671 362.003C269.622 361.797 269.653 361.973 269.659 362.021C269.64 361.9 269.64 361.767 269.64 361.64C269.64 361.446 269.64 361.246 269.671 361.058C269.64 361.27 269.756 360.762 269.787 360.671C269.854 360.435 269.939 360.247 269.976 360.186C270.36 359.46 270.945 358.915 271.786 358.43C274.005 357.158 276.816 356.747 279.285 356.22C282.248 355.584 285.235 355.063 288.241 354.676C289.058 354.573 289.771 354.185 290.003 353.343C290.375 352.011 290.899 350.515 289.808 349.359C289.009 348.511 287.802 348.299 286.717 347.996C284.26 347.318 281.797 346.658 279.328 346.022C274.39 344.756 269.421 343.582 264.44 342.491L265.245 345.525C269.482 341.674 273.816 337.623 278.913 334.904C280.065 334.286 280.773 333.953 282.059 333.626C283.815 333.178 285.656 333.263 287.454 333.335C291.405 333.499 295.343 333.826 299.276 334.256C303.592 334.728 307.89 335.322 312.188 335.927L310.908 334.655C313.078 342.806 315.437 350.909 317.992 358.951C318.699 361.173 322.229 360.223 321.522 357.982C318.967 349.94 316.602 341.837 314.438 333.687C314.291 333.135 313.761 332.506 313.157 332.415C304.976 331.258 296.77 330.132 288.503 329.738C286.497 329.641 284.498 329.563 282.498 329.847C280.998 330.059 279.614 330.544 278.243 331.173C275.408 332.475 272.859 334.359 270.415 336.272C267.726 338.374 265.184 340.651 262.66 342.946C261.672 343.842 262.148 345.695 263.465 345.98C267.86 346.936 272.244 347.966 276.609 349.062C278.742 349.601 280.87 350.152 282.998 350.727C284.059 351.012 285.119 351.303 286.18 351.599C286.467 351.678 286.759 351.751 287.046 351.841C287.076 351.854 287.345 351.884 287.326 351.944L286.857 351C286.814 351.175 286.765 351.345 286.717 351.514C286.637 351.799 286.558 352.078 286.479 352.356L288.241 351.024C285.199 351.412 282.175 351.896 279.175 352.514C276.462 353.071 273.652 353.604 271.097 354.706C268.817 355.687 266.83 357.413 266.208 359.877C265.586 362.342 266.354 365.001 268.671 366.236C269.921 366.908 271.378 367.193 272.75 367.526C274.121 367.859 275.615 368.174 277.054 368.44C280.059 368.991 283.101 369.385 286.15 369.621C292.045 370.075 298.105 369.954 303.848 368.458C309.987 366.86 315.498 363.583 320.674 360.029C321.485 359.472 321.857 358.436 321.333 357.546C320.863 356.747 319.644 356.335 318.833 356.892L318.827 356.91Z" fill="#CED3D8"/>
<path d="M279.704 477.26C271.887 477.627 262.723 476.983 254.916 476.305C248.865 475.771 242.458 474.771 237.871 470.659C236.74 469.648 235.792 468.381 235.092 466.981C234.07 462.635 234.769 457.89 237.515 454.445C239.852 451.533 243.287 449.811 246.7 448.444C266.32 440.531 288.394 441.576 308.875 446.588C313.408 447.699 318.006 449.044 321.764 451.889C325.523 454.723 328.311 459.335 327.881 464.124C327.407 469.337 323.197 473.537 318.469 475.438C313.742 477.327 308.531 477.36 303.459 477.372C299.905 477.383 296.363 477.394 292.809 477.394C290.429 477.405 285.336 478.127 278.875 477.26" fill="#EFF2F3"/>
<path d="M279.704 475.593C272.511 475.916 265.307 475.482 258.135 474.904C251.911 474.404 244.847 474.093 239.668 470.026C238.527 469.125 237.277 467.925 236.696 466.547C236.061 465.025 236.147 462.858 236.373 461.246C236.836 457.912 238.58 455.112 241.229 453.167C244.072 451.077 247.464 449.822 250.748 448.699C254.033 447.577 257.489 446.643 260.946 445.965C275.052 443.165 289.718 444.154 303.727 447.121C310.253 448.499 317.962 449.855 322.797 455.023C324.854 457.223 326.351 460.157 326.308 463.269C326.265 466.38 324.66 468.981 322.517 470.97C316.53 476.516 307.442 475.682 299.991 475.705C296.599 475.705 293.217 475.671 289.836 475.871C286.175 476.082 282.525 476.06 278.874 475.593C276.818 475.327 276.839 478.661 278.874 478.927C282.471 479.394 286.067 479.428 289.675 479.216C293.024 479.027 296.373 479.061 299.721 479.05C307.27 479.027 315.809 479.639 322.431 475.204C328.063 471.426 331.196 464.658 328.494 457.968C325.522 450.6 318.156 447.299 311.125 445.443C295.953 441.431 279.908 439.753 264.348 442.02C256.725 443.131 248.692 445.11 241.854 448.877C238.807 450.555 236.039 452.944 234.532 456.212C233.024 459.479 232.572 463.458 233.433 466.992C234.392 470.904 238.677 473.749 242.037 475.216C245.59 476.771 249.402 477.405 253.214 477.805C261.969 478.727 270.895 479.316 279.693 478.927C281.76 478.839 281.771 475.505 279.693 475.593L279.704 475.593Z" fill="#EFF2F3"/>
<path d="M264.072 467.539H261.57L255.936 454.147H258.276L262.794 465.181L267.042 454.147H269.364L264.072 467.539ZM273.234 465.811C273.726 465.811 274.158 465.691 274.53 465.451C274.902 465.199 275.19 464.845 275.394 464.389C275.598 463.921 275.7 463.387 275.7 462.787C275.7 462.187 275.598 461.659 275.394 461.203C275.19 460.735 274.902 460.375 274.53 460.123C274.158 459.871 273.726 459.745 273.234 459.745C272.742 459.745 272.31 459.871 271.938 460.123C271.566 460.375 271.278 460.735 271.074 461.203C270.87 461.659 270.768 462.187 270.768 462.787C270.768 463.387 270.87 463.915 271.074 464.371C271.278 464.827 271.566 465.181 271.938 465.433C272.31 465.685 272.742 465.811 273.234 465.811ZM273.234 457.981C274.134 457.981 274.932 458.185 275.628 458.593C276.336 459.001 276.882 459.571 277.266 460.303C277.662 461.023 277.86 461.851 277.86 462.787C277.86 463.711 277.662 464.539 277.266 465.271C276.882 466.003 276.336 466.573 275.628 466.981C274.932 467.389 274.134 467.593 273.234 467.593C272.334 467.593 271.536 467.389 270.84 466.981C270.144 466.573 269.598 466.009 269.202 465.289C268.806 464.557 268.608 463.723 268.608 462.787C268.608 461.851 268.806 461.023 269.202 460.303C269.598 459.571 270.144 459.001 270.84 458.593C271.536 458.185 272.334 457.981 273.234 457.981ZM282.44 467.575C281.864 467.575 281.348 467.449 280.892 467.197C280.436 466.933 280.076 466.567 279.812 466.099C279.56 465.631 279.434 465.103 279.434 464.515V455.425H281.594V464.425C281.594 464.725 281.672 464.983 281.828 465.199C281.996 465.415 282.2 465.523 282.44 465.523C282.644 465.535 282.902 465.505 283.214 465.433C283.286 465.409 283.358 465.385 283.43 465.361L283.916 467.395C283.364 467.515 282.872 467.575 282.44 467.575ZM277.76 458.107H283.988V459.961H277.76V458.107ZM287.216 458.071V467.539H285.056V458.071H287.216ZM286.136 453.877C286.484 453.877 286.766 453.985 286.982 454.201C287.21 454.417 287.324 454.699 287.324 455.047C287.324 455.395 287.21 455.683 286.982 455.911C286.766 456.127 286.484 456.235 286.136 456.235C285.8 456.235 285.518 456.127 285.29 455.911C285.074 455.683 284.966 455.395 284.966 455.047C284.966 454.699 285.074 454.417 285.29 454.201C285.518 453.985 285.8 453.877 286.136 453.877ZM295.546 462.391C295.546 461.575 295.354 460.939 294.97 460.483C294.586 460.027 294.04 459.799 293.332 459.799C292.9 459.799 292.504 459.913 292.144 460.141C291.796 460.357 291.52 460.663 291.316 461.059C291.112 461.443 291.016 461.887 291.028 462.391V467.539H288.868V457.981H291.028V459.583C291.292 459.139 291.676 458.773 292.18 458.485C292.696 458.185 293.206 458.035 293.71 458.035C294.346 458.035 294.964 458.173 295.564 458.449C296.176 458.725 296.686 459.187 297.094 459.835C297.502 460.483 297.706 461.317 297.706 462.337V467.539H295.546V462.391ZM303.279 465.811C303.783 465.811 304.239 465.679 304.647 465.415C305.055 465.139 305.373 464.767 305.601 464.299C305.829 463.831 305.943 463.321 305.943 462.769C305.943 462.241 305.829 461.749 305.601 461.293C305.373 460.825 305.055 460.453 304.647 460.177C304.239 459.901 303.783 459.763 303.279 459.763C302.787 459.763 302.349 459.889 301.965 460.141C301.581 460.393 301.281 460.747 301.065 461.203C300.861 461.659 300.759 462.181 300.759 462.769C300.759 463.381 300.861 463.921 301.065 464.389C301.281 464.845 301.581 465.199 301.965 465.451C302.349 465.691 302.787 465.811 303.279 465.811ZM308.103 466.909C308.103 467.809 307.905 468.613 307.509 469.321C307.125 470.041 306.567 470.599 305.835 470.995C305.115 471.403 304.269 471.607 303.297 471.607C302.445 471.607 301.659 471.433 300.939 471.085C300.231 470.737 299.655 470.209 299.211 469.501L300.885 468.349C301.257 468.841 301.623 469.195 301.983 469.411C302.343 469.639 302.781 469.753 303.297 469.753C303.849 469.753 304.323 469.639 304.719 469.411C305.115 469.195 305.415 468.889 305.619 468.493C305.835 468.097 305.943 467.659 305.943 467.179V466.063C305.571 466.579 305.133 466.963 304.629 467.215C304.125 467.467 303.621 467.593 303.117 467.593C302.241 467.593 301.461 467.389 300.777 466.981C300.093 466.573 299.559 466.003 299.175 465.271C298.791 464.539 298.599 463.711 298.599 462.787C298.599 461.863 298.791 461.041 299.175 460.321C299.559 459.589 300.093 459.025 300.777 458.629C301.461 458.221 302.241 458.017 303.117 458.017C303.453 458.017 303.795 458.065 304.143 458.161C304.491 458.257 304.821 458.419 305.133 458.647C305.457 458.875 305.727 459.151 305.943 459.475V457.981H308.103V466.909Z" fill="#C6C6C6"/>
<path d="M55.5454 477.259C46.9175 477.626 36.8041 476.982 28.1881 476.304C21.5092 475.77 14.4381 474.77 9.37545 470.658C8.12761 469.647 7.0818 468.38 6.30933 466.98C5.18035 462.634 5.95281 457.889 8.98327 454.444C11.5621 451.532 15.3532 449.81 19.1205 448.443C40.7734 440.53 65.1359 441.575 87.7395 446.587C92.7428 447.698 97.8173 449.043 101.965 451.888C106.112 454.722 109.19 459.334 108.715 464.124C108.192 469.336 103.545 473.537 98.3283 475.437C93.1112 477.326 87.3592 477.36 81.7618 477.371C77.84 477.382 73.9301 477.393 70.0084 477.393C67.382 477.404 61.7608 478.126 54.6303 477.259" fill="#EFF2F3"/>
<path d="M55.5443 475.592C47.6057 475.915 39.6552 475.481 31.7404 474.903C24.8713 474.403 17.0753 474.092 11.3591 470.025C10.0993 469.124 8.72079 467.924 8.07904 466.546C7.37788 465.024 7.47295 462.857 7.72251 461.245C8.23354 457.911 10.1588 455.111 13.0823 453.166C16.2197 451.076 19.9632 449.821 23.5879 448.698C27.2125 447.576 31.0273 446.642 34.8421 445.964C50.4104 443.164 66.5966 444.153 82.0579 447.12C89.2597 448.498 97.7687 449.854 103.105 455.022C105.375 457.222 107.026 460.156 106.979 463.268C106.931 466.38 105.161 468.98 102.796 470.969C96.1881 476.515 86.1579 475.681 77.9341 475.704C74.1906 475.704 70.4589 475.67 66.7273 475.87C62.6867 476.081 58.658 476.059 54.6293 475.592C52.3594 475.326 52.3831 478.66 54.6293 478.926C58.5986 479.393 62.5679 479.427 66.5491 479.215C70.245 479.026 73.941 479.06 77.637 479.049C85.9678 479.026 95.3919 479.638 102.701 475.203C108.916 471.425 112.374 464.657 109.391 457.967C106.111 450.599 97.9826 447.298 90.2223 445.442C73.4775 441.43 55.7701 439.752 38.5975 442.019C30.1836 443.13 21.318 445.109 13.7716 448.876C10.4083 450.554 7.35411 452.943 5.69033 456.211C4.02654 459.478 3.52741 463.457 4.47815 466.991C5.53584 470.903 10.2657 473.748 13.9736 475.215C17.8953 476.77 22.1023 477.404 26.3093 477.804C35.9711 478.726 45.8231 479.315 55.5324 478.926C57.8142 478.838 57.8261 475.504 55.5324 475.592L55.5443 475.592Z" fill="#EFF2F3"/>
<path d="M33.7719 464.01C34.2039 464.538 34.7079 464.964 35.2839 465.288C35.8599 465.612 36.4179 465.774 36.9579 465.774C37.4979 465.774 37.9779 465.69 38.3979 465.522C38.8299 465.354 39.1659 465.108 39.4059 464.784C39.6459 464.46 39.7659 464.094 39.7659 463.686C39.7659 463.338 39.6459 463.044 39.4059 462.804C39.1659 462.552 38.8599 462.354 38.4879 462.21C38.1159 462.066 37.6119 461.892 36.9759 461.688C36.0639 461.412 35.3199 461.148 34.7439 460.896C34.1679 460.632 33.6759 460.242 33.2679 459.726C32.8599 459.21 32.6619 458.538 32.6739 457.71C32.6739 456.99 32.8719 456.354 33.2679 455.802C33.6639 455.238 34.2039 454.806 34.8879 454.506C35.5839 454.194 36.3759 454.044 37.2639 454.056C38.0319 454.068 38.7939 454.266 39.5499 454.65C40.3179 455.022 40.9479 455.52 41.4399 456.144L39.8559 457.386C39.5199 456.942 39.1119 456.588 38.6319 456.324C38.1519 456.048 37.6839 455.91 37.2279 455.91C36.5319 455.898 35.9559 456.066 35.4999 456.414C35.0559 456.762 34.8339 457.206 34.8339 457.746C34.8339 458.118 34.9539 458.43 35.1939 458.682C35.4459 458.934 35.7639 459.144 36.1479 459.312C36.5319 459.468 37.0539 459.654 37.7139 459.87C38.6139 460.158 39.3399 460.434 39.8919 460.698C40.4559 460.962 40.9359 461.34 41.3319 461.832C41.7399 462.324 41.9379 462.954 41.9259 463.722C41.9259 464.49 41.7099 465.174 41.2779 465.774C40.8459 466.374 40.2519 466.836 39.4959 467.16C38.7399 467.484 37.8879 467.64 36.9399 467.628C36.0639 467.616 35.1879 467.394 34.3119 466.962C33.4359 466.53 32.7159 465.966 32.1519 465.27L33.7719 464.01ZM48.6851 467.178C48.4211 467.298 48.1631 467.388 47.9111 467.448C47.6711 467.508 47.3471 467.538 46.9391 467.538C46.3871 467.538 45.8951 467.412 45.4631 467.16C45.0311 466.896 44.6951 466.536 44.4551 466.08C44.2151 465.612 44.0951 465.09 44.0951 464.514V455.424H46.2551V464.514C46.2551 464.838 46.3331 465.108 46.4891 465.324C46.6571 465.54 46.8731 465.654 47.1371 465.666C47.4011 465.69 47.7251 465.606 48.1091 465.414L48.1271 465.396L48.8291 467.106L48.6851 467.178ZM42.4211 458.106H48.6491V459.96H42.4211V458.106ZM53.8765 465.846C54.3445 465.846 54.7825 465.714 55.1905 465.45C55.5985 465.186 55.9225 464.82 56.1625 464.352C56.4025 463.884 56.5225 463.368 56.5225 462.804C56.5225 462.24 56.4025 461.73 56.1625 461.274C55.9225 460.806 55.5985 460.44 55.1905 460.176C54.7825 459.912 54.3445 459.78 53.8765 459.78C53.3725 459.78 52.9285 459.906 52.5445 460.158C52.1605 460.398 51.8605 460.752 51.6445 461.22C51.4405 461.676 51.3385 462.204 51.3385 462.804C51.3385 463.416 51.4405 463.95 51.6445 464.406C51.8605 464.862 52.1605 465.216 52.5445 465.468C52.9285 465.72 53.3725 465.846 53.8765 465.846ZM58.6825 467.538H56.5225V466.116C56.2705 466.452 55.9885 466.728 55.6765 466.944C55.3765 467.16 55.0585 467.322 54.7225 467.43C54.3865 467.55 54.0445 467.61 53.6965 467.61C52.8205 467.61 52.0405 467.406 51.3565 466.998C50.6725 466.59 50.1385 466.026 49.7545 465.306C49.3705 464.574 49.1785 463.74 49.1785 462.804C49.1785 461.88 49.3705 461.058 49.7545 460.338C50.1385 459.606 50.6725 459.036 51.3565 458.628C52.0405 458.22 52.8205 458.016 53.6965 458.016C54.2245 458.016 54.7345 458.142 55.2265 458.394C55.7305 458.646 56.1625 459.018 56.5225 459.51V457.98H58.6825V467.538ZM62.3533 461.94L65.7733 457.98H68.6713L64.9453 462.246L68.5453 467.538H65.9533L63.3793 463.812L62.3533 465.072V467.538H60.1933V454.146H62.3533V461.94ZM75.553 461.976C75.493 461.592 75.367 461.232 75.175 460.896C74.983 460.56 74.719 460.284 74.383 460.068C74.047 459.852 73.639 459.744 73.159 459.744C72.727 459.744 72.325 459.846 71.953 460.05C71.581 460.242 71.275 460.512 71.035 460.86C70.795 461.196 70.639 461.568 70.567 461.976H75.553ZM77.119 460.554C77.347 461.058 77.473 461.562 77.497 462.066C77.533 462.57 77.539 463.02 77.515 463.416V463.56H70.567C70.639 463.992 70.801 464.382 71.053 464.73C71.317 465.066 71.629 465.33 71.989 465.522C72.361 465.702 72.751 465.792 73.159 465.792C73.819 465.792 74.317 465.678 74.653 465.45C75.001 465.222 75.253 464.994 75.409 464.766L75.427 464.73L77.173 465.468C76.885 466.056 76.399 466.554 75.715 466.962C75.031 467.37 74.173 467.574 73.141 467.574C72.253 467.574 71.461 467.376 70.765 466.98C70.069 466.572 69.523 466.008 69.127 465.288C68.743 464.556 68.551 463.722 68.551 462.786C68.551 461.85 68.743 461.022 69.127 460.302C69.523 459.57 70.069 459 70.765 458.592C71.461 458.184 72.253 457.98 73.141 457.98C74.017 457.98 74.743 458.16 75.319 458.52C75.907 458.868 76.333 459.24 76.597 459.636C76.861 460.02 77.035 460.326 77.119 460.554ZM80.5961 459.708C80.8601 459.192 81.2561 458.772 81.7841 458.448C82.3241 458.124 82.8881 457.962 83.4761 457.962V459.888C82.9241 459.888 82.4261 460.038 81.9821 460.338C81.5381 460.626 81.1961 461.004 80.9561 461.472C80.7161 461.928 80.5961 462.39 80.5961 462.858V467.538H78.4541V457.98H80.5961V459.708Z" fill="#1B1E24"/>
<path d="M511.23 478.396C497.131 478.855 480.604 478.048 466.524 477.199C455.61 476.531 444.055 475.279 435.782 470.131C433.743 468.865 432.034 467.279 430.772 465.526C428.927 460.086 430.189 454.145 435.141 449.832C439.355 446.187 445.55 444.03 451.707 442.319C487.09 432.412 526.902 433.72 563.839 439.995C572.015 441.386 580.308 443.07 587.085 446.632C593.863 450.18 598.893 455.954 598.116 461.95C597.262 468.475 589.668 473.735 581.143 476.114C572.617 478.479 563.218 478.521 554.071 478.535C547.662 478.549 541.273 478.562 534.864 478.562C530.572 478.576 521.387 479.481 509.734 478.396" fill="#E5F8F7"/>
<path d="M511.23 476.309C498.258 476.712 485.265 476.169 472.331 475.446C461.107 474.82 448.367 474.43 439.026 469.338C436.967 468.211 434.714 466.708 433.666 464.983C432.52 463.077 432.675 460.364 433.083 458.347C433.918 454.173 437.064 450.667 441.842 448.232C446.969 445.616 453.086 444.044 459.009 442.639C464.932 441.233 471.166 440.065 477.4 439.216C502.841 435.71 529.291 436.948 554.557 440.663C566.326 442.388 580.231 444.086 588.95 450.555C592.66 453.31 595.359 456.983 595.281 460.879C595.204 464.774 592.31 468.03 588.445 470.521C577.648 477.463 561.257 476.42 547.818 476.448C541.701 476.448 535.603 476.406 529.505 476.656C522.902 476.921 516.318 476.893 509.735 476.309C506.026 475.975 506.065 480.149 509.735 480.482C516.221 481.067 522.708 481.109 529.214 480.844C535.253 480.608 541.293 480.649 547.333 480.636C560.946 480.608 576.347 481.373 588.29 475.822C598.447 471.091 604.098 462.618 599.224 454.242C593.864 445.018 580.58 440.886 567.899 438.562C540.536 433.539 511.599 431.439 483.537 434.277C469.787 435.668 455.3 438.145 442.968 442.861C437.472 444.962 432.481 447.953 429.762 452.044C427.043 456.134 426.228 461.115 427.781 465.54C429.51 470.437 437.239 473.999 443.298 475.835C449.707 477.783 456.582 478.576 463.456 479.077C479.245 480.232 495.345 480.969 511.211 480.482C514.94 480.371 514.959 476.197 511.211 476.309L511.23 476.309Z" fill="#E5F8F7"/>
<path d="M452.772 461.67C453.204 462.198 453.708 462.624 454.284 462.948C454.86 463.272 455.418 463.434 455.958 463.434C456.498 463.434 456.978 463.35 457.398 463.182C457.83 463.014 458.166 462.768 458.406 462.444C458.646 462.12 458.766 461.754 458.766 461.346C458.766 460.998 458.646 460.704 458.406 460.464C458.166 460.212 457.86 460.014 457.488 459.87C457.116 459.726 456.612 459.552 455.976 459.348C455.064 459.072 454.32 458.808 453.744 458.556C453.168 458.292 452.676 457.902 452.268 457.386C451.86 456.87 451.662 456.198 451.674 455.37C451.674 454.65 451.872 454.014 452.268 453.462C452.664 452.898 453.204 452.466 453.888 452.166C454.584 451.854 455.376 451.704 456.264 451.716C457.032 451.728 457.794 451.926 458.55 452.31C459.318 452.682 459.948 453.18 460.44 453.804L458.856 455.046C458.52 454.602 458.112 454.248 457.632 453.984C457.152 453.708 456.684 453.57 456.228 453.57C455.532 453.558 454.956 453.726 454.5 454.074C454.056 454.422 453.834 454.866 453.834 455.406C453.834 455.778 453.954 456.09 454.194 456.342C454.446 456.594 454.764 456.804 455.148 456.972C455.532 457.128 456.054 457.314 456.714 457.53C457.614 457.818 458.34 458.094 458.892 458.358C459.456 458.622 459.936 459 460.332 459.492C460.74 459.984 460.938 460.614 460.926 461.382C460.926 462.15 460.71 462.834 460.278 463.434C459.846 464.034 459.252 464.496 458.496 464.82C457.74 465.144 456.888 465.3 455.94 465.288C455.064 465.276 454.188 465.054 453.312 464.622C452.436 464.19 451.716 463.626 451.152 462.93L452.772 461.67ZM467.685 464.838C467.421 464.958 467.163 465.048 466.911 465.108C466.671 465.168 466.347 465.198 465.939 465.198C465.387 465.198 464.895 465.072 464.463 464.82C464.031 464.556 463.695 464.196 463.455 463.74C463.215 463.272 463.095 462.75 463.095 462.174V453.084H465.255V462.174C465.255 462.498 465.333 462.768 465.489 462.984C465.657 463.2 465.873 463.314 466.137 463.326C466.401 463.35 466.725 463.266 467.109 463.074L467.127 463.056L467.829 464.766L467.685 464.838ZM461.421 455.766H467.649V457.62H461.421V455.766ZM472.877 463.506C473.345 463.506 473.783 463.374 474.191 463.11C474.599 462.846 474.923 462.48 475.163 462.012C475.403 461.544 475.523 461.028 475.523 460.464C475.523 459.9 475.403 459.39 475.163 458.934C474.923 458.466 474.599 458.1 474.191 457.836C473.783 457.572 473.345 457.44 472.877 457.44C472.373 457.44 471.929 457.566 471.545 457.818C471.161 458.058 470.861 458.412 470.645 458.88C470.441 459.336 470.339 459.864 470.339 460.464C470.339 461.076 470.441 461.61 470.645 462.066C470.861 462.522 471.161 462.876 471.545 463.128C471.929 463.38 472.373 463.506 472.877 463.506ZM477.683 465.198H475.523V463.776C475.271 464.112 474.989 464.388 474.677 464.604C474.377 464.82 474.059 464.982 473.723 465.09C473.387 465.21 473.045 465.27 472.697 465.27C471.821 465.27 471.041 465.066 470.357 464.658C469.673 464.25 469.139 463.686 468.755 462.966C468.371 462.234 468.179 461.4 468.179 460.464C468.179 459.54 468.371 458.718 468.755 457.998C469.139 457.266 469.673 456.696 470.357 456.288C471.041 455.88 471.821 455.676 472.697 455.676C473.225 455.676 473.735 455.802 474.227 456.054C474.731 456.306 475.163 456.678 475.523 457.17V455.64H477.683V465.198ZM481.353 459.6L484.773 455.64H487.671L483.945 459.906L487.545 465.198H484.953L482.379 461.472L481.353 462.732V465.198H479.193V451.806H481.353V459.6ZM490.936 455.73V465.198H488.776V455.73H490.936ZM489.856 451.536C490.204 451.536 490.486 451.644 490.702 451.86C490.93 452.076 491.044 452.358 491.044 452.706C491.044 453.054 490.93 453.342 490.702 453.57C490.486 453.786 490.204 453.894 489.856 453.894C489.52 453.894 489.238 453.786 489.01 453.57C488.794 453.342 488.686 453.054 488.686 452.706C488.686 452.358 488.794 452.076 489.01 451.86C489.238 451.644 489.52 451.536 489.856 451.536ZM499.265 460.05C499.265 459.234 499.073 458.598 498.689 458.142C498.305 457.686 497.759 457.458 497.051 457.458C496.619 457.458 496.223 457.572 495.863 457.8C495.515 458.016 495.239 458.322 495.035 458.718C494.831 459.102 494.735 459.546 494.747 460.05V465.198H492.587V455.64H494.747V457.242C495.011 456.786 495.377 456.414 495.845 456.126C496.325 455.838 496.817 455.694 497.321 455.694C498.017 455.694 498.671 455.832 499.283 456.108C499.907 456.384 500.417 456.846 500.813 457.494C501.221 458.13 501.425 458.964 501.425 459.996V465.198H499.265V460.05ZM506.998 463.47C507.502 463.47 507.958 463.338 508.366 463.074C508.774 462.798 509.092 462.426 509.32 461.958C509.548 461.49 509.662 460.98 509.662 460.428C509.662 459.9 509.548 459.408 509.32 458.952C509.092 458.484 508.774 458.112 508.366 457.836C507.958 457.56 507.502 457.422 506.998 457.422C506.506 457.422 506.068 457.548 505.684 457.8C505.3 458.052 505 458.406 504.784 458.862C504.58 459.318 504.478 459.84 504.478 460.428C504.478 461.04 504.58 461.58 504.784 462.048C505 462.504 505.3 462.858 505.684 463.11C506.068 463.35 506.506 463.47 506.998 463.47ZM511.822 464.64C511.822 465.54 511.624 466.338 511.228 467.034C510.844 467.73 510.286 468.27 509.554 468.654C508.834 469.05 507.988 469.248 507.016 469.248C506.14 469.248 505.348 469.086 504.64 468.762C503.944 468.45 503.374 467.946 502.93 467.25L504.604 466.08C504.952 466.56 505.306 466.896 505.666 467.088C506.038 467.28 506.488 467.376 507.016 467.376C507.568 467.376 508.042 467.274 508.438 467.07C508.846 466.866 509.152 466.572 509.356 466.188C509.56 465.816 509.662 465.39 509.662 464.91V463.722C509.29 464.238 508.852 464.622 508.348 464.874C507.844 465.126 507.34 465.252 506.836 465.252C505.96 465.252 505.18 465.048 504.496 464.64C503.812 464.232 503.278 463.662 502.894 462.93C502.51 462.198 502.318 461.37 502.318 460.446C502.318 459.522 502.51 458.7 502.894 457.98C503.278 457.248 503.812 456.684 504.496 456.288C505.18 455.88 505.96 455.676 506.836 455.676C507.172 455.676 507.514 455.724 507.862 455.82C508.21 455.916 508.54 456.078 508.852 456.306C509.176 456.534 509.446 456.81 509.662 457.134V455.64H511.822V464.64ZM522.661 458.862C523.357 458.862 523.921 458.622 524.353 458.142C524.785 457.662 525.001 457.032 525.001 456.252C525.001 455.748 524.905 455.304 524.713 454.92C524.521 454.524 524.245 454.218 523.885 454.002C523.537 453.786 523.129 453.678 522.661 453.678H519.133V458.862H522.661ZM525.109 465.198L521.815 460.716H519.133V465.198H516.973V451.806H523.003C523.807 451.806 524.521 451.998 525.145 452.382C525.781 452.754 526.273 453.276 526.621 453.948C526.981 454.608 527.161 455.358 527.161 456.198C527.161 456.81 527.059 457.38 526.855 457.908C526.651 458.424 526.333 458.898 525.901 459.33C525.481 459.75 524.935 460.104 524.263 460.392L527.791 465.198H525.109ZM534.969 459.636C534.909 459.252 534.783 458.892 534.591 458.556C534.399 458.22 534.135 457.944 533.799 457.728C533.463 457.512 533.055 457.404 532.575 457.404C532.143 457.404 531.741 457.506 531.369 457.71C530.997 457.902 530.691 458.172 530.451 458.52C530.211 458.856 530.055 459.228 529.983 459.636H534.969ZM536.535 458.214C536.763 458.718 536.889 459.222 536.913 459.726C536.949 460.23 536.955 460.68 536.931 461.076V461.22H529.983C530.055 461.652 530.217 462.042 530.469 462.39C530.733 462.726 531.045 462.99 531.405 463.182C531.777 463.362 532.167 463.452 532.575 463.452C533.235 463.452 533.733 463.338 534.069 463.11C534.417 462.882 534.669 462.654 534.825 462.426L534.843 462.39L536.589 463.128C536.301 463.716 535.815 464.214 535.131 464.622C534.447 465.03 533.589 465.234 532.557 465.234C531.669 465.234 530.877 465.036 530.181 464.64C529.485 464.232 528.939 463.668 528.543 462.948C528.159 462.216 527.967 461.382 527.967 460.446C527.967 459.51 528.159 458.682 528.543 457.962C528.939 457.23 529.485 456.66 530.181 456.252C530.877 455.844 531.669 455.64 532.557 455.64C533.433 455.64 534.159 455.82 534.735 456.18C535.323 456.528 535.749 456.9 536.013 457.296C536.277 457.68 536.451 457.986 536.535 458.214ZM547.553 465.198H545.519L543.593 458.772L541.703 465.198H539.651L536.807 455.64H539.057L540.713 462.048L542.477 455.64H544.691L546.491 462.048L548.129 455.64H550.379L547.553 465.198ZM554.744 463.506C555.212 463.506 555.65 463.374 556.058 463.11C556.466 462.846 556.79 462.48 557.03 462.012C557.27 461.544 557.39 461.028 557.39 460.464C557.39 459.9 557.27 459.39 557.03 458.934C556.79 458.466 556.466 458.1 556.058 457.836C555.65 457.572 555.212 457.44 554.744 457.44C554.24 457.44 553.796 457.566 553.412 457.818C553.028 458.058 552.728 458.412 552.512 458.88C552.308 459.336 552.206 459.864 552.206 460.464C552.206 461.076 552.308 461.61 552.512 462.066C552.728 462.522 553.028 462.876 553.412 463.128C553.796 463.38 554.24 463.506 554.744 463.506ZM559.55 465.198H557.39V463.776C557.138 464.112 556.856 464.388 556.544 464.604C556.244 464.82 555.926 464.982 555.59 465.09C555.254 465.21 554.912 465.27 554.564 465.27C553.688 465.27 552.908 465.066 552.224 464.658C551.54 464.25 551.006 463.686 550.622 462.966C550.238 462.234 550.046 461.4 550.046 460.464C550.046 459.54 550.238 458.718 550.622 457.998C551.006 457.266 551.54 456.696 552.224 456.288C552.908 455.88 553.688 455.676 554.564 455.676C555.092 455.676 555.602 455.802 556.094 456.054C556.598 456.306 557.03 456.678 557.39 457.17V455.64H559.55V465.198ZM562.988 457.368C563.252 456.852 563.648 456.432 564.176 456.108C564.716 455.784 565.28 455.622 565.868 455.622V457.548C565.316 457.548 564.818 457.698 564.374 457.998C563.93 458.286 563.588 458.664 563.348 459.132C563.108 459.588 562.988 460.05 562.988 460.518V465.198H560.846V455.64H562.988V457.368ZM570.334 465.27C569.458 465.27 568.672 465.066 567.976 464.658C567.292 464.238 566.758 463.668 566.374 462.948C565.99 462.216 565.798 461.382 565.798 460.446C565.798 459.522 565.99 458.694 566.374 457.962C566.758 457.23 567.292 456.66 567.976 456.252C568.672 455.832 569.458 455.622 570.334 455.622C570.622 455.622 570.928 455.664 571.252 455.748C571.576 455.832 571.912 455.988 572.26 456.216C572.62 456.444 572.932 456.756 573.196 457.152V451.806H575.356V465.198H573.196V463.758C572.812 464.298 572.344 464.688 571.792 464.928C571.252 465.156 570.766 465.27 570.334 465.27ZM570.514 463.542C570.994 463.542 571.438 463.41 571.846 463.146C572.254 462.87 572.578 462.498 572.818 462.03C573.07 461.562 573.196 461.052 573.196 460.5C573.196 459.948 573.07 459.438 572.818 458.97C572.578 458.49 572.254 458.112 571.846 457.836C571.438 457.56 570.994 457.422 570.514 457.422C569.998 457.422 569.548 457.548 569.164 457.8C568.78 458.052 568.48 458.412 568.264 458.88C568.06 459.348 567.958 459.888 567.958 460.5C567.958 461.1 568.06 461.634 568.264 462.102C568.48 462.558 568.78 462.912 569.164 463.164C569.548 463.416 569.998 463.542 570.514 463.542Z" fill="#5F44FF"/>
<path d="M577.364 401.895C572.749 406.656 565.031 408.812 559.76 409.782C526.032 416.045 491.544 416.724 457.65 411.781C456.597 410.06 456.264 407.492 457.004 405.481C458.254 402.113 461.243 400.15 464.066 398.515C482.159 388.035 501.846 381.311 521.908 378.525C533.615 376.901 580.635 372.782 580.999 395.147C581.041 397.909 579.145 400.065 577.364 401.895Z" fill="#1B1E24"/>
<path d="M540.186 397.71C535.784 404.262 527.1 406.241 519.246 406.923C507.86 407.886 495.71 407.646 484.578 404.891C482.036 404.262 479.454 403.433 477.46 401.735C469.82 395.209 472.068 381.85 474.784 373.693C478.678 362.033 484.685 351.108 492.459 341.573C492.646 341.332 492.847 341.105 493.034 340.864C493.998 341.292 495.135 341.546 496.179 341.68C502.374 342.496 508.769 342.509 514.764 340.704C515.567 340.463 516.396 340.182 517.038 339.647C517.038 339.674 517.065 339.688 517.092 339.714C521.253 345.812 527.368 352.284 531.221 358.329C535.904 365.67 540.681 373.225 542.421 381.77C543.531 387.173 543.25 393.15 540.186 397.737V397.71Z" fill="white"/>
<path d="M538.46 396.707C534.004 403.126 525.254 404.463 518.029 405.024C508.288 405.773 498.346 405.666 488.726 403.767C484.578 402.952 479.935 402.123 477.192 398.579C475.239 396.052 474.463 392.789 474.289 389.66C473.888 382.439 476.095 375.365 478.731 368.745C482.544 359.184 487.923 350.225 494.453 342.282L492.499 342.803C494.453 343.592 496.58 343.779 498.668 343.967C500.956 344.181 503.257 344.261 505.545 344.181C507.833 344.1 510.054 343.833 512.275 343.392C514.229 343.004 516.41 342.563 518.055 341.386L515.62 341.078C517.239 343.017 518.631 345.197 520.196 347.176C521.949 349.369 523.742 351.535 525.468 353.755C528.773 357.994 531.663 362.567 534.339 367.221C539.169 375.646 544.334 387.56 538.447 396.734C537.042 398.913 540.521 400.933 541.912 398.753C548.268 388.844 543.826 376.127 538.688 366.753C535.878 361.645 532.733 356.644 529.174 352.017C527.355 349.663 525.468 347.363 523.608 345.036C521.748 342.71 520.276 340.41 518.457 338.23C517.935 337.601 516.691 337.441 516.022 337.922C514.577 338.952 512.61 339.26 510.897 339.58C508.93 339.955 506.923 340.142 504.916 340.182C501.263 340.276 496.982 340.316 493.556 338.925C492.954 338.685 492.004 338.952 491.603 339.447C485.207 347.216 479.895 355.774 475.948 365.028C472.75 372.503 470.021 380.54 470.221 388.777C470.315 392.508 471.051 396.359 473.018 399.582C475.399 403.487 479.146 405.573 483.481 406.696C493.877 409.411 504.863 409.839 515.54 409.21C525.093 408.635 535.998 407.231 541.899 398.739C543.371 396.613 539.892 394.607 538.433 396.72L538.46 396.707Z" fill="#1B1E24"/>
<path d="M519.407 323.387C518.631 328.495 517.868 333.59 517.105 338.698C517.079 338.671 517.065 338.644 517.052 338.618C516.41 339.353 515.593 339.754 514.777 340.089C508.783 342.603 502.387 342.589 496.192 341.453C495.135 341.265 494.011 340.918 493.048 340.316C492.847 340.65 492.66 340.985 492.472 341.306C490.733 336.465 489.368 331.223 488.458 325.807C488.311 324.911 488.204 323.841 488.579 323.173C488.913 322.611 489.462 322.638 489.93 322.772C493.623 323.774 496.58 328.268 499.31 332.56C500.835 326.783 502.936 320.525 506.589 318.894C506.883 318.76 507.231 318.666 507.512 318.907C507.779 319.121 507.94 319.616 508.06 320.07C508.662 322.304 508.89 324.804 508.716 327.225C510.201 322.785 512.396 319.001 515.005 316.366C516.062 315.296 517.426 314.414 518.51 315.417C520.049 316.807 519.835 320.538 519.407 323.373V323.387Z" fill="white"/>
<path d="M517.467 322.865C516.691 327.973 515.928 333.082 515.165 338.176L518.831 337.695L518.778 337.615C518.122 336.518 516.543 336.278 515.62 337.214C514.403 338.444 512.382 338.912 510.763 339.34C508.877 339.835 506.95 340.102 505.01 340.169C503.163 340.236 501.317 340.156 499.484 339.942C497.651 339.728 495.684 339.527 494.051 338.591C493.115 338.056 491.857 338.364 491.308 339.313C491.108 339.647 490.92 339.968 490.733 340.303L494.399 340.784C493.449 338.123 492.62 335.435 491.937 332.694C491.308 330.193 490.479 327.465 490.345 324.871C490.318 324.604 490.318 324.336 490.358 324.069C489.288 324.416 489.034 324.644 489.582 324.764C489.73 324.951 490.532 325.179 490.76 325.312C491.643 325.847 492.379 326.556 493.075 327.305C494.827 329.19 496.192 331.41 497.57 333.563C498.48 334.994 500.782 334.807 501.237 333.082C502.146 329.658 503.096 326.074 505.023 323.052C505.384 322.477 505.786 321.942 506.294 321.474C506.495 321.287 506.829 321.113 506.99 320.926L507.284 320.766C506.308 320.258 505.933 320.284 506.174 320.859C506.12 321.22 506.388 321.795 506.468 322.183C506.562 322.731 506.642 323.293 506.682 323.855C506.776 324.978 506.762 326.101 506.696 327.225C506.562 329.591 509.934 329.805 510.643 327.759C511.793 324.403 513.412 321.1 515.807 318.439C516.182 318.011 516.878 317.062 517.493 316.981C517.038 317.048 517.333 316.781 517.4 317.289C517.426 317.57 517.574 317.851 517.627 318.131C517.895 319.656 517.707 321.327 517.493 322.838C517.333 323.922 517.761 324.978 518.898 325.312C519.835 325.58 521.213 324.978 521.374 323.908C521.722 321.488 522.069 318.88 521.374 316.5C520.678 314.12 518.591 312.301 516.035 313.264C513.72 314.133 511.967 316.647 510.643 318.626C508.984 321.113 507.766 323.868 506.789 326.69L510.736 327.225C510.884 324.497 510.897 320.873 509.572 318.399C508.248 315.925 505.491 316.874 503.752 318.399C500.019 321.675 498.627 327.412 497.396 332.012L501.063 331.53C499.31 328.776 497.517 325.887 495.122 323.627C493.382 321.983 489.796 319.348 487.468 321.421C486.291 322.477 486.251 324.149 486.438 325.593C486.666 327.385 487.04 329.164 487.428 330.915C488.244 334.619 489.288 338.257 490.559 341.814C491.121 343.378 493.315 343.873 494.225 342.295C494.413 341.961 494.6 341.626 494.801 341.306L492.058 342.028C494.025 343.164 496.192 343.499 498.413 343.793C500.795 344.1 503.19 344.261 505.585 344.127C507.98 343.993 510.375 343.632 512.663 342.95C514.737 342.335 516.945 341.586 518.484 340.008L515.326 339.607L515.379 339.687C516.182 341.038 518.778 340.998 519.045 339.206C519.808 334.098 520.571 328.99 521.347 323.895C521.507 322.812 521.079 321.755 519.942 321.421C518.992 321.153 517.641 321.755 517.467 322.825V322.865Z" fill="#1B1E24"/>
<path d="M464.742 366.936C457.912 367.465 451.439 371.487 447.945 377.387C443.762 384.451 444.093 393.804 448.302 400.868C449.785 403.342 451.717 405.577 454.1 407.204C455.887 408.421 457.912 409.281 459.977 409.943C464.941 411.543 470.447 412.02 475.331 410.168C477.542 409.321 479.554 408.025 481.486 406.636C483.538 405.154 485.536 403.553 487.151 401.595C490.871 397.098 492.327 390.893 491.255 385.165C490.182 379.437 486.648 374.252 481.857 370.931C477.065 367.598 470.367 366.526 464.543 366.936H464.755H464.742Z" fill="white"/>
<path d="M464.742 364.952C454.987 365.825 446.383 372.571 443.828 382.136C441.274 391.7 444.702 403.209 453.094 408.911C457.528 411.927 463.498 413.435 468.832 413.342C474.603 413.25 479.395 410.736 483.882 407.297C488.091 404.069 491.347 400.061 492.764 394.875C494.087 390.033 493.73 384.848 491.797 380.218C489.732 375.27 486 370.878 481.301 368.246C476.258 365.428 470.222 364.581 464.53 364.938C462.002 365.097 461.949 368.854 464.53 368.907H464.742C467.297 368.96 467.297 364.991 464.742 364.938H464.53V368.907C473.134 368.365 481.698 370.984 486.503 378.564C491.03 385.708 490.606 395.312 484.557 401.476C481.38 404.73 477.065 407.852 472.591 408.911C468.117 409.969 463.127 409.096 458.825 407.416C450.605 404.214 446.37 395.245 447.032 386.753C447.76 377.387 455.384 369.74 464.742 368.894C467.27 368.669 467.297 364.7 464.742 364.925V364.952Z" fill="#1B1E24"/>
<path d="M458.625 402.32C459.001 395.259 460.119 388.076 462.608 381.434L458.921 381.921C462.016 387.9 465.152 393.866 468.247 399.858C469.445 402.171 472.931 400.129 471.733 397.816C468.638 391.837 465.502 385.871 462.406 379.879C461.532 378.201 459.284 378.851 458.719 380.366C456.108 387.319 454.977 394.921 454.587 402.32C454.453 404.931 458.49 404.917 458.625 402.32Z" fill="#1B1E24"/>
<path d="M470.778 400.67C472.366 400.047 473.94 399.358 475.515 398.695C476.767 398.167 477.817 397.207 477.803 395.732C477.803 394.474 476.888 393.23 476.35 392.134C473.954 387.251 471.881 382.205 469.903 377.133L468.49 379.635C470.98 378.648 473.375 377.484 476 376.848C478.624 376.213 477.453 372.317 474.923 372.939C472.393 373.561 469.903 374.738 467.413 375.726C466.484 376.091 465.569 377.119 466 378.228C467.211 381.339 468.463 384.437 469.782 387.494C470.414 388.969 471.06 390.43 471.747 391.877C472.11 392.662 472.473 393.433 472.85 394.204C473.039 394.583 473.227 394.961 473.416 395.34L473.604 395.719C473.819 396.233 473.86 396.219 473.739 395.651L474.263 394.758C473.846 395.286 472.635 395.556 472.002 395.814C471.235 396.138 470.468 396.476 469.688 396.774C468.678 397.166 467.965 398.14 468.274 399.276C468.544 400.25 469.741 401.089 470.764 400.697L470.778 400.67Z" fill="#1B1E24"/>
<path d="M477.763 380.988C475.582 381.84 473.402 382.706 471.222 383.558C470.71 383.761 470.293 384.004 470.011 384.491C469.755 384.924 469.647 385.574 469.809 386.06C469.97 386.547 470.266 387.021 470.737 387.278C471.208 387.535 471.801 387.684 472.299 387.481C474.479 386.629 476.659 385.763 478.839 384.911C479.351 384.708 479.768 384.464 480.051 383.977C480.306 383.544 480.414 382.895 480.253 382.408C480.091 381.921 479.795 381.448 479.324 381.191C478.853 380.934 478.261 380.785 477.763 380.988Z" fill="#1B1E24"/>
<path d="M465.394 389.104C462.716 390.024 460.146 391.268 457.454 392.188C456.458 392.526 455.691 393.595 456.041 394.691C456.364 395.678 457.454 396.476 458.531 396.111C461.209 395.191 463.779 393.947 466.471 393.027C467.467 392.689 468.234 391.62 467.884 390.524C467.561 389.537 466.471 388.739 465.394 389.104Z" fill="#1B1E24"/>
<path d="M492.979 394.596C492.899 397.667 493.033 400.751 493.41 403.808C493.531 404.741 493.693 405.729 494.339 406.392C495.039 407.109 496.142 407.122 497.111 407.339C502.266 408.489 505.873 408.421 510.61 408.245C513.934 408.123 518.08 407.298 521.04 405.783C521.498 405.553 521.956 405.269 522.211 404.823C522.48 404.349 522.467 403.781 522.467 403.24C522.4 399.966 522.319 396.679 522.252 393.406" fill="white"/>
<path d="M490.961 394.596C490.893 397.477 491.001 400.359 491.324 403.226C491.566 405.35 491.93 407.515 494.016 408.597C495.119 409.178 496.506 409.287 497.703 409.517C498.901 409.747 500.139 409.936 501.364 410.085C503.679 410.355 506.007 410.396 508.336 410.328C512.965 410.22 517.676 409.719 521.875 407.609C524.27 406.405 524.526 404.498 524.472 402.05C524.405 399.155 524.338 396.26 524.27 393.379C524.217 390.768 520.179 390.768 520.233 393.379C520.287 395.692 520.341 398.005 520.394 400.318C520.421 401.265 520.65 402.482 520.462 403.416C520.367 403.903 520.489 403.673 520.206 403.916C519.95 404.133 519.547 404.255 519.237 404.39C515.778 405.864 512.037 406.175 508.336 406.27C504.634 406.365 500.826 405.959 497.017 405.242C496.277 405.107 495.873 405.147 495.577 404.444C495.213 403.605 495.281 402.388 495.2 401.495C494.998 399.195 494.944 396.882 494.998 394.583C495.065 391.972 491.028 391.972 490.961 394.583V394.596Z" fill="#1B1E24"/>
<path d="M492.549 384.938C492.468 388.008 492.602 391.093 492.979 394.15C493.1 395.083 493.262 396.071 493.908 396.733C494.608 397.45 495.711 397.464 496.68 397.68C501.835 398.83 505.442 398.762 510.179 398.587C513.504 398.465 517.649 397.64 520.61 396.125C521.067 395.895 521.525 395.611 521.781 395.164C522.05 394.691 522.036 394.123 522.036 393.582C521.969 390.308 521.888 387.021 521.821 383.747" fill="white"/>
<path d="M490.53 384.938C490.463 387.819 490.57 390.701 490.893 393.568C491.136 395.692 491.499 397.856 493.585 398.939C494.689 399.52 496.075 399.628 497.273 399.858C498.47 400.088 499.709 400.278 500.933 400.427C503.248 400.697 505.577 400.738 507.905 400.67C512.535 400.562 517.245 400.061 521.444 397.951C523.84 396.747 524.095 394.84 524.042 392.391C523.974 389.497 523.907 386.602 523.84 383.721C523.786 381.11 519.748 381.11 519.802 383.721C519.856 386.034 519.91 388.347 519.964 390.66C519.991 391.607 520.219 392.824 520.031 393.758C519.937 394.245 520.058 394.015 519.775 394.258C519.52 394.475 519.116 394.596 518.806 394.732C515.347 396.206 511.606 396.517 507.905 396.612C504.204 396.707 500.395 396.301 496.586 395.584C495.846 395.449 495.442 395.489 495.146 394.786C494.783 393.947 494.85 392.73 494.769 391.837C494.567 389.537 494.514 387.224 494.567 384.924C494.635 382.314 490.597 382.314 490.53 384.924V384.938Z" fill="#1B1E24"/>
<path d="M491.499 372.479C491.391 376.213 491.633 379.96 492.226 383.653C492.32 384.221 492.427 384.829 492.818 385.262C493.235 385.736 493.881 385.898 494.487 386.033C502.683 387.887 511.323 387.67 519.412 385.411C520.085 385.222 520.771 385.005 521.242 384.491C521.834 383.842 521.915 382.882 521.955 381.989C522.104 378.566 522.09 375.131 521.902 371.722" fill="white"/>
<path d="M489.48 372.479C489.413 375.239 489.507 377.985 489.817 380.731C490.059 382.949 490.018 385.979 492.145 387.319C494.164 388.577 497.259 388.671 499.561 388.955C502.118 389.267 504.702 389.375 507.272 389.307C509.843 389.239 512.4 388.955 514.917 388.523C517.164 388.144 520.004 387.833 521.956 386.548C524.069 385.154 523.988 382.462 524.042 380.203C524.109 377.376 524.069 374.563 523.92 371.749C523.786 369.152 519.748 369.138 519.883 371.749C519.991 373.967 520.058 376.186 520.031 378.391C520.031 379.5 519.991 380.609 519.95 381.718C519.91 382.557 519.977 382.963 519.277 383.369C518.577 383.774 517.433 383.869 516.653 384.045C515.63 384.275 514.594 384.478 513.571 384.654C511.485 385.005 509.385 385.181 507.272 385.249C503.1 385.371 499.103 384.857 495.025 384.099C494.11 383.923 494.218 383.463 494.083 382.544C493.908 381.367 493.787 380.176 493.693 378.972C493.518 376.808 493.477 374.644 493.531 372.479C493.598 369.869 489.561 369.869 489.494 372.479H489.48Z" fill="#1B1E24"/>
<path d="M511.445 366.446C511.445 366.446 511.539 366.46 511.579 366.46C511.539 366.46 511.485 366.446 511.445 366.446C505.873 365.81 500.153 366.717 495.065 369.043C493.666 369.679 492.158 370.626 491.903 372.155C491.714 373.291 492.333 374.454 493.222 375.185C494.11 375.915 495.24 376.28 496.357 376.551C501.781 377.877 507.461 377.254 513.033 377.038C515.065 376.957 517.178 376.903 519.008 375.996C520.825 375.077 522.265 373.007 521.727 371.032C521.215 369.138 519.224 368.097 517.353 367.515C515.482 366.933 513.531 366.581 511.579 366.46" fill="white"/>
<path d="M511.444 368.475H511.579C514.163 368.746 514.15 364.688 511.579 364.431C506.115 363.876 500.583 364.566 495.496 366.663C493.316 367.555 490.799 368.732 490.059 371.208C489.319 373.683 490.839 376.253 493.02 377.471C495.442 378.824 498.578 379.121 501.297 379.297C504.271 379.5 507.259 379.338 510.233 379.189C515.038 378.945 522.184 379.243 523.678 373.25C525.361 366.514 516.209 364.755 511.566 364.417C508.968 364.228 508.982 368.286 511.566 368.475C513.854 368.638 516.707 368.976 518.672 370.288C520.462 371.478 519.735 373.386 517.985 374.238C515.724 375.334 512.669 375.009 510.233 375.131C507.622 375.266 505.011 375.401 502.4 375.306C500.045 375.212 497.165 375.117 495.052 373.967C492.253 372.452 495.536 370.978 497.044 370.369C501.7 368.502 506.613 367.975 511.579 368.475C514.163 368.732 514.15 364.674 511.579 364.417H511.444C508.86 364.147 508.874 368.205 511.444 368.462V368.475Z" fill="#1B1E24"/>
<path d="M522.252 404.552C521.727 405.593 520.542 406.121 519.425 406.446C517.743 406.906 515.993 407.095 514.257 406.987C515.832 405.81 516.639 403.7 516.249 401.765C515.872 399.844 514.298 398.194 512.4 397.734C514.567 396.76 516.034 394.42 515.967 392.039C515.886 389.659 514.284 387.413 512.077 386.574C514.244 385.343 515.428 382.611 514.863 380.176C514.405 378.296 513.194 377.525 511.498 377.214C513.611 376.875 515.576 374.319 515.913 372.046C516.263 369.652 514.54 367.109 512.279 366.554C514.944 366.717 517.743 367.231 519.493 369.192C520.542 370.369 521.04 371.952 521.336 373.507C521.808 375.888 521.902 378.336 521.982 380.771C522.238 387.941 522.44 395.123 522.561 402.306C522.575 403.064 522.588 403.862 522.252 404.552Z" fill="#1B1E24"/>
<path d="M520.515 403.537C519.493 405.188 515.899 405.039 514.271 404.971L515.697 408.434C520.273 404.646 518.483 397.423 512.952 395.786L513.436 399.493C519.439 396.476 519.385 387.521 513.113 384.829V388.333C518.093 385.208 518.685 376.672 512.05 375.266V379.175C515.28 378.431 517.743 375.076 517.972 371.83C518.201 368.583 515.913 365.54 512.831 364.606L512.292 368.597C515.024 368.786 517.918 369.368 518.941 372.263C520.044 375.36 519.91 378.891 520.018 382.137C520.139 385.722 520.246 389.307 520.341 392.905C520.394 394.812 520.435 396.72 520.475 398.627C520.515 400.318 520.879 402.428 520.314 404.038C519.425 406.5 523.328 407.555 524.203 405.12C524.89 403.213 524.567 400.967 524.526 398.965C524.486 396.72 524.432 394.474 524.365 392.229C524.244 387.805 524.136 383.382 523.934 378.972C523.772 375.468 523.597 371.316 521.404 368.394C519.21 365.472 515.657 364.782 512.279 364.552C509.951 364.39 509.628 367.893 511.741 368.543C515.199 369.598 514.028 374.589 510.96 375.293C509.049 375.725 509.008 378.796 510.96 379.202C512.238 379.473 512.938 379.946 512.979 381.366C513.019 382.787 512.252 384.112 511.054 384.856C509.856 385.6 509.587 387.724 511.054 388.36C514.553 389.861 514.876 394.258 511.377 396.016C509.776 396.828 510.274 399.263 511.862 399.723C514.715 400.561 514.971 403.808 512.831 405.58C511.391 406.77 512.656 408.975 514.257 409.043C517.608 409.192 522.05 408.745 524.001 405.607C525.374 403.375 521.888 401.346 520.515 403.564V403.537Z" fill="#1B1E24"/>
<path fill-rule="evenodd" clip-rule="evenodd" d="M559.842 324.932C559.119 324.522 556.951 324.393 552.484 324.436C544.403 324.522 538.814 325.202 536.149 326.379C534.304 327.189 534.12 327.372 534.703 327.955C535.739 328.991 540.346 329.218 549.236 328.678C555.332 328.322 557.717 327.998 558.936 327.415C560.921 326.422 561.191 325.699 559.842 324.932Z" fill="#5F44FF"/>
<path fill-rule="evenodd" clip-rule="evenodd" d="M542.87 290.259C541.565 290.259 538.943 292.429 532.987 298.431C527.485 304.033 525.446 306.97 526.492 308.006C526.848 308.362 527.399 308.276 528.294 307.822C530.279 306.873 539.483 298.118 541.738 295.041C543.809 292.246 544.262 290.259 542.87 290.259Z" fill="#5F44FF"/>
<path fill-rule="evenodd" clip-rule="evenodd" d="M508.614 283.707C508.474 283.254 508.075 282.358 507.708 281.807C507.028 280.814 506.942 280.771 506.176 281.494C504.914 282.628 504.687 285.65 505.27 293.142C506.079 303.937 506.219 304.746 506.985 305.016C508.658 305.653 508.927 304.023 508.884 294.135C508.841 288.899 508.701 284.204 508.614 283.707Z" fill="#5F44FF"/>
<path fill-rule="evenodd" clip-rule="evenodd" d="M484.921 304.347C483.702 302.177 475.621 293.055 473.236 291.112C472.33 290.389 471.024 289.806 470.388 289.806C468.672 289.806 468.856 291.652 470.744 294.275C473.042 297.395 481.846 305.793 483.562 306.463C485.687 307.369 486.129 306.646 484.91 304.336L484.921 304.347Z" fill="#5F44FF"/>
<path fill-rule="evenodd" clip-rule="evenodd" d="M471.154 326.336C469.805 325.116 469.438 325.03 464.206 324.35C454.409 323.043 448 323.669 448 325.882C448 327.642 449.403 327.869 463.386 328.408C469.298 328.635 470.064 328.592 470.97 327.869C471.963 327.059 471.963 327.016 471.154 326.336Z" fill="#5F44FF"/>
<path d="M146.133 385.829C159.555 386.063 162.987 385.906 176.409 386.14C178.9 386.181 178.822 382.299 176.331 382.258C162.908 382.024 159.477 382.181 146.054 381.947C143.564 381.906 143.642 385.788 146.133 385.829Z" fill="#CED3D8"/>
<path d="M165.504 375.619L169.751 380.207L171.875 382.507C172.376 383.053 173.518 383.988 173.709 384.528C173.64 384.322 173.873 384.344 173.643 384.465C173.605 384.491 173.392 384.78 173.354 384.833C173.039 385.202 172.684 385.533 172.343 385.889C171.636 386.628 170.915 387.355 170.207 388.094C168.741 389.612 167.275 391.117 165.796 392.636C164.052 394.432 166.854 397.12 168.586 395.324C170.317 393.529 171.973 391.838 173.654 390.096C175.158 388.538 177.713 386.687 177.535 384.257C177.445 382.99 176.678 382.047 175.873 381.158C175.068 380.268 174.185 379.34 173.354 378.438L168.183 372.821C166.482 370.991 163.816 373.789 165.504 375.619Z" fill="#CED3D8"/>
<path d="M380.133 385.829C393.555 386.063 396.987 385.906 410.409 386.14C412.9 386.181 412.822 382.299 410.331 382.258C396.908 382.024 393.477 382.181 380.054 381.947C377.564 381.906 377.642 385.788 380.133 385.829Z" fill="#CED3D8"/>
<path d="M399.504 375.619L403.751 380.207L405.875 382.507C406.376 383.053 407.518 383.988 407.709 384.528C407.64 384.322 407.873 384.344 407.643 384.465C407.605 384.491 407.392 384.78 407.354 384.833C407.039 385.202 406.684 385.533 406.343 385.889C405.636 386.628 404.915 387.355 404.207 388.094C402.741 389.612 401.275 391.117 399.796 392.636C398.052 394.432 400.854 397.12 402.586 395.324C404.317 393.529 405.973 391.838 407.654 390.096C409.158 388.538 411.713 386.687 411.535 384.257C411.445 382.99 410.678 382.047 409.873 381.158C409.068 380.268 408.185 379.34 407.354 378.438L402.183 372.821C400.482 370.991 397.816 373.789 399.504 375.619Z" fill="#CED3D8"/>
<path d="M72.8258 336.082C77.6758 336.512 82.4658 338.152 86.7758 341.202C96.2958 347.932 99.9258 360.902 98.0158 372.022C96.4058 381.392 90.6958 389.612 81.6958 393.442C70.0058 398.412 55.3858 395.802 46.5658 387.082C42.0058 382.572 39.4558 376.512 38.6258 370.182C38.1758 366.712 38.4258 363.172 39.2458 359.782C42.9458 344.562 58.1258 334.782 72.8158 336.092L72.8258 336.082Z" fill="white"/>
<path d="M72.8269 338.582C79.0669 339.182 85.0769 342.062 89.2469 346.772C92.8269 350.812 94.8769 356.072 95.6869 361.362C97.3269 372.072 93.2969 383.852 83.7369 389.602C74.1769 395.352 60.9269 394.452 51.7269 388.132C41.3069 380.972 38.1069 366.192 43.6069 355.002C49.1069 343.812 60.8369 337.582 72.8369 338.582C74.1869 338.692 75.3369 337.352 75.3369 336.082C75.3369 334.632 74.1869 333.692 72.8369 333.582C60.3969 332.542 47.9069 338.872 41.1069 349.282C33.1169 361.512 34.4869 379.192 45.3269 389.342C54.8869 398.302 69.9169 400.912 82.0269 395.992C94.1369 391.072 101.507 378.052 100.997 364.792C100.747 358.382 98.9469 351.882 95.3469 346.532C91.3669 340.622 85.3369 336.392 78.4569 334.542C76.6169 334.042 74.7369 333.762 72.8469 333.572C71.4969 333.442 70.3469 334.812 70.3469 336.072C70.3469 337.532 71.4969 338.442 72.8469 338.572L72.8269 338.582Z" fill="#1B1E24"/>
<path d="M73.8559 350.322C68.6559 349.432 61.9059 350.872 59.8459 356.372C59.0759 358.432 59.2159 360.852 60.3459 362.762C61.6659 365.002 63.9759 365.922 66.4059 366.472C69.1259 367.092 71.9459 367.252 74.5959 368.162C75.9659 368.632 76.9259 369.742 77.3059 371.032C77.7359 372.462 77.6259 373.892 76.8959 375.132C76.1659 376.372 74.5059 377.302 72.8359 377.792C68.5359 379.052 63.0059 378.242 59.6159 375.252C58.6059 374.362 57.0759 374.252 56.0759 375.252C55.1659 376.162 55.0559 377.892 56.0759 378.792C59.7259 382.012 64.7259 383.512 69.5559 383.332C74.0659 383.162 79.4259 381.442 81.5159 377.062C83.3959 373.122 82.6059 368.002 79.1759 365.142C77.0559 363.372 74.3259 362.822 71.6659 362.372C70.3459 362.142 69.0259 361.962 67.7159 361.662C67.0359 361.512 66.3159 361.362 65.6759 361.092C65.5759 361.052 65.0059 360.682 64.9859 360.662C64.4959 360.222 64.3659 359.742 64.3459 359.032C64.3359 358.542 64.6459 357.642 65.0759 357.132C66.7559 355.162 70.0959 354.742 72.5159 355.162C73.8459 355.392 75.2059 354.812 75.5959 353.412C75.9259 352.212 75.1859 350.562 73.8459 350.332L73.8559 350.322Z" fill="#1B1E24"/>
<path d="M53.8568 360.062C53.1268 361.922 51.4768 362.902 49.9568 362.432C48.4368 361.962 47.6468 360.242 48.3668 358.382C49.0968 356.522 50.9068 355.382 52.4268 355.852C53.9368 356.312 54.5768 358.202 53.8568 360.062Z" fill="#1B1E24" stroke="#1B1E24" stroke-miterlimit="10"/>
<path d="M88.6654 360.062C87.9354 361.922 86.2854 362.902 84.7654 362.432C83.2454 361.962 82.4554 360.242 83.1754 358.382C83.9054 356.522 85.7154 355.382 87.2354 355.852C88.7554 356.322 89.3854 358.202 88.6654 360.062Z" fill="#1B1E24" stroke="#1B1E24" stroke-miterlimit="10"/>
<path d="M66.7569 314.502C66.8469 318.082 66.7169 321.672 66.8569 325.252C66.9069 326.562 67.9669 327.812 69.3569 327.752C70.6669 327.692 71.9069 326.652 71.8569 325.252C71.7169 321.672 71.8569 318.082 71.7569 314.502C71.7269 313.192 70.6269 311.942 69.2569 312.002C67.8869 312.062 66.7169 313.102 66.7569 314.502Z" fill="#1B1E24"/>
<path d="M52.6951 323.592C54.0151 325.362 55.4151 327.062 56.9051 328.692C57.3251 329.152 58.0551 329.422 58.6751 329.422C59.2951 329.422 60.0251 329.152 60.4451 328.692C60.8651 328.232 61.2051 327.592 61.1751 326.922C61.1451 326.252 60.9051 325.662 60.4451 325.152C59.3651 323.982 58.3251 322.772 57.3551 321.512L57.7451 322.022C57.4951 321.702 57.2551 321.382 57.0151 321.062C56.8551 320.772 56.6451 320.532 56.3751 320.362C56.1351 320.142 55.8551 319.992 55.5251 319.912C54.9251 319.752 54.1251 319.822 53.5951 320.162C53.0651 320.502 52.5951 321.022 52.4451 321.652C52.2951 322.282 52.3051 323.052 52.6951 323.582V323.592Z" fill="#1B1E24"/>
<path d="M81.4256 321.062C81.1956 321.372 80.9556 321.682 80.7156 321.992L81.1056 321.482C80.1256 322.752 79.0756 323.962 77.9956 325.142C77.5456 325.622 77.2656 326.242 77.2656 326.912C77.2656 327.522 77.5356 328.262 77.9956 328.682C78.4556 329.102 79.0956 329.442 79.7656 329.412C80.4356 329.382 81.0856 329.172 81.5356 328.682C83.0356 327.052 84.4256 325.352 85.7456 323.582C86.1056 323.092 86.1556 322.212 85.9956 321.652C85.8356 321.092 85.3856 320.442 84.8456 320.162C84.2656 319.852 83.5656 319.702 82.9156 319.912L82.3156 320.162C81.9356 320.382 81.6456 320.682 81.4156 321.062H81.4256Z" fill="#1B1E24"/>
<path d="M34.2778 367.857C30.6074 366.717 26.3837 366.683 22.5778 367.202C11.081 368.76 3.13044 379.084 2.87069 390.447C2.8481 391.496 2.89328 392.546 2.99492 393.584C3.32243 396.63 4.19203 399.643 5.77311 402.272C6.95892 404.247 8.52871 405.973 10.2227 407.53C14.2997 411.277 19.4156 414.199 24.9494 414.572C27.4678 414.741 29.9863 414.38 32.4596 413.906C35.1022 413.387 37.7449 412.721 40.173 411.559C45.7633 408.873 49.9418 403.525 51.4439 397.51C54.6512 384.726 46.4973 371.659 34.2778 367.857Z" fill="#1DCBC7"/>
<path d="M34.753 366.119C24.5098 363.084 12.9905 366.3 6.48547 374.83C-0.0195678 383.361 -1.14891 396.123 5.32224 404.811C8.75545 409.404 13.6907 413.184 19.1003 415.147C24.9729 417.268 31.5118 416.366 37.3618 414.56C47.8082 411.333 54.5956 401.234 53.9067 390.345C53.2178 379.457 45.335 369.504 34.753 366.119C32.5395 365.408 31.5908 368.884 33.7931 369.595C41.7888 372.156 48.0115 378.96 49.8298 387.152C51.761 395.829 47.9889 405.353 40.0045 409.607C37.6554 410.859 35.0579 411.525 32.4604 412.055C29.6258 412.631 26.6895 413.071 23.7983 412.642C18.8066 411.909 14.3231 409.031 10.7657 405.567C6.84686 401.753 4.76886 396.958 4.65593 391.485C4.57687 387.31 5.61587 383.135 7.68257 379.49C9.95256 375.507 13.3971 372.235 17.6321 370.396C22.5448 368.263 28.6884 368.06 33.7818 369.572C36.0066 370.238 36.9552 366.762 34.7417 366.097L34.753 366.119Z" fill="#1B1E24"/>
<path d="M34.753 366.119C24.5098 363.084 12.9905 366.3 6.48547 374.83C-0.0195679 383.361 -1.14891 396.123 5.32224 404.811C8.75545 409.404 13.6907 413.184 19.1003 415.147C24.9729 417.268 31.5118 416.366 37.3618 414.56C47.8082 411.333 54.5956 401.234 53.9067 390.345C53.2178 379.457 45.335 369.504 34.753 366.119ZM34.753 366.119C32.5395 365.408 31.5908 368.884 33.7931 369.595C41.7888 372.156 48.0115 378.96 49.8298 387.152C51.761 395.829 47.9889 405.353 40.0045 409.607C37.6554 410.859 35.0579 411.525 32.4604 412.055C29.6258 412.631 26.6895 413.071 23.7983 412.642C18.8066 411.909 14.3231 409.031 10.7657 405.567C6.84686 401.753 4.76886 396.958 4.65593 391.485C4.57687 387.31 5.61587 383.135 7.68257 379.49C9.95256 375.507 13.3971 372.235 17.6321 370.396C22.5448 368.263 28.6884 368.06 33.7818 369.572C36.0066 370.238 36.9552 366.762 34.7417 366.097L34.753 366.119Z" stroke="#1B1E24"/>
<path d="M12.5958 400.061C16.0403 393.528 20.2076 387.175 25.493 381.973L22.4211 380.698C22.7599 387.705 23.1439 394.701 23.4714 401.708C23.5844 404.01 27.187 404.033 27.0741 401.708C26.7352 394.701 26.3513 387.705 26.0238 380.698C25.956 379.164 24.0926 378.295 22.9519 379.423C17.4633 384.828 13.0702 391.452 9.49013 398.233C8.40596 400.287 11.523 402.103 12.5958 400.05V400.061Z" fill="#1B1E24"/>
<path d="M25.56 403.502C27.3104 403.604 29.1061 403.717 30.8566 403.706C32.1553 403.706 33.4428 403.119 33.8494 401.799C34.2333 400.557 33.9284 399.012 33.9058 397.725C33.7929 392.095 34.0188 386.464 34.3463 380.845L32.5393 382.65C35.1707 382.797 37.8021 382.729 40.3996 383.237C42.6695 383.688 43.6295 380.213 41.3595 379.761C38.4345 379.186 35.4982 379.209 32.5393 379.039C31.5229 378.983 30.7888 379.908 30.7324 380.845C30.5291 384.264 30.371 387.671 30.3032 391.102C30.2693 392.794 30.258 394.487 30.2693 396.191C30.2693 397.026 30.2919 397.861 30.3145 398.684C30.3371 399.35 30.5517 400.388 30.3145 400.986L30.7775 400.196C30.9356 400.016 30.8453 400.151 30.5743 400.106C30.3936 400.072 30.1903 400.084 30.0096 400.072C29.5014 400.05 28.9932 400.038 28.485 400.016C27.5137 399.982 26.5312 399.971 25.56 399.903C23.2448 399.768 23.2561 403.367 25.56 403.502Z" fill="#1B1E24"/>
<path d="M40.0718 389.307C34.9559 389.194 29.8399 389.082 24.7353 388.969C22.4201 388.924 22.4201 392.523 24.7353 392.568C29.8512 392.681 34.9672 392.794 40.0718 392.907C42.387 392.952 42.387 389.352 40.0718 389.307Z" fill="#1B1E24"/>
<path d="M24.8035 390.21C21.8559 389.905 18.8744 389.951 15.9268 389.646C14.9894 389.544 14.086 390.537 14.1199 391.451C14.165 392.512 14.9104 393.144 15.9268 393.257C18.8744 393.561 21.8559 393.516 24.8035 393.821C25.7408 393.922 26.6443 392.929 26.6104 392.015C26.5652 390.955 25.8199 390.323 24.8035 390.21Z" fill="#1B1E24"/>
<g filter="url(#filter0_d_8440_5622)">
<rect x="207" y="45" width="144.864" height="68.3663" rx="10" fill="#1B1E24"/>
</g>
<path d="M245.431 86.4927C244.111 86.4927 242.93 86.214 241.889 85.6567C240.862 85.0847 240.063 84.2927 239.491 83.2807C238.919 82.2687 238.633 81.1173 238.633 79.8267V69.9707H241.273V79.8047C241.273 80.6553 241.441 81.4033 241.779 82.0487C242.131 82.6793 242.622 83.1707 243.253 83.5227C243.883 83.8747 244.609 84.0507 245.431 84.0507C246.252 84.0507 246.971 83.8747 247.587 83.5227C248.217 83.1707 248.701 82.6793 249.039 82.0487C249.391 81.4033 249.567 80.6553 249.567 79.8047V69.9707H252.207V79.8267C252.207 81.1173 251.921 82.2687 251.349 83.2807C250.777 84.2927 249.97 85.0847 248.929 85.6567C247.902 86.214 246.736 86.4927 245.431 86.4927ZM262.808 80.0467C262.808 79.0493 262.573 78.272 262.104 77.7147C261.635 77.1573 260.967 76.8787 260.102 76.8787C259.574 76.8787 259.09 77.018 258.65 77.2967C258.225 77.5607 257.887 77.9347 257.638 78.4187C257.389 78.888 257.271 79.4307 257.286 80.0467V86.3387H254.646V74.6567H257.286V76.6147C257.609 76.0573 258.056 75.6027 258.628 75.2507C259.215 74.8987 259.816 74.7227 260.432 74.7227C261.283 74.7227 262.082 74.8913 262.83 75.2287C263.593 75.566 264.216 76.1307 264.7 76.9227C265.199 77.7 265.448 78.7193 265.448 79.9807V86.3387H262.808V80.0467ZM268.827 82.9287C269.165 83.354 269.568 83.6913 270.037 83.9407C270.507 84.19 270.961 84.322 271.401 84.3367C271.988 84.3367 272.465 84.2047 272.831 83.9407C273.198 83.6767 273.389 83.3247 273.403 82.8847C273.403 82.6793 273.315 82.5033 273.139 82.3567C272.963 82.1953 272.729 82.0633 272.435 81.9607C272.157 81.8433 271.805 81.7113 271.379 81.5647C270.558 81.3007 269.876 81.044 269.333 80.7947C268.805 80.5307 268.351 80.164 267.969 79.6947C267.588 79.2253 267.405 78.6387 267.419 77.9347C267.419 77.26 267.603 76.666 267.969 76.1527C268.351 75.6393 268.871 75.2433 269.531 74.9647C270.206 74.686 270.954 74.554 271.775 74.5687C272.479 74.5833 273.183 74.7593 273.887 75.0967C274.591 75.434 275.156 75.8813 275.581 76.4387L273.821 77.9127C273.557 77.546 273.227 77.26 272.831 77.0547C272.45 76.8493 272.076 76.7467 271.709 76.7467C271.225 76.732 270.829 76.8347 270.521 77.0547C270.213 77.2747 270.059 77.568 270.059 77.9347C270.059 78.1547 270.147 78.3453 270.323 78.5067C270.499 78.668 270.734 78.8147 271.027 78.9467C271.335 79.064 271.709 79.1887 272.149 79.3207C272.956 79.5847 273.616 79.8487 274.129 80.1127C274.657 80.362 275.112 80.7213 275.493 81.1907C275.875 81.6453 276.058 82.2247 276.043 82.9287C276.029 83.6327 275.816 84.2633 275.405 84.8207C275.009 85.3633 274.459 85.7887 273.755 86.0967C273.051 86.39 272.245 86.522 271.335 86.4927C270.573 86.478 269.788 86.2873 268.981 85.9207C268.189 85.5393 267.544 85.026 267.045 84.3807L268.827 82.9287ZM284.392 85.8987C284.07 86.0453 283.754 86.1553 283.446 86.2287C283.153 86.302 282.757 86.3387 282.258 86.3387C281.584 86.3387 280.982 86.1847 280.454 85.8767C279.926 85.554 279.516 85.114 279.222 84.5567C278.929 83.9847 278.782 83.3467 278.782 82.6427V71.5327H281.422V82.6427C281.422 83.0387 281.518 83.3687 281.708 83.6327C281.914 83.8967 282.178 84.036 282.5 84.0507C282.823 84.08 283.219 83.9773 283.688 83.7427L283.71 83.7207L284.568 85.8107L284.392 85.8987ZM276.736 74.8107H284.348V77.0767H276.736V74.8107ZM291.177 84.2707C291.749 84.2707 292.285 84.1093 292.783 83.7867C293.282 83.464 293.678 83.0167 293.971 82.4447C294.265 81.8727 294.411 81.242 294.411 80.5527C294.411 79.8633 294.265 79.24 293.971 78.6827C293.678 78.1107 293.282 77.6633 292.783 77.3407C292.285 77.018 291.749 76.8567 291.177 76.8567C290.561 76.8567 290.019 77.0107 289.549 77.3187C289.08 77.612 288.713 78.0447 288.449 78.6167C288.2 79.174 288.075 79.8193 288.075 80.5527C288.075 81.3007 288.2 81.9533 288.449 82.5107C288.713 83.068 289.08 83.5007 289.549 83.8087C290.019 84.1167 290.561 84.2707 291.177 84.2707ZM297.051 86.3387H294.411V84.6007C294.103 85.0113 293.759 85.3487 293.377 85.6127C293.011 85.8767 292.622 86.0747 292.211 86.2067C291.801 86.3533 291.383 86.4267 290.957 86.4267C289.887 86.4267 288.933 86.1773 288.097 85.6787C287.261 85.18 286.609 84.4907 286.139 83.6107C285.67 82.716 285.435 81.6967 285.435 80.5527C285.435 79.4233 285.67 78.4187 286.139 77.5387C286.609 76.644 287.261 75.9473 288.097 75.4487C288.933 74.95 289.887 74.7007 290.957 74.7007C291.603 74.7007 292.226 74.8547 292.827 75.1627C293.443 75.4707 293.971 75.9253 294.411 76.5267V74.6567H297.051V86.3387ZM301.978 79.4967L306.158 74.6567H309.7L305.146 79.8707L309.546 86.3387H306.378L303.232 81.7847L301.978 83.3247V86.3387H299.338V69.9707H301.978V79.4967ZM318.551 79.5407C318.477 79.0713 318.323 78.6313 318.089 78.2207C317.854 77.81 317.531 77.4727 317.121 77.2087C316.71 76.9447 316.211 76.8127 315.625 76.8127C315.097 76.8127 314.605 76.9373 314.151 77.1867C313.696 77.4213 313.322 77.7513 313.029 78.1767C312.735 78.5873 312.545 79.042 312.457 79.5407H318.551ZM320.465 77.8027C320.743 78.4187 320.897 79.0347 320.927 79.6507C320.971 80.2667 320.978 80.8167 320.949 81.3007V81.4767H312.457C312.545 82.0047 312.743 82.4813 313.051 82.9067C313.373 83.3173 313.755 83.64 314.195 83.8747C314.649 84.0947 315.126 84.2047 315.625 84.2047C316.431 84.2047 317.04 84.0653 317.451 83.7867C317.876 83.508 318.184 83.2293 318.375 82.9507L318.397 82.9067L320.531 83.8087C320.179 84.5273 319.585 85.136 318.749 85.6347C317.913 86.1333 316.864 86.3827 315.603 86.3827C314.517 86.3827 313.549 86.1407 312.699 85.6567C311.848 85.158 311.181 84.4687 310.697 83.5887C310.227 82.694 309.993 81.6747 309.993 80.5307C309.993 79.3867 310.227 78.3747 310.697 77.4947C311.181 76.6 311.848 75.9033 312.699 75.4047C313.549 74.906 314.517 74.6567 315.603 74.6567C316.673 74.6567 317.561 74.8767 318.265 75.3167C318.983 75.742 319.504 76.1967 319.827 76.6807C320.149 77.15 320.362 77.524 320.465 77.8027Z" fill="#FCFEFF"/>
<g filter="url(#filter1_d_8440_5622)">
<path d="M344.149 124.44L325.29 94.8473C324.826 94.1194 325.434 93.1182 326.272 93.2312L357.268 97.4104C358.085 97.5205 358.361 98.5953 357.724 99.1852L347.61 108.551C347.414 108.734 347.289 108.987 347.265 109.257L345.933 123.893C345.845 124.862 344.651 125.228 344.149 124.44Z" fill="white"/>
<path d="M323.658 96.0442L342.517 125.637C344.024 128.002 347.607 126.904 347.871 123.996L349.164 109.781L358.971 100.699C360.882 98.9296 360.052 95.7054 357.601 95.3749L326.606 91.1957C324.092 90.8569 322.266 93.8605 323.658 96.0442Z" stroke="#1B1E24" stroke-width="4" stroke-linecap="square"/>
</g>
<path fill-rule="evenodd" clip-rule="evenodd" d="M385.143 69.0357C384.844 68.4882 383.507 67.5793 380.629 65.9138C375.419 62.9061 371.568 61.2395 369.391 61.0127C367.886 60.8525 367.695 60.9052 367.835 61.5146C368.085 62.5981 370.945 64.4966 376.854 67.5091C380.9 69.5839 382.557 70.2725 383.57 70.3465C385.239 70.4377 385.7 70.058 385.143 69.0357Z" fill="#5F44FF"/>
<path fill-rule="evenodd" clip-rule="evenodd" d="M387.53 40.1345C386.705 39.6485 384.193 40.0914 378.063 41.7992C372.377 43.4145 369.931 44.5755 370.184 45.6427C370.269 46.0082 370.65 46.1566 371.395 46.1934C373.024 46.3113 382.291 44.0123 384.929 42.8399C387.341 41.7828 388.41 40.6526 387.53 40.1345Z" fill="#5F44FF"/>
<path fill-rule="evenodd" clip-rule="evenodd" d="M367.995 22.9233C368.084 22.579 368.183 21.8537 368.168 21.3633C368.131 20.4721 368.094 20.4125 367.339 20.598C366.117 20.8659 364.807 22.7346 362.269 27.7867C358.593 35.0554 358.367 35.6298 358.738 36.0856C359.529 37.1116 360.327 36.1581 364.127 29.7567C366.126 26.3598 367.857 23.2757 367.995 22.9233Z" fill="#5F44FF"/>
<path fill-rule="evenodd" clip-rule="evenodd" d="M344.697 27.1493C344.782 25.2767 343.271 16.3046 342.53 14.1465C342.242 13.3363 341.647 12.4692 341.245 12.2323C340.161 11.5937 339.549 12.869 339.708 15.2869C339.931 18.1822 342.184 26.9505 343.004 28.0267C343.99 29.4107 344.554 29.1025 344.694 27.1382L344.697 27.1493Z" fill="#5F44FF"/>
<path fill-rule="evenodd" clip-rule="evenodd" d="M327.525 35.9894C327.149 34.6668 326.948 34.4704 323.871 32.0359C318.123 27.4562 313.772 25.4454 312.888 26.918C312.186 28.0889 312.993 28.771 321.726 34.4263C325.419 36.8165 325.927 37.078 326.795 36.9399C327.754 36.7772 327.771 36.7484 327.525 35.9894Z" fill="#5F44FF"/>
<defs>
<filter id="filter0_d_8440_5622" x="204" y="43" width="150.864" height="74.3665" filterUnits="userSpaceOnUse" color-interpolation-filters="sRGB">
<feFlood flood-opacity="0" result="BackgroundImageFix"/>
<feColorMatrix in="SourceAlpha" type="matrix" values="0 0 0 0 0 0 0 0 0 0 0 0 0 0 0 0 0 0 127 0" result="hardAlpha"/>
<feOffset dy="1"/>
<feGaussianBlur stdDeviation="1.5"/>
<feComposite in2="hardAlpha" operator="out"/>
<feColorMatrix type="matrix" values="0 0 0 0 0.557762 0 0 0 0 0.580846 0 0 0 0 0.662687 0 0 0 0.15 0"/>
<feBlend mode="normal" in2="BackgroundImageFix" result="effect1_dropShadow_8440_5622"/>
<feBlend mode="normal" in="SourceGraphic" in2="effect1_dropShadow_8440_5622" result="shape"/>
</filter>
<filter id="filter1_d_8440_5622" x="317.225" y="86.1165" width="48.7473" height="47.8623" filterUnits="userSpaceOnUse" color-interpolation-filters="sRGB">
<feFlood flood-opacity="0" result="BackgroundImageFix"/>
<feColorMatrix in="SourceAlpha" type="matrix" values="0 0 0 0 0 0 0 0 0 0 0 0 0 0 0 0 0 0 127 0" result="hardAlpha"/>
<feOffset dy="1"/>
<feGaussianBlur stdDeviation="2"/>
<feColorMatrix type="matrix" values="0 0 0 0 0 0 0 0 0 0 0 0 0 0 0 0 0 0 0.35 0"/>
<feBlend mode="normal" in2="BackgroundImageFix" result="effect1_dropShadow_8440_5622"/>
<feBlend mode="normal" in="SourceGraphic" in2="effect1_dropShadow_8440_5622" result="shape"/>
</filter>
</defs>
</svg>
