<svg width="504" height="422" viewBox="0 0 504 422" fill="none" xmlns="http://www.w3.org/2000/svg">
<rect width="504" height="422" rx="10" fill="url(#paint0_linear_8483_71633)"/>
<rect width="504" height="422" rx="10" fill="black" fill-opacity="0.2"/>
<g style="mix-blend-mode:soft-light">
<path d="M255.348 258.864C270.502 251.597 286.099 243.599 296.135 230.107C304.775 218.498 308.43 203.3 306.06 189.033C297.818 139.54 218.328 118.825 193.958 166.878C185.052 184.469 179.735 208.573 189.683 225.809C201.823 246.834 206.764 245.992 226.525 254.832L226.105 268.301L255.348 258.886V258.864Z" fill="white"/>
<path d="M258.026 263.448C271.984 256.758 286.34 249.425 296.774 237.683C307.209 225.941 313.169 209.569 311.928 193.507C310.2 171.596 295.91 153.296 276.725 143.327C258.846 134.022 236.381 130.921 217.373 138.675C207.448 142.707 199.118 149.264 193.003 158.082C184.961 169.669 180.375 184.711 179.223 198.669C178.603 206.157 179.223 214.044 181.771 221.156C184.075 227.602 187.841 233.629 191.962 239.101C195.108 243.244 198.586 246.899 202.972 249.757C206.982 252.371 211.502 254.144 215.888 256.004C218.547 257.134 221.206 258.242 223.864 259.438L221.228 254.852C221.095 259.35 220.94 263.825 220.807 268.322C220.696 271.668 224.307 274.481 227.542 273.44C237.29 270.294 247.038 267.148 256.786 264.024C263.277 261.942 260.508 251.662 253.95 253.767C244.202 256.913 234.454 260.059 224.706 263.183L231.441 268.3C231.574 263.803 231.729 259.328 231.862 254.83C231.906 253.124 230.843 250.953 229.225 250.244C224.174 247.985 219.478 246.19 214.692 243.997C212.875 243.155 211.059 242.269 209.353 241.227C207.293 239.987 206.827 239.61 205.365 238.303C201.621 234.913 199.162 231.192 196.503 226.894C193.092 221.333 190.522 215.683 189.879 209.104C188.616 195.833 192.294 182.186 198.187 170.355C202.352 161.959 208.134 155.512 215.999 151.081C223.111 147.071 231.33 145.188 239.527 145.011C248.677 144.833 256.918 146.451 265.758 149.951C281.466 156.177 295.556 169.226 299.965 185.886C303.709 200.042 300.386 215.816 291.568 227.447C281.887 240.208 266.777 247.541 252.687 254.299C250.095 255.539 249.408 259.239 250.782 261.565C252.333 264.202 255.456 264.711 258.048 263.471L258.026 263.448Z" fill="#BBC2CA"/>
<path d="M221.582 169.358C221.582 169.358 221.515 169.403 221.471 169.425C221.05 169.735 220.585 170.067 220.164 170.444C220.142 170.466 220.097 170.488 220.075 170.533C219.699 170.931 219.366 171.374 219.056 171.84C219.056 171.862 219.012 171.906 219.012 171.95C219.233 171.463 218.569 172.925 218.391 173.39C218.391 173.39 218.391 173.39 218.391 173.413C218.391 173.413 218.391 173.457 218.391 173.479C218.591 172.261 218.214 174.565 218.17 175.096C218.17 175.096 218.17 175.096 218.17 175.119C218.17 175.119 218.17 175.141 218.17 175.163C218.325 176.625 218.303 176.979 219.012 178.264C219.256 178.73 219.588 179.151 219.987 179.527C220.984 180.458 221.404 180.635 222.667 181.1C222.667 181.1 222.667 181.1 222.689 181.1C222.712 181.1 224.24 181.322 224.285 181.322C224.285 181.322 224.285 181.322 224.307 181.322C224.838 181.277 227.342 180.879 225.924 181.1C225.924 181.1 225.968 181.1 225.99 181.1C226.5 180.923 227.01 180.724 227.475 180.48C227.475 180.48 227.519 180.48 227.519 180.436C227.94 180.125 228.361 179.837 228.738 179.483C228.738 179.483 228.738 179.483 228.76 179.461C229.602 178.508 229.956 177.999 230.333 176.78C230.665 175.717 230.599 174.631 230.333 173.568C230.089 172.571 229.491 171.618 228.782 170.887C228.405 170.51 227.984 170.156 227.519 169.912C226.832 169.469 226.101 169.248 225.304 169.203C224.506 169.026 223.709 169.07 222.911 169.314C222.136 169.491 221.449 169.846 220.873 170.377C220.23 170.798 219.699 171.352 219.322 172.061L218.724 173.479C218.436 174.542 218.436 175.606 218.724 176.669L219.322 178.087C219.854 178.996 220.563 179.704 221.471 180.236C221.471 180.236 221.493 180.236 221.515 180.236L220.297 179.306L219.366 178.087L218.768 176.669L218.547 175.074L218.768 173.479C218.768 173.479 218.768 173.479 218.768 173.501L219.366 172.083C219.366 172.083 219.366 172.105 219.366 172.128L220.297 170.909C220.297 170.909 220.275 170.931 220.252 170.953L221.471 170.023C221.471 170.023 221.427 170.067 221.382 170.067L222.8 169.469C222.8 169.469 222.734 169.469 222.712 169.491L224.307 169.27C224.307 169.27 224.262 169.27 224.24 169.27L225.835 169.491H225.791L227.209 170.089C227.209 170.089 227.209 170.089 227.187 170.089L228.405 171.02C228.405 171.02 228.405 171.02 228.383 170.998L229.314 172.216C229.314 172.216 229.314 172.194 229.291 172.172L229.89 173.59C229.89 173.59 229.89 173.546 229.89 173.501L230.111 175.096C230.111 175.096 230.111 175.03 230.111 175.008L229.89 176.603C229.89 176.603 229.89 176.536 229.912 176.492L229.314 177.91C229.314 177.91 229.358 177.821 229.402 177.777L228.472 178.996C228.472 178.996 228.605 178.84 228.693 178.796L227.475 179.727C227.475 179.727 227.541 179.682 227.586 179.638C228.272 179.261 228.848 178.752 229.269 178.087C229.801 177.511 230.155 176.824 230.333 176.049C230.576 175.251 230.621 174.454 230.444 173.656C230.399 172.859 230.178 172.128 229.735 171.441L228.804 170.222C228.051 169.491 227.187 168.96 226.168 168.694L224.573 168.472C223.487 168.472 222.49 168.738 221.56 169.292L221.582 169.358Z" fill="#BBC2CA"/>
<path d="M256.48 171.22C256.06 171.53 255.616 171.84 255.218 172.195C255.218 172.195 255.218 172.195 255.196 172.217C255.151 172.261 254.287 173.391 254.243 173.435C253.933 173.9 253.755 174.432 253.6 174.964C253.445 175.496 253.357 176.049 253.379 176.581C253.379 176.847 253.49 177.489 253.49 177.401L253.6 178.198C253.755 178.73 253.933 179.262 254.243 179.727C254.553 180.192 254.841 180.635 255.24 181.012C255.24 181.012 255.262 181.034 255.284 181.056C255.439 181.189 256.325 181.876 256.503 182.009C256.503 182.009 256.525 182.009 256.547 182.031C256.791 182.186 257.234 182.341 257.367 182.386C257.5 182.43 257.921 182.674 258.209 182.718C258.762 182.851 259.338 182.917 259.914 182.939C259.914 182.939 259.959 182.939 259.981 182.939C259.981 182.939 260.003 182.939 260.025 182.939L261.62 182.718C261.62 182.718 261.62 182.718 261.642 182.718C262.174 182.607 262.706 182.341 263.171 182.075C263.171 182.075 263.215 182.075 263.215 182.053C263.282 182.009 264.367 181.167 264.434 181.101C264.434 181.101 264.456 181.101 264.478 181.078C264.855 180.68 265.231 180.259 265.475 179.771C265.719 179.284 265.94 178.774 266.118 178.265C266.118 178.221 266.118 178.176 266.14 178.154C266.251 177.6 266.339 177.046 266.361 176.47C266.361 176.426 266.361 176.404 266.361 176.36C266.317 175.806 266.251 175.23 266.14 174.676C266.14 174.632 266.14 174.587 266.096 174.543C265.896 173.967 265.675 173.413 265.387 172.881C265.342 172.793 265.298 172.726 265.231 172.66C264.877 172.172 264.523 171.685 264.124 171.242C264.057 171.175 263.991 171.109 263.924 171.043C263.393 170.467 262.75 170.046 261.997 169.802C261.288 169.425 260.513 169.248 259.693 169.292C258.873 169.27 258.098 169.425 257.389 169.802C256.658 170.046 256.015 170.444 255.461 171.043L254.531 172.261C253.999 173.191 253.711 174.211 253.711 175.274L253.933 176.869C254.221 177.888 254.73 178.752 255.461 179.506C255.572 179.616 255.705 179.749 255.794 179.882L254.863 178.664C254.952 178.797 255.04 178.929 255.107 179.085L254.509 177.667C254.509 177.667 254.575 177.844 254.597 177.955L254.376 176.36C254.376 176.36 254.376 176.493 254.376 176.559L254.597 174.964C254.597 174.964 254.575 175.097 254.553 175.163L255.151 173.745C255.151 173.745 255.129 173.812 255.107 173.834L256.037 172.615C256.037 172.615 255.993 172.66 255.971 172.682L257.189 171.751C257.189 171.751 257.145 171.796 257.101 171.796L258.519 171.198C258.519 171.198 258.452 171.198 258.408 171.22L260.003 170.998C260.003 170.998 259.892 170.998 259.848 170.998L261.443 171.22C261.443 171.22 261.31 171.198 261.244 171.175L262.662 171.774C262.662 171.774 262.551 171.729 262.507 171.685L263.725 172.615C263.725 172.615 263.659 172.571 263.636 172.527L264.567 173.745C264.567 173.745 264.545 173.701 264.523 173.679L265.121 175.097C265.121 175.097 265.121 175.052 265.121 175.03L265.342 176.625C265.342 176.625 265.342 176.603 265.342 176.581L265.121 178.176C265.121 178.176 265.121 178.154 265.121 178.132L264.523 179.55C264.523 179.55 264.523 179.506 264.545 179.506L263.614 180.724C263.614 180.724 263.659 180.68 263.681 180.658L262.462 181.588C263.149 181.211 263.725 180.68 264.146 180.037C264.678 179.461 265.032 178.774 265.209 177.999C265.453 177.201 265.497 176.404 265.32 175.606C265.276 174.809 265.054 174.078 264.611 173.391L263.681 172.172C262.927 171.441 262.063 170.91 261.044 170.644L259.449 170.422C258.364 170.422 257.367 170.688 256.436 171.242L256.48 171.22Z" fill="#BBC2CA"/>
<path d="M281.449 156.753C287.32 161.073 291.441 166.877 297.09 171.397C300.835 174.388 305.288 176.647 310.073 177.024C318.093 177.666 327.974 171.308 325.249 162.291C323.299 155.822 317.672 150.527 311.89 146.185C308.411 143.571 307.702 138.586 310.184 135.019C310.693 134.266 311.07 133.712 311.136 133.557C312.621 130.3 312.288 126.29 309.386 123.942C305.088 120.486 299.328 122.79 295.074 124.939C284.861 130.101 274.426 127.265 263.925 124.828C251.519 121.948 242.303 118.913 229.519 119.312C222.94 119.511 213.325 119.755 209.292 125.581C205.57 130.987 206.523 138.431 212.394 140.912C223.914 145.83 238.071 141.931 250.189 144.147C261.688 146.251 272.255 149.973 281.449 156.73V156.753Z" fill="#BBC2CA"/>
<path d="M278.766 161.339C287.96 168.296 293.964 179.041 306.016 181.743C315.476 183.87 327.151 179.617 330.341 169.736C332.047 164.419 330.23 158.747 327.284 154.228C324.049 149.243 319.663 146.008 315.298 142.131C314.368 141.289 313.814 140.359 314.08 139.14C314.301 138.121 315.077 137.412 315.564 136.526C316.207 135.396 316.694 134.067 316.96 132.804C318.201 127 315.742 120.929 310.292 118.293C304.842 115.657 298.993 117.252 293.764 119.689C288.536 122.126 283.285 122.99 277.37 122.214C265.429 120.664 253.997 116.321 242.056 114.704C236.517 113.973 230.979 113.84 225.418 114.172C220.5 114.46 215.448 115.081 211.017 117.363C201.89 122.037 198.301 135.374 206.033 142.995C210.53 147.404 218.018 148.357 224 148.755C230.602 149.199 237.226 148.512 243.828 148.822C256.146 149.376 268.818 154.161 278.766 161.339C281.092 163.023 284.681 161.738 286.032 159.434C287.605 156.753 286.453 153.851 284.127 152.167C275.952 146.252 266.448 142.375 256.656 140.093C251.494 138.897 246.309 138.166 241.015 138.099C235.72 138.033 230.912 138.387 225.861 138.21C222.316 138.077 216.711 137.966 213.787 135.707C211.837 134.2 212.037 131.076 213.477 128.927C215.205 126.335 218.749 125.582 221.718 125.139C225.772 124.541 230.07 124.519 234.147 124.651C244.471 124.984 254.462 128.085 264.454 130.434C275.31 132.959 286.232 134.842 296.777 130.013C298.882 129.06 304.177 125.759 306.237 128.285C306.924 129.127 306.702 130.478 306.282 131.431C306.592 130.744 306.082 131.586 306.038 131.674C305.75 132.117 305.418 132.538 305.174 133.004C304.531 134.156 304.022 135.419 303.734 136.703C302.626 141.533 304.288 146.784 308.098 149.974C311.665 152.921 315.52 155.69 318.068 159.633C320.084 162.757 321.324 165.837 319.109 168.406C316.894 170.976 313.26 172.062 310.07 171.73C304.908 171.198 300.588 167.72 297.021 164.241C292.767 160.099 288.89 155.778 284.127 152.189C281.823 150.461 278.19 151.835 276.86 154.095C275.265 156.82 276.462 159.633 278.766 161.361V161.339Z" fill="#BBC2CA"/>
<path d="M211.724 185.421C210.905 199.688 222.292 213.579 236.449 215.595C250.605 217.611 265.404 207.442 268.617 193.529" fill="white"/>
<path d="M206.408 185.421C205.699 202.679 219.302 218.808 236.45 220.912C253.597 223.017 269.77 211.098 273.758 194.947C275.397 188.301 265.14 185.465 263.5 192.111C260.709 203.41 248.967 212.05 237.203 210.367C225.439 208.683 216.555 197.074 217.042 185.399C217.33 178.553 206.696 178.575 206.408 185.399V185.421Z" fill="#BBC2CA"/>
</g>
<path d="M156.352 310.184C157.12 311.112 158.224 311.768 159.28 311.784C160.816 311.784 161.888 310.952 161.904 309.784C161.92 307.288 155.536 308.456 155.568 304.408C155.584 302.504 157.216 301.192 159.504 301.208C160.896 301.224 162.288 301.976 163.152 303.032L161.92 303.992C161.296 303.208 160.4 302.664 159.504 302.648C158.176 302.648 157.232 303.384 157.232 304.424C157.216 306.968 163.584 305.944 163.568 309.8C163.552 311.832 161.776 313.24 159.264 313.224C157.712 313.208 156.08 312.36 155.104 311.144L156.352 310.184ZM171.001 308.312C170.857 307.24 170.249 306.12 168.777 306.12C167.497 306.12 166.521 307.08 166.345 308.328L171.001 308.312ZM164.745 308.952C164.745 306.472 166.393 304.728 168.745 304.728C171.369 304.728 172.153 306.84 172.217 307C172.713 308.2 172.537 309.448 172.537 309.592H166.345C166.537 310.888 167.593 311.768 168.761 311.768C170.377 311.768 170.873 310.792 170.937 310.696L172.265 311.304C172.265 311.304 171.497 313.16 168.745 313.16C166.393 313.16 164.745 311.416 164.745 308.952ZM179.853 308.312C179.709 307.24 179.101 306.12 177.629 306.12C176.349 306.12 175.373 307.08 175.197 308.328L179.853 308.312ZM173.597 308.952C173.597 306.472 175.245 304.728 177.597 304.728C180.221 304.728 181.005 306.84 181.069 307C181.565 308.2 181.389 309.448 181.389 309.592H175.197C175.389 310.888 176.445 311.768 177.613 311.768C179.229 311.768 179.725 310.792 179.789 310.696L181.117 311.304C181.117 311.304 180.349 313.16 177.597 313.16C175.245 313.16 173.597 311.416 173.597 308.952ZM189.458 316.696H187.65L189.394 312.52L185.97 304.744H187.81L190.258 310.664L192.626 304.744H194.434L189.458 316.696ZM198.716 311.784C200.124 311.784 201.1 310.632 201.1 308.952C201.1 307.256 200.124 306.12 198.716 306.12C197.308 306.12 196.348 307.256 196.348 308.952C196.348 310.632 197.308 311.784 198.716 311.784ZM194.684 308.952C194.684 306.472 196.348 304.712 198.716 304.712C201.1 304.712 202.764 306.472 202.764 308.952C202.764 311.416 201.1 313.176 198.716 313.176C196.348 313.176 194.684 311.416 194.684 308.952ZM205.785 309.464C205.785 310.824 206.617 311.72 207.817 311.72C209.097 311.72 209.993 310.76 209.977 309.416V304.744H211.641V313.112H209.977V311.736C209.481 312.536 208.521 313.112 207.641 313.112C205.577 313.112 204.121 311.672 204.121 309.544V304.744H205.785V309.464ZM226.732 301.336V313.112H224.94L218.412 304.008V313.112H216.748V301.336H218.54L225.068 310.456V301.336H226.732ZM234.488 308.312C234.344 307.24 233.736 306.12 232.264 306.12C230.984 306.12 230.008 307.08 229.832 308.328L234.488 308.312ZM228.232 308.952C228.232 306.472 229.88 304.728 232.232 304.728C234.856 304.728 235.64 306.84 235.704 307C236.2 308.2 236.024 309.448 236.024 309.592H229.832C230.024 310.888 231.08 311.768 232.248 311.768C233.864 311.768 234.36 310.792 234.424 310.696L235.752 311.304C235.752 311.304 234.984 313.16 232.232 313.16C229.88 313.16 228.232 311.416 228.232 308.952ZM244.725 304.744L241.605 308.936L244.693 313.112H242.645L240.629 310.28L238.661 313.112H236.581L239.637 308.936L236.533 304.744H238.613L240.629 307.656L242.661 304.744H244.725ZM250.351 312.776C249.983 312.92 249.647 313.112 248.879 313.112C247.455 313.112 246.447 312.072 246.447 310.584V306.264H245.023V304.808H246.447V302.52H248.111V304.808H250.239V306.264H248.111V310.584C248.111 311.192 248.479 311.64 248.991 311.656C249.391 311.672 249.823 311.448 249.839 311.432L250.351 312.776ZM257.063 301.336V311.672H262.903V313.112H255.399V301.336H257.063ZM267.337 311.816C268.665 311.816 269.817 310.6 269.833 308.984C269.817 307.368 268.665 306.152 267.337 306.152C265.897 306.152 264.921 307.288 264.921 308.984C264.921 310.664 265.897 311.816 267.337 311.816ZM263.257 308.984C263.257 306.52 264.889 304.776 267.225 304.776C268.137 304.776 269.129 305.224 269.801 306.216V304.744H271.465V313.112L269.801 313.128V311.736C269.097 312.76 268.153 313.192 267.225 313.192C264.889 313.192 263.257 311.448 263.257 308.984ZM274.655 309.464C274.655 310.824 275.487 311.72 276.687 311.72C277.967 311.72 278.863 310.76 278.847 309.416V304.744H280.511V313.112H278.847V311.736C278.351 312.536 277.391 313.112 276.511 313.112C274.447 313.112 272.991 311.672 272.991 309.544V304.744H274.655V309.464ZM288.027 308.472C288.027 307.064 287.259 306.152 286.011 306.152C284.779 306.168 283.819 307.16 283.835 308.472V313.112H282.171V304.744H283.835V306.152C284.331 305.336 285.275 304.76 286.187 304.76C287.915 304.76 289.691 305.816 289.691 308.408V313.112H288.027V308.472ZM294.73 311.608C295.386 311.608 296.186 311.272 296.682 310.776L297.802 311.896C297.066 312.648 295.818 313.176 294.794 313.176C292.314 313.176 290.554 311.432 290.554 308.952C290.554 306.472 292.314 304.728 294.794 304.728C295.882 304.728 297.05 305.24 297.802 306.008L296.682 307.128C296.17 306.632 295.386 306.296 294.73 306.296C293.242 306.296 292.218 307.368 292.218 308.952C292.218 310.536 293.242 311.608 294.73 311.608ZM304.589 308.648C304.589 307.208 303.853 306.248 302.749 306.248C301.501 306.248 300.525 307.416 300.525 308.84V313.112H298.861V301.336H300.525V306.072C301.037 305.288 301.949 304.84 302.765 304.84C304.813 304.84 306.253 306.328 306.253 308.456V313.112H304.589V308.648ZM312.061 311.816C313.501 311.816 314.477 310.648 314.477 308.952C314.477 307.272 313.501 306.12 312.061 306.12C310.701 306.12 309.565 307.4 309.565 308.952C309.565 310.536 310.701 311.816 312.061 311.816ZM307.885 316.696V304.744H309.549V306.184C310.189 305.128 311.453 304.744 312.157 304.744C314.493 304.744 316.141 306.472 316.141 308.952C316.141 311.448 314.493 313.192 312.157 313.192C311.437 313.192 310.189 312.76 309.549 311.72V316.696H307.885ZM321.182 311.816C322.51 311.816 323.662 310.6 323.678 308.984C323.662 307.368 322.51 306.152 321.182 306.152C319.742 306.152 318.766 307.288 318.766 308.984C318.766 310.664 319.742 311.816 321.182 311.816ZM317.102 308.984C317.102 306.52 318.734 304.776 321.07 304.776C321.982 304.776 322.974 305.224 323.646 306.216V304.744H325.31V313.112L323.646 313.128V311.736C322.942 312.76 321.998 313.192 321.07 313.192C318.734 313.192 317.102 311.448 317.102 308.984ZM330.673 313.192C328.337 313.192 326.689 311.448 326.689 308.968C326.689 306.472 328.337 304.728 330.673 304.728C331.409 304.728 332.577 305.048 333.297 306.2V301.336H334.961V313.128H333.297V311.736C332.561 312.824 331.409 313.192 330.673 313.192ZM328.353 308.984C328.353 310.68 329.345 311.848 330.785 311.848C332.161 311.848 333.297 310.568 333.297 308.984C333.297 307.416 332.161 306.136 330.785 306.136C329.345 306.136 328.353 307.288 328.353 308.984ZM337.566 311.4C338.142 311.4 338.542 311.8 338.542 312.376C338.542 312.968 338.142 313.368 337.566 313.368C336.99 313.368 336.574 312.968 336.574 312.376C336.574 311.8 336.99 311.4 337.566 311.4Z" fill="#A8A8A8"/>
<defs>
<linearGradient id="paint0_linear_8483_71633" x1="252" y1="0" x2="252" y2="422" gradientUnits="userSpaceOnUse">
<stop stop-color="#333333"/>
<stop offset="1" stop-color="#888888"/>
</linearGradient>
</defs>
</svg>
