<svg width="197" height="55" viewBox="0 0 197 55" fill="none" xmlns="http://www.w3.org/2000/svg">
<g id="Group 41312">
<rect id="Rectangle 2322" x="64" y="8" width="133" height="18" rx="9" fill="#D9D9D9"/>
<rect id="Rectangle 2323" x="65" y="33" width="110" height="14" rx="7" fill="#D9D9D9"/>
<circle id="Ellipse 608" cx="27.5" cy="27.5" r="27.5" fill="#D9D9D9"/>
<path id="Vector" d="M17.6184 15.4442C17.6184 15.4442 17.5851 15.4664 17.5628 15.4775C17.3518 15.633 17.1186 15.7996 16.9077 15.9883C16.8966 15.9994 16.8743 16.0105 16.8632 16.0328C16.6744 16.2326 16.5079 16.4547 16.3524 16.6879C16.3524 16.6991 16.3302 16.7213 16.3302 16.7435C16.4412 16.4992 16.1081 17.2321 16.0193 17.4653C16.0193 17.4653 16.0193 17.4653 16.0193 17.4764C16.0193 17.4764 16.0193 17.4986 16.0193 17.5097C16.1192 16.8989 15.9304 18.0539 15.9082 18.3204C15.9082 18.3204 15.9082 18.3204 15.9082 18.3315C15.9082 18.3315 15.9082 18.3426 15.9082 18.3537C15.9859 19.0866 15.9748 19.2643 16.3302 19.9084C16.4523 20.1416 16.6189 20.3526 16.8188 20.5414C17.3185 21.0078 17.5295 21.0966 18.1625 21.3298C18.1625 21.3298 18.1625 21.3298 18.1736 21.3298C18.1847 21.3298 18.951 21.4408 18.9732 21.4408C18.9732 21.4408 18.9732 21.4408 18.9843 21.4408C19.2508 21.4186 20.5056 21.2188 19.7949 21.3298C19.7949 21.3298 19.8171 21.3298 19.8282 21.3298C20.0836 21.241 20.3391 21.141 20.5723 21.0189C20.5723 21.0189 20.5945 21.0189 20.5945 20.9967C20.8055 20.8412 21.0165 20.6968 21.2053 20.5191C21.2053 20.5191 21.2052 20.5191 21.2164 20.508C21.6383 20.0305 21.816 19.7751 22.0048 19.1643C22.1714 18.6313 22.1381 18.0872 22.0048 17.5541C21.8827 17.0544 21.5828 16.5769 21.2275 16.2104C21.0387 16.0217 20.8277 15.844 20.5945 15.7218C20.2502 15.4997 19.8838 15.3887 19.484 15.3665C19.0842 15.2776 18.6844 15.2998 18.2847 15.422C17.896 15.5108 17.5517 15.6885 17.263 15.955C16.941 16.166 16.6744 16.4436 16.4857 16.799L16.1858 17.5097C16.0415 18.0427 16.0415 18.5758 16.1858 19.1088L16.4857 19.8195C16.7522 20.2748 17.1075 20.6302 17.5628 20.8967C17.5628 20.8967 17.574 20.8967 17.5851 20.8967L16.9743 20.4303L16.5079 19.8195L16.208 19.1088L16.097 18.3093L16.208 17.5097C16.208 17.5097 16.208 17.5097 16.208 17.5208L16.5079 16.8101C16.5079 16.8101 16.5079 16.8212 16.5079 16.8323L16.9743 16.2215C16.9743 16.2215 16.9632 16.2326 16.9521 16.2437L17.5628 15.7773C17.5628 15.7773 17.5406 15.7996 17.5184 15.7996L18.2291 15.4997C18.2291 15.4997 18.1958 15.4997 18.1847 15.5108L18.9843 15.3998C18.9843 15.3998 18.9621 15.3998 18.951 15.3998L19.7505 15.5108H19.7283L20.439 15.8107C20.439 15.8107 20.439 15.8107 20.4279 15.8107L21.0387 16.2771C21.0387 16.2771 21.0387 16.2771 21.0276 16.266L21.494 16.8767C21.494 16.8767 21.494 16.8656 21.4829 16.8545L21.7827 17.5652C21.7827 17.5652 21.7827 17.543 21.7827 17.5208L21.8938 18.3204C21.8938 18.3204 21.8938 18.2871 21.8938 18.276L21.7827 19.0755C21.7827 19.0755 21.7827 19.0422 21.7938 19.02L21.494 19.7307C21.494 19.7307 21.5162 19.6863 21.5384 19.6641L21.072 20.2748C21.072 20.2748 21.1386 20.1971 21.183 20.1749L20.5723 20.6413C20.5723 20.6413 20.6056 20.6191 20.6278 20.5969C20.972 20.4081 21.2608 20.1527 21.4718 19.8195C21.7383 19.5308 21.916 19.1866 22.0048 18.7979C22.127 18.3981 22.1492 17.9983 22.0603 17.5986C22.0381 17.1988 21.9271 16.8323 21.705 16.4881L21.2386 15.8773C20.861 15.5108 20.4279 15.2443 19.9171 15.111L19.1175 15C18.5734 15 18.0737 15.1333 17.6073 15.4109L17.6184 15.4442Z" fill="#AAAAAA" fill-opacity="0.5"/>
<path id="Vector_2" d="M35.113 16.3772C34.902 16.5327 34.6799 16.6881 34.48 16.8658C34.48 16.8658 34.48 16.8658 34.4689 16.8769C34.4467 16.8991 34.0136 17.4655 33.9914 17.4877C33.836 17.7209 33.7471 17.9874 33.6694 18.2539C33.5917 18.5204 33.5472 18.7981 33.5583 19.0646C33.5583 19.1978 33.6139 19.5199 33.6139 19.4755L33.6694 19.8752C33.7471 20.1418 33.836 20.4083 33.9914 20.6415C34.1469 20.8747 34.2912 21.0968 34.4911 21.2856C34.4911 21.2856 34.5022 21.2967 34.5134 21.3078C34.5911 21.3744 35.0353 21.7187 35.1241 21.7853C35.1241 21.7853 35.1352 21.7853 35.1463 21.7964C35.2685 21.8741 35.4906 21.9519 35.5572 21.9741C35.6238 21.9963 35.8348 22.1184 35.9792 22.1406C36.2568 22.2073 36.5455 22.2406 36.8343 22.2517C36.8343 22.2517 36.8565 22.2517 36.8676 22.2517C36.8676 22.2517 36.8787 22.2517 36.8898 22.2517L37.6894 22.1406C37.6894 22.1406 37.6894 22.1406 37.7005 22.1406C37.967 22.0851 38.2335 21.9519 38.4667 21.8186C38.4667 21.8186 38.4889 21.8186 38.4889 21.8075C38.5222 21.7853 39.0664 21.3633 39.0997 21.33C39.0997 21.33 39.1108 21.33 39.1219 21.3189C39.3107 21.119 39.4995 20.908 39.6216 20.6637C39.7438 20.4194 39.8548 20.164 39.9437 19.9086C39.9437 19.8863 39.9437 19.8641 39.9548 19.853C40.0103 19.5754 40.0547 19.2978 40.0658 19.0091C40.0658 18.9868 40.0658 18.9757 40.0658 18.9535C40.0436 18.6759 40.0103 18.3872 39.9548 18.1096C39.9548 18.0873 39.9548 18.0651 39.9326 18.0429C39.8326 17.7542 39.7216 17.4766 39.5772 17.2101C39.555 17.1656 39.5328 17.1323 39.4995 17.099C39.3218 16.8547 39.1441 16.6104 38.9442 16.3883C38.9109 16.355 38.8776 16.3217 38.8443 16.2883C38.5778 15.9996 38.2557 15.7886 37.8781 15.6665C37.5228 15.4777 37.1341 15.3888 36.7232 15.4111C36.3124 15.4 35.9237 15.4777 35.5683 15.6665C35.2019 15.7886 34.8798 15.9885 34.6022 16.2883L34.1358 16.8991C33.8693 17.3655 33.7249 17.8763 33.7249 18.4094L33.836 19.2089C33.9803 19.7198 34.2357 20.1529 34.6022 20.5304C34.6577 20.5859 34.7243 20.6526 34.7688 20.7192L34.3024 20.1084C34.3468 20.1751 34.3912 20.2417 34.4245 20.3194L34.1247 19.6087C34.1247 19.6087 34.158 19.6976 34.1691 19.7531L34.058 18.9535C34.058 18.9535 34.058 19.0202 34.058 19.0535L34.1691 18.2539C34.1691 18.2539 34.158 18.3205 34.1469 18.3539L34.4467 17.6431C34.4467 17.6431 34.4356 17.6765 34.4245 17.6876L34.8909 17.0768C34.8909 17.0768 34.8687 17.099 34.8576 17.1101L35.4684 16.6437C35.4684 16.6437 35.4462 16.6659 35.424 16.6659L36.1347 16.3661C36.1347 16.3661 36.1014 16.3661 36.0791 16.3772L36.8787 16.2661C36.8787 16.2661 36.8232 16.2661 36.801 16.2661L37.6005 16.3772C37.6005 16.3772 37.5339 16.3661 37.5006 16.355L38.2113 16.6548C38.2113 16.6548 38.1558 16.6326 38.1336 16.6104L38.7443 17.0768C38.7443 17.0768 38.711 17.0546 38.6999 17.0324L39.1663 17.6431C39.1663 17.6431 39.1552 17.6209 39.1441 17.6098L39.4439 18.3205C39.4439 18.3205 39.4439 18.2983 39.4439 18.2872L39.555 19.0868C39.555 19.0868 39.555 19.0757 39.555 19.0646L39.4439 19.8641C39.4439 19.8641 39.4439 19.853 39.4439 19.8419L39.1441 20.5526C39.1441 20.5526 39.1441 20.5304 39.1552 20.5304L38.6888 21.1412C38.6888 21.1412 38.711 21.119 38.7221 21.1079L38.1114 21.5743C38.4556 21.3855 38.7443 21.119 38.9553 20.7969C39.2218 20.5082 39.3995 20.164 39.4883 19.7753C39.6105 19.3755 39.6327 18.9757 39.5439 18.576C39.5217 18.1762 39.4106 17.8097 39.1885 17.4655L38.7221 16.8547C38.3446 16.4882 37.9115 16.2217 37.4006 16.0885L36.6011 15.9774C36.0569 15.9774 35.5572 16.1107 35.0908 16.3883L35.113 16.3772Z" fill="#AAAAAA" fill-opacity="0.5"/>
<g id="Group">
<path id="Vector_3" d="M10.0133 23.4955C9.65793 32.1463 16.4763 40.2307 25.0715 41.2856C33.6668 42.3406 41.7733 36.3661 43.7722 28.2707C44.594 24.9392 39.4524 23.5178 38.6307 26.8492C37.2314 32.5127 31.3458 36.8437 25.4491 35.9997C19.5524 35.1557 15.0993 29.3367 15.3436 23.4844C15.488 20.053 10.1576 20.0641 10.0133 23.4844V23.4955Z" fill="#AAAAAA" fill-opacity="0.5"/>
</g>
</g>
</svg>
