<svg width="1483" height="468" viewBox="0 0 1483 468" fill="none" xmlns="http://www.w3.org/2000/svg">
<g filter="url(#filter0_b_8425_2200)">
<path d="M167.645 276.59C146.992 294.888 122.389 303.985 93.8343 303.882C76.5688 303.82 64.2417 300.123 56.853 292.791C52.6618 288.792 50.5846 281.756 50.6213 271.685C50.6778 256.19 62.5013 246.217 86.0919 241.764C93.5125 240.352 102.425 239.665 112.828 239.702C123.232 239.74 137.447 241.728 155.473 245.667C165.141 234.966 176.653 219.236 190.01 198.477C203.478 177.608 214.107 161.543 221.895 150.282C229.683 139.021 238.524 127.542 248.417 115.846C258.311 104.039 268.642 93.3961 279.413 83.9168C301.287 64.5165 322.904 54.855 344.265 54.9322C353.783 54.9666 360.636 57.4263 364.824 62.3113C369.012 67.0855 371.094 72.793 371.07 79.4336C371.046 85.9635 367.975 93.5891 361.856 102.311C355.848 111.032 348.847 118.755 340.853 125.477C332.971 132.2 325.147 137.927 317.382 142.658C309.729 147.279 303.688 149.581 299.261 149.565C294.834 149.549 291.023 147.654 287.827 143.879C284.631 140.105 283.039 136.502 283.052 133.071C283.065 129.529 283.516 127.096 284.407 125.771C285.408 124.336 286.407 123.62 287.403 123.624C288.399 123.627 289.005 124.238 289.222 125.456C292.768 124.362 298.425 120.952 306.193 115.225C314.073 109.387 321.233 103.326 327.676 97.0405C334.118 90.7552 337.342 86.8377 337.347 85.2883C337.354 83.6281 336.36 82.7945 334.368 82.7873C332.487 82.7805 329.883 83.4351 326.558 84.7512C323.233 86.0673 318.796 88.8183 313.247 93.004C307.698 97.079 301.702 102.37 295.259 108.877C279.708 124.315 262.363 146.222 243.223 174.597C238.772 181 232.485 190.33 224.361 202.586C207.779 227.428 195.93 244.43 188.813 253.59C245.536 268.737 286.071 276.354 310.42 276.442C321.709 276.483 329.628 275.073 334.176 272.212C335.84 271.222 336.948 270.727 337.502 270.729C338.055 270.731 338.33 271.175 338.327 272.061C338.324 272.946 337.821 274.272 336.818 276.04C335.816 277.807 333.312 281.561 329.306 287.302C325.412 293.043 322.522 296.463 320.636 297.563C315.201 300.753 305.954 302.325 292.894 302.277C279.945 302.231 267.553 301.245 255.717 299.321C243.992 297.397 234.536 295.537 227.349 293.74C220.162 291.832 209.492 288.805 195.341 284.659C181.3 280.513 172.068 277.824 167.645 276.59ZM107.087 266.244C92.5882 266.192 85.3327 267.881 85.3202 271.312C85.3153 272.64 86.5285 273.807 88.9598 274.812C91.5017 275.817 94.4882 276.326 97.9191 276.338C108.655 276.377 119.013 273.592 128.995 267.984C120.477 266.846 113.174 266.266 107.087 266.244ZM457.891 172.219C466.302 172.249 470.497 175.142 470.476 180.897C470.465 183.996 469.738 186.262 468.293 187.696C466.849 189.129 463.733 193.933 458.944 202.105C454.266 210.168 449.026 220.553 443.225 233.26C437.534 245.856 433.843 256.634 432.15 265.593C431.814 266.699 431.642 268.247 431.635 270.24C431.613 276.327 433.262 279.376 436.582 279.388C439.902 279.4 443.837 277.865 448.386 274.783C452.936 271.589 456.988 268.228 460.542 264.7C464.097 261.06 467.542 257.365 470.876 253.614C474.32 249.863 476.376 247.712 477.042 247.161C477.708 246.61 478.705 246.337 480.033 246.342C482.136 246.35 483.403 247.959 483.834 251.17C484.265 254.382 484.474 257.703 484.461 261.134C484.449 264.565 484.108 266.943 483.439 268.269C480.207 274.566 473.096 282.121 462.107 290.936C451.228 299.751 441.306 304.142 432.342 304.11C423.488 304.078 416.967 301.342 412.782 295.904C408.596 290.466 406.515 284.482 406.538 277.952C406.563 271.311 407.69 265.505 409.922 260.532C400.692 272.452 390.086 282.541 378.103 290.798C366.23 299.056 356.531 303.172 349.005 303.144C341.479 303.117 335.344 300.826 330.602 296.271C324.535 290.605 321.52 282.791 321.556 272.83C321.593 262.759 323.843 252.695 328.307 242.639C332.882 232.474 338.837 223.254 346.172 214.979C353.507 206.594 361.559 198.987 370.327 192.156C388.752 177.835 405.712 170.702 421.206 170.758C427.183 170.78 432.049 171.793 435.805 173.799C439.561 175.805 441.931 178.304 442.916 181.295C445.587 177.321 447.81 174.838 449.584 173.849C451.47 172.749 454.239 172.205 457.891 172.219ZM435.744 190.566C416.818 190.498 397.19 200.942 376.86 221.897C369.638 229.397 362.965 238.393 356.839 248.885C350.824 259.378 347.81 266.561 347.796 270.435C347.782 274.308 348.881 276.249 351.095 276.257C354.194 276.268 362.849 270.212 377.06 258.089C391.271 245.855 400.711 236.869 405.381 231.131C410.495 224.73 420.616 211.209 435.744 190.566ZM610.022 246.812C612.125 246.82 613.392 248.429 613.823 251.64C614.254 254.851 614.463 258.172 614.451 261.603C614.438 265.034 614.098 267.413 613.429 268.738C610.197 274.925 603.141 282.481 592.262 291.406C581.383 300.221 571.074 304.611 561.335 304.576C555.358 304.554 549.831 302.708 544.753 299.037C539.675 295.477 537.152 289.215 537.185 280.25C537.218 271.285 539.629 262.495 544.42 253.88C516.847 288.201 495.258 305.333 479.652 305.277C473.454 305.254 468.427 303.023 464.569 298.582C460.822 294.141 458.957 289.596 458.974 284.948C458.991 280.189 459.673 275.321 461.02 270.346C462.366 265.26 463.766 260.727 465.22 256.748C466.784 252.769 469.015 247.852 471.914 241.996C474.924 236.141 477.153 231.888 478.601 229.237C480.05 226.586 482.333 222.61 485.451 217.309C488.681 211.897 492.857 204.663 497.982 195.606C503.217 186.549 507.502 179.869 510.838 175.564C514.285 171.15 517.613 168.948 520.823 168.96C524.033 168.861 526.851 170.144 529.276 172.809C531.701 175.474 532.911 177.636 532.905 179.296C532.899 180.957 529.164 188.414 521.7 201.668C499.642 241.211 488.601 264.248 488.577 270.777C488.571 272.438 489.176 273.27 490.394 273.274C495.706 273.293 508.974 261.831 530.197 238.887C551.42 215.942 563.704 201.267 567.047 194.859C570.391 188.342 573.621 182.875 576.736 178.459C579.962 174.043 582.351 171.34 583.904 170.35C588.675 167.268 594.823 165.63 602.35 165.436C603.568 165.44 604.508 165.499 605.172 165.612C605.835 165.725 606.607 166.669 607.486 168.443C608.365 170.217 608.802 171.602 608.799 172.598C607.791 175.693 603.334 183.923 595.427 197.286C587.631 210.65 583.287 218.216 582.395 219.983C569.237 246.941 562.643 264.515 562.613 272.705C562.596 277.354 564.359 279.684 567.9 279.697C574.323 278.835 582.089 273.716 591.199 264.342C594.531 260.923 597.809 257.448 601.032 253.918C604.365 250.389 606.42 248.348 607.196 247.798C607.974 247.137 608.916 246.808 610.022 246.812ZM690.443 273.665C690.425 278.535 693.736 280.982 700.377 281.006C703.918 281.019 708.352 279.264 713.677 275.741C719.113 272.219 723.997 268.363 728.329 264.173C739.881 252.815 746.432 247.139 747.981 247.145C750.859 247.155 752.282 251.311 752.252 259.611C752.222 267.912 749.6 273.602 744.387 276.683C728.508 290.903 716.247 299.546 707.603 302.614C702.727 304.257 697.356 305.012 691.491 304.88C685.625 304.748 679.824 302.182 674.087 297.181C668.35 292.179 665.495 286.137 665.52 279.054C665.547 271.86 667.458 263.732 671.254 254.67C675.05 245.608 678.897 237.875 682.794 231.469C686.802 224.954 691.699 217.445 697.485 208.944C703.272 200.332 706.335 194.975 706.675 192.874L706.344 192.541C702.69 192.859 693.589 200.021 679.039 214.024C664.6 228.028 652.657 240.215 643.212 250.584C633.767 260.954 622.482 274.803 609.359 292.132C605.689 296.878 602.693 299.247 600.368 299.238C598.044 299.23 594.948 298.499 591.079 297.047C587.101 295.483 584.67 294.367 583.787 293.7C582.904 293.033 582.465 292.035 582.47 290.707C582.474 289.379 582.868 287.775 583.649 285.897C584.431 283.907 585.212 282.305 585.991 281.091C586.66 279.765 587.829 277.777 589.499 275.127C591.169 272.476 594.454 266.899 599.355 258.395C604.367 249.78 611.995 236.969 622.239 219.961C632.484 202.954 638.608 192.683 640.614 189.149C644.846 181.859 648.296 176.559 650.965 173.249C655.968 166.958 664.391 163.834 676.233 163.877C678.889 163.886 680.212 165.551 680.199 168.872C680.18 174.073 675.33 183.851 665.649 198.204L658.638 208.638C677.863 187.457 694.071 174.068 707.262 168.471C713.691 165.728 719.451 164.365 724.542 164.384C729.744 164.402 733.834 165.801 736.812 168.578C739.901 171.356 741.439 174.461 741.427 177.892C741.415 181.212 740.238 185.248 737.896 189.998C735.555 194.638 733.16 198.835 730.712 202.59C728.374 206.234 725.258 210.871 721.364 216.501C717.47 222.132 715.356 225.223 715.022 225.775C714.688 226.217 713.798 227.542 712.351 229.75C711.015 231.848 710.013 233.394 709.346 234.388C708.678 235.381 707.565 237.148 706.006 239.688C704.448 242.117 703.167 244.16 702.165 245.817C701.274 247.474 700.104 249.517 698.657 251.947C697.32 254.377 696.205 256.476 695.313 258.243C694.532 260.011 693.695 261.945 692.802 264.045C691.238 267.913 690.452 271.12 690.443 273.665ZM844.545 262.933C850.314 259.302 854.03 256.825 855.695 255.503C857.361 254.07 859.304 252.417 861.524 250.543C863.744 248.67 865.574 247.736 867.013 247.741C869.226 247.749 870.324 250.298 870.305 255.389C870.287 260.37 867.777 265.784 862.775 271.632C857.885 277.369 851.779 282.273 844.46 286.341C837.141 290.299 829.325 293.757 821.014 296.715C804.501 302.743 790.434 305.736 778.813 305.694C767.302 305.652 756.913 301.852 747.643 294.292C738.374 286.622 733.762 276.699 733.806 264.525C733.851 252.24 736.939 240.021 743.071 227.869C749.203 215.606 757.045 204.898 766.596 195.747C776.259 186.485 787.409 178.999 800.047 173.289C812.796 167.58 825.368 164.748 837.764 164.793C843.741 164.814 849.102 166.549 853.849 169.997C858.595 173.446 860.958 178.158 860.936 184.134C860.914 190.111 857.9 197.294 851.893 205.684C845.997 213.963 840.005 218.092 833.918 218.07C826.834 218.045 823.305 214.656 823.33 207.905C823.336 206.134 825.008 202.986 828.345 198.46C831.681 193.934 833.353 190.897 833.358 189.347C833.364 187.687 832.759 186.855 831.541 186.85C825.454 186.828 818.916 188.908 811.928 193.088C804.941 197.269 798.561 201.673 792.788 206.3C787.127 210.928 781.74 216.111 776.628 221.848C765.515 234.314 759.934 247.298 759.884 260.801C759.865 266.224 761.563 270.934 764.979 274.931C768.507 278.817 774.366 280.775 782.556 280.805C790.857 280.835 799.161 279.924 807.468 278.073C815.776 276.11 822.591 274.032 827.911 271.838C833.343 269.533 838.887 266.565 844.545 262.933ZM1006.95 251.401C1007.71 256.495 1008.08 260.536 1008.07 263.524C1008.06 266.402 1007.5 268.945 1006.38 271.155C1005.38 273.254 1003.04 276.289 999.376 280.26C995.82 284.121 991.545 288.035 986.55 292.001C974.34 301.586 961.871 306.355 949.144 306.309C930.882 306.243 921.781 298.131 921.84 281.972C921.891 267.916 934.223 239.96 958.835 198.102C959.726 196.555 960.339 195.451 960.673 194.788C952.129 200.734 935.745 216.999 911.52 243.585C887.407 270.061 871.346 288.818 863.337 299.857C862.669 300.85 861.005 301.951 858.344 303.159C855.683 304.367 853.578 304.968 852.029 304.962C850.59 304.957 849.042 304.454 847.386 303.451C845.618 302.56 844.513 302.113 844.07 302.111C842.632 302.106 841.914 301.605 841.918 300.609C841.921 299.724 843.931 294.695 847.949 285.524C851.857 276.241 857.045 264.749 863.514 251.048C881.25 213.261 907.604 164.104 942.578 103.579C954.83 82.3735 964.403 67.3559 971.297 58.5266C976.19 52.2356 984.391 49.111 995.902 49.1526C998.336 49.1614 999.717 49.8858 1000.04 51.3258C1000.37 52.7657 1000.53 54.3158 1000.53 55.976C1000.52 57.6361 1000.18 59.2951 999.511 60.9528L981.646 88.613C946.251 143.381 919.578 188.773 901.628 224.79C918.97 203.823 935.797 187.67 952.108 176.329C962.205 169.172 969.745 165.602 974.725 165.62C979.816 165.638 984.406 166.485 988.495 168.16C992.584 169.724 994.618 173.55 994.596 179.637C994.588 181.851 990.961 190.028 983.715 204.168C961.979 246.59 951.102 270.18 951.084 274.939C951.067 279.588 952.996 281.919 956.869 281.933C962.514 281.953 971.222 276.506 982.993 265.592C991.878 257.323 997.486 252.031 999.819 249.715C1001.15 248.724 1002.37 248.23 1003.48 248.234C1005.58 248.242 1006.74 249.297 1006.95 251.401ZM1087.6 124.025L1090.59 123.704C1092.25 123.71 1093.57 125.154 1094.56 128.035C1095.55 130.916 1096.04 132.855 1096.03 133.851C1096.03 134.847 1094.92 136.725 1092.69 139.483L1045.12 211.363C1061.78 194.821 1078.7 182.763 1095.88 175.189C1102.53 172.335 1108.52 170.918 1113.83 170.937C1119.25 170.957 1123.56 172.743 1126.76 176.296C1130.07 179.739 1131.71 184.062 1131.69 189.263C1131.67 194.465 1130.21 200.879 1127.3 208.505C1124.4 216.132 1120.44 224.252 1115.43 232.867C1110.53 241.482 1104.52 250.149 1097.4 258.866C1090.4 267.585 1083.01 275.471 1075.24 282.527C1067.57 289.582 1059.2 295.307 1050.11 299.702C1041.01 304.096 1033.04 306.281 1026.18 306.256C1012.34 306.206 1005.45 299.817 1005.49 287.089C992.472 306.853 977.445 330.263 960.413 357.317C943.381 384.372 934.253 398.672 933.03 400.217C931.807 401.762 930.808 402.533 930.033 402.53C929.148 402.527 927.877 402.024 926.22 401.022C924.453 400.02 922.633 398.353 920.76 396.022C918.887 393.691 917.958 390.312 917.975 385.885C917.88 381.457 919.169 376.98 921.842 372.451C936.874 347.603 965.82 300.891 1008.68 232.315C1051.65 163.629 1074.91 128.13 1078.46 125.819C1080.46 124.498 1082.46 123.841 1084.45 123.848L1087.6 124.025ZM1101.93 200.445C1101.94 198.121 1100.84 196.955 1098.63 196.947C1092.65 196.925 1079.94 206.065 1060.51 224.368C1041.18 242.67 1025.79 259.382 1014.34 274.504C1017.2 278.056 1021.46 279.842 1027.1 279.863C1032.75 279.883 1040.06 276.866 1049.05 270.811C1058.04 264.756 1066.36 257.592 1074.03 249.319C1081.7 240.935 1088.26 232.16 1093.72 222.994C1099.17 213.827 1101.91 206.311 1101.93 200.445ZM1254.76 175.099C1263.17 175.129 1267.37 178.022 1267.35 183.777C1267.33 186.876 1266.61 189.142 1265.16 190.576C1263.72 192.009 1260.6 196.813 1255.81 204.986C1251.14 213.048 1245.9 223.433 1240.09 236.14C1234.4 248.737 1230.71 259.514 1229.02 268.473C1228.68 269.579 1228.51 271.128 1228.5 273.12C1228.48 279.207 1230.13 282.257 1233.45 282.269C1236.77 282.281 1240.71 280.745 1245.26 277.663C1249.81 274.469 1253.86 271.108 1257.41 267.58C1260.97 263.94 1264.41 260.245 1267.75 256.494C1271.19 252.743 1273.25 250.592 1273.91 250.041C1274.58 249.491 1275.57 249.217 1276.9 249.222C1279.01 249.23 1280.27 250.839 1280.7 254.05C1281.13 257.262 1281.34 260.583 1281.33 264.014C1281.32 267.445 1280.98 269.823 1280.31 271.149C1277.08 277.446 1269.97 285.001 1258.98 293.816C1248.1 302.631 1238.18 307.022 1229.21 306.99C1220.36 306.958 1213.84 304.223 1209.65 298.784C1205.47 293.346 1203.38 287.362 1203.41 280.832C1203.43 274.191 1204.56 268.385 1206.79 263.412C1197.56 275.332 1186.96 285.421 1174.97 293.678C1163.1 301.936 1153.4 306.052 1145.87 306.024C1138.35 305.997 1132.21 303.706 1127.47 299.151C1121.41 293.485 1118.39 285.671 1118.43 275.71C1118.46 265.639 1120.71 255.575 1125.18 245.52C1129.75 235.354 1135.71 226.134 1143.04 217.859C1150.38 209.474 1158.43 201.867 1167.2 195.036C1185.62 180.715 1202.58 173.582 1218.08 173.638C1224.05 173.66 1228.92 174.673 1232.67 176.679C1236.43 178.685 1238.8 181.184 1239.79 184.176C1242.46 180.201 1244.68 177.719 1246.45 176.729C1248.34 175.629 1251.11 175.086 1254.76 175.099ZM1232.61 193.447C1213.69 193.378 1194.06 203.822 1173.73 224.777C1166.51 232.277 1159.83 241.273 1153.71 251.765C1147.69 262.258 1144.68 269.441 1144.67 273.315C1144.65 277.188 1145.75 279.129 1147.96 279.137C1151.06 279.148 1159.72 273.092 1173.93 260.969C1188.14 248.735 1197.58 239.749 1202.25 234.011C1207.37 227.61 1217.49 214.089 1232.61 193.447ZM1475.51 53.2102C1477.61 53.2178 1479.27 53.8879 1480.48 55.2204C1481.69 56.5529 1482.3 57.9386 1482.29 59.3774C1482.29 60.7055 1481.17 63.247 1478.95 67.002C1476.83 70.6467 1471.87 78.7083 1464.08 91.1867C1456.29 103.554 1450.22 113.272 1445.88 120.34C1420.61 161.089 1400.78 195.548 1386.4 223.719C1372.02 251.89 1364.82 268.909 1364.8 274.774L1364.79 276.103C1364.78 280.64 1366.43 282.915 1369.75 282.927C1373.07 282.939 1377.06 281.404 1381.72 278.322C1386.49 275.24 1390.65 271.935 1394.21 268.406C1397.76 264.877 1401.32 261.238 1404.87 257.488C1408.54 253.627 1410.76 251.366 1411.54 250.705C1412.31 250.044 1413.31 249.715 1414.53 249.72C1416.41 249.726 1417.62 250.948 1418.17 253.385C1418.71 255.711 1418.98 259.033 1418.96 263.349C1418.95 267.555 1418.6 270.32 1417.94 271.646C1414.7 277.832 1407.59 285.388 1396.6 294.313C1385.72 303.128 1375.41 307.518 1365.68 307.483C1349.07 307.423 1340.8 300.365 1340.85 286.309C1340.88 277.566 1344.24 266.123 1350.94 251.98C1341.93 263.569 1332.76 273.441 1323.44 281.598C1306.12 296.587 1291.09 304.059 1278.36 304.013C1271.28 303.987 1266.03 301.478 1262.62 296.485C1259.32 291.493 1257.68 284.348 1257.72 275.051C1257.75 265.644 1261.44 254.424 1268.8 241.39C1276.15 228.357 1285.27 216.658 1296.15 206.293C1307.15 195.819 1319.3 187.119 1332.6 180.195C1345.91 173.159 1358.15 169.662 1369.33 169.702C1372.87 169.715 1377.02 171.888 1381.76 176.222C1384.99 171.142 1390.95 160.981 1399.63 145.739C1426.92 100.128 1444.95 72.3024 1453.73 62.2624C1458.4 56.192 1465.66 53.1746 1475.51 53.2102ZM1371.58 191.791C1355.63 195.275 1340.77 202.636 1327 213.876C1313.24 225.115 1302.9 236.92 1295.99 249.291C1289.09 261.551 1285.63 269.508 1285.61 273.16C1285.6 276.812 1286.37 278.641 1287.92 278.647C1294.56 278.671 1311.05 263.9 1337.39 234.333C1350.5 219.771 1361.9 205.59 1371.58 191.791Z" fill="#8837F1"/>
</g>
<path d="M988.885 386.405C1001.34 386.405 1010.02 377.305 1010.02 364.425C1010.02 351.545 1001.2 342.445 988.745 342.445H960.185L960.325 386.405H988.885ZM950.245 434.565V333.485H989.165C1007.22 333.485 1019.82 346.225 1019.82 364.425C1019.82 382.625 1007.22 395.365 989.165 395.365H960.325V434.565H950.245ZM1039.03 378.285C1042.95 369.045 1053.45 362.605 1064.37 362.605V372.405C1050.93 372.405 1039.03 384.305 1039.03 397.885V434.565H1028.95V363.305H1039.03V378.285ZM1100.11 426.165C1114.11 426.165 1124.05 414.965 1124.05 399.005C1124.05 383.045 1114.11 371.845 1100.11 371.845C1086.11 371.845 1076.31 383.045 1076.31 399.005C1076.31 414.965 1086.11 426.165 1100.11 426.165ZM1066.23 399.005C1066.23 377.865 1080.23 362.885 1100.11 362.885C1120.13 362.885 1134.13 377.865 1134.13 399.005C1134.13 420.145 1120.13 435.125 1100.11 435.125C1080.23 435.125 1066.23 420.145 1066.23 399.005ZM1174.91 426.585C1188.21 426.585 1198.71 414.125 1198.71 399.565C1198.71 385.285 1188.07 372.825 1174.91 372.825C1160.91 372.825 1150.97 383.885 1150.97 399.565C1150.97 415.385 1160.91 426.585 1174.91 426.585ZM1140.89 399.565C1140.89 378.565 1154.89 363.865 1174.77 363.865C1185.41 363.865 1194.51 369.465 1198.71 378.565V363.305H1208.79V431.065C1208.51 451.925 1195.07 466.625 1174.07 466.625C1162.73 466.625 1152.65 461.585 1145.37 450.665L1153.63 445.625C1158.81 453.745 1165.95 457.665 1174.07 457.665C1189.19 457.665 1198.57 446.605 1198.71 430.925V420.285C1193.81 429.105 1183.87 435.545 1174.77 435.545C1154.89 435.545 1140.89 420.705 1140.89 399.565ZM1231.82 378.285C1235.74 369.045 1246.24 362.605 1257.16 362.605V372.405C1243.72 372.405 1231.82 384.305 1231.82 397.885V434.565H1221.74V363.305H1231.82V378.285ZM1293.04 426.585C1305.64 426.585 1316.98 415.245 1317.12 399.565C1316.98 384.025 1305.64 372.685 1293.04 372.685C1279.04 372.685 1269.1 383.745 1269.1 399.565C1269.1 415.385 1279.04 426.585 1293.04 426.585ZM1259.02 399.565C1259.02 378.565 1273.02 363.725 1292.9 363.725C1301.16 363.725 1310.4 368.065 1316.84 378.425V363.305H1326.92V434.565H1316.84V420.565C1310.12 431.485 1301.3 435.545 1292.9 435.545C1273.02 435.545 1259.02 420.705 1259.02 399.565ZM1430.66 390.885C1430.66 379.965 1423.8 372.265 1414 372.265C1402.66 372.265 1394.68 379.405 1394.68 389.485V434.565H1384.6V390.885C1384.6 379.965 1377.88 372.265 1368.22 372.265C1356.74 372.265 1348.76 382.065 1348.76 392.565V434.565H1338.68V363.305H1348.76V375.485C1352.82 368.345 1360.94 363.305 1368.22 363.305C1377.6 363.305 1386.84 369.185 1390.62 377.585C1394.96 369.185 1404.62 363.305 1414 363.305C1429.68 363.305 1440.74 374.225 1440.74 389.765V434.565H1430.66V390.885Z" fill="#1B1E24"/>
<path d="M58.2131 57.276L80.3391 111.296H73.3091L67.0931 96.126H41.7111L35.3471 111.296H28.3171L50.8131 57.276H58.2131ZM44.0051 90.428H64.7251L54.5131 65.416L44.0051 90.428ZM103.213 111.74C99.6612 111.74 94.3332 110.186 90.7812 104.414V111.296H84.2692V57.276H90.7812V80.364C94.3332 74.592 99.6612 73.038 103.287 73.038C113.943 73.038 121.565 81.03 121.565 92.352C121.565 103.748 113.943 111.74 103.213 111.74ZM90.7812 92.426C90.7812 100.048 96.3312 106.264 102.917 106.264C110.095 106.264 115.053 100.566 115.053 92.426C115.053 84.286 110.095 78.662 102.917 78.662C96.3312 78.662 90.7812 84.878 90.7812 92.426ZM143.129 105.968C150.085 105.968 154.969 100.344 154.969 92.204C154.969 84.138 150.085 78.514 143.129 78.514C136.173 78.514 131.363 84.138 131.363 92.204C131.363 100.344 136.173 105.968 143.129 105.968ZM124.851 92.204C124.851 80.882 132.399 72.89 143.129 72.89C153.933 72.89 161.481 80.882 161.481 92.204C161.481 103.526 153.933 111.518 143.129 111.518C132.399 111.518 124.851 103.526 124.851 92.204ZM173.24 95.09C173.24 101.38 177.162 105.672 182.786 105.672C189.076 105.672 193.442 101.306 193.442 95.016V73.038H199.954V111.296H193.442V104.858C191 108.558 186.412 111.222 182.416 111.222C173.24 111.222 166.728 104.858 166.728 95.608V73.038H173.24V95.09ZM226.75 109.964C225.27 110.482 223.79 111.148 220.904 111.148C214.688 111.148 210.248 106.708 210.248 100.344V78.958H203.884V73.26H210.248V63.122H216.76V73.26H226.454V78.958H216.76V100.344C216.76 103.304 218.61 105.376 221.2 105.376C222.902 105.45 224.826 104.562 224.974 104.488L226.75 109.964Z" fill="#1B1E24"/>
<path d="M887.576 410.238V416.024C887.576 416.667 888.147 417.294 888.818 417.261C889.488 417.228 890.059 416.717 890.059 416.024V410.238C890.059 409.595 889.488 408.968 888.818 409.001C888.147 409.034 887.576 409.545 887.576 410.238Z" fill="#CED3D8"/>
<path d="M877.801 424.332L882.594 424.241C883.24 424.233 883.869 423.681 883.836 423.005C883.803 422.329 883.289 421.752 882.594 421.768L877.801 421.859C877.156 421.867 876.527 422.42 876.56 423.096C876.593 423.771 877.106 424.348 877.801 424.332Z" fill="#CED3D8"/>
<path d="M896.841 424.332L901.633 424.241C902.279 424.233 902.908 423.681 902.875 423.005C902.842 422.329 902.329 421.752 901.633 421.768L896.841 421.859C896.195 421.867 895.566 422.42 895.599 423.096C895.632 423.771 896.145 424.348 896.841 424.332Z" fill="#CED3D8"/>
<path d="M887.98 429.197C887.98 430.878 888.171 432.552 888.121 434.233C888.105 434.884 888.709 435.503 889.363 435.47C890.017 435.437 890.588 434.926 890.604 434.233C890.654 432.552 890.464 430.878 890.464 429.197C890.464 428.554 889.893 427.927 889.222 427.96C888.552 427.993 887.98 428.504 887.98 429.197Z" fill="#CED3D8"/>
<path d="M10.0469 1.12873V6.40588C10.0469 6.99223 10.5677 7.56355 11.1792 7.53348C11.7907 7.50341 12.3115 7.03734 12.3115 6.40588V1.12873C12.3115 0.542383 11.7907 -0.0289323 11.1792 0.00113693C10.5677 0.0312062 10.0469 0.497279 10.0469 1.12873Z" fill="#CED3D8"/>
<path d="M1.13347 13.9822L5.50424 13.8995C6.09304 13.892 6.66675 13.3884 6.63656 12.772C6.60636 12.1555 6.13834 11.6293 5.50424 11.6444L1.13347 11.727C0.544657 11.7346 -0.0290536 12.2382 0.0011417 12.8546C0.031337 13.4711 0.499364 13.9973 1.13347 13.9822Z" fill="#CED3D8"/>
<path d="M18.4967 13.9822L22.8675 13.8995C23.4563 13.892 24.03 13.3884 23.9998 12.772C23.9696 12.1555 23.5016 11.6293 22.8675 11.6444L18.4967 11.727C17.9079 11.7346 17.3342 12.2382 17.3644 12.8546C17.3946 13.4711 17.8626 13.9973 18.4967 13.9822Z" fill="#CED3D8"/>
<path d="M10.416 18.4185C10.416 19.9521 10.5896 21.4781 10.5443 23.0116C10.5292 23.6055 11.0803 24.1693 11.6767 24.1392C12.273 24.1091 12.7939 23.6431 12.809 23.0116C12.8543 21.4781 12.6807 19.9521 12.6807 18.4185C12.6807 17.8322 12.1598 17.2609 11.5483 17.2909C10.9369 17.321 10.416 17.7871 10.416 18.4185Z" fill="#CED3D8"/>
<defs>
<filter id="filter0_b_8425_2200" x="40.156" y="35.739" width="1452.17" height="378.782" filterUnits="userSpaceOnUse" color-interpolation-filters="sRGB">
<feFlood flood-opacity="0" result="BackgroundImageFix"/>
<feGaussianBlur in="BackgroundImageFix" stdDeviation="5"/>
<feComposite in2="SourceAlpha" operator="in" result="effect1_backgroundBlur_8425_2200"/>
<feBlend mode="normal" in="SourceGraphic" in2="effect1_backgroundBlur_8425_2200" result="shape"/>
</filter>
</defs>
</svg>
