<svg width="282" height="192" viewBox="0 0 282 192" fill="none" xmlns="http://www.w3.org/2000/svg">
<g filter="url(#filter0_b_8557_13084)">
<path d="M40.0112 74.4458C34.5015 79.3631 27.9253 81.8218 20.2827 81.8218C15.6616 81.8218 12.3587 80.8442 10.374 78.8892C9.24837 77.8228 8.68555 75.9417 8.68555 73.2461C8.68555 69.099 11.8403 66.4181 18.1499 65.2036C20.1346 64.8185 22.5192 64.626 25.3037 64.626C28.0882 64.626 31.8947 65.1444 36.7231 66.1812C39.3003 63.3078 42.3662 59.0866 45.9209 53.5176C49.5052 47.9189 52.3341 43.6089 54.4077 40.5874C56.4813 37.5659 58.8363 34.4852 61.4727 31.3452C64.109 28.1756 66.8639 25.3171 69.7373 22.7695C75.5729 17.556 81.3493 14.9492 87.0664 14.9492C89.6139 14.9492 91.4505 15.6009 92.5762 16.9043C93.7018 18.1781 94.2646 19.7036 94.2646 21.481C94.2646 23.2287 93.45 25.2726 91.8208 27.6128C90.2212 29.953 88.355 32.0265 86.2222 33.8335C84.119 35.6405 82.0306 37.1808 79.957 38.4546C77.9131 39.6987 76.2987 40.3208 75.1138 40.3208C73.9289 40.3208 72.9069 39.8172 72.0479 38.8101C71.1888 37.8029 70.7593 36.8402 70.7593 35.9219C70.7593 34.974 70.8778 34.3223 71.1147 33.9668C71.3813 33.5817 71.6479 33.3892 71.9146 33.3892C72.1812 33.3892 72.3441 33.5521 72.4033 33.8779C73.3512 33.5817 74.862 32.6634 76.9355 31.123C79.0387 29.5531 80.9494 27.9238 82.6675 26.2354C84.3856 24.5469 85.2446 23.4953 85.2446 23.0806C85.2446 22.6362 84.978 22.4141 84.4448 22.4141C83.9412 22.4141 83.2451 22.5918 82.3564 22.9473C81.4678 23.3027 80.2829 24.0433 78.8018 25.1689C77.3206 26.265 75.721 27.6868 74.0029 29.4346C69.8558 33.5817 65.2347 39.4618 60.1396 47.0747C58.9548 48.7928 57.2811 51.2959 55.1187 54.584C50.7049 61.249 47.5501 65.8109 45.6543 68.2695C60.8506 72.2686 71.7072 74.2681 78.2241 74.2681C81.2456 74.2681 83.3636 73.883 84.5781 73.1128C85.0225 72.8462 85.3187 72.7129 85.4668 72.7129C85.6149 72.7129 85.689 72.8314 85.689 73.0684C85.689 73.3053 85.5557 73.6608 85.2891 74.1348C85.0225 74.6087 84.356 75.6159 83.2896 77.1562C82.2528 78.6966 81.4826 79.6149 80.979 79.9111C79.5275 80.7702 77.054 81.1997 73.5586 81.1997C70.0928 81.1997 66.7751 80.9479 63.6055 80.4443C60.4655 79.9408 57.9328 79.452 56.0073 78.978C54.0819 78.4744 51.2233 77.6746 47.4316 76.5786C43.6696 75.4826 41.1961 74.7716 40.0112 74.4458ZM23.793 71.7354C19.9124 71.7354 17.9722 72.1945 17.9722 73.1128C17.9722 73.4683 18.298 73.7793 18.9497 74.0459C19.631 74.3125 20.4308 74.4458 21.3491 74.4458C24.2225 74.4458 26.9922 73.6904 29.6582 72.1797C27.3773 71.8835 25.4222 71.7354 23.793 71.7354ZM115.772 46.2305C118.024 46.2305 119.149 47.0007 119.149 48.541C119.149 49.3704 118.957 49.9777 118.572 50.3628C118.187 50.7479 117.357 52.0365 116.083 54.2285C114.839 56.391 113.447 59.1755 111.907 62.582C110.396 65.959 109.418 68.8472 108.974 71.2466C108.885 71.5428 108.841 71.9575 108.841 72.4907C108.841 74.12 109.285 74.9346 110.174 74.9346C111.062 74.9346 112.114 74.5199 113.328 73.6904C114.543 72.8314 115.624 71.9279 116.572 70.98C117.52 70.0024 118.438 69.0101 119.327 68.0029C120.245 66.9958 120.793 66.4181 120.971 66.27C121.149 66.1219 121.415 66.0479 121.771 66.0479C122.334 66.0479 122.674 66.4774 122.793 67.3364C122.911 68.1955 122.971 69.0841 122.971 70.0024C122.971 70.9207 122.882 71.5576 122.704 71.9131C121.845 73.6016 119.949 75.6307 117.016 78.0005C114.113 80.3703 111.462 81.5552 109.063 81.5552C106.693 81.5552 104.945 80.8294 103.82 79.3779C102.694 77.9264 102.131 76.3268 102.131 74.5791C102.131 72.8018 102.427 71.2466 103.02 69.9136C100.561 73.1128 97.7322 75.8232 94.533 78.0449C91.3634 80.2666 88.7715 81.3774 86.7571 81.3774C84.7428 81.3774 83.0988 80.7702 81.825 79.5557C80.1958 78.0449 79.3812 75.9565 79.3812 73.2905C79.3812 70.5949 79.9736 67.8993 81.1585 65.2036C82.373 62.4784 83.9578 60.0049 85.9129 57.7832C87.868 55.5319 90.0156 53.488 92.3558 51.6514C97.2731 47.8005 101.805 45.875 105.952 45.875C107.552 45.875 108.855 46.1416 109.863 46.6748C110.87 47.208 111.507 47.8745 111.773 48.6743C112.484 47.6079 113.077 46.9414 113.551 46.6748C114.054 46.3786 114.795 46.2305 115.772 46.2305ZM109.863 51.1626C104.797 51.1626 99.554 53.9767 94.1331 59.605C92.2077 61.6193 90.4303 64.0335 88.8011 66.8477C87.2015 69.6618 86.4017 71.5872 86.4017 72.624C86.4017 73.6608 86.6979 74.1792 87.2904 74.1792C88.1198 74.1792 90.4303 72.55 94.222 69.2915C98.0137 66.0034 100.532 63.5892 101.776 62.0488C103.138 60.3307 105.834 56.702 109.863 51.1626ZM154.742 66.0479C155.305 66.0479 155.646 66.4774 155.764 67.3364C155.883 68.1955 155.942 69.0841 155.942 70.0024C155.942 70.9207 155.853 71.5576 155.675 71.9131C154.816 73.5719 152.935 75.6011 150.032 78.0005C147.129 80.3703 144.374 81.5552 141.768 81.5552C140.168 81.5552 138.687 81.0664 137.324 80.0889C135.962 79.141 135.28 77.4673 135.28 75.0679C135.28 72.6685 135.917 70.3135 137.191 68.0029C129.845 77.2155 124.083 81.8218 119.906 81.8218C118.248 81.8218 116.9 81.2293 115.863 80.0444C114.856 78.8595 114.352 77.645 114.352 76.4009C114.352 75.1271 114.53 73.8237 114.885 72.4907C115.241 71.1281 115.611 69.9136 115.996 68.8472C116.411 67.7808 117.003 66.4626 117.774 64.8926C118.573 63.3226 119.166 62.1821 119.551 61.4712C119.936 60.7603 120.543 59.6938 121.373 58.272C122.232 56.8205 123.343 54.8802 124.705 52.4512C126.097 50.0221 127.238 48.23 128.127 47.0747C129.045 45.8898 129.934 45.2974 130.793 45.2974C131.652 45.2677 132.407 45.6084 133.059 46.3193C133.71 47.0303 134.036 47.6079 134.036 48.0522C134.036 48.4966 133.044 50.4961 131.059 54.0508C125.194 64.6556 122.261 70.8319 122.261 72.5796C122.261 73.0239 122.424 73.2461 122.75 73.2461C124.172 73.2461 127.712 70.1654 133.37 64.0039C139.028 57.8424 142.301 53.9027 143.19 52.1846C144.078 50.4368 144.937 48.9705 145.767 47.7856C146.626 46.6007 147.263 45.875 147.677 45.6084C148.951 44.779 150.595 44.3346 152.61 44.2754C152.935 44.2754 153.187 44.2902 153.365 44.3198C153.543 44.3494 153.75 44.6012 153.987 45.0752C154.224 45.5492 154.342 45.9194 154.342 46.186C154.076 47.0155 152.891 49.2223 150.788 52.8066C148.714 56.391 147.559 58.4201 147.322 58.894C143.826 66.1219 142.079 70.8319 142.079 73.0239C142.079 74.2681 142.553 74.8901 143.501 74.8901C145.219 74.6532 147.292 73.2757 149.721 70.7578C150.61 69.8395 151.484 68.9064 152.343 67.9585C153.232 67.0106 153.78 66.4626 153.987 66.3145C154.194 66.1367 154.446 66.0479 154.742 66.0479ZM174.473 73.1572C174.473 74.4606 175.361 75.1123 177.139 75.1123C178.087 75.1123 179.271 74.6383 180.693 73.6904C182.145 72.7425 183.448 71.7057 184.603 70.5801C187.684 67.529 189.432 66.0034 189.847 66.0034C190.617 66.0034 191.002 67.1143 191.002 69.3359C191.002 71.5576 190.306 73.0832 188.914 73.9126C184.678 77.7339 181.404 80.0592 179.094 80.8887C177.79 81.333 176.354 81.5404 174.784 81.5107C173.214 81.4811 171.658 80.7998 170.118 79.4668C168.578 78.1338 167.808 76.5194 167.808 74.6235C167.808 72.6981 168.311 70.5208 169.318 68.0918C170.325 65.6628 171.347 63.5892 172.384 61.8711C173.451 60.1234 174.754 58.109 176.294 55.8281C177.835 53.5176 178.649 52.0809 178.738 51.5181L178.649 51.4292C177.672 51.5181 175.243 53.4435 171.362 57.2056C167.511 60.9676 164.327 64.2409 161.809 67.0254C159.291 69.8099 156.284 73.5275 152.789 78.1782C151.811 79.452 151.012 80.0889 150.39 80.0889C149.768 80.0889 148.938 79.8963 147.901 79.5112C146.835 79.0965 146.183 78.8003 145.946 78.6226C145.709 78.4448 145.591 78.1782 145.591 77.8228C145.591 77.4673 145.694 77.0378 145.902 76.5342C146.109 76.001 146.317 75.5715 146.524 75.2456C146.702 74.8901 147.013 74.3569 147.457 73.646C147.901 72.9351 148.775 71.4391 150.079 69.1582C151.412 66.8477 153.441 63.4115 156.166 58.8496C158.891 54.2878 160.52 51.5329 161.054 50.585C162.179 48.6299 163.098 47.208 163.809 46.3193C165.142 44.6309 167.393 43.7866 170.562 43.7866C171.273 43.7866 171.629 44.231 171.629 45.1196C171.629 46.5119 170.34 49.1335 167.763 52.9844L165.897 55.7837C171.022 50.0962 175.346 46.4971 178.872 44.9863C180.59 44.2458 182.13 43.8755 183.493 43.8755C184.885 43.8755 185.981 44.2458 186.781 44.9863C187.61 45.7269 188.025 46.5563 188.025 47.4746C188.025 48.3633 187.714 49.4445 187.092 50.7183C186.47 51.9624 185.833 53.0881 185.181 54.0952C184.559 55.0728 183.73 56.3169 182.693 57.8276C181.656 59.3384 181.093 60.1678 181.004 60.3159C180.915 60.4344 180.679 60.7899 180.293 61.3823C179.938 61.9451 179.671 62.3599 179.494 62.6265C179.316 62.8931 179.02 63.367 178.605 64.0483C178.19 64.7 177.85 65.248 177.583 65.6924C177.346 66.1367 177.035 66.6847 176.65 67.3364C176.294 67.9881 175.998 68.5509 175.761 69.0249C175.554 69.4989 175.332 70.0173 175.095 70.5801C174.68 71.6169 174.473 72.4759 174.473 73.1572ZM213.887 70.1357C215.427 69.1582 216.42 68.4917 216.864 68.1362C217.308 67.7511 217.827 67.3068 218.419 66.8032C219.012 66.2996 219.5 66.0479 219.886 66.0479C220.478 66.0479 220.774 66.7292 220.774 68.0918C220.774 69.4248 220.108 70.8763 218.775 72.4463C217.471 73.9867 215.842 75.3049 213.887 76.4009C211.932 77.4673 209.844 78.4004 207.622 79.2002C203.208 80.8294 199.446 81.644 196.336 81.644C193.255 81.644 190.47 80.6369 187.982 78.6226C185.494 76.5786 184.25 73.9274 184.25 70.6689C184.25 67.3809 185.064 64.1076 186.694 60.8491C188.323 57.561 190.411 54.6877 192.959 52.229C195.536 49.7407 198.513 47.7264 201.89 46.186C205.296 44.6457 208.659 43.8755 211.976 43.8755C213.576 43.8755 215.013 44.3346 216.286 45.2529C217.56 46.1712 218.197 47.4302 218.197 49.0298C218.197 50.6294 217.397 52.5549 215.798 54.8062C214.228 57.0278 212.628 58.1387 210.999 58.1387C209.103 58.1387 208.155 57.2352 208.155 55.4282C208.155 54.9543 208.599 54.11 209.488 52.8955C210.377 51.681 210.821 50.8664 210.821 50.4517C210.821 50.0073 210.658 49.7852 210.332 49.7852C208.703 49.7852 206.955 50.348 205.089 51.4736C203.223 52.5993 201.52 53.7842 199.979 55.0283C198.469 56.2725 197.032 57.6647 195.669 59.2051C192.707 62.5524 191.226 66.033 191.226 69.647C191.226 71.0985 191.685 72.3574 192.603 73.4238C193.551 74.4606 195.121 74.979 197.313 74.979C199.535 74.979 201.757 74.7272 203.978 74.2236C206.2 73.6904 208.022 73.1276 209.444 72.5352C210.895 71.9131 212.376 71.1133 213.887 70.1357ZM255.523 66.8921C255.73 68.2547 255.834 69.3359 255.834 70.1357C255.834 70.9059 255.686 71.5872 255.39 72.1797C255.123 72.7425 254.501 73.5571 253.524 74.6235C252.576 75.6603 251.435 76.7119 250.102 77.7783C246.844 80.3555 243.511 81.644 240.105 81.644C235.217 81.644 232.773 79.4816 232.773 75.1567C232.773 71.3947 236.046 63.9002 242.593 52.6733C242.83 52.2586 242.993 51.9624 243.082 51.7847C240.801 53.3843 236.431 57.7536 229.974 64.8926C223.546 72.002 219.265 77.0378 217.132 80C216.955 80.2666 216.51 80.5628 215.799 80.8887C215.088 81.2145 214.526 81.3774 214.111 81.3774C213.726 81.3774 213.311 81.2441 212.867 80.9775C212.393 80.7406 212.097 80.6221 211.978 80.6221C211.593 80.6221 211.4 80.4888 211.4 80.2222C211.4 79.9852 211.934 78.6374 213 76.1787C214.037 73.6904 215.414 70.6097 217.132 66.9365C221.842 56.8057 228.848 43.6237 238.15 27.3906C241.408 21.7031 243.955 17.6745 245.792 15.3047C247.095 13.6162 249.288 12.772 252.368 12.772C253.02 12.772 253.39 12.9645 253.479 13.3496C253.568 13.7347 253.612 14.1494 253.612 14.5938C253.612 15.0381 253.524 15.4824 253.346 15.9268L248.591 23.3472C239.171 38.0399 232.077 50.2147 227.308 59.8716C231.929 54.2433 236.417 49.9036 240.771 46.8525C243.467 44.9271 245.481 43.9644 246.814 43.9644C248.177 43.9644 249.406 44.1865 250.502 44.6309C251.598 45.0456 252.146 46.0675 252.146 47.6968C252.146 48.2892 251.183 50.4813 249.258 54.2729C243.482 65.6479 240.593 71.9723 240.593 73.2461C240.593 74.4902 241.112 75.1123 242.149 75.1123C243.659 75.1123 245.985 73.646 249.125 70.7134C251.494 68.4917 252.99 67.0698 253.612 66.4478C253.968 66.1812 254.294 66.0479 254.59 66.0479C255.153 66.0479 255.464 66.3293 255.523 66.8921ZM179.725 87.7227L180.524 87.6338C180.969 87.6338 181.324 88.0189 181.591 88.7891C181.857 89.5592 181.991 90.0776 181.991 90.3442C181.991 90.6108 181.695 91.1144 181.102 91.855L168.439 111.139C172.882 106.696 177.399 103.452 181.991 101.408C183.768 100.638 185.368 100.253 186.79 100.253C188.241 100.253 189.396 100.727 190.255 101.675C191.144 102.593 191.588 103.748 191.588 105.141C191.588 106.533 191.203 108.251 190.433 110.295C189.663 112.339 188.611 114.516 187.278 116.827C185.975 119.137 184.375 121.463 182.48 123.803C180.613 126.143 178.643 128.261 176.57 130.157C174.526 132.053 172.289 133.593 169.86 134.778C167.431 135.963 165.299 136.555 163.462 136.555C159.759 136.555 157.908 134.852 157.908 131.445C154.442 136.748 150.443 143.028 145.911 150.285C141.378 157.543 138.949 161.379 138.624 161.793C138.298 162.208 138.031 162.416 137.824 162.416C137.587 162.416 137.246 162.282 136.802 162.016C136.328 161.749 135.839 161.305 135.336 160.683C134.832 160.061 134.58 159.157 134.58 157.972C134.551 156.787 134.891 155.588 135.602 154.373C139.601 147.708 147.303 135.178 158.708 116.782C170.142 98.3571 176.333 88.8335 177.281 88.2114C177.814 87.856 178.347 87.6782 178.88 87.6782L179.725 87.7227ZM183.635 108.162C183.635 107.54 183.339 107.229 182.746 107.229C181.147 107.229 177.755 109.688 172.571 114.605C167.417 119.522 163.314 124.01 160.263 128.068C161.033 129.016 162.173 129.49 163.684 129.49C165.195 129.49 167.15 128.676 169.549 127.046C171.949 125.417 174.17 123.492 176.214 121.27C178.258 119.019 180.006 116.664 181.458 114.205C182.909 111.746 183.635 109.732 183.635 108.162ZM222.694 101.23C224.945 101.23 226.071 102.001 226.071 103.541C226.071 104.37 225.878 104.978 225.493 105.363C225.108 105.748 224.279 107.036 223.005 109.229C221.761 111.391 220.368 114.175 218.828 117.582C217.317 120.959 216.34 123.847 215.895 126.247C215.807 126.543 215.762 126.958 215.762 127.491C215.762 129.12 216.206 129.935 217.095 129.935C217.984 129.935 219.035 129.52 220.25 128.69C221.464 127.831 222.546 126.928 223.494 125.98C224.441 125.002 225.36 124.01 226.248 123.003C227.167 121.996 227.715 121.418 227.892 121.27C228.07 121.122 228.337 121.048 228.692 121.048C229.255 121.048 229.596 121.477 229.714 122.336C229.833 123.195 229.892 124.084 229.892 125.002C229.892 125.921 229.803 126.558 229.625 126.913C228.766 128.602 226.87 130.631 223.938 133C221.035 135.37 218.384 136.555 215.984 136.555C213.614 136.555 211.867 135.829 210.741 134.378C209.615 132.926 209.053 131.327 209.053 129.579C209.053 127.802 209.349 126.247 209.941 124.914C207.483 128.113 204.654 130.823 201.454 133.045C198.285 135.267 195.693 136.377 193.679 136.377C191.664 136.377 190.02 135.77 188.746 134.556C187.117 133.045 186.303 130.957 186.303 128.291C186.303 125.595 186.895 122.899 188.08 120.204C189.294 117.478 190.879 115.005 192.834 112.783C194.789 110.532 196.937 108.488 199.277 106.651C204.195 102.8 208.727 100.875 212.874 100.875C214.474 100.875 215.777 101.142 216.784 101.675C217.791 102.208 218.428 102.875 218.695 103.674C219.406 102.608 219.998 101.941 220.472 101.675C220.976 101.379 221.716 101.23 222.694 101.23ZM216.784 106.163C211.719 106.163 206.475 108.977 201.055 114.605C199.129 116.619 197.352 119.034 195.723 121.848C194.123 124.662 193.323 126.587 193.323 127.624C193.323 128.661 193.619 129.179 194.212 129.179C195.041 129.179 197.352 127.55 201.143 124.292C204.935 121.003 207.453 118.589 208.697 117.049C210.06 115.331 212.755 111.702 216.784 106.163ZM279.837 68.394C280.4 68.394 280.844 68.5718 281.17 68.9272C281.496 69.2827 281.659 69.653 281.659 70.0381C281.659 70.3936 281.363 71.0749 280.77 72.082C280.207 73.0596 278.889 75.222 276.816 78.5693C274.742 81.887 273.128 84.4938 271.972 86.3896C265.248 97.3203 259.975 106.562 256.154 114.116C252.333 121.67 250.422 126.232 250.422 127.802V128.157C250.422 129.372 250.866 129.979 251.755 129.979C252.644 129.979 253.71 129.564 254.954 128.735C256.228 127.905 257.339 127.017 258.287 126.069C259.235 125.121 260.183 124.143 261.131 123.136C262.108 122.099 262.701 121.492 262.908 121.314C263.115 121.137 263.382 121.048 263.708 121.048C264.211 121.048 264.537 121.374 264.685 122.025C264.833 122.647 264.907 123.536 264.907 124.691C264.907 125.817 264.819 126.558 264.641 126.913C263.782 128.572 261.886 130.601 258.953 133C256.05 135.37 253.295 136.555 250.689 136.555C246.245 136.555 244.024 134.674 244.024 130.912C244.024 128.572 244.912 125.506 246.69 121.714C244.29 124.825 241.846 127.476 239.358 129.668C234.737 133.697 230.723 135.711 227.317 135.711C225.421 135.711 224.014 135.044 223.095 133.711C222.207 132.378 221.762 130.468 221.762 127.979C221.762 125.462 222.74 122.455 224.695 118.959C226.65 115.464 229.079 112.324 231.982 109.54C234.915 106.725 238.158 104.385 241.713 102.519C245.268 100.623 248.541 99.6753 251.533 99.6753C252.481 99.6753 253.592 100.253 254.865 101.408C255.724 100.046 257.309 97.3203 259.62 93.2324C266.877 80.9984 271.676 73.5335 274.016 70.8379C275.26 69.2087 277.201 68.394 279.837 68.394ZM252.155 105.585C247.889 106.533 243.92 108.518 240.247 111.539C236.574 114.561 233.819 117.73 231.982 121.048C230.146 124.336 229.227 126.469 229.227 127.446C229.227 128.424 229.435 128.913 229.849 128.913C231.627 128.913 236.026 124.943 243.046 117.004C246.542 113.094 249.578 109.288 252.155 105.585Z" fill="#8837F1"/>
</g>
<path d="M87.0412 171.607C87.0412 171.607 114.107 171.183 110.397 181.376C106.686 191.569 67.2555 190.453 67.2555 190.453C67.2555 190.453 19.8548 190.171 17.2478 188.219L13.5778 186.449L87.4626 186.976L87.0412 171.607Z" fill="#1B1E24"/>
<path d="M87.0412 171.607L87.0256 170.607L86.0139 170.623L86.0416 171.634L87.0412 171.607ZM67.2555 190.453L67.2838 189.453L67.2726 189.453L67.2614 189.453L67.2555 190.453ZM17.2478 188.219L17.8472 187.419L17.7695 187.36L17.6822 187.318L17.2478 188.219ZM13.5778 186.449L13.5849 185.449C13.1171 185.446 12.7095 185.767 12.6037 186.223C12.4978 186.678 12.722 187.147 13.1434 187.35L13.5778 186.449ZM87.4626 186.976L87.4555 187.976L88.4906 187.984L88.4622 186.949L87.4626 186.976ZM87.0412 171.607C87.0569 172.607 87.0568 172.607 87.0568 172.607C87.057 172.607 87.0571 172.607 87.0574 172.607C87.058 172.607 87.0589 172.607 87.0603 172.607C87.0631 172.607 87.0675 172.606 87.0735 172.606C87.0855 172.606 87.1039 172.606 87.1283 172.606C87.1774 172.605 87.251 172.605 87.3474 172.604C87.5403 172.604 87.8243 172.604 88.1856 172.608C88.9083 172.617 89.9386 172.64 91.1641 172.699C93.62 172.817 96.838 173.079 99.9279 173.652C103.049 174.231 105.909 175.103 107.744 176.372C108.649 176.998 109.24 177.676 109.53 178.401C109.81 179.104 109.849 179.955 109.457 181.034L111.336 181.718C111.871 180.248 111.876 178.883 111.387 177.659C110.906 176.455 109.992 175.495 108.881 174.727C106.684 173.208 103.474 172.275 100.292 171.686C97.0797 171.09 93.7632 170.822 91.2604 170.701C90.0064 170.64 88.9513 170.617 88.2083 170.609C87.8367 170.604 87.5429 170.604 87.3411 170.604C87.2402 170.605 87.1623 170.605 87.1091 170.606C87.0825 170.606 87.0621 170.606 87.0481 170.607C87.0411 170.607 87.0357 170.607 87.032 170.607C87.0301 170.607 87.0286 170.607 87.0275 170.607C87.027 170.607 87.0265 170.607 87.0262 170.607C87.0258 170.607 87.0256 170.607 87.0412 171.607ZM109.457 181.034C109.093 182.034 108.258 182.98 106.927 183.858C105.6 184.733 103.851 185.492 101.79 186.141C97.6701 187.438 92.4739 188.246 87.3388 188.741C82.2141 189.235 77.1983 189.414 73.46 189.468C71.5919 189.495 70.0453 189.491 68.9668 189.481C68.4276 189.475 68.0055 189.468 67.7188 189.463C67.5755 189.46 67.4661 189.457 67.3928 189.456C67.3562 189.455 67.3286 189.454 67.3103 189.454C67.3012 189.453 67.2944 189.453 67.2899 189.453C67.2877 189.453 67.2861 189.453 67.2851 189.453C67.2845 189.453 67.2842 189.453 67.284 189.453C67.2838 189.453 67.2838 189.453 67.2555 190.453C67.2272 191.452 67.2274 191.452 67.2279 191.452C67.2282 191.452 67.2288 191.452 67.2295 191.452C67.2308 191.452 67.2328 191.452 67.2354 191.452C67.2405 191.452 67.248 191.453 67.2578 191.453C67.2775 191.453 67.3065 191.454 67.3446 191.455C67.4207 191.457 67.5332 191.46 67.6796 191.462C67.9723 191.468 68.401 191.475 68.9472 191.481C70.0396 191.491 71.6025 191.495 73.4891 191.468C77.26 191.413 82.3338 191.233 87.5307 190.732C92.7171 190.232 98.0743 189.408 102.391 188.048C104.549 187.369 106.489 186.542 108.028 185.527C109.564 184.515 110.773 183.266 111.336 181.718L109.457 181.034ZM67.2555 190.453C67.2614 189.453 67.2612 189.453 67.2609 189.453C67.2605 189.453 67.26 189.453 67.2593 189.453C67.2579 189.453 67.2558 189.453 67.2529 189.452C67.2472 189.452 67.2387 189.452 67.2274 189.452C67.2047 189.452 67.1708 189.452 67.126 189.452C67.0365 189.451 66.9035 189.45 66.7298 189.449C66.3825 189.446 65.8725 189.442 65.2225 189.437C63.9223 189.425 62.0619 189.407 59.821 189.378C55.339 189.321 49.3372 189.225 43.255 189.068C37.1705 188.911 31.0156 188.693 26.2237 188.394C23.8257 188.244 21.7846 188.074 20.2699 187.883C19.5108 187.788 18.903 187.689 18.4566 187.59C18.2331 187.54 18.0662 187.493 17.9491 187.453C17.8166 187.407 17.8058 187.388 17.8472 187.419L16.6484 189.02C16.8527 189.173 17.0923 189.272 17.2921 189.342C17.5073 189.417 17.7546 189.482 18.0215 189.542C18.5558 189.661 19.2337 189.769 20.0202 189.868C21.5967 190.066 23.6865 190.239 26.0989 190.39C30.9279 190.692 37.1119 190.91 43.2034 191.068C49.2973 191.225 55.3086 191.321 59.7957 191.378C62.0394 191.406 63.9025 191.425 65.2048 191.437C65.8559 191.442 66.3669 191.446 66.7152 191.449C66.8893 191.45 67.0228 191.451 67.1128 191.452C67.1578 191.452 67.1919 191.452 67.2148 191.452C67.2263 191.452 67.2349 191.452 67.2407 191.452C67.2436 191.452 67.2458 191.452 67.2473 191.452C67.248 191.452 67.2486 191.453 67.2489 191.453C67.2493 191.453 67.2495 191.453 67.2555 190.453ZM17.6822 187.318L14.0122 185.548L13.1434 187.35L16.8134 189.12L17.6822 187.318ZM13.5706 187.449L87.4555 187.976L87.4698 185.976L13.5849 185.449L13.5706 187.449ZM88.4622 186.949L88.0408 171.579L86.0416 171.634L86.463 187.004L88.4622 186.949Z" fill="#1B1E24"/>
<path d="M87.0622 176.709C63.0043 176.593 37.4208 176.511 13.3215 176.4C13.4542 175.733 13.761 175.111 14.0678 174.493C15.6432 171.301 17.2185 168.105 18.7939 164.913C19.0012 164.493 19.2334 164.044 19.6563 163.834C19.9589 163.686 20.3154 163.686 20.6554 163.69C26.1195 163.76 31.5795 163.826 37.0394 163.892C36.3056 165.955 35.6174 167.99 34.979 169.967C44.2572 170.103 53.5354 170.239 62.8136 170.374C63.4687 168.052 64.1237 165.725 64.7787 163.402C69.9858 163.373 75.1887 163.348 80.3999 163.319C80.8891 163.315 81.3991 163.319 81.8385 163.534C82.3775 163.797 82.7133 164.337 83.0076 164.851C85.0888 168.505 86.461 172.553 87.0622 176.709Z" fill="white"/>
<path d="M87.0953 186.086C85.238 186.14 83.3848 186.194 81.5275 186.239C59.9737 186.791 38.4033 186.787 16.8454 186.218C15.8463 186.194 14.8513 186.169 13.8521 186.14C13.6656 183.562 13.4749 180.984 13.2842 178.401C13.2386 177.763 13.193 177.116 13.3049 176.486C13.3091 176.457 13.3173 176.428 13.3215 176.4C37.4208 176.511 63.0043 176.593 87.0621 176.709C87.5099 179.814 87.5265 182.977 87.0953 186.086Z" fill="white"/>
<path d="M87.0956 184.851C77.5603 185.127 68.0251 185.312 58.4898 185.382C48.9504 185.452 39.4069 185.411 29.8675 185.259C24.5278 185.172 19.1922 185.057 13.8566 184.905L15.1003 186.14C14.9842 184.513 14.864 182.882 14.7438 181.256C14.6857 180.44 14.6235 179.625 14.5614 178.809C14.5116 178.138 14.3955 177.396 14.524 176.729L13.3259 177.635C22.9109 177.681 32.4959 177.718 42.0851 177.755C51.6742 177.792 61.3794 177.829 71.0266 177.87C76.3746 177.891 81.7227 177.915 87.0707 177.94L85.8726 177.034C86.2789 179.905 86.2955 182.878 85.9058 185.753C85.8145 186.412 86.0633 187.079 86.7764 187.273C87.3568 187.429 88.2149 187.075 88.3061 186.408C88.7622 183.055 88.7456 179.723 88.273 176.371C88.1984 175.844 87.5682 175.465 87.0749 175.465C77.4981 175.42 67.9214 175.378 58.3489 175.341C48.6976 175.304 39.0504 175.267 29.399 175.226C24.0427 175.205 18.6905 175.181 13.3342 175.156C12.8243 175.156 12.2356 175.539 12.1361 176.062C11.8252 177.685 12.1278 179.41 12.248 181.041C12.3683 182.672 12.4968 184.435 12.6211 186.132C12.6709 186.811 13.1518 187.347 13.8649 187.367C23.367 187.639 32.8732 187.8 42.3794 187.853C51.8856 187.907 61.4623 187.853 71.0017 187.689C76.3705 187.598 81.7393 187.466 87.108 187.31C88.7041 187.265 88.7124 184.793 87.108 184.839L87.0956 184.851Z" fill="#1B1E24"/>
<path d="M87.0635 175.473C77.4868 175.428 67.9101 175.386 58.3376 175.349C48.6862 175.312 39.0391 175.275 29.3877 175.234C24.0314 175.213 18.6792 175.189 13.3229 175.164L14.521 176.729C14.7242 175.827 15.1885 175.02 15.5948 174.196C16.0508 173.274 16.5027 172.355 16.9587 171.433C17.8542 169.621 18.7456 167.808 19.641 165.996C19.8069 165.658 19.9851 165.292 20.1717 164.987C20.1966 164.946 20.3873 164.831 20.2132 164.921C20.039 165.012 20.238 164.921 20.3085 164.921C20.5241 164.921 20.7438 164.921 20.9635 164.925C21.9875 164.938 23.0115 164.95 24.0355 164.962C26.0504 164.987 28.0652 165.012 30.0759 165.037C32.3975 165.065 36.8837 165.094 39.2053 165.119L38.0072 163.554C37.29 165.568 36.606 167.594 35.9468 169.629C35.6939 170.407 36.3696 171.181 37.1449 171.194C44.3627 171.301 49.4076 171.404 56.6254 171.511C58.6858 171.54 59.3046 171.573 61.3651 171.602C61.9123 171.61 62.4181 171.21 62.5632 170.695C63.2182 168.373 63.8732 166.046 64.5283 163.723L63.3301 164.629C67.6127 164.604 73.3411 164.584 77.6195 164.563C78.6518 164.559 79.6924 164.522 80.7247 164.551C81.4419 164.571 81.6119 164.909 81.9767 165.551C82.9012 167.182 83.6765 168.887 84.2983 170.654C85.0238 172.726 85.542 174.863 85.8613 177.034C85.9608 177.693 86.8024 178.059 87.3911 177.899C88.1041 177.705 88.357 177.042 88.2617 176.379C87.6605 172.302 86.338 168.331 84.3522 164.711C83.8837 163.855 83.3697 162.932 82.4659 162.462C81.4916 161.956 80.3267 162.079 79.2695 162.088C77.0101 162.1 74.7465 162.112 72.487 162.125C69.9167 162.137 65.9047 162.149 63.3343 162.166C62.787 162.166 62.2813 162.549 62.1362 163.072C61.4811 165.395 60.8261 167.722 60.1711 170.045L61.3692 169.139C54.1514 169.032 48.3836 168.929 41.1658 168.822C39.1054 168.793 39.2095 168.76 37.149 168.731L38.3472 170.296C39.0063 168.261 38.2446 166.235 38.2389 164.221C38.5125 163.447 39.9682 162.664 39.2095 162.656C34.873 162.603 28.372 162.553 24.0355 162.495C22.9411 162.483 21.8507 162.467 20.7563 162.454C19.6618 162.442 18.6792 162.751 18.0242 163.735C17.4604 164.584 17.079 165.588 16.6271 166.499C16.142 167.483 15.657 168.463 15.1719 169.448C14.6247 170.551 14.0816 171.659 13.5343 172.763C12.9871 173.867 12.3777 174.905 12.1165 176.07C11.9424 176.849 12.4772 177.631 13.3146 177.635C22.8996 177.68 32.4846 177.718 42.0737 177.755C51.6629 177.792 61.3681 177.829 71.0153 177.87C76.3633 177.891 81.7114 177.915 87.0594 177.94C88.6597 177.948 88.6638 175.477 87.0594 175.469L87.0635 175.473Z" fill="#1B1E24"/>
<path d="M70.1227 169.262L61.6778 169.139C61.0062 169.131 60.4341 169.715 60.4341 170.374C60.4341 171.033 61.0021 171.601 61.6778 171.61L70.1227 171.733C70.7943 171.741 71.3665 171.157 71.3665 170.498C71.3665 169.839 70.7985 169.271 70.1227 169.262Z" fill="#1B1E24"/>
<path d="M36.7406 168.731C34.0376 168.69 31.3304 168.653 28.6274 168.611C27.9765 168.603 27.3546 169.188 27.3837 169.847C27.4127 170.506 27.9309 171.07 28.6274 171.082C31.3304 171.123 34.0376 171.16 36.7406 171.202C37.3915 171.21 38.0134 170.625 37.9844 169.966C37.9554 169.307 37.4371 168.743 36.7406 168.731Z" fill="#1B1E24"/>
<path d="M63.2207 157.385V167.467C63.2207 168.23 62.9188 168.961 62.3787 169.501C61.8385 170.041 61.1077 170.343 60.3451 170.343H40.1758C39.4132 170.343 38.6824 170.041 38.1422 169.501C37.602 168.961 37.3002 168.23 37.3002 167.467V147.303C37.3002 146.541 37.602 145.81 38.1422 145.269C38.6824 144.729 39.4132 144.427 40.1758 144.427H60.1306C61.767 144.427 63.1016 145.746 63.1174 147.383L63.2207 157.393V157.385Z" fill="#BBB5FF"/>
<path d="M61.8308 157.385V166.705C61.8308 167.889 61.5607 168.921 60.1388 168.961C59.0426 168.993 57.9463 168.961 56.8501 168.961H40.8672C39.7948 168.961 38.7542 168.739 38.6827 167.404C38.5397 164.607 38.6827 161.763 38.6827 158.959V148.289C38.6827 147.168 38.6827 145.913 40.1761 145.81C41.1452 145.738 42.1382 145.81 43.1073 145.81H59.551C60.3533 145.81 61.1477 145.873 61.5528 146.7C61.7673 147.137 61.7196 147.629 61.7276 148.106L61.7514 150.553L61.807 156.249L61.8229 157.393C61.8388 159.181 64.6191 159.189 64.6032 157.393C64.5714 154.152 64.5714 150.902 64.4999 147.661C64.4443 145.063 62.657 143.109 60.0197 143.037C58.6692 142.989 57.3029 143.029 55.9366 143.029H40.6527C38.1028 143.029 36.0056 144.618 35.9023 147.303C35.7991 149.989 35.9023 152.92 35.9023 155.709V166.816C35.9023 168.921 36.7682 170.915 38.9686 171.567C39.9696 171.869 41.1611 171.742 42.2018 171.742H59.3603C61.1556 171.742 62.8874 171.44 63.9439 169.771C64.8654 168.325 64.6191 166.435 64.6191 164.798V157.385C64.6191 155.598 61.8388 155.59 61.8388 157.385H61.8308Z" fill="#1B1E24"/>
<path d="M44.3303 158.673C45.1644 159.42 46.0461 160.111 46.9041 160.818C47.2933 161.136 47.6746 161.462 48.0559 161.788C48.8344 162.463 49.7162 162.511 50.4708 161.764C51.6068 160.636 52.6554 159.412 53.7437 158.236C54.832 157.061 55.9759 155.837 57.088 154.629C58.3034 153.319 56.3413 151.348 55.1259 152.667C53.9899 153.891 52.846 155.122 51.71 156.346C50.5741 157.569 49.5573 158.84 48.3657 159.937L48.9774 159.579L48.89 159.611H49.6288L49.5493 159.587L50.161 159.945C48.8503 158.904 47.5396 157.823 46.2924 156.703C45.7363 156.203 44.8784 156.155 44.3303 156.703C43.8219 157.212 43.7663 158.165 44.3303 158.665V158.673Z" fill="#1B1E24"/>
<path d="M86.1123 154.458C86.303 155.051 86.4937 155.648 86.6844 156.242C86.8959 156.892 87.5385 157.263 88.2142 157.106C91.7588 156.266 95.2454 155.323 98.6864 154.133C99.3207 153.915 99.7394 153.289 99.557 152.613C99.387 151.999 98.6657 151.53 98.0272 151.748C94.5862 152.938 91.0997 153.882 87.555 154.722L89.0848 155.587C88.8941 154.994 88.7034 154.396 88.5127 153.803C88.3096 153.169 87.6504 152.757 86.9829 152.938C86.3528 153.111 85.9092 153.82 86.1123 154.458Z" fill="#1B1E24"/>
<path d="M83.691 137.28C83.2516 135.637 82.8287 133.993 82.4141 132.346L81.216 133.911C85.1835 133.433 89.1551 132.955 93.1226 132.478C93.7901 132.399 94.3664 131.967 94.3664 131.242C94.3664 130.637 93.7943 129.924 93.1226 130.007C89.1551 130.484 85.1835 130.962 81.216 131.44C80.4117 131.535 79.8023 132.152 80.0179 133.005C80.4325 134.652 80.8553 136.296 81.2948 137.939C81.7052 139.475 84.1056 138.824 83.6952 137.28H83.691Z" fill="#1B1E24"/>
<path d="M87.3102 154.133C84.064 156.369 80.6852 158.412 76.9167 159.532C73.484 160.549 69.8524 160.747 66.2746 160.595C65.1967 160.549 64.1229 160.471 63.0533 160.36C60.1347 160.068 57.2451 159.54 54.4177 158.791C53.8456 158.638 53.2569 158.465 52.7967 158.095C51.5944 157.115 51.8307 155.097 52.8796 153.956C53.9285 152.819 55.508 152.345 57.0171 151.971C59.9357 151.242 62.8958 150.69 65.8807 150.311C65.9512 150.055 66.0258 149.8 66.0963 149.545C66.1543 149.335 66.2124 149.112 66.1295 148.91C66.0175 148.635 65.69 148.519 65.3998 148.441C60.0974 146.954 54.7494 145.624 49.364 144.454C52.5397 141.567 57.6141 136.991 61.3453 136.044C62.6139 135.723 63.9364 135.743 65.2423 135.797C71.0256 136.024 76.7675 136.798 82.4928 137.609C83.9645 143.153 85.5731 148.663 87.3102 154.133Z" fill="white"/>
<path d="M86.6846 153.062C83.9359 154.952 81.0588 156.769 77.8955 157.905C74.5416 159.116 70.997 159.462 67.4482 159.392C63.8994 159.322 60.0854 158.857 56.491 158.029C55.6826 157.844 54.8244 157.687 54.0491 157.386C53.7921 157.288 53.5848 157.168 53.4438 156.991C53.3692 156.9 53.3236 156.806 53.2573 156.526C53.2241 156.386 53.2448 156.505 53.249 156.538C53.2366 156.456 53.2366 156.365 53.2366 156.279C53.2366 156.147 53.2366 156.011 53.2573 155.883C53.2366 156.027 53.3153 155.681 53.3361 155.62C53.3817 155.459 53.4397 155.331 53.4646 155.29C53.7258 154.796 54.1237 154.425 54.6959 154.096C56.2049 153.231 58.1161 152.951 59.7951 152.592C61.81 152.16 63.8414 151.806 65.8853 151.542C66.4408 151.472 66.9259 151.209 67.0834 150.636C67.3363 149.73 67.6928 148.713 66.9507 147.926C66.4076 147.35 65.5868 147.205 64.8488 147C63.1781 146.538 61.5032 146.089 59.8242 145.657C56.4661 144.796 53.0873 143.997 49.7002 143.256L50.2475 145.319C53.1288 142.7 56.0764 139.944 59.5423 138.095C60.3258 137.675 60.8067 137.449 61.6815 137.226C62.8755 136.921 64.1275 136.979 65.3505 137.029C68.0369 137.14 70.7151 137.362 73.3891 137.655C76.3243 137.976 79.2471 138.379 82.1698 138.791L81.2992 137.926C82.7751 143.47 84.3795 148.981 86.1166 154.45C86.5975 155.961 88.9979 155.315 88.517 153.791C86.7799 148.322 85.1714 142.811 83.6996 137.267C83.6001 136.893 83.2394 136.464 82.829 136.403C77.2654 135.616 71.6852 134.85 66.0635 134.582C64.6996 134.516 63.3398 134.463 61.98 134.656C60.9601 134.8 60.019 135.13 59.0862 135.558C57.1584 136.444 55.4255 137.725 53.7631 139.026C51.9348 140.455 50.206 142.004 48.4897 143.565C47.818 144.174 48.1414 145.434 49.0369 145.628C52.026 146.279 55.0068 146.979 57.9752 147.724C59.4262 148.091 60.873 148.466 62.3199 148.857C63.0413 149.051 63.7626 149.248 64.484 149.45C64.6789 149.504 64.8778 149.553 65.0727 149.615C65.0934 149.623 65.2758 149.644 65.2634 149.685L64.9442 149.042C64.9152 149.162 64.882 149.277 64.8488 149.392C64.7949 149.586 64.741 149.775 64.6871 149.965L65.8853 149.059C63.8165 149.322 61.7602 149.652 59.7205 150.072C57.8757 150.451 55.9645 150.813 54.2274 151.563C52.6769 152.23 51.3254 153.404 50.9025 155.08C50.4796 156.756 51.002 158.564 52.5774 159.405C53.4273 159.862 54.4181 160.055 55.3509 160.282C56.2837 160.508 57.2994 160.722 58.2778 160.904C60.3217 161.278 62.3904 161.546 64.4633 161.707C68.4722 162.016 72.5931 161.933 76.4984 160.916C80.6732 159.829 84.421 157.601 87.9407 155.183C88.4921 154.804 88.745 154.1 88.3885 153.494C88.0692 152.951 87.2401 152.671 86.6887 153.05L86.6846 153.062Z" fill="#1B1E24"/>
<path d="M155.958 163.272C159.251 163.272 161.545 160.867 161.545 157.463C161.545 154.059 159.214 151.654 155.921 151.654H148.373L148.41 163.272H155.958ZM145.746 176V149.286H156.032C160.805 149.286 164.135 152.653 164.135 157.463C164.135 162.273 160.805 165.64 156.032 165.64H148.41V176H145.746ZM169.21 161.126C170.246 158.684 173.021 156.982 175.907 156.982V159.572C172.355 159.572 169.21 162.717 169.21 166.306V176H166.546V157.167H169.21V161.126ZM185.353 173.78C189.053 173.78 191.68 170.82 191.68 166.602C191.68 162.384 189.053 159.424 185.353 159.424C181.653 159.424 179.063 162.384 179.063 166.602C179.063 170.82 181.653 173.78 185.353 173.78ZM176.399 166.602C176.399 161.015 180.099 157.056 185.353 157.056C190.644 157.056 194.344 161.015 194.344 166.602C194.344 172.189 190.644 176.148 185.353 176.148C180.099 176.148 176.399 172.189 176.399 166.602ZM205.12 173.891C208.635 173.891 211.41 170.598 211.41 166.75C211.41 162.976 208.598 159.683 205.12 159.683C201.42 159.683 198.793 162.606 198.793 166.75C198.793 170.931 201.42 173.891 205.12 173.891ZM196.129 166.75C196.129 161.2 199.829 157.315 205.083 157.315C207.895 157.315 210.3 158.795 211.41 161.2V157.167H214.074V175.075C214 180.588 210.448 184.473 204.898 184.473C201.901 184.473 199.237 183.141 197.313 180.255L199.496 178.923C200.865 181.069 202.752 182.105 204.898 182.105C208.894 182.105 211.373 179.182 211.41 175.038V172.226C210.115 174.557 207.488 176.259 205.083 176.259C199.829 176.259 196.129 172.337 196.129 166.75ZM220.161 161.126C221.197 158.684 223.972 156.982 226.858 156.982V159.572C223.306 159.572 220.161 162.717 220.161 166.306V176H217.497V157.167H220.161V161.126ZM236.342 173.891C239.672 173.891 242.669 170.894 242.706 166.75C242.669 162.643 239.672 159.646 236.342 159.646C232.642 159.646 230.015 162.569 230.015 166.75C230.015 170.931 232.642 173.891 236.342 173.891ZM227.351 166.75C227.351 161.2 231.051 157.278 236.305 157.278C238.488 157.278 240.93 158.425 242.632 161.163V157.167H245.296V176H242.632V172.3C240.856 175.186 238.525 176.259 236.305 176.259C231.051 176.259 227.351 172.337 227.351 166.75ZM272.713 164.456C272.713 161.57 270.9 159.535 268.31 159.535C265.313 159.535 263.204 161.422 263.204 164.086V176H260.54V164.456C260.54 161.57 258.764 159.535 256.211 159.535C253.177 159.535 251.068 162.125 251.068 164.9V176H248.404V157.167H251.068V160.386C252.141 158.499 254.287 157.167 256.211 157.167C258.69 157.167 261.132 158.721 262.131 160.941C263.278 158.721 265.831 157.167 268.31 157.167C272.454 157.167 275.377 160.053 275.377 164.16V176H272.713V164.456Z" fill="#1B1E24"/>
<path d="M10.2622 0.48L16.2422 15.08H14.3422L12.6622 10.98H5.80219L4.08219 15.08H2.18219L8.26219 0.48H10.2622ZM6.42219 9.44H12.0222L9.26219 2.68L6.42219 9.44ZM22.4244 15.2C21.4644 15.2 20.0244 14.78 19.0644 13.22V15.08H17.3044V0.48H19.0644V6.72C20.0244 5.16 21.4644 4.74 22.4444 4.74C25.3244 4.74 27.3844 6.9 27.3844 9.96C27.3844 13.04 25.3244 15.2 22.4244 15.2ZM19.0644 9.98C19.0644 12.04 20.5644 13.72 22.3444 13.72C24.2844 13.72 25.6244 12.18 25.6244 9.98C25.6244 7.78 24.2844 6.26 22.3444 6.26C20.5644 6.26 19.0644 7.94 19.0644 9.98ZM33.2123 13.64C35.0923 13.64 36.4123 12.12 36.4123 9.92C36.4123 7.74 35.0923 6.22 33.2123 6.22C31.3323 6.22 30.0323 7.74 30.0323 9.92C30.0323 12.12 31.3323 13.64 33.2123 13.64ZM28.2723 9.92C28.2723 6.86 30.3123 4.7 33.2123 4.7C36.1323 4.7 38.1723 6.86 38.1723 9.92C38.1723 12.98 36.1323 15.14 33.2123 15.14C30.3123 15.14 28.2723 12.98 28.2723 9.92ZM41.3506 10.7C41.3506 12.4 42.4106 13.56 43.9306 13.56C45.6306 13.56 46.8106 12.38 46.8106 10.68V4.74H48.5706V15.08H46.8106V13.34C46.1506 14.34 44.9106 15.06 43.8306 15.06C41.3506 15.06 39.5906 13.34 39.5906 10.84V4.74H41.3506V10.7ZM55.8127 14.72C55.4127 14.86 55.0127 15.04 54.2327 15.04C52.5527 15.04 51.3527 13.84 51.3527 12.12V6.34H49.6327V4.8H51.3527V2.06H53.1127V4.8H55.7327V6.34H53.1127V12.12C53.1127 12.92 53.6127 13.48 54.3127 13.48C54.7727 13.5 55.2927 13.26 55.3327 13.24L55.8127 14.72Z" fill="#1B1E24"/>
<defs>
<filter id="filter0_b_8557_13084" x="-1.31445" y="2.77197" width="292.973" height="169.644" filterUnits="userSpaceOnUse" color-interpolation-filters="sRGB">
<feFlood flood-opacity="0" result="BackgroundImageFix"/>
<feGaussianBlur in="BackgroundImageFix" stdDeviation="5"/>
<feComposite in2="SourceAlpha" operator="in" result="effect1_backgroundBlur_8557_13084"/>
<feBlend mode="normal" in="SourceGraphic" in2="effect1_backgroundBlur_8557_13084" result="shape"/>
</filter>
</defs>
</svg>
