<svg width="276" height="318" viewBox="0 0 276 318" fill="none" xmlns="http://www.w3.org/2000/svg">
<path d="M34.6889 126.94C35.0281 122.438 35.8291 117.744 38.166 113.79C39.8905 110.881 42.4583 108.674 45.5821 107.326C48.8943 105.895 52.5694 105.375 56.1455 105.101C59.7216 104.827 63.6322 104.803 67.3732 104.771C73.503 104.72 79.6327 104.692 85.7625 104.669C94.0361 104.636 102.31 104.613 110.583 104.599C119.94 104.585 129.298 104.576 138.65 104.585C147.913 104.59 144.114 104.604 153.377 104.641C161.377 104.669 173.733 104.71 181.733 104.78C184.937 104.808 188.141 104.845 191.345 104.892C193.512 104.924 195.694 105.05 197.861 105.003C201.668 104.92 205.433 105.222 209.113 106.248C215.445 108.014 220.901 112.029 222.771 118.474C223.351 120.472 223.572 122.531 223.582 124.603C223.591 125.495 225 125.5 225 124.598C224.981 120.649 224.152 116.657 221.961 113.302C220.189 110.588 217.65 108.446 214.766 106.945C210.163 104.557 204.811 103.604 199.638 103.567C195.6 103.539 191.562 103.493 187.524 103.447C179.896 103.358 167.912 103.312 160.289 103.275C151.068 103.233 154.919 103.21 145.699 103.2C136.478 103.191 126.405 103.191 116.755 103.2C107.973 103.21 99.1858 103.228 90.4034 103.261C83.6423 103.284 76.8812 103.312 70.12 103.358C63.0244 103.409 55.6413 103.075 48.7153 104.817C45.3936 105.654 42.2039 107.122 39.7397 109.515C36.9505 112.219 35.3202 115.839 34.392 119.533C33.7843 121.959 33.4639 124.45 33.2754 126.94C33.2094 127.837 34.6229 127.832 34.6889 126.94Z" fill="#CED3D8"/>
<path d="M29.1232 122.564C30.4566 124.493 32.0161 126.254 33.7971 127.797C34.061 128.024 34.5463 128.108 34.796 127.797C36.2377 126.017 37.7737 124.321 39.3992 122.704C40.04 122.067 39.0411 121.082 38.4003 121.719C36.7748 123.336 35.2389 125.032 33.7971 126.812L34.796 126.812C33.1092 125.348 31.6109 123.694 30.3435 121.863C29.8347 121.124 28.6097 121.821 29.1232 122.564Z" fill="#CED3D8"/>
<path d="M131.341 221.347C130.533 225.208 127.6 228.565 123.87 229.747C122.211 230.273 119.08 230.839 119.014 230.877C118.369 231.247 117.421 232.894 116.805 234.521C116.155 233.301 115.244 231.958 114.696 230.811C111.686 229.915 109.007 228.97 106.792 226.722C104.226 224.118 103.337 220.338 103.684 216.764C104.014 213.4 105.681 211.19 108.348 208.965C113.445 204.711 122.068 205.428 126.686 209.184C127.605 209.933 128.445 210.785 129.149 211.742C131.126 214.438 132.029 218.044 131.338 221.347H131.341Z" fill="white"/>
<path d="M130.51 221.116C129.903 223.959 128.138 226.485 125.663 227.982C124.48 228.698 123.234 229.059 121.879 229.377C121.234 229.527 120.586 229.666 119.939 229.799C119.572 229.874 119.186 229.923 118.825 230.027C118.163 230.218 117.682 230.955 117.329 231.501C116.768 232.368 116.341 233.324 115.971 234.29L117.541 234.082C116.951 232.981 116.255 231.94 115.668 230.836C115.496 230.51 115.381 230.181 115.02 230.016C114.739 229.889 114.419 229.822 114.123 229.733C113.591 229.568 113.061 229.395 112.533 229.204C110.522 228.481 108.62 227.453 107.156 225.858C105.692 224.263 104.913 222.266 104.595 220.177C104.294 218.203 104.406 216.015 105.191 214.152C105.5 213.418 106.07 212.51 106.595 211.877C107.274 211.06 108.05 210.331 108.861 209.649C110.259 208.473 111.978 207.702 113.8 207.283C117.341 206.471 121.389 207 124.566 208.788C125.448 209.285 126.081 209.759 126.795 210.415C127.668 211.221 128.439 212.123 129.049 213.149C130.189 215.065 130.785 217.296 130.696 219.532C130.676 220.067 130.613 220.587 130.507 221.11C130.413 221.569 130.639 222.046 131.109 222.176C131.533 222.295 132.072 222.032 132.166 221.569C133.152 216.718 131.14 211.744 127.39 208.644C124.385 206.165 120.346 205.064 116.496 205.205C114.484 205.28 112.508 205.705 110.663 206.52C108.818 207.335 107.133 208.705 105.758 210.227C104.383 211.75 103.375 213.536 102.994 215.559C102.578 217.764 102.684 220.127 103.303 222.283C103.922 224.439 105.142 226.482 106.87 227.979C108.597 229.475 110.683 230.423 112.843 231.14C113.381 231.319 113.923 231.484 114.467 231.646L113.954 231.247C114.576 232.527 115.39 233.703 116.063 234.957C116.223 235.258 116.593 235.419 116.92 235.37C117.28 235.315 117.507 235.084 117.633 234.749C117.948 233.926 118.338 233.116 118.819 232.377C118.997 232.102 119.08 231.969 119.314 231.735L119.369 231.683C119.435 231.628 119.441 231.62 119.386 231.66L119.352 231.686C119.449 231.625 119.415 231.631 119.251 231.706C119.257 231.712 119.355 231.68 119.363 231.68C120.44 231.481 121.518 231.244 122.583 230.99C123.987 230.652 125.342 230.207 126.583 229.449C127.935 228.623 129.095 227.525 130.046 226.253C131.075 224.875 131.814 223.263 132.175 221.575C132.272 221.119 132.04 220.639 131.573 220.509C131.143 220.39 130.613 220.653 130.516 221.116H130.51Z" fill="#5F44FF" stroke="#5F44FF"/>
<path d="M111.597 221.757L111.597 221.757C111.105 222.285 111.268 222.949 111.641 223.326C111.828 223.516 112.082 223.651 112.362 223.669C112.649 223.687 112.939 223.579 113.177 223.323C116.26 220.018 119.58 216.949 123.111 214.139C123.372 213.932 123.464 213.614 123.454 213.328C123.445 213.043 123.334 212.746 123.133 212.542C122.902 212.31 122.621 212.211 122.338 212.223C122.062 212.234 121.799 212.351 121.584 212.523L121.74 212.718L121.585 212.523C118.034 215.348 114.696 218.437 111.597 221.757Z" fill="#5F44FF" stroke="#5F44FF" stroke-width="0.5"/>
<path d="M111.949 213.77L111.949 213.769C111.574 213.338 111.504 212.664 111.96 212.204C112.167 211.995 112.459 211.886 112.742 211.88C113.027 211.874 113.33 211.973 113.541 212.216L111.949 213.77ZM111.949 213.77C113.474 215.521 114.998 217.273 116.522 219.025L116.524 219.027C118.049 220.78 119.574 222.532 121.1 224.285C121.311 224.528 121.613 224.627 121.898 224.621C122.182 224.615 122.473 224.506 122.68 224.297C123.136 223.837 123.067 223.163 122.691 222.732L122.691 222.731M111.949 213.77L122.691 222.731M122.691 222.731C121.166 220.979 119.641 219.226 118.116 217.474M122.691 222.731L118.116 217.474M118.116 217.474L118.112 217.469M118.116 217.474L118.112 217.469M118.112 217.469C116.589 215.718 115.065 213.967 113.541 212.216L118.112 217.469Z" fill="#5F44FF" stroke="#5F44FF" stroke-width="0.5"/>
<path d="M148.458 260.539C148.458 260.539 168.82 260.22 166.029 267.887C163.238 275.555 133.572 274.715 133.572 274.715C133.572 274.715 97.9097 274.504 95.9483 273.035L94.3972 271.879L148.775 272.1L148.458 260.539Z" fill="#CED3D8" stroke="#CED3D8" stroke-width="2" stroke-miterlimit="10"/>
<path d="M148.473 264.377C130.373 264.29 111.125 264.228 92.9943 264.144C93.0941 263.642 93.3249 263.174 93.5557 262.71C94.7409 260.309 95.9262 257.904 97.1114 255.503C97.2674 255.187 97.4421 254.85 97.7602 254.692C97.9879 254.58 98.2561 254.58 98.5119 254.583C102.623 254.636 106.731 254.685 110.839 254.735C110.286 256.287 109.769 257.818 109.288 259.305C116.269 259.407 123.249 259.509 130.23 259.612C130.723 257.864 131.215 256.114 131.708 254.366C135.626 254.345 139.54 254.326 143.461 254.304C143.829 254.301 144.213 254.304 144.543 254.465C144.949 254.664 145.201 255.07 145.423 255.457C146.989 258.205 148.021 261.25 148.473 264.377Z" fill="white"/>
<path d="M148.498 271.431C147.101 271.471 145.707 271.512 144.309 271.546C128.093 271.961 111.865 271.958 95.6455 271.53C94.8938 271.512 94.1453 271.493 93.3936 271.471C93.2532 269.532 93.1097 267.592 92.9662 265.65C92.9319 265.17 92.8976 264.683 92.9818 264.209C92.985 264.187 92.9912 264.166 92.9943 264.144C111.126 264.228 130.373 264.29 148.473 264.376C148.81 266.712 148.823 269.092 148.498 271.431Z" fill="white"/>
<path d="M148.498 270.501C141.325 270.709 134.151 270.848 126.977 270.901C119.8 270.954 112.62 270.923 105.443 270.808C101.425 270.743 97.4111 270.656 93.3968 270.542L94.3325 271.471C94.2452 270.247 94.1547 269.02 94.0643 267.797C94.0206 267.183 93.9738 266.57 93.927 265.956C93.8896 265.451 93.8023 264.894 93.899 264.392L92.9976 265.073C100.209 265.107 107.42 265.135 114.635 265.163C121.849 265.191 129.151 265.219 136.409 265.25C140.433 265.265 144.456 265.284 148.48 265.303L147.578 264.621C147.884 266.78 147.896 269.017 147.603 271.18C147.535 271.676 147.722 272.178 148.258 272.323C148.695 272.441 149.341 272.174 149.409 271.673C149.752 269.151 149.74 266.644 149.384 264.122C149.328 263.726 148.854 263.441 148.483 263.441C141.278 263.407 134.073 263.376 126.871 263.348C119.61 263.32 112.351 263.292 105.09 263.261C101.06 263.245 97.0337 263.227 93.0038 263.208C92.6202 263.208 92.1772 263.496 92.1024 263.89C91.8685 265.111 92.0961 266.409 92.1866 267.636C92.2771 268.862 92.3737 270.188 92.4673 271.465C92.5047 271.976 92.8666 272.379 93.403 272.394C100.552 272.599 107.704 272.72 114.856 272.76C122.008 272.8 129.213 272.76 136.39 272.636C140.429 272.568 144.469 272.469 148.508 272.351C149.709 272.317 149.715 270.458 148.508 270.492L148.498 270.501Z" fill="#CED3D8"/>
<path d="M148.474 263.447C141.269 263.413 134.064 263.382 126.862 263.354C119.601 263.326 112.343 263.298 105.082 263.267C101.052 263.252 97.0252 263.233 92.9954 263.214L93.8968 264.392C94.0496 263.713 94.399 263.106 94.7046 262.486C95.0477 261.792 95.3877 261.101 95.7308 260.407C96.4045 259.044 97.0751 257.681 97.7488 256.318C97.8736 256.064 98.0077 255.788 98.1481 255.559C98.1668 255.528 98.3103 255.441 98.1793 255.509C98.0483 255.577 98.198 255.509 98.251 255.509C98.4132 255.509 98.5785 255.509 98.7438 255.512C99.5142 255.522 100.285 255.531 101.055 255.54C102.571 255.559 104.087 255.577 105.6 255.596C107.346 255.618 110.721 255.639 112.468 255.658L111.567 254.481C111.027 255.996 110.512 257.52 110.017 259.05C109.826 259.636 110.335 260.218 110.918 260.228C116.348 260.308 120.144 260.386 125.574 260.466C127.124 260.488 127.59 260.513 129.14 260.534C129.552 260.541 129.932 260.24 130.041 259.853C130.534 258.105 131.027 256.355 131.52 254.608L130.619 255.289C133.841 255.271 138.15 255.255 141.369 255.24C142.146 255.237 142.929 255.209 143.705 255.23C144.245 255.246 144.373 255.5 144.647 255.983C145.343 257.21 145.926 258.493 146.394 259.822C146.94 261.38 147.33 262.988 147.57 264.621C147.645 265.117 148.278 265.392 148.721 265.272C149.257 265.126 149.448 264.627 149.376 264.128C148.924 261.061 147.929 258.075 146.435 255.351C146.082 254.707 145.695 254.013 145.015 253.66C144.282 253.279 143.406 253.371 142.611 253.378C140.911 253.387 139.208 253.396 137.508 253.406C135.574 253.415 132.555 253.424 130.622 253.437C130.21 253.437 129.829 253.725 129.72 254.118C129.227 255.865 128.735 257.616 128.242 259.363L129.143 258.682C123.713 258.601 119.373 258.524 113.943 258.443C112.393 258.422 112.471 258.397 110.921 258.375L111.822 259.552C112.318 258.022 111.745 256.498 111.741 254.983C111.947 254.4 113.042 253.811 112.471 253.805C109.209 253.765 104.318 253.728 101.055 253.684C100.232 253.675 99.4113 253.663 98.5879 253.653C97.7644 253.644 97.0252 253.876 96.5324 254.617C96.1082 255.255 95.8213 256.011 95.4813 256.696C95.1163 257.436 94.7514 258.174 94.3865 258.914C93.9748 259.744 93.5662 260.578 93.1544 261.408C92.7427 262.238 92.2842 263.019 92.0877 263.896C91.9567 264.482 92.3591 265.07 92.9891 265.073C100.2 265.107 107.412 265.135 114.626 265.163C121.841 265.191 129.142 265.219 136.4 265.25C140.424 265.265 144.448 265.284 148.471 265.303C149.675 265.309 149.678 263.45 148.471 263.444L148.474 263.447Z" fill="#CED3D8"/>
<path d="M135.729 258.775L129.375 258.682C128.87 258.676 128.44 259.116 128.44 259.611C128.44 260.107 128.867 260.535 129.375 260.541L135.729 260.634C136.234 260.64 136.665 260.2 136.665 259.704C136.665 259.209 136.237 258.781 135.729 258.775Z" fill="#CED3D8"/>
<path d="M110.614 258.375C108.58 258.344 106.543 258.316 104.51 258.285C104.02 258.279 103.552 258.719 103.574 259.215C103.596 259.71 103.986 260.135 104.51 260.144C106.543 260.175 108.58 260.203 110.614 260.234C111.103 260.24 111.571 259.8 111.549 259.305C111.528 258.809 111.138 258.384 110.614 258.375Z" fill="#CED3D8"/>
<path d="M130.536 249.329V256.913C130.536 257.487 130.309 258.037 129.903 258.443C129.496 258.849 128.946 259.077 128.373 259.077H113.198C112.625 259.077 112.075 258.849 111.668 258.443C111.262 258.037 111.035 257.487 111.035 256.913V241.745C111.035 241.171 111.262 240.621 111.668 240.215C112.075 239.808 112.625 239.581 113.198 239.581H128.211C129.443 239.581 130.447 240.573 130.459 241.804L130.536 249.335V249.329Z" fill="#E8E6FF"/>
<path d="M129.491 249.329V256.34C129.491 257.23 129.287 258.007 128.218 258.037C127.393 258.061 126.568 258.037 125.743 258.037H113.718C112.912 258.037 112.129 257.87 112.075 256.865C111.967 254.762 112.075 252.622 112.075 250.512V242.486C112.075 241.643 112.075 240.699 113.199 240.621C113.928 240.567 114.675 240.621 115.404 240.621H127.775C128.379 240.621 128.977 240.669 129.281 241.291C129.443 241.619 129.407 241.99 129.413 242.348L129.431 244.189L129.473 248.474L129.485 249.335C129.497 250.68 131.588 250.686 131.576 249.335C131.552 246.897 131.552 244.452 131.499 242.014C131.457 240.059 130.112 238.589 128.128 238.535C127.112 238.5 126.084 238.529 125.056 238.529H113.557C111.639 238.529 110.061 239.725 109.983 241.745C109.905 243.765 109.983 245.97 109.983 248.068V256.423C109.983 258.007 110.635 259.507 112.29 259.997C113.043 260.224 113.94 260.129 114.723 260.129H127.632C128.983 260.129 130.285 259.902 131.08 258.647C131.774 257.559 131.588 256.136 131.588 254.905V249.329C131.588 247.984 129.497 247.978 129.497 249.329H129.491Z" fill="#CED3D8"/>
<path d="M116.324 250.298C116.951 250.86 117.615 251.379 118.26 251.911C118.553 252.15 118.84 252.396 119.127 252.641C119.713 253.149 120.376 253.184 120.944 252.623C121.798 251.774 122.587 250.854 123.406 249.969C124.225 249.085 125.085 248.164 125.922 247.256C126.837 246.27 125.36 244.787 124.446 245.779C123.591 246.7 122.731 247.626 121.876 248.547C121.021 249.467 120.256 250.423 119.36 251.248L119.82 250.979L119.754 251.003H120.31L120.25 250.985L120.711 251.254C119.725 250.471 118.738 249.658 117.8 248.816C117.382 248.439 116.736 248.403 116.324 248.816C115.941 249.198 115.9 249.915 116.324 250.292V250.298Z" fill="#CED3D8"/>
<path d="M147.759 247.127C147.902 247.573 148.046 248.022 148.189 248.469C148.348 248.958 148.832 249.237 149.34 249.119C152.007 248.487 154.63 247.778 157.219 246.882C157.696 246.718 158.011 246.247 157.874 245.739C157.746 245.277 157.203 244.924 156.723 245.089C154.134 245.984 151.511 246.693 148.844 247.325L149.995 247.976C149.852 247.53 149.708 247.081 149.565 246.635C149.412 246.157 148.916 245.848 148.414 245.984C147.94 246.114 147.606 246.647 147.759 247.127Z" fill="#CED3D8"/>
<path d="M145.937 234.204C145.606 232.968 145.288 231.732 144.976 230.493L144.075 231.67C147.06 231.311 150.048 230.951 153.033 230.592C153.535 230.533 153.969 230.208 153.969 229.662C153.969 229.207 153.538 228.671 153.033 228.733C150.048 229.092 147.06 229.452 144.075 229.811C143.47 229.882 143.011 230.347 143.174 230.988C143.485 232.228 143.804 233.464 144.134 234.7C144.443 235.856 146.249 235.366 145.94 234.204H145.937Z" fill="#CED3D8"/>
<path d="M148.66 246.882C146.218 248.564 143.676 250.101 140.84 250.944C138.258 251.709 135.526 251.858 132.834 251.743C132.023 251.709 131.215 251.65 130.41 251.567C128.214 251.347 126.04 250.95 123.913 250.386C123.483 250.271 123.04 250.141 122.694 249.863C121.789 249.125 121.967 247.607 122.756 246.749C123.545 245.894 124.734 245.537 125.869 245.255C128.065 244.707 130.292 244.292 132.537 244.007C132.591 243.815 132.647 243.623 132.7 243.431C132.743 243.273 132.787 243.105 132.725 242.954C132.64 242.746 132.394 242.659 132.176 242.6C128.186 241.482 124.163 240.481 120.111 239.601C122.5 237.429 126.318 233.987 129.125 233.275C130.08 233.033 131.075 233.049 132.057 233.089C136.408 233.259 140.728 233.842 145.036 234.452C146.143 238.622 147.353 242.768 148.66 246.882Z" fill="white"/>
<path d="M148.189 246.076C146.121 247.498 143.957 248.865 141.577 249.72C139.054 250.631 136.387 250.891 133.717 250.838C131.047 250.786 128.177 250.436 125.473 249.813C124.865 249.673 124.219 249.556 123.636 249.33C123.443 249.255 123.287 249.165 123.181 249.032C123.124 248.964 123.09 248.893 123.04 248.682C123.015 248.577 123.031 248.667 123.034 248.691C123.025 248.629 123.025 248.561 123.025 248.496C123.025 248.397 123.025 248.295 123.04 248.199C123.025 248.307 123.084 248.047 123.099 248C123.134 247.88 123.177 247.784 123.196 247.753C123.393 247.381 123.692 247.102 124.123 246.854C125.258 246.203 126.696 245.993 127.959 245.723C129.475 245.398 131.003 245.131 132.541 244.933C132.959 244.881 133.324 244.682 133.442 244.252C133.633 243.57 133.901 242.805 133.343 242.213C132.934 241.779 132.316 241.671 131.761 241.516C130.504 241.169 129.244 240.831 127.981 240.506C125.454 239.858 122.912 239.257 120.364 238.7L120.776 240.252C122.944 238.281 125.161 236.209 127.769 234.818C128.358 234.502 128.72 234.331 129.378 234.164C130.277 233.935 131.218 233.978 132.139 234.015C134.16 234.099 136.175 234.266 138.186 234.486C140.395 234.728 142.594 235.031 144.793 235.341L144.138 234.691C145.248 238.861 146.455 243.006 147.762 247.121C148.124 248.258 149.93 247.771 149.568 246.625C148.261 242.51 147.051 238.365 145.944 234.195C145.869 233.913 145.597 233.591 145.289 233.544C141.103 232.952 136.905 232.376 132.675 232.175C131.649 232.125 130.626 232.085 129.603 232.231C128.835 232.339 128.127 232.587 127.426 232.909C125.975 233.575 124.672 234.539 123.421 235.518C122.045 236.593 120.745 237.758 119.453 238.932C118.948 239.391 119.191 240.339 119.865 240.484C122.114 240.974 124.356 241.5 126.59 242.061C127.681 242.337 128.77 242.619 129.859 242.913C130.401 243.059 130.944 243.207 131.487 243.359C131.633 243.4 131.783 243.437 131.93 243.483C131.945 243.489 132.082 243.505 132.073 243.536L131.833 243.053C131.811 243.142 131.786 243.229 131.761 243.316C131.721 243.462 131.68 243.604 131.64 243.747L132.541 243.065C130.985 243.263 129.437 243.511 127.903 243.827C126.515 244.112 125.077 244.385 123.77 244.949C122.604 245.451 121.587 246.334 121.269 247.595C120.95 248.856 121.343 250.216 122.529 250.848C123.168 251.192 123.914 251.337 124.615 251.508C125.317 251.678 126.081 251.839 126.817 251.975C128.355 252.257 129.912 252.459 131.471 252.58C134.487 252.812 137.588 252.75 140.526 251.985C143.667 251.167 146.486 249.491 149.134 247.672C149.549 247.387 149.74 246.857 149.471 246.402C149.231 245.993 148.607 245.782 148.192 246.067L148.189 246.076Z" fill="#CED3D8"/>
<path d="M128.949 316.001C123.78 316.273 117.721 315.794 112.56 315.291C108.558 314.896 104.322 314.154 101.289 311.103C100.542 310.353 99.915 309.413 99.4522 308.374C98.7759 305.15 99.2387 301.629 101.054 299.073C102.599 296.913 104.87 295.635 107.127 294.621C120.099 288.75 134.695 289.525 148.236 293.244C151.233 294.068 154.274 295.066 156.758 297.177C159.243 299.279 161.087 302.701 160.802 306.255C160.489 310.122 157.705 313.238 154.58 314.648C151.454 316.05 148.008 316.075 144.655 316.083C142.305 316.091 139.963 316.099 137.614 316.099C136.04 316.108 132.673 316.644 128.401 316.001" fill="#EFF2F3"/>
<path d="M128.948 314.764C124.192 315.003 119.429 314.681 114.688 314.253C110.572 313.882 105.902 313.651 102.477 310.633C101.723 309.965 100.897 309.075 100.512 308.052C100.092 306.923 100.149 305.315 100.299 304.119C100.605 301.646 101.758 299.568 103.51 298.125C105.389 296.575 107.632 295.643 109.804 294.81C111.975 293.978 114.26 293.285 116.546 292.782C125.873 290.704 135.57 291.438 144.832 293.64C149.147 294.662 154.244 295.668 157.441 299.502C158.801 301.135 159.791 303.311 159.762 305.62C159.734 307.929 158.673 309.858 157.256 311.334C153.297 315.448 147.288 314.83 142.362 314.846C140.119 314.846 137.883 314.822 135.648 314.97C133.227 315.127 130.814 315.11 128.4 314.764C127.04 314.566 127.054 317.04 128.4 317.237C130.778 317.584 133.156 317.609 135.541 317.452C137.755 317.312 139.969 317.336 142.184 317.328C147.175 317.312 152.82 317.765 157.199 314.475C160.923 311.672 162.994 306.651 161.207 301.687C159.242 296.22 154.373 293.772 149.723 292.395C139.692 289.418 129.084 288.173 118.796 289.855C113.755 290.68 108.444 292.147 103.923 294.942C101.908 296.187 100.078 297.96 99.0814 300.384C98.0846 302.808 97.7856 305.76 98.3551 308.382C98.9888 311.284 101.822 313.395 104.044 314.484C106.393 315.638 108.914 316.108 111.434 316.405C117.222 317.089 123.124 317.526 128.941 317.237C130.308 317.172 130.315 314.698 128.941 314.764L128.948 314.764Z" fill="#EFF2F3"/>
<path d="M115.128 308.929H113.462L109.122 298.625H110.704L114.274 307.319L117.648 298.625H119.23L115.128 308.929ZM122.273 307.767C122.683 307.767 123.043 307.664 123.351 307.459C123.668 307.244 123.915 306.95 124.093 306.577C124.27 306.203 124.359 305.774 124.359 305.289C124.359 304.803 124.27 304.374 124.093 304.001C123.915 303.618 123.668 303.324 123.351 303.119C123.043 302.913 122.683 302.811 122.273 302.811C121.862 302.811 121.498 302.913 121.181 303.119C120.873 303.324 120.63 303.618 120.453 304.001C120.285 304.374 120.201 304.803 120.201 305.289C120.201 305.774 120.285 306.203 120.453 306.577C120.63 306.95 120.873 307.244 121.181 307.459C121.498 307.664 121.862 307.767 122.273 307.767ZM122.273 301.579C122.963 301.579 123.575 301.737 124.107 302.055C124.639 302.372 125.054 302.811 125.353 303.371C125.661 303.931 125.815 304.57 125.815 305.289C125.815 305.998 125.661 306.633 125.353 307.193C125.054 307.753 124.639 308.191 124.107 308.509C123.575 308.826 122.963 308.985 122.273 308.985C121.591 308.985 120.98 308.826 120.439 308.509C119.907 308.191 119.491 307.753 119.193 307.193C118.894 306.633 118.745 305.998 118.745 305.289C118.745 304.57 118.894 303.931 119.193 303.371C119.491 302.811 119.907 302.372 120.439 302.055C120.98 301.737 121.591 301.579 122.273 301.579ZM129.252 308.971C128.832 308.971 128.454 308.877 128.118 308.691C127.792 308.495 127.53 308.229 127.334 307.893C127.148 307.547 127.05 307.155 127.04 306.717V299.661H128.496V306.647C128.496 306.899 128.566 307.118 128.706 307.305C128.856 307.491 129.038 307.589 129.252 307.599C129.402 307.599 129.593 307.571 129.826 307.515C129.882 307.505 129.938 307.496 129.994 307.487L130.288 308.845C129.896 308.929 129.551 308.971 129.252 308.971ZM125.794 301.663H130.358V302.937H125.794V301.663ZM132.707 301.649V308.929H131.251V301.649H132.707ZM131.979 298.443C132.222 298.443 132.418 298.522 132.567 298.681C132.716 298.83 132.791 299.026 132.791 299.269C132.791 299.502 132.716 299.698 132.567 299.857C132.418 300.015 132.222 300.095 131.979 300.095C131.736 300.095 131.536 300.015 131.377 299.857C131.218 299.698 131.139 299.502 131.139 299.269C131.139 299.026 131.218 298.83 131.377 298.681C131.536 298.522 131.736 298.443 131.979 298.443ZM139.148 304.869C139.148 304.243 138.99 303.749 138.672 303.385C138.355 303.021 137.926 302.839 137.384 302.839C137.03 302.848 136.703 302.941 136.404 303.119C136.115 303.296 135.886 303.539 135.718 303.847C135.56 304.145 135.48 304.486 135.48 304.869V308.929H134.024V301.607H135.48V302.839C135.695 302.484 135.998 302.195 136.39 301.971C136.792 301.737 137.193 301.621 137.594 301.621C138.098 301.621 138.579 301.733 139.036 301.957C139.494 302.181 139.867 302.535 140.156 303.021C140.455 303.497 140.604 304.094 140.604 304.813V308.929H139.148V304.869ZM144.93 307.781C145.341 307.781 145.714 307.669 146.05 307.445C146.386 307.211 146.647 306.908 146.834 306.535C147.021 306.152 147.114 305.741 147.114 305.303C147.114 304.864 147.016 304.458 146.82 304.085C146.633 303.711 146.372 303.413 146.036 303.189C145.709 302.965 145.341 302.853 144.93 302.853C144.519 302.853 144.155 302.955 143.838 303.161C143.521 303.366 143.273 303.655 143.096 304.029C142.919 304.393 142.83 304.817 142.83 305.303C142.83 305.788 142.919 306.217 143.096 306.591C143.273 306.964 143.521 307.258 143.838 307.473C144.155 307.678 144.519 307.781 144.93 307.781ZM148.57 308.495C148.561 309.185 148.407 309.806 148.108 310.357C147.809 310.907 147.385 311.337 146.834 311.645C146.293 311.962 145.653 312.121 144.916 312.121C144.281 312.121 143.698 311.985 143.166 311.715C142.634 311.444 142.195 311.038 141.85 310.497L142.984 309.713C143.264 310.114 143.553 310.403 143.852 310.581C144.16 310.758 144.515 310.847 144.916 310.847C145.373 310.847 145.765 310.749 146.092 310.553C146.419 310.366 146.671 310.105 146.848 309.769C147.025 309.433 147.114 309.05 147.114 308.621V307.697C146.834 308.107 146.489 308.425 146.078 308.649C145.667 308.873 145.257 308.985 144.846 308.985C144.174 308.985 143.572 308.831 143.04 308.523C142.517 308.205 142.107 307.771 141.808 307.221C141.519 306.661 141.374 306.021 141.374 305.303C141.374 304.593 141.519 303.963 141.808 303.413C142.107 302.853 142.517 302.419 143.04 302.111C143.572 301.793 144.174 301.635 144.846 301.635C145.135 301.635 145.42 301.681 145.7 301.775C145.989 301.868 146.255 302.008 146.498 302.195C146.741 302.381 146.946 302.615 147.114 302.895V301.607H148.57V308.495Z" fill="#C6C6C6"/>
<path d="M229.093 250.614C221.88 251.068 213.425 250.269 206.221 249.429C200.637 248.767 194.726 247.527 190.493 242.428C189.45 241.175 188.575 239.604 187.93 237.867C186.986 232.48 187.631 226.596 190.165 222.324C192.321 218.714 195.491 216.578 198.64 214.883C216.743 205.072 237.112 206.367 256.009 212.582C260.192 213.96 264.435 215.627 267.902 219.155C271.37 222.668 273.943 228.387 273.546 234.326C273.109 240.789 269.224 245.997 264.862 248.354C260.5 250.696 255.691 250.738 251.012 250.751C247.733 250.765 244.464 250.779 241.185 250.779C238.989 250.793 234.29 251.688 228.328 250.614" fill="#E5F8F7"/>
<path d="M229.094 248.547C222.457 248.946 215.81 248.409 209.192 247.692C203.45 247.072 196.932 246.686 192.153 241.643C191.099 240.527 189.947 239.039 189.41 237.33C188.824 235.442 188.904 232.755 189.112 230.757C189.539 226.623 191.149 223.151 193.593 220.739C196.216 218.149 199.346 216.592 202.376 215.2C205.407 213.808 208.596 212.651 211.786 211.81C224.801 208.338 238.334 209.564 251.26 213.243C257.281 214.952 264.395 216.633 268.857 223.041C270.754 225.769 272.135 229.407 272.096 233.265C272.056 237.123 270.575 240.348 268.598 242.814C263.074 249.69 254.688 248.657 247.813 248.684C244.683 248.684 241.563 248.643 238.443 248.891C235.065 249.153 231.697 249.125 228.329 248.547C226.431 248.216 226.451 252.35 228.329 252.681C231.647 253.259 234.966 253.301 238.294 253.039C241.384 252.805 244.474 252.846 247.564 252.832C254.529 252.805 262.408 253.562 268.519 248.064C273.715 243.379 276.606 234.988 274.113 226.692C271.37 217.556 264.574 213.464 258.086 211.163C244.087 206.188 229.282 204.107 214.925 206.918C207.891 208.296 200.479 210.749 194.17 215.42C191.358 217.501 188.804 220.464 187.413 224.515C186.022 228.566 185.605 233.499 186.4 237.881C187.284 242.732 191.238 246.259 194.338 248.078C197.617 250.007 201.134 250.793 204.652 251.289C212.729 252.433 220.966 253.163 229.084 252.681C230.991 252.57 231.001 248.436 229.084 248.547L229.094 248.547Z" fill="#E5F8F7"/>
<path d="M209.186 224.818C209.531 225.238 209.933 225.574 210.39 225.826C210.847 226.078 211.3 226.209 211.748 226.218C212.187 226.218 212.579 226.144 212.924 225.994C213.269 225.845 213.54 225.64 213.736 225.378C213.941 225.108 214.044 224.804 214.044 224.468C214.044 224.17 213.946 223.918 213.75 223.712C213.554 223.507 213.307 223.344 213.008 223.222C212.709 223.092 212.299 222.947 211.776 222.788C211.085 222.574 210.521 222.364 210.082 222.158C209.643 221.953 209.27 221.659 208.962 221.276C208.654 220.884 208.5 220.38 208.5 219.764C208.509 219.214 208.659 218.728 208.948 218.308C209.237 217.879 209.643 217.548 210.166 217.314C210.698 217.081 211.291 216.964 211.944 216.964C212.541 216.974 213.125 217.128 213.694 217.426C214.273 217.716 214.753 218.094 215.136 218.56L214.058 219.4C213.778 219.046 213.451 218.766 213.078 218.56C212.705 218.346 212.327 218.234 211.944 218.224C211.356 218.224 210.875 218.369 210.502 218.658C210.138 218.948 209.956 219.321 209.956 219.778C209.956 220.096 210.059 220.362 210.264 220.576C210.469 220.791 210.726 220.968 211.034 221.108C211.342 221.239 211.762 221.388 212.294 221.556C212.975 221.79 213.531 222.009 213.96 222.214C214.389 222.41 214.753 222.695 215.052 223.068C215.351 223.432 215.5 223.904 215.5 224.482C215.491 225.07 215.327 225.593 215.01 226.05C214.693 226.498 214.249 226.848 213.68 227.1C213.111 227.352 212.462 227.478 211.734 227.478C211.062 227.469 210.395 227.301 209.732 226.974C209.079 226.638 208.533 226.2 208.094 225.658L209.186 224.818ZM219.47 227.422C219.05 227.422 218.672 227.329 218.336 227.142C218.009 226.946 217.748 226.68 217.552 226.344C217.365 225.999 217.267 225.607 217.258 225.168V218.112H218.714V225.098C218.714 225.35 218.784 225.57 218.924 225.756C219.073 225.943 219.255 226.041 219.47 226.05C219.619 226.05 219.811 226.022 220.044 225.966C220.1 225.957 220.156 225.948 220.212 225.938L220.506 227.296C220.114 227.38 219.769 227.422 219.47 227.422ZM216.012 220.114H220.576V221.388H216.012V220.114ZM224.551 226.246C224.934 226.246 225.293 226.139 225.629 225.924C225.965 225.7 226.231 225.402 226.427 225.028C226.632 224.646 226.735 224.226 226.735 223.768C226.735 223.311 226.632 222.896 226.427 222.522C226.231 222.14 225.965 221.841 225.629 221.626C225.293 221.402 224.934 221.29 224.551 221.29C224.14 221.29 223.772 221.398 223.445 221.612C223.128 221.818 222.88 222.107 222.703 222.48C222.526 222.844 222.437 223.274 222.437 223.768C222.437 224.254 222.526 224.688 222.703 225.07C222.88 225.444 223.128 225.733 223.445 225.938C223.772 226.144 224.14 226.246 224.551 226.246ZM228.163 227.38L226.707 227.394V226.176C226.511 226.466 226.292 226.708 226.049 226.904C225.806 227.091 225.545 227.226 225.265 227.31C224.994 227.404 224.724 227.45 224.453 227.45C223.781 227.45 223.179 227.296 222.647 226.988C222.124 226.671 221.714 226.232 221.415 225.672C221.126 225.112 220.981 224.478 220.981 223.768C220.981 223.059 221.126 222.424 221.415 221.864C221.714 221.304 222.124 220.87 222.647 220.562C223.179 220.245 223.781 220.086 224.453 220.086C224.873 220.086 225.279 220.194 225.671 220.408C226.072 220.614 226.418 220.926 226.707 221.346V220.058H228.163V227.38ZM230.895 223.362L233.737 220.058H235.697L232.855 223.32L235.669 227.38H233.905L231.819 224.384L230.895 225.49V227.38H229.439V217.076H230.895V223.362ZM238.101 220.1V227.38H236.645V220.1H238.101ZM237.373 216.894C237.616 216.894 237.812 216.974 237.961 217.132C238.11 217.282 238.185 217.478 238.185 217.72C238.185 217.954 238.11 218.15 237.961 218.308C237.812 218.467 237.616 218.546 237.373 218.546C237.13 218.546 236.93 218.467 236.771 218.308C236.612 218.15 236.533 217.954 236.533 217.72C236.533 217.478 236.612 217.282 236.771 217.132C236.93 216.974 237.13 216.894 237.373 216.894ZM244.542 223.32C244.542 222.695 244.384 222.2 244.066 221.836C243.749 221.472 243.32 221.29 242.778 221.29C242.424 221.3 242.097 221.393 241.798 221.57C241.509 221.748 241.28 221.99 241.112 222.298C240.954 222.597 240.874 222.938 240.874 223.32V227.38H239.418V220.058H240.874V221.29C241.089 220.936 241.392 220.646 241.784 220.422C242.186 220.189 242.587 220.072 242.988 220.072C243.492 220.072 243.973 220.184 244.43 220.408C244.888 220.632 245.261 220.987 245.55 221.472C245.849 221.948 245.998 222.546 245.998 223.264V227.38H244.542V223.32ZM250.324 226.232C250.735 226.232 251.108 226.12 251.444 225.896C251.78 225.663 252.042 225.36 252.228 224.986C252.415 224.604 252.508 224.193 252.508 223.754C252.508 223.316 252.41 222.91 252.214 222.536C252.028 222.163 251.766 221.864 251.43 221.64C251.104 221.416 250.735 221.304 250.324 221.304C249.914 221.304 249.55 221.407 249.232 221.612C248.915 221.818 248.668 222.107 248.49 222.48C248.313 222.844 248.224 223.269 248.224 223.754C248.224 224.24 248.313 224.669 248.49 225.042C248.668 225.416 248.915 225.71 249.232 225.924C249.55 226.13 249.914 226.232 250.324 226.232ZM253.964 226.946C253.955 227.637 253.801 228.258 253.502 228.808C253.204 229.359 252.779 229.788 252.228 230.096C251.687 230.414 251.048 230.572 250.31 230.572C249.676 230.572 249.092 230.437 248.56 230.166C248.028 229.896 247.59 229.49 247.244 228.948L248.378 228.164C248.658 228.566 248.948 228.855 249.246 229.032C249.554 229.21 249.909 229.298 250.31 229.298C250.768 229.298 251.16 229.2 251.486 229.004C251.813 228.818 252.065 228.556 252.242 228.22C252.42 227.884 252.508 227.502 252.508 227.072V226.148C252.228 226.559 251.883 226.876 251.472 227.1C251.062 227.324 250.651 227.436 250.24 227.436C249.568 227.436 248.966 227.282 248.434 226.974C247.912 226.657 247.501 226.223 247.202 225.672C246.913 225.112 246.768 224.473 246.768 223.754C246.768 223.045 246.913 222.415 247.202 221.864C247.501 221.304 247.912 220.87 248.434 220.562C248.966 220.245 249.568 220.086 250.24 220.086C250.53 220.086 250.814 220.133 251.094 220.226C251.384 220.32 251.65 220.46 251.892 220.646C252.135 220.833 252.34 221.066 252.508 221.346V220.058H253.964V226.946ZM213.132 240.494C213.702 240.494 214.159 240.303 214.504 239.92C214.859 239.538 215.036 239.034 215.036 238.408C215.036 237.998 214.957 237.638 214.798 237.33C214.64 237.013 214.416 236.77 214.126 236.602C213.837 236.425 213.506 236.336 213.132 236.336H210.304V240.494H213.132ZM215.162 245.38L212.516 241.768H210.304V245.38H208.848V235.076H213.3C213.916 235.076 214.467 235.216 214.952 235.496C215.438 235.776 215.816 236.168 216.086 236.672C216.357 237.176 216.492 237.75 216.492 238.394C216.492 238.861 216.408 239.304 216.24 239.724C216.072 240.144 215.811 240.513 215.456 240.83C215.111 241.148 214.691 241.395 214.196 241.572L216.982 245.38H215.162ZM222.695 241.18C222.658 240.835 222.564 240.522 222.415 240.242C222.266 239.953 222.051 239.72 221.771 239.542C221.5 239.356 221.16 239.262 220.749 239.262C220.385 239.262 220.049 239.346 219.741 239.514C219.442 239.682 219.195 239.916 218.999 240.214C218.803 240.504 218.677 240.83 218.621 241.194L222.695 241.18ZM223.759 240.032C223.927 240.434 224.02 240.83 224.039 241.222C224.067 241.605 224.067 241.941 224.039 242.23V242.3H218.621C218.668 242.674 218.794 243.005 218.999 243.294C219.204 243.574 219.461 243.798 219.769 243.966C220.077 244.125 220.399 244.204 220.735 244.204C221.295 244.204 221.715 244.106 221.995 243.91C222.284 243.714 222.49 243.509 222.611 243.294L222.639 243.266L223.801 243.798C223.577 244.256 223.204 244.643 222.681 244.96C222.158 245.268 221.505 245.422 220.721 245.422C220.04 245.422 219.433 245.268 218.901 244.96C218.369 244.643 217.954 244.204 217.655 243.644C217.366 243.084 217.221 242.45 217.221 241.74C217.221 241.022 217.366 240.382 217.655 239.822C217.954 239.262 218.369 238.828 218.901 238.52C219.433 238.203 220.04 238.044 220.721 238.044C221.393 238.044 221.948 238.18 222.387 238.45C222.826 238.721 223.143 239.001 223.339 239.29C223.544 239.58 223.68 239.818 223.745 240.004L223.759 240.032ZM232.079 245.38H230.693L229.139 240.256L227.599 245.38H226.213L224.015 238.058H225.527L226.927 243.182L228.383 238.058H229.867L231.351 243.182L232.723 238.058H234.235L232.079 245.38ZM237.608 244.246C237.991 244.246 238.35 244.139 238.686 243.924C239.022 243.7 239.288 243.402 239.484 243.028C239.69 242.646 239.792 242.226 239.792 241.768C239.792 241.311 239.69 240.896 239.484 240.522C239.288 240.14 239.022 239.841 238.686 239.626C238.35 239.402 237.991 239.29 237.608 239.29C237.198 239.29 236.829 239.398 236.502 239.612C236.185 239.818 235.938 240.107 235.76 240.48C235.583 240.844 235.494 241.274 235.494 241.768C235.494 242.254 235.583 242.688 235.76 243.07C235.938 243.444 236.185 243.733 236.502 243.938C236.829 244.144 237.198 244.246 237.608 244.246ZM241.22 245.38L239.764 245.394V244.176C239.568 244.466 239.349 244.708 239.106 244.904C238.864 245.091 238.602 245.226 238.322 245.31C238.052 245.404 237.781 245.45 237.51 245.45C236.838 245.45 236.236 245.296 235.704 244.988C235.182 244.671 234.771 244.232 234.472 243.672C234.183 243.112 234.038 242.478 234.038 241.768C234.038 241.059 234.183 240.424 234.472 239.864C234.771 239.304 235.182 238.87 235.704 238.562C236.236 238.245 236.838 238.086 237.51 238.086C237.93 238.086 238.336 238.194 238.728 238.408C239.13 238.614 239.475 238.926 239.764 239.346V238.058H241.22V245.38ZM243.689 239.444C243.894 239.034 244.211 238.693 244.641 238.422C245.079 238.152 245.541 238.016 246.027 238.016V239.346C245.597 239.346 245.201 239.463 244.837 239.696C244.482 239.93 244.202 240.228 243.997 240.592C243.791 240.956 243.689 241.334 243.689 241.726V245.38H242.247V238.058H243.689V239.444ZM249.543 245.45C248.862 245.45 248.26 245.296 247.737 244.988C247.214 244.671 246.804 244.232 246.505 243.672C246.206 243.103 246.057 242.464 246.057 241.754C246.057 241.036 246.206 240.396 246.505 239.836C246.804 239.276 247.214 238.838 247.737 238.52C248.26 238.203 248.862 238.044 249.543 238.044C249.795 238.044 250.056 238.086 250.327 238.17C250.598 238.245 250.868 238.38 251.139 238.576C251.41 238.763 251.643 239.015 251.839 239.332V235.076H253.295V245.394H251.839V244.176C251.55 244.615 251.19 244.937 250.761 245.142C250.332 245.348 249.926 245.45 249.543 245.45ZM249.641 244.274C250.033 244.274 250.397 244.162 250.733 243.938C251.069 243.714 251.335 243.411 251.531 243.028C251.736 242.636 251.839 242.216 251.839 241.768C251.839 241.32 251.736 240.905 251.531 240.522C251.335 240.14 251.069 239.836 250.733 239.612C250.397 239.388 250.033 239.276 249.641 239.276C249.23 239.276 248.862 239.384 248.535 239.598C248.208 239.804 247.956 240.098 247.779 240.48C247.602 240.854 247.513 241.283 247.513 241.768C247.513 242.263 247.602 242.702 247.779 243.084C247.956 243.458 248.208 243.752 248.535 243.966C248.862 244.172 249.23 244.274 249.641 244.274Z" fill="#5F44FF"/>
<path d="M264.743 191.74C262.382 194.176 258.433 195.279 255.736 195.775C238.481 198.98 220.836 199.327 203.495 196.798C202.956 195.918 202.786 194.604 203.164 193.575C203.804 191.852 205.333 190.848 206.777 190.011C216.034 184.649 226.106 181.209 236.37 179.784C242.36 178.953 266.416 176.846 266.602 188.288C266.624 189.701 265.654 190.804 264.743 191.74Z" fill="#1B1E24"/>
<path d="M245.722 189.6C243.47 192.952 239.027 193.965 235.009 194.314C229.183 194.806 222.968 194.683 217.272 193.274C215.971 192.952 214.65 192.528 213.63 191.659C209.722 188.32 210.872 181.486 212.261 177.312C214.253 171.347 217.327 165.757 221.304 160.879C221.4 160.756 221.503 160.64 221.599 160.517C222.091 160.736 222.673 160.866 223.207 160.934C226.377 161.351 229.649 161.358 232.716 160.435C233.126 160.311 233.551 160.168 233.879 159.894C233.879 159.908 233.893 159.915 233.907 159.928C236.036 163.048 239.164 166.359 241.136 169.452C243.531 173.208 245.975 177.073 246.865 181.445C247.433 184.209 247.29 187.267 245.722 189.613V189.6Z" fill="white"/>
<path d="M244.839 189.086C242.559 192.37 238.082 193.055 234.386 193.342C229.402 193.725 224.316 193.67 219.394 192.699C217.272 192.281 214.897 191.857 213.493 190.044C212.494 188.751 212.097 187.082 212.008 185.481C211.803 181.787 212.932 178.167 214.281 174.781C216.232 169.889 218.983 165.305 222.324 161.242L221.325 161.508C222.324 161.912 223.412 162.008 224.48 162.104C225.651 162.213 226.828 162.254 227.999 162.213C229.17 162.172 230.306 162.035 231.442 161.809C232.442 161.611 233.558 161.385 234.4 160.783L233.154 160.626C233.982 161.618 234.694 162.733 235.495 163.746C236.392 164.868 237.309 165.976 238.192 167.112C239.883 169.28 241.361 171.62 242.731 174.001C245.202 178.311 247.844 184.407 244.832 189.1C244.113 190.215 245.893 191.248 246.605 190.133C249.857 185.064 247.584 178.557 244.955 173.762C243.518 171.148 241.909 168.589 240.088 166.222C239.157 165.018 238.192 163.841 237.24 162.651C236.289 161.461 235.536 160.284 234.605 159.169C234.338 158.847 233.701 158.765 233.359 159.011C232.62 159.538 231.613 159.695 230.737 159.86C229.731 160.051 228.704 160.147 227.677 160.168C225.808 160.215 223.618 160.236 221.865 159.524C221.557 159.401 221.071 159.538 220.866 159.791C217.594 163.766 214.876 168.145 212.857 172.879C211.221 176.703 209.824 180.815 209.927 185.029C209.975 186.938 210.351 188.909 211.358 190.557C212.576 192.555 214.493 193.622 216.711 194.197C222.03 195.586 227.65 195.805 233.113 195.483C238 195.189 243.579 194.471 246.598 190.126C247.351 189.039 245.571 188.012 244.825 189.093L244.839 189.086Z" fill="#1B1E24"/>
<path d="M235.091 151.575C234.694 154.188 234.303 156.795 233.913 159.408C233.9 159.395 233.893 159.381 233.886 159.367C233.557 159.743 233.14 159.949 232.722 160.12C229.655 161.406 226.383 161.399 223.214 160.818C222.673 160.722 222.098 160.544 221.605 160.236C221.502 160.407 221.407 160.578 221.311 160.742C220.421 158.266 219.723 155.584 219.257 152.813C219.182 152.355 219.127 151.807 219.319 151.465C219.49 151.178 219.77 151.192 220.01 151.26C221.899 151.773 223.412 154.072 224.809 156.268C225.589 153.312 226.664 150.111 228.533 149.276C228.683 149.208 228.861 149.16 229.005 149.283C229.142 149.392 229.224 149.645 229.286 149.878C229.594 151.021 229.71 152.3 229.621 153.538C230.381 151.267 231.504 149.331 232.839 147.983C233.379 147.436 234.078 146.984 234.632 147.497C235.419 148.209 235.31 150.117 235.091 151.568V151.575Z" fill="white"/>
<path d="M234.098 151.308C233.701 153.921 233.311 156.535 232.921 159.141L234.797 158.895L234.769 158.854C234.434 158.293 233.626 158.17 233.154 158.649C232.531 159.278 231.497 159.518 230.669 159.737C229.703 159.99 228.718 160.127 227.725 160.161C226.78 160.195 225.836 160.154 224.898 160.044C223.96 159.935 222.954 159.832 222.119 159.354C221.639 159.08 220.996 159.237 220.715 159.723C220.613 159.894 220.517 160.058 220.421 160.229L222.297 160.476C221.811 159.114 221.386 157.739 221.037 156.336C220.715 155.057 220.291 153.661 220.222 152.334C220.209 152.197 220.209 152.06 220.229 151.924C219.682 152.102 219.552 152.218 219.832 152.279C219.908 152.375 220.318 152.491 220.435 152.56C220.886 152.834 221.263 153.196 221.619 153.579C222.516 154.544 223.214 155.68 223.919 156.781C224.385 157.513 225.562 157.417 225.795 156.535C226.26 154.783 226.746 152.95 227.732 151.404C227.917 151.11 228.122 150.836 228.382 150.596C228.485 150.501 228.656 150.412 228.738 150.316L228.889 150.234C228.389 149.974 228.197 149.988 228.321 150.282C228.293 150.466 228.43 150.761 228.471 150.959C228.519 151.239 228.56 151.527 228.581 151.814C228.629 152.389 228.622 152.964 228.588 153.538C228.519 154.749 230.244 154.859 230.607 153.812C231.196 152.095 232.024 150.405 233.249 149.043C233.441 148.824 233.797 148.339 234.112 148.298C233.879 148.332 234.03 148.195 234.064 148.455C234.078 148.599 234.153 148.742 234.18 148.886C234.317 149.666 234.222 150.521 234.112 151.294C234.03 151.848 234.249 152.389 234.831 152.56C235.31 152.697 236.015 152.389 236.097 151.842C236.275 150.603 236.453 149.269 236.097 148.051C235.741 146.834 234.673 145.903 233.366 146.396C232.182 146.84 231.285 148.127 230.607 149.139C229.758 150.412 229.135 151.821 228.636 153.265L230.655 153.538C230.73 152.143 230.737 150.289 230.059 149.023C229.382 147.757 227.972 148.243 227.082 149.023C225.172 150.699 224.46 153.634 223.83 155.987L225.706 155.741C224.809 154.332 223.892 152.854 222.666 151.698C221.776 150.856 219.942 149.509 218.751 150.569C218.148 151.11 218.128 151.965 218.224 152.704C218.34 153.62 218.532 154.53 218.73 155.426C219.148 157.322 219.682 159.182 220.332 161.002C220.619 161.803 221.742 162.056 222.208 161.249C222.303 161.078 222.399 160.907 222.502 160.742L221.099 161.112C222.105 161.693 223.214 161.864 224.35 162.015C225.569 162.172 226.794 162.254 228.019 162.186C229.245 162.117 230.47 161.933 231.641 161.584C232.702 161.269 233.831 160.886 234.619 160.079L233.003 159.873L233.03 159.914C233.441 160.605 234.769 160.585 234.906 159.668C235.296 157.055 235.686 154.441 236.083 151.835C236.166 151.281 235.947 150.74 235.365 150.569C234.879 150.432 234.187 150.74 234.098 151.287V151.308Z" fill="#1B1E24"/>
<path d="M207.123 173.855C203.629 174.125 200.318 176.183 198.53 179.201C196.39 182.815 196.559 187.6 198.713 191.215C199.471 192.48 200.46 193.624 201.679 194.456C202.593 195.079 203.629 195.519 204.685 195.857C207.225 196.676 210.042 196.92 212.541 195.972C213.672 195.539 214.701 194.876 215.69 194.165C216.74 193.407 217.762 192.588 218.588 191.587C220.491 189.286 221.236 186.111 220.688 183.181C220.139 180.25 218.331 177.597 215.88 175.899C213.428 174.193 210.002 173.645 207.022 173.855H207.13H207.123Z" fill="white"/>
<path d="M207.123 172.839C202.132 173.286 197.731 176.738 196.424 181.631C195.117 186.524 196.871 192.412 201.164 195.329C203.433 196.872 206.487 197.644 209.216 197.597C212.169 197.549 214.62 196.263 216.916 194.504C219.069 192.852 220.735 190.802 221.46 188.148C222.137 185.671 221.954 183.018 220.965 180.65C219.909 178.118 217.999 175.871 215.595 174.524C213.015 173.083 209.927 172.65 207.015 172.832C205.722 172.914 205.695 174.836 207.015 174.863H207.123C208.43 174.89 208.43 172.86 207.123 172.832H207.015V174.863C211.417 174.585 215.798 175.925 218.257 179.803C220.573 183.458 220.356 188.372 217.261 191.526C215.636 193.191 213.428 194.788 211.139 195.329C208.85 195.871 206.297 195.424 204.096 194.565C199.891 192.927 197.724 188.338 198.062 183.993C198.435 179.201 202.336 175.289 207.123 174.856C208.417 174.741 208.43 172.711 207.123 172.826V172.839Z" fill="#1B1E24"/>
<path d="M203.994 191.958C204.186 188.345 204.758 184.67 206.032 181.272L204.145 181.521C205.729 184.58 207.333 187.632 208.917 190.698C209.53 191.881 211.313 190.836 210.7 189.653C209.117 186.594 207.512 183.542 205.928 180.476C205.481 179.618 204.331 179.95 204.042 180.725C202.706 184.282 202.128 188.172 201.928 191.958C201.859 193.293 203.925 193.286 203.994 191.958Z" fill="#1B1E24"/>
<path d="M210.211 191.113C211.024 190.795 211.83 190.442 212.635 190.103C213.275 189.833 213.813 189.341 213.806 188.587C213.806 187.943 213.337 187.307 213.062 186.746C211.836 184.248 210.776 181.666 209.764 179.071L209.041 180.351C210.315 179.846 211.54 179.251 212.883 178.926C214.226 178.6 213.627 176.607 212.332 176.926C211.038 177.244 209.764 177.846 208.49 178.351C208.015 178.538 207.547 179.064 207.767 179.632C208.387 181.223 209.027 182.808 209.702 184.372C210.025 185.127 210.356 185.874 210.707 186.615C210.893 187.016 211.079 187.411 211.272 187.805C211.368 187.999 211.465 188.193 211.561 188.386L211.657 188.58C211.768 188.843 211.788 188.836 211.726 188.546L211.995 188.089C211.781 188.359 211.162 188.497 210.838 188.629C210.446 188.795 210.053 188.968 209.654 189.12C209.137 189.321 208.772 189.819 208.931 190.4C209.068 190.899 209.681 191.328 210.205 191.127L210.211 191.113Z" fill="#1B1E24"/>
<path d="M213.785 181.044C212.669 181.48 211.554 181.923 210.439 182.359C210.177 182.462 209.963 182.587 209.819 182.836C209.688 183.058 209.633 183.39 209.716 183.639C209.798 183.888 209.95 184.13 210.191 184.262C210.432 184.393 210.735 184.469 210.989 184.366C212.105 183.93 213.22 183.487 214.336 183.051C214.597 182.947 214.811 182.822 214.956 182.573C215.086 182.352 215.141 182.019 215.059 181.77C214.976 181.521 214.825 181.279 214.584 181.147C214.343 181.016 214.04 180.94 213.785 181.044Z" fill="#1B1E24"/>
<path d="M207.457 185.196C206.087 185.667 204.772 186.303 203.395 186.774C202.885 186.947 202.493 187.494 202.672 188.054C202.837 188.56 203.395 188.968 203.945 188.781C205.316 188.31 206.631 187.674 208.008 187.203C208.517 187.03 208.91 186.483 208.731 185.923C208.566 185.418 208.008 185.009 207.457 185.196Z" fill="#1B1E24"/>
<path d="M221.57 188.006C221.529 189.577 221.598 191.154 221.79 192.719C221.852 193.196 221.935 193.701 222.265 194.04C222.623 194.407 223.188 194.414 223.684 194.525C226.321 195.113 228.166 195.078 230.59 194.989C232.291 194.926 234.412 194.504 235.927 193.729C236.161 193.611 236.395 193.466 236.526 193.238C236.663 192.995 236.656 192.705 236.656 192.428C236.622 190.753 236.581 189.071 236.546 187.396" fill="white"/>
<path d="M220.537 188.005C220.503 189.48 220.558 190.954 220.723 192.421C220.847 193.507 221.033 194.615 222.1 195.168C222.665 195.466 223.374 195.521 223.987 195.639C224.6 195.757 225.233 195.854 225.86 195.93C227.044 196.068 228.235 196.089 229.427 196.054C231.795 195.999 234.205 195.743 236.354 194.663C237.579 194.047 237.71 193.071 237.682 191.819C237.648 190.338 237.614 188.857 237.579 187.383C237.552 186.047 235.486 186.047 235.513 187.383C235.541 188.566 235.569 189.75 235.596 190.933C235.61 191.417 235.727 192.04 235.631 192.518C235.582 192.767 235.644 192.649 235.5 192.774C235.369 192.885 235.162 192.947 235.004 193.016C233.234 193.77 231.32 193.93 229.427 193.978C227.533 194.027 225.584 193.819 223.636 193.452C223.257 193.383 223.051 193.404 222.899 193.044C222.713 192.615 222.748 191.992 222.706 191.535C222.603 190.359 222.575 189.175 222.603 187.999C222.637 186.663 220.572 186.663 220.537 187.999V188.005Z" fill="#1B1E24"/>
<path d="M221.35 183.064C221.308 184.635 221.377 186.213 221.57 187.777C221.632 188.255 221.715 188.76 222.045 189.099C222.403 189.466 222.968 189.473 223.464 189.583C226.101 190.172 227.946 190.137 230.37 190.047C232.071 189.985 234.191 189.563 235.706 188.788C235.94 188.67 236.175 188.525 236.305 188.296C236.443 188.054 236.436 187.763 236.436 187.486C236.402 185.812 236.36 184.13 236.326 182.455" fill="white"/>
<path d="M220.317 183.064C220.282 184.538 220.338 186.013 220.503 187.48C220.627 188.566 220.813 189.674 221.88 190.227C222.445 190.525 223.154 190.58 223.767 190.698C224.379 190.816 225.013 190.912 225.639 190.989C226.824 191.127 228.015 191.148 229.206 191.113C231.575 191.058 233.985 190.802 236.133 189.722C237.359 189.106 237.49 188.13 237.462 186.878C237.428 185.397 237.393 183.916 237.359 182.441C237.331 181.106 235.266 181.106 235.293 182.441C235.321 183.625 235.348 184.808 235.376 185.992C235.39 186.476 235.507 187.099 235.41 187.577C235.362 187.826 235.424 187.708 235.279 187.833C235.149 187.943 234.942 188.006 234.784 188.075C233.014 188.829 231.1 188.988 229.206 189.037C227.313 189.085 225.364 188.878 223.415 188.511C223.037 188.442 222.83 188.462 222.679 188.103C222.493 187.674 222.527 187.051 222.486 186.594C222.383 185.417 222.355 184.234 222.383 183.057C222.417 181.722 220.351 181.722 220.317 183.057V183.064Z" fill="#1B1E24"/>
<path d="M220.813 176.69C220.758 178.6 220.881 180.517 221.184 182.407C221.233 182.697 221.288 183.009 221.487 183.23C221.701 183.473 222.031 183.556 222.341 183.625C226.535 184.573 230.955 184.462 235.093 183.306C235.438 183.21 235.789 183.099 236.03 182.836C236.333 182.504 236.374 182.012 236.395 181.556C236.471 179.805 236.464 178.047 236.367 176.303" fill="white"/>
<path d="M219.78 176.69C219.745 178.102 219.794 179.507 219.952 180.912C220.076 182.047 220.055 183.597 221.143 184.282C222.176 184.926 223.76 184.974 224.937 185.12C226.245 185.279 227.567 185.334 228.883 185.3C230.198 185.265 231.506 185.12 232.794 184.898C233.944 184.704 235.396 184.545 236.395 183.888C237.476 183.175 237.435 181.798 237.462 180.642C237.496 179.196 237.476 177.756 237.4 176.317C237.331 174.988 235.266 174.981 235.334 176.317C235.389 177.452 235.424 178.587 235.41 179.715C235.41 180.282 235.389 180.85 235.369 181.417C235.348 181.846 235.383 182.054 235.025 182.261C234.667 182.469 234.081 182.518 233.682 182.607C233.159 182.725 232.628 182.829 232.105 182.919C231.038 183.099 229.964 183.189 228.883 183.223C226.748 183.286 224.703 183.023 222.617 182.635C222.148 182.545 222.204 182.31 222.135 181.839C222.045 181.237 221.983 180.628 221.935 180.012C221.845 178.905 221.825 177.798 221.852 176.69C221.887 175.355 219.821 175.355 219.787 176.69H219.78Z" fill="#1B1E24"/>
<path d="M231.017 173.604C231.017 173.604 231.065 173.61 231.086 173.61C231.065 173.61 231.038 173.604 231.017 173.604C228.166 173.278 225.24 173.742 222.637 174.932C221.921 175.258 221.15 175.742 221.019 176.524C220.923 177.105 221.24 177.701 221.694 178.074C222.148 178.448 222.727 178.635 223.298 178.773C226.073 179.452 228.979 179.133 231.83 179.022C232.869 178.981 233.95 178.953 234.887 178.49C235.816 178.019 236.553 176.96 236.278 175.95C236.016 174.981 234.997 174.448 234.04 174.15C233.083 173.853 232.084 173.673 231.086 173.61" fill="white"/>
<path d="M231.017 174.642H231.086C232.408 174.78 232.401 172.704 231.086 172.572C228.29 172.289 225.46 172.642 222.858 173.714C221.742 174.171 220.455 174.773 220.076 176.04C219.697 177.306 220.475 178.621 221.591 179.244C222.83 179.936 224.434 180.088 225.825 180.178C227.347 180.282 228.876 180.199 230.397 180.123C232.856 179.998 236.512 180.151 237.276 177.085C238.137 173.638 233.455 172.739 231.079 172.566C229.75 172.469 229.757 174.545 231.079 174.642C232.25 174.725 233.709 174.898 234.715 175.569C235.63 176.178 235.259 177.154 234.363 177.59C233.207 178.151 231.644 177.984 230.397 178.047C229.062 178.116 227.726 178.185 226.39 178.137C225.185 178.088 223.711 178.04 222.63 177.452C221.198 176.676 222.878 175.922 223.649 175.611C226.032 174.656 228.545 174.386 231.086 174.642C232.408 174.773 232.401 172.697 231.086 172.566H231.017C229.695 172.427 229.702 174.503 231.017 174.635V174.642Z" fill="#1B1E24"/>
<path d="M236.546 193.099C236.278 193.632 235.672 193.902 235.1 194.068C234.24 194.304 233.345 194.401 232.456 194.345C233.262 193.743 233.675 192.663 233.475 191.674C233.283 190.691 232.477 189.847 231.506 189.611C232.615 189.113 233.365 187.916 233.331 186.698C233.29 185.48 232.47 184.331 231.341 183.902C232.449 183.272 233.055 181.874 232.766 180.628C232.532 179.666 231.912 179.272 231.045 179.113C232.126 178.94 233.131 177.632 233.303 176.469C233.482 175.244 232.601 173.943 231.444 173.659C232.808 173.742 234.24 174.005 235.135 175.009C235.672 175.611 235.927 176.421 236.078 177.216C236.319 178.434 236.367 179.687 236.409 180.933C236.54 184.601 236.643 188.276 236.705 191.951C236.712 192.338 236.719 192.746 236.546 193.099Z" fill="#1B1E24"/>
<path d="M235.658 192.58C235.135 193.424 233.296 193.348 232.463 193.314L233.193 195.085C235.534 193.148 234.618 189.452 231.788 188.615L232.036 190.511C235.107 188.967 235.08 184.386 231.871 183.009V184.801C234.419 183.203 234.722 178.836 231.327 178.116V180.116C232.98 179.735 234.24 178.019 234.357 176.358C234.474 174.697 233.303 173.14 231.727 172.662L231.451 174.704C232.849 174.801 234.329 175.098 234.853 176.579C235.417 178.164 235.348 179.971 235.403 181.632C235.465 183.466 235.52 185.3 235.569 187.14C235.596 188.116 235.617 189.092 235.638 190.068C235.658 190.933 235.844 192.013 235.555 192.836C235.1 194.096 237.097 194.636 237.545 193.39C237.896 192.414 237.731 191.265 237.71 190.241C237.689 189.092 237.662 187.943 237.627 186.794C237.566 184.531 237.51 182.268 237.407 180.012C237.325 178.22 237.235 176.095 236.113 174.6C234.99 173.105 233.172 172.752 231.444 172.635C230.253 172.552 230.088 174.344 231.169 174.676C232.938 175.216 232.339 177.77 230.769 178.13C229.792 178.351 229.771 179.922 230.769 180.13C231.424 180.268 231.782 180.51 231.802 181.237C231.823 181.964 231.43 182.642 230.818 183.023C230.205 183.403 230.067 184.49 230.818 184.815C232.608 185.583 232.773 187.833 230.983 188.732C230.163 189.147 230.418 190.393 231.231 190.628C232.69 191.058 232.821 192.719 231.727 193.625C230.99 194.234 231.637 195.362 232.456 195.397C234.171 195.473 236.443 195.245 237.442 193.639C238.144 192.497 236.361 191.459 235.658 192.594V192.58Z" fill="#1B1E24"/>
<path fill-rule="evenodd" clip-rule="evenodd" d="M255.778 152.365C255.409 152.155 254.299 152.089 252.014 152.111C247.879 152.155 245.02 152.503 243.657 153.105C242.713 153.52 242.619 153.613 242.917 153.912C243.447 154.442 245.804 154.558 250.352 154.282C253.471 154.099 254.691 153.934 255.315 153.636C256.33 153.127 256.468 152.757 255.778 152.365Z" fill="#5F44FF"/>
<path fill-rule="evenodd" clip-rule="evenodd" d="M247.095 134.626C246.428 134.626 245.086 135.736 242.039 138.807C239.224 141.673 238.181 143.175 238.716 143.705C238.898 143.888 239.18 143.844 239.638 143.612C240.654 143.126 245.362 138.647 246.516 137.073C247.576 135.642 247.808 134.626 247.095 134.626Z" fill="#5F44FF"/>
<path fill-rule="evenodd" clip-rule="evenodd" d="M229.569 131.274C229.498 131.042 229.293 130.583 229.106 130.302C228.758 129.794 228.714 129.771 228.322 130.141C227.676 130.721 227.56 132.268 227.858 136.101C228.272 141.623 228.344 142.038 228.736 142.176C229.591 142.502 229.729 141.668 229.707 136.609C229.685 133.93 229.614 131.528 229.569 131.274Z" fill="#5F44FF"/>
<path fill-rule="evenodd" clip-rule="evenodd" d="M217.448 141.833C216.824 140.723 212.689 136.056 211.469 135.062C211.006 134.692 210.338 134.394 210.012 134.394C209.134 134.394 209.228 135.338 210.194 136.68C211.37 138.277 215.874 142.573 216.752 142.916C217.839 143.38 218.066 143.01 217.442 141.828L217.448 141.833Z" fill="#5F44FF"/>
<path fill-rule="evenodd" clip-rule="evenodd" d="M210.404 153.083C209.714 152.459 209.526 152.415 206.849 152.067C201.837 151.399 198.558 151.719 198.558 152.851C198.558 153.752 199.276 153.868 206.43 154.144C209.455 154.26 209.847 154.238 210.31 153.868C210.818 153.453 210.818 153.431 210.404 153.083Z" fill="#5F44FF"/>
<path d="M60.4083 255.033C65.5411 259.597 66.9255 260.68 72.0583 265.243C73.0119 266.089 74.275 264.556 73.3215 263.71C68.1887 259.146 66.8043 258.064 61.6714 253.5C60.7179 252.654 59.4547 254.188 60.4083 255.033Z" fill="#CED3D8"/>
<path d="M71.3308 257.525L71.4508 260.721L71.5087 262.321C71.5212 262.701 71.6528 263.444 71.5472 263.717C71.5891 263.614 71.6724 263.7 71.5428 263.671C71.5191 263.668 71.3399 263.709 71.3078 263.717C71.0625 263.755 70.8147 263.766 70.5635 263.79C70.0424 263.842 69.5205 263.883 68.9995 263.935C67.9245 264.035 66.8537 264.131 65.7735 264.228C64.498 264.344 64.6902 266.321 65.9607 266.201C67.2311 266.081 68.4373 265.977 69.6705 265.86C70.7734 265.756 72.3824 265.89 73.1231 264.887C73.5103 264.365 73.5264 263.744 73.5105 263.13C73.4945 262.516 73.4607 261.862 73.4387 261.235L73.3032 257.331C73.2525 256.054 71.2852 256.252 71.3308 257.525Z" fill="#CED3D8"/>
<path d="M178.082 265.953C183.492 261.722 184.805 260.554 190.215 256.322C191.218 255.536 189.936 254.018 188.933 254.805C183.523 259.036 182.21 260.204 176.8 264.436C175.797 265.222 177.079 266.74 178.082 265.953Z" fill="#CED3D8"/>
<path d="M182.491 255.654L185.657 256.109L187.242 256.339C187.617 256.395 188.372 256.399 188.622 256.552C188.529 256.492 188.628 256.425 188.576 256.548C188.569 256.571 188.577 256.754 188.579 256.787C188.573 257.035 188.539 257.281 188.518 257.533C188.475 258.054 188.423 258.575 188.379 259.097C188.286 260.173 188.188 261.243 188.09 262.323C187.975 263.599 189.955 263.764 190.064 262.493C190.174 261.222 190.288 260.016 190.394 258.782C190.49 257.678 190.909 256.119 190.056 255.211C189.612 254.737 189.003 254.609 188.396 254.515C187.79 254.421 187.14 254.337 186.519 254.246L182.654 253.679C181.389 253.5 181.231 255.471 182.491 255.654Z" fill="#CED3D8"/>
<path d="M76.1556 175.76C119.998 175.668 131.22 175.534 175.063 175.442C183.199 175.423 183.183 173.437 175.047 173.455C131.205 173.547 119.982 173.682 76.1397 173.773C68.0035 173.792 68.0194 175.778 76.1556 175.76Z" fill="#CED3D8"/>
<path d="M175.239 169.963L177.383 172.337L178.455 173.527C178.708 173.809 179.286 174.295 179.38 174.572C179.347 174.467 179.465 174.479 179.347 174.539C179.327 174.553 179.216 174.699 179.197 174.726C179.033 174.913 178.85 175.08 178.673 175.26C178.307 175.634 177.933 176.001 177.567 176.375C176.807 177.142 176.048 177.903 175.282 178.671C174.378 179.579 175.795 180.971 176.692 180.063C177.589 179.156 178.447 178.301 179.317 177.42C180.096 176.633 181.416 175.702 181.34 174.457C181.301 173.809 180.915 173.322 180.508 172.861C180.102 172.401 179.656 171.921 179.237 171.455L176.626 168.549C175.768 167.602 174.386 169.017 175.239 169.963Z" fill="#CED3D8"/>
<path d="M31.4418 238.649C26.1789 238.921 20.0099 238.443 14.7543 237.94C10.6803 237.544 6.36702 236.802 3.27889 233.751C2.51773 233.001 1.8798 232.061 1.4086 231.022C0.719937 227.798 1.19113 224.277 3.03966 221.721C4.61273 219.561 6.92521 218.283 9.22319 217.269C22.4311 211.398 37.2919 212.173 51.0798 215.892C54.1316 216.716 57.227 217.714 59.757 219.825C62.2869 221.927 64.1645 225.349 63.8745 228.903C63.5555 232.77 60.7211 235.887 57.5387 237.297C54.3564 238.698 50.8478 238.723 47.4334 238.731C45.0412 238.739 42.6562 238.748 40.264 238.748C38.662 238.756 35.2331 239.292 30.8836 238.649" fill="#EFF2F3"/>
<path d="M31.4412 237.412C26.5988 237.651 21.7491 237.33 16.9212 236.901C12.7312 236.53 7.97576 236.299 4.48893 233.281C3.72052 232.613 2.87962 231.723 2.48816 230.701C2.06046 229.571 2.11846 227.963 2.27069 226.768C2.5824 224.294 3.75677 222.216 5.54006 220.773C7.45383 219.223 9.73731 218.291 11.9483 217.459C14.1593 216.626 16.4863 215.933 18.8132 215.43C28.3096 213.353 38.183 214.086 47.6141 216.288C52.0071 217.31 57.1975 218.316 60.4523 222.15C61.8369 223.783 62.8445 225.96 62.8155 228.268C62.7865 230.577 61.7064 232.506 60.2638 233.982C56.2333 238.096 50.115 237.478 45.0986 237.495C42.8152 237.495 40.5389 237.47 38.2627 237.618C35.798 237.775 33.3405 237.758 30.8831 237.412C29.4985 237.214 29.513 239.688 30.8831 239.886C33.3043 240.232 35.7255 240.257 38.154 240.1C40.4084 239.96 42.6629 239.985 44.9174 239.976C49.9991 239.96 55.7476 240.413 60.2059 237.124C63.9972 234.32 66.1067 229.299 64.2871 224.335C62.2864 218.869 57.3279 216.42 52.5943 215.043C42.3802 212.066 31.579 210.821 21.104 212.503C15.9716 213.328 10.5637 214.795 5.96051 217.591C3.909 218.836 2.04597 220.608 1.03109 223.032C0.0162063 225.457 -0.288253 228.408 0.291673 231.03C0.936852 233.933 3.82201 236.043 6.08374 237.132C8.47596 238.286 11.0422 238.756 13.6083 239.053C19.5019 239.737 25.5114 240.174 31.434 239.886C32.8258 239.82 32.8331 237.346 31.434 237.412L31.4412 237.412Z" fill="#EFF2F3"/>
<path d="M13.8716 229.015C14.2169 229.435 14.6183 229.771 15.0756 230.023C15.5329 230.275 15.9856 230.406 16.4336 230.415C16.8723 230.415 17.2643 230.341 17.6096 230.191C17.9549 230.042 18.2256 229.837 18.4216 229.575C18.6269 229.305 18.7296 229.001 18.7296 228.665C18.7296 228.367 18.6316 228.115 18.4356 227.909C18.2396 227.704 17.9923 227.541 17.6936 227.419C17.3949 227.289 16.9843 227.144 16.4616 226.985C15.7709 226.771 15.2063 226.561 14.7676 226.355C14.3289 226.15 13.9556 225.856 13.6476 225.473C13.3396 225.081 13.1856 224.577 13.1856 223.961C13.1949 223.411 13.3443 222.925 13.6336 222.505C13.9229 222.076 14.3289 221.745 14.8516 221.511C15.3836 221.278 15.9763 221.161 16.6296 221.161C17.2269 221.171 17.8103 221.325 18.3796 221.623C18.9583 221.913 19.4389 222.291 19.8216 222.757L18.7436 223.597C18.4636 223.243 18.1369 222.963 17.7636 222.757C17.3903 222.543 17.0123 222.431 16.6296 222.421C16.0416 222.421 15.5609 222.566 15.1876 222.855C14.8236 223.145 14.6416 223.518 14.6416 223.975C14.6416 224.293 14.7443 224.559 14.9496 224.773C15.1549 224.988 15.4116 225.165 15.7196 225.305C16.0276 225.436 16.4476 225.585 16.9796 225.753C17.6609 225.987 18.2163 226.206 18.6456 226.411C19.0749 226.607 19.4389 226.892 19.7376 227.265C20.0363 227.629 20.1856 228.101 20.1856 228.679C20.1763 229.267 20.0129 229.79 19.6956 230.247C19.3783 230.695 18.9349 231.045 18.3656 231.297C17.7963 231.549 17.1476 231.675 16.4196 231.675C15.7476 231.666 15.0803 231.498 14.4176 231.171C13.7643 230.835 13.2183 230.397 12.7796 229.855L13.8716 229.015ZM24.1554 231.619C23.7354 231.619 23.3574 231.526 23.0214 231.339C22.6947 231.143 22.4334 230.877 22.2374 230.541C22.0507 230.196 21.9527 229.804 21.9434 229.365V222.309H23.3994V229.295C23.3994 229.547 23.4694 229.767 23.6094 229.953C23.7587 230.14 23.9407 230.238 24.1554 230.247C24.3047 230.247 24.496 230.219 24.7294 230.163C24.7854 230.154 24.8414 230.145 24.8974 230.135L25.1914 231.493C24.7994 231.577 24.454 231.619 24.1554 231.619ZM20.6974 224.311H25.2614V225.585H20.6974V224.311ZM29.2364 230.443C29.619 230.443 29.9784 230.336 30.3144 230.121C30.6504 229.897 30.9164 229.599 31.1124 229.225C31.3177 228.843 31.4204 228.423 31.4204 227.965C31.4204 227.508 31.3177 227.093 31.1124 226.719C30.9164 226.337 30.6504 226.038 30.3144 225.823C29.9784 225.599 29.619 225.487 29.2364 225.487C28.8257 225.487 28.457 225.595 28.1304 225.809C27.813 226.015 27.5657 226.304 27.3884 226.677C27.211 227.041 27.1224 227.471 27.1224 227.965C27.1224 228.451 27.211 228.885 27.3884 229.267C27.5657 229.641 27.813 229.93 28.1304 230.135C28.457 230.341 28.8257 230.443 29.2364 230.443ZM32.8484 231.577L31.3924 231.591V230.373C31.1964 230.663 30.977 230.905 30.7344 231.101C30.4917 231.288 30.2304 231.423 29.9504 231.507C29.6797 231.601 29.409 231.647 29.1384 231.647C28.4664 231.647 27.8644 231.493 27.3324 231.185C26.8097 230.868 26.399 230.429 26.1004 229.869C25.811 229.309 25.6664 228.675 25.6664 227.965C25.6664 227.256 25.811 226.621 26.1004 226.061C26.399 225.501 26.8097 225.067 27.3324 224.759C27.8644 224.442 28.4664 224.283 29.1384 224.283C29.5584 224.283 29.9644 224.391 30.3564 224.605C30.7577 224.811 31.103 225.123 31.3924 225.543V224.255H32.8484V231.577ZM35.58 227.559L38.422 224.255H40.382L37.54 227.517L40.354 231.577H38.59L36.504 228.581L35.58 229.687V231.577H34.124V221.273H35.58V227.559ZM45.8661 227.377C45.8288 227.032 45.7354 226.719 45.5861 226.439C45.4368 226.15 45.2221 225.917 44.9421 225.739C44.6714 225.553 44.3308 225.459 43.9201 225.459C43.5561 225.459 43.2201 225.543 42.9121 225.711C42.6134 225.879 42.3661 226.113 42.1701 226.411C41.9741 226.701 41.8481 227.027 41.7921 227.391L45.8661 227.377ZM46.9301 226.229C47.0981 226.631 47.1914 227.027 47.2101 227.419C47.2381 227.802 47.2381 228.138 47.2101 228.427V228.497H41.7921C41.8388 228.871 41.9648 229.202 42.1701 229.491C42.3754 229.771 42.6321 229.995 42.9401 230.163C43.2481 230.322 43.5701 230.401 43.9061 230.401C44.4661 230.401 44.8861 230.303 45.1661 230.107C45.4554 229.911 45.6608 229.706 45.7821 229.491L45.8101 229.463L46.9721 229.995C46.7481 230.453 46.3748 230.84 45.8521 231.157C45.3294 231.465 44.6761 231.619 43.8921 231.619C43.2108 231.619 42.6041 231.465 42.0721 231.157C41.5401 230.84 41.1248 230.401 40.8261 229.841C40.5367 229.281 40.3921 228.647 40.3921 227.937C40.3921 227.219 40.5367 226.579 40.8261 226.019C41.1248 225.459 41.5401 225.025 42.0721 224.717C42.6041 224.4 43.2108 224.241 43.8921 224.241C44.5641 224.241 45.1194 224.377 45.5581 224.647C45.9968 224.918 46.3141 225.198 46.5101 225.487C46.7154 225.777 46.8508 226.015 46.9161 226.201L46.9301 226.229ZM49.4545 225.641C49.6598 225.231 49.9771 224.89 50.4065 224.619C50.8451 224.349 51.3071 224.213 51.7925 224.213V225.543C51.3631 225.543 50.9665 225.66 50.6025 225.893C50.2478 226.127 49.9678 226.425 49.7625 226.789C49.5571 227.153 49.4545 227.531 49.4545 227.923V231.577H48.0125V224.255H49.4545V225.641Z" fill="#1B1E24"/>
<path d="M43.7473 158.07C46.2287 158.29 48.6793 159.129 50.8844 160.689C55.755 164.132 57.6122 170.768 56.635 176.457C55.8113 181.251 52.8899 185.456 48.2854 187.416C42.3046 189.959 34.8247 188.623 30.3123 184.162C27.9793 181.855 26.6747 178.754 26.25 175.516C26.0198 173.74 26.1477 171.929 26.5672 170.195C28.4602 162.408 36.2266 157.404 43.7422 158.075L43.7473 158.07Z" fill="white"/>
<path d="M43.7479 159.349C46.9404 159.656 50.0152 161.129 52.1486 163.539C53.9802 165.606 55.029 168.297 55.4434 171.003C56.2825 176.483 54.2207 182.51 49.3296 185.451C44.4386 188.393 37.6596 187.933 32.9528 184.699C27.6217 181.036 25.9845 173.474 28.7984 167.749C31.6123 162.024 37.6136 158.837 43.753 159.349C44.4437 159.405 45.032 158.719 45.032 158.07C45.032 157.328 44.4437 156.847 43.753 156.791C37.3885 156.258 30.9984 159.497 27.5194 164.823C23.4316 171.08 24.1325 180.125 29.6784 185.318C34.5695 189.902 42.2591 191.238 48.4547 188.721C54.6504 186.203 58.421 179.542 58.1601 172.758C58.0322 169.479 57.1113 166.153 55.2695 163.416C53.2332 160.392 50.1482 158.228 46.6283 157.282C45.6869 157.026 44.7251 156.883 43.7581 156.785C43.0674 156.719 42.4791 157.42 42.4791 158.064C42.4791 158.811 43.0674 159.277 43.7581 159.344L43.7479 159.349Z" fill="#1B1E24"/>
<path d="M44.2743 165.355C41.6139 164.899 38.1604 165.636 37.1065 168.45C36.7126 169.504 36.7842 170.742 37.3623 171.719C38.0377 172.865 39.2195 173.336 40.4627 173.617C41.8543 173.935 43.2971 174.017 44.6529 174.482C45.3538 174.723 45.8449 175.29 46.0393 175.95C46.2593 176.682 46.2031 177.414 45.8296 178.048C45.4561 178.682 44.6068 179.158 43.7524 179.409C41.5525 180.054 38.7232 179.639 36.9888 178.109C36.4721 177.654 35.6893 177.598 35.1777 178.109C34.7121 178.575 34.6559 179.46 35.1777 179.921C37.0451 181.568 39.6032 182.335 42.0743 182.243C44.3817 182.156 47.124 181.276 48.1932 179.035C49.1551 177.02 48.7509 174.4 46.9961 172.937C45.9114 172.031 44.5147 171.75 43.1538 171.52C42.4785 171.402 41.8032 171.31 41.1329 171.157C40.785 171.08 40.4167 171.003 40.0892 170.865C40.0381 170.844 39.7465 170.655 39.7362 170.645C39.4855 170.42 39.419 170.174 39.4088 169.811C39.4037 169.56 39.5623 169.1 39.7823 168.839C40.6418 167.831 42.3506 167.616 43.5887 167.831C44.2691 167.949 44.9649 167.652 45.1645 166.936C45.3333 166.322 44.9547 165.478 44.2691 165.36L44.2743 165.355Z" fill="#1B1E24"/>
<path d="M34.0424 170.338C33.669 171.29 32.8248 171.791 32.0471 171.551C31.2695 171.31 30.8653 170.43 31.2337 169.479C31.6071 168.527 32.5332 167.944 33.3108 168.184C34.0834 168.42 34.4108 169.387 34.0424 170.338Z" fill="#1B1E24" stroke="#1B1E24" stroke-miterlimit="10"/>
<path d="M51.8512 170.338C51.4777 171.29 50.6335 171.791 49.8558 171.551C49.0782 171.31 48.674 170.43 49.0424 169.479C49.4159 168.527 50.3419 167.944 51.1195 168.184C51.8972 168.425 52.2195 169.387 51.8512 170.338Z" fill="#1B1E24" stroke="#1B1E24" stroke-miterlimit="10"/>
<path d="M40.6424 147.029C40.6884 148.86 40.6219 150.697 40.6935 152.529C40.7191 153.199 41.2614 153.839 41.9726 153.808C42.6428 153.777 43.2772 153.245 43.2516 152.529C43.18 150.697 43.2516 148.86 43.2004 147.029C43.1851 146.359 42.6223 145.719 41.9214 145.75C41.2205 145.781 40.6219 146.313 40.6424 147.029Z" fill="#1B1E24"/>
<path d="M33.4481 151.68C34.1234 152.585 34.8397 153.455 35.602 154.289C35.8168 154.524 36.1903 154.662 36.5075 154.662C36.8247 154.662 37.1982 154.524 37.4131 154.289C37.628 154.053 37.8019 153.726 37.7866 153.383C37.7712 153.04 37.6484 152.739 37.4131 152.478C36.8605 151.879 36.3285 151.26 35.8322 150.615L36.0317 150.876C35.9038 150.713 35.781 150.549 35.6582 150.385C35.5764 150.237 35.4689 150.114 35.3308 150.027C35.208 149.914 35.0648 149.838 34.8959 149.797C34.589 149.715 34.1797 149.751 33.9085 149.925C33.6374 150.099 33.3969 150.365 33.3202 150.687C33.2434 151.009 33.2485 151.403 33.4481 151.674V151.68Z" fill="#1B1E24"/>
<path d="M48.1471 150.385C48.0295 150.544 47.9067 150.702 47.7839 150.861L47.9834 150.6C47.482 151.25 46.9448 151.869 46.3923 152.472C46.1621 152.718 46.0188 153.035 46.0188 153.378C46.0188 153.69 46.1569 154.069 46.3923 154.284C46.6276 154.499 46.9551 154.672 47.2978 154.657C47.6406 154.642 47.9732 154.534 48.2034 154.284C48.9708 153.45 49.682 152.58 50.3573 151.674C50.5415 151.424 50.5671 150.973 50.4852 150.687C50.4034 150.4 50.1731 150.068 49.8969 149.925C49.6001 149.766 49.242 149.689 48.9094 149.797L48.6025 149.925C48.408 150.037 48.2597 150.191 48.142 150.385H48.1471Z" fill="#1B1E24"/>
<path d="M24.0256 174.326C22.1477 173.743 19.9868 173.725 18.0396 173.991C12.1577 174.788 8.09003 180.07 7.95714 185.883C7.94558 186.42 7.9687 186.957 8.0207 187.488C8.18826 189.047 8.63316 190.588 9.44207 191.933C10.0487 192.944 10.8519 193.827 11.7186 194.624C13.8044 196.54 16.4218 198.035 19.253 198.226C20.5415 198.312 21.8299 198.128 23.0953 197.885C24.4473 197.62 25.7994 197.279 27.0416 196.685C29.9017 195.311 32.0395 192.574 32.808 189.497C34.4489 182.956 30.2773 176.271 24.0256 174.326Z" fill="#1DCBC7"/>
<path d="M24.2686 173.437C19.028 171.884 13.1345 173.529 9.80646 177.894C6.47837 182.258 5.90058 188.787 9.21133 193.232C10.9678 195.582 13.4928 197.516 16.2604 198.52C19.2649 199.606 22.6103 199.144 25.6033 198.22C30.9479 196.569 34.4204 191.402 34.068 185.831C33.7155 180.26 29.6825 175.169 24.2686 173.437C23.1361 173.073 22.6508 174.851 23.7775 175.215C27.8683 176.525 31.0519 180.006 31.9821 184.198C32.9702 188.637 31.0403 193.509 26.9553 195.686C25.7535 196.327 24.4246 196.667 23.0957 196.939C21.6454 197.233 20.1432 197.458 18.664 197.239C16.1102 196.863 13.8163 195.391 11.9963 193.619C9.99135 191.668 8.92821 189.214 8.87043 186.414C8.82999 184.278 9.36156 182.142 10.4189 180.278C11.5803 178.24 13.3425 176.566 15.5093 175.625C18.0227 174.534 21.1659 174.43 23.7717 175.203C24.91 175.544 25.3953 173.766 24.2628 173.425L24.2686 173.437Z" fill="#1B1E24"/>
<path d="M24.2686 173.437C19.028 171.884 13.1345 173.529 9.80646 177.894C6.47837 182.258 5.90058 188.787 9.21133 193.232C10.9678 195.582 13.4928 197.516 16.2604 198.52C19.2649 199.606 22.6103 199.144 25.6033 198.22C30.9479 196.569 34.4204 191.402 34.068 185.831C33.7155 180.26 29.6825 175.169 24.2686 173.437ZM24.2686 173.437C23.1361 173.073 22.6508 174.851 23.7775 175.215C27.8683 176.525 31.0519 180.006 31.9821 184.198C32.9702 188.637 31.0403 193.509 26.9553 195.686C25.7535 196.327 24.4246 196.667 23.0957 196.939C21.6454 197.233 20.1432 197.458 18.664 197.239C16.1102 196.863 13.8163 195.391 11.9963 193.619C9.99135 191.668 8.92821 189.214 8.87043 186.414C8.82999 184.278 9.36156 182.142 10.4189 180.278C11.5803 178.24 13.3425 176.566 15.5093 175.625C18.0227 174.534 21.1659 174.43 23.7717 175.203C24.91 175.544 25.3953 173.766 24.2628 173.425L24.2686 173.437Z" stroke="#1B1E24"/>
<path d="M12.9327 190.802C14.6949 187.46 16.827 184.209 19.531 181.548L17.9595 180.896C18.1328 184.481 18.3292 188.06 18.4968 191.645C18.5546 192.823 20.3977 192.834 20.34 191.645C20.1666 188.06 19.9702 184.481 19.8026 180.896C19.7679 180.111 18.8146 179.666 18.231 180.243C15.4229 183.009 13.1753 186.397 11.3437 189.867C10.789 190.918 12.3838 191.847 12.9327 190.796V190.802Z" fill="#1B1E24"/>
<path d="M19.5653 192.563C20.4608 192.615 21.3795 192.673 22.2751 192.667C22.9396 192.667 23.5983 192.367 23.8063 191.691C24.0027 191.056 23.8467 190.265 23.8352 189.607C23.7774 186.726 23.8929 183.846 24.0605 180.971L23.136 181.895C24.4823 181.97 25.8285 181.935 27.1575 182.195C28.3188 182.426 28.8099 180.648 27.6486 180.417C26.1521 180.122 24.6498 180.134 23.136 180.047C22.616 180.018 22.2404 180.492 22.2116 180.971C22.1076 182.72 22.0267 184.463 21.992 186.218C21.9747 187.084 21.9689 187.95 21.9747 188.822C21.9747 189.249 21.9862 189.676 21.9978 190.098C22.0093 190.438 22.1191 190.97 21.9978 191.276L22.2347 190.871C22.3156 190.779 22.2693 190.848 22.1307 190.825C22.0382 190.808 21.9342 190.814 21.8418 190.808C21.5818 190.796 21.3218 190.791 21.0618 190.779C20.5648 190.762 20.0622 190.756 19.5653 190.721C18.3808 190.652 18.3866 192.494 19.5653 192.563Z" fill="#1B1E24"/>
<path d="M26.9898 185.3C24.3724 185.243 21.755 185.185 19.1434 185.127C17.9589 185.104 17.9589 186.946 19.1434 186.969C21.7608 187.026 24.3782 187.084 26.9898 187.142C28.1743 187.165 28.1743 185.323 26.9898 185.3Z" fill="#1B1E24"/>
<path d="M19.1783 185.762C17.6703 185.606 16.1449 185.63 14.6369 185.474C14.1573 185.422 13.6951 185.93 13.7124 186.397C13.7355 186.94 14.1168 187.263 14.6369 187.321C16.1449 187.477 17.6703 187.454 19.1783 187.61C19.6579 187.662 20.1201 187.154 20.1028 186.686C20.0797 186.143 19.6983 185.82 19.1783 185.762Z" fill="#1B1E24"/>
<g filter="url(#filter0_d_8449_7398)">
<rect x="83" y="27.1932" width="90" height="43" rx="10" fill="#1B1E24"/>
</g>
<path d="M107.765 54.4032C106.895 54.4032 106.115 54.2132 105.425 53.8332C104.745 53.4532 104.21 52.9282 103.82 52.2582C103.44 51.5782 103.25 50.8032 103.25 49.9332V43.2582H104.81V49.9332C104.81 50.5332 104.935 51.0632 105.185 51.5232C105.435 51.9832 105.78 52.3432 106.22 52.6032C106.67 52.8532 107.185 52.9782 107.765 52.9782C108.345 52.9782 108.86 52.8532 109.31 52.6032C109.76 52.3432 110.11 51.9832 110.36 51.5232C110.61 51.0632 110.735 50.5332 110.735 49.9332V43.2582H112.295V49.9332C112.295 50.8032 112.1 51.5782 111.71 52.2582C111.33 52.9282 110.795 53.4532 110.105 53.8332C109.425 54.2132 108.645 54.4032 107.765 54.4032ZM119.555 49.9482C119.555 49.2782 119.385 48.7482 119.045 48.3582C118.705 47.9682 118.245 47.7732 117.665 47.7732C117.285 47.7832 116.935 47.8832 116.615 48.0732C116.305 48.2632 116.06 48.5232 115.88 48.8532C115.71 49.1732 115.625 49.5382 115.625 49.9482V54.2982H114.065V46.4532H115.625V47.7732C115.855 47.3932 116.18 47.0832 116.6 46.8432C117.03 46.5932 117.46 46.4682 117.89 46.4682C118.43 46.4682 118.945 46.5882 119.435 46.8282C119.925 47.0682 120.325 47.4482 120.635 47.9682C120.955 48.4782 121.115 49.1182 121.115 49.8882V54.2982H119.555V49.9482ZM123.35 52.1232C123.58 52.4432 123.86 52.6882 124.19 52.8582C124.52 53.0182 124.84 53.0982 125.15 53.0982C125.58 53.1082 125.935 53.0132 126.215 52.8132C126.495 52.6032 126.635 52.3382 126.635 52.0182C126.635 51.8482 126.57 51.7032 126.44 51.5832C126.31 51.4532 126.14 51.3482 125.93 51.2682C125.72 51.1782 125.455 51.0832 125.135 50.9832C124.585 50.8032 124.135 50.6332 123.785 50.4732C123.445 50.3032 123.145 50.0682 122.885 49.7682C122.635 49.4582 122.515 49.0632 122.525 48.5832C122.535 48.1532 122.66 47.7682 122.9 47.4282C123.14 47.0782 123.475 46.8132 123.905 46.6332C124.335 46.4432 124.82 46.3532 125.36 46.3632C125.83 46.3732 126.3 46.4882 126.77 46.7082C127.24 46.9282 127.61 47.2332 127.88 47.6232L126.83 48.5082C126.64 48.2382 126.41 48.0332 126.14 47.8932C125.87 47.7532 125.605 47.6782 125.345 47.6682C124.975 47.6682 124.675 47.7532 124.445 47.9232C124.215 48.0932 124.095 48.3182 124.085 48.5982C124.085 48.7682 124.15 48.9182 124.28 49.0482C124.41 49.1682 124.58 49.2732 124.79 49.3632C125.01 49.4432 125.285 49.5432 125.615 49.6632C126.155 49.8332 126.595 49.9982 126.935 50.1582C127.285 50.3182 127.585 50.5532 127.835 50.8632C128.085 51.1632 128.205 51.5482 128.195 52.0182C128.185 52.4982 128.05 52.9182 127.79 53.2782C127.53 53.6382 127.17 53.9182 126.71 54.1182C126.25 54.3182 125.725 54.4182 125.135 54.4182C124.615 54.4082 124.09 54.2782 123.56 54.0282C123.03 53.7782 122.6 53.4382 122.27 53.0082L123.35 52.1232ZM132.465 54.3432C132.015 54.3432 131.61 54.2432 131.25 54.0432C130.9 53.8332 130.62 53.5482 130.41 53.1882C130.21 52.8182 130.105 52.3982 130.095 51.9282V44.3682H131.655V51.8532C131.655 52.1232 131.73 52.3582 131.88 52.5582C132.04 52.7582 132.235 52.8632 132.465 52.8732C132.625 52.8732 132.83 52.8432 133.08 52.7832C133.14 52.7732 133.2 52.7632 133.26 52.7532L133.575 54.2082C133.155 54.2982 132.785 54.3432 132.465 54.3432ZM128.76 46.5132H133.65V47.8782H128.76V46.5132ZM138.209 53.0832C138.619 53.0832 139.004 52.9682 139.364 52.7382C139.724 52.4982 140.009 52.1782 140.219 51.7782C140.439 51.3682 140.549 50.9182 140.549 50.4282C140.549 49.9382 140.439 49.4932 140.219 49.0932C140.009 48.6832 139.724 48.3632 139.364 48.1332C139.004 47.8932 138.619 47.7732 138.209 47.7732C137.769 47.7732 137.374 47.8882 137.024 48.1182C136.684 48.3382 136.419 48.6482 136.229 49.0482C136.039 49.4382 135.944 49.8982 135.944 50.4282C135.944 50.9482 136.039 51.4132 136.229 51.8232C136.419 52.2232 136.684 52.5332 137.024 52.7532C137.374 52.9732 137.769 53.0832 138.209 53.0832ZM142.079 54.2982L140.519 54.3132V53.0082C140.309 53.3182 140.074 53.5782 139.814 53.7882C139.554 53.9882 139.274 54.1332 138.974 54.2232C138.684 54.3232 138.394 54.3732 138.104 54.3732C137.384 54.3732 136.739 54.2082 136.169 53.8782C135.609 53.5382 135.169 53.0682 134.849 52.4682C134.539 51.8682 134.384 51.1882 134.384 50.4282C134.384 49.6682 134.539 48.9882 134.849 48.3882C135.169 47.7882 135.609 47.3232 136.169 46.9932C136.739 46.6532 137.384 46.4832 138.104 46.4832C138.554 46.4832 138.989 46.5982 139.409 46.8282C139.839 47.0482 140.209 47.3832 140.519 47.8332V46.4532H142.079V54.2982ZM145.306 49.9932L148.351 46.4532H150.451L147.406 49.9482L150.421 54.2982H148.531L146.296 51.0882L145.306 52.2732V54.2982H143.746V43.2582H145.306V49.9932ZM156.627 49.7982C156.587 49.4282 156.487 49.0932 156.327 48.7932C156.167 48.4832 155.937 48.2332 155.637 48.0432C155.347 47.8432 154.982 47.7432 154.542 47.7432C154.152 47.7432 153.792 47.8332 153.462 48.0132C153.142 48.1932 152.877 48.4432 152.667 48.7632C152.457 49.0732 152.322 49.4232 152.262 49.8132L156.627 49.7982ZM157.767 48.5682C157.947 48.9982 158.047 49.4232 158.067 49.8432C158.097 50.2532 158.097 50.6132 158.067 50.9232V50.9982H152.262C152.312 51.3982 152.447 51.7532 152.667 52.0632C152.887 52.3632 153.162 52.6032 153.492 52.7832C153.822 52.9532 154.167 53.0382 154.527 53.0382C155.127 53.0382 155.577 52.9332 155.877 52.7232C156.187 52.5132 156.407 52.2932 156.537 52.0632L156.567 52.0332L157.812 52.6032C157.572 53.0932 157.172 53.5082 156.612 53.8482C156.052 54.1782 155.352 54.3432 154.512 54.3432C153.782 54.3432 153.132 54.1782 152.562 53.8482C151.992 53.5082 151.547 53.0382 151.227 52.4382C150.917 51.8382 150.762 51.1582 150.762 50.3982C150.762 49.6282 150.917 48.9432 151.227 48.3432C151.547 47.7432 151.992 47.2782 152.562 46.9482C153.132 46.6082 153.782 46.4382 154.512 46.4382C155.232 46.4382 155.827 46.5832 156.297 46.8732C156.767 47.1632 157.107 47.4632 157.317 47.7732C157.537 48.0832 157.682 48.3382 157.752 48.5382L157.767 48.5682Z" fill="#FCFEFF"/>
<g filter="url(#filter1_d_8449_7398)">
<path d="M170.661 82.0886L159.219 64.1347C158.755 63.4068 159.364 62.4056 160.202 62.5185L179.084 65.0645C179.901 65.1747 180.178 66.2494 179.541 66.8393L173.561 72.3775C173.364 72.5598 173.24 72.8133 173.215 73.0831L172.446 81.5416C172.357 82.511 171.163 82.877 170.661 82.0886Z" fill="white"/>
<path d="M157.995 65.0324L169.437 82.9862C170.693 84.9573 173.679 84.0424 173.899 81.6187L174.649 73.3708L180.476 67.9749C182.068 66.5002 181.377 63.8134 179.334 63.5379L160.452 60.9919C158.357 60.7096 156.836 63.2126 157.995 65.0324Z" stroke="#1B1E24" stroke-width="3" stroke-linecap="square"/>
</g>
<path fill-rule="evenodd" clip-rule="evenodd" d="M192.426 48.4368C192.221 48.0078 191.226 47.3271 189.067 46.0958C185.159 43.8727 182.242 42.6768 180.556 42.576C179.39 42.5035 179.238 42.553 179.316 43.0378C179.454 43.8995 181.587 45.3189 186.04 47.5196C189.089 49.0363 190.345 49.5279 191.132 49.5495C192.428 49.5603 192.808 49.2378 192.426 48.4368Z" fill="#5F44FF"/>
<path fill-rule="evenodd" clip-rule="evenodd" d="M194.28 26.2926C193.688 25.9487 191.791 26.379 187.132 27.9109C182.808 29.3558 180.925 30.3356 181.061 31.1467C181.106 31.4245 181.384 31.5248 181.938 31.5265C183.148 31.5587 190.178 29.4602 192.205 28.4647C194.057 27.566 194.911 26.6592 194.28 26.2926Z" fill="#5F44FF"/>
<path fill-rule="evenodd" clip-rule="evenodd" d="M179.388 13.4433C179.467 13.1831 179.571 12.6381 179.584 12.2725C179.599 11.6084 179.576 11.5651 179.036 11.7298C178.163 11.9722 177.152 13.4128 175.127 17.273C172.197 22.8275 172.011 23.2642 172.25 23.5918C172.759 24.3304 173.366 23.5908 176.343 18.6795C177.911 16.0739 179.274 13.7112 179.388 13.4433Z" fill="#5F44FF"/>
<path fill-rule="evenodd" clip-rule="evenodd" d="M161.305 16.7089C161.461 15.2673 160.779 8.4285 160.333 6.79712C160.158 6.18494 159.757 5.54012 159.469 5.37249C158.692 4.92075 158.172 5.92236 158.171 7.77426C158.194 9.99058 159.44 16.6462 159.999 17.4436C160.666 18.4716 161.102 18.2146 161.304 16.7005L161.305 16.7089Z" fill="#5F44FF"/>
<path fill-rule="evenodd" clip-rule="evenodd" d="M148.506 23.3815C148.282 22.336 148.136 22.1861 145.867 20.3505C141.632 16.8958 138.35 15.4472 137.586 16.66C136.979 17.6242 137.572 18.1406 144.075 22.3456C146.825 24.1228 147.206 24.3133 147.889 24.1703C148.643 24.0041 148.658 23.9804 148.506 23.3815Z" fill="#5F44FF"/>
<defs>
<filter id="filter0_d_8449_7398" x="80" y="25.1932" width="96" height="49" filterUnits="userSpaceOnUse" color-interpolation-filters="sRGB">
<feFlood flood-opacity="0" result="BackgroundImageFix"/>
<feColorMatrix in="SourceAlpha" type="matrix" values="0 0 0 0 0 0 0 0 0 0 0 0 0 0 0 0 0 0 127 0" result="hardAlpha"/>
<feOffset dy="1"/>
<feGaussianBlur stdDeviation="1.5"/>
<feComposite in2="hardAlpha" operator="out"/>
<feColorMatrix type="matrix" values="0 0 0 0 0.557762 0 0 0 0 0.580846 0 0 0 0 0.662687 0 0 0 0.15 0"/>
<feBlend mode="normal" in2="BackgroundImageFix" result="effect1_dropShadow_8449_7398"/>
<feBlend mode="normal" in="SourceGraphic" in2="effect1_dropShadow_8449_7398" result="shape"/>
</filter>
<filter id="filter1_d_8449_7398" x="152.13" y="56.4303" width="34.6841" height="34.1697" filterUnits="userSpaceOnUse" color-interpolation-filters="sRGB">
<feFlood flood-opacity="0" result="BackgroundImageFix"/>
<feColorMatrix in="SourceAlpha" type="matrix" values="0 0 0 0 0 0 0 0 0 0 0 0 0 0 0 0 0 0 127 0" result="hardAlpha"/>
<feOffset dy="1"/>
<feGaussianBlur stdDeviation="2"/>
<feColorMatrix type="matrix" values="0 0 0 0 0 0 0 0 0 0 0 0 0 0 0 0 0 0 0.35 0"/>
<feBlend mode="normal" in2="BackgroundImageFix" result="effect1_dropShadow_8449_7398"/>
<feBlend mode="normal" in="SourceGraphic" in2="effect1_dropShadow_8449_7398" result="shape"/>
</filter>
</defs>
</svg>
