<svg width="261" height="325" viewBox="0 0 261 325" fill="none" xmlns="http://www.w3.org/2000/svg">
<path d="M17.822 211.709C27.1305 211.709 34.6765 204.163 34.6765 194.854C34.6765 185.546 27.1305 178 17.822 178C8.51354 178 0.967529 185.546 0.967529 194.854C0.967529 204.163 8.51354 211.709 17.822 211.709Z" fill="#1B1E24"/>
<path d="M8.34167 201.607C8.39092 199.884 9.18885 198.185 9.64626 196.548C10.2939 194.23 11.1271 191.825 12.212 189.677C12.5015 189.104 13.1579 188.037 13.7195 187.648C14.2831 187.258 14.4974 187.618 14.8719 188.039C15.5972 188.855 15.8488 189.79 15.901 190.888C15.9873 192.698 15.9921 194.503 16.104 196.316C16.2195 198.188 16.4301 200.138 16.4301 201.998" stroke="white" stroke-width="2.5" stroke-linecap="round"/>
<path d="M11.3442 194.823C15.2189 194.823 23.5773 194.823 27.4478 194.823" stroke="white" stroke-width="2.5" stroke-linecap="round"/>
<path d="M16.386 202.231C16.8297 202.231 21.8855 202.459 21.9098 201.998C21.9758 200.744 21.8297 199.494 21.7866 198.244C21.7144 196.151 21.7793 194.048 21.7793 191.953C21.7793 191.127 21.7793 190.301 21.7793 189.474C21.7793 188.847 21.6885 188.692 22.3881 188.692C24.229 188.692 26.07 188.692 27.9109 188.692" stroke="white" stroke-width="2.5" stroke-linecap="round"/>
<path d="M45.4336 194.858L45.4336 194.857C45.4274 186.099 52.5275 179 61.2814 179C70.0421 179 77.1426 186.099 77.1426 194.858C77.1426 203.616 70.0423 210.709 61.2881 210.709C52.5277 210.709 45.4336 203.61 45.4336 194.858Z" fill="#8247E5" stroke="#512897" stroke-width="2"/>
<path d="M60.4379 191.297C60.4379 190.406 60.4386 189.547 59.9844 188.752C59.8667 188.546 59.462 188.478 59.2979 188.286C58.9985 187.937 58.1346 187.448 57.7169 187.329C57.3898 187.235 57.186 186.896 56.8099 186.875C56.27 186.845 55.6775 186.971 55.1597 187.102C54.4408 187.284 53.5217 187.502 52.8418 187.808C52.5694 187.93 52.2255 188.075 52.0733 188.349C51.5343 189.319 51.708 190.678 51.708 191.75C51.708 192.461 51.6242 193.195 51.7017 193.892C51.7545 194.367 51.9615 194.526 52.2182 194.925C52.9653 196.087 54.2177 196.665 55.2227 197.526C55.4739 197.742 56.0141 197.665 56.306 197.583C57.2984 197.305 58.2125 196.789 59.1341 196.348C60.639 195.629 62.06 194.722 63.5873 194.043C64.7484 193.527 66.5457 192.648 67.8325 193.363C68.372 193.663 68.8742 194.022 69.4135 194.314C69.9838 194.623 70.7996 194.97 71.2653 195.435C71.6073 195.777 71.5099 196.356 71.6054 196.796C71.7457 197.441 71.7755 198.285 71.7755 198.944C71.7755 199.817 71.6398 200.526 71.0071 201.135C70.4526 201.669 69.2433 201.847 68.5128 202.068C67.8903 202.255 67.3024 202.461 66.6736 202.609C64.8399 203.041 63.5917 201.229 62.0252 200.707" stroke="white" stroke-width="2.5" stroke-linecap="round"/>
<path d="M40.0401 323.276C33.7082 323.552 26.2861 323.066 19.9629 322.556C15.0613 322.154 9.87199 321.4 6.15658 318.301C5.24082 317.539 4.47329 316.585 3.90639 315.529C3.07784 312.255 3.64474 308.679 5.86875 306.083C7.76135 303.889 10.5435 302.591 13.3083 301.561C29.1991 295.598 47.0784 296.385 63.667 300.162C67.3388 301 71.0629 302.013 74.1067 304.157C77.1506 306.292 79.4095 309.768 79.0606 313.377C78.6769 317.305 75.2667 320.47 71.4379 321.902C67.6091 323.326 63.3879 323.351 59.28 323.359C56.4018 323.368 53.5324 323.376 50.6543 323.376C48.7268 323.385 44.6015 323.929 39.3685 323.276" fill="#E5F8F7"/>
<path d="M40.0392 322.02C34.2131 322.262 28.3783 321.936 22.5697 321.5C17.5286 321.123 11.8073 320.889 7.61215 317.824C6.68766 317.146 5.67594 316.241 5.20497 315.203C4.6904 314.055 4.76018 312.422 4.94334 311.208C5.31837 308.696 6.73128 306.585 8.8768 305.12C11.1793 303.545 13.9266 302.599 16.5867 301.753C19.2468 300.908 22.0465 300.204 24.8461 299.693C36.2714 297.583 48.1503 298.328 59.4971 300.564C64.7824 301.603 71.0271 302.624 74.9431 306.518C76.609 308.177 77.8213 310.387 77.7864 312.732C77.7515 315.077 76.452 317.037 74.7163 318.536C69.8671 322.715 62.5061 322.087 56.4707 322.103C53.7234 322.103 50.9848 322.078 48.2462 322.229C45.2809 322.388 42.3242 322.371 39.3676 322.02C37.7018 321.819 37.7192 324.331 39.3676 324.532C42.2806 324.884 45.1936 324.909 48.1154 324.75C50.8278 324.607 53.5403 324.632 56.2527 324.624C62.3665 324.607 69.2828 325.068 74.6466 321.726C79.208 318.879 81.746 313.779 79.5569 308.738C77.1497 303.185 71.1841 300.698 65.4889 299.3C53.2001 296.276 40.2049 295.012 27.6021 296.72C21.4272 297.558 14.9209 299.048 9.38264 301.887C6.91442 303.152 4.67298 304.952 3.45194 307.414C2.23092 309.877 1.8646 312.875 2.56232 315.538C3.33855 318.486 6.80977 320.629 9.53092 321.735C12.4091 322.907 15.4965 323.385 18.584 323.686C25.6747 324.381 32.9049 324.825 40.0304 324.532C41.705 324.465 41.7137 321.953 40.0304 322.02L40.0392 322.02Z" fill="#E5F8F7"/>
<path d="M19.7492 313.315C20.0945 313.735 20.4958 314.071 20.9532 314.323C21.4105 314.575 21.8632 314.705 22.3112 314.715C22.7498 314.715 23.1418 314.64 23.4872 314.491C23.8325 314.341 24.1032 314.136 24.2992 313.875C24.5045 313.604 24.6072 313.301 24.6072 312.965C24.6072 312.666 24.5092 312.414 24.3132 312.209C24.1172 312.003 23.8698 311.84 23.5712 311.719C23.2725 311.588 22.8618 311.443 22.3392 311.285C21.6485 311.07 21.0838 310.86 20.6452 310.655C20.2065 310.449 19.8332 310.155 19.5252 309.773C19.2172 309.381 19.0632 308.877 19.0632 308.261C19.0725 307.71 19.2218 307.225 19.5112 306.805C19.8005 306.375 20.2065 306.044 20.7292 305.811C21.2612 305.577 21.8538 305.461 22.5072 305.461C23.1045 305.47 23.6878 305.624 24.2572 305.923C24.8358 306.212 25.3165 306.59 25.6992 307.057L24.6212 307.897C24.3412 307.542 24.0145 307.262 23.6412 307.057C23.2678 306.842 22.8898 306.73 22.5072 306.721C21.9192 306.721 21.4385 306.865 21.0652 307.155C20.7012 307.444 20.5192 307.817 20.5192 308.275C20.5192 308.592 20.6218 308.858 20.8272 309.073C21.0325 309.287 21.2892 309.465 21.5972 309.605C21.9052 309.735 22.3252 309.885 22.8572 310.053C23.5385 310.286 24.0938 310.505 24.5232 310.711C24.9525 310.907 25.3165 311.191 25.6152 311.565C25.9138 311.929 26.0632 312.4 26.0632 312.979C26.0538 313.567 25.8905 314.089 25.5732 314.547C25.2558 314.995 24.8125 315.345 24.2432 315.597C23.6738 315.849 23.0252 315.975 22.2972 315.975C21.6252 315.965 20.9578 315.797 20.2952 315.471C19.6418 315.135 19.0958 314.696 18.6572 314.155L19.7492 313.315ZM31.1389 315.625C30.9523 315.709 30.7749 315.769 30.6069 315.807C30.4389 315.853 30.2196 315.877 29.9489 315.877C29.5383 315.877 29.1696 315.783 28.8429 315.597C28.5256 315.41 28.2736 315.149 28.0869 314.813C27.9096 314.477 27.8209 314.094 27.8209 313.665V306.609H29.2769V313.665C29.2769 313.935 29.3469 314.159 29.4869 314.337C29.6363 314.505 29.8229 314.593 30.0469 314.603C30.2429 314.612 30.4856 314.551 30.7749 314.421L30.7889 314.407L31.2369 315.583L31.1389 315.625ZM26.5749 308.611H31.1389V309.885H26.5749V308.611ZM35.1139 314.743C35.4966 314.743 35.8559 314.635 36.1919 314.421C36.5279 314.197 36.7939 313.898 36.9899 313.525C37.1953 313.142 37.2979 312.722 37.2979 312.265C37.2979 311.807 37.1953 311.392 36.9899 311.019C36.7939 310.636 36.5279 310.337 36.1919 310.123C35.8559 309.899 35.4966 309.787 35.1139 309.787C34.7033 309.787 34.3346 309.894 34.0079 310.109C33.6906 310.314 33.4433 310.603 33.2659 310.977C33.0886 311.341 32.9999 311.77 32.9999 312.265C32.9999 312.75 33.0886 313.184 33.2659 313.567C33.4433 313.94 33.6906 314.229 34.0079 314.435C34.3346 314.64 34.7033 314.743 35.1139 314.743ZM38.7259 315.877L37.2699 315.891V314.673C37.0739 314.962 36.8546 315.205 36.6119 315.401C36.3693 315.587 36.1079 315.723 35.8279 315.807C35.5573 315.9 35.2866 315.947 35.0159 315.947C34.3439 315.947 33.7419 315.793 33.2099 315.485C32.6873 315.167 32.2766 314.729 31.9779 314.169C31.6886 313.609 31.5439 312.974 31.5439 312.265C31.5439 311.555 31.6886 310.921 31.9779 310.361C32.2766 309.801 32.6873 309.367 33.2099 309.059C33.7419 308.741 34.3439 308.583 35.0159 308.583C35.4359 308.583 35.8419 308.69 36.2339 308.905C36.6353 309.11 36.9806 309.423 37.2699 309.843V308.555H38.7259V315.877ZM41.4576 311.859L44.2996 308.555H46.2596L43.4176 311.817L46.2316 315.877H44.4676L42.3816 312.881L41.4576 313.987V315.877H40.0016V305.573H41.4576V311.859ZM48.6642 308.597V315.877H47.2082V308.597H48.6642ZM47.9362 305.391C48.1789 305.391 48.3749 305.47 48.5242 305.629C48.6735 305.778 48.7482 305.974 48.7482 306.217C48.7482 306.45 48.6735 306.646 48.5242 306.805C48.3749 306.963 48.1789 307.043 47.9362 307.043C47.6935 307.043 47.4929 306.963 47.3342 306.805C47.1755 306.646 47.0962 306.45 47.0962 306.217C47.0962 305.974 47.1755 305.778 47.3342 305.629C47.4929 305.47 47.6935 305.391 47.9362 305.391ZM55.1055 311.817C55.1055 311.191 54.9468 310.697 54.6295 310.333C54.3122 309.969 53.8828 309.787 53.3415 309.787C52.9868 309.796 52.6602 309.889 52.3615 310.067C52.0722 310.244 51.8435 310.487 51.6755 310.795C51.5168 311.093 51.4375 311.434 51.4375 311.817V315.877H49.9815V308.555H51.4375V309.787C51.6615 309.432 51.9602 309.143 52.3335 308.919C52.7162 308.685 53.1035 308.569 53.4955 308.569C54.0368 308.569 54.5362 308.681 54.9935 308.905C55.4602 309.129 55.8382 309.483 56.1275 309.969C56.4168 310.445 56.5615 311.042 56.5615 311.761V315.877H55.1055V311.817ZM60.8873 314.729C61.298 314.729 61.6713 314.617 62.0073 314.393C62.3433 314.159 62.6046 313.856 62.7913 313.483C62.978 313.1 63.0713 312.689 63.0713 312.251C63.0713 311.812 62.9733 311.406 62.7773 311.033C62.5906 310.659 62.3293 310.361 61.9933 310.137C61.6666 309.913 61.298 309.801 60.8873 309.801C60.4766 309.801 60.1126 309.903 59.7953 310.109C59.478 310.314 59.2306 310.603 59.0533 310.977C58.876 311.341 58.7873 311.765 58.7873 312.251C58.7873 312.736 58.876 313.165 59.0533 313.539C59.2306 313.912 59.478 314.206 59.7953 314.421C60.1126 314.626 60.4766 314.729 60.8873 314.729ZM64.5273 315.485C64.518 316.175 64.364 316.791 64.0653 317.333C63.7666 317.874 63.342 318.294 62.7913 318.593C62.25 318.891 61.6106 319.041 60.8733 319.041C60.2293 319.041 59.6413 318.915 59.1093 318.663C58.5773 318.411 58.1433 318.014 57.8073 317.473L58.9413 316.703C59.212 317.085 59.4966 317.361 59.7953 317.529C60.1033 317.697 60.4626 317.781 60.8733 317.781C61.3306 317.781 61.7226 317.687 62.0493 317.501C62.376 317.323 62.628 317.071 62.8053 316.745C62.9826 316.418 63.0713 316.04 63.0713 315.611V314.645C62.7913 315.055 62.446 315.373 62.0353 315.597C61.6246 315.821 61.214 315.933 60.8033 315.933C60.1313 315.933 59.5293 315.779 58.9973 315.471C58.4746 315.153 58.064 314.719 57.7653 314.169C57.476 313.609 57.3313 312.969 57.3313 312.251C57.3313 311.541 57.476 310.911 57.7653 310.361C58.064 309.801 58.4746 309.367 58.9973 309.059C59.5293 308.741 60.1313 308.583 60.8033 308.583C61.0926 308.583 61.3773 308.629 61.6573 308.723C61.9466 308.816 62.2126 308.956 62.4553 309.143C62.698 309.329 62.9033 309.563 63.0713 309.843V308.555H64.5273V315.485Z" fill="#5F44FF"/>
<path d="M9.59887 238.995C7.75586 239.04 5.92403 239.073 4.08103 239.118C3.46669 239.129 2.78534 239.162 2.32738 239.575C1.79123 240.078 1.76889 240.903 1.78006 241.629C2.07048 254.608 1.81357 266.081 2.5061 280.31C2.56195 281.124 2.6513 282.028 3.27681 282.553C3.82412 283.01 4.606 283.022 5.33204 282.999C17.9762 282.977 28.2411 283.178 39.7013 282.977C51.1502 283.178 61.6163 283.167 74.0593 282.999C74.7854 283.022 75.5672 282.999 76.1146 282.553C76.7401 282.028 76.8294 281.124 76.8853 280.31C77.3991 264.976 76.8406 256.996 76.9188 242.544C76.9299 241.819 76.9076 240.993 76.3715 240.49C75.9135 240.078 75.2321 240.044 74.6178 240.033C72.7748 239.988 70.943 239.955 69.1 239.91" fill="white"/>
<path d="M9.59947 237.209C7.94635 237.254 6.29323 237.276 4.62894 237.321C3.22156 237.354 1.803 237.432 0.831239 238.593C0.00468004 239.597 -0.0176594 240.892 0.00468005 242.131C0.0381892 243.704 0.0605286 245.289 0.0828681 246.863C0.161056 252.967 0.161056 259.072 0.261584 265.176C0.306262 268.324 0.373281 271.482 0.484978 274.629C0.540827 276.247 0.607845 277.866 0.674863 279.473C0.741881 280.868 0.775391 282.397 1.73599 283.513C2.69658 284.629 3.96993 284.762 5.32147 284.774C7.13096 284.796 8.94045 284.774 10.7499 284.774C13.911 284.774 17.0608 284.796 20.2219 284.818C26.3764 284.852 32.5309 284.863 38.6742 284.774C44.8176 284.684 51.0615 284.908 57.2383 284.908C60.4887 284.908 63.7391 284.885 67.0006 284.863C68.6091 284.852 70.2175 284.829 71.8371 284.818C73.3004 284.796 75.0652 285.041 76.4279 284.417C79.2538 283.111 78.6954 279.138 78.7624 276.593C78.8406 273.614 78.8741 270.634 78.8741 267.654C78.8741 261.717 78.74 255.78 78.6954 249.842C78.6842 248.258 78.673 246.684 78.673 245.099C78.673 243.515 78.9299 241.841 78.3603 240.412C77.7906 238.984 76.4502 238.381 74.9647 238.281C73.01 238.147 71.0329 238.191 69.0671 238.147C66.7773 238.091 66.7773 241.651 69.0671 241.707C70.5415 241.74 72.0047 241.774 73.4791 241.807C73.7695 241.807 75.0205 241.64 75.2216 241.885C75.1657 241.818 75.0987 243.258 75.0987 243.336C75.0987 245.959 75.0987 248.57 75.1322 251.193C75.1769 255.746 75.2663 260.311 75.2886 264.864C75.3109 269.975 75.5008 275.221 75.0764 280.321C75.0205 280.946 75.0764 281.135 74.4732 281.236C73.8365 281.347 73.0211 281.236 72.3733 281.247C70.843 281.269 69.3128 281.281 67.7825 281.292C64.9343 281.314 62.0971 281.336 59.2489 281.347C48.4478 281.37 37.6466 281.303 26.8455 281.292C21.2942 281.292 15.754 281.236 10.2026 281.225C8.8511 281.225 7.48839 281.225 6.13686 281.225C5.81293 281.225 4.67362 281.392 4.41672 281.135C4.07046 280.801 4.22683 279.64 4.20449 279.216C4.07046 276.303 3.96993 273.401 3.90291 270.489C3.75771 264.496 3.73537 258.503 3.67952 252.499C3.65718 249.552 3.62367 246.606 3.56782 243.649C3.55665 242.879 3.43378 242.03 3.52314 241.272C3.52314 241.272 3.55665 240.803 3.40027 240.97C3.54548 240.814 4.12631 240.914 4.31619 240.903C6.05867 240.859 7.81231 240.825 9.55479 240.792C11.8446 240.736 11.8558 237.176 9.55479 237.232L9.59947 237.209Z" fill="#1B1E24"/>
<path d="M46.0127 218.423C42.3826 217.296 38.2051 217.262 34.4409 217.776C23.0701 219.316 15.2066 229.527 14.9497 240.765C14.9274 241.803 14.9721 242.841 15.0726 243.868C15.3965 246.881 16.2566 249.861 17.8203 252.461C18.9932 254.414 20.5458 256.122 22.2212 257.662C26.2535 261.367 31.3134 264.257 36.7865 264.626C39.2774 264.793 41.7682 264.436 44.2144 263.967C46.8281 263.454 49.4418 262.795 51.8433 261.646C57.3723 258.99 61.5051 253.7 62.9907 247.752C66.1629 235.107 58.0984 222.184 46.0127 218.423Z" fill="#1DCBC7"/>
<path d="M46.4813 216.704C36.3504 213.702 24.9573 216.883 18.5235 225.32C12.0897 233.757 10.9728 246.379 17.373 254.972C20.7686 259.514 25.6498 263.253 31.0001 265.195C36.8083 267.293 43.2756 266.4 49.0615 264.615C59.3935 261.423 66.1065 251.435 65.4252 240.665C64.7438 229.896 56.9473 220.052 46.4813 216.704C44.2921 216.001 43.3538 219.439 45.5319 220.142C53.44 222.675 59.5946 229.405 61.3929 237.507C63.3029 246.089 59.5722 255.508 51.6752 259.715C49.3519 260.954 46.7829 261.613 44.2139 262.137C41.4103 262.706 38.5061 263.142 35.6467 262.717C30.7097 261.992 26.2753 259.146 22.7568 255.72C18.8809 251.948 16.8257 247.205 16.714 241.792C16.6358 237.663 17.6634 233.534 19.7075 229.929C21.9526 225.99 25.3594 222.753 29.548 220.934C34.4068 218.825 40.4832 218.624 45.5207 220.119C47.7212 220.778 48.6594 217.34 46.4701 216.682L46.4813 216.704Z" fill="#1B1E24"/>
<path d="M24.5671 250.274C27.9738 243.812 32.0955 237.529 37.3229 232.384L34.2847 231.123C34.6198 238.054 34.9996 244.973 35.3235 251.903C35.4352 254.18 38.9984 254.202 38.8867 251.903C38.5516 244.973 38.1718 238.054 37.8479 231.123C37.7809 229.605 35.9379 228.746 34.8097 229.862C29.3812 235.208 25.0362 241.759 21.4954 248.466C20.4231 250.497 23.506 252.294 24.5671 250.263V250.274Z" fill="#1B1E24"/>
<path d="M37.3897 253.678C39.121 253.778 40.897 253.89 42.6283 253.879C43.9128 253.879 45.1861 253.298 45.5882 251.993C45.968 250.765 45.6664 249.236 45.6441 247.964C45.5324 242.395 45.7558 236.826 46.0797 231.268L44.2926 233.054C46.8951 233.199 49.4976 233.132 52.0667 233.634C54.3118 234.081 55.2612 230.643 53.0161 230.197C50.1231 229.628 47.219 229.65 44.2926 229.483C43.2873 229.427 42.5613 230.342 42.5054 231.268C42.3043 234.65 42.148 238.02 42.081 241.413C42.0474 243.087 42.0363 244.761 42.0474 246.446C42.0474 247.272 42.0698 248.098 42.0921 248.912C42.1145 249.571 42.3267 250.598 42.0921 251.189L42.5501 250.408C42.7065 250.229 42.6171 250.363 42.349 250.319C42.1703 250.285 41.9693 250.296 41.7905 250.285C41.2879 250.263 40.7853 250.252 40.2826 250.229C39.322 250.196 38.3503 250.185 37.3897 250.118C35.0999 249.984 35.111 253.544 37.3897 253.678Z" fill="#1B1E24"/>
<path d="M51.743 239.638C46.6831 239.527 41.6232 239.415 36.5745 239.304C34.2847 239.259 34.2847 242.819 36.5745 242.864C41.6344 242.975 46.6943 243.087 51.743 243.198C54.0328 243.243 54.0328 239.683 51.743 239.638Z" fill="#1B1E24"/>
<path d="M36.6417 240.531C33.7264 240.23 30.7776 240.274 27.8623 239.973C26.9352 239.873 26.0416 240.855 26.0751 241.759C26.1198 242.808 26.857 243.433 27.8623 243.544C30.7776 243.846 33.7264 243.801 36.6417 244.102C37.5688 244.203 38.4624 243.221 38.4288 242.317C38.3842 241.268 37.647 240.643 36.6417 240.531Z" fill="#1B1E24"/>
<path d="M68.4853 258.659H9.79956V274.25H68.4853V258.659Z" fill="white"/>
<path d="M10.9053 257.8C33.2112 257.431 43.0964 257.308 68.3511 257.308L10.9053 257.8Z" fill="white"/>
<path d="M10.9064 259.574C25.1366 259.34 39.3556 259.139 53.5859 259.094C58.5117 259.083 63.4264 259.072 68.3522 259.072C70.642 259.072 70.6532 255.512 68.3522 255.512C53.6194 255.512 38.8865 255.579 24.1536 255.802C19.7416 255.869 15.3184 255.936 10.9064 256.014C8.61656 256.048 8.60539 259.608 10.9064 259.574Z" fill="#1B1E24"/>
<path d="M43.6292 17.7534C47.2047 18.0704 50.7359 19.2794 53.9132 21.5279C60.9314 26.4892 63.6074 36.0507 62.1993 44.2484C61.0125 51.156 56.803 57.2158 50.1682 60.0393C41.5503 63.7032 30.7724 61.7791 24.2703 55.3507C20.9087 52.0259 19.0288 47.5584 18.4169 42.892C18.0852 40.3339 18.2695 37.7242 18.874 35.2251C21.6017 24.0048 32.7924 16.795 43.6219 17.7608L43.6292 17.7534Z" fill="white"/>
<path d="M43.63 19.5964C48.2302 20.0387 52.6607 22.1619 55.7349 25.6341C58.3741 28.6124 59.8853 32.49 60.4825 36.3898C61.6915 44.2853 58.7205 52.9695 51.6729 57.2084C44.6252 61.4473 34.8573 60.7838 28.0751 56.1247C20.3934 50.8464 18.0344 39.9505 22.089 31.7012C26.1436 23.452 34.791 18.8592 43.6374 19.5964C44.6326 19.6775 45.4804 18.6896 45.4804 17.7534C45.4804 16.6844 44.6326 15.9915 43.6374 15.9104C34.4666 15.1437 25.259 19.8102 20.246 27.4844C14.3558 36.5004 15.3657 49.5341 23.357 57.0167C30.4046 63.6221 41.4848 65.5462 50.4123 61.9191C59.3398 58.2921 64.773 48.6937 64.397 38.9184C64.2127 34.193 62.8857 29.4012 60.2318 25.4571C57.2977 21.1003 52.8524 17.9819 47.7805 16.6181C46.424 16.2495 45.0381 16.0431 43.6448 15.903C42.6495 15.8072 41.8018 16.8171 41.8018 17.746C41.8018 18.8223 42.6495 19.4932 43.6448 19.589L43.63 19.5964Z" fill="#1B1E24"/>
<path d="M44.3886 28.2512C40.5552 27.5951 35.5791 28.6567 34.0604 32.7113C33.4928 34.2299 33.596 36.0139 34.429 37.422C35.4021 39.0733 37.1051 39.7515 38.8965 40.157C40.9017 40.6141 42.9806 40.732 44.9341 41.4029C45.9441 41.7494 46.6518 42.5677 46.932 43.5186C47.249 44.5728 47.1679 45.627 46.6297 46.5412C46.0916 47.4553 44.8678 48.1409 43.6367 48.5021C40.4667 49.431 36.39 48.8339 33.8909 46.6296C33.1463 45.9735 32.0184 45.8924 31.2812 46.6296C30.6103 47.3005 30.5292 48.5758 31.2812 49.2393C33.972 51.6131 37.658 52.7189 41.2187 52.5862C44.5434 52.4609 48.4948 51.1929 50.0356 47.964C51.4215 45.0594 50.8391 41.2849 48.3105 39.1765C46.7477 37.8717 44.7351 37.4662 42.7741 37.1345C41.801 36.9649 40.8279 36.8322 39.8622 36.6111C39.3609 36.5005 38.8301 36.3899 38.3583 36.1909C38.2846 36.1614 37.8644 35.8886 37.8496 35.8739C37.4884 35.5495 37.3926 35.1956 37.3778 34.6722C37.3705 34.311 37.599 33.6475 37.916 33.2715C39.1545 31.8193 41.6167 31.5096 43.4008 31.8193C44.3812 31.9888 45.3838 31.5612 45.6713 30.5291C45.9146 29.6445 45.3691 28.4281 44.3812 28.2586L44.3886 28.2512Z" fill="#1B1E24"/>
<path d="M29.6453 35.4317C29.1072 36.8029 27.8908 37.5253 26.7702 37.1788C25.6497 36.8323 25.0673 35.5644 25.5981 34.1932C26.1362 32.822 27.4706 31.9816 28.5911 32.328C29.7043 32.6671 30.1761 34.0605 29.6453 35.4317Z" fill="#1B1E24" stroke="#1B1E24" stroke-miterlimit="10"/>
<path d="M55.3062 35.4317C54.7681 36.8029 53.5517 37.5253 52.4311 37.1788C51.3106 36.8323 50.7282 35.5644 51.259 34.1932C51.7971 32.822 53.1315 31.9816 54.252 32.328C55.3726 32.6745 55.837 34.0605 55.3062 35.4317Z" fill="#1B1E24" stroke="#1B1E24" stroke-miterlimit="10"/>
<path d="M39.1552 1.84453C39.2215 4.48372 39.1257 7.13027 39.2289 9.76945C39.2657 10.7352 40.0472 11.6567 41.0719 11.6125C42.0376 11.5682 42.9517 10.8015 42.9149 9.76945C42.8117 7.13027 42.9149 4.48372 42.8412 1.84453C42.819 0.878801 42.0081 -0.0427014 40.9982 0.00153068C39.9882 0.0457628 39.1257 0.812452 39.1552 1.84453Z" fill="#1B1E24"/>
<path d="M28.7888 8.54584C29.7619 9.85068 30.794 11.1039 31.8925 12.3056C32.2021 12.6447 32.7402 12.8437 33.1973 12.8437C33.6544 12.8437 34.1925 12.6447 34.5022 12.3056C34.8118 11.9665 35.0624 11.4946 35.0403 11.0007C35.0182 10.5068 34.8413 10.0718 34.5022 9.69587C33.706 8.83335 32.9393 7.94133 32.2242 7.01246L32.5117 7.38843C32.3274 7.15253 32.1505 6.91662 31.9736 6.68072C31.8556 6.46693 31.7008 6.29 31.5017 6.16468C31.3248 6.00249 31.1184 5.89191 30.8751 5.83294C30.4328 5.71498 29.843 5.76659 29.4523 6.01724C29.0616 6.26788 28.7151 6.65123 28.6045 7.11567C28.494 7.5801 28.5013 8.14775 28.7888 8.53847V8.54584Z" fill="#1B1E24"/>
<path d="M49.9691 6.68081C49.7995 6.90935 49.6226 7.13788 49.4457 7.36641L49.7332 6.99044C49.0107 7.92668 48.2367 8.8187 47.4405 9.6886C47.1088 10.0425 46.9023 10.4995 46.9023 10.9934C46.9023 11.4431 47.1014 11.9887 47.4405 12.2983C47.7796 12.6079 48.2514 12.8586 48.7453 12.8364C49.2393 12.8143 49.7185 12.6595 50.0502 12.2983C51.156 11.0967 52.1807 9.84341 53.1538 8.53856C53.4192 8.17733 53.4561 7.52859 53.3381 7.11576C53.2202 6.70293 52.8884 6.22375 52.4903 6.01733C52.0628 5.7888 51.5467 5.67822 51.0675 5.83303L50.6252 6.01733C50.3451 6.17952 50.1313 6.40068 49.9617 6.68081H49.9691Z" fill="#1B1E24"/>
<path d="M38.9993 102.662C32.6388 102.933 25.1832 102.458 18.8315 101.958C13.9078 101.565 8.69497 100.827 4.96278 97.7958C4.04287 97.0503 3.2719 96.1163 2.70244 95.084C1.87014 91.8807 2.43961 88.3824 4.67366 85.8426C6.5748 83.6961 9.36957 82.4262 12.1468 81.4185C28.1094 75.5852 46.0695 76.3554 62.7329 80.0503C66.4213 80.8696 70.1622 81.8609 73.2198 83.9583C76.2774 86.0474 78.5465 89.4474 78.1961 92.9785C77.8106 96.8209 74.385 99.9178 70.539 101.319C66.6929 102.712 62.4525 102.736 58.3261 102.744C55.435 102.752 52.5526 102.761 49.6615 102.761C47.7253 102.769 43.5813 103.301 38.3247 102.662" fill="#EFF2F3"/>
<path d="M38.9986 101.433C33.1462 101.671 27.2851 101.351 21.4503 100.925C16.3864 100.557 10.6392 100.327 6.42513 97.3288C5.49647 96.6652 4.4802 95.7803 4.0071 94.7644C3.4902 93.642 3.56028 92.0444 3.74426 90.8565C4.12099 88.3986 5.54028 86.3341 7.69548 84.9003C10.0084 83.3601 12.7681 82.4343 15.4402 81.6068C18.1123 80.7794 20.9246 80.0912 23.7369 79.5914C35.2138 77.5268 47.1463 78.256 58.5444 80.4435C63.8536 81.4594 70.1265 82.4589 74.0602 86.2685C75.7335 87.8907 76.9513 90.0536 76.9162 92.3476C76.8812 94.6415 75.5758 96.5586 73.8324 98.0252C68.9612 102.113 61.567 101.499 55.5043 101.515C52.7446 101.515 49.9937 101.491 47.2427 101.638C44.2639 101.794 41.294 101.777 38.324 101.433C36.6506 101.237 36.6681 103.695 38.324 103.891C41.2502 104.235 44.1763 104.26 47.1113 104.104C49.836 103.965 52.5606 103.989 55.2853 103.981C61.4268 103.965 68.3743 104.416 73.7623 101.147C78.3443 98.3611 80.8937 93.3717 78.6947 88.4396C76.2767 83.0078 70.2842 80.5746 64.5632 79.2064C52.219 76.2488 39.165 75.0117 26.5054 76.683C20.3026 77.5023 13.7669 78.9606 8.20362 81.7379C5.72426 82.975 3.47267 84.7365 2.24613 87.1452C1.01959 89.5538 0.651628 92.4868 1.35251 95.0921C2.13224 97.976 5.61913 100.073 8.35256 101.155C11.2437 102.302 14.3451 102.769 17.4465 103.064C24.5692 103.744 31.8321 104.178 38.9898 103.891C40.6719 103.826 40.6807 101.368 38.9898 101.433L38.9986 101.433Z" fill="#EFF2F3"/>
<path d="M18.1544 93.4049C18.4998 93.8249 18.9011 94.1609 19.3584 94.4129C19.8158 94.6649 20.2684 94.7956 20.7164 94.8049C21.1551 94.8049 21.5471 94.7302 21.8924 94.5809C22.2378 94.4316 22.5084 94.2262 22.7044 93.9649C22.9098 93.6942 23.0124 93.3909 23.0124 93.0549C23.0124 92.7562 22.9144 92.5042 22.7184 92.2989C22.5224 92.0936 22.2751 91.9302 21.9764 91.8089C21.6778 91.6782 21.2671 91.5336 20.7444 91.3749C20.0538 91.1602 19.4891 90.9502 19.0504 90.7449C18.6118 90.5396 18.2384 90.2456 17.9304 89.8629C17.6224 89.4709 17.4684 88.9669 17.4684 88.3509C17.4778 87.8002 17.6271 87.3149 17.9164 86.8949C18.2058 86.4656 18.6118 86.1342 19.1344 85.9009C19.6664 85.6676 20.2591 85.5509 20.9124 85.5509C21.5098 85.5602 22.0931 85.7142 22.6624 86.0129C23.2411 86.3022 23.7218 86.6802 24.1044 87.1469L23.0264 87.9869C22.7464 87.6322 22.4198 87.3522 22.0464 87.1469C21.6731 86.9322 21.2951 86.8202 20.9124 86.8109C20.3244 86.8109 19.8438 86.9556 19.4704 87.2449C19.1064 87.5342 18.9244 87.9076 18.9244 88.3649C18.9244 88.6822 19.0271 88.9482 19.2324 89.1629C19.4378 89.3776 19.6944 89.5549 20.0024 89.6949C20.3104 89.8256 20.7304 89.9749 21.2624 90.1429C21.9438 90.3762 22.4991 90.5956 22.9284 90.8009C23.3578 90.9969 23.7218 91.2816 24.0204 91.6549C24.3191 92.0189 24.4684 92.4902 24.4684 93.0689C24.4591 93.6569 24.2958 94.1796 23.9784 94.6369C23.6611 95.0849 23.2178 95.4349 22.6484 95.6869C22.0791 95.9389 21.4304 96.0649 20.7024 96.0649C20.0304 96.0556 19.3631 95.8876 18.7004 95.5609C18.0471 95.2249 17.5011 94.7862 17.0624 94.2449L18.1544 93.4049ZM30.6922 91.7669C30.6549 91.4216 30.5615 91.1089 30.4122 90.8289C30.2629 90.5396 30.0482 90.3062 29.7682 90.1289C29.4975 89.9422 29.1569 89.8489 28.7462 89.8489C28.3822 89.8489 28.0462 89.9329 27.7382 90.1009C27.4395 90.2689 27.1922 90.5022 26.9962 90.8009C26.8002 91.0902 26.6742 91.4169 26.6182 91.7809L30.6922 91.7669ZM31.7562 90.6189C31.9242 91.0202 32.0175 91.4169 32.0362 91.8089C32.0642 92.1916 32.0642 92.5276 32.0362 92.8169V92.8869H26.6182C26.6649 93.2602 26.7909 93.5916 26.9962 93.8809C27.2015 94.1609 27.4582 94.3849 27.7662 94.5529C28.0742 94.7116 28.3962 94.7909 28.7322 94.7909C29.2922 94.7909 29.7122 94.6929 29.9922 94.4969C30.2815 94.3009 30.4869 94.0956 30.6082 93.8809L30.6362 93.8529L31.7982 94.3849C31.5742 94.8422 31.2009 95.2296 30.6782 95.5469C30.1555 95.8549 29.5022 96.0089 28.7182 96.0089C28.0369 96.0089 27.4302 95.8549 26.8982 95.5469C26.3662 95.2296 25.9509 94.7909 25.6522 94.2309C25.3629 93.6709 25.2182 93.0362 25.2182 92.3269C25.2182 91.6082 25.3629 90.9689 25.6522 90.4089C25.9509 89.8489 26.3662 89.4149 26.8982 89.1069C27.4302 88.7896 28.0369 88.6309 28.7182 88.6309C29.3902 88.6309 29.9455 88.7662 30.3842 89.0369C30.8229 89.3076 31.1402 89.5876 31.3362 89.8769C31.5415 90.1662 31.6769 90.4042 31.7422 90.5909L31.7562 90.6189ZM38.1713 91.7669C38.1339 91.4216 38.0406 91.1089 37.8913 90.8289C37.7419 90.5396 37.5273 90.3062 37.2473 90.1289C36.9766 89.9422 36.6359 89.8489 36.2253 89.8489C35.8613 89.8489 35.5253 89.9329 35.2173 90.1009C34.9186 90.2689 34.6713 90.5022 34.4753 90.8009C34.2793 91.0902 34.1533 91.4169 34.0973 91.7809L38.1713 91.7669ZM39.2353 90.6189C39.4033 91.0202 39.4966 91.4169 39.5153 91.8089C39.5433 92.1916 39.5433 92.5276 39.5153 92.8169V92.8869H34.0973C34.1439 93.2602 34.2699 93.5916 34.4753 93.8809C34.6806 94.1609 34.9373 94.3849 35.2453 94.5529C35.5533 94.7116 35.8753 94.7909 36.2113 94.7909C36.7713 94.7909 37.1913 94.6929 37.4713 94.4969C37.7606 94.3009 37.9659 94.0956 38.0873 93.8809L38.1153 93.8529L39.2773 94.3849C39.0533 94.8422 38.6799 95.2296 38.1573 95.5469C37.6346 95.8549 36.9813 96.0089 36.1973 96.0089C35.5159 96.0089 34.9093 95.8549 34.3773 95.5469C33.8453 95.2296 33.4299 94.7909 33.1313 94.2309C32.8419 93.6709 32.6973 93.0362 32.6973 92.3269C32.6973 91.6082 32.8419 90.9689 33.1313 90.4089C33.4299 89.8489 33.8453 89.4149 34.3773 89.1069C34.9093 88.7896 35.5159 88.6309 36.1973 88.6309C36.8693 88.6309 37.4246 88.7662 37.8633 89.0369C38.3019 89.3076 38.6193 89.5876 38.8153 89.8769C39.0206 90.1662 39.1559 90.4042 39.2213 90.5909L39.2353 90.6189ZM43.6623 96.0369C42.981 96.0369 42.379 95.8829 41.8563 95.5749C41.3337 95.2576 40.923 94.8189 40.6243 94.2589C40.3257 93.6896 40.1763 93.0502 40.1763 92.3409C40.1763 91.6222 40.3257 90.9829 40.6243 90.4229C40.923 89.8629 41.3337 89.4242 41.8563 89.1069C42.379 88.7896 42.981 88.6309 43.6623 88.6309C43.9143 88.6309 44.1757 88.6729 44.4463 88.7569C44.717 88.8316 44.9877 88.9669 45.2583 89.1629C45.529 89.3496 45.7623 89.6016 45.9583 89.9189V85.6629H47.4143V95.9809H45.9583V94.7629C45.669 95.2016 45.3097 95.5236 44.8803 95.7289C44.451 95.9342 44.045 96.0369 43.6623 96.0369ZM43.7603 94.8609C44.1523 94.8609 44.5163 94.7489 44.8523 94.5249C45.1883 94.3009 45.4543 93.9976 45.6503 93.6149C45.8557 93.2229 45.9583 92.8029 45.9583 92.3549C45.9583 91.9069 45.8557 91.4916 45.6503 91.1089C45.4543 90.7262 45.1883 90.4229 44.8523 90.1989C44.5163 89.9749 44.1523 89.8629 43.7603 89.8629C43.3497 89.8629 42.981 89.9702 42.6543 90.1849C42.3277 90.3902 42.0757 90.6842 41.8983 91.0669C41.721 91.4402 41.6323 91.8696 41.6323 92.3549C41.6323 92.8496 41.721 93.2882 41.8983 93.6709C42.0757 94.0442 42.3277 94.3382 42.6543 94.5529C42.981 94.7582 43.3497 94.8609 43.7603 94.8609ZM50.3097 88.6869V95.9669H48.8537V88.6869H50.3097ZM49.5817 85.4809C49.8244 85.4809 50.0204 85.5602 50.1697 85.7189C50.319 85.8682 50.3937 86.0642 50.3937 86.3069C50.3937 86.5402 50.319 86.7362 50.1697 86.8949C50.0204 87.0536 49.8244 87.1329 49.5817 87.1329C49.339 87.1329 49.1384 87.0536 48.9797 86.8949C48.821 86.7362 48.7417 86.5402 48.7417 86.3069C48.7417 86.0642 48.821 85.8682 48.9797 85.7189C49.1384 85.5602 49.339 85.4809 49.5817 85.4809ZM56.751 91.9069C56.751 91.2816 56.5923 90.7869 56.275 90.4229C55.9577 90.0589 55.5283 89.8769 54.987 89.8769C54.6323 89.8862 54.3057 89.9796 54.007 90.1569C53.7177 90.3342 53.489 90.5769 53.321 90.8849C53.1623 91.1836 53.083 91.5242 53.083 91.9069V95.9669H51.627V88.6449H53.083V89.8769C53.307 89.5222 53.6057 89.2329 53.979 89.0089C54.3617 88.7756 54.749 88.6589 55.141 88.6589C55.6823 88.6589 56.1817 88.7709 56.639 88.9949C57.1057 89.2189 57.4837 89.5736 57.773 90.0589C58.0623 90.5349 58.207 91.1322 58.207 91.8509V95.9669H56.751V91.9069ZM62.5328 94.8189C62.9435 94.8189 63.3168 94.7069 63.6528 94.4829C63.9888 94.2496 64.2501 93.9462 64.4368 93.5729C64.6235 93.1902 64.7168 92.7796 64.7168 92.3409C64.7168 91.9022 64.6188 91.4962 64.4228 91.1229C64.2361 90.7496 63.9748 90.4509 63.6388 90.2269C63.3121 90.0029 62.9435 89.8909 62.5328 89.8909C62.1221 89.8909 61.7581 89.9936 61.4408 90.1989C61.1235 90.4042 60.8761 90.6936 60.6988 91.0669C60.5215 91.4309 60.4328 91.8556 60.4328 92.3409C60.4328 92.8262 60.5215 93.2556 60.6988 93.6289C60.8761 94.0022 61.1235 94.2962 61.4408 94.5109C61.7581 94.7162 62.1221 94.8189 62.5328 94.8189ZM66.1728 95.5749C66.1635 96.2656 66.0095 96.8816 65.7108 97.4229C65.4121 97.9642 64.9875 98.3842 64.4368 98.6829C63.8955 98.9816 63.2561 99.1309 62.5188 99.1309C61.8748 99.1309 61.2868 99.0049 60.7548 98.7529C60.2228 98.5009 59.7888 98.1042 59.4528 97.5629L60.5868 96.7929C60.8575 97.1756 61.1421 97.4509 61.4408 97.6189C61.7488 97.7869 62.1081 97.8709 62.5188 97.8709C62.9761 97.8709 63.3681 97.7776 63.6948 97.5909C64.0215 97.4136 64.2735 97.1616 64.4508 96.8349C64.6281 96.5082 64.7168 96.1302 64.7168 95.7009V94.7349C64.4368 95.1456 64.0915 95.4629 63.6808 95.6869C63.2701 95.9109 62.8595 96.0229 62.4488 96.0229C61.7768 96.0229 61.1748 95.8689 60.6428 95.5609C60.1201 95.2436 59.7095 94.8096 59.4108 94.2589C59.1215 93.6989 58.9768 93.0596 58.9768 92.3409C58.9768 91.6316 59.1215 91.0016 59.4108 90.4509C59.7095 89.8909 60.1201 89.4569 60.6428 89.1489C61.1748 88.8316 61.7768 88.6729 62.4488 88.6729C62.7381 88.6729 63.0228 88.7196 63.3028 88.8129C63.5921 88.9062 63.8581 89.0462 64.1008 89.2329C64.3435 89.4196 64.5488 89.6529 64.7168 89.9329V88.6449H66.1728V95.5749Z" fill="#1B1E24"/>
<path d="M153.466 152.496C156.896 149.582 157.644 148.489 161.058 145.559C162.997 143.896 164.946 142.218 167.115 140.871C169.285 139.523 171.544 138.684 174.002 138.256C178.846 137.417 183.889 138.352 188.538 139.764C190.791 140.448 193.408 141.116 195.283 142.635C196.854 143.907 197.694 145.976 196.423 147.735C194.92 149.815 192.063 150.023 189.741 150.039C186.568 150.061 183.432 149.644 180.369 148.815C178.557 148.328 177.784 151.183 179.597 151.67C182.654 152.493 185.822 152.953 188.984 152.996C191.727 153.033 194.789 152.857 197.085 151.141C199.38 149.424 200.599 146.783 199.706 144.035C198.766 141.143 196.265 139.486 193.618 138.395C188.517 136.305 182.801 134.899 177.28 135.006C174.533 135.059 171.749 135.514 169.185 136.54C166.443 137.636 164.058 139.299 161.767 141.159C157.339 144.747 155.767 146.711 151.422 150.4C150.818 150.913 150.902 151.966 151.422 152.496C152.021 153.105 152.872 153.009 153.481 152.496H153.466Z" fill="#1B1E24"/>
<path d="M199.424 147.324C202.314 145.065 205.345 142.993 208.502 141.134C210.081 140.205 211.686 139.334 213.322 138.512C214.837 137.753 216.374 136.979 217.989 136.461C220.454 135.67 224.109 135.67 224.938 138.747C225.714 141.626 223.742 144.275 221.681 146.091C220.417 147.201 219.033 148.168 217.68 149.156C216.101 150.31 214.507 151.447 212.908 152.574C209.761 154.786 206.588 156.965 203.358 159.053C200.368 160.986 197.258 162.546 193.687 162.882C190.184 163.214 186.681 162.679 183.308 161.702C179.396 160.564 175.494 158.668 171.32 159.138C167.145 159.608 165.006 161.002 161.67 163.203C160.108 164.234 161.56 166.797 163.139 165.756C166.013 163.86 167.937 162.466 171.435 162.081C175.253 161.665 178.851 163.47 182.427 164.517C186.004 165.564 189.911 166.194 193.687 165.836C195.591 165.654 197.473 165.275 199.262 164.57C201.05 163.865 202.844 162.872 204.522 161.798C207.936 159.619 211.271 157.306 214.586 154.972C216.253 153.797 217.911 152.606 219.563 151.399C221.068 150.299 222.604 149.215 223.984 147.955C226.454 145.706 228.357 142.582 227.943 139.083C227.739 137.347 226.989 135.745 225.63 134.645C224.272 133.545 222.494 133.005 220.737 133C218.524 133 216.437 133.812 214.444 134.714C212.451 135.617 210.574 136.578 208.702 137.62C204.947 139.708 201.359 142.101 197.966 144.761C197.348 145.247 197.012 146.032 197.447 146.785C197.804 147.41 198.811 147.805 199.435 147.314L199.424 147.324Z" fill="#1B1E24"/>
<path d="M186.46 109.696C188.362 111.613 190.259 113.523 192.161 115.439C192.806 116.089 193.895 116.089 194.54 115.439C197.531 112.426 200.522 109.414 203.512 106.401C203.939 105.972 204.365 105.542 204.797 105.107C206.329 103.564 203.95 101.162 202.418 102.71C199.427 105.723 196.437 108.736 193.446 111.748C193.02 112.178 192.593 112.607 192.161 113.043H194.54C192.638 111.126 190.741 109.216 188.839 107.3C187.308 105.757 184.923 108.153 186.46 109.696Z" fill="#5A4BF5"/>
<path d="M203.531 91.035C202.785 90.0082 202.076 88.8661 201.099 88.0425C199.562 86.7467 197.651 86 195.63 86C193.61 86 191.743 86.7193 190.227 87.9876C189.217 88.8332 188.498 89.9808 187.724 91.035L189.585 90.2773C188.3 90.0741 186.966 89.7611 185.659 89.8819C183.683 90.0686 181.827 90.8867 180.416 92.2978C179.005 93.7089 178.181 95.5703 178 97.5414C177.884 98.8482 178.192 100.177 178.395 101.467L179.153 99.6059C178.126 100.353 176.984 101.061 176.16 102.038C174.865 103.576 174.118 105.486 174.118 107.507C174.118 109.528 174.837 111.394 176.105 112.91C176.951 113.92 178.099 114.639 179.153 115.414L178.395 113.552C178.192 114.837 177.879 116.171 178 117.478C178.186 119.455 179.005 121.311 180.416 122.722C181.827 124.133 183.688 124.956 185.659 125.138C186.966 125.253 188.295 124.945 189.585 124.742L187.724 123.985C188.47 125.011 189.179 126.153 190.156 126.977C191.694 128.273 193.604 129.02 195.625 129.02C197.645 129.02 199.512 128.3 201.028 127.032C202.038 126.186 202.757 125.039 203.531 123.985L201.67 124.742C202.955 124.945 204.289 125.258 205.596 125.138C207.573 124.951 209.428 124.133 210.84 122.722C212.251 121.311 213.074 119.449 213.255 117.478C213.371 116.171 213.063 114.843 212.86 113.552L212.102 115.414C213.129 114.667 214.271 113.959 215.095 112.981C216.391 111.444 217.137 109.533 217.137 107.513C217.137 105.492 216.418 103.625 215.15 102.11C214.304 101.099 213.157 100.38 212.102 99.6059L212.86 101.467C213.063 100.182 213.376 98.8482 213.255 97.5414C213.069 95.5648 212.251 93.7089 210.84 92.2978C209.428 90.8867 207.567 90.0631 205.596 89.8819C204.289 89.7666 202.96 90.0741 201.67 90.2773C200.792 90.4145 200.303 91.5127 200.517 92.3033C200.775 93.2422 201.659 93.5936 202.543 93.4564C203.482 93.3081 204.306 93.1324 205.129 93.1544C206.343 93.1873 207.611 93.7364 208.506 94.6314C209.401 95.5264 209.934 96.7563 209.983 97.9148C210.016 98.7878 209.835 99.6224 209.681 100.594C209.555 101.396 209.785 101.978 210.439 102.456C211.224 103.027 211.932 103.477 212.531 104.108C212.86 104.454 212.866 104.465 213.118 104.888C213.206 105.036 213.288 105.184 213.365 105.338C213.376 105.36 213.563 105.81 213.47 105.569C213.612 105.937 213.711 106.316 213.788 106.7C213.887 107.211 213.777 106.409 213.821 106.925C213.837 107.117 213.848 107.315 213.848 107.513C213.848 107.71 213.837 107.902 213.821 108.1C213.794 108.446 213.865 107.952 213.788 108.325C213.711 108.699 213.623 109.033 213.497 109.379C213.453 109.484 213.459 109.484 213.508 109.379C213.464 109.484 213.415 109.588 213.365 109.687C213.288 109.841 213.206 109.989 213.118 110.137C212.893 110.516 212.871 110.543 212.591 110.851C211.976 111.526 211.257 111.976 210.439 112.569C209.78 113.047 209.555 113.635 209.681 114.431C209.829 115.37 210.005 116.193 209.983 117.017C209.95 118.23 209.401 119.499 208.506 120.394C207.611 121.289 206.381 121.821 205.223 121.871C204.35 121.904 203.515 121.722 202.543 121.569C201.741 121.442 201.159 121.673 200.682 122.326C200.111 123.112 199.66 123.82 199.029 124.418C198.683 124.748 198.672 124.753 198.249 125.006C198.101 125.094 197.953 125.176 197.799 125.253C197.777 125.264 197.327 125.451 197.569 125.357C197.201 125.5 196.822 125.599 196.437 125.676C195.927 125.775 196.728 125.665 196.212 125.709C196.02 125.725 195.823 125.736 195.625 125.736C195.427 125.736 195.235 125.725 195.037 125.709C194.691 125.681 195.186 125.753 194.812 125.676C194.439 125.599 194.104 125.511 193.758 125.385C193.654 125.341 193.654 125.346 193.758 125.396C193.654 125.352 193.549 125.302 193.451 125.253C193.297 125.176 193.149 125.094 193 125.006C192.621 124.781 192.594 124.759 192.287 124.479C191.611 123.864 191.161 123.145 190.568 122.326C190.09 121.668 189.503 121.442 188.707 121.569C187.768 121.717 186.944 121.893 186.12 121.871C184.907 121.838 183.639 121.289 182.744 120.394C181.849 119.499 181.316 118.269 181.267 117.11C181.234 116.237 181.415 115.403 181.569 114.431C181.695 113.629 181.464 113.047 180.811 112.569C180.026 111.998 179.317 111.548 178.719 110.917C178.39 110.571 178.384 110.56 178.131 110.137C178.044 109.989 177.961 109.841 177.884 109.687C177.873 109.665 177.687 109.215 177.78 109.456C177.637 109.088 177.538 108.71 177.462 108.325C177.363 107.815 177.473 108.616 177.429 108.1C177.412 107.908 177.401 107.71 177.401 107.513C177.401 107.315 177.412 107.123 177.429 106.925C177.456 106.579 177.385 107.073 177.462 106.7C177.538 106.327 177.626 105.992 177.753 105.646C177.797 105.541 177.791 105.541 177.742 105.646C177.786 105.541 177.835 105.437 177.884 105.338C177.961 105.184 178.044 105.036 178.131 104.888C178.357 104.509 178.379 104.482 178.659 104.174C179.274 103.499 179.993 103.049 180.811 102.456C181.47 101.978 181.695 101.39 181.569 100.594C181.42 99.6554 181.245 98.8318 181.267 98.0081C181.3 96.7947 181.849 95.5264 182.744 94.6314C183.639 93.7364 184.869 93.2038 186.027 93.1544C186.9 93.1214 187.735 93.3026 188.707 93.4564C189.508 93.5826 190.09 93.352 190.568 92.6986C191.139 91.9135 191.589 91.2052 192.221 90.6067C192.567 90.2773 192.578 90.2718 193 90.0192C193.149 89.9313 193.297 89.849 193.451 89.7721C193.472 89.7611 193.923 89.5744 193.681 89.6678C194.049 89.525 194.428 89.4262 194.812 89.3493C195.323 89.2505 194.521 89.3603 195.037 89.3164C195.23 89.2999 195.427 89.2889 195.625 89.2889C195.823 89.2889 196.015 89.2999 196.212 89.3164C196.558 89.3438 196.064 89.2725 196.437 89.3493C196.811 89.4262 197.146 89.514 197.492 89.6403C197.596 89.6843 197.596 89.6788 197.492 89.6293C197.596 89.6733 197.7 89.7227 197.799 89.7721C197.953 89.849 198.101 89.9313 198.249 90.0192C198.628 90.2443 198.656 90.2663 198.963 90.5463C199.639 91.1613 200.089 91.8805 200.682 92.6986C201.203 93.4179 202.115 93.7693 202.933 93.2916C203.641 92.8743 204.053 91.7597 203.526 91.0405L203.531 91.035Z" fill="#5A4BF5"/>
<path d="M164.35 50.6208C164.368 50.7515 164.378 50.8728 164.378 50.9848C164.378 51.1995 164.364 51.4375 164.336 51.6988C164.187 53.1362 163.682 54.2468 162.824 55.0308C161.975 55.8055 160.831 56.2022 159.394 56.2208C158.386 56.2208 157.485 55.9968 156.692 55.5488C155.908 55.0915 155.292 54.4615 154.844 53.6588C154.405 52.8468 154.186 51.9275 154.186 50.9008C154.186 49.8742 154.405 48.9595 154.844 48.1568C155.292 47.3448 155.908 46.7148 156.692 46.2668C157.485 45.8188 158.386 45.5948 159.394 45.5948C160.467 45.5948 161.382 45.8375 162.138 46.3228C162.894 46.8082 163.458 47.4008 163.832 48.1008L162.404 48.8568C162.143 48.3528 161.755 47.9282 161.242 47.5828C160.729 47.2375 160.113 47.0648 159.394 47.0648C158.694 47.0648 158.078 47.2235 157.546 47.5408C157.014 47.8582 156.598 48.3062 156.3 48.8848C156.01 49.4635 155.866 50.1355 155.866 50.9008C155.866 51.6662 156.01 52.3428 156.3 52.9308C156.598 53.5095 157.014 53.9575 157.546 54.2748C158.078 54.5922 158.694 54.7508 159.394 54.7508C160.29 54.7322 161.041 54.4942 161.648 54.0368C162.264 53.5795 162.6 52.8935 162.656 51.9788H159.632V50.6208H164.35ZM170.598 51.7828C170.523 51.3068 170.332 50.9008 170.024 50.5648C169.716 50.2195 169.287 50.0468 168.736 50.0468C168.223 50.0468 167.779 50.2148 167.406 50.5508C167.033 50.8868 166.804 51.2975 166.72 51.7828H170.598ZM165.152 52.4128C165.152 51.6848 165.301 51.0408 165.6 50.4808C165.908 49.9115 166.333 49.4682 166.874 49.1508C167.415 48.8335 168.031 48.6748 168.722 48.6748C169.693 48.6748 170.407 48.9128 170.864 49.3888C171.331 49.8555 171.648 50.2848 171.816 50.6768C172.031 51.1528 172.138 51.7408 172.138 52.4408C172.138 52.6182 172.133 52.7535 172.124 52.8468C172.124 52.9308 172.124 52.9868 172.124 53.0148H166.72C166.804 53.5188 167.042 53.9342 167.434 54.2608C167.826 54.5875 168.26 54.7508 168.736 54.7508C169.128 54.7508 169.45 54.6948 169.702 54.5828C169.963 54.4615 170.131 54.3588 170.206 54.2748C170.29 54.1815 170.388 54.0648 170.5 53.9248L171.858 54.4988C171.634 54.9562 171.256 55.3435 170.724 55.6608C170.192 55.9782 169.525 56.1368 168.722 56.1368C168.031 56.1368 167.415 55.9828 166.874 55.6748C166.333 55.3575 165.908 54.9188 165.6 54.3588C165.301 53.7895 165.152 53.1408 165.152 52.4128ZM176.067 56.1368C175.619 56.1368 175.218 56.0388 174.863 55.8428C174.518 55.6375 174.243 55.3528 174.037 54.9888C173.832 54.6248 173.729 54.2142 173.729 53.7568V50.2148H172.427V48.7728H173.729V46.6868H175.409V48.7728H177.271V50.2148H175.409V53.6868C175.409 53.9202 175.47 54.1208 175.591 54.2888C175.722 54.4568 175.881 54.5408 176.067 54.5408C176.263 54.5502 176.52 54.5082 176.837 54.4148L177.215 55.9968C176.823 56.0902 176.441 56.1368 176.067 56.1368ZM192.939 56.1088H191.427L188.851 48.3388L186.471 56.1088H184.945L181.557 45.6928H183.321L185.701 53.3368L187.941 45.7068H189.747L192.057 53.3368L194.157 45.6928H195.921L192.939 56.1088ZM201.962 52.2588C201.962 51.6335 201.822 51.1295 201.542 50.7468C201.262 50.3642 200.889 50.1728 200.422 50.1728C200.077 50.1728 199.759 50.2708 199.47 50.4668C199.19 50.6628 198.966 50.9288 198.798 51.2648C198.639 51.6008 198.56 51.9695 198.56 52.3708V56.1088H196.88V45.6928H198.56V49.7668C198.793 49.4495 199.083 49.2115 199.428 49.0528C199.783 48.8848 200.119 48.8008 200.436 48.8008C201.052 48.8008 201.603 48.9408 202.088 49.2208C202.583 49.4915 202.965 49.8742 203.236 50.3688C203.507 50.8542 203.642 51.4095 203.642 52.0348V56.1088H201.962V52.2588ZM206.771 48.7448V56.1088H205.091V48.7448H206.771ZM205.021 46.3928C205.021 46.1222 205.105 45.9028 205.273 45.7348C205.45 45.5668 205.67 45.4828 205.931 45.4828C206.202 45.4828 206.421 45.5715 206.589 45.7488C206.766 45.9168 206.855 46.1315 206.855 46.3928C206.855 46.6635 206.766 46.8875 206.589 47.0648C206.421 47.2328 206.202 47.3168 205.931 47.3168C205.66 47.3168 205.441 47.2328 205.273 47.0648C205.105 46.8875 205.021 46.6635 205.021 46.3928ZM211.486 56.1368C211.038 56.1368 210.636 56.0388 210.282 55.8428C209.936 55.6375 209.661 55.3528 209.456 54.9888C209.25 54.6248 209.148 54.2142 209.148 53.7568V50.2148H207.846V48.7728H209.148V46.6868H210.828V48.7728H212.69V50.2148H210.828V53.6868C210.828 53.9202 210.888 54.1208 211.01 54.2888C211.14 54.4568 211.299 54.5408 211.486 54.5408C211.682 54.5502 211.938 54.5082 212.256 54.4148L212.634 55.9968C212.242 56.0902 211.859 56.1368 211.486 56.1368ZM218.827 51.7828C218.753 51.3068 218.561 50.9008 218.253 50.5648C217.945 50.2195 217.516 50.0468 216.965 50.0468C216.452 50.0468 216.009 50.2148 215.635 50.5508C215.262 50.8868 215.033 51.2975 214.949 51.7828H218.827ZM213.381 52.4128C213.381 51.6848 213.531 51.0408 213.829 50.4808C214.137 49.9115 214.562 49.4682 215.103 49.1508C215.645 48.8335 216.261 48.6748 216.951 48.6748C217.922 48.6748 218.636 48.9128 219.093 49.3888C219.56 49.8555 219.877 50.2848 220.045 50.6768C220.26 51.1528 220.367 51.7408 220.367 52.4408C220.367 52.6182 220.363 52.7535 220.353 52.8468C220.353 52.9308 220.353 52.9868 220.353 53.0148H214.949C215.033 53.5188 215.271 53.9342 215.663 54.2608C216.055 54.5875 216.489 54.7508 216.965 54.7508C217.357 54.7508 217.679 54.6948 217.931 54.5828C218.193 54.4615 218.361 54.3588 218.435 54.2748C218.519 54.1815 218.617 54.0648 218.729 53.9248L220.087 54.4988C219.863 54.9562 219.485 55.3435 218.953 55.6608C218.421 55.9782 217.754 56.1368 216.951 56.1368C216.261 56.1368 215.645 55.9828 215.103 55.6748C214.562 55.3575 214.137 54.9188 213.829 54.3588C213.531 53.7895 213.381 53.1408 213.381 52.4128ZM222.988 45.6928V56.1088H221.308V45.6928H222.988ZM226.2 48.7448V56.1088H224.52V48.7448H226.2ZM224.45 46.3928C224.45 46.1222 224.534 45.9028 224.702 45.7348C224.879 45.5668 225.099 45.4828 225.36 45.4828C225.631 45.4828 225.85 45.5715 226.018 45.7488C226.195 45.9168 226.284 46.1315 226.284 46.3928C226.284 46.6635 226.195 46.8875 226.018 47.0648C225.85 47.2328 225.631 47.3168 225.36 47.3168C225.089 47.3168 224.87 47.2328 224.702 47.0648C224.534 46.8875 224.45 46.6635 224.45 46.3928ZM228.674 53.9388C228.88 54.2188 229.132 54.4382 229.43 54.5968C229.738 54.7462 230.032 54.8255 230.312 54.8348C230.676 54.8348 230.975 54.7508 231.208 54.5828C231.451 54.4148 231.577 54.1908 231.586 53.9108C231.586 53.7242 231.479 53.5748 231.264 53.4628C231.05 53.3415 230.714 53.2062 230.256 53.0568C229.752 52.8888 229.332 52.7255 228.996 52.5668C228.67 52.4082 228.385 52.1842 228.142 51.8948C227.9 51.6055 227.778 51.2462 227.778 50.8168C227.778 50.3875 227.89 50.0048 228.114 49.6688C228.348 49.3328 228.67 49.0762 229.08 48.8988C229.491 48.7122 229.958 48.6188 230.48 48.6188C230.928 48.6188 231.386 48.7262 231.852 48.9408C232.319 49.1555 232.692 49.4448 232.972 49.8088L231.852 50.7468C231.675 50.5135 231.456 50.3315 231.194 50.2008C230.942 50.0702 230.7 50.0048 230.466 50.0048C230.168 50.0048 229.925 50.0748 229.738 50.2148C229.552 50.3548 229.458 50.5368 229.458 50.7608C229.458 50.9568 229.566 51.1155 229.78 51.2368C229.995 51.3582 230.34 51.4982 230.816 51.6568C231.32 51.8248 231.736 51.9882 232.062 52.1468C232.389 52.2962 232.669 52.5155 232.902 52.8048C233.145 53.0848 233.266 53.4442 233.266 53.8828C233.266 54.3308 233.145 54.7322 232.902 55.0868C232.66 55.4415 232.319 55.7168 231.88 55.9128C231.442 56.1088 230.942 56.2068 230.382 56.2068C229.878 56.2068 229.36 56.0855 228.828 55.8428C228.306 55.6002 227.876 55.2735 227.54 54.8628L228.674 53.9388ZM237.334 56.1368C236.886 56.1368 236.484 56.0388 236.13 55.8428C235.784 55.6375 235.509 55.3528 235.304 54.9888C235.098 54.6248 234.996 54.2142 234.996 53.7568V50.2148H233.694V48.7728H234.996V46.6868H236.676V48.7728H238.538V50.2148H236.676V53.6868C236.676 53.9202 236.736 54.1208 236.858 54.2888C236.988 54.4568 237.147 54.5408 237.334 54.5408C237.53 54.5502 237.786 54.5082 238.104 54.4148L238.482 55.9968C238.09 56.0902 237.707 56.1368 237.334 56.1368ZM242.369 53.0988H240.745L240.451 45.1888H242.621L242.369 53.0988ZM240.619 55.3948C240.619 55.1242 240.707 54.9002 240.885 54.7228C241.062 54.5455 241.286 54.4568 241.557 54.4568C241.837 54.4568 242.061 54.5455 242.229 54.7228C242.406 54.9002 242.495 55.1242 242.495 55.3948C242.495 55.6748 242.406 55.9035 242.229 56.0808C242.061 56.2582 241.837 56.3468 241.557 56.3468C241.286 56.3468 241.062 56.2582 240.885 56.0808C240.707 55.9035 240.619 55.6748 240.619 55.3948Z" fill="#5A4BF5"/>
<path d="M257.799 53.3009C257.805 53.2989 257.811 53.3037 257.81 53.3099C257.388 57.3077 254.844 60.7828 251.701 63.1723C247.952 66.0294 243.311 67.3584 238.686 67.8982C233.551 68.5046 228.35 68.3468 223.191 68.3634C220.353 68.3634 217.506 68.38 214.668 68.38C212.238 68.38 209.784 68.3717 207.396 68.8534C203.104 69.7302 198.812 73.262 199.137 77.8339C199.188 78.5419 199.977 78.8702 200.591 78.5147C201.229 78.1459 201.318 77.2599 200.812 76.7246C198.695 74.4856 197.272 71.7509 196.66 68.6956C196.535 68.081 195.834 67.5743 195.208 67.5992C187.736 67.9315 180.248 67.9232 172.776 67.5494C166.214 67.2255 159.444 66.9265 153.091 65.1324C150.261 64.3268 147.539 63.1723 145.127 61.4779C143.858 60.5892 142.689 59.526 141.746 58.2885C141.32 57.7237 140.802 57.0675 140.535 56.4114C140.268 55.7552 140.193 54.9329 140.109 54.227C139.425 48.0392 141.904 42.3414 147.114 38.8447C149.727 37.0922 152.632 35.8546 155.57 34.7499C158.718 33.5705 161.932 32.5489 165.179 31.6934C171.783 29.9492 178.553 28.8612 185.365 28.3545C199.015 27.3329 212.773 28.5123 226.188 31.0954C232.708 32.3579 239.587 33.6121 245.648 36.4194C251.066 38.9194 256.025 43.1388 257.494 49.1272C257.828 50.506 257.912 51.8847 257.795 53.2967C257.636 55.2153 260.641 55.207 260.8 53.2967C261.326 46.8847 257.619 40.9045 252.644 37.1088C247 32.7981 239.879 31.029 233.059 29.4924C218.884 26.2864 204.249 24.5172 189.681 25.1153C182.402 25.4143 175.122 26.3113 168.018 27.9226C160.913 29.5339 154.235 31.5107 148.082 34.7915C145.185 36.3363 142.489 38.3463 140.51 40.9876C138.532 43.6288 137.488 46.7102 137.121 49.9163C136.937 51.5193 136.97 53.1306 137.171 54.7253C137.271 55.5144 137.363 56.3366 137.588 57.1008C137.822 57.923 138.373 58.7038 138.857 59.4014C140.735 62.0925 143.348 64.1606 146.262 65.6723C152.139 68.7205 158.868 69.5428 165.38 70.066C173.31 70.7056 181.283 70.9465 189.239 70.7887C190.914 70.7536 192.589 70.7009 194.263 70.6355C194.578 70.6232 194.703 70.2231 194.452 70.0333C194.205 69.8473 193.866 70.0632 193.941 70.3627C194.862 74.0296 196.906 77.3718 199.741 79.8918C200.835 80.8635 202.654 79.9333 202.254 78.4382C201.745 76.5362 202.771 74.6924 204.207 73.4714C205.902 72.0345 208.265 71.6192 210.427 71.4697C215.728 71.1209 221.112 71.3701 226.422 71.3534C235.914 71.3202 246.199 71.37 253.988 65.1573C257.703 62.1922 260.299 58.0559 260.792 53.305C260.875 52.4994 260.04 51.8183 259.289 51.81C258.409 51.8017 257.876 52.4999 257.788 53.2919C257.787 53.298 257.793 53.3028 257.799 53.3009Z" fill="#5A4BF5" fill-opacity="0.2"/>
<path d="M189.281 204.731C182.204 205.001 173.908 204.526 166.841 204.026C161.362 203.633 155.562 202.895 151.409 199.864C150.385 199.119 149.527 198.185 148.894 197.152C147.968 193.949 148.601 190.451 151.087 187.911C153.203 185.764 156.312 184.494 159.403 183.487C177.164 177.653 197.148 178.424 215.69 182.119C219.794 182.938 223.956 183.929 227.358 186.026C230.761 188.116 233.285 191.516 232.896 195.047C232.467 198.889 228.655 201.986 224.375 203.387C220.096 204.78 215.378 204.804 210.786 204.813C207.569 204.821 204.362 204.829 201.145 204.829C198.991 204.837 194.38 205.37 188.531 204.731" fill="#EFF2F3"/>
<path d="M189.281 203.502C182.769 203.739 176.247 203.42 169.755 202.994C164.12 202.625 157.726 202.396 153.037 199.397C152.003 198.733 150.872 197.849 150.346 196.833C149.771 195.71 149.849 194.113 150.054 192.925C150.473 190.467 152.052 188.402 154.45 186.969C157.024 185.428 160.094 184.503 163.068 183.675C166.041 182.848 169.17 182.159 172.299 181.66C185.07 179.595 198.347 180.324 211.03 182.512C216.937 183.528 223.917 184.527 228.294 188.337C230.156 189.959 231.511 192.122 231.472 194.416C231.433 196.71 229.98 198.627 228.041 200.093C222.62 204.182 214.393 203.567 207.647 203.584C204.576 203.584 201.515 203.559 198.454 203.706C195.14 203.862 191.835 203.846 188.53 203.502C186.668 203.305 186.688 205.763 188.53 205.959C191.786 206.304 195.042 206.328 198.308 206.172C201.34 206.033 204.371 206.058 207.403 206.05C214.237 206.033 221.967 206.484 227.963 203.215C233.061 200.429 235.898 195.44 233.451 190.508C230.76 185.076 224.092 182.643 217.727 181.275C203.991 178.317 189.466 177.08 175.38 178.751C168.478 179.571 161.206 181.029 155.015 183.806C152.257 185.043 149.751 186.805 148.387 189.213C147.022 191.622 146.612 194.555 147.392 197.16C148.26 200.044 152.14 202.142 155.181 203.223C158.398 204.37 161.849 204.837 165.3 205.132C173.225 205.812 181.307 206.246 189.271 205.959C191.143 205.894 191.153 203.436 189.271 203.502L189.281 203.502Z" fill="#EFF2F3"/>
<path d="M175.132 198.035H173.76L171.198 190.083L168.762 198.035H167.39L164.114 187.731H165.64L168.09 195.655L170.414 187.731H171.968L174.362 195.655L176.616 187.731H178.142L175.132 198.035ZM183.95 194.129C183.95 193.503 183.801 192.999 183.502 192.617C183.204 192.225 182.816 192.029 182.34 192.029C181.976 192.029 181.645 192.131 181.346 192.337C181.057 192.542 180.824 192.817 180.646 193.163C180.478 193.508 180.394 193.886 180.394 194.297V198.035H178.938V187.731H180.394V191.875C180.609 191.539 180.894 191.277 181.248 191.091C181.603 190.895 181.972 190.797 182.354 190.797C182.942 190.797 183.47 190.932 183.936 191.203C184.403 191.473 184.762 191.851 185.014 192.337C185.276 192.813 185.406 193.354 185.406 193.961V198.035H183.95V194.129ZM188.147 190.755V198.035H186.691V190.755H188.147ZM187.419 187.549C187.662 187.549 187.858 187.628 188.007 187.787C188.157 187.936 188.231 188.132 188.231 188.375C188.231 188.608 188.157 188.804 188.007 188.963C187.858 189.121 187.662 189.201 187.419 189.201C187.177 189.201 186.976 189.121 186.817 188.963C186.659 188.804 186.579 188.608 186.579 188.375C186.579 188.132 186.659 187.936 186.817 187.787C186.976 187.628 187.177 187.549 187.419 187.549ZM193.525 197.783C193.338 197.867 193.161 197.927 192.993 197.965C192.825 198.011 192.605 198.035 192.335 198.035C191.924 198.035 191.555 197.941 191.229 197.755C190.911 197.568 190.659 197.307 190.473 196.971C190.295 196.635 190.207 196.252 190.207 195.823V188.767H191.663V195.823C191.663 196.093 191.733 196.317 191.873 196.495C192.022 196.663 192.209 196.751 192.433 196.761C192.629 196.77 192.871 196.709 193.161 196.579L193.175 196.565L193.623 197.741L193.525 197.783ZM188.961 190.769H193.525V192.043H188.961V190.769ZM199.404 193.835C199.366 193.489 199.273 193.177 199.124 192.897C198.974 192.607 198.76 192.374 198.48 192.197C198.209 192.01 197.868 191.917 197.458 191.917C197.094 191.917 196.758 192.001 196.45 192.169C196.151 192.337 195.904 192.57 195.708 192.869C195.512 193.158 195.386 193.485 195.33 193.849L199.404 193.835ZM200.468 192.687C200.636 193.088 200.729 193.485 200.748 193.877C200.776 194.259 200.776 194.595 200.748 194.885V194.955H195.33C195.376 195.328 195.502 195.659 195.708 195.949C195.913 196.229 196.17 196.453 196.478 196.621C196.786 196.779 197.108 196.859 197.444 196.859C198.004 196.859 198.424 196.761 198.704 196.565C198.993 196.369 199.198 196.163 199.32 195.949L199.348 195.921L200.51 196.453C200.286 196.91 199.912 197.297 199.39 197.615C198.867 197.923 198.214 198.077 197.43 198.077C196.748 198.077 196.142 197.923 195.61 197.615C195.078 197.297 194.662 196.859 194.364 196.299C194.074 195.739 193.93 195.104 193.93 194.395C193.93 193.676 194.074 193.037 194.364 192.477C194.662 191.917 195.078 191.483 195.61 191.175C196.142 190.857 196.748 190.699 197.43 190.699C198.102 190.699 198.657 190.834 199.096 191.105C199.534 191.375 199.852 191.655 200.048 191.945C200.253 192.234 200.388 192.472 200.454 192.659L200.468 192.687ZM202.964 187.731V198.035H201.508V187.731H202.964ZM205.732 190.755V198.035H204.276V190.755H205.732ZM205.004 187.549C205.246 187.549 205.442 187.628 205.592 187.787C205.741 187.936 205.816 188.132 205.816 188.375C205.816 188.608 205.741 188.804 205.592 188.963C205.442 189.121 205.246 189.201 205.004 189.201C204.761 189.201 204.56 189.121 204.402 188.963C204.243 188.804 204.164 188.608 204.164 188.375C204.164 188.132 204.243 187.936 204.402 187.787C204.56 187.628 204.761 187.549 205.004 187.549ZM207.819 196.005C208.034 196.303 208.295 196.532 208.603 196.691C208.911 196.84 209.21 196.915 209.499 196.915C209.9 196.924 210.232 196.835 210.493 196.649C210.754 196.453 210.885 196.205 210.885 195.907C210.885 195.748 210.824 195.613 210.703 195.501C210.582 195.379 210.423 195.281 210.227 195.207C210.031 195.123 209.784 195.034 209.485 194.941C208.972 194.773 208.552 194.614 208.225 194.465C207.908 194.306 207.628 194.087 207.385 193.807C207.152 193.517 207.04 193.149 207.049 192.701C207.058 192.299 207.175 191.94 207.399 191.623C207.623 191.296 207.936 191.049 208.337 190.881C208.738 190.703 209.191 190.619 209.695 190.629C210.134 190.638 210.572 190.745 211.011 190.951C211.45 191.156 211.795 191.441 212.047 191.805L211.067 192.631C210.89 192.379 210.675 192.187 210.423 192.057C210.171 191.926 209.924 191.856 209.681 191.847C209.336 191.847 209.056 191.926 208.841 192.085C208.626 192.243 208.514 192.453 208.505 192.715C208.505 192.873 208.566 193.013 208.687 193.135C208.808 193.247 208.967 193.345 209.163 193.429C209.368 193.503 209.625 193.597 209.933 193.709C210.437 193.867 210.848 194.021 211.165 194.171C211.492 194.32 211.772 194.539 212.005 194.829C212.238 195.109 212.35 195.468 212.341 195.907C212.332 196.355 212.206 196.747 211.963 197.083C211.72 197.419 211.384 197.68 210.955 197.867C210.526 198.053 210.036 198.147 209.485 198.147C209 198.137 208.51 198.016 208.015 197.783C207.52 197.549 207.119 197.232 206.811 196.831L207.819 196.005ZM217.152 197.783C216.966 197.867 216.788 197.927 216.62 197.965C216.452 198.011 216.233 198.035 215.962 198.035C215.552 198.035 215.183 197.941 214.856 197.755C214.539 197.568 214.287 197.307 214.1 196.971C213.923 196.635 213.834 196.252 213.834 195.823V188.767H215.29V195.823C215.29 196.093 215.36 196.317 215.5 196.495C215.65 196.663 215.836 196.751 216.06 196.761C216.256 196.77 216.499 196.709 216.788 196.579L216.802 196.565L217.25 197.741L217.152 197.783ZM212.588 190.769H217.152V192.043H212.588V190.769Z" fill="#1B1E24"/>
<path d="M128.583 199.068C121.679 205.212 104.83 220.888 97.9261 227.032C96.6464 228.174 98.4972 230.102 99.7769 228.961C106.68 222.817 123.53 207.14 130.433 200.996C131.713 199.854 129.862 197.926 128.583 199.068Z" fill="#CED3D8"/>
<path d="M108.355 227.27L104.065 226.929L101.917 226.756C101.408 226.713 100.394 226.772 100.045 226.588C100.176 226.661 100.048 226.758 100.108 226.59C100.115 226.558 100.088 226.313 100.083 226.268C100.07 225.935 100.095 225.602 100.102 225.262C100.115 224.558 100.141 223.854 100.154 223.15C100.188 221.697 100.228 220.251 100.268 218.793C100.313 217.07 97.6405 217.017 97.6018 218.733C97.5631 220.45 97.5135 222.078 97.4757 223.744C97.4413 225.235 97.0111 227.364 98.235 228.511C98.8716 229.11 99.6997 229.229 100.522 229.304C101.345 229.379 102.225 229.436 103.066 229.505L108.304 229.936C110.019 230.069 110.063 227.409 108.355 227.27Z" fill="#CED3D8"/>
<path d="M98.8986 73.2818C105.512 79.7367 122.334 95.4434 128.947 101.898C130.176 103.095 131.97 101.113 130.741 99.9166C124.127 93.4617 107.306 77.755 100.692 71.3001C99.4636 70.1038 97.6699 72.0855 98.8986 73.2818Z" fill="#CED3D8"/>
<path d="M128.452 91.4788L128.414 95.7822L128.392 97.9372C128.385 98.4476 128.515 99.4549 128.356 99.8157C128.419 99.6802 128.525 99.8007 128.353 99.7529C128.321 99.7482 128.078 99.7923 128.034 99.8008C127.702 99.8368 127.368 99.8351 127.029 99.8525C126.326 99.8887 125.622 99.9124 124.918 99.9486C123.467 100.017 122.022 100.079 120.564 100.141C118.842 100.217 118.977 102.887 120.692 102.805C122.407 102.723 124.035 102.658 125.7 102.579C127.188 102.508 129.343 102.788 130.401 101.486C130.954 100.809 131.015 99.9749 131.032 99.149C131.049 98.3231 131.044 97.4417 131.054 96.5973L131.116 91.3417C131.127 89.6218 128.471 89.7649 128.452 91.4788Z" fill="#CED3D8"/>
</svg>
