<svg width="285" height="348" viewBox="0 0 285 348" fill="none" xmlns="http://www.w3.org/2000/svg">
<path d="M158.442 103.588C155.19 107.239 150.324 109.181 145.602 109.86C140.577 110.579 135.911 109.604 131.381 107.343C128.065 105.681 124.718 103.324 122.88 99.9768C119.852 94.456 119.269 87.7607 120.755 81.6487C121.57 78.293 123.024 75.0413 125.357 72.4766C135.104 61.8185 157.411 65.0303 162.005 79.3317C164.386 86.746 163.803 97.5719 158.442 103.588Z" fill="white"/>
<path d="M157.092 102.23C153.824 105.818 148.958 107.719 144.181 108.103C138.995 108.518 133.946 106.928 129.608 104.132C127.562 102.813 125.725 101.152 124.534 99.0025C123.344 96.8533 122.545 94.3445 122.153 91.8518C121.386 87.0261 122.113 81.6411 124.374 77.2788C127.802 70.6554 134.849 67.883 141.92 68.0828C148.263 68.2665 155.126 71.0389 158.586 76.4958C160.831 80.0432 161.51 84.6372 161.43 88.9196C161.342 93.5695 160.24 98.6349 157.1 102.222C155.478 104.076 158.178 106.792 159.808 104.931C163.14 101.12 164.666 96.2141 165.129 91.2446C165.569 86.5547 165.073 81.4733 163.22 77.111C160.016 69.5688 152.234 65.3903 144.396 64.4315C136.559 63.4728 127.722 66.0614 122.753 72.6528C119.285 77.2708 117.863 83.5027 118.079 89.1833C118.294 94.8638 120.156 101.064 124.502 105.019C133.035 112.784 146.937 114.518 156.573 107.759C157.747 106.936 158.842 106.001 159.808 104.947C161.47 103.125 158.762 100.409 157.1 102.238L157.092 102.23Z" fill="#1B1E24"/>
<path d="M129.864 84.7331H130.207C130.503 84.7411 130.782 84.6852 131.038 84.5493C131.302 84.4614 131.534 84.3176 131.733 84.1019C131.941 83.9102 132.093 83.6785 132.181 83.4068C132.316 83.1512 132.38 82.8715 132.364 82.5759L132.285 82.0007C132.181 81.6331 131.997 81.3215 131.733 81.0499L131.294 80.7143C130.958 80.5226 130.591 80.4187 130.207 80.4187H129.864C129.568 80.4107 129.288 80.4667 129.033 80.6025C128.769 80.6904 128.537 80.8342 128.338 81.0499C128.13 81.2416 127.978 81.4733 127.89 81.745C127.754 82.0007 127.691 82.2803 127.707 82.5759L127.786 83.1512C127.89 83.5187 128.074 83.8303 128.338 84.1019L128.777 84.4375C129.113 84.6292 129.48 84.7331 129.864 84.7331Z" fill="#1B1E24"/>
<path d="M152.106 79.7235C152.106 79.7235 152.082 79.7235 152.066 79.7235C152.066 79.7235 152.058 79.7235 152.05 79.7235C151.954 79.7315 151.762 79.7635 151.755 79.7635C151.755 79.7635 151.555 79.7874 151.459 79.8034C151.451 79.8034 151.435 79.8034 151.427 79.8114C151.427 79.8114 151.419 79.8114 151.411 79.8114C151.371 79.8274 150.932 80.0111 150.892 80.0271C150.892 80.0271 150.884 80.0271 150.876 80.0271C150.868 80.0271 150.852 80.0351 150.844 80.0431C150.844 80.0431 150.836 80.0431 150.828 80.0511C150.764 80.099 150.444 80.3387 150.388 80.3867C150.388 80.3867 150.388 80.3867 150.38 80.3867C150.3 80.4586 150.205 80.6024 150.165 80.6583C150.109 80.7302 150.005 80.8421 149.957 80.9379C149.957 80.9379 149.957 80.9459 149.957 80.9539C149.893 81.0897 149.797 81.3374 149.733 81.4732C149.733 81.4732 149.733 81.4732 149.733 81.4812C149.733 81.4972 149.725 81.5052 149.717 81.5212C149.717 81.5372 149.717 81.5451 149.709 81.5611C149.709 81.5611 149.709 81.5691 149.709 81.5771C149.693 81.673 149.645 82.0565 149.629 82.1523C149.629 82.1523 149.629 82.1603 149.629 82.1683C149.629 82.1843 149.629 82.1923 149.629 82.2083C149.629 82.2083 149.629 82.2163 149.629 82.2243C149.629 82.2243 149.629 82.2243 149.629 82.2322C149.653 82.432 149.677 82.6237 149.709 82.8075C149.725 82.9194 149.797 83.0472 149.837 83.1351C149.853 83.175 149.909 83.3348 149.957 83.4227C149.957 83.4227 149.957 83.4307 149.965 83.4387C150.077 83.5905 150.189 83.7343 150.3 83.8781C150.3 83.8861 150.316 83.8941 150.324 83.9021C150.468 84.0379 150.628 84.1497 150.788 84.2616C150.796 84.2616 150.812 84.2776 150.82 84.2776C150.908 84.3175 151.099 84.3974 151.083 84.3894C151.043 84.3735 151.259 84.4693 151.347 84.5013C151.347 84.5013 151.363 84.5013 151.371 84.5013C151.571 84.5572 151.794 84.5652 151.978 84.5812C151.994 84.5812 152.002 84.5812 152.018 84.5812C152.018 84.5812 152.034 84.5812 152.042 84.5812C152.042 84.5812 152.042 84.5812 152.05 84.5812C152.13 84.5732 152.553 84.5173 152.625 84.5013C152.641 84.5013 152.657 84.5013 152.665 84.4933C152.681 84.4933 152.689 84.4853 152.705 84.4773C152.793 84.4454 152.921 84.3894 152.969 84.3655C153.017 84.3415 153.153 84.2936 153.233 84.2536C153.233 84.2536 153.249 84.2536 153.249 84.2456C153.265 84.2456 153.273 84.2296 153.281 84.2217C153.44 84.1098 153.6 83.99 153.744 83.8621C153.76 83.8541 153.768 83.8382 153.776 83.8302C153.776 83.8302 153.784 83.8222 153.792 83.8142C153.792 83.8142 153.792 83.8142 153.792 83.8062C153.864 83.7183 154.063 83.4547 154.135 83.3668C154.143 83.3508 154.151 83.3428 154.159 83.3268C154.159 83.3268 154.159 83.3108 154.167 83.3108C154.207 83.223 154.271 83.0712 154.279 83.0472C154.295 83.0072 154.359 82.8714 154.391 82.7835C154.391 82.7675 154.399 82.7516 154.407 82.7436C154.447 82.5438 154.479 82.3361 154.487 82.1284C154.487 82.1284 154.487 82.1124 154.487 82.1044C154.487 82.1044 154.487 82.0964 154.487 82.0884C154.463 81.8887 154.439 81.6969 154.407 81.5052C154.407 81.4892 154.407 81.4732 154.399 81.4573C154.335 81.1776 154.207 80.9299 154.016 80.7222C153.864 80.4905 153.664 80.2988 153.408 80.1629C153.161 80.0032 152.897 79.9233 152.609 79.9073C152.322 79.8434 152.034 79.8593 151.747 79.9472L151.235 80.1629C150.908 80.3547 150.652 80.6104 150.46 80.9379L150.244 81.4493C150.141 81.8328 150.141 82.2163 150.244 82.5998C150.244 82.6157 150.252 82.6317 150.252 82.6477L150.173 82.0725C150.173 82.0725 150.173 82.1124 150.173 82.1364L150.252 81.5611C150.252 81.5611 150.244 81.6091 150.236 81.633L150.452 81.1217C150.452 81.1217 150.428 81.1696 150.412 81.1936L150.748 80.7542C150.748 80.7542 150.7 80.8021 150.676 80.8261L151.115 80.4905C151.115 80.4905 151.059 80.5225 151.035 80.5385L151.547 80.3227C151.547 80.3227 151.491 80.3467 151.459 80.3467L152.034 80.2668C152.034 80.2668 151.986 80.2668 151.962 80.2668L152.537 80.3467C152.537 80.3467 152.498 80.3387 152.482 80.3307L152.993 80.5464C152.993 80.5464 152.953 80.5305 152.937 80.5145L153.376 80.85C153.376 80.85 153.344 80.8261 153.336 80.8101L153.672 81.2495C153.672 81.2495 153.648 81.2096 153.64 81.1936L153.856 81.7049C153.856 81.7049 153.84 81.657 153.84 81.633L153.92 82.2083C153.92 82.2083 153.92 82.1524 153.92 82.1204L153.84 82.6956C153.84 82.6956 153.856 82.6237 153.864 82.5918L153.648 83.1031C153.648 83.1031 153.68 83.0472 153.696 83.0152L153.36 83.4547C153.36 83.4547 153.4 83.4147 153.416 83.3907L152.977 83.7263C152.977 83.7263 153.017 83.7023 153.041 83.6864L152.529 83.9021C152.529 83.9021 152.569 83.8861 152.585 83.8861L152.01 83.966C152.01 83.966 152.05 83.966 152.074 83.966C152.37 83.974 152.649 83.918 152.905 83.7822C153.169 83.6943 153.4 83.5505 153.6 83.3348C153.808 83.1431 153.96 82.9114 154.048 82.6397C154.183 82.384 154.247 82.1044 154.231 81.8088L154.151 81.2335C154.048 80.866 153.864 80.5544 153.6 80.2828L153.161 79.9472C152.825 79.7555 152.458 79.6516 152.074 79.6516L152.106 79.7235Z" fill="#1B1E24"/>
<path d="M144.372 76.8872C140.872 77.015 136.878 77.6062 135.336 81.2255C134.696 82.7275 134.601 84.5172 135.439 85.9713C136.358 87.5772 138.116 88.2004 139.794 88.7038C142.806 89.5986 147.016 90.038 148.486 93.2978C149.038 94.5202 148.742 95.7346 147.759 96.6294C146.617 97.6681 145.011 97.9317 143.517 97.9717C140.034 98.0676 136.127 97.4923 133.674 94.7838C132.012 92.9462 129.311 95.6707 130.965 97.4923C133.45 100.241 137.061 101.335 140.641 101.687C144.22 102.038 148.463 101.759 150.963 98.8106C153.464 95.8624 152.769 91.564 149.965 88.9195C148.518 87.5533 146.729 86.7223 144.851 86.1231C143.094 85.5559 141.152 85.3162 139.466 84.5492C138.404 84.0618 138.452 83.0951 139.195 82.1363C140.305 80.7062 142.766 80.7701 144.38 80.7142C146.841 80.6263 146.849 76.7913 144.38 76.8792L144.372 76.8872Z" fill="#1B1E24"/>
<path d="M140.086 148.376C134.199 148.644 127.299 148.173 121.421 147.679C116.864 147.289 112.039 146.559 108.585 143.557C107.733 142.819 107.02 141.894 106.493 140.872C105.723 137.7 106.25 134.236 108.317 131.721C110.077 129.596 112.663 128.338 115.234 127.34C130.007 121.564 146.63 122.327 162.052 125.985C165.466 126.797 168.928 127.778 171.758 129.855C174.588 131.924 176.688 135.291 176.364 138.787C176.007 142.592 172.836 145.659 169.277 147.046C165.717 148.425 161.793 148.449 157.974 148.457C155.298 148.465 152.63 148.474 149.954 148.474C148.162 148.482 144.327 149.009 139.462 148.376" fill="#EFF2F3"/>
<path d="M140.086 147.159C134.67 147.395 129.245 147.078 123.845 146.656C119.158 146.291 113.839 146.064 109.939 143.095C109.079 142.438 108.139 141.562 107.701 140.556C107.222 139.444 107.287 137.862 107.458 136.686C107.806 134.252 109.12 132.208 111.115 130.788C113.255 129.263 115.809 128.346 118.282 127.527C120.756 126.708 123.358 126.026 125.961 125.531C136.583 123.487 147.627 124.209 158.176 126.375C163.09 127.381 168.896 128.371 172.536 132.143C174.085 133.749 175.212 135.891 175.18 138.163C175.147 140.434 173.939 142.332 172.325 143.785C167.817 147.833 160.974 147.224 155.362 147.241C152.808 147.241 150.262 147.216 147.716 147.362C144.959 147.516 142.211 147.5 139.462 147.159C137.913 146.965 137.929 149.399 139.462 149.593C142.17 149.934 144.878 149.958 147.595 149.804C150.116 149.666 152.638 149.691 155.16 149.682C160.844 149.666 167.274 150.112 172.261 146.876C176.501 144.117 178.861 139.177 176.826 134.293C174.588 128.914 169.041 126.505 163.747 125.15C152.322 122.221 140.24 120.996 128.523 122.651C122.783 123.463 116.734 124.907 111.585 127.657C109.29 128.882 107.206 130.626 106.071 133.011C104.936 135.396 104.595 138.3 105.244 140.88C105.966 143.736 109.193 145.813 111.723 146.884C114.398 148.019 117.269 148.482 120.139 148.774C126.731 149.447 133.453 149.877 140.078 149.593C141.635 149.528 141.643 147.095 140.078 147.159L140.086 147.159Z" fill="#EFF2F3"/>
<path d="M122.686 138.506C123.031 138.926 123.433 139.262 123.89 139.514C124.347 139.766 124.8 139.897 125.248 139.906C125.92 139.906 126.466 139.743 126.886 139.416C127.315 139.09 127.535 138.67 127.544 138.156C127.544 137.858 127.441 137.606 127.236 137.4C127.04 137.195 126.793 137.032 126.494 136.91C126.205 136.789 125.794 136.644 125.262 136.476C124.562 136.252 123.997 136.042 123.568 135.846C123.139 135.641 122.77 135.347 122.462 134.964C122.154 134.582 122 134.087 122 133.48C122 132.93 122.145 132.44 122.434 132.01C122.723 131.581 123.125 131.25 123.638 131.016C124.161 130.774 124.749 130.652 125.402 130.652C126.009 130.652 126.601 130.802 127.18 131.1C127.759 131.39 128.244 131.772 128.636 132.248L127.558 133.088C127.278 132.734 126.951 132.454 126.578 132.248C126.205 132.034 125.827 131.922 125.444 131.912C124.865 131.912 124.389 132.057 124.016 132.346C123.643 132.636 123.456 133.009 123.456 133.466C123.456 133.774 123.559 134.036 123.764 134.25C123.969 134.465 124.226 134.642 124.534 134.782C124.842 134.913 125.262 135.067 125.794 135.244C126.485 135.478 127.04 135.697 127.46 135.902C127.889 136.098 128.253 136.383 128.552 136.756C128.851 137.12 129 137.587 129 138.156C129 138.735 128.841 139.253 128.524 139.71C128.207 140.168 127.763 140.527 127.194 140.788C126.634 141.04 125.995 141.166 125.276 141.166C124.595 141.166 123.918 140.998 123.246 140.662C122.574 140.326 122.023 139.888 121.594 139.346L122.686 138.506ZM135.224 136.868C135.149 136.327 134.953 135.874 134.636 135.51C134.328 135.137 133.875 134.95 133.278 134.95C132.727 134.95 132.251 135.137 131.85 135.51C131.458 135.874 131.224 136.332 131.15 136.882L135.224 136.868ZM129.75 137.428C129.75 136.71 129.899 136.07 130.198 135.51C130.496 134.95 130.907 134.516 131.43 134.208C131.962 133.891 132.568 133.732 133.25 133.732C134.211 133.732 134.916 133.966 135.364 134.432C135.821 134.899 136.129 135.328 136.288 135.72C136.493 136.224 136.596 136.784 136.596 137.4C136.596 137.55 136.591 137.68 136.582 137.792C136.572 137.904 136.568 137.97 136.568 137.988H131.15C131.234 138.548 131.476 139.006 131.878 139.36C132.279 139.715 132.741 139.892 133.264 139.892C133.684 139.892 134.029 139.827 134.3 139.696C134.58 139.566 134.771 139.444 134.874 139.332C134.976 139.22 135.074 139.094 135.168 138.954L136.33 139.486C136.106 139.944 135.732 140.331 135.21 140.648C134.687 140.956 134.034 141.11 133.25 141.11C132.568 141.11 131.962 140.956 131.43 140.648C130.907 140.331 130.496 139.892 130.198 139.332C129.899 138.772 129.75 138.138 129.75 137.428ZM142.689 136.868C142.614 136.327 142.418 135.874 142.101 135.51C141.793 135.137 141.34 134.95 140.743 134.95C140.192 134.95 139.716 135.137 139.315 135.51C138.923 135.874 138.69 136.332 138.615 136.882L142.689 136.868ZM137.215 137.428C137.215 136.71 137.364 136.07 137.663 135.51C137.962 134.95 138.372 134.516 138.895 134.208C139.427 133.891 140.034 133.732 140.715 133.732C141.676 133.732 142.381 133.966 142.829 134.432C143.286 134.899 143.594 135.328 143.753 135.72C143.958 136.224 144.061 136.784 144.061 137.4C144.061 137.55 144.056 137.68 144.047 137.792C144.038 137.904 144.033 137.97 144.033 137.988H138.615C138.699 138.548 138.942 139.006 139.343 139.36C139.744 139.715 140.206 139.892 140.729 139.892C141.149 139.892 141.494 139.827 141.765 139.696C142.045 139.566 142.236 139.444 142.339 139.332C142.442 139.22 142.54 139.094 142.633 138.954L143.795 139.486C143.571 139.944 143.198 140.331 142.675 140.648C142.152 140.956 141.499 141.11 140.715 141.11C140.034 141.11 139.427 140.956 138.895 140.648C138.372 140.331 137.962 139.892 137.663 139.332C137.364 138.772 137.215 138.138 137.215 137.428ZM148.166 141.138C147.494 141.138 146.892 140.984 146.36 140.676C145.838 140.359 145.427 139.92 145.128 139.36C144.83 138.8 144.68 138.161 144.68 137.442C144.68 136.724 144.825 136.084 145.114 135.524C145.413 134.955 145.828 134.516 146.36 134.208C146.892 133.891 147.494 133.732 148.166 133.732C148.558 133.732 148.964 133.835 149.384 134.04C149.814 134.236 150.173 134.563 150.462 135.02V130.764H151.918V141.082H150.462V139.864C150.164 140.303 149.8 140.625 149.37 140.83C148.95 141.036 148.549 141.138 148.166 141.138ZM146.136 137.456C146.136 138.194 146.332 138.796 146.724 139.262C147.116 139.729 147.63 139.962 148.264 139.962C148.656 139.962 149.02 139.85 149.356 139.626C149.702 139.402 149.972 139.099 150.168 138.716C150.364 138.334 150.462 137.914 150.462 137.456C150.462 137.008 150.36 136.593 150.154 136.21C149.958 135.828 149.692 135.524 149.356 135.3C149.02 135.076 148.656 134.964 148.264 134.964C147.63 134.964 147.116 135.198 146.724 135.664C146.332 136.122 146.136 136.719 146.136 137.456ZM158.18 136.868C158.106 136.327 157.91 135.874 157.592 135.51C157.284 135.137 156.832 134.95 156.234 134.95C155.684 134.95 155.208 135.137 154.806 135.51C154.414 135.874 154.181 136.332 154.106 136.882L158.18 136.868ZM152.706 137.428C152.706 136.71 152.856 136.07 153.154 135.51C153.453 134.95 153.864 134.516 154.386 134.208C154.918 133.891 155.525 133.732 156.206 133.732C157.168 133.732 157.872 133.966 158.32 134.432C158.778 134.899 159.086 135.328 159.244 135.72C159.45 136.224 159.552 136.784 159.552 137.4C159.552 137.55 159.548 137.68 159.538 137.792C159.529 137.904 159.524 137.97 159.524 137.988H154.106C154.19 138.548 154.433 139.006 154.834 139.36C155.236 139.715 155.698 139.892 156.22 139.892C156.64 139.892 156.986 139.827 157.256 139.696C157.536 139.566 157.728 139.444 157.83 139.332C157.933 139.22 158.031 139.094 158.124 138.954L159.286 139.486C159.062 139.944 158.689 140.331 158.166 140.648C157.644 140.956 156.99 141.11 156.206 141.11C155.525 141.11 154.918 140.956 154.386 140.648C153.864 140.331 153.453 139.892 153.154 139.332C152.856 138.772 152.706 138.138 152.706 137.428ZM161.755 135.132C161.96 134.712 162.278 134.372 162.707 134.11C163.146 133.84 163.608 133.704 164.093 133.704V135.034C163.664 135.034 163.267 135.151 162.903 135.384C162.548 135.618 162.268 135.921 162.063 136.294C161.858 136.658 161.755 137.032 161.755 137.414V141.068H160.313V133.746H161.755V135.132Z" fill="#9BA1A8"/>
<path d="M107.141 25.4128C107.16 25.5435 107.169 25.6695 107.169 25.7908C107.169 26.0148 107.155 26.2622 107.127 26.5328C106.969 27.9888 106.455 29.1135 105.587 29.9068C104.729 30.7002 103.571 31.0968 102.115 31.0968C101.098 31.0968 100.188 30.8682 99.3855 30.4108C98.5828 29.9535 97.9528 29.3188 97.4955 28.5068C97.0475 27.6948 96.8235 26.7708 96.8235 25.7348C96.8235 24.6988 97.0475 23.7748 97.4955 22.9628C97.9528 22.1508 98.5828 21.5208 99.3855 21.0728C100.188 20.6155 101.098 20.3868 102.115 20.3868C103.198 20.3868 104.122 20.6342 104.887 21.1288C105.662 21.6142 106.241 22.2068 106.623 22.9068L105.027 23.7888C104.766 23.3035 104.383 22.8928 103.879 22.5568C103.385 22.2115 102.792 22.0388 102.101 22.0388C101.429 22.0388 100.837 22.1928 100.323 22.5008C99.8195 22.7995 99.4275 23.2288 99.1475 23.7888C98.8675 24.3488 98.7275 24.9975 98.7275 25.7348C98.7275 26.4815 98.8675 27.1348 99.1475 27.6948C99.4275 28.2548 99.8195 28.6888 100.323 28.9968C100.837 29.2955 101.429 29.4448 102.101 29.4448C102.932 29.4355 103.651 29.2255 104.257 28.8148C104.864 28.3948 105.186 27.7695 105.223 26.9388H102.367V25.4128H107.141ZM113.236 26.5468C113.152 26.1362 112.96 25.7768 112.662 25.4688C112.363 25.1608 111.966 25.0068 111.472 25.0068C110.986 25.0068 110.566 25.1608 110.212 25.4688C109.866 25.7675 109.652 26.1268 109.568 26.5468H113.236ZM107.818 27.2608C107.818 26.5235 107.972 25.8702 108.28 25.3008C108.588 24.7222 109.017 24.2742 109.568 23.9568C110.118 23.6302 110.748 23.4668 111.458 23.4668C112.158 23.4668 112.741 23.6115 113.208 23.9008C113.674 24.1902 113.992 24.4655 114.16 24.7268C114.337 24.9788 114.491 25.2355 114.622 25.4968C114.836 25.9448 114.944 26.5328 114.944 27.2608L114.93 27.8908H109.568C109.652 28.3575 109.88 28.7402 110.254 29.0388C110.627 29.3282 111.033 29.4728 111.472 29.4728C111.985 29.4728 112.368 29.3842 112.62 29.2068C112.872 29.0202 113.03 28.8662 113.096 28.7448L114.636 29.3468C114.402 29.8135 114.015 30.2102 113.474 30.5368C112.942 30.8635 112.27 31.0268 111.458 31.0268C110.748 31.0268 110.118 30.8682 109.568 30.5508C109.017 30.2335 108.588 29.7902 108.28 29.2208C107.972 28.6422 107.818 27.9888 107.818 27.2608ZM119.025 31.0268C118.549 31.0268 118.12 30.9195 117.737 30.7048C117.364 30.4902 117.07 30.1915 116.855 29.8088C116.64 29.4262 116.533 28.9875 116.533 28.4928V25.2168H115.189V23.5788H116.533V21.4088H118.437V23.5788H120.327V25.2168H118.437V28.4368C118.437 28.6422 118.493 28.8195 118.605 28.9688C118.717 29.1182 118.857 29.1975 119.025 29.2068C119.146 29.2162 119.272 29.2068 119.403 29.1788C119.543 29.1508 119.683 29.1135 119.823 29.0668L120.257 30.8728C119.8 30.9755 119.389 31.0268 119.025 31.0268ZM136.255 30.9848H134.575L131.999 23.4248L129.661 30.9848H127.981L124.495 20.4848H126.497L128.821 27.8208L130.949 20.4848H133.021L135.247 27.8208L137.193 20.4848H139.195L136.255 30.9848ZM145.189 27.1908C145.189 26.5655 145.059 26.0708 144.797 25.7068C144.536 25.3335 144.186 25.1468 143.747 25.1468C143.225 25.1468 142.795 25.3522 142.459 25.7628C142.123 26.1642 141.955 26.6588 141.955 27.2468V30.9848H140.051V20.4848H141.955V24.4608C142.198 24.1622 142.487 23.9475 142.823 23.8168C143.169 23.6768 143.481 23.6068 143.761 23.6068C144.405 23.6068 144.979 23.7468 145.483 24.0268C145.987 24.3068 146.379 24.6988 146.659 25.2028C146.949 25.6975 147.093 26.2668 147.093 26.9108V30.9848H145.189V27.1908ZM150.345 23.5508V30.9848H148.441V23.5508H150.345ZM148.385 21.2408C148.385 20.9422 148.478 20.6995 148.665 20.5128C148.861 20.3168 149.104 20.2188 149.393 20.2188C149.682 20.2188 149.92 20.3168 150.107 20.5128C150.303 20.6995 150.401 20.9422 150.401 21.2408C150.401 21.5302 150.308 21.7728 150.121 21.9688C149.934 22.1555 149.692 22.2488 149.393 22.2488C149.104 22.2488 148.861 22.1555 148.665 21.9688C148.478 21.7728 148.385 21.5302 148.385 21.2408ZM155.223 31.0268C154.747 31.0268 154.317 30.9195 153.935 30.7048C153.561 30.4902 153.267 30.1915 153.053 29.8088C152.838 29.4262 152.731 28.9875 152.731 28.4928V25.2168H151.387V23.5788H152.731V21.4088H154.635V23.5788H156.525V25.2168H154.635V28.4368C154.635 28.6422 154.691 28.8195 154.803 28.9688C154.915 29.1182 155.055 29.1975 155.223 29.2068C155.344 29.2162 155.47 29.2068 155.601 29.1788C155.741 29.1508 155.881 29.1135 156.021 29.0668L156.455 30.8728C155.997 30.9755 155.587 31.0268 155.223 31.0268ZM162.627 26.5468C162.543 26.1362 162.352 25.7768 162.053 25.4688C161.754 25.1608 161.358 25.0068 160.863 25.0068C160.378 25.0068 159.958 25.1608 159.603 25.4688C159.258 25.7675 159.043 26.1268 158.959 26.5468H162.627ZM157.209 27.2608C157.209 26.5235 157.363 25.8702 157.671 25.3008C157.979 24.7222 158.408 24.2742 158.959 23.9568C159.51 23.6302 160.14 23.4668 160.849 23.4668C161.549 23.4668 162.132 23.6115 162.599 23.9008C163.066 24.1902 163.383 24.4655 163.551 24.7268C163.728 24.9788 163.882 25.2355 164.013 25.4968C164.228 25.9448 164.335 26.5328 164.335 27.2608L164.321 27.8908H158.959C159.043 28.3575 159.272 28.7402 159.645 29.0388C160.018 29.3282 160.424 29.4728 160.863 29.4728C161.376 29.4728 161.759 29.3842 162.011 29.2068C162.263 29.0202 162.422 28.8662 162.487 28.7448L164.027 29.3468C163.794 29.8135 163.406 30.2102 162.865 30.5368C162.333 30.8635 161.661 31.0268 160.849 31.0268C160.14 31.0268 159.51 30.8682 158.959 30.5508C158.408 30.2335 157.979 29.7902 157.671 29.2208C157.363 28.6422 157.209 27.9888 157.209 27.2608ZM167.122 20.4848V30.9848H165.218V20.4848H167.122ZM170.485 23.5508V30.9848H168.581V23.5508H170.485ZM168.525 21.2408C168.525 20.9422 168.618 20.6995 168.805 20.5128C169.001 20.3168 169.243 20.2188 169.533 20.2188C169.822 20.2188 170.06 20.3168 170.247 20.5128C170.443 20.6995 170.541 20.9422 170.541 21.2408C170.541 21.5302 170.447 21.7728 170.261 21.9688C170.074 22.1555 169.831 22.2488 169.533 22.2488C169.243 22.2488 169.001 22.1555 168.805 21.9688C168.618 21.7728 168.525 21.5302 168.525 21.2408ZM173.052 28.6888C173.267 28.9502 173.524 29.1602 173.822 29.3188C174.13 29.4775 174.415 29.5568 174.676 29.5568C175.003 29.5568 175.269 29.4822 175.474 29.3328C175.689 29.1742 175.801 28.9782 175.81 28.7448C175.82 28.6048 175.731 28.4882 175.544 28.3948C175.358 28.2922 175.045 28.1615 174.606 28.0028C174.084 27.8255 173.65 27.6528 173.304 27.4848C172.959 27.3168 172.656 27.0882 172.394 26.7988C172.142 26.5002 172.016 26.1268 172.016 25.6788C172.016 25.2402 172.133 24.8528 172.366 24.5168C172.609 24.1715 172.94 23.9055 173.36 23.7188C173.78 23.5228 174.261 23.4248 174.802 23.4248C175.269 23.4248 175.745 23.5368 176.23 23.7608C176.725 23.9848 177.117 24.2788 177.406 24.6428L176.174 25.6928C176.006 25.4782 175.801 25.3055 175.558 25.1748C175.316 25.0442 175.087 24.9742 174.872 24.9648C174.602 24.9648 174.378 25.0255 174.2 25.1468C174.023 25.2682 173.93 25.4315 173.92 25.6368C173.92 25.7955 174.018 25.9308 174.214 26.0428C174.41 26.1455 174.732 26.2715 175.18 26.4208C175.684 26.5888 176.109 26.7568 176.454 26.9248C176.8 27.0835 177.094 27.3122 177.336 27.6108C177.588 27.9002 177.714 28.2642 177.714 28.7028C177.714 29.1788 177.584 29.5988 177.322 29.9628C177.07 30.3175 176.716 30.5928 176.258 30.7888C175.81 30.9942 175.292 31.0968 174.704 31.0968C174.191 31.0968 173.659 30.9708 173.108 30.7188C172.567 30.4668 172.128 30.1355 171.792 29.7248L173.052 28.6888ZM181.891 31.0268C181.415 31.0268 180.986 30.9195 180.603 30.7048C180.23 30.4902 179.936 30.1915 179.721 29.8088C179.506 29.4262 179.399 28.9875 179.399 28.4928V25.2168H178.055V23.5788H179.399V21.4088H181.303V23.5788H183.193V25.2168H181.303V28.4368C181.303 28.6422 181.359 28.8195 181.471 28.9688C181.583 29.1182 181.723 29.1975 181.891 29.2068C182.012 29.2162 182.138 29.2068 182.269 29.1788C182.409 29.1508 182.549 29.1135 182.689 29.0668L183.123 30.8728C182.666 30.9755 182.255 31.0268 181.891 31.0268ZM187.187 27.7928H185.339L185.003 19.8128H187.481L187.187 27.7928ZM185.241 30.2288C185.241 29.9302 185.334 29.6875 185.521 29.5008C185.717 29.3048 185.964 29.2068 186.263 29.2068C186.561 29.2068 186.804 29.3048 186.991 29.5008C187.187 29.6875 187.285 29.9302 187.285 30.2288C187.285 30.5275 187.187 30.7702 186.991 30.9568C186.804 31.1528 186.561 31.2508 186.263 31.2508C185.964 31.2508 185.717 31.1528 185.521 30.9568C185.334 30.7702 185.241 30.5275 185.241 30.2288Z" fill="#5A4BF5"/>
<path d="M200.826 28.024C200.832 28.022 200.837 28.0268 200.837 28.0329C200.419 31.9916 197.9 35.4327 194.787 37.7988C191.075 40.628 186.479 41.9439 181.899 42.4785C176.815 43.0789 171.665 42.9226 166.557 42.9391C163.746 42.9391 160.927 42.9555 158.116 42.9555C155.711 42.9555 153.281 42.9473 150.916 43.4243C146.666 44.2925 142.416 47.7898 142.738 52.3169C142.788 53.0181 143.569 53.3431 144.178 52.9911C144.809 52.6259 144.897 51.7485 144.396 51.2185C142.3 49.0015 140.891 46.2935 140.285 43.2681C140.161 42.6595 139.467 42.1578 138.847 42.1824C131.448 42.5114 124.033 42.5032 116.635 42.1331C110.137 41.8123 103.433 41.5162 97.1422 39.7398C94.3398 38.942 91.6449 37.7988 89.2559 36.121C87.9993 35.241 86.842 34.1882 85.9079 32.9628C85.4863 32.4035 84.9738 31.7538 84.7092 31.104C84.4447 30.4543 84.3703 29.6401 84.2877 28.941C83.6098 22.8137 86.065 17.1717 91.2233 13.7092C93.8107 11.9739 96.6875 10.7484 99.5974 9.65454C102.714 8.48667 105.896 7.47505 109.112 6.62793C115.651 4.90079 122.355 3.82338 129.101 3.32168C142.617 2.31007 156.24 3.47795 169.524 6.03577C175.981 7.28589 182.792 8.52779 188.794 11.3077C194.159 13.7832 199.069 17.9613 200.524 23.8911C200.855 25.2564 200.937 26.6217 200.822 28.0198C200.665 29.9197 203.64 29.9115 203.798 28.0198C204.318 21.6705 200.648 15.7489 195.721 11.9903C190.133 7.72179 183.082 5.96997 176.328 4.44844C162.291 1.27378 147.8 -0.478035 133.375 0.114129C126.166 0.410211 118.958 1.29846 111.923 2.89401C104.888 4.48956 98.2747 6.44699 92.1822 9.69567C89.3137 11.2254 86.6436 13.2158 84.6844 15.8311C82.7253 18.4465 81.6919 21.4978 81.3282 24.6725C81.1464 26.2598 81.1794 27.8554 81.3778 29.4345C81.477 30.2158 81.5679 31.03 81.7911 31.7867C82.0226 32.6009 82.5682 33.374 83.0477 34.0648C84.9076 36.7296 87.4951 38.7775 90.3801 40.2743C96.1998 43.2927 102.863 44.107 109.311 44.6251C117.164 45.2584 125.058 45.4969 132.936 45.3406C134.595 45.306 136.253 45.2538 137.912 45.189C138.224 45.1768 138.347 44.7806 138.098 44.5926C137.854 44.4085 137.518 44.6223 137.593 44.9188C138.504 48.5499 140.529 51.8594 143.336 54.3547C144.419 55.3169 146.221 54.3958 145.824 52.9154C145.32 51.032 146.337 49.2062 147.758 47.9972C149.437 46.5743 151.776 46.1631 153.917 46.015C159.166 45.6696 164.498 45.9164 169.756 45.8999C179.155 45.867 189.339 45.9164 197.052 39.7644C200.731 36.8283 203.302 32.7325 203.789 28.0281C203.872 27.2303 203.045 26.5559 202.301 26.5477C201.43 26.5395 200.902 27.2309 200.815 28.0151C200.814 28.0211 200.82 28.0259 200.826 28.024Z" fill="#5A4BF5" fill-opacity="0.2"/>
<rect x="1" y="192" width="283" height="155" rx="15" stroke="#5F44FF" stroke-width="2" stroke-dasharray="4 4"/>
<rect x="90.0115" y="174" width="106" height="35" rx="10" fill="#5F44FF"/>
<path d="M109.632 194.698H114.672V196.154H107.952V185.738H109.632V194.698ZM118.537 194.838C118.901 194.838 119.242 194.735 119.559 194.53C119.877 194.325 120.129 194.04 120.315 193.676C120.502 193.312 120.595 192.911 120.595 192.472C120.595 192.033 120.502 191.637 120.315 191.282C120.129 190.918 119.877 190.633 119.559 190.428C119.242 190.223 118.901 190.12 118.537 190.12C118.145 190.12 117.8 190.218 117.501 190.414C117.203 190.601 116.969 190.876 116.801 191.24C116.643 191.595 116.563 192.005 116.563 192.472C116.563 192.948 116.643 193.363 116.801 193.718C116.969 194.073 117.203 194.348 117.501 194.544C117.8 194.74 118.145 194.838 118.537 194.838ZM122.275 196.154H120.595V195.048C120.399 195.309 120.18 195.524 119.937 195.692C119.704 195.86 119.457 195.986 119.195 196.07C118.934 196.163 118.668 196.21 118.397 196.21C117.716 196.21 117.109 196.051 116.577 195.734C116.045 195.417 115.63 194.978 115.331 194.418C115.033 193.849 114.883 193.2 114.883 192.472C114.883 191.753 115.033 191.114 115.331 190.554C115.63 189.985 116.045 189.541 116.577 189.224C117.109 188.907 117.716 188.748 118.397 188.748C118.808 188.748 119.205 188.846 119.587 189.042C119.979 189.238 120.315 189.527 120.595 189.91V188.72H122.275V196.154ZM125.217 192.836C125.217 193.424 125.376 193.895 125.693 194.25C126.011 194.595 126.426 194.768 126.939 194.768C127.294 194.768 127.607 194.679 127.877 194.502C128.158 194.325 128.367 194.087 128.507 193.788C128.657 193.48 128.731 193.135 128.731 192.752V188.72H130.412V196.154H128.731V194.936C128.517 195.291 128.218 195.58 127.835 195.804C127.453 196.028 127.056 196.14 126.645 196.14C126.048 196.14 125.511 196.005 125.035 195.734C124.569 195.463 124.2 195.081 123.929 194.586C123.668 194.091 123.537 193.522 123.537 192.878V188.72H125.217V192.836ZM136.969 192.15C136.969 191.515 136.819 191.021 136.521 190.666C136.222 190.311 135.797 190.134 135.247 190.134C134.911 190.134 134.603 190.223 134.323 190.4C134.052 190.568 133.837 190.806 133.679 191.114C133.52 191.413 133.445 191.758 133.455 192.15V196.154H131.775V188.72H133.455V189.966C133.66 189.621 133.959 189.336 134.351 189.112C134.752 188.879 135.149 188.762 135.541 188.762C136.035 188.762 136.516 188.869 136.983 189.084C137.459 189.299 137.855 189.658 138.173 190.162C138.49 190.666 138.649 191.315 138.649 192.108V196.154H136.969V192.15ZM143.039 194.628C143.301 194.628 143.576 194.563 143.865 194.432C144.164 194.301 144.421 194.124 144.635 193.9L145.755 195.062C145.429 195.398 145.013 195.673 144.509 195.888C144.015 196.093 143.543 196.196 143.095 196.196C142.358 196.196 141.705 196.037 141.135 195.72C140.566 195.403 140.123 194.959 139.805 194.39C139.488 193.821 139.329 193.177 139.329 192.458C139.329 191.739 139.488 191.095 139.805 190.526C140.132 189.957 140.575 189.513 141.135 189.196C141.705 188.879 142.358 188.72 143.095 188.72C143.581 188.72 144.057 188.823 144.523 189.028C144.999 189.233 145.41 189.509 145.755 189.854L144.635 191.002C144.411 190.787 144.155 190.615 143.865 190.484C143.576 190.353 143.301 190.288 143.039 190.288C142.638 190.288 142.283 190.381 141.975 190.568C141.667 190.745 141.429 190.997 141.261 191.324C141.093 191.651 141.009 192.029 141.009 192.458C141.009 192.887 141.093 193.265 141.261 193.592C141.429 193.919 141.667 194.175 141.975 194.362C142.283 194.539 142.638 194.628 143.039 194.628ZM151.666 192.304C151.666 191.669 151.526 191.165 151.246 190.792C150.966 190.409 150.593 190.218 150.126 190.218C149.781 190.218 149.463 190.316 149.174 190.512C148.894 190.708 148.67 190.974 148.502 191.31C148.343 191.646 148.264 192.015 148.264 192.416V196.154H146.584V185.738H148.264V189.812C148.488 189.495 148.773 189.257 149.118 189.098C149.473 188.93 149.813 188.846 150.14 188.846C150.765 188.846 151.316 188.981 151.792 189.252C152.277 189.523 152.655 189.905 152.926 190.4C153.206 190.885 153.346 191.445 153.346 192.08V196.154H151.666V192.304ZM158.492 194.824C158.884 194.824 159.229 194.726 159.528 194.53C159.826 194.334 160.055 194.059 160.214 193.704C160.382 193.34 160.466 192.92 160.466 192.444C160.466 191.968 160.382 191.553 160.214 191.198C160.055 190.843 159.826 190.568 159.528 190.372C159.229 190.176 158.884 190.078 158.492 190.078C158.118 190.078 157.773 190.185 157.456 190.4C157.138 190.615 156.882 190.904 156.686 191.268C156.499 191.623 156.406 192.015 156.406 192.444C156.406 192.873 156.499 193.275 156.686 193.648C156.882 194.012 157.138 194.301 157.456 194.516C157.773 194.721 158.118 194.824 158.492 194.824ZM158.618 188.706C159.299 188.706 159.906 188.869 160.438 189.196C160.979 189.513 161.399 189.957 161.698 190.526C161.996 191.086 162.146 191.725 162.146 192.444C162.146 193.163 161.996 193.811 161.698 194.39C161.399 194.959 160.979 195.403 160.438 195.72C159.906 196.037 159.299 196.196 158.618 196.196C158.263 196.196 157.871 196.103 157.442 195.916C157.022 195.729 156.676 195.431 156.406 195.02V199.234H154.726V188.72H156.406V189.868C156.667 189.467 157.017 189.173 157.456 188.986C157.894 188.799 158.282 188.706 158.618 188.706ZM166.582 194.838C166.946 194.838 167.286 194.735 167.604 194.53C167.921 194.325 168.173 194.04 168.36 193.676C168.546 193.312 168.64 192.911 168.64 192.472C168.64 192.033 168.546 191.637 168.36 191.282C168.173 190.918 167.921 190.633 167.604 190.428C167.286 190.223 166.946 190.12 166.582 190.12C166.19 190.12 165.844 190.218 165.546 190.414C165.247 190.601 165.014 190.876 164.846 191.24C164.687 191.595 164.608 192.005 164.608 192.472C164.608 192.948 164.687 193.363 164.846 193.718C165.014 194.073 165.247 194.348 165.546 194.544C165.844 194.74 166.19 194.838 166.582 194.838ZM170.32 196.154H168.64V195.048C168.444 195.309 168.224 195.524 167.982 195.692C167.748 195.86 167.501 195.986 167.24 196.07C166.978 196.163 166.712 196.21 166.442 196.21C165.76 196.21 165.154 196.051 164.622 195.734C164.09 195.417 163.674 194.978 163.376 194.418C163.077 193.849 162.928 193.2 162.928 192.472C162.928 191.753 163.077 191.114 163.376 190.554C163.674 189.985 164.09 189.541 164.622 189.224C165.154 188.907 165.76 188.748 166.442 188.748C166.852 188.748 167.249 188.846 167.632 189.042C168.024 189.238 168.36 189.527 168.64 189.91V188.72H170.32V196.154ZM174.967 196.21C174.285 196.21 173.674 196.051 173.133 195.734C172.601 195.407 172.185 194.964 171.887 194.404C171.588 193.835 171.439 193.186 171.439 192.458C171.439 191.739 171.588 191.095 171.887 190.526C172.185 189.957 172.601 189.513 173.133 189.196C173.674 188.869 174.285 188.706 174.967 188.706C175.191 188.706 175.429 188.739 175.681 188.804C175.933 188.869 176.194 188.991 176.465 189.168C176.745 189.345 176.987 189.588 177.193 189.896V185.738H178.873V196.154H177.193V195.034C176.894 195.454 176.53 195.757 176.101 195.944C175.681 196.121 175.303 196.21 174.967 196.21ZM175.107 194.866C175.48 194.866 175.825 194.763 176.143 194.558C176.46 194.343 176.712 194.054 176.899 193.69C177.095 193.326 177.193 192.929 177.193 192.5C177.193 192.071 177.095 191.674 176.899 191.31C176.712 190.937 176.46 190.643 176.143 190.428C175.825 190.213 175.48 190.106 175.107 190.106C174.705 190.106 174.355 190.204 174.057 190.4C173.758 190.596 173.525 190.876 173.357 191.24C173.198 191.604 173.119 192.024 173.119 192.5C173.119 192.967 173.198 193.382 173.357 193.746C173.525 194.101 173.758 194.376 174.057 194.572C174.355 194.768 174.705 194.866 175.107 194.866Z" fill="white"/>
<path d="M65.2038 285.266C69.2139 283.343 73.3412 281.227 75.997 277.656C78.2834 274.584 79.2507 270.562 78.6234 266.787C76.4425 253.69 55.4073 248.208 48.9584 260.924C46.6016 265.579 45.1946 271.958 47.8269 276.519C51.0397 282.082 52.347 281.86 57.5765 284.199L57.4651 287.763L65.2038 285.272V285.266Z" fill="white"/>
<path d="M65.9123 286.479C69.6058 284.709 73.4048 282.768 76.1661 279.661C78.9274 276.554 80.5044 272.221 80.1761 267.971C79.7188 262.173 75.9374 257.33 70.8604 254.692C66.1292 252.23 60.1845 251.409 55.1543 253.461C52.5279 254.528 50.3235 256.263 48.7054 258.597C46.5773 261.663 45.3637 265.644 45.0589 269.337C44.8947 271.319 45.0589 273.406 45.7331 275.288C46.3428 276.994 47.3394 278.588 48.4299 280.036C49.2624 281.133 50.1828 282.1 51.3436 282.856C52.4048 283.548 53.6007 284.017 54.7615 284.51C55.4651 284.809 56.1686 285.102 56.8721 285.418L56.1744 284.205C56.1393 285.395 56.0982 286.579 56.063 287.769C56.0337 288.654 56.9893 289.399 57.8453 289.123C60.4249 288.291 63.0044 287.458 65.584 286.632C67.3017 286.081 66.5689 283.36 64.8336 283.917C62.254 284.75 59.6744 285.582 57.0949 286.409L58.8771 287.763C58.9123 286.573 58.9533 285.389 58.9885 284.199C59.0002 283.747 58.7188 283.173 58.2909 282.985C56.9542 282.387 55.7113 281.912 54.445 281.332C53.9642 281.109 53.4835 280.875 53.0321 280.599C52.4868 280.271 52.3637 280.171 51.9768 279.825C50.986 278.928 50.3352 277.943 49.6317 276.806C48.7289 275.334 48.0488 273.84 47.8788 272.098C47.5446 268.587 48.5178 264.975 50.0773 261.845C51.1795 259.623 52.7096 257.917 54.7909 256.744C56.6728 255.683 58.8478 255.185 61.017 255.138C63.4383 255.091 65.6192 255.519 67.9584 256.445C72.115 258.092 75.8436 261.546 77.0103 265.954C78.0011 269.7 77.1217 273.875 74.7883 276.953C72.2264 280.329 68.228 282.27 64.4994 284.058C63.8135 284.386 63.6317 285.365 63.9952 285.981C64.4056 286.679 65.2322 286.814 65.9182 286.485L65.9123 286.479Z" fill="#1B1E24"/>
<path d="M56.2667 261.58C56.2667 261.58 56.2492 261.592 56.2374 261.598C56.126 261.68 56.0029 261.768 55.8915 261.868C55.8857 261.874 55.8739 261.879 55.8681 261.891C55.7684 261.997 55.6805 262.114 55.5984 262.237C55.5984 262.243 55.5867 262.255 55.5867 262.266C55.6453 262.137 55.4694 262.524 55.4225 262.647C55.4225 262.647 55.4225 262.647 55.4225 262.653C55.4225 262.653 55.4225 262.665 55.4225 262.671C55.4753 262.348 55.3756 262.958 55.3639 263.099C55.3639 263.099 55.3639 263.099 55.3639 263.105C55.3639 263.105 55.3639 263.111 55.3639 263.116C55.4049 263.503 55.3991 263.597 55.5867 263.937C55.6512 264.06 55.7391 264.172 55.8446 264.271C56.1085 264.518 56.2198 264.565 56.554 264.688C56.554 264.688 56.554 264.688 56.5599 264.688C56.5657 264.688 56.9703 264.746 56.982 264.746C56.982 264.746 56.982 264.746 56.9878 264.746C57.1286 264.735 57.791 264.629 57.4158 264.688C57.4158 264.688 57.4275 264.688 57.4334 264.688C57.5682 264.641 57.7031 264.588 57.8262 264.524C57.8262 264.524 57.8379 264.524 57.8379 264.512C57.9493 264.43 58.0607 264.353 58.1604 264.26C58.1604 264.26 58.1604 264.26 58.1662 264.254C58.389 264.002 58.4828 263.867 58.5825 263.544C58.6704 263.263 58.6528 262.976 58.5825 262.694C58.518 262.431 58.3597 262.178 58.1721 261.985C58.0724 261.885 57.961 261.792 57.8379 261.727C57.6562 261.61 57.4627 261.551 57.2517 261.539C57.0406 261.493 56.8296 261.504 56.6185 261.569C56.4133 261.616 56.2316 261.709 56.0791 261.85C55.9091 261.962 55.7684 262.108 55.6688 262.296L55.5105 262.671C55.4342 262.952 55.4342 263.234 55.5105 263.515L55.6688 263.89C55.8095 264.131 55.9971 264.318 56.2374 264.459C56.2374 264.459 56.2433 264.459 56.2492 264.459L55.9267 264.213L55.6805 263.89L55.5222 263.515L55.4636 263.093L55.5222 262.671C55.5222 262.671 55.5222 262.671 55.5222 262.677L55.6805 262.302C55.6805 262.302 55.6805 262.307 55.6805 262.313L55.9267 261.991C55.9267 261.991 55.9208 261.997 55.915 262.003L56.2374 261.756C56.2374 261.756 56.2257 261.768 56.214 261.768L56.5892 261.61C56.5892 261.61 56.5716 261.61 56.5657 261.616L56.9878 261.557C56.9878 261.557 56.9761 261.557 56.9703 261.557L57.3924 261.616H57.3806L57.7559 261.774C57.7559 261.774 57.7559 261.774 57.75 261.774L58.0724 262.02C58.0724 262.02 58.0724 262.02 58.0666 262.014L58.3128 262.337C58.3128 262.337 58.3128 262.331 58.3069 262.325L58.4652 262.7C58.4652 262.7 58.4652 262.688 58.4652 262.677L58.5239 263.099C58.5239 263.099 58.5239 263.081 58.5239 263.075L58.4652 263.498C58.4652 263.498 58.4652 263.48 58.4711 263.468L58.3128 263.843C58.3128 263.843 58.3245 263.82 58.3363 263.808L58.09 264.131C58.09 264.131 58.1252 264.09 58.1486 264.078L57.8262 264.324C57.8262 264.324 57.8438 264.312 57.8555 264.301C58.0373 264.201 58.1897 264.066 58.3011 263.89C58.4418 263.738 58.5356 263.556 58.5825 263.351C58.647 263.14 58.6587 262.929 58.6118 262.718C58.6001 262.507 58.5414 262.313 58.4242 262.132L58.178 261.809C57.9786 261.616 57.75 261.475 57.4803 261.405L57.0582 261.346C56.7709 261.346 56.5071 261.416 56.2609 261.563L56.2667 261.58Z" fill="#1B1E24"/>
<path d="M65.5018 262.073C65.3905 262.155 65.2732 262.237 65.1677 262.331C65.1677 262.331 65.1677 262.331 65.1618 262.337C65.1501 262.349 64.9214 262.648 64.9097 262.659C64.8276 262.782 64.7807 262.923 64.7397 263.064C64.6987 263.204 64.6752 263.351 64.6811 263.492C64.6811 263.562 64.7104 263.732 64.7104 263.709L64.7397 263.92C64.7807 264.06 64.8276 264.201 64.9097 264.324C64.9918 264.447 65.068 264.565 65.1735 264.664C65.1735 264.664 65.1794 264.67 65.1853 264.676C65.2263 264.711 65.4608 264.893 65.5077 264.928C65.5077 264.928 65.5136 264.928 65.5194 264.934C65.5839 264.975 65.7012 265.016 65.7363 265.028C65.7715 265.039 65.8829 265.104 65.9591 265.116C66.1057 265.151 66.2581 265.168 66.4105 265.174C66.4105 265.174 66.4223 265.174 66.4281 265.174C66.4281 265.174 66.434 265.174 66.4399 265.174L66.862 265.116C66.862 265.116 66.862 265.116 66.8678 265.116C67.0085 265.086 67.1492 265.016 67.2724 264.946C67.2724 264.946 67.2841 264.946 67.2841 264.94C67.3017 264.928 67.5889 264.705 67.6065 264.688C67.6065 264.688 67.6124 264.688 67.6183 264.682C67.7179 264.576 67.8176 264.465 67.8821 264.336C67.9466 264.207 68.0052 264.072 68.0521 263.937C68.0521 263.926 68.0521 263.914 68.058 263.908C68.0873 263.761 68.1107 263.615 68.1166 263.462C68.1166 263.451 68.1166 263.445 68.1166 263.433C68.1049 263.287 68.0873 263.134 68.058 262.988C68.058 262.976 68.058 262.964 68.0462 262.952C67.9935 262.8 67.9348 262.653 67.8586 262.513C67.8469 262.489 67.8352 262.472 67.8176 262.454C67.7238 262.325 67.63 262.196 67.5245 262.079C67.5069 262.061 67.4893 262.044 67.4717 262.026C67.331 261.874 67.161 261.762 66.9616 261.698C66.774 261.598 66.5688 261.551 66.3519 261.563C66.135 261.557 65.9298 261.598 65.7422 261.698C65.5487 261.762 65.3787 261.868 65.2322 262.026L64.9859 262.349C64.8452 262.595 64.769 262.864 64.769 263.146L64.8276 263.568C64.9038 263.838 65.0387 264.066 65.2322 264.266C65.2615 264.295 65.2966 264.33 65.3201 264.365L65.0739 264.043C65.0973 264.078 65.1208 264.113 65.1384 264.154L64.9801 263.779C64.9801 263.779 64.9977 263.826 65.0035 263.855L64.9449 263.433C64.9449 263.433 64.9449 263.468 64.9449 263.486L65.0035 263.064C65.0035 263.064 64.9976 263.099 64.9918 263.117L65.1501 262.741C65.1501 262.741 65.1442 262.759 65.1384 262.765L65.3846 262.442C65.3846 262.442 65.3729 262.454 65.367 262.46L65.6894 262.214C65.6894 262.214 65.6777 262.225 65.666 262.225L66.0412 262.067C66.0412 262.067 66.0236 262.067 66.0119 262.073L66.434 262.014C66.434 262.014 66.4047 262.014 66.393 262.014L66.8151 262.073C66.8151 262.073 66.7799 262.067 66.7623 262.061L67.1375 262.22C67.1375 262.22 67.1082 262.208 67.0965 262.196L67.4189 262.442C67.4189 262.442 67.4013 262.431 67.3955 262.419L67.6417 262.741C67.6417 262.741 67.6358 262.73 67.63 262.724L67.7883 263.099C67.7883 263.099 67.7883 263.087 67.7883 263.081L67.8469 263.503C67.8469 263.503 67.8469 263.498 67.8469 263.492L67.7883 263.914C67.7883 263.914 67.7883 263.908 67.7883 263.902L67.63 264.277C67.63 264.277 67.63 264.266 67.6358 264.266L67.3896 264.588C67.3896 264.588 67.4013 264.576 67.4072 264.57L67.0848 264.817C67.2665 264.717 67.4189 264.576 67.5303 264.406C67.671 264.254 67.7648 264.072 67.8117 263.867C67.8762 263.656 67.8879 263.445 67.841 263.234C67.8293 263.023 67.7707 262.829 67.6534 262.648L67.4072 262.325C67.2079 262.132 66.9792 261.991 66.7095 261.921L66.2874 261.862C66.0002 261.862 65.7363 261.932 65.4901 262.079L65.5018 262.073Z" fill="#1B1E24"/>
<path d="M72.1095 258.245C73.6631 259.388 74.7535 260.924 76.2485 262.12C77.2393 262.911 78.4177 263.509 79.684 263.609C81.8063 263.779 84.421 262.096 83.6999 259.71C83.184 257.998 81.6949 256.597 80.1647 255.448C79.2443 254.756 79.0567 253.437 79.7133 252.493C79.8482 252.294 79.9478 252.148 79.9654 252.106C80.3582 251.245 80.2703 250.184 79.5023 249.562C78.3649 248.647 76.8406 249.257 75.715 249.826C73.0123 251.192 70.251 250.441 67.4721 249.797C64.189 249.034 61.7502 248.231 58.3674 248.337C56.6262 248.39 54.0818 248.454 53.0148 249.996C52.0299 251.426 52.282 253.396 53.8356 254.053C56.8842 255.354 60.6304 254.323 63.8373 254.909C66.88 255.466 69.6765 256.451 72.1095 258.239V258.245Z" fill="#00B5B0"/>
<path d="M71.3994 259.458C73.8324 261.299 75.4211 264.142 78.6104 264.858C81.1138 265.421 84.2034 264.295 85.0476 261.68C85.499 260.273 85.0183 258.772 84.2386 257.576C83.3826 256.257 82.2218 255.401 81.0669 254.375C80.8206 254.153 80.6741 253.906 80.7444 253.584C80.8031 253.314 81.0082 253.127 81.1372 252.892C81.3072 252.593 81.4362 252.241 81.5066 251.907C81.8349 250.371 81.1841 248.765 79.7419 248.067C78.2997 247.369 76.752 247.792 75.3684 248.436C73.9848 249.081 72.5953 249.31 71.03 249.105C67.87 248.694 64.8449 247.545 61.685 247.117C60.2193 246.924 58.7536 246.889 57.2821 246.977C55.9806 247.053 54.6439 247.217 53.4714 247.821C51.056 249.058 50.1062 252.587 52.1523 254.604C53.3424 255.771 55.324 256.023 56.9069 256.128C58.654 256.245 60.4069 256.064 62.154 256.146C65.4136 256.292 68.767 257.559 71.3994 259.458C72.0149 259.904 72.9647 259.564 73.3223 258.954C73.7386 258.245 73.4337 257.477 72.8181 257.031C70.6548 255.466 68.1397 254.44 65.5484 253.836C64.1824 253.519 62.8106 253.326 61.4094 253.308C60.0082 253.291 58.736 253.385 57.3994 253.338C56.4613 253.302 54.9781 253.273 54.2042 252.675C53.6883 252.276 53.7411 251.45 54.1221 250.881C54.5794 250.195 55.5174 249.996 56.303 249.879C57.3759 249.72 58.5133 249.715 59.592 249.75C62.324 249.838 64.968 250.658 67.6121 251.28C70.4848 251.948 73.3751 252.447 76.1657 251.168C76.7226 250.916 78.1238 250.043 78.669 250.711C78.8508 250.934 78.7922 251.292 78.6808 251.544C78.7628 251.362 78.628 251.585 78.6163 251.608C78.5401 251.725 78.4521 251.837 78.3876 251.96C78.2176 252.265 78.0828 252.599 78.0066 252.939C77.7134 254.217 78.1531 255.606 79.1615 256.451C80.1054 257.23 81.1255 257.963 81.7997 259.007C82.3332 259.833 82.6615 260.648 82.0752 261.328C81.489 262.008 80.5275 262.296 79.6833 262.208C78.3173 262.067 77.1741 261.147 76.2302 260.226C75.1045 259.13 74.0786 257.987 72.8181 257.037C72.2084 256.58 71.2469 256.943 70.8952 257.541C70.4731 258.262 70.7896 259.007 71.3994 259.464V259.458Z" fill="#1B1E24"/>
<path d="M53.6597 265.831C53.4428 269.607 56.4562 273.282 60.2024 273.816C63.9487 274.349 67.8649 271.659 68.715 267.977" fill="white"/>
<path d="M52.2527 265.831C52.0651 270.398 55.6648 274.666 60.2025 275.223C64.7402 275.78 69.0199 272.626 70.0752 268.352C70.509 266.593 67.7946 265.843 67.3608 267.602C66.6221 270.592 63.5149 272.878 60.4018 272.432C57.2888 271.987 54.9378 268.915 55.0668 265.825C55.143 264.014 52.329 264.02 52.2527 265.825V265.831Z" fill="#1B1E24"/>
<path d="M74.0484 307.382V315.674C74.0484 316.301 73.8001 316.902 73.3558 317.346C72.9114 317.791 72.3103 318.039 71.683 318.039H55.0928C54.4655 318.039 53.8644 317.791 53.42 317.346C52.9757 316.902 52.7274 316.301 52.7274 315.674V299.09C52.7274 298.463 52.9757 297.861 53.42 297.417C53.8644 296.973 54.4655 296.724 55.0928 296.724H71.5066C72.8526 296.724 73.9504 297.809 73.9634 299.155L74.0484 307.388V307.382Z" fill="white"/>
<path d="M72.9046 307.382V315.047C72.9046 316.02 72.6824 316.87 71.5128 316.902C70.6111 316.928 69.7094 316.902 68.8076 316.902H55.6609C54.7788 316.902 53.9228 316.719 53.864 315.622C53.7464 313.322 53.864 310.982 53.864 308.676V299.9C53.864 298.979 53.864 297.947 55.0924 297.862C55.8896 297.803 56.7064 297.862 57.5035 297.862H71.0293C71.6892 297.862 72.3426 297.914 72.6759 298.594C72.8523 298.953 72.8131 299.358 72.8196 299.75L72.8392 301.763L72.885 306.448L72.898 307.389C72.9111 308.859 75.198 308.865 75.185 307.389C75.1588 304.723 75.1588 302.05 75.1 299.384C75.0543 297.248 73.5841 295.64 71.4148 295.581C70.304 295.542 69.1801 295.575 68.0562 295.575H55.4845C53.387 295.575 51.662 296.882 51.5771 299.09C51.4921 301.299 51.5771 303.71 51.5771 306.003V315.138C51.5771 316.87 52.2893 318.51 54.0992 319.045C54.9225 319.294 55.9027 319.189 56.7586 319.189H70.8724C72.3492 319.189 73.7736 318.941 74.6426 317.569C75.4006 316.38 75.198 314.824 75.198 313.478V307.382C75.198 305.912 72.9111 305.905 72.9111 307.382H72.9046Z" fill="#9AA1A8"/>
<path d="M58.5091 308.441C59.1952 309.055 59.9205 309.624 60.6262 310.205C60.9464 310.467 61.26 310.735 61.5736 311.002C62.214 311.558 62.9393 311.597 63.56 310.983C64.4944 310.055 65.3569 309.049 66.2521 308.082C67.1473 307.115 68.0882 306.108 69.003 305.115C70.0027 304.037 68.3888 302.417 67.389 303.501C66.4547 304.508 65.5137 305.52 64.5793 306.527C63.645 307.533 62.8086 308.578 61.8285 309.48L62.3316 309.186L62.2597 309.212H62.8674L62.8021 309.193L63.3052 309.487C62.2271 308.631 61.1489 307.742 60.1231 306.821C59.6657 306.409 58.96 306.37 58.5091 306.821C58.0909 307.239 58.0452 308.023 58.5091 308.435V308.441Z" fill="#9AA1A8"/>
<path d="M142.789 268.022C146.799 266.099 150.926 263.982 153.582 260.412C155.868 257.34 156.835 253.318 156.208 249.543C154.027 236.446 132.992 230.964 126.543 243.68C124.186 248.335 122.779 254.714 125.412 259.275C128.624 264.838 129.932 264.616 135.161 266.955L135.05 270.519L142.789 268.028V268.022Z" fill="white"/>
<path d="M143.497 269.235C147.191 267.465 150.99 265.524 153.751 262.417C156.512 259.31 158.089 254.977 157.761 250.727C157.304 244.929 153.522 240.086 148.445 237.448C143.714 234.986 137.769 234.165 132.739 236.217C130.113 237.284 127.908 239.019 126.29 241.352C124.162 244.419 122.949 248.399 122.644 252.093C122.48 254.074 122.644 256.162 123.318 258.043C123.928 259.749 124.924 261.344 126.015 262.792C126.847 263.889 127.768 264.856 128.928 265.612C129.99 266.304 131.186 266.773 132.346 267.265C133.05 267.564 133.753 267.858 134.457 268.174L133.759 266.961C133.724 268.151 133.683 269.335 133.648 270.525C133.619 271.41 134.574 272.155 135.43 271.879C138.01 271.047 140.589 270.214 143.169 269.388C144.887 268.837 144.154 266.116 142.418 266.673C139.839 267.506 137.259 268.338 134.68 269.165L136.462 270.519C136.497 269.329 136.538 268.145 136.573 266.955C136.585 266.503 136.304 265.929 135.876 265.741C134.539 265.143 133.296 264.668 132.03 264.088C131.549 263.865 131.068 263.631 130.617 263.355C130.072 263.027 129.949 262.927 129.562 262.581C128.571 261.684 127.92 260.699 127.217 259.562C126.314 258.09 125.634 256.595 125.464 254.854C125.129 251.342 126.103 247.731 127.662 244.6C128.764 242.378 130.294 240.672 132.376 239.5C134.258 238.439 136.433 237.94 138.602 237.894C141.023 237.847 143.204 238.275 145.543 239.201C149.7 240.848 153.428 244.301 154.595 248.71C155.586 252.456 154.707 256.631 152.373 259.708C149.811 263.085 145.813 265.026 142.084 266.814C141.398 267.142 141.217 268.121 141.58 268.737C141.99 269.435 142.817 269.569 143.503 269.241L143.497 269.235Z" fill="#1B1E24"/>
<path d="M133.852 244.337C133.852 244.337 133.835 244.348 133.823 244.354C133.712 244.436 133.589 244.524 133.477 244.624C133.471 244.63 133.46 244.636 133.454 244.647C133.354 244.753 133.266 244.87 133.184 244.993C133.184 244.999 133.172 245.011 133.172 245.022C133.231 244.894 133.055 245.28 133.008 245.404C133.008 245.404 133.008 245.404 133.008 245.409C133.008 245.409 133.008 245.421 133.008 245.427C133.061 245.105 132.961 245.714 132.95 245.855C132.95 245.855 132.95 245.855 132.95 245.861C132.95 245.861 132.95 245.867 132.95 245.873C132.991 246.26 132.985 246.353 133.172 246.693C133.237 246.816 133.325 246.928 133.43 247.028C133.694 247.274 133.806 247.321 134.14 247.444C134.14 247.444 134.14 247.444 134.146 247.444C134.151 247.444 134.556 247.502 134.568 247.502C134.568 247.502 134.568 247.502 134.574 247.502C134.714 247.491 135.377 247.385 135.002 247.444C135.002 247.444 135.013 247.444 135.019 247.444C135.154 247.397 135.289 247.344 135.412 247.28C135.412 247.28 135.424 247.28 135.424 247.268C135.535 247.186 135.646 247.11 135.746 247.016C135.746 247.016 135.746 247.016 135.752 247.01C135.975 246.758 136.069 246.623 136.168 246.301C136.256 246.019 136.239 245.732 136.168 245.45C136.104 245.187 135.945 244.935 135.758 244.741C135.658 244.641 135.547 244.548 135.424 244.483C135.242 244.366 135.048 244.307 134.837 244.296C134.626 244.249 134.415 244.26 134.204 244.325C133.999 244.372 133.817 244.466 133.665 244.606C133.495 244.718 133.354 244.864 133.254 245.052L133.096 245.427C133.02 245.708 133.02 245.99 133.096 246.271L133.254 246.646C133.395 246.887 133.583 247.074 133.823 247.215C133.823 247.215 133.829 247.215 133.835 247.215L133.512 246.969L133.266 246.646L133.108 246.271L133.049 245.849L133.108 245.427C133.108 245.427 133.108 245.427 133.108 245.433L133.266 245.058C133.266 245.058 133.266 245.064 133.266 245.069L133.512 244.747C133.512 244.747 133.507 244.753 133.501 244.759L133.823 244.512C133.823 244.512 133.811 244.524 133.8 244.524L134.175 244.366C134.175 244.366 134.157 244.366 134.151 244.372L134.574 244.313C134.574 244.313 134.562 244.313 134.556 244.313L134.978 244.372H134.966L135.342 244.53C135.342 244.53 135.342 244.53 135.336 244.53L135.658 244.776C135.658 244.776 135.658 244.776 135.652 244.77L135.898 245.093C135.898 245.093 135.898 245.087 135.893 245.081L136.051 245.456C136.051 245.456 136.051 245.445 136.051 245.433L136.11 245.855C136.11 245.855 136.11 245.837 136.11 245.832L136.051 246.254C136.051 246.254 136.051 246.236 136.057 246.224L135.898 246.6C135.898 246.6 135.91 246.576 135.922 246.564L135.676 246.887C135.676 246.887 135.711 246.846 135.734 246.834L135.412 247.08C135.412 247.08 135.429 247.069 135.441 247.057C135.623 246.957 135.775 246.822 135.887 246.646C136.027 246.494 136.121 246.312 136.168 246.107C136.233 245.896 136.244 245.685 136.197 245.474C136.186 245.263 136.127 245.069 136.01 244.888L135.764 244.565C135.564 244.372 135.336 244.231 135.066 244.161L134.644 244.102C134.357 244.102 134.093 244.172 133.847 244.319L133.852 244.337Z" fill="#1B1E24"/>
<path d="M143.087 244.829C142.975 244.911 142.858 244.993 142.752 245.087C142.752 245.087 142.752 245.087 142.747 245.093C142.735 245.104 142.506 245.403 142.494 245.415C142.412 245.538 142.365 245.679 142.324 245.819C142.283 245.96 142.26 246.107 142.266 246.247C142.266 246.318 142.295 246.488 142.295 246.464L142.324 246.675C142.365 246.816 142.412 246.957 142.494 247.08C142.577 247.203 142.653 247.32 142.758 247.42C142.758 247.42 142.764 247.426 142.77 247.432C142.811 247.467 143.046 247.649 143.092 247.684C143.092 247.684 143.098 247.684 143.104 247.69C143.169 247.731 143.286 247.772 143.321 247.783C143.356 247.795 143.468 247.86 143.544 247.871C143.69 247.907 143.843 247.924 143.995 247.93C143.995 247.93 144.007 247.93 144.013 247.93C144.013 247.93 144.019 247.93 144.025 247.93L144.447 247.871C144.447 247.871 144.447 247.871 144.453 247.871C144.593 247.842 144.734 247.772 144.857 247.701C144.857 247.701 144.869 247.701 144.869 247.696C144.886 247.684 145.174 247.461 145.191 247.443C145.191 247.443 145.197 247.443 145.203 247.438C145.303 247.332 145.402 247.221 145.467 247.092C145.531 246.963 145.59 246.828 145.637 246.693C145.637 246.681 145.637 246.67 145.643 246.664C145.672 246.517 145.695 246.371 145.701 246.218C145.701 246.206 145.701 246.201 145.701 246.189C145.69 246.042 145.672 245.89 145.643 245.743C145.643 245.732 145.643 245.72 145.631 245.708C145.578 245.556 145.52 245.409 145.443 245.268C145.432 245.245 145.42 245.227 145.402 245.21C145.309 245.081 145.215 244.952 145.109 244.835C145.092 244.817 145.074 244.799 145.056 244.782C144.916 244.629 144.746 244.518 144.546 244.454C144.359 244.354 144.154 244.307 143.937 244.319C143.72 244.313 143.515 244.354 143.327 244.454C143.133 244.518 142.963 244.624 142.817 244.782L142.571 245.104C142.43 245.35 142.354 245.62 142.354 245.902L142.412 246.324C142.489 246.593 142.623 246.822 142.817 247.021C142.846 247.051 142.881 247.086 142.905 247.121L142.659 246.799C142.682 246.834 142.705 246.869 142.723 246.91L142.565 246.535C142.565 246.535 142.582 246.582 142.588 246.611L142.53 246.189C142.53 246.189 142.53 246.224 142.53 246.242L142.588 245.819C142.588 245.819 142.582 245.855 142.577 245.872L142.735 245.497C142.735 245.497 142.729 245.515 142.723 245.521L142.969 245.198C142.969 245.198 142.958 245.21 142.952 245.216L143.274 244.969C143.274 244.969 143.262 244.981 143.251 244.981L143.626 244.823C143.626 244.823 143.608 244.823 143.597 244.829L144.019 244.77C144.019 244.77 143.989 244.77 143.978 244.77L144.4 244.829C144.4 244.829 144.365 244.823 144.347 244.817L144.722 244.975C144.722 244.975 144.693 244.964 144.681 244.952L145.004 245.198C145.004 245.198 144.986 245.186 144.98 245.175L145.226 245.497C145.226 245.497 145.221 245.485 145.215 245.479L145.373 245.855C145.373 245.855 145.373 245.843 145.373 245.837L145.432 246.259C145.432 246.259 145.432 246.253 145.432 246.247L145.373 246.67C145.373 246.67 145.373 246.664 145.373 246.658L145.215 247.033C145.215 247.033 145.215 247.021 145.221 247.021L144.974 247.344C144.974 247.344 144.986 247.332 144.992 247.326L144.669 247.572C144.851 247.473 145.004 247.332 145.115 247.162C145.256 247.01 145.35 246.828 145.396 246.623C145.461 246.412 145.473 246.201 145.426 245.99C145.414 245.778 145.355 245.585 145.238 245.403L144.992 245.081C144.793 244.887 144.564 244.747 144.294 244.676L143.872 244.618C143.585 244.618 143.321 244.688 143.075 244.835L143.087 244.829Z" fill="#1B1E24"/>
<path d="M149.694 241.001C151.248 242.144 152.338 243.68 153.833 244.876C154.824 245.667 156.003 246.265 157.269 246.365C159.391 246.535 162.006 244.852 161.285 242.466C160.769 240.754 159.28 239.353 157.75 238.204C156.829 237.512 156.642 236.193 157.298 235.249C157.433 235.05 157.533 234.903 157.55 234.862C157.943 234.001 157.855 232.939 157.087 232.318C155.95 231.403 154.426 232.013 153.3 232.582C150.597 233.948 147.836 233.197 145.057 232.553C141.774 231.79 139.335 230.987 135.952 231.093C134.211 231.146 131.667 231.21 130.6 232.752C129.615 234.182 129.867 236.152 131.421 236.809C134.469 238.11 138.215 237.079 141.422 237.665C144.465 238.222 147.261 239.207 149.694 240.995V241.001Z" fill="#D00037"/>
<path d="M148.984 242.214C151.417 244.055 153.006 246.899 156.195 247.614C158.699 248.177 161.788 247.051 162.633 244.436C163.084 243.029 162.603 241.528 161.824 240.332C160.968 239.013 159.807 238.157 158.652 237.131C158.406 236.909 158.259 236.662 158.329 236.34C158.388 236.07 158.593 235.883 158.722 235.648C158.892 235.349 159.021 234.997 159.092 234.663C159.42 233.127 158.769 231.521 157.327 230.823C155.885 230.126 154.337 230.548 152.953 231.193C151.57 231.837 150.18 232.066 148.615 231.861C145.455 231.451 142.43 230.301 139.27 229.873C137.804 229.68 136.339 229.645 134.867 229.733C133.566 229.809 132.229 229.973 131.056 230.577C128.641 231.814 127.691 235.343 129.737 237.36C130.927 238.527 132.909 238.779 134.492 238.884C136.239 239.002 137.992 238.82 139.739 238.902C142.999 239.049 146.352 240.315 148.984 242.214C149.6 242.66 150.55 242.32 150.907 241.71C151.324 241.001 151.019 240.233 150.403 239.787C148.24 238.222 145.725 237.196 143.133 236.592C141.767 236.275 140.396 236.082 138.994 236.064C137.593 236.047 136.321 236.141 134.984 236.094C134.046 236.059 132.563 236.029 131.789 235.431C131.273 235.033 131.326 234.206 131.707 233.637C132.164 232.951 133.102 232.752 133.888 232.635C134.961 232.476 136.098 232.471 137.177 232.506C139.909 232.594 142.553 233.414 145.197 234.036C148.07 234.704 150.96 235.203 153.751 233.925C154.308 233.672 155.709 232.799 156.254 233.467C156.436 233.69 156.377 234.048 156.266 234.3C156.348 234.118 156.213 234.341 156.201 234.364C156.125 234.481 156.037 234.593 155.973 234.716C155.803 235.021 155.668 235.355 155.592 235.695C155.298 236.973 155.738 238.363 156.746 239.207C157.69 239.987 158.71 240.719 159.385 241.763C159.918 242.59 160.246 243.404 159.66 244.085C159.074 244.765 158.112 245.052 157.268 244.964C155.902 244.823 154.759 243.903 153.815 242.982C152.69 241.886 151.664 240.743 150.403 239.793C149.793 239.336 148.832 239.699 148.48 240.297C148.058 241.018 148.375 241.763 148.984 242.22V242.214Z" fill="#1B1E24"/>
<path d="M131.246 248.587C131.029 252.362 134.042 256.038 137.788 256.572C141.535 257.105 145.451 254.414 146.301 250.733" fill="white"/>
<path d="M129.839 248.587C129.651 253.154 133.251 257.422 137.789 257.979C142.326 258.536 146.606 255.382 147.661 251.108C148.095 249.349 145.381 248.599 144.947 250.357C144.208 253.347 141.101 255.634 137.988 255.188C134.875 254.743 132.524 251.671 132.653 248.581C132.729 246.77 129.915 246.775 129.839 248.581V248.587Z" fill="#1B1E24"/>
<path d="M152.947 291.241V299.533C152.947 300.16 152.698 300.761 152.254 301.206C151.81 301.65 151.208 301.898 150.581 301.898H133.991C133.364 301.898 132.763 301.65 132.318 301.206C131.874 300.761 131.626 300.16 131.626 299.533V282.949C131.626 282.322 131.874 281.721 132.318 281.277C132.763 280.832 133.364 280.584 133.991 280.584H150.405C151.751 280.584 152.849 281.669 152.862 283.015L152.947 291.248V291.241Z" fill="white"/>
<path d="M151.803 291.24V298.905C151.803 299.878 151.581 300.728 150.411 300.76C149.509 300.787 148.608 300.76 147.706 300.76H134.559C133.677 300.76 132.821 300.577 132.762 299.48C132.645 297.18 132.762 294.84 132.762 292.534V283.759C132.762 282.837 132.762 281.805 133.991 281.72C134.788 281.661 135.605 281.72 136.402 281.72H149.927C150.587 281.72 151.241 281.772 151.574 282.452C151.75 282.811 151.711 283.216 151.718 283.608L151.737 285.621L151.783 290.306L151.796 291.247C151.809 292.717 154.096 292.723 154.083 291.247C154.057 288.581 154.057 285.908 153.998 283.242C153.952 281.106 152.482 279.498 150.313 279.439C149.196 279.407 148.072 279.439 146.948 279.439H134.383C132.285 279.439 130.56 280.746 130.475 282.955C130.39 285.163 130.475 287.574 130.475 289.874V299.009C130.475 300.741 131.187 302.381 132.997 302.917C133.821 303.165 134.801 303.06 135.657 303.06H149.771C151.247 303.06 152.672 302.812 153.541 301.44C154.299 300.251 154.096 298.696 154.096 297.35V291.253C154.096 289.783 151.809 289.776 151.809 291.253L151.803 291.24Z" fill="#1B1E24"/>
<path d="M151.633 289.927V298.218C151.633 298.846 151.385 299.447 150.941 299.891C150.496 300.336 149.895 300.584 149.268 300.584H132.678C132.05 300.584 131.449 300.336 131.005 299.891C130.561 299.447 130.312 298.846 130.312 298.218V281.635C130.312 281.007 130.561 280.406 131.005 279.962C131.449 279.518 132.05 279.269 132.678 279.269H149.091C150.437 279.269 151.535 280.354 151.548 281.7L151.633 289.933V289.927Z" fill="#D5D1FF"/>
<path d="M150.489 289.927V297.591C150.489 298.565 150.267 299.414 149.097 299.447C148.196 299.473 147.294 299.447 146.392 299.447H133.246C132.364 299.447 131.508 299.264 131.449 298.166C131.331 295.866 131.449 293.527 131.449 291.221V282.445C131.449 281.524 131.449 280.491 132.677 280.407C133.474 280.348 134.291 280.407 135.088 280.407H148.614C149.274 280.407 149.927 280.459 150.261 281.138C150.437 281.498 150.398 281.903 150.404 282.295L150.424 284.307L150.47 288.992L150.483 289.933C150.496 291.404 152.783 291.41 152.77 289.933C152.744 287.267 152.744 284.595 152.685 281.929C152.639 279.792 151.169 278.185 148.999 278.126C147.889 278.087 146.765 278.12 145.641 278.12H133.069C130.972 278.12 129.247 279.426 129.162 281.635C129.077 283.843 129.162 286.255 129.162 288.548V297.683C129.162 299.414 129.874 301.054 131.684 301.59C132.507 301.839 133.487 301.734 134.343 301.734H148.457C149.934 301.734 151.358 301.486 152.227 300.114C152.985 298.924 152.783 297.369 152.783 296.023V289.927C152.783 288.457 150.496 288.45 150.496 289.927H150.489Z" fill="#1B1E24"/>
<path d="M136.095 290.986C136.781 291.6 137.506 292.169 138.212 292.75C138.532 293.011 138.846 293.279 139.159 293.547C139.8 294.103 140.525 294.142 141.146 293.528C142.08 292.6 142.943 291.594 143.838 290.627C144.733 289.659 145.674 288.653 146.589 287.66C147.589 286.582 145.975 284.961 144.975 286.046C144.04 287.052 143.1 288.065 142.165 289.071C141.231 290.078 140.394 291.123 139.414 292.025L139.917 291.731L139.846 291.757H140.453L140.388 291.737L140.891 292.031C139.813 291.175 138.735 290.287 137.709 289.365C137.251 288.954 136.546 288.915 136.095 289.365C135.677 289.784 135.631 290.568 136.095 290.979V290.986Z" fill="#5A4BF5"/>
<path d="M217.981 285.266C221.991 283.343 226.118 281.226 228.774 277.656C231.06 274.584 232.028 270.562 231.4 266.787C229.219 253.69 208.184 248.208 201.735 260.924C199.379 265.579 197.972 271.958 200.604 276.519C203.817 282.082 205.124 281.86 210.353 284.199L210.242 287.763L217.981 285.272V285.266Z" fill="white"/>
<path d="M218.689 286.479C222.383 284.709 226.182 282.768 228.943 279.661C231.704 276.554 233.281 272.221 232.953 267.971C232.496 262.173 228.714 257.33 223.637 254.692C218.906 252.23 212.961 251.409 207.931 253.461C205.305 254.528 203.1 256.263 201.482 258.596C199.354 261.663 198.141 265.643 197.836 269.337C197.672 271.318 197.836 273.405 198.51 275.287C199.12 276.993 200.116 278.588 201.207 280.036C202.039 281.132 202.96 282.1 204.12 282.856C205.182 283.548 206.378 284.017 207.538 284.509C208.242 284.808 208.945 285.101 209.649 285.418L208.951 284.204C208.916 285.395 208.875 286.579 208.84 287.769C208.811 288.654 209.766 289.399 210.622 289.123C213.202 288.291 215.781 287.458 218.361 286.632C220.079 286.08 219.346 283.36 217.61 283.917C215.031 284.75 212.451 285.582 209.872 286.409L211.654 287.763C211.689 286.573 211.73 285.389 211.765 284.199C211.777 283.747 211.496 283.173 211.068 282.985C209.731 282.387 208.488 281.912 207.222 281.332C206.741 281.109 206.26 280.874 205.809 280.599C205.264 280.271 205.141 280.171 204.754 279.825C203.763 278.928 203.112 277.943 202.409 276.806C201.506 275.334 200.826 273.839 200.656 272.098C200.321 268.586 201.295 264.975 202.854 261.844C203.956 259.622 205.486 257.916 207.568 256.744C209.45 255.683 211.625 255.184 213.794 255.137C216.215 255.091 218.396 255.518 220.735 256.445C224.892 258.092 228.62 261.545 229.787 265.954C230.778 269.7 229.899 273.874 227.565 276.952C225.003 280.329 221.005 282.27 217.276 284.058C216.59 284.386 216.409 285.365 216.772 285.981C217.182 286.678 218.009 286.813 218.695 286.485L218.689 286.479Z" fill="#1B1E24"/>
<path d="M209.045 261.58C209.045 261.58 209.027 261.592 209.016 261.598C208.904 261.68 208.781 261.768 208.67 261.868C208.664 261.874 208.652 261.879 208.646 261.891C208.546 261.997 208.459 262.114 208.376 262.237C208.376 262.243 208.365 262.255 208.365 262.266C208.423 262.137 208.247 262.524 208.201 262.647C208.201 262.647 208.201 262.647 208.201 262.653C208.201 262.653 208.201 262.665 208.201 262.671C208.253 262.348 208.154 262.958 208.142 263.099C208.142 263.099 208.142 263.099 208.142 263.105C208.142 263.105 208.142 263.111 208.142 263.116C208.183 263.503 208.177 263.597 208.365 263.937C208.429 264.06 208.517 264.172 208.623 264.271C208.887 264.518 208.998 264.565 209.332 264.688C209.332 264.688 209.332 264.688 209.338 264.688C209.344 264.688 209.748 264.746 209.76 264.746C209.76 264.746 209.76 264.746 209.766 264.746C209.907 264.735 210.569 264.629 210.194 264.688C210.194 264.688 210.206 264.688 210.211 264.688C210.346 264.641 210.481 264.588 210.604 264.524C210.604 264.524 210.616 264.524 210.616 264.512C210.727 264.43 210.839 264.353 210.938 264.26C210.938 264.26 210.938 264.26 210.944 264.254C211.167 264.002 211.261 263.867 211.361 263.544C211.449 263.263 211.431 262.976 211.361 262.694C211.296 262.431 211.138 262.178 210.95 261.985C210.851 261.885 210.739 261.792 210.616 261.727C210.434 261.61 210.241 261.551 210.03 261.539C209.819 261.493 209.608 261.504 209.397 261.569C209.191 261.616 209.01 261.709 208.857 261.85C208.687 261.962 208.546 262.108 208.447 262.296L208.289 262.671C208.212 262.952 208.212 263.234 208.289 263.515L208.447 263.89C208.588 264.131 208.775 264.318 209.016 264.459C209.016 264.459 209.021 264.459 209.027 264.459L208.705 264.213L208.459 263.89L208.3 263.515L208.242 263.093L208.3 262.671C208.3 262.671 208.3 262.671 208.3 262.677L208.459 262.302C208.459 262.302 208.459 262.307 208.459 262.313L208.705 261.991C208.705 261.991 208.699 261.997 208.693 262.003L209.016 261.756C209.016 261.756 209.004 261.768 208.992 261.768L209.367 261.61C209.367 261.61 209.35 261.61 209.344 261.616L209.766 261.557C209.766 261.557 209.754 261.557 209.748 261.557L210.17 261.616H210.159L210.534 261.774C210.534 261.774 210.534 261.774 210.528 261.774L210.851 262.02C210.851 262.02 210.851 262.02 210.845 262.014L211.091 262.337C211.091 262.337 211.091 262.331 211.085 262.325L211.243 262.7C211.243 262.7 211.243 262.688 211.243 262.677L211.302 263.099C211.302 263.099 211.302 263.081 211.302 263.075L211.243 263.498C211.243 263.498 211.243 263.48 211.249 263.468L211.091 263.843C211.091 263.843 211.103 263.82 211.114 263.808L210.868 264.131C210.868 264.131 210.903 264.09 210.927 264.078L210.604 264.324C210.604 264.324 210.622 264.312 210.634 264.301C210.815 264.201 210.968 264.066 211.079 263.89C211.22 263.738 211.314 263.556 211.361 263.351C211.425 263.14 211.437 262.929 211.39 262.718C211.378 262.507 211.32 262.313 211.202 262.132L210.956 261.809C210.757 261.616 210.528 261.475 210.258 261.405L209.836 261.346C209.549 261.346 209.285 261.416 209.039 261.563L209.045 261.58Z" fill="#1B1E24"/>
<path d="M218.28 262.073C218.169 262.155 218.052 262.237 217.946 262.331C217.946 262.331 217.946 262.331 217.94 262.337C217.928 262.348 217.7 262.647 217.688 262.659C217.606 262.782 217.559 262.923 217.518 263.064C217.477 263.204 217.454 263.351 217.459 263.492C217.459 263.562 217.489 263.732 217.489 263.709L217.518 263.92C217.559 264.06 217.606 264.201 217.688 264.324C217.77 264.447 217.846 264.564 217.952 264.664C217.952 264.664 217.958 264.67 217.964 264.676C218.005 264.711 218.239 264.893 218.286 264.928C218.286 264.928 218.292 264.928 218.298 264.934C218.362 264.975 218.479 265.016 218.515 265.028C218.55 265.039 218.661 265.104 218.737 265.116C218.884 265.151 219.036 265.168 219.189 265.174C219.189 265.174 219.201 265.174 219.206 265.174C219.206 265.174 219.212 265.174 219.218 265.174L219.64 265.116C219.64 265.116 219.64 265.116 219.646 265.116C219.787 265.086 219.928 265.016 220.051 264.946C220.051 264.946 220.062 264.946 220.062 264.94C220.08 264.928 220.367 264.705 220.385 264.688C220.385 264.688 220.391 264.688 220.397 264.682C220.496 264.576 220.596 264.465 220.66 264.336C220.725 264.207 220.784 264.072 220.83 263.937C220.83 263.925 220.83 263.914 220.836 263.908C220.866 263.761 220.889 263.615 220.895 263.462C220.895 263.451 220.895 263.445 220.895 263.433C220.883 263.286 220.866 263.134 220.836 262.987C220.836 262.976 220.836 262.964 220.825 262.952C220.772 262.8 220.713 262.653 220.637 262.513C220.625 262.489 220.613 262.472 220.596 262.454C220.502 262.325 220.408 262.196 220.303 262.079C220.285 262.061 220.268 262.044 220.25 262.026C220.109 261.874 219.939 261.762 219.74 261.698C219.552 261.598 219.347 261.551 219.13 261.563C218.913 261.557 218.708 261.598 218.521 261.698C218.327 261.762 218.157 261.868 218.01 262.026L217.764 262.348C217.624 262.595 217.547 262.864 217.547 263.146L217.606 263.568C217.682 263.838 217.817 264.066 218.01 264.265C218.04 264.295 218.075 264.33 218.098 264.365L217.852 264.043C217.876 264.078 217.899 264.113 217.917 264.154L217.758 263.779C217.758 263.779 217.776 263.826 217.782 263.855L217.723 263.433C217.723 263.433 217.723 263.468 217.723 263.486L217.782 263.064C217.782 263.064 217.776 263.099 217.77 263.116L217.928 262.741C217.928 262.741 217.923 262.759 217.917 262.765L218.163 262.442C218.163 262.442 218.151 262.454 218.145 262.46L218.468 262.214C218.468 262.214 218.456 262.225 218.444 262.225L218.82 262.067C218.82 262.067 218.802 262.067 218.79 262.073L219.212 262.014C219.212 262.014 219.183 262.014 219.171 262.014L219.593 262.073C219.593 262.073 219.558 262.067 219.541 262.061L219.916 262.219C219.916 262.219 219.887 262.208 219.875 262.196L220.197 262.442C220.197 262.442 220.18 262.43 220.174 262.419L220.42 262.741C220.42 262.741 220.414 262.729 220.408 262.724L220.567 263.099C220.567 263.099 220.567 263.087 220.567 263.081L220.625 263.503C220.625 263.503 220.625 263.497 220.625 263.492L220.567 263.914C220.567 263.914 220.567 263.908 220.567 263.902L220.408 264.277C220.408 264.277 220.408 264.265 220.414 264.265L220.168 264.588C220.168 264.588 220.18 264.576 220.186 264.57L219.863 264.817C220.045 264.717 220.197 264.576 220.309 264.406C220.449 264.254 220.543 264.072 220.59 263.867C220.655 263.656 220.666 263.445 220.619 263.234C220.608 263.023 220.549 262.829 220.432 262.647L220.186 262.325C219.986 262.131 219.758 261.991 219.488 261.92L219.066 261.862C218.778 261.862 218.515 261.932 218.268 262.079L218.28 262.073Z" fill="#1B1E24"/>
<path d="M224.888 258.245C226.441 259.388 227.532 260.924 229.027 262.12C230.017 262.911 231.196 263.509 232.462 263.609C234.584 263.779 237.199 262.096 236.478 259.71C235.962 257.998 234.473 256.597 232.943 255.448C232.023 254.756 231.835 253.437 232.492 252.493C232.626 252.294 232.726 252.148 232.744 252.106C233.136 251.245 233.048 250.184 232.28 249.562C231.143 248.647 229.619 249.257 228.493 249.826C225.791 251.192 223.029 250.441 220.25 249.797C216.967 249.034 214.528 248.231 211.146 248.337C209.404 248.39 206.86 248.454 205.793 249.996C204.808 251.426 205.06 253.396 206.614 254.053C209.662 255.354 213.409 254.323 216.615 254.909C219.658 255.466 222.455 256.451 224.888 258.239V258.245Z" fill="#8247E5"/>
<path d="M224.178 259.458C226.611 261.299 228.199 264.142 231.389 264.858C233.892 265.421 236.982 264.295 237.826 261.68C238.277 260.273 237.796 258.772 237.017 257.576C236.161 256.257 235 255.401 233.845 254.375C233.599 254.153 233.452 253.906 233.523 253.584C233.581 253.314 233.786 253.127 233.915 252.892C234.085 252.593 234.214 252.241 234.285 251.907C234.613 250.371 233.962 248.765 232.52 248.067C231.078 247.369 229.53 247.792 228.147 248.436C226.763 249.081 225.374 249.31 223.808 249.105C220.648 248.694 217.623 247.545 214.463 247.117C212.997 246.924 211.532 246.889 210.06 246.977C208.759 247.053 207.422 247.217 206.25 247.821C203.834 249.058 202.884 252.587 204.93 254.604C206.121 255.771 208.102 256.023 209.685 256.128C211.432 256.245 213.185 256.064 214.932 256.146C218.192 256.292 221.545 257.559 224.178 259.458C224.793 259.904 225.743 259.564 226.101 258.954C226.517 258.245 226.212 257.477 225.596 257.031C223.433 255.466 220.918 254.44 218.327 253.836C216.961 253.519 215.589 253.326 214.188 253.308C212.786 253.291 211.514 253.385 210.178 253.338C209.24 253.302 207.756 253.273 206.982 252.675C206.467 252.276 206.519 251.45 206.9 250.881C207.358 250.195 208.296 249.996 209.081 249.879C210.154 249.72 211.291 249.715 212.37 249.75C215.102 249.838 217.746 250.658 220.39 251.28C223.263 251.948 226.153 252.447 228.944 251.168C229.501 250.916 230.902 250.043 231.447 250.711C231.629 250.934 231.57 251.292 231.459 251.544C231.541 251.362 231.406 251.585 231.394 251.608C231.318 251.725 231.23 251.837 231.166 251.96C230.996 252.265 230.861 252.599 230.785 252.939C230.492 254.217 230.931 255.606 231.94 256.451C232.884 257.23 233.904 257.963 234.578 259.007C235.111 259.833 235.44 260.648 234.853 261.328C234.267 262.008 233.306 262.296 232.461 262.208C231.095 262.067 229.952 261.147 229.008 260.226C227.883 259.13 226.857 257.987 225.596 257.037C224.987 256.58 224.025 256.943 223.673 257.541C223.251 258.262 223.568 259.007 224.178 259.464V259.458Z" fill="#1B1E24"/>
<path d="M206.437 265.831C206.22 269.606 209.233 273.282 212.98 273.816C216.726 274.349 220.642 271.658 221.492 267.977" fill="white"/>
<path d="M205.03 265.831C204.842 270.398 208.442 274.666 212.98 275.223C217.517 275.78 221.797 272.626 222.852 268.352C223.286 266.593 220.572 265.843 220.138 267.601C219.399 270.591 216.292 272.878 213.179 272.432C210.066 271.987 207.715 268.915 207.844 265.825C207.92 264.013 205.106 264.019 205.03 265.825V265.831Z" fill="#1B1E24"/>
<path d="M226.825 307.382V315.674C226.825 316.301 226.577 316.902 226.132 317.346C225.688 317.791 225.087 318.039 224.46 318.039H207.87C207.242 318.039 206.641 317.791 206.197 317.346C205.752 316.902 205.504 316.301 205.504 315.674V299.09C205.504 298.463 205.752 297.861 206.197 297.417C206.641 296.973 207.242 296.724 207.87 296.724H224.283C225.629 296.724 226.727 297.809 226.74 299.155L226.825 307.388V307.382Z" fill="white"/>
<path d="M225.681 307.382V315.047C225.681 316.02 225.459 316.87 224.29 316.902C223.388 316.928 222.486 316.902 221.584 316.902H208.438C207.556 316.902 206.7 316.719 206.641 315.622C206.523 313.322 206.641 310.982 206.641 308.676V299.9C206.641 298.979 206.641 297.947 207.869 297.862C208.666 297.803 209.483 297.862 210.28 297.862H223.806C224.466 297.862 225.119 297.914 225.453 298.594C225.629 298.953 225.59 299.358 225.596 299.75L225.616 301.763L225.662 306.448L225.675 307.389C225.688 308.859 227.975 308.865 227.962 307.389C227.936 304.723 227.936 302.05 227.877 299.384C227.831 297.248 226.361 295.64 224.191 295.581C223.081 295.542 221.957 295.575 220.833 295.575H208.261C206.164 295.575 204.439 296.882 204.354 299.09C204.269 301.299 204.354 303.71 204.354 306.003V315.138C204.354 316.87 205.066 318.51 206.876 319.045C207.699 319.294 208.679 319.189 209.535 319.189H223.649C225.126 319.189 226.55 318.941 227.419 317.569C228.177 316.38 227.975 314.824 227.975 313.478V307.382C227.975 305.912 225.688 305.905 225.688 307.382H225.681Z" fill="#9AA1A8"/>
<path d="M211.286 308.441C211.972 309.055 212.697 309.624 213.403 310.205C213.723 310.467 214.037 310.734 214.35 311.002C214.991 311.558 215.716 311.597 216.337 310.983C217.271 310.055 218.134 309.049 219.029 308.082C219.924 307.115 220.865 306.108 221.78 305.115C222.779 304.037 221.165 302.416 220.166 303.501C219.231 304.507 218.29 305.52 217.356 306.526C216.422 307.533 215.585 308.578 214.605 309.48L215.108 309.186L215.036 309.212H215.644L215.579 309.192L216.082 309.486C215.004 308.63 213.926 307.742 212.9 306.82C212.442 306.409 211.737 306.37 211.286 306.82C210.868 307.239 210.822 308.023 211.286 308.434V308.441Z" fill="#9AA1A8"/>
</svg>
