<svg width="1028" height="559" viewBox="0 0 1028 559" fill="none" xmlns="http://www.w3.org/2000/svg">
<path d="M1027.95 337.345H0V559H1027.95V337.345Z" fill="#75ECFC"/>
<path d="M1027.95 0.310913H0V337.345H1027.95V0.310913Z" fill="#1A1B1A"/>
<path d="M515.631 225.939C524.324 222.7 1027.95 19.5428 1027.95 19.5428V337.14H516.869L515.625 225.939H515.631Z" fill="#5F44FF"/>
<path d="M618.678 337.146V175.033" stroke="#1A1B1A" stroke-width="2" stroke-miterlimit="10"/>
<path d="M755.243 337.146V118.177" stroke="#1A1B1A" stroke-width="2" stroke-miterlimit="10"/>
<path d="M891.81 337.146V72.4756" stroke="#1A1B1A" stroke-width="2" stroke-miterlimit="10"/>
<path d="M1023.5 62.5L890.565 230.652L756.482 195.913L618.678 285.656" stroke="#1A1B1A" stroke-width="4" stroke-miterlimit="10"/>
<path d="M756.482 206.253C761.282 206.253 765.174 202.364 765.174 197.567C765.174 192.77 761.282 188.881 756.482 188.881C751.681 188.881 747.789 192.77 747.789 197.567C747.789 202.364 751.681 206.253 756.482 206.253Z" fill="white"/>
<path d="M890.565 240.993C895.365 240.993 899.257 237.104 899.257 232.306C899.257 227.509 895.365 223.62 890.565 223.62C885.764 223.62 881.872 227.509 881.872 232.306C881.872 237.104 885.764 240.993 890.565 240.993Z" fill="white"/>
<path d="M1019 58.6222C1019 63.4195 1022.89 67.3086 1027.69 67.3086V49.9358C1022.89 49.9358 1019 53.8248 1019 58.6222Z" fill="white"/>
<path d="M188.5 469C247.318 469 295 457.583 295 443.5C295 429.417 247.318 418 188.5 418C129.682 418 82 429.417 82 443.5C82 457.583 129.682 469 188.5 469Z" fill="#1A1B1A"/>
<path d="M267.333 427.081L267.258 446.518C267.258 446.518 254.77 463.885 170.384 463.885C85.9978 463.885 71.1826 444.865 71.1826 444.865V425.838C71.1826 437.26 111.497 427.492 165.873 427.492C215.906 427.492 225.32 411.574 267.333 427.075V427.081Z" fill="#FCB731"/>
<path d="M184.57 446.164V463.612C180.084 463.723 175.362 463.786 170.384 463.786C85.9976 463.786 71.1763 444.765 71.1763 444.765V428.425C77.355 438.46 117.65 446.233 166.725 446.407C167.291 446.413 167.857 446.413 168.43 446.413C169.114 446.413 169.799 446.413 170.483 446.407C175.268 446.4 179.972 446.313 184.57 446.164Z" fill="#FFFCB3"/>
<path d="M267.333 425.844C267.333 426.758 267.053 427.653 266.505 428.53C260.252 438.684 219.098 446.518 169.258 446.518C115.087 446.518 71.1826 437.266 71.1826 425.844C71.1826 414.422 115.093 405.17 169.258 405.17C223.422 405.17 267.333 414.428 267.333 425.844Z" fill="#FFEB35"/>
<path d="M252.306 426.671C252.306 427.324 252.069 427.971 251.602 428.605C251.372 428.928 251.08 429.245 250.731 429.562C243.234 422.723 209.77 417.568 169.631 417.568C129.491 417.568 96.0091 422.729 88.5299 429.569C87.5033 428.63 86.9619 427.66 86.9619 426.671C86.9619 418.451 123.972 411.779 169.631 411.779C215.289 411.779 252.306 418.451 252.306 426.671Z" fill="#FCB731"/>
<path d="M105 441.855V458.905" stroke="#1A1B1A" stroke-miterlimit="10"/>
<path d="M142.203 445.99V463.039" stroke="#1A1B1A" stroke-miterlimit="10"/>
<path d="M184.838 446.817V463.873" stroke="#1A1B1A" stroke-miterlimit="10"/>
<path d="M226.527 443.179V460.235" stroke="#1A1B1A" stroke-miterlimit="10"/>
<path d="M256.593 435.737V452.792" stroke="#1A1B1A" stroke-miterlimit="10"/>
<path d="M82.2271 435.737V451.661" stroke="#1A1B1A" stroke-miterlimit="10"/>
<path d="M267.333 405.163L267.258 424.601C267.258 424.601 254.77 441.967 170.384 441.967C85.9978 441.967 71.1826 422.947 71.1826 422.947V403.92C71.1826 415.342 111.497 405.574 165.873 405.574C215.906 405.574 225.32 389.656 267.333 405.157V405.163Z" fill="#FCB731"/>
<path d="M184.57 424.246V441.693C180.084 441.805 175.362 441.868 170.384 441.868C85.9976 441.868 71.1763 422.847 71.1763 422.847V406.506C77.355 416.542 117.65 424.314 166.725 424.489C167.291 424.495 167.857 424.495 168.43 424.495C169.114 424.495 169.799 424.495 170.483 424.489C175.268 424.482 179.972 424.395 184.57 424.246Z" fill="#FFFCB3"/>
<path d="M267.333 403.926C267.333 404.84 267.053 405.735 266.505 406.612C260.252 416.766 219.098 424.6 169.258 424.6C115.087 424.6 71.1826 415.348 71.1826 403.926C71.1826 392.504 115.093 383.252 169.258 383.252C223.422 383.252 267.333 392.51 267.333 403.926Z" fill="#FFEB35"/>
<path d="M252.306 404.753C252.306 405.406 252.069 406.053 251.602 406.687C251.372 407.01 251.08 407.327 250.731 407.644C243.234 400.805 209.77 395.65 169.631 395.65C129.491 395.65 96.0091 400.811 88.5299 407.651C87.5033 406.712 86.9619 405.742 86.9619 404.753C86.9619 396.533 123.972 389.861 169.631 389.861C215.289 389.861 252.306 396.533 252.306 404.753Z" fill="#FCB731"/>
<path d="M105 419.937V436.986" stroke="#1A1B1A" stroke-miterlimit="10"/>
<path d="M142.203 424.072V441.121" stroke="#1A1B1A" stroke-miterlimit="10"/>
<path d="M184.838 424.899V441.955" stroke="#1A1B1A" stroke-miterlimit="10"/>
<path d="M226.527 421.261V438.317" stroke="#1A1B1A" stroke-miterlimit="10"/>
<path d="M256.593 413.819V430.874" stroke="#1A1B1A" stroke-miterlimit="10"/>
<path d="M82.2271 413.819V429.743" stroke="#1A1B1A" stroke-miterlimit="10"/>
<path d="M267.333 382.008L267.258 401.445C267.258 401.445 254.77 418.812 170.384 418.812C85.9978 418.812 71.1826 399.791 71.1826 399.791V380.764C71.1826 392.187 111.497 382.418 165.873 382.418C215.906 382.418 225.32 366.501 267.333 382.002V382.008Z" fill="#FCB731"/>
<path d="M184.57 401.091V418.538C180.084 418.65 175.362 418.712 170.384 418.712C85.9976 418.712 71.1763 399.692 71.1763 399.692V383.351C77.355 393.387 117.65 401.159 166.725 401.333C167.291 401.339 167.857 401.339 168.43 401.339C169.114 401.339 169.799 401.339 170.483 401.333C175.268 401.327 179.972 401.24 184.57 401.091Z" fill="#FFFCB3"/>
<path d="M267.333 380.764C267.333 381.678 267.053 382.574 266.505 383.451C260.252 393.604 219.098 401.439 169.258 401.439C115.087 401.439 71.1826 392.187 71.1826 380.764C71.1826 369.342 115.093 360.09 169.258 360.09C223.422 360.09 267.333 369.348 267.333 380.764Z" fill="#FFEB35"/>
<path d="M252.306 381.598C252.306 382.251 252.069 382.897 251.602 383.531C251.372 383.855 251.08 384.172 250.731 384.489C243.234 377.649 209.77 372.495 169.631 372.495C129.491 372.495 96.0091 377.655 88.5299 384.495C87.5033 383.556 86.9619 382.586 86.9619 381.598C86.9619 373.378 123.972 366.706 169.631 366.706C215.289 366.706 252.306 373.378 252.306 381.598Z" fill="#FCB731"/>
<path d="M105 396.775V413.831" stroke="#1A1B1A" stroke-miterlimit="10"/>
<path d="M142.203 400.91V417.966" stroke="#1A1B1A" stroke-miterlimit="10"/>
<path d="M184.838 401.744V418.793" stroke="#1A1B1A" stroke-miterlimit="10"/>
<path d="M226.527 398.106V415.156" stroke="#1A1B1A" stroke-miterlimit="10"/>
<path d="M256.593 390.663V407.713" stroke="#1A1B1A" stroke-miterlimit="10"/>
<path d="M82.2271 390.663V406.581" stroke="#1A1B1A" stroke-miterlimit="10"/>
<path d="M537.5 519C647.681 519 737 502.882 737 483C737 463.118 647.681 447 537.5 447C427.319 447 338 463.118 338 483C338 502.882 427.319 519 537.5 519Z" fill="#1A1B1A"/>
<path d="M647.549 451.586L692.542 454.819V483.72C692.542 484.609 692.175 485.486 691.447 486.182C668.119 508.56 551.633 511.8 551.633 511.8C400.831 518.528 342.285 494.16 330.42 488.228C328.945 487.488 328.055 486.226 328.055 484.87V454.826L365.158 451.592H647.549V451.586Z" fill="#878787"/>
<path d="M509.994 485.038C610.472 485.038 691.926 471.509 691.926 454.819C691.926 438.13 610.472 424.6 509.994 424.6C409.515 424.6 328.062 438.13 328.062 454.819C328.062 471.509 409.515 485.038 509.994 485.038Z" fill="#EBEBEB"/>
<path d="M872.771 519C937.941 519 990.771 508.255 990.771 495C990.771 481.745 937.941 471 872.771 471C807.601 471 754.771 481.745 754.771 495C754.771 508.255 807.601 519 872.771 519Z" fill="#1A1B1A"/>
<path d="M964.03 479.604L963.943 499.041C963.943 499.041 950.192 516.407 857.256 516.407C764.321 516.407 748.006 497.387 748.006 497.387V478.36H748.013C748.013 489.783 792.408 480.014 852.291 480.014C907.389 480.014 917.762 464.096 964.024 479.598L964.03 479.604Z" fill="#FCB731"/>
<path d="M872.88 498.687V516.134C867.94 516.246 862.738 516.308 857.256 516.308C764.327 516.308 748 497.288 748 497.288V480.947C754.807 490.983 799.178 498.755 853.224 498.929C853.847 498.935 854.469 498.935 855.103 498.935C855.856 498.935 856.609 498.935 857.362 498.929C862.632 498.923 867.809 498.836 872.874 498.687H872.88Z" fill="#FFFCB3"/>
<path d="M964.03 478.36C964.03 479.274 963.719 480.17 963.122 481.046C956.234 491.2 910.911 499.035 856.025 499.035C796.372 499.035 748.019 489.782 748.019 478.36C748.019 466.938 796.372 457.686 856.025 457.686C915.677 457.686 964.03 466.944 964.03 478.36Z" fill="#FFEB35"/>
<path d="M947.479 479.193C947.479 479.846 947.218 480.493 946.707 481.127C946.452 481.451 946.129 481.768 945.749 482.085C937.492 475.245 900.638 470.091 856.435 470.091C812.232 470.091 775.359 475.251 767.121 482.091C765.989 481.152 765.397 480.182 765.397 479.193C765.397 470.973 806.153 464.302 856.435 464.302C906.717 464.302 947.479 470.973 947.479 479.193Z" fill="#FCB731"/>
<path d="M785.252 494.371V511.427" stroke="#1A1B1A" stroke-miterlimit="10"/>
<path d="M826.22 498.506V515.562" stroke="#1A1B1A" stroke-miterlimit="10"/>
<path d="M873.173 499.339V516.389" stroke="#1A1B1A" stroke-miterlimit="10"/>
<path d="M919.087 495.702V512.751" stroke="#1A1B1A" stroke-miterlimit="10"/>
<path d="M952.195 488.259V505.309" stroke="#1A1B1A" stroke-miterlimit="10"/>
<path d="M668.337 0V14.3447C666.913 52.8147 642.671 96.9865 618.435 115.51C594.193 134.033 534.31 161.105 534.31 161.105C517.199 138.311 577.082 98.4104 577.082 98.4104H490.107V131.185C482.977 178.204 457.316 158.258 457.316 158.258V82.0698C457.204 82.2501 457.086 82.4305 456.974 82.6046C456.974 82.6108 456.968 82.6108 456.968 82.617C424.513 132.976 405.983 98.4104 405.983 98.4104L435.924 44.2651C381.741 77.0396 376.589 40.1116 376.589 40.1116L473.513 0H668.337Z" fill="white"/>
<path d="M456.595 103.248C456.595 96.0787 456.869 77.6053 457.696 70.7159L514.343 69.9138" stroke="#221F20" stroke-width="1.5" stroke-miterlimit="10"/>
<path d="M494.388 44.2651H435.924L412.174 84.7746" stroke="#221F20" stroke-width="1.5" stroke-miterlimit="10"/>
<path d="M553.96 469.369C603.235 469.369 643.181 463.518 643.181 456.299C643.181 449.081 603.235 443.229 553.96 443.229C504.685 443.229 464.739 449.081 464.739 456.299C464.739 463.518 504.685 469.369 553.96 469.369Z" fill="#1A1B1A"/>
<path d="M547.831 232.698C619.835 250.065 634.134 320.109 614.416 382.126C594.697 444.143 539.419 484.41 454.722 456.013L547.831 232.704V232.698Z" fill="#232323"/>
<path d="M598.275 375.921C578.557 437.938 511.288 474.026 458.443 457.251C405.603 440.475 387.198 377.177 406.916 315.166C426.634 253.149 490.021 213.441 542.86 230.217C595.699 246.993 617.987 313.91 598.269 375.921H598.275Z" fill="#3D3D3D"/>
<path d="M441.605 328.46C426.964 374.522 437.698 421.429 471.621 440.655C470.315 440.326 469.02 439.959 467.739 439.548C423.965 425.651 408.721 373.216 425.054 321.844C441.387 270.472 493.897 237.579 537.67 251.476C542.119 252.887 546.307 254.728 550.221 256.954C507.3 246.209 457.447 278.648 441.605 328.46Z" fill="#232323"/>
<path d="M514.548 317.734L506.092 343.712L495.017 340.255L494.849 340.205L501.643 318.38L485.515 337.295L494.849 340.205L494.55 341.169L494.65 341.2L490.873 350.968L478.198 346.541L460.776 368.465L445.289 366.32L490.244 310.857L514.548 317.734Z" fill="white"/>
<path d="M534.123 338.806L530.471 351.92L550.046 355.57L543.158 365.462L527.242 362.235L520.789 383.73L483.58 375.131L491.582 351.764L502.72 355.141L498.202 367.396L510.684 370.617L515.195 357.939L502.72 355.358L506.185 343.743L518.636 347.623L526.165 323.112L566.61 334.939L559.292 344.819L534.123 338.806Z" fill="white"/>
<path d="M681.584 406.78C675.462 387.188 601.199 371.717 510.491 371.717C419.783 371.717 339.859 388.388 339.013 409.05H338.932V326.961C338.932 295.542 347.867 264.633 365.482 238.524C388.803 203.94 432.253 169.35 512.738 169.35C627.432 169.35 664.392 244.475 676.165 287.664C679.83 301.113 681.559 315.01 681.559 328.938L681.584 406.78Z" stroke="white" stroke-width="3" stroke-miterlimit="10"/>
<path d="M527.839 145.225C527.839 151.592 524.106 157.089 518.717 159.663C516.639 160.645 514.312 161.199 511.848 161.199C509.595 161.199 507.461 160.745 505.52 159.905C499.833 157.455 495.844 151.803 495.844 145.225C495.844 136.395 503.012 129.251 511.848 129.251C520.683 129.251 527.839 136.402 527.839 145.225Z" fill="white"/>
<path d="M614.951 379.937C653.51 386.323 678.069 395.544 681.578 406.774C681.852 407.632 681.989 408.509 681.989 409.398C681.989 430.221 605.2 447.097 510.485 447.097C415.77 447.097 338.994 430.221 338.994 409.398C338.994 409.273 338.994 409.168 339.007 409.043C339.479 397.546 361.587 388.021 398.933 381.181" stroke="white" stroke-width="3" stroke-miterlimit="10"/>
<path d="M492.472 170.544C473.861 174.573 441.219 186.891 412.964 224.503C390.023 255.045 378.107 292.471 378.107 330.692V433.927C353.405 427.399 338.54 419.004 338.54 409.858C338.54 409.734 338.54 409.628 338.552 409.503H338.471V327.415C338.471 295.996 347.406 265.068 365.022 238.966C386.351 207.341 424.537 175.705 492.478 170.544H492.472Z" fill="white"/>
<path d="M524.859 176.737C511.207 178.882 502.67 177.763 498.787 176.899C498.078 176.749 498.066 175.736 498.763 175.549L505.526 173.641C505.825 173.56 506.03 173.286 506.03 172.969V162.703C506.03 162.635 506.043 162.579 506.061 162.511L506.105 162.386C507.965 163.195 510.012 163.63 512.171 163.63C514.536 163.63 516.764 163.095 518.755 162.156V172.981C518.755 173.28 518.96 173.553 519.259 173.653L524.958 175.357C525.68 175.574 525.599 176.613 524.865 176.737H524.859Z" fill="white"/>
</svg>
